<svg width="2048" height="2048" viewBox="0 0 2048 2048" fill="none" xmlns="http://www.w3.org/2000/svg">
<rect width="2048" height="2048" fill="white"/>
<path d="M2000 512L1018 51L35 512H2000Z" fill="#1C1F53" stroke="#1C1F53" stroke-width="8"/>
<rect x="38" y="527" width="1952" height="1476" fill="#FFFCFC" stroke="#164D85" stroke-width="22"/>
<rect x="1000" y="949" width="523" height="1043" fill="#06529E"/>
<ellipse cx="1455" cy="1452" rx="37" ry="38" fill="#EFB42A"/>
<g clip-path="url(#clip0_7_5027)">
<path d="M488.12 1500.88C393.976 1500.88 299.832 1500.86 205.688 1500.98C201.53 1500.98 200 1500.57 200 1495.77C200.155 1315.23 200.155 1134.68 200.024 954.144C200.024 949.975 200.801 949.012 205.186 949.012C393.665 949.153 582.156 949.153 770.646 949C775.402 949 776 950.351 776 954.532C775.881 1134.88 775.881 1315.23 776.012 1495.57C776.012 1499.91 775.104 1501 770.551 1501C676.407 1500.85 582.263 1500.88 488.12 1500.88ZM245.721 984.457C244.754 984.974 244.311 985.831 244.359 986.865C245.028 1002.4 240.798 1017.64 241.766 1033.28C242.614 1046.92 241.933 1060.64 241.957 1074.34C241.957 1076.09 241.635 1078.07 242.328 1079.55C245.148 1085.54 245.255 1091.19 242.399 1097.35C241.109 1100.12 241.109 1103.89 243.104 1106.95C244.993 1109.86 245.255 1113.44 243.714 1115.89C240.989 1120.24 242.172 1124.55 242.256 1128.91C242.28 1130.2 242.997 1131.42 242.794 1132.89C240.929 1146.5 242.375 1160.19 241.981 1173.84C241.957 1174.78 242.089 1175.93 242.638 1176.62C245.184 1179.89 244.503 1183.22 243.188 1186.62C242.172 1189.21 242.172 1191.93 241.85 1194.64C241.24 1199.82 243.917 1204.45 244.144 1209.29C244.825 1223.74 243.188 1238.14 242.304 1252.58C241.384 1267.68 240.667 1283.04 244.084 1298.12C244.586 1300.33 244.897 1303.28 243.821 1304.99C241.515 1308.69 241.969 1312.5 241.957 1316.33C241.921 1340.58 242.124 1364.83 241.754 1389.07C241.694 1393.31 242.746 1397.46 242.973 1401.57C243.272 1407.23 243.224 1413.14 244.132 1418.9C244.801 1423.16 240.822 1427.02 241.85 1431.77C242.602 1435.23 241.001 1437.2 237.643 1439.55C232.684 1443.02 227.796 1441.58 222.849 1442.21C220.734 1442.48 217.842 1440.88 216.85 1444.32C215.631 1444.39 214.412 1444.46 213.193 1444.53C208.365 1443.93 205.378 1445.27 206.035 1450.81C206.166 1451.91 205.784 1453.18 205.282 1454.19C200.347 1464.15 205.629 1472.94 208.532 1481.99C208.795 1482.8 209.716 1483.82 210.504 1483.99C217.615 1485.58 224.809 1488.5 231.979 1487.67C242.423 1486.46 252.796 1488 263.217 1487C269.168 1486.44 275.681 1487.12 281.333 1486.27C296.51 1484.01 311.651 1484.96 326.78 1484.66C334.225 1484.51 341.813 1486.13 349.306 1485.5C357.743 1484.78 366.12 1482.74 374.318 1486.66C375.082 1487.02 376.481 1486.91 377.21 1486.45C384.738 1481.66 392.625 1486.8 400.429 1485.61C407.002 1484.6 414.004 1486.17 420.804 1486.81C432.671 1487.94 444.501 1482.84 456.392 1486.72C457.623 1487.12 459.379 1487.08 460.503 1486.51C467.697 1482.87 475.285 1487.65 482.563 1485.26C488.155 1483.43 493.999 1486.67 499.484 1485.44C510.598 1482.96 521.58 1485.73 532.503 1486.15C541.943 1486.52 551.145 1482.64 560.526 1485.39C561.159 1485.58 562.02 1484.84 562.784 1484.78C569.919 1484.28 577.316 1483.18 584.092 1485.18C588.728 1486.54 592.779 1486.38 597.332 1486.11C604.264 1485.68 611.314 1482.31 618.257 1486.48C619.44 1487.19 621.436 1486.97 622.954 1486.67C635.788 1484.18 648.862 1485.49 661.744 1484.26C665.592 1483.9 668.102 1487.05 671.926 1486.28C680.59 1484.58 689.624 1487.73 698.24 1484.56C698.838 1484.33 699.746 1484.87 700.487 1485.1C710.369 1488.16 720.42 1487.54 730.267 1485.5C735.477 1484.42 740.639 1483.42 745.407 1485.4C758.397 1490.82 767.587 1478.79 764.671 1467.05C763.345 1461.71 763.405 1456.48 762.831 1451.21C762.138 1444.87 759.927 1442.28 753.223 1442.17C748.443 1442.1 743.507 1442.9 738.942 1441.92C734.76 1441.03 728.187 1441.74 727.231 1436.49C725.737 1428.24 727.841 1419.53 724.554 1411.32C723.324 1408.23 726.514 1406.1 727.04 1403.19C728.57 1394.88 723.3 1386.76 726.693 1378.49C726.885 1378.02 726.227 1377.01 725.714 1376.49C724.196 1374.97 724.256 1373.28 725.176 1371.64C729.06 1364.83 726.192 1357.49 726.407 1350.52C726.61 1344.03 724.399 1337.34 724.495 1330.61C724.698 1315.53 724.088 1300.48 726.586 1285.4C728.116 1276.15 726.921 1266.46 726.849 1256.96C726.813 1252.93 727.136 1249.02 725.032 1245.01C723.646 1242.38 723.598 1238.57 725.69 1235.5C727.888 1232.28 727.829 1228.1 726.359 1225.41C724.148 1221.39 725.236 1217.44 724.387 1213.57C723.3 1208.62 728.295 1204.27 726.526 1200.21C723.682 1193.67 726.227 1187.8 726.61 1181.64C726.813 1178.34 727.064 1174.93 726.466 1171.73C723.981 1158.38 724.208 1145.05 725.08 1131.58C725.343 1127.47 726.98 1122.94 726.084 1119.61C724.997 1115.54 724.244 1112.51 726.538 1108.82C727.422 1107.4 725.929 1105.44 725.833 1103.95C725.367 1096.97 724.985 1089.87 725.905 1082.97C726.347 1079.68 727.518 1076.48 725.941 1073.53C724.734 1071.29 724.495 1069.15 724.495 1066.8C724.495 1055.25 724.483 1043.71 724.507 1032.18C724.507 1030.45 724.459 1028.76 725.176 1027.02C728.331 1019.49 730.828 1011.72 727.578 1003.66C725.295 997.987 723.969 992.303 724.315 986.207C724.351 985.632 723.491 984.997 723.061 984.398C721.866 984.363 720.671 984.305 719.487 984.305C635.143 984.293 550.81 984.258 466.466 984.269C392.912 984.34 319.323 984.41 245.721 984.457Z" fill="#FCFDFD"/>
<path d="M213.205 1444.54C214.424 1444.47 215.643 1444.4 216.862 1444.33C224.617 1444.39 232.385 1444.19 240.105 1444.63C244.718 1444.88 245.614 1443.32 245.602 1439.04C245.459 1333.26 245.447 1227.48 245.471 1121.71C245.483 1075.96 245.638 1030.2 245.722 984.457C319.323 984.41 392.912 984.34 466.514 984.328C550.858 984.316 635.191 984.34 719.535 984.363C720.73 984.363 721.925 984.422 723.108 984.457C723.168 986.607 723.264 988.756 723.264 990.905C723.3 1082.85 723.335 1174.82 723.347 1266.76C723.359 1324.09 723.407 1381.42 723.192 1438.74C723.168 1443.87 724.793 1444.94 729.562 1444.67C736.505 1444.29 743.507 1444.85 750.45 1444.51C754.968 1444.29 756.832 1445.35 756.593 1450.2C756.211 1458.01 756.234 1465.87 756.665 1473.67C756.939 1478.73 755.541 1480.2 750.128 1480.19C596.639 1480.02 443.151 1480.05 289.662 1480.04C265.774 1480.04 241.886 1480.08 217.997 1480.06C215.619 1480.06 212.524 1481.09 212.643 1476.77C212.99 1466.04 212.141 1455.28 213.205 1444.54ZM687.019 1109.97C687.019 1081.42 686.971 1052.88 687.079 1024.33C687.09 1020.71 686.792 1018.68 682.107 1018.69C623.814 1018.86 565.521 1018.85 507.228 1018.73C503.225 1018.72 502.328 1019.91 502.34 1023.72C502.472 1080.81 502.484 1137.91 502.328 1195C502.316 1199.28 503.26 1200.62 507.849 1200.61C565.748 1200.43 623.647 1200.42 681.534 1200.57C686.063 1200.58 687.162 1199.36 687.138 1195.03C686.935 1166.68 687.031 1138.32 687.019 1109.97ZM465.522 1109.93C465.558 1109.93 465.581 1109.93 465.617 1109.93C465.617 1081.77 465.462 1053.61 465.749 1025.46C465.809 1019.97 464.076 1018.7 458.758 1018.73C401.863 1018.88 344.956 1018.85 288.061 1018.68C283.293 1018.67 281.584 1019.66 281.608 1024.73C281.835 1081.43 281.859 1138.14 281.728 1194.84C281.716 1199.55 283.078 1200.61 287.703 1200.59C345.004 1200.45 402.305 1200.45 459.594 1200.65C464.769 1200.68 465.677 1199.06 465.641 1194.39C465.402 1166.24 465.522 1138.09 465.522 1109.93ZM594.919 1235.42C594.919 1235.38 594.919 1235.36 594.919 1235.32C566.656 1235.32 538.394 1235.28 510.132 1235.36C501.05 1235.38 502.388 1234.15 502.388 1243.23C502.376 1298.78 502.531 1354.33 502.364 1409.88C502.352 1415.3 503.858 1416.67 509.283 1416.66C566.202 1416.5 623.133 1416.51 680.052 1416.76C685.776 1416.78 687.318 1415.45 687.282 1409.71C686.995 1353.38 686.959 1297.04 687.126 1240.7C687.138 1236.02 685.752 1235.31 681.498 1235.34C652.638 1235.5 623.778 1235.42 594.919 1235.42ZM465.402 1326.3C465.438 1326.3 465.474 1326.3 465.498 1326.3C465.498 1297.93 465.342 1269.56 465.641 1241.2C465.689 1236.1 464.112 1235.23 459.343 1235.24C402.006 1235.39 344.681 1235.36 287.344 1235.22C283.126 1235.21 281.56 1235.86 281.572 1240.55C281.823 1297.48 281.859 1354.41 281.799 1411.34C281.799 1415.36 282.815 1416.66 287.069 1416.65C344.801 1416.52 402.532 1416.52 460.264 1416.66C464.518 1416.67 465.522 1415.44 465.498 1411.4C465.319 1383.04 465.402 1354.67 465.402 1326.3Z" fill="#08529E"/>
<path d="M213.205 1444.54C212.141 1455.28 212.99 1466.04 212.679 1476.77C212.56 1481.09 215.655 1480.06 218.033 1480.06C241.921 1480.08 265.81 1480.04 289.698 1480.04C443.187 1480.04 596.675 1480.01 750.164 1480.19C755.577 1480.2 756.975 1478.73 756.7 1473.67C756.27 1465.87 756.246 1458.01 756.629 1450.2C756.868 1445.35 755.003 1444.28 750.486 1444.51C743.531 1444.85 736.54 1444.29 729.597 1444.67C724.829 1444.94 723.204 1443.87 723.228 1438.74C723.443 1381.42 723.395 1324.09 723.383 1266.76C723.371 1174.82 723.335 1082.85 723.3 990.905C723.3 988.756 723.192 986.607 723.144 984.457C723.586 985.068 724.435 985.69 724.399 986.266C724.052 992.361 725.367 998.046 727.661 1003.72C730.912 1011.76 728.414 1019.55 725.259 1027.08C724.53 1028.82 724.59 1030.51 724.59 1032.23C724.566 1043.78 724.578 1055.32 724.578 1066.86C724.578 1069.2 724.817 1071.33 726.024 1073.59C727.614 1076.54 726.442 1079.74 725.988 1083.03C725.056 1089.91 725.439 1097.03 725.917 1104.01C726.012 1105.5 727.506 1107.46 726.622 1108.88C724.339 1112.57 725.08 1115.6 726.168 1119.67C727.052 1123 725.427 1127.53 725.164 1131.64C724.291 1145.11 724.052 1158.44 726.55 1171.78C727.148 1174.99 726.909 1178.41 726.693 1181.7C726.311 1187.86 723.766 1193.72 726.61 1200.27C728.378 1204.34 723.383 1208.67 724.471 1213.63C725.319 1217.5 724.232 1221.45 726.442 1225.47C727.912 1228.15 727.984 1232.33 725.773 1235.56C723.67 1238.62 723.73 1242.44 725.116 1245.07C727.219 1249.08 726.909 1252.99 726.932 1257.02C727.004 1266.51 728.211 1276.21 726.67 1285.46C724.172 1300.54 724.781 1315.59 724.578 1330.67C724.495 1337.4 726.693 1344.09 726.49 1350.57C726.275 1357.55 729.131 1364.89 725.259 1371.7C724.327 1373.34 724.279 1375.03 725.797 1376.55C726.311 1377.07 726.968 1378.08 726.777 1378.55C723.371 1386.82 728.653 1394.95 727.124 1403.25C726.586 1406.16 723.395 1408.29 724.638 1411.38C727.924 1419.59 725.833 1428.29 727.315 1436.55C728.271 1441.81 734.843 1441.09 739.026 1441.98C743.591 1442.96 748.538 1442.15 753.307 1442.23C760.011 1442.34 762.221 1444.93 762.914 1451.27C763.488 1456.52 763.428 1461.77 764.755 1467.1C767.671 1478.85 758.469 1490.88 745.491 1485.46C740.711 1483.48 735.549 1484.48 730.35 1485.56C720.503 1487.6 710.453 1488.22 700.57 1485.16C699.817 1484.92 698.921 1484.39 698.324 1484.62C689.696 1487.79 680.661 1484.64 672.009 1486.34C668.185 1487.09 665.664 1483.95 661.828 1484.32C648.933 1485.54 635.872 1484.24 623.037 1486.73C621.52 1487.02 619.512 1487.25 618.341 1486.54C611.386 1482.37 604.335 1485.74 597.416 1486.17C592.863 1486.45 588.812 1486.6 584.175 1485.24C577.399 1483.24 570.002 1484.32 562.868 1484.84C562.091 1484.9 561.243 1485.64 560.609 1485.45C551.24 1482.7 542.039 1486.58 532.586 1486.21C521.664 1485.79 510.681 1483.01 499.568 1485.5C494.071 1486.72 488.227 1483.49 482.646 1485.32C475.369 1487.71 467.78 1482.92 460.586 1486.57C459.463 1487.13 457.706 1487.18 456.475 1486.78C444.585 1482.89 432.754 1488 420.888 1486.87C414.1 1486.23 407.085 1484.67 400.512 1485.67C392.709 1486.87 384.822 1481.72 377.293 1486.51C376.564 1486.98 375.166 1487.08 374.401 1486.72C366.203 1482.8 357.826 1484.84 349.39 1485.56C341.885 1486.19 334.308 1484.58 326.863 1484.72C311.734 1485.02 296.594 1484.06 281.417 1486.33C275.764 1487.18 269.251 1486.5 263.3 1487.06C252.88 1488.06 242.507 1486.52 232.062 1487.73C224.88 1488.56 217.698 1485.64 210.588 1484.05C209.799 1483.88 208.879 1482.85 208.616 1482.04C205.712 1473 200.418 1464.2 205.366 1454.24C205.868 1453.23 206.25 1451.95 206.118 1450.87C205.39 1445.28 208.377 1443.96 213.205 1444.54Z" fill="#F7F7FC"/>
<path d="M245.721 984.457C245.638 1030.2 245.482 1075.96 245.47 1121.71C245.447 1227.48 245.459 1333.26 245.602 1439.04C245.602 1443.32 244.718 1444.88 240.105 1444.63C232.373 1444.19 224.605 1444.4 216.862 1444.33C217.842 1440.89 220.746 1442.49 222.861 1442.22C227.796 1441.6 232.696 1443.03 237.655 1439.56C241.013 1437.21 242.614 1435.24 241.862 1431.78C240.834 1427.03 244.813 1423.17 244.144 1418.92C243.236 1413.16 243.284 1407.24 242.985 1401.58C242.77 1397.47 241.706 1393.32 241.766 1389.08C242.136 1364.84 241.921 1340.59 241.969 1316.34C241.981 1312.5 241.527 1308.69 243.833 1305C244.909 1303.29 244.598 1300.34 244.096 1298.13C240.678 1283.05 241.384 1267.69 242.316 1252.59C243.2 1238.15 244.837 1223.76 244.156 1209.3C243.929 1204.46 241.252 1199.83 241.862 1194.65C242.184 1191.94 242.196 1189.23 243.2 1186.63C244.514 1183.24 245.196 1179.89 242.65 1176.64C242.112 1175.94 241.969 1174.78 241.993 1173.85C242.387 1160.2 240.941 1146.51 242.806 1132.9C243.009 1131.44 242.292 1130.22 242.268 1128.92C242.172 1124.56 241.001 1120.25 243.726 1115.9C245.267 1113.44 245.004 1109.86 243.116 1106.97C241.121 1103.9 241.133 1100.13 242.411 1097.36C245.267 1091.2 245.16 1085.56 242.34 1079.57C241.646 1078.09 241.969 1076.1 241.969 1074.35C241.945 1060.66 242.626 1046.93 241.778 1033.29C240.81 1017.65 245.04 1002.41 244.371 986.877C244.311 985.843 244.753 984.974 245.721 984.457Z" fill="#F7F7FC"/>
<path d="M687.019 1109.97C687.031 1138.32 686.935 1166.68 687.126 1195.03C687.15 1199.36 686.051 1200.58 681.522 1200.57C623.623 1200.42 565.724 1200.43 507.837 1200.61C503.248 1200.62 502.304 1199.27 502.316 1195C502.46 1137.91 502.448 1080.81 502.328 1023.72C502.316 1019.91 503.224 1018.73 507.216 1018.73C565.509 1018.85 623.802 1018.85 682.095 1018.69C686.78 1018.68 687.078 1020.71 687.066 1024.33C686.971 1052.87 687.019 1081.42 687.019 1109.97Z" fill="#F7F7FC"/>
<path d="M465.522 1109.93C465.522 1138.08 465.414 1166.24 465.629 1194.39C465.665 1199.06 464.769 1200.68 459.582 1200.65C402.281 1200.44 344.98 1200.45 287.691 1200.59C283.066 1200.61 281.703 1199.54 281.715 1194.84C281.847 1138.14 281.811 1081.43 281.596 1024.73C281.572 1019.66 283.281 1018.67 288.049 1018.68C344.944 1018.85 401.851 1018.88 458.746 1018.73C464.064 1018.72 465.796 1019.97 465.737 1025.46C465.45 1053.61 465.605 1081.77 465.605 1109.93C465.581 1109.93 465.545 1109.93 465.522 1109.93Z" fill="#F7F7FC"/>
<path d="M594.919 1235.42C623.778 1235.42 652.638 1235.5 681.498 1235.32C685.752 1235.3 687.138 1236 687.126 1240.69C686.959 1297.02 686.983 1353.36 687.282 1409.7C687.306 1415.44 685.776 1416.77 680.052 1416.74C623.133 1416.5 566.202 1416.49 509.283 1416.65C503.87 1416.66 502.352 1415.29 502.364 1409.87C502.531 1354.32 502.388 1298.77 502.388 1243.22C502.388 1234.14 501.038 1235.37 510.132 1235.35C538.394 1235.26 566.656 1235.31 594.919 1235.31C594.919 1235.36 594.919 1235.39 594.919 1235.42Z" fill="#F7F7FC"/>
<path d="M465.402 1326.3C465.402 1354.66 465.319 1383.04 465.498 1411.4C465.522 1415.44 464.518 1416.67 460.264 1416.66C402.532 1416.52 344.801 1416.52 287.069 1416.65C282.815 1416.66 281.799 1415.36 281.799 1411.34C281.859 1354.41 281.823 1297.48 281.572 1240.55C281.548 1235.86 283.126 1235.21 287.344 1235.22C344.681 1235.36 402.006 1235.38 459.343 1235.24C464.112 1235.23 465.701 1236.1 465.641 1241.2C465.354 1269.56 465.498 1297.93 465.498 1326.3C465.474 1326.3 465.438 1326.3 465.402 1326.3Z" fill="#F7F7FC"/>
</g>
<defs>
<clipPath id="clip0_7_5027">
<rect width="576" height="552" fill="white" transform="translate(200 949)"/>
</clipPath>
</defs>
</svg>
