<svg width="2048" height="2048" viewBox="0 0 2048 2048" fill="none" xmlns="http://www.w3.org/2000/svg">
<rect width="2048" height="2048" fill="white"/>
<path d="M2000 512L1018 51L35 512H2000Z" fill="#1C1F53" stroke="#1C1F53" stroke-width="8"/>
<rect x="38" y="527" width="1952" height="1476" fill="white" stroke="#164D85" stroke-width="22"/>
<line x1="536.5" y1="537.993" x2="537.5" y2="1991.99" stroke="#164D85" stroke-width="21"/>
<line x1="1017.5" y1="538" x2="1017.5" y2="1992" stroke="#164D85" stroke-width="21"/>
<line x1="1498.5" y1="538" x2="1498.5" y2="1992" stroke="#164D85" stroke-width="21"/>
<line x1="1979" y1="1039.5" x2="49" y2="1039.5" stroke="#164D85" stroke-width="21"/>
<line x1="1979" y1="1510.5" x2="49" y2="1510.5" stroke="#164D85" stroke-width="21"/>
<rect id="laundry" x="38" y="527" width="498.5" height="512.5" fill="transparent"/>
<rect id="kitchen-shelving" x="537.5" y="527" width="480" height="512.5" fill="transparent"/>
<rect id="paper-goods" x="1017.5" y="527" width="481" height="512.5" fill="transparent"/>
<rect id="bathroom" x="1498.5" y="527" width="491.5" height="512.5" fill="transparent"/>
<rect id="women" x="38" y="1039.5" width="498.5" height="471" fill="transparent"/>
<rect id="men" x="537.5" y="1039.5" width="480" height="471" fill="transparent"/>
<rect id="reception" x="1017.5" y="1039.5" width="481" height="471" fill="transparent"/>
<rect id="baby" x="1498.5" y="1039.5" width="491.5" height="471" fill="transparent"/>
<rect id="footwear" x="38" y="1510.5" width="498.5" height="492.5" fill="transparent"/>
<rect id="vanity" x="537.5" y="1510.5" width="480" height="492.5" fill="transparent"/>
<rect id="garage" x="1017.5" y="1510.5" width="481" height="492.5" fill="transparent"/>
<rect id="cleaning" x="1498.5" y="1510.5" width="491.5" height="492.5" fill="transparent"/>
</svg>
