<svg xmlns="http://www.w3.org/2000/svg" viewBox="0 0 1200 900" role="img" aria-label="بيت العز"><defs><filter id="glow"><feGaussianBlur stdDeviation="12"/></filter></defs><path fill="#1A237E" d="M100 350 600 80l500 270v430H100z"/><path fill="#0056B3" d="M100 350 600 80l500 270-500 240z" opacity=".85"/><g fill="#F8F9FA" stroke="#75777E" stroke-width="5"><g id="laundry"><path d="M130 250h180v120H130z"/><path fill="#9E9E9E" d="M130 250l45-35h180l-45 35z"/><circle cx="220" cy="310" r="25"/></g><g id="kitchen-shelving"><path d="M390 190h180v120H390z"/><path fill="#9E9E9E" d="M390 190l45-35h180l-45 35z"/><path d="M420 230h120M420 260h120"/></g><g id="paper-goods"><path d="M700 250h180v120H700z"/><path fill="#9E9E9E" d="M700 250l45-35h180l-45 35z"/><circle cx="790" cy="310" r="25"/></g><g id="bathroom"><path d="M80 420h180v120H80z"/><path fill="#9E9E9E" d="M80 420l45-35h180l-45 35z"/><path d="M135 495h70"/></g><g id="women"><path d="M310 400h180v120H310z"/><path fill="#9E9E9E" d="M310 400l45-35h180l-45 35z"/><circle cx="400" cy="450" r="30"/></g><g id="men"><path d="M540 400h180v120H540z"/><path fill="#9E9E9E" d="M540 400l45-35h180l-45 35z"/><path d="M590 470l40-40 40 40"/></g><g id="reception"><path d="M770 420h180v120H770z"/><path fill="#9E9E9E" d="M770 420l45-35h180l-45 35z"/><path d="M815 485h90"/></g><g id="baby"><path d="M150 600h180v120H150z"/><path fill="#9E9E9E" d="M150 600l45-35h180l-45 35z"/><path d="M230 640h20v45h-20z"/></g><g id="footwear"><path d="M380 580h180v120H380z"/><path fill="#9E9E9E" d="M380 580l45-35h180l-45 35z"/><path d="M430 650q50 25 90 0"/></g><g id="vanity"><path d="M610 580h180v120H610z"/><path fill="#9E9E9E" d="M610 580l45-35h180l-45 35z"/><circle cx="700" cy="635" r="25"/></g><g id="garage"><path d="M850 600h180v120H850z"/><path fill="#9E9E9E" d="M850 600l45-35h180l-45 35z"/><path d="M875 625h130M875 650h130"/></g><g id="cleaning"><path d="M500 730h180v100H500z"/><path fill="#9E9E9E" d="M500 730l45-35h180l-45 35z"/><path d="M575 760h25v45h-25z"/></g></g><g id="main-entrance-cta" class="door" tabindex="0" aria-label="افتح البيت"><rect x="535" y="610" width="130" height="150" rx="8" fill="#0056B3" filter="url(#glow)"/><rect x="535" y="610" width="130" height="150" rx="8" fill="#0056B3"/><circle cx="640" cy="685" r="8" fill="#F8F9FA"/></g></svg>
