<svg width="469" height="447" viewBox="0 0 469 447" fill="none" xmlns="http://www.w3.org/2000/svg">
<g clip-path="url(#clip0_6_1345)">
<path d="M0.122339 223.61C0.122339 150.5 0.166794 77.39 8.74857e-05 4.28C-0.0110263 0.55 1.03367 0 4.89013 0C157.949 0.1 311.007 0.1 464.066 0.01C467.855 0.01 468.989 0.46 468.989 4.27C468.844 150.49 468.845 296.71 468.978 442.93C468.978 446.45 468.055 446.97 464.366 446.97C311.118 446.87 157.871 446.86 4.63452 447.01C0.0889973 447.01 0.0445425 445.58 0.0445425 442.45C0.144566 369.5 0.122339 296.56 0.122339 223.61ZM103.125 195.72C102.158 196.25 101.524 196.99 101.302 198C101.013 198.08 100.902 198.25 100.991 198.51C97.0342 202.34 96.8452 207.24 96.8452 211.96C96.8008 242.22 96.923 272.49 97.0898 302.75C97.112 306.2 97.1009 309.73 98.9124 312.96C99.0013 313.28 99.0902 313.61 99.168 313.93C100.246 317.24 102.202 320.05 105.103 322.32L105.214 322.42C105.959 323.04 106.703 323.67 107.437 324.29L107.681 324.1L107.481 324.33C112.471 329.23 119.273 330.53 126.019 330.68C143.712 331.06 161.416 330.94 179.12 330.84C193.135 330.76 209.35 317.48 207.016 305.08C207.138 304.6 207.371 304.11 207.371 303.63C207.471 273.04 207.66 242.45 207.549 211.86C207.516 203.48 203.471 196.47 196.258 191.04C195.913 189.04 198.869 188.77 198.881 186.97C200.859 178.92 200.348 170.85 198.814 162.84C198.258 159.92 195.446 158.04 192.401 157.04C189.112 155.96 187.222 154.11 186.566 151.04C185.055 143.91 180.209 138.52 173.663 135.06C166.406 131.22 165.361 126.77 167.495 119.88C171.041 108.44 162.661 98.48 150.991 99.25C139.611 100.01 132.676 108.8 135.854 120.23C137.722 126.96 135.143 131.01 129.942 134.87C126.274 137.59 121.962 139.77 119.928 143.96C118.806 144.73 118.339 145.83 118.084 147.03C117.995 147.36 117.906 147.68 117.806 148.01C117.45 148.76 116.772 149.52 116.794 150.25C116.983 154.75 114.749 157.09 109.771 158.01C106.003 158.71 103.98 161.38 103.902 164.93C103.769 171.23 103.68 177.52 103.669 183.82C103.669 185.51 104.103 187.44 105.581 188.34C109.093 190.47 107.07 191.96 105.258 193.62L105.57 193.95L105.236 193.64C104.203 194.06 103.447 194.73 103.091 195.72L103.38 195.95L103.125 195.72ZM347.782 113.15C346.693 112.74 345.604 112.1 344.448 113.03C344.159 112.94 343.87 112.92 343.57 112.97C342.781 111.42 341.525 111.34 340.014 112.06C339.336 112.03 338.658 112.01 337.98 111.98C336.724 110.17 334.635 110.81 332.968 110.84C313.874 111.17 297.415 116.65 285.49 130.83C281.745 134.79 278.288 138.92 276.343 143.9C268.908 164.78 270.987 184.04 288.246 200.73C289.546 201.85 290.836 202.97 292.136 204.08C293.547 205.58 293.892 206.82 292.469 208.81C289.991 212.28 288.202 216.15 286.123 219.85C280.9 228.41 276.321 237.24 271.942 246.17C270.842 247.19 269.897 248.29 269.742 249.77L269.808 249.72C269.075 250.82 268.175 251.86 267.652 253.04C265.552 257.73 262.585 260.46 256.139 260C249.948 259.56 244.369 262.21 239.535 265.77C237.256 266.74 235.534 268.27 234.2 270.16C223.798 280.46 222.164 294.95 229.977 307.77C237.334 319.84 253.06 326.94 267.619 324.44C273.109 323.5 278.899 322.7 282.478 317.99C282.8 318.03 283.1 317.98 283.378 317.84C284.879 317.95 285.512 316.93 286.257 316.06C287.535 315.39 288.568 314.53 289.035 313.21C299.771 301.78 300.627 285.96 291.191 273.74C290.058 272.27 288.435 271 288.713 268.94C289.024 268.75 289.135 268.49 289.013 268.16C290.135 266.92 291.302 265.69 291.202 263.94C292.758 261.38 294.414 258.85 295.87 256.24C302.461 244.42 307.24 231.8 315.253 220.59C317.264 217.77 319.165 216.52 323.166 216.82C333.846 217.64 344.537 217.55 354.428 212.87C361.719 210.23 367.976 206.29 373.111 200.92C382.991 192.52 388.014 182.11 388.892 169.99C390.559 162.88 389.115 155.97 386.758 149.24C381.891 135.31 373.544 123.74 358.452 117.04C355.262 114.95 351.617 113.85 347.782 113.15Z" fill="#FEFEFE"/>
<path d="M101.002 198.51C100.913 198.25 101.013 198.08 101.313 198C102.869 197.86 103.458 197.08 103.136 195.72L103.413 195.97L103.124 195.74C104.892 195.93 105.647 195.27 105.269 193.66L105.603 193.97L105.292 193.64C108.492 194.19 108.904 192.26 109.126 190.16C113.682 190.95 118.184 192.58 122.907 190.9C125.018 190.15 127.141 190.71 129.275 190.72C140.267 190.81 151.258 191.67 162.261 190.24C170.107 189.22 177.909 190.52 185.622 191.97C188.222 191.33 191.745 193.64 193.401 189.99L193.412 189.98C194.368 190.33 195.324 190.68 196.28 191.03C203.482 196.46 207.538 203.46 207.571 211.85C207.683 242.44 207.494 273.03 207.394 303.62C207.394 304.1 207.16 304.59 207.038 305.07C204.304 302.4 205.771 299.13 205.727 296.17C205.682 293.06 204.793 291.44 201.081 291.95C200.892 290.29 200.714 288.63 200.525 286.96C201.048 284.29 201.037 281.62 200.559 278.94C200.57 277.61 200.581 276.28 200.592 274.95C200.603 273.61 200.614 272.27 200.625 270.93C200.636 267.27 200.648 263.61 200.659 259.95C200.659 258.28 200.648 256.62 200.648 254.95C201.003 249.95 201.092 244.95 200.514 239.96C200.981 237.29 201.003 234.63 200.392 231.97C200.836 228.27 200.836 224.58 200.214 220.89C200.181 220.22 200.147 219.54 200.125 218.87C200.759 215.21 200.403 211.54 199.758 207.96C198.125 198.99 191.512 192.94 182.777 192.88C162.816 192.76 142.867 192.95 122.907 193.02C114.272 193.05 108.948 197.21 105.825 204.12C104.269 207.58 103.869 211.22 103.858 214.88C103.78 243.48 103.725 272.08 103.747 300.68C103.747 305.9 104.903 310.91 108.681 315.13C111.782 320.02 116.805 322.72 122.373 324.79C120.562 327.02 118.417 325.38 116.972 324.7C113.749 323.19 110.726 323.29 107.503 324.3L107.703 324.07L107.459 324.26C107.792 322.6 107.092 321.93 105.236 322.39L105.125 322.29C104.903 318.49 102.958 315.67 99.1902 313.9C99.1013 313.58 99.0123 313.25 98.9345 312.93C101.424 310.76 98.779 308.59 98.8679 306.38C100.246 270.46 96.3895 234.42 101.002 198.51Z" fill="#1B1735"/>
<path d="M119.939 143.98C121.973 139.79 126.285 137.61 129.953 134.89C135.154 131.03 137.733 126.98 135.865 120.25C132.687 108.82 139.622 100.02 151.002 99.27C162.683 98.49 171.052 108.46 167.506 119.9C165.372 126.78 166.417 131.24 173.674 135.08C180.22 138.54 185.066 143.93 186.577 151.06C187.222 154.13 189.123 155.99 192.412 157.06C195.457 158.06 198.269 159.93 198.825 162.86C200.358 170.86 200.87 178.94 198.891 186.99C198.525 186.67 198.158 186.35 197.791 186.03C197.813 183.36 197.825 180.68 197.847 178.01C199.547 176.02 199.569 174.04 197.847 172.05C197.825 170.04 197.802 168.03 197.78 166.01C197.769 164.08 196.613 163.16 194.557 163.01C193.479 158.37 189.378 158.07 185.344 158.05C169.14 157.98 152.936 158.03 136.743 158.04C136.688 157.4 136.632 156.76 136.588 156.13C141.4 155.99 146.212 155.85 151.013 155.71C152.236 155.72 153.458 155.72 154.681 155.73C156.059 155.73 157.426 155.74 158.804 155.74C162.227 155.74 165.639 155.73 169.062 155.73L169.529 155.86L169.996 155.73C171.152 155.73 172.319 155.73 173.474 155.73C175.308 155.72 177.131 155.71 178.965 155.7C180.409 155.48 180.843 154.52 180.343 153.52C177.564 148.02 174.908 142.44 168.884 138.96C162.283 135.15 158.615 128.48 160.471 122.62C161.483 119.45 161.205 116.37 161.116 113.28C160.994 109.02 156.237 105.15 151.758 105.17C146.812 105.19 142.623 108.51 142.345 113.05C142.145 116.18 142.456 119.36 142.745 122.5C143.356 129.03 141.2 134.42 135.921 139.14C132.176 142.48 127.019 144.57 124.663 149.17C123.062 150.5 122.351 152.25 121.784 154.07C120.673 151.95 121.118 149.94 122.329 147.99C123.874 145.47 122.773 144.31 119.939 143.98Z" fill="#261829"/>
<path d="M276.354 143.9C278.299 138.92 281.756 134.79 285.501 130.83C288.98 133.3 293.003 131.46 296.726 132.01C302.072 135.84 307.484 139.59 312.73 143.53C314.597 144.93 316.242 146.43 318.931 146.03C319.12 147.92 320.732 149.13 322.265 149.66C329.812 152.31 335.746 157.57 343.404 159.99C348.872 163.08 355.273 163.93 361.163 166C361.341 166.47 361.386 167.21 361.73 167.35C369.01 170.43 377.323 169.33 384.747 171.95C386.603 172.61 387.67 170.93 388.903 170.01C388.025 182.13 383.002 192.54 373.122 200.94C372.188 194.55 366.72 196.14 362.264 195.96C360.019 191.82 355.329 192.9 351.628 191.67C341.081 188.17 330.545 184.56 320.487 179.94C318.953 179.24 319.009 178.24 318.909 177.1C320.965 177.72 323.143 178.13 325.055 179.01C336.102 184.13 347.794 187.68 359.752 190.57C373.878 193.99 376.045 192.82 379.546 179.95C379.723 179.31 379.812 178.64 380.001 178C380.701 175.59 379.701 174.29 377.001 173.68C358.096 169.42 340.536 162.19 323.521 153.81L323.555 153.88C315.542 148.6 307.506 143.35 299.538 138.02C292.158 133.1 291.28 133.23 286.357 140.43C286.068 140.85 285.768 141.27 285.501 141.71C280.622 149.65 280.622 150.48 288.257 156.13C293.292 159.86 297.682 164.54 304.35 166.19C306.573 167.53 308.807 168.87 311.029 170.21C311.674 173.32 315.697 173.47 317.153 175.87C315.686 175.97 314.241 176.18 312.83 175.49C304.661 171.5 297.393 166.3 290.28 161.05C284.134 156.5 278.166 151.46 276.354 143.9Z" fill="#261829"/>
<path d="M107.492 324.32C110.704 323.32 113.738 323.21 116.961 324.72C118.417 325.4 120.551 327.04 122.362 324.81C123.096 324.89 123.829 324.98 124.563 325.06C125.385 325.35 126.219 325.89 127.041 325.89C144.334 325.94 161.627 325.94 178.92 325.95C180.443 325.95 181.943 325.96 182.277 324.17C192.579 321.21 199.236 315.23 200.603 305.36C201.214 300.94 200.937 296.42 201.059 291.94C204.771 291.43 205.66 293.05 205.704 296.16C205.749 299.12 204.282 302.38 207.016 305.06C209.35 317.46 193.135 330.74 179.12 330.82C161.416 330.92 143.712 331.03 126.019 330.66C119.273 330.52 112.482 329.22 107.492 324.32Z" fill="#2A203E"/>
<path d="M318.92 146.02C316.231 146.42 314.586 144.92 312.719 143.52C307.473 139.59 302.06 135.83 296.715 132.01C296.548 131.17 296.315 130.34 295.203 130.16C289.213 129.17 291.436 126.87 294.314 124.86C297.504 122.63 300.705 120.14 304.361 118.76C315.075 114.73 326.311 112.37 337.98 111.99C338.658 112.02 339.336 112.04 340.014 112.07C340.914 113.28 342.281 113.01 343.57 112.98C343.87 112.92 344.159 112.94 344.448 113.04C344.915 113.87 345.771 114.03 346.682 114.09C348.949 117.55 353.884 115.57 356.64 118.04C360.663 119.64 362.597 123.48 365.998 125.5C379.89 133.77 385.88 145.42 385.569 160.09C385.514 162.79 384.291 164.51 381.268 165.06C380.279 160.38 382.969 155.21 378.99 150.92C378.745 146.86 375.656 143.77 374.455 140.03C374.433 138.75 373.744 138.05 372.31 137.98L372.288 137.96C371.999 135.68 370.421 134.09 368.81 132.45C365.587 129.16 361.097 127.45 357.407 124.83C344.037 115.34 329.7 114.81 314.441 120.01H314.419C308.373 120.49 304.139 124.1 299.582 127.09C297.204 128.65 298.248 129.82 300.282 131.24C307.506 136.28 314.575 141.51 322.232 146.02C321.154 146.01 320.043 146.01 318.92 146.02Z" fill="#1A214D"/>
<path d="M282.478 318.01C278.899 322.71 273.098 323.51 267.619 324.46C253.06 326.96 237.334 319.86 229.977 307.79C222.175 294.98 223.797 280.48 234.2 270.18C234.433 272.35 234.722 274.49 237.556 275.26C236.878 276.17 236.189 277.08 235.511 277.99C235.222 278.42 234.944 278.84 234.655 279.27C230.099 288.01 230.421 296.83 236.145 304.78C245.869 318.32 257.717 321.37 275.632 315.94C275.976 315.96 276.332 315.97 276.677 315.97C276.699 321.04 280.744 316.87 282.478 318.01Z" fill="#261829"/>
<path d="M318.909 177.1C319.009 178.23 318.953 179.23 320.487 179.94C330.545 184.56 341.081 188.18 351.628 191.67C355.329 192.9 360.019 191.82 362.264 195.96L362.164 196.13C357.262 196.36 352.739 194.83 348.138 193.67C340.814 191.83 334.168 188.5 327.111 186.1C319.209 183.41 311.974 179.74 305.183 175.3C298.348 170.82 291.636 166.19 284.801 161.7C281.511 159.54 279.388 160.17 278.944 164.02C273.865 163.39 273.92 166.58 274.676 169.32C276.277 175.11 278.588 180.73 280.255 186.51C281.778 191.78 287.335 194.83 288.946 199.98C288.691 200.22 288.457 200.47 288.246 200.74C270.997 184.05 268.919 164.78 276.343 143.91C278.155 151.47 284.123 156.51 290.258 161.05C297.37 166.31 304.639 171.5 312.807 175.49C314.23 176.18 315.675 175.97 317.131 175.87C317.731 176.27 318.32 176.68 318.909 177.1Z" fill="#1B1735"/>
<path d="M354.428 212.88C344.537 217.56 333.857 217.65 323.165 216.83C319.164 216.52 317.264 217.78 315.252 220.6C307.239 231.82 302.46 244.43 295.87 256.25C294.414 258.86 292.769 261.39 291.202 263.95C289.024 264.75 288.79 266.37 289.013 268.17C289.124 268.5 289.024 268.76 288.713 268.95C286.601 268.88 284.067 269.44 285.312 265.96C285.89 264.34 285.434 262.42 285.445 260.64C286.29 259.09 287.146 257.53 287.99 255.98C291.302 255.98 288.201 258.9 290.269 259.71C290.735 259.38 291.536 259.09 291.791 258.59C296.303 249.59 300.804 240.58 305.183 231.53C306.217 229.39 304.472 228.98 302.572 228.96C305.117 223.96 307.651 218.97 310.196 213.97C316.453 213.97 322.787 214.9 328.889 214.56C337.402 214.08 346.171 214.6 354.45 211.99C354.439 212.28 354.428 212.58 354.428 212.88Z" fill="#1B1735"/>
<path d="M285.445 260.64C285.434 262.42 285.89 264.34 285.312 265.96C284.067 269.44 286.601 268.88 288.713 268.95C288.435 271.01 290.058 272.29 291.191 273.75C300.627 285.97 299.771 301.79 289.035 313.22C289.302 309.83 286.668 309.85 284.078 309.83C291.747 298.59 293.947 287.19 283.967 276.19C280.533 272.41 280.166 268.98 282.1 264.87C282.745 263.16 283.056 261.24 285.445 260.64Z" fill="#261829"/>
<path d="M271.953 246.18C276.321 237.25 280.911 228.42 286.134 219.86C288.168 219.57 289.179 218.36 290.013 216.76C291.391 214.12 293.003 211.57 294.503 208.98C296.07 209.36 297.626 209.73 299.193 210.11C291.747 223.47 284.289 236.83 276.843 250.18C272.309 248.93 275.387 252.17 274.665 253.17L274.709 253.18C272.153 253.09 269.719 252.85 269.83 249.72L269.764 249.77C272.887 249.76 272.186 247.86 271.953 246.18Z" fill="#2A203E"/>
<path d="M381.279 165.05C384.302 164.5 385.525 162.78 385.58 160.08C385.881 145.41 379.901 133.76 366.009 125.49C362.608 123.46 360.675 119.62 356.651 118.03C357.252 117.71 357.852 117.38 358.452 117.06C373.555 123.76 381.902 135.32 386.758 149.26C389.103 155.99 390.559 162.9 388.892 170.01C387.659 170.94 386.592 172.61 384.736 171.95C377.312 169.32 368.999 170.43 361.719 167.35C361.375 167.2 361.33 166.46 361.152 166C363.397 165.97 365.642 165.95 367.898 165.92C371.088 166.53 373.978 168.08 377.412 168.04C379.835 168 381.302 167.44 381.279 165.05Z" fill="#1B1735"/>
<path d="M101.002 198.51C96.3895 234.42 100.246 270.46 98.8456 306.41C98.7567 308.61 101.402 310.78 98.9123 312.96C97.1119 309.73 97.1119 306.2 97.0896 302.75C96.9229 272.49 96.8007 242.23 96.8451 211.96C96.8563 207.24 97.0452 202.34 101.002 198.51Z" fill="#2A203E"/>
<path d="M269.82 249.73C269.72 252.86 272.154 253.09 274.699 253.19C274.954 255.94 271.798 257.65 271.987 260.38C269.008 265.32 264.252 266.46 258.339 266.18C254.572 266 250.782 267.06 247.181 268.27C245.258 265.88 242.38 265.87 239.535 265.78C244.38 262.21 249.948 259.56 256.139 260.01C262.585 260.47 265.541 257.73 267.652 253.05C268.186 251.87 269.097 250.83 269.82 249.73Z" fill="#261829"/>
<path d="M119.939 143.98C122.773 144.31 123.874 145.47 122.318 147.95C121.106 149.89 120.662 151.91 121.773 154.03C122.84 157.16 125.63 155.47 127.719 155.75C128.186 155.75 128.641 155.74 129.108 155.74C130.131 155.73 131.142 155.72 132.164 155.71C132.609 155.85 133.054 155.98 133.498 156.12C133.076 158.18 131.309 158.02 129.642 158.02C125.207 158.02 120.784 157.93 116.35 158.04C111.037 158.17 106.625 160.16 106.247 165.25C105.625 173.64 103.324 182.32 109.103 190.16C108.881 192.26 108.47 194.2 105.269 193.64C107.081 191.98 109.103 190.49 105.591 188.36C104.102 187.46 103.669 185.53 103.68 183.84C103.702 177.54 103.78 171.25 103.913 164.95C103.991 161.4 106.014 158.73 109.781 158.03C114.76 157.11 116.994 154.76 116.805 150.27C116.772 149.53 117.461 148.77 117.817 148.03C117.972 147.96 118.261 147.88 118.261 147.81C118.261 147.55 118.15 147.3 118.083 147.05C118.35 145.84 118.817 144.75 119.939 143.98Z" fill="#2A203E"/>
<path d="M337.991 111.98C326.322 112.37 315.086 114.72 304.372 118.75C300.716 120.13 297.515 122.62 294.325 124.85C291.447 126.86 289.224 129.15 295.214 130.15C296.326 130.33 296.559 131.16 296.726 132C293.003 131.46 288.968 133.29 285.501 130.82C297.415 116.64 313.885 111.16 332.979 110.83C334.635 110.81 336.735 110.17 337.991 111.98Z" fill="#1B1735"/>
<path d="M354.428 212.88C354.439 212.58 354.439 212.28 354.45 211.98C356.117 209.26 359.474 208.86 362.097 207.44C365.498 205.6 367.098 203.31 364.386 199.95C364.608 198.22 362.152 197.75 362.163 196.12L362.263 195.95C366.72 196.13 372.177 194.54 373.122 200.93C367.976 206.3 361.719 210.24 354.428 212.88Z" fill="#2A203E"/>
<path d="M239.546 265.78C242.391 265.87 245.269 265.88 247.192 268.26C243.669 270.24 240.457 272.56 237.567 275.25C234.733 274.48 234.444 272.34 234.211 270.17C235.545 268.28 237.256 266.75 239.546 265.78Z" fill="#2A203E"/>
<path d="M284.079 309.83C286.668 309.85 289.291 309.83 289.035 313.22C288.568 314.53 287.535 315.4 286.257 316.07C284.734 315.93 283.534 316.21 283.378 317.85C283.101 317.99 282.789 318.04 282.478 318C280.744 316.87 276.699 321.03 276.677 315.96L276.743 315.9C279.411 316.13 281.622 315.88 281.056 312.64C281.367 312.39 281.678 312.14 281.978 311.88C282.423 311.48 282.867 311.08 283.312 310.68C283.567 310.4 283.823 310.12 284.079 309.83Z" fill="#2A203E"/>
<path d="M294.503 208.98C292.991 211.57 291.391 214.12 290.013 216.76C289.179 218.35 288.168 219.57 286.134 219.86C288.213 216.16 290.002 212.29 292.48 208.82C293.903 206.83 293.558 205.59 292.147 204.09L292.325 203.94C295.759 204.67 293.914 207.25 294.503 208.98Z" fill="#1B1735"/>
<path d="M358.452 117.05C357.852 117.37 357.251 117.7 356.651 118.02C353.895 115.55 348.961 117.53 346.693 114.07C347.06 113.76 347.427 113.45 347.782 113.15C351.617 113.85 355.262 114.95 358.452 117.05Z" fill="#2A203E"/>
<path d="M99.168 313.92C102.936 315.69 104.88 318.51 105.103 322.31C102.202 320.05 100.246 317.24 99.168 313.92Z" fill="#2A203E"/>
<path d="M197.803 186.01C198.169 186.33 198.536 186.65 198.903 186.97C198.881 188.78 195.935 189.05 196.28 191.04C195.324 190.69 194.368 190.34 193.413 189.99C193.802 187.71 194.557 185.75 197.803 186.01Z" fill="#2A203E"/>
<path d="M292.147 204.08C290.847 202.96 289.558 201.84 288.257 200.73C288.468 200.46 288.702 200.21 288.957 199.97C290.736 200.84 292.158 201.96 292.336 203.93L292.147 204.08Z" fill="#1B1735"/>
<path d="M289.024 268.18C288.802 266.37 289.035 264.76 291.214 263.96C291.314 265.71 290.147 266.93 289.024 268.18Z" fill="#261829"/>
<path d="M271.953 246.18C272.187 247.86 272.887 249.77 269.753 249.78C269.92 248.3 270.853 247.2 271.953 246.18Z" fill="#261829"/>
<path d="M343.581 112.97C342.292 113.01 340.925 113.27 340.025 112.06C341.525 111.34 342.781 111.42 343.581 112.97Z" fill="#1B1735"/>
<path d="M347.782 113.15C347.416 113.46 347.049 113.77 346.693 114.07C345.782 114.02 344.926 113.85 344.459 113.02C345.604 112.11 346.693 112.75 347.782 113.15Z" fill="#1B1735"/>
<path d="M105.258 193.66C105.636 195.27 104.88 195.93 103.113 195.74C103.469 194.74 104.225 194.08 105.258 193.66Z" fill="#2A203E"/>
<path d="M103.124 195.72C103.447 197.08 102.869 197.86 101.302 198C101.535 196.99 102.169 196.24 103.124 195.72Z" fill="#2A203E"/>
<path d="M283.378 317.86C283.534 316.21 284.734 315.93 286.257 316.08C285.512 316.95 284.879 317.96 283.378 317.86Z" fill="#261829"/>
<path d="M105.214 322.41C107.081 321.95 107.77 322.62 107.437 324.28C106.703 323.66 105.958 323.04 105.214 322.41Z" fill="#2A203E"/>
<path d="M118.095 147.04C118.162 147.29 118.262 147.55 118.273 147.8C118.273 147.87 117.984 147.94 117.828 148.02C117.917 147.69 118.006 147.37 118.095 147.04Z" fill="#261829"/>
<path d="M108.67 315.15C104.892 310.93 103.736 305.92 103.736 300.7C103.714 272.1 103.769 243.5 103.847 214.9C103.858 211.24 104.258 207.59 105.814 204.14C108.937 197.23 114.25 193.06 122.896 193.04C142.856 192.97 162.805 192.78 182.766 192.9C191.501 192.95 198.114 199 199.748 207.98C200.403 211.56 200.748 215.24 200.114 218.89C197.647 217.93 193.702 217.01 196.191 213.99C198.836 210.78 196.969 208.24 196.291 205.59C195.502 202.53 193.068 202.25 190.434 204.23C187.278 206.6 187.156 210.01 186.767 213.28C185.7 222.17 180.321 228.24 171.574 232.03C169.974 232.72 168.585 233.46 168.062 234.95C165.584 242.07 158.982 247.61 158.416 255.52C158.338 256.53 156.682 258.06 155.493 258.31C146.135 260.27 139.9 267.41 131.009 270.11C129.62 270.53 127.164 271.19 128.364 273.1C129.464 274.86 130.72 272.98 131.931 272.45C134.532 271.32 136.644 272.58 138.333 274.16C140.389 276.08 140.156 278.37 138.866 280.62C137.455 283.1 135.766 281.17 134.188 280.84C135.832 277.25 133.976 275.87 130.187 275.82C126.864 275.78 123.541 275.78 120.218 275.86C118.073 275.91 115.283 275.61 114.727 278.06C114.116 280.75 117.384 280.7 119.04 281.76C115.139 282.96 113.283 286.69 110.371 288.26C106.103 290.57 105.67 293.06 105.57 296.7C105.459 301.09 106.292 305.26 107.837 309.36C108.548 311.23 109.382 313.1 108.67 315.15ZM116.372 213.98C119.862 213.21 123.685 212.02 126.986 213.39C131.131 215.11 134.899 217.1 139.344 214.4C147.791 220.82 151.87 211.94 157.96 210.11C159.027 209.79 160.538 209.59 160.627 208.59C161.049 203.6 166.006 202.19 169.24 199.44C170.018 198.78 171.352 198.34 170.452 197.13C169.485 195.83 168.251 196.18 167.195 197.13C165.139 198.95 162.794 200.13 159.794 200C153.826 199.74 148.158 201.48 142.334 202.07C135.999 202.72 129.509 204.97 123.363 200.95C121.962 200.04 120.784 198.11 118.017 198.51C119.351 201.56 120.996 204.22 121.64 207.05C122.429 210.59 115.583 209.52 116.372 213.98ZM128.464 225.11C128.464 225.09 128.464 225.08 128.464 225.06C131.409 225.06 134.365 225.1 137.311 225.05C139.489 225.01 142.267 225.22 142.123 222.34C142.001 220.02 139.733 219.08 137.366 219.05C131.098 218.97 124.841 219.01 118.573 219.05C116.595 219.06 114.705 219.56 114.694 221.71C114.683 223.82 116.072 225.08 118.528 225.11C121.829 225.14 125.141 225.11 128.464 225.11ZM129.042 262.21C131.809 262.21 134.588 262.24 137.355 262.2C139.189 262.17 141.456 262.31 141.645 260.06C141.834 257.79 139.911 256.87 137.644 256.87C131.542 256.86 125.452 256.94 119.351 257.01C117.528 257.03 115.894 257.55 115.817 259.42C115.739 261.24 117.261 262.1 119.073 262.16C122.396 262.28 125.719 262.2 129.042 262.21ZM125.363 242.87C125.363 242.97 125.363 243.06 125.363 243.16C127.197 243.16 129.042 243.12 130.876 243.17C132.865 243.23 134.743 243.1 134.677 240.75C134.621 238.63 132.887 238 130.887 237.97C126.852 237.9 122.807 237.93 118.762 237.95C117.206 237.96 115.728 238.24 115.672 240.02C115.616 241.86 116.883 242.74 118.751 242.84C120.951 242.95 123.163 242.87 125.363 242.87ZM110.182 222.25C107.559 222.83 106.803 224.01 106.703 225.94C106.57 228.62 107.381 230.47 110.571 230.87C111.638 231.01 113.249 230.92 112.916 229.62C112.271 227.08 111.104 224.65 110.182 222.25ZM113.961 215.48C111.46 216.46 109.226 212.17 107.037 215.32C106.292 216.39 107.059 217.51 108.381 218.15C111.349 219.59 112.382 217.21 113.961 215.48Z" fill="#ECEBF3"/>
<path d="M108.67 315.15C109.393 313.1 108.559 311.23 107.848 309.34C106.303 305.23 105.47 301.06 105.581 296.68C105.67 293.04 106.114 290.55 110.382 288.24C113.294 286.66 115.15 282.94 119.051 281.74C124.085 281.25 129.231 282.27 134.199 280.82C135.788 281.15 137.466 283.07 138.877 280.6C140.167 278.35 140.4 276.06 138.344 274.14C136.655 272.56 134.543 271.31 131.942 272.43C130.731 272.96 129.475 274.84 128.375 273.08C127.175 271.17 129.631 270.51 131.02 270.09C139.911 267.39 146.135 260.25 155.504 258.29C156.693 258.04 158.349 256.52 158.427 255.5C158.993 247.6 165.595 242.06 168.073 234.93C168.596 233.44 169.985 232.7 171.585 232.01C180.332 228.22 185.711 222.15 186.778 213.26C187.167 209.99 187.289 206.58 190.445 204.21C193.079 202.23 195.513 202.51 196.302 205.57C196.991 208.23 198.847 210.76 196.202 213.97C193.713 216.99 197.658 217.91 200.125 218.87C200.159 219.55 200.192 220.22 200.225 220.9C194.657 222.06 197.358 226.11 196.802 228.98C196.313 231.44 198.025 232.13 200.403 231.98C201.003 234.64 200.992 237.3 200.525 239.97C198.08 244.98 197.847 249.98 200.659 254.96C200.659 256.63 200.67 258.29 200.67 259.96C200.147 260.38 199.303 260.73 199.181 261.24C198.658 263.31 199.747 266.41 195.469 265.92C191.834 265.51 187.222 267.63 185.422 262.29C184.455 259.42 181.954 257.92 178.698 260.68C177.609 261.6 176.342 262.57 174.953 261.09C174.052 260.14 174.775 257.28 172.23 258.49C170.252 259.43 170.774 261.99 171.696 263.46C173.53 266.4 172.485 268.46 170.874 271.18C169.307 273.83 167.684 276.25 165.45 278.47C163.294 280.6 162.916 283.11 163.083 286.19C163.305 290.27 166.717 292.56 168.151 295.91C170.318 300.99 173.608 305.94 177.564 310.05C180.643 313.25 182.477 316.58 184.699 321.54C178.731 317.6 173.219 317.77 167.718 317.93C163.339 318.06 160.694 319.73 161.172 324.07C159.338 324.18 157.493 324.29 155.659 324.4C155.581 322.39 155.237 320.61 156.082 318.36C157.448 314.69 154.203 311.01 152.859 307.49C151.836 304.82 139.778 304.84 136.566 306.54C132.798 308.54 129.253 310.87 125.508 312.84C120.362 315.54 115.305 320.79 108.67 315.15ZM117.872 294.67C116.328 295.22 114.494 295.71 114.905 297.65C115.25 299.29 116.794 300.08 118.528 300.3C120.884 300.6 123.274 300.73 125.641 300.94C125.741 303.6 124.652 307.38 130.186 304.17C131.754 303.26 134.054 303.36 136.021 303.04C140.5 302.3 144.301 300.45 147.335 297.41C149.38 295.36 149.458 292.75 148.713 290.37C147.88 287.75 145.69 289.88 144.101 289.83C142.623 289.78 141.867 288.94 141.156 287.91C140.311 286.69 139.555 285.25 137.11 285.47C137.299 288.31 138.277 291.22 136.755 293.96C132.343 294.04 127.93 294.12 123.518 294.2C121.44 292.45 119.473 291.88 117.872 294.67Z" fill="#EAE9F0"/>
<path d="M161.138 324.09C160.66 319.74 163.305 318.08 167.684 317.95C173.185 317.79 178.698 317.62 184.666 321.56C182.443 316.6 180.609 313.27 177.531 310.07C173.574 305.96 170.285 301 168.117 295.93C166.684 292.58 163.283 290.3 163.05 286.21C162.883 283.12 163.261 280.62 165.417 278.49C167.651 276.27 169.273 273.85 170.84 271.2C172.463 268.48 173.496 266.42 171.663 263.48C170.74 262 170.218 259.45 172.196 258.51C174.741 257.3 174.019 260.16 174.919 261.11C176.319 262.59 177.575 261.62 178.664 260.7C181.91 257.94 184.421 259.44 185.388 262.31C187.189 267.65 191.801 265.52 195.435 265.94C199.714 266.43 198.636 263.33 199.147 261.26C199.269 260.76 200.125 260.41 200.636 259.98C200.625 263.64 200.614 267.3 200.603 270.96C195.913 268.33 191.212 267.87 185.933 269.9C182.143 271.35 181.232 273.97 181.343 276.93C181.454 279.89 183.966 278.83 185.911 278.4C188.178 277.89 188.889 279.53 189.389 280.87C191.223 285.75 195.002 287.58 200.503 287C200.692 288.66 200.87 290.32 201.059 291.99C200.936 296.47 201.214 300.99 200.603 305.41C199.236 315.28 192.579 321.26 182.276 324.22C175.23 324.4 168.173 324.77 161.138 324.09Z" fill="#ECEBF3"/>
<path d="M197.802 186.01C194.568 185.75 193.801 187.71 193.401 189.99L193.39 190C190.812 190.71 187.255 188.29 185.61 191.98C177.898 190.53 170.096 189.23 162.249 190.25C151.247 191.67 140.255 190.82 129.264 190.73C127.119 190.71 125.007 190.16 122.896 190.91C118.172 192.59 113.671 190.95 109.115 190.17C103.335 182.33 105.636 173.65 106.258 165.26C106.636 160.17 111.048 158.18 116.361 158.05C120.784 157.94 125.218 158.03 129.653 158.03C131.331 158.03 133.098 158.19 133.509 156.13C134.532 156.13 135.565 156.13 136.588 156.13C136.643 156.77 136.699 157.41 136.754 158.04C136.754 158.72 136.754 159.4 136.754 160.08C131.331 162.12 125.641 160.43 120.117 161.06C111.182 163.15 111.182 163.15 111.171 171.28C111.171 173.94 111.371 176.61 111.104 179.25C110.693 183.29 112.482 185.24 116.939 186.18C122.084 187.26 127.186 186.89 132.32 186.99C136.021 187 139.711 187.02 143.412 187.03C144.156 187.03 144.901 187.03 145.645 187.03C146.746 187.02 147.857 187.01 148.957 187.01C157.482 187.01 166.006 187 174.53 187C176.375 187 178.209 187 180.054 187C181.154 187.01 182.265 187.04 183.365 187.04C192.357 187.03 194.701 184.9 193.201 176.88C192.39 172.57 192.457 168.32 192.29 164.03C193.034 164.03 193.779 164.02 194.513 164.02C194.601 166.01 196.146 166.07 197.78 166.02C197.802 168.03 197.824 170.04 197.847 172.06C196.157 174.05 196.157 176.03 197.847 178.02C197.836 180.66 197.813 183.33 197.802 186.01Z" fill="#1A214D"/>
<path d="M108.67 315.15C115.305 320.79 120.362 315.54 125.463 312.86C129.209 310.89 132.754 308.56 136.521 306.56C139.733 304.86 151.792 304.84 152.814 307.51C154.159 311.03 157.404 314.71 156.037 318.38C155.193 320.63 155.548 322.4 155.615 324.42C145.257 324.64 134.899 324.85 124.552 325.07C123.818 324.99 123.085 324.9 122.351 324.82C116.795 322.73 111.771 320.04 108.67 315.15Z" fill="#ECEBF3"/>
<path d="M200.503 286.97C195.013 287.56 191.234 285.73 189.389 280.84C188.889 279.5 188.178 277.87 185.911 278.37C183.966 278.8 181.454 279.86 181.343 276.9C181.232 273.94 182.143 271.32 185.933 269.87C191.212 267.85 195.913 268.3 200.603 270.93C200.592 272.27 200.581 273.61 200.57 274.95C198.202 276.26 198.236 277.6 200.536 278.94C201.014 281.62 201.025 284.3 200.503 286.97Z" fill="#EAE9F0"/>
<path d="M200.381 231.99C197.991 232.14 196.291 231.45 196.78 228.99C197.347 226.12 194.635 222.07 200.203 220.91C200.814 224.59 200.814 228.29 200.381 231.99Z" fill="#ECEBF3"/>
<path d="M200.625 254.96C197.813 249.98 198.047 244.99 200.492 239.97C201.07 244.97 200.981 249.96 200.625 254.96Z" fill="#ECEBF3"/>
<path d="M185.611 191.97C187.256 188.28 190.812 190.71 193.39 189.99C191.735 193.65 188.211 191.33 185.611 191.97Z" fill="#2A203E"/>
<path d="M200.536 278.95C198.236 277.6 198.213 276.27 200.57 274.96C200.558 276.29 200.547 277.62 200.536 278.95Z" fill="#ECEBF3"/>
<path d="M124.652 149.12C126.997 144.52 132.165 142.43 135.91 139.09C141.189 134.37 143.345 128.98 142.734 122.45C142.445 119.31 142.134 116.13 142.334 113C142.612 108.46 146.813 105.14 151.747 105.12C156.226 105.1 160.983 108.98 161.105 113.23C161.194 116.32 161.472 119.4 160.46 122.57C158.593 128.43 162.261 135.1 168.873 138.91C174.897 142.38 177.553 147.96 180.332 153.47C180.843 154.48 180.41 155.43 178.954 155.65C177.12 154.66 175.286 154.63 173.463 155.68C172.308 155.68 171.141 155.68 169.985 155.68C169.674 155.26 169.362 155.24 169.051 155.68C165.628 155.68 162.216 155.69 158.793 155.69C157.426 154.71 156.048 154.72 154.67 155.68C153.448 155.67 152.225 155.67 151.003 155.66C145.49 154.21 139.822 155.46 134.254 154.93C130.676 153.53 124.819 155.12 124.652 149.12ZM151.414 153.9C157.126 153.9 161.572 154.08 165.984 153.83C168.318 153.69 170.963 152.96 171.974 150.83C173.108 148.46 170.318 147.45 168.985 146C168.162 145.11 167.206 144.31 166.228 143.56C159.204 138.18 156.159 131.33 156.726 123.08C156.871 120.93 157.048 118.7 156.582 116.62C155.759 112.99 153.07 111.65 148.869 111.97C144.568 112.3 145.79 115.01 145.701 117.1C145.557 120.58 145.479 124.09 145.712 127.57C146.057 132.74 143.801 136.78 139.789 140.25C137.799 141.97 135.766 143.69 134.01 145.6C131.565 148.26 130.92 150.51 135.31 152.6C141.034 155.31 146.957 153.07 151.414 153.9Z" fill="#DFB882"/>
<path d="M136.744 160.06C136.744 159.38 136.744 158.7 136.744 158.02C152.947 158.01 169.151 157.96 185.344 158.03C189.367 158.05 193.479 158.35 194.546 162.99C194.524 163.32 194.513 163.65 194.513 163.98C193.768 163.98 193.024 163.99 192.29 163.99C191.057 162.89 189.934 161.61 187.911 161.81C182.921 158.3 177.598 159.89 172.297 160.99C166.373 160.99 160.449 160.99 154.526 160.99C150.558 158.94 146.279 160.4 142.167 160.11C140.356 160.1 138.555 160.08 136.744 160.06Z" fill="#1B1735"/>
<path d="M124.652 149.12C124.819 155.12 130.676 153.52 134.265 154.96C133.565 155.21 132.865 155.45 132.165 155.7C131.142 155.71 130.131 155.72 129.109 155.73C128.642 155.15 128.175 155.17 127.719 155.74C125.63 155.46 122.84 157.15 121.773 154.02C122.34 152.2 123.063 150.45 124.652 149.12Z" fill="#C7C2CD"/>
<path d="M132.176 155.7C132.876 155.45 133.576 155.21 134.276 154.96C139.844 155.48 145.501 154.23 151.025 155.69C146.212 155.83 141.411 155.97 136.599 156.11C135.565 156.11 134.543 156.11 133.521 156.11C133.065 155.97 132.62 155.84 132.176 155.7Z" fill="#B79C91"/>
<path d="M197.858 177.98C196.168 175.99 196.168 174.01 197.858 172.02C199.58 174.01 199.558 176 197.858 177.98Z" fill="#2A203E"/>
<path d="M194.524 163.99C194.524 163.66 194.535 163.33 194.557 163C196.613 163.14 197.78 164.07 197.791 166C196.158 166.03 194.602 165.97 194.524 163.99Z" fill="#2A203E"/>
<path d="M173.475 155.7C175.297 154.65 177.131 154.68 178.965 155.67C177.131 155.68 175.297 155.69 173.475 155.7Z" fill="#B79C91"/>
<path d="M154.681 155.7C156.059 154.73 157.437 154.73 158.804 155.71C157.426 155.71 156.048 155.71 154.681 155.7Z" fill="#B79C91"/>
<path d="M169.062 155.7C169.374 155.27 169.685 155.28 169.996 155.7L169.529 155.83L169.062 155.7Z" fill="#B79C91"/>
<path d="M311.018 170.19C308.795 168.85 306.562 167.51 304.339 166.17C303.483 163.16 301.805 161.09 298.337 159.68C294.314 158.05 291.669 154.55 288.735 151.61C287.179 150.05 287.457 147.96 288.902 146.11C293.192 140.6 299.749 140.81 303.25 144.82C308.351 150.68 315.719 152.77 323.554 153.85C323.554 153.85 323.521 153.78 323.521 153.79C324.043 156.96 326.833 158.57 329.489 159.78C342.037 165.48 354.451 171.49 368.398 174.26C373.8 175.33 375.211 178.41 374.444 183.97C373.789 188.72 370.01 187.9 366.554 187.99C358.585 188.21 351.739 186.1 344.415 182.84C337.402 179.72 330.3 176.26 322.788 173.91C318.853 172.7 316.053 168.57 311.018 170.19Z" fill="#F5BC4E"/>
<path d="M311.018 170.19C316.053 168.57 318.853 172.69 322.776 173.92C330.289 176.26 337.402 179.72 344.404 182.85C351.728 186.11 358.574 188.22 366.542 188C369.999 187.9 373.777 188.73 374.433 183.98C375.2 178.42 373.788 175.34 368.387 174.27C354.439 171.5 342.025 165.5 329.478 159.79C326.822 158.59 324.032 156.98 323.51 153.8C340.525 162.18 358.085 169.42 376.989 173.67C379.69 174.28 380.69 175.58 379.99 177.99C379.801 178.63 379.712 179.29 379.534 179.94C376.033 192.81 373.855 193.98 359.741 190.56C347.782 187.67 336.102 184.12 325.044 179C323.132 178.12 320.954 177.71 318.898 177.09C318.309 176.68 317.72 176.26 317.131 175.85C315.686 173.46 311.663 173.31 311.018 170.19Z" fill="#DFB882"/>
<path d="M323.543 153.87C315.719 152.79 308.351 150.7 303.239 144.84C299.738 140.82 293.181 140.62 288.891 146.13C287.457 147.98 287.168 150.07 288.724 151.63C291.658 154.57 294.303 158.07 298.326 159.7C301.783 161.11 303.461 163.17 304.328 166.19C297.648 164.54 293.269 159.86 288.235 156.13C280.611 150.48 280.6 149.65 285.479 141.71C285.745 141.28 286.046 140.85 286.335 140.43C291.258 133.23 292.136 133.1 299.515 138.02C307.506 143.33 315.541 148.59 323.543 153.87Z" fill="#DFB882"/>
<path d="M318.92 146.02C320.031 146.02 321.143 146.01 322.254 146.01C330.023 150.02 337.791 154.03 345.56 158.03C344.837 158.68 344.104 159.33 343.381 159.98C335.724 157.56 329.789 152.29 322.243 149.65C320.72 149.11 319.12 147.9 318.92 146.02Z" fill="#1B1735"/>
<path d="M343.393 159.98C344.115 159.33 344.848 158.68 345.571 158.03C349.038 157.77 351.472 160.13 354.517 160.92C355.962 160.96 357.407 161 358.852 161.04C360.63 162.92 363.042 163.1 365.542 163.05C366.32 164 367.109 164.96 367.887 165.91C365.642 165.94 363.397 165.96 361.141 165.99C355.251 163.93 348.861 163.07 343.393 159.98Z" fill="#1A214D"/>
<path d="M124.552 325.07C134.91 324.85 145.268 324.64 155.615 324.42C157.448 324.31 159.293 324.2 161.127 324.09C168.173 324.77 175.219 324.4 182.265 324.18C181.921 325.97 180.421 325.96 178.909 325.96C161.616 325.95 144.323 325.96 127.03 325.9C126.208 325.89 125.385 325.35 124.552 325.07Z" fill="#1B1735"/>
<path d="M365.542 163.05C363.041 163.1 360.63 162.92 358.863 161.04C360.83 159.89 363.064 160.13 365.253 159.96C370.265 159.56 377.111 155.12 376.067 152.66C373.933 147.59 372.588 142.02 367.376 138.36C361.452 134.18 353.217 132.89 349.071 126.43C348.749 125.92 347.004 126.14 345.926 126.03C345.426 124.72 344.659 123.57 343.081 123.2C333.701 121.05 324.777 122.08 316.619 126.83C314.497 128.06 312.607 130 314.641 132.68C314.485 133.93 314.863 134.93 316.064 135.7C321.12 138.93 326.099 142.01 332.49 143.19C338.925 144.37 344.837 146.9 345.593 154.03C343.881 154.06 342.148 153.98 341.414 152.28C340.247 149.55 337.902 148.8 334.968 147.76C325.999 144.6 316.597 141.94 309.918 134.96C304.861 129.68 305.65 124.93 312.518 122.07C313.674 121.59 314.363 121.13 314.452 120.01H314.474C321.676 120.02 328.956 120.58 336.08 119.89C343.537 119.17 348.649 122.66 353.595 126.35C359.474 130.75 366.587 133.45 372.321 137.96L372.344 137.98C372.266 139.34 373.033 139.98 374.489 140.03C375.689 143.76 378.79 146.86 379.023 150.92C379.768 155.63 377.867 159.31 373.355 161.68C370.999 162.89 367.798 160.95 365.542 163.05Z" fill="#1C4A85"/>
<path d="M314.441 119.99C314.363 121.11 313.674 121.57 312.507 122.05C305.639 124.91 304.85 129.66 309.907 134.94C316.586 141.91 325.977 144.58 334.957 147.74C337.891 148.77 340.236 149.53 341.403 152.26C342.126 153.96 343.859 154.05 345.582 154.01C346.549 156.21 349.25 156.38 351.05 157.55C352.561 158.53 354.84 158.48 354.517 160.92C351.461 160.13 349.038 157.77 345.571 158.03C337.802 154.02 330.034 150.02 322.265 146.01C314.608 141.5 307.54 136.28 300.316 131.23C298.282 129.81 297.237 128.64 299.616 127.08C304.15 124.08 308.384 120.47 314.441 119.99Z" fill="#254474"/>
<path d="M372.299 137.95C366.553 133.44 359.452 130.74 353.573 126.34C348.627 122.65 343.515 119.16 336.057 119.88C328.933 120.57 321.665 120.01 314.452 120C329.711 114.8 344.037 115.33 357.418 124.82C361.108 127.44 365.598 129.15 368.821 132.44C370.432 134.08 372.01 135.66 372.299 137.95Z" fill="#254474"/>
<path d="M365.542 163.05C367.798 160.95 370.999 162.89 373.333 161.67C377.845 159.3 379.745 155.62 379.001 150.91C382.979 155.2 380.29 160.37 381.279 165.05C381.301 167.44 379.834 168 377.4 168.03C373.977 168.07 371.088 166.52 367.887 165.91C367.109 164.96 366.32 164 365.542 163.05Z" fill="#254474"/>
<path d="M374.466 140.02C372.999 139.97 372.244 139.32 372.321 137.97C373.755 138.04 374.444 138.74 374.466 140.02Z" fill="#254474"/>
<path d="M281.989 311.89C281.678 312.14 281.367 312.39 281.067 312.65C279.622 313.53 278.177 314.42 276.732 315.3C276.366 315.51 276.01 315.73 275.643 315.94C257.728 321.37 245.892 318.32 236.156 304.78C230.444 296.83 230.11 288.01 234.667 279.27C234.956 278.84 235.234 278.42 235.523 277.99C236.201 277.08 236.89 276.17 237.568 275.26C240.457 272.58 243.669 270.25 247.192 268.27C250.793 267.06 254.594 266 258.35 266.18C264.263 266.46 269.02 265.32 271.998 260.38C277.699 257.31 279.822 258.08 281.234 263.67C281.345 264.11 281.811 264.47 282.112 264.87C280.189 268.99 280.544 272.41 283.979 276.19C293.959 287.19 291.758 298.59 284.09 309.83C283.834 310.11 283.579 310.4 283.323 310.68C282.878 311.09 282.434 311.49 281.989 311.89ZM261.129 310.08C271.487 310.02 280.956 301.47 281 292.12C281.056 282.78 272.709 273.6 264.141 273.56C251.893 273.51 241.046 281.3 241.035 290.15C241.013 301.04 250.182 310.14 261.129 310.08Z" fill="#B79C91"/>
<path d="M275.632 315.93C275.999 315.72 276.354 315.5 276.721 315.29C276.732 315.49 276.743 315.69 276.743 315.9L276.677 315.96C276.332 315.96 275.976 315.95 275.632 315.93Z" fill="#2A203E"/>
<path d="M235.522 277.98C235.233 278.41 234.955 278.83 234.667 279.26C234.944 278.84 235.233 278.41 235.522 277.98Z" fill="#2A203E"/>
<path d="M362.163 196.12C362.152 197.75 364.597 198.23 364.386 199.95C359.196 201.14 356.507 205.86 351.494 207.31C337.991 211.21 324.532 211.19 311.096 207.06C314.441 204.92 318.231 206.15 321.787 206.06C330.023 205.85 338.269 205.89 346.515 206.04C349.583 206.09 350.916 204.32 351.772 202.39C352.961 199.72 349.894 200.21 348.516 199.56C342.381 196.67 335.246 195.92 329.5 192.01C327.066 190.35 325.232 187.08 321.154 187.98C320.776 185.33 318.453 186.17 316.708 185.98C316.319 183.34 314.008 184.18 312.263 183.98C312.085 183.51 312.074 182.83 311.718 182.62C304.439 178.35 295.837 176.08 289.346 170.56C288.168 169.56 286.557 169.97 285.279 170.89C283.878 171.9 282.767 173.32 283.589 174.78C285.723 178.58 286.479 183.04 289.691 186.27C292.036 188.62 292.514 191.14 292.236 194.03C282.589 185.9 279.199 175.52 278.933 164.02C279.377 160.17 281.5 159.54 284.79 161.7C291.613 166.19 298.326 170.82 305.172 175.3C311.952 179.74 319.198 183.42 327.1 186.1C334.157 188.5 340.803 191.82 348.127 193.67C352.739 194.82 357.251 196.35 362.163 196.12Z" fill="#254474"/>
<path d="M311.096 207.06C324.533 211.19 337.991 211.21 351.494 207.31C356.507 205.86 359.196 201.14 364.386 199.95C367.109 203.31 365.498 205.6 362.097 207.44C359.474 208.86 356.118 209.26 354.451 211.98C346.16 214.6 337.391 214.08 328.889 214.55C322.777 214.89 316.442 213.96 310.196 213.96C306.528 212.67 302.872 211.39 299.204 210.1C297.637 209.72 296.081 209.35 294.514 208.97C293.925 207.24 295.77 204.66 292.336 203.92C292.158 201.95 290.736 200.83 288.957 199.96C287.357 194.81 281.789 191.76 280.266 186.49C278.599 180.72 276.288 175.09 274.687 169.3C273.932 166.55 273.876 163.37 278.955 164C279.222 175.5 282.611 185.88 292.258 194.01C294.77 197.07 297.726 199.73 301.116 202C301.849 202.37 302.572 202.73 303.305 203.1C304.005 203.43 304.717 203.76 305.417 204.09C305.65 205.3 306.395 205.99 307.806 206C308.895 206.36 309.996 206.71 311.096 207.06Z" fill="#1A214D"/>
<path d="M299.193 210.11C302.861 211.4 306.517 212.68 310.185 213.97C307.64 218.97 305.106 223.96 302.561 228.96C297.304 237.79 291.702 246.47 287.99 255.98C287.146 257.53 286.29 259.09 285.445 260.64C283.056 261.23 282.745 263.15 282.1 264.87C281.8 264.47 281.333 264.1 281.222 263.67C279.811 258.08 277.688 257.31 271.987 260.38C271.798 257.65 274.954 255.94 274.698 253.19L274.654 253.18C276.099 252.61 275.954 251.09 276.832 250.19C284.301 236.83 291.747 223.47 299.193 210.11Z" fill="#C7C2CD"/>
<path d="M287.99 255.98C291.702 246.47 297.304 237.79 302.56 228.96C304.461 228.98 306.206 229.39 305.172 231.53C300.793 240.59 296.292 249.59 291.78 258.59C291.524 259.1 290.724 259.38 290.257 259.71C288.201 258.9 291.302 255.98 287.99 255.98Z" fill="#2A203E"/>
<path d="M276.843 250.18C275.954 251.08 276.11 252.6 274.665 253.17C275.387 252.17 272.309 248.93 276.843 250.18Z" fill="#261829"/>
<path d="M127.73 155.74C128.186 155.17 128.653 155.15 129.12 155.73C128.653 155.73 128.186 155.74 127.73 155.74Z" fill="#B79C91"/>
<path d="M276.743 315.9C276.743 315.7 276.732 315.5 276.721 315.29C278.166 314.41 279.611 313.52 281.056 312.64C281.622 315.88 279.411 316.13 276.743 315.9Z" fill="#261829"/>
<path d="M281.989 311.89C282.434 311.49 282.878 311.09 283.323 310.69C282.878 311.08 282.434 311.48 281.989 311.89Z" fill="#261829"/>
<path d="M116.372 213.98C115.583 209.52 122.429 210.59 121.629 207.06C120.984 204.22 119.351 201.57 118.006 198.52C120.784 198.12 121.962 200.05 123.351 200.96C129.497 204.98 135.988 202.72 142.323 202.08C148.146 201.48 153.825 199.74 159.782 200.01C162.783 200.14 165.117 198.96 167.184 197.14C168.251 196.2 169.474 195.84 170.44 197.14C171.341 198.35 170.018 198.78 169.229 199.45C165.984 202.2 161.027 203.6 160.616 208.6C160.527 209.6 159.015 209.8 157.949 210.12C151.858 211.95 147.779 220.83 139.333 214.41C134.888 217.11 131.12 215.12 126.975 213.4C123.685 212.01 119.862 213.21 116.372 213.98Z" fill="#EAE9F0"/>
<path d="M128.464 225.11C125.152 225.11 121.829 225.14 118.517 225.1C116.061 225.07 114.672 223.82 114.683 221.7C114.694 219.55 116.583 219.06 118.561 219.04C124.83 219 131.087 218.96 137.355 219.04C139.733 219.07 142 220 142.111 222.33C142.256 225.21 139.477 225 137.299 225.04C134.354 225.1 131.398 225.05 128.453 225.05C128.464 225.08 128.464 225.1 128.464 225.11Z" fill="#5C617A"/>
<path d="M129.042 262.2C125.719 262.19 122.396 262.28 119.073 262.16C117.261 262.1 115.739 261.24 115.816 259.42C115.894 257.55 117.528 257.03 119.351 257.01C125.452 256.94 131.542 256.86 137.644 256.87C139.911 256.87 141.822 257.79 141.645 260.06C141.456 262.31 139.2 262.17 137.355 262.2C134.587 262.24 131.809 262.21 129.042 262.2Z" fill="#5C617A"/>
<path d="M134.187 280.82C129.219 282.26 124.074 281.25 119.039 281.74C117.372 280.68 114.105 280.73 114.727 278.04C115.283 275.6 118.072 275.9 120.217 275.84C123.54 275.76 126.863 275.76 130.186 275.8C133.965 275.85 135.821 277.23 134.187 280.82Z" fill="#5C617A"/>
<path d="M125.363 242.87C123.162 242.87 120.951 242.96 118.761 242.84C116.894 242.75 115.627 241.86 115.683 240.02C115.738 238.23 117.217 237.95 118.773 237.95C122.818 237.93 126.852 237.9 130.898 237.97C132.887 238 134.632 238.64 134.687 240.75C134.743 243.1 132.876 243.23 130.887 243.17C129.053 243.11 127.219 243.16 125.374 243.16C125.363 243.06 125.363 242.96 125.363 242.87Z" fill="#5C617A"/>
<path d="M110.182 222.25C111.104 224.65 112.271 227.09 112.916 229.63C113.249 230.93 111.638 231.01 110.571 230.88C107.381 230.48 106.57 228.63 106.703 225.95C106.803 224 107.559 222.83 110.182 222.25Z" fill="#EAE9F0"/>
<path d="M113.96 215.48C112.382 217.21 111.348 219.59 108.381 218.15C107.047 217.51 106.292 216.39 107.036 215.32C109.215 212.16 111.46 216.46 113.96 215.48Z" fill="#EAE9F0"/>
<path d="M125.641 300.94C123.263 300.74 120.884 300.61 118.528 300.3C116.794 300.08 115.25 299.28 114.905 297.65C114.505 295.71 116.328 295.23 117.872 294.67C119.751 294.51 121.629 294.35 123.518 294.19C127.93 294.11 132.343 294.03 136.755 293.95C138.9 294.57 142.1 294.07 142.267 297.03C142.423 299.79 139.489 299.96 137.333 300.86C133.354 302.5 129.531 301.59 125.641 300.94Z" fill="#5C617A"/>
<path d="M125.641 300.94C129.531 301.59 133.365 302.5 137.321 300.86C139.477 299.97 142.411 299.8 142.256 297.03C142.089 294.08 138.888 294.57 136.743 293.95C138.266 291.21 137.288 288.3 137.099 285.46C139.544 285.24 140.3 286.68 141.145 287.9C141.856 288.93 142.612 289.78 144.09 289.82C145.668 289.87 147.868 287.74 148.702 290.36C149.458 292.73 149.369 295.35 147.324 297.4C144.29 300.44 140.489 302.29 136.01 303.03C134.043 303.35 131.742 303.26 130.175 304.16C124.652 307.38 125.741 303.6 125.641 300.94Z" fill="#ECEBF3"/>
<path d="M123.518 294.19C121.64 294.35 119.762 294.51 117.873 294.67C119.473 291.88 121.44 292.45 123.518 294.19Z" fill="#ECEBF3"/>
<path d="M136.743 160.06C138.544 160.08 140.355 160.09 142.156 160.11C142.456 162.01 144.056 161.99 145.623 162.01C146.157 164.78 148.613 163.97 150.458 163.98C160.582 164.04 170.718 163.98 180.854 164.03C186.211 164.06 189.967 167.52 190.067 172.36C190.112 174.35 190.012 176.34 190.089 178.33C190.234 181.93 188.7 184.1 184.388 184C182.021 183.94 179.798 183.97 180.065 186.98C178.22 186.98 176.386 186.98 174.541 186.98C174.363 185.28 173.419 184.11 171.452 184.09C164.839 184.02 158.226 184.06 151.625 184.03C149.313 184.02 148.957 185.35 148.969 186.99C147.868 187 146.757 187.01 145.657 187.01C144.912 185.97 144.167 185.98 143.423 187.01C139.722 187 136.032 186.98 132.331 186.97C132.02 181.96 127.719 184.18 125.196 184.11C115.816 183.84 112.927 181.58 112.371 173.08C112.238 170.98 113.182 169.23 114.171 167.24C115.583 164.39 120.506 164.78 120.128 161.05C125.63 160.42 131.32 162.1 136.743 160.06ZM130.286 164.01C122.14 164.06 118.406 168.62 121.24 174.66C123.54 179.57 137.788 185.68 143.045 183.78C144.845 183.13 146.335 181.7 147.824 180.48C149.335 179.24 150.825 178.3 152.947 177.81C155.392 177.24 159.093 176.95 158.749 173.59C158.415 170.34 154.703 170.81 152.236 170.07C151.569 169.87 150.769 170 150.024 170.02C145.757 170.15 141.922 170.06 138.477 166.71C136.743 164.99 133.432 163.23 130.286 164.01Z" fill="#1C4A85"/>
<path d="M180.054 186.97C179.787 183.96 182.01 183.94 184.377 183.99C188.7 184.09 190.234 181.92 190.078 178.32C190.001 176.33 190.101 174.34 190.056 172.35C189.956 167.51 186.2 164.05 180.843 164.02C170.707 163.97 160.583 164.04 150.447 163.97C148.613 163.96 146.146 164.77 145.612 162C148.546 161.47 151.769 162.98 154.503 160.98C160.427 160.98 166.351 160.98 172.274 160.98C177.364 163.01 182.677 161.59 187.889 161.8C189.912 161.61 191.045 162.88 192.268 163.98C192.435 168.27 192.379 172.52 193.179 176.83C194.679 184.85 192.334 186.98 183.343 186.99C182.265 187.01 181.165 186.98 180.054 186.97Z" fill="#254474"/>
<path d="M120.106 161.04C120.484 164.77 115.561 164.38 114.149 167.23C113.16 169.22 112.215 170.97 112.349 173.07C112.904 181.57 115.794 183.83 125.174 184.1C127.697 184.17 131.998 181.95 132.309 186.96C127.174 186.86 122.062 187.23 116.928 186.15C112.471 185.21 110.682 183.26 111.093 179.22C111.36 176.58 111.148 173.91 111.16 171.25C111.171 163.13 111.171 163.13 120.106 161.04Z" fill="#254474"/>
<path d="M148.957 186.98C148.946 185.34 149.302 184.01 151.613 184.02C158.226 184.05 164.839 184.01 171.44 184.08C173.408 184.1 174.352 185.27 174.53 186.97C166.006 186.97 157.482 186.98 148.957 186.98Z" fill="#254474"/>
<path d="M143.412 187.01C144.156 185.97 144.901 185.97 145.645 187.01C144.901 187 144.156 187 143.412 187.01Z" fill="#254474"/>
<path d="M151.413 153.9C146.957 153.06 141.033 155.3 135.321 152.59C130.931 150.51 131.575 148.25 134.02 145.59C135.776 143.68 137.81 141.97 139.8 140.24C143.812 136.77 146.068 132.72 145.723 127.56C145.49 124.08 145.568 120.58 145.712 117.09C145.801 115 144.579 112.29 148.88 111.96C153.069 111.64 155.77 112.97 156.592 116.61C157.059 118.69 156.881 120.92 156.737 123.07C156.17 131.32 159.204 138.17 166.239 143.55C167.217 144.3 168.173 145.1 168.995 145.99C170.329 147.44 173.119 148.44 171.985 150.82C170.974 152.95 168.329 153.68 165.995 153.82C161.56 154.09 157.115 153.9 151.413 153.9Z" fill="#F5BC4E"/>
<path d="M187.911 161.82C182.699 161.61 177.386 163.03 172.296 161C177.587 159.89 182.91 158.31 187.911 161.82Z" fill="#1A214D"/>
<path d="M154.525 161C151.791 163 148.569 161.49 145.634 162.02C144.067 162 142.467 162.02 142.167 160.12C146.279 160.41 150.558 158.94 154.525 161Z" fill="#1A214D"/>
<path d="M354.517 160.92C354.839 158.48 352.55 158.53 351.05 157.55C349.238 156.38 346.549 156.21 345.582 154.01C344.826 146.88 338.925 144.35 332.479 143.17C326.088 142 321.109 138.91 316.052 135.68C314.852 134.92 314.474 133.91 314.63 132.66C324.21 133.04 333.39 130.42 342.814 129.57C344.926 129.38 345.759 127.82 345.926 126.01C347.004 126.13 348.749 125.9 349.071 126.41C353.217 132.87 361.452 134.17 367.376 138.34C372.577 142.01 373.933 147.57 376.067 152.64C377.1 155.1 370.265 159.54 365.253 159.94C363.064 160.12 360.83 159.88 358.863 161.02C357.407 161 355.962 160.96 354.517 160.92Z" fill="#194F8F"/>
<path d="M345.915 126.01C345.749 127.81 344.926 129.38 342.803 129.57C333.379 130.43 324.199 133.04 314.619 132.66C312.585 129.98 314.486 128.04 316.608 126.81C324.766 122.06 333.69 121.03 343.07 123.18C344.648 123.55 345.415 124.7 345.915 126.01Z" fill="#62A1E4"/>
<path d="M261.128 310.08C250.192 310.15 241.012 301.04 241.035 290.15C241.057 281.3 251.904 273.51 264.14 273.56C272.709 273.59 281.044 282.78 281 292.12C280.944 301.47 271.486 310.01 261.128 310.08ZM262.173 279.99C254.093 279.96 246.914 285.21 246.747 291.29C246.58 297.32 253.226 303.8 259.661 303.87C269.086 303.98 275.243 299.29 275.376 291.88C275.476 285.31 269.608 280.02 262.173 279.99Z" fill="#261829"/>
<path d="M305.406 204.11C304.706 203.78 303.994 203.45 303.294 203.12C302.916 202.18 302.06 202.02 301.105 202.02C297.715 199.75 294.759 197.09 292.247 194.03C292.536 191.15 292.058 188.63 289.702 186.27C286.49 183.05 285.734 178.58 283.601 174.78C282.778 173.32 283.878 171.9 285.29 170.89C286.568 169.97 288.179 169.56 289.357 170.56C295.848 176.08 304.45 178.35 311.729 182.62C312.085 182.83 312.096 183.52 312.274 183.98L312.252 184C310.629 183.78 309.007 183.5 307.373 183.35C303.139 182.96 299.993 185.42 297.326 187.56C294.881 189.52 295.359 193.48 297.459 195.32C301.783 199.09 306.628 203.12 313.263 202.64C316.242 202.42 318.953 202.46 321.887 202.81C324.655 203.14 328.389 203.05 329.645 200.52C330.778 198.22 328.711 195.72 326.577 194.07C324.321 192.33 322.354 190.47 321.143 188.01L321.165 187.99C325.244 187.09 327.066 190.36 329.511 192.02C335.257 195.93 342.392 196.67 348.527 199.57C349.905 200.22 352.973 199.72 351.783 202.4C350.928 204.33 349.594 206.1 346.527 206.05C338.291 205.9 330.034 205.87 321.799 206.07C318.242 206.16 314.452 204.93 311.107 207.07C310.007 206.72 308.907 206.38 307.806 206.03C307.751 204.63 306.973 203.96 305.406 204.11Z" fill="#1C4A85"/>
<path d="M316.708 185.98C318.453 186.17 320.776 185.34 321.154 187.98L321.132 188C319.387 187.8 317.064 188.66 316.697 186L316.708 185.98Z" fill="#1C4A85"/>
<path d="M312.263 183.98C314.008 184.17 316.319 183.33 316.708 185.98L316.686 186C314.941 185.81 312.619 186.66 312.241 184L312.263 183.98Z" fill="#1C4A85"/>
<path d="M305.406 204.11C306.973 203.97 307.74 204.63 307.795 206.02C306.384 206.01 305.639 205.31 305.406 204.11Z" fill="#254474"/>
<path d="M301.104 202.01C302.06 202.01 302.916 202.17 303.294 203.11C302.56 202.75 301.838 202.38 301.104 202.01Z" fill="#254474"/>
<path d="M130.286 164.01C133.432 163.24 136.732 165 138.488 166.7C141.934 170.05 145.768 170.14 150.036 170.01C150.769 169.99 151.569 169.86 152.247 170.06C154.726 170.8 158.426 170.33 158.76 173.58C159.104 176.95 155.404 177.23 152.958 177.8C150.836 178.3 149.347 179.23 147.835 180.47C146.346 181.69 144.857 183.12 143.056 183.77C137.799 185.67 123.54 179.57 121.251 174.65C118.417 168.62 122.14 164.05 130.286 164.01Z" fill="#194F8F"/>
<path d="M262.173 279.99C269.609 280.02 275.488 285.31 275.365 291.88C275.232 299.29 269.086 303.99 259.651 303.87C253.216 303.79 246.57 297.32 246.736 291.29C246.914 285.21 254.083 279.96 262.173 279.99Z" fill="#FEFEFE"/>
<path d="M312.252 184C312.63 186.66 314.952 185.81 316.697 186C317.064 188.66 319.398 187.81 321.132 188C322.343 190.46 324.31 192.31 326.566 194.06C328.711 195.72 330.778 198.22 329.634 200.51C328.378 203.04 324.644 203.14 321.876 202.8C318.942 202.45 316.231 202.41 313.252 202.63C306.617 203.12 301.783 199.09 297.448 195.31C295.348 193.48 294.87 189.52 297.315 187.55C299.982 185.41 303.127 182.95 307.362 183.34C309.007 183.5 310.618 183.78 312.252 184Z" fill="#194F8F"/>
</g>
<defs>
<clipPath id="clip0_6_1345">
<rect width="469" height="447" fill="white"/>
</clipPath>
</defs>
</svg>
