<svg version="1.2" xmlns="http://www.w3.org/2000/svg" viewBox="0 0 469 447" width="469" height="447">
	<defs>
		<clipPath clipPathUnits="userSpaceOnUse" id="cp1">
			<path d="m0 0h469v447h-469z"/>
		</clipPath>
	</defs>
	<style>
		.s0 { fill: #1b1735 } 
		.s1 { fill: #261829 } 
		.s2 { fill: #2a203e } 
		.s3 { fill: #1a214d } 
		.s4 { fill: #ecebf3 } 
		.s5 { fill: #eae9f0 } 
		.s6 { fill: #dfb882 } 
		.s7 { fill: #c7c2cd } 
		.s8 { fill: #b79c91 } 
		.s9 { fill: #f5bc4e } 
		.s10 { fill: #1c4a85 } 
		.s11 { fill: #254474 } 
		.s12 { fill: #5c617a } 
		.s13 { fill: #194f8f } 
		.s14 { fill: #62a1e4 } 
		.s15 { fill: #fefefe } 
	</style>
	<g id="Clip-Path" clip-path="url(#cp1)">
		<g>
			<path class="s0" d="m101 198.51q-0.13-0.39 0.31-0.51c1.56-0.14 2.15-0.92 1.83-2.28l0.27 0.25-0.29-0.23c1.77 0.19 2.53-0.47 2.15-2.08l0.33 0.31-0.31-0.33c3.2 0.55 3.61-1.38 3.84-3.48 4.55 0.79 9.05 2.42 13.78 0.74 2.11-0.75 4.23-0.19 6.37-0.18 10.99 0.09 21.98 0.95 32.98-0.48 7.85-1.02 15.65 0.28 23.36 1.73 2.6-0.64 6.13 1.67 7.78-1.98l0.01-0.01q1.44 0.53 2.87 1.05c7.2 5.43 11.26 12.43 11.29 20.82 0.11 30.59-0.08 61.18-0.18 91.77 0 0.48-0.23 0.97-0.35 1.45-2.74-2.67-1.27-5.94-1.31-8.9-0.05-3.11-0.94-4.73-4.65-4.22q-0.28-2.49-0.55-4.99c0.52-2.67 0.51-5.34 0.03-8.02q0.02-1.99 0.03-3.99 0.02-2.01 0.04-4.02 0.01-5.49 0.03-10.98-0.01-2.5-0.01-5c0.35-5 0.44-10-0.14-14.99 0.47-2.67 0.49-5.33-0.12-7.99 0.45-3.7 0.45-7.39-0.18-11.08q-0.05-1.01-0.08-2.02c0.63-3.66 0.27-7.33-0.37-10.91-1.63-8.97-8.25-15.02-16.98-15.08-19.96-0.12-39.91 0.07-59.87 0.14-8.64 0.03-13.96 4.19-17.08 11.1-1.56 3.46-1.96 7.1-1.97 10.76q-0.13 42.9-0.11 85.8c0 5.22 1.15 10.23 4.93 14.45 3.1 4.89 8.13 7.59 13.69 9.66-1.81 2.23-3.95 0.59-5.4-0.09-3.22-1.51-6.24-1.41-9.47-0.4l0.2-0.23-0.24 0.19c0.33-1.66-0.37-2.33-2.22-1.87l-0.11-0.1c-0.23-3.8-2.17-6.62-5.94-8.39q-0.14-0.49-0.26-0.97c2.49-2.17-0.15-4.34-0.06-6.55 1.38-35.92-2.48-71.96 2.13-107.87z"/>
			<path class="s1" d="m119.94 143.98c2.03-4.19 6.34-6.37 10.01-9.09 5.2-3.86 7.78-7.91 5.92-14.64-3.18-11.43 3.75-20.23 15.13-20.98 11.68-0.78 20.05 9.19 16.51 20.63-2.14 6.88-1.09 11.34 6.16 15.18 6.55 3.46 11.4 8.85 12.91 15.98 0.64 3.07 2.54 4.93 5.83 6 3.05 1 5.86 2.87 6.41 5.8 1.54 8 2.05 16.08 0.07 24.13q-0.55-0.48-1.1-0.96 0.03-4.01 0.06-8.02c1.7-1.99 1.72-3.97 0-5.96q-0.04-3.01-0.07-6.04c-0.01-1.93-1.17-2.85-3.22-3-1.08-4.64-5.18-4.94-9.22-4.96-16.2-0.07-32.4-0.02-48.6-0.01q-0.08-0.96-0.15-1.91 7.22-0.21 14.42-0.42 1.84 0.01 3.67 0.02 2.06 0 4.12 0.01 5.13-0.01 10.26-0.01l0.47 0.13 0.47-0.13q1.74 0 3.47 0 2.75-0.02 5.5-0.03c1.44-0.22 1.87-1.18 1.37-2.18-2.78-5.5-5.43-11.08-11.46-14.56-6.6-3.81-10.26-10.48-8.41-16.34 1.01-3.17 0.74-6.25 0.65-9.34-0.13-4.26-4.88-8.13-9.36-8.11-4.95 0.02-9.14 3.34-9.41 7.88-0.2 3.13 0.11 6.31 0.4 9.45 0.61 6.53-1.55 11.92-6.83 16.64-3.74 3.34-8.9 5.43-11.26 10.03-1.6 1.33-2.31 3.08-2.88 4.9-1.11-2.12-0.66-4.13 0.55-6.08 1.54-2.52 0.44-3.68-2.39-4.01z"/>
			<path class="s1" d="m276.35 143.9c1.95-4.98 5.41-9.11 9.15-13.07 3.48 2.47 7.5 0.63 11.23 1.18 5.34 3.83 10.75 7.58 16 11.52 1.87 1.4 3.51 2.9 6.2 2.5 0.19 1.89 1.8 3.1 3.33 3.63 7.55 2.65 13.49 7.91 21.14 10.33 5.47 3.09 11.87 3.94 17.76 6.01 0.18 0.47 0.23 1.21 0.57 1.35 7.28 3.08 15.59 1.98 23.02 4.6 1.85 0.66 2.92-1.02 4.15-1.94-0.88 12.12-5.9 22.53-15.78 30.93-0.93-6.39-6.4-4.8-10.86-4.98-2.24-4.14-6.93-3.06-10.63-4.29-10.55-3.5-21.09-7.11-31.14-11.73-1.54-0.7-1.48-1.7-1.58-2.84 2.05 0.62 4.23 1.03 6.14 1.91 11.05 5.12 22.74 8.67 34.7 11.56 14.13 3.42 16.29 2.25 19.8-10.62 0.17-0.64 0.26-1.31 0.45-1.95 0.7-2.41-0.3-3.71-3-4.32-18.9-4.26-36.46-11.49-53.48-19.87l0.03 0.07c-8.01-5.28-16.04-10.53-24.01-15.86-7.38-4.92-8.26-4.79-13.18 2.41q-0.45 0.63-0.86 1.28c-4.88 7.94-4.88 8.77 2.76 14.42 5.03 3.73 9.42 8.41 16.09 10.06q3.34 2.01 6.68 4.02c0.64 3.11 4.67 3.26 6.12 5.66-1.46 0.1-2.91 0.31-4.32-0.38-8.17-3.99-15.44-9.19-22.55-14.44-6.15-4.55-12.11-9.59-13.93-17.15z"/>
			<path class="s2" d="m107.49 324.32c3.21-1 6.25-1.11 9.47 0.4 1.46 0.68 3.59 2.32 5.4 0.09q1.1 0.13 2.2 0.25c0.83 0.29 1.66 0.83 2.48 0.83q25.94 0.06 51.88 0.06c1.52 0 3.02 0.01 3.36-1.78 10.3-2.96 16.96-8.94 18.32-18.81 0.61-4.42 0.34-8.94 0.46-13.42 3.71-0.51 4.6 1.11 4.64 4.22 0.05 2.96-1.42 6.22 1.32 8.9 2.33 12.4-13.89 25.68-27.9 25.76-17.7 0.1-35.41 0.21-53.1-0.16-6.75-0.14-13.54-1.44-18.53-6.34z"/>
			<path class="s3" d="m318.92 146.02c-2.69 0.4-4.33-1.1-6.2-2.5-5.25-3.93-10.66-7.69-16.01-11.51-0.16-0.84-0.4-1.67-1.51-1.85-5.99-0.99-3.76-3.29-0.89-5.3 3.19-2.23 6.39-4.72 10.05-6.1 10.71-4.03 21.95-6.39 33.62-6.77q1.02 0.04 2.03 0.08c0.9 1.21 2.27 0.94 3.56 0.91q0.45-0.09 0.88 0.06c0.47 0.83 1.32 0.99 2.23 1.05 2.27 3.46 7.2 1.48 9.96 3.95 4.02 1.6 5.96 5.44 9.36 7.46 13.89 8.27 19.88 19.92 19.57 34.59-0.06 2.7-1.28 4.42-4.3 4.97-0.99-4.68 1.7-9.85-2.28-14.14-0.25-4.06-3.33-7.15-4.54-10.89-0.02-1.28-0.71-1.98-2.14-2.05l-0.02-0.02c-0.29-2.28-1.87-3.87-3.48-5.51-3.22-3.29-7.71-5-11.4-7.62-13.37-9.49-27.71-10.02-42.97-4.82h-0.02c-6.05 0.48-10.28 4.09-14.84 7.08-2.38 1.56-1.33 2.73 0.7 4.15 7.23 5.04 14.29 10.27 21.95 14.78q-1.62-0.02-3.31 0z"/>
			<path class="s1" d="m282.48 318.01c-3.58 4.7-9.38 5.5-14.86 6.45-14.56 2.5-30.29-4.6-37.64-16.67-7.81-12.81-6.18-27.31 4.22-37.61 0.23 2.17 0.52 4.31 3.36 5.08q-1.03 1.37-2.05 2.73-0.43 0.64-0.86 1.28c-4.55 8.74-4.23 17.56 1.49 25.51 9.73 13.54 21.58 16.59 39.49 11.16q0.52 0.03 1.05 0.03c0.02 5.07 4.06 0.9 5.8 2.04z"/>
			<path class="s0" d="m318.91 177.1c0.1 1.13 0.04 2.13 1.58 2.84 10.05 4.62 20.59 8.24 31.14 11.73 3.7 1.23 8.39 0.15 10.63 4.29l-0.1 0.17c-4.9 0.23-9.42-1.3-14.02-2.46-7.33-1.84-13.97-5.17-21.03-7.57-7.9-2.69-15.14-6.36-21.93-10.8-6.83-4.48-13.54-9.11-20.38-13.6-3.29-2.16-5.41-1.53-5.86 2.32-5.08-0.63-5.02 2.56-4.26 5.3 1.6 5.79 3.91 11.41 5.57 17.19 1.53 5.27 7.08 8.32 8.7 13.47q-0.39 0.36-0.7 0.76c-17.25-16.69-19.33-35.96-11.91-56.83 1.81 7.56 7.78 12.6 13.92 17.14 7.11 5.26 14.38 10.45 22.55 14.44 1.42 0.69 2.86 0.48 4.32 0.38q0.9 0.6 1.78 1.23z"/>
			<path class="s0" d="m354.43 212.88c-9.89 4.68-20.57 4.77-31.26 3.95-4.01-0.31-5.91 0.95-7.92 3.77-8.01 11.22-12.79 23.83-19.38 35.65-1.46 2.61-3.1 5.14-4.67 7.7-2.18 0.8-2.41 2.42-2.19 4.22q0.17 0.49-0.3 0.78c-2.11-0.07-4.64 0.49-3.4-2.99 0.58-1.62 0.12-3.54 0.13-5.32q1.28-2.33 2.55-4.66c3.31 0 0.21 2.92 2.28 3.73 0.47-0.33 1.27-0.62 1.52-1.12 4.51-9 9.01-18.01 13.39-27.06 1.04-2.14-0.71-2.55-2.61-2.57q3.81-7.5 7.63-14.99c6.25 0 12.59 0.93 18.69 0.59 8.51-0.48 17.28 0.04 25.56-2.57q-0.02 0.44-0.02 0.89z"/>
			<path class="s1" d="m285.44 260.64c-0.01 1.78 0.45 3.7-0.13 5.32-1.24 3.48 1.29 2.92 3.4 2.99-0.27 2.06 1.35 3.34 2.48 4.8 9.44 12.22 8.58 28.04-2.15 39.47 0.26-3.39-2.37-3.37-4.96-3.39 7.67-11.24 9.87-22.64-0.11-33.64-3.44-3.78-3.8-7.21-1.87-11.32 0.65-1.71 0.96-3.63 3.34-4.23z"/>
			<path class="s2" d="m271.95 246.18c4.37-8.93 8.96-17.76 14.18-26.32 2.04-0.29 3.05-1.5 3.88-3.1 1.38-2.64 2.99-5.19 4.49-7.78q2.35 0.56 4.69 1.13-11.17 20.04-22.35 40.07c-4.53-1.25-1.45 1.99-2.17 2.99l0.04 0.01c-2.56-0.09-4.99-0.33-4.88-3.46l-0.07 0.05c3.13-0.01 2.43-1.91 2.19-3.59z"/>
			<path class="s0" d="m381.28 165.05c3.02-0.55 4.25-2.27 4.3-4.97 0.3-14.67-5.68-26.32-19.57-34.59-3.4-2.03-5.33-5.87-9.36-7.46q0.9-0.49 1.8-0.97c15.11 6.7 23.45 18.26 28.31 32.2 2.34 6.73 3.8 13.64 2.13 20.75-1.23 0.93-2.3 2.6-4.15 1.94-7.43-2.63-15.74-1.52-23.02-4.6-0.34-0.15-0.39-0.89-0.57-1.35q3.37-0.04 6.75-0.08c3.19 0.61 6.08 2.16 9.51 2.12 2.43-0.04 3.89-0.6 3.87-2.99z"/>
			<path class="s2" d="m101 198.51c-4.61 35.91-0.75 71.95-2.15 107.9-0.09 2.2 2.55 4.37 0.06 6.55-1.8-3.23-1.8-6.76-1.82-10.21-0.17-30.26-0.29-60.52-0.24-90.79 0.01-4.72 0.2-9.62 4.15-13.45z"/>
			<path class="s1" d="m269.82 249.73c-0.1 3.13 2.33 3.36 4.88 3.46 0.25 2.75-2.9 4.46-2.71 7.19-2.98 4.94-7.74 6.08-13.65 5.8-3.77-0.18-7.56 0.88-11.16 2.09-1.92-2.39-4.8-2.4-7.64-2.49 4.84-3.57 10.41-6.22 16.6-5.77 6.44 0.46 9.4-2.28 11.51-6.96 0.54-1.18 1.45-2.22 2.17-3.32z"/>
			<path class="s2" d="m119.94 143.98c2.83 0.33 3.93 1.49 2.38 3.97-1.21 1.94-1.66 3.96-0.55 6.08 1.07 3.13 3.86 1.44 5.95 1.72q0.69 0 1.39-0.01 1.53-0.02 3.05-0.03 0.67 0.2 1.34 0.41c-0.42 2.06-2.19 1.9-3.86 1.9-4.43 0-8.86-0.09-13.29 0.02-5.31 0.13-9.72 2.12-10.1 7.21-0.62 8.39-2.93 17.07 2.85 24.91-0.22 2.1-0.63 4.04-3.83 3.48 1.81-1.66 3.83-3.15 0.32-5.28-1.49-0.9-1.92-2.83-1.91-4.52q0.03-9.45 0.23-18.89c0.08-3.55 2.1-6.22 5.87-6.92 4.98-0.92 7.21-3.27 7.03-7.76-0.04-0.74 0.65-1.5 1.01-2.24 0.15-0.07 0.44-0.15 0.44-0.22 0-0.26-0.11-0.51-0.18-0.76 0.27-1.21 0.74-2.3 1.86-3.07z"/>
			<path class="s0" d="m337.99 111.98c-11.67 0.39-22.9 2.74-33.62 6.77-3.65 1.38-6.86 3.87-10.05 6.1-2.87 2.01-5.1 4.3 0.89 5.3 1.12 0.18 1.35 1.01 1.52 1.85-3.73-0.54-7.76 1.29-11.23-1.18 11.92-14.18 28.38-19.66 47.48-19.99 1.65-0.02 3.76-0.66 5.01 1.15z"/>
			<path class="s2" d="m354.43 212.88q0.01-0.45 0.02-0.9c1.67-2.72 5.02-3.12 7.65-4.54 3.4-1.84 5-4.13 2.29-7.49 0.22-1.73-2.24-2.2-2.23-3.83l0.1-0.17c4.46 0.18 9.92-1.41 10.86 4.98-5.14 5.37-11.4 9.31-18.69 11.95z"/>
			<path class="s2" d="m239.55 265.78c2.84 0.09 5.72 0.1 7.64 2.48q-5.29 2.96-9.62 6.99c-2.84-0.77-3.13-2.91-3.36-5.08 1.33-1.89 3.05-3.42 5.34-4.39z"/>
			<path class="s2" d="m284.08 309.83c2.59 0.02 5.21 0 4.96 3.39-0.47 1.31-1.5 2.18-2.78 2.85-1.53-0.14-2.73 0.14-2.88 1.78q-0.43 0.21-0.9 0.15c-1.74-1.13-5.78 3.03-5.8-2.04l0.06-0.06c2.67 0.23 4.88-0.02 4.32-3.26q0.47-0.37 0.92-0.76 0.66-0.6 1.33-1.2 0.38-0.42 0.77-0.85z"/>
			<path class="s0" d="m294.5 208.98c-1.51 2.59-3.11 5.14-4.49 7.78-0.83 1.59-1.84 2.81-3.88 3.1 2.08-3.7 3.87-7.57 6.35-11.04 1.42-1.99 1.08-3.23-0.33-4.73l0.17-0.15c3.44 0.73 1.59 3.31 2.18 5.04z"/>
			<path class="s2" d="m358.45 117.05q-0.9 0.49-1.8 0.97c-2.76-2.47-7.69-0.49-9.96-3.95q0.56-0.47 1.09-0.92c3.84 0.7 7.48 1.8 10.67 3.9z"/>
			<path class="s2" d="m99.17 313.92c3.77 1.77 5.71 4.59 5.93 8.39-2.9-2.26-4.85-5.07-5.93-8.39z"/>
			<path class="s2" d="m197.8 186.01q0.55 0.48 1.1 0.96c-0.02 1.81-2.97 2.08-2.62 4.07q-1.43-0.53-2.87-1.05c0.39-2.28 1.15-4.24 4.39-3.98z"/>
			<path class="s0" d="m292.15 204.08q-1.95-1.68-3.89-3.35 0.31-0.4 0.7-0.76c1.78 0.87 3.2 1.99 3.38 3.96z"/>
			<path class="s1" d="m289.02 268.18c-0.22-1.81 0.02-3.42 2.19-4.22 0.1 1.75-1.06 2.97-2.19 4.22z"/>
			<path class="s1" d="m271.95 246.18c0.24 1.68 0.94 3.59-2.2 3.6 0.17-1.48 1.1-2.58 2.2-3.6z"/>
			<path class="s0" d="m343.58 112.97c-1.29 0.04-2.65 0.3-3.56-0.91 1.5-0.72 2.76-0.64 3.56 0.91z"/>
			<path class="s0" d="m347.78 113.15q-0.55 0.47-1.09 0.92c-0.91-0.05-1.76-0.22-2.23-1.05 1.14-0.91 2.23-0.27 3.32 0.13z"/>
			<path class="s2" d="m105.26 193.66c0.38 1.61-0.38 2.27-2.15 2.08 0.36-1 1.11-1.66 2.15-2.08z"/>
			<path class="s2" d="m103.12 195.72c0.33 1.36-0.25 2.14-1.82 2.28 0.23-1.01 0.87-1.76 1.82-2.28z"/>
			<path class="s1" d="m283.38 317.86c0.15-1.65 1.35-1.93 2.88-1.78-0.75 0.87-1.38 1.88-2.88 1.78z"/>
			<path class="s2" d="m105.21 322.41c1.87-0.46 2.56 0.21 2.23 1.87q-1.11-0.93-2.23-1.87z"/>
			<path class="s1" d="m118.09 147.04c0.07 0.25 0.17 0.51 0.18 0.76 0 0.07-0.29 0.14-0.44 0.22q0.13-0.49 0.26-0.98z"/>
			<path class="s4" d="m108.67 315.15c-3.78-4.22-4.93-9.23-4.93-14.45q-0.02-42.9 0.11-85.8c0.01-3.66 0.41-7.31 1.96-10.76 3.13-6.91 8.44-11.08 17.09-11.1 19.96-0.07 39.91-0.26 59.87-0.14 8.73 0.05 15.34 6.1 16.98 15.08 0.65 3.58 1 7.26 0.36 10.91-2.46-0.96-6.41-1.88-3.92-4.9 2.65-3.21 0.78-5.75 0.1-8.4-0.79-3.06-3.22-3.34-5.86-1.36-3.15 2.37-3.27 5.78-3.66 9.05-1.07 8.89-6.45 14.96-15.2 18.75-1.6 0.69-2.98 1.43-3.51 2.92-2.48 7.12-9.08 12.66-9.64 20.57-0.08 1.01-1.74 2.54-2.93 2.79-9.36 1.96-15.59 9.1-24.48 11.8-1.39 0.42-3.85 1.08-2.65 2.99 1.1 1.76 2.36-0.12 3.57-0.65 2.6-1.13 4.71 0.13 6.4 1.71 2.06 1.92 1.83 4.21 0.54 6.46-1.41 2.48-3.1 0.55-4.68 0.22 1.64-3.59-0.21-4.97-4-5.02q-4.99-0.07-9.97 0.04c-2.15 0.05-4.94-0.25-5.49 2.2-0.61 2.69 2.65 2.64 4.31 3.7-3.9 1.2-5.76 4.93-8.67 6.5-4.27 2.31-4.7 4.8-4.8 8.44-0.11 4.39 0.72 8.56 2.27 12.66 0.71 1.87 1.54 3.74 0.83 5.79zm7.7-101.17c3.49-0.77 7.32-1.96 10.62-0.59 4.14 1.72 7.91 3.71 12.35 1.01 8.45 6.42 12.53-2.46 18.62-4.29 1.07-0.32 2.58-0.52 2.67-1.52 0.42-4.99 5.38-6.4 8.61-9.15 0.78-0.66 2.11-1.1 1.21-2.31-0.96-1.3-2.2-0.95-3.26 0-2.05 1.82-4.4 3-7.4 2.87-5.96-0.26-11.63 1.48-17.46 2.07-6.33 0.65-12.82 2.9-18.97-1.12-1.4-0.91-2.58-2.84-5.34-2.44 1.33 3.05 2.98 5.71 3.62 8.54 0.79 3.54-6.06 2.47-5.27 6.93zm12.09 11.13q0-0.03 0-0.05c2.95 0 5.91 0.04 8.85-0.01 2.18-0.04 4.96 0.17 4.81-2.71-0.12-2.32-2.39-3.26-4.75-3.29-6.27-0.08-12.53-0.04-18.8 0-1.97 0.01-3.86 0.51-3.88 2.66-0.01 2.11 1.38 3.37 3.84 3.4 3.3 0.03 6.61 0 9.93 0zm0.58 37.1c2.77 0 5.55 0.03 8.31-0.01 1.84-0.03 4.11 0.11 4.3-2.14 0.18-2.27-1.74-3.19-4.01-3.19-6.1-0.01-12.19 0.07-18.29 0.14-1.82 0.02-3.46 0.54-3.53 2.41-0.08 1.82 1.44 2.68 3.25 2.74 3.33 0.12 6.65 0.04 9.97 0.05zm-3.68-19.34q0 0.15 0 0.29c1.84 0 3.68-0.04 5.52 0.01 1.99 0.06 3.86-0.07 3.8-2.42-0.06-2.12-1.79-2.75-3.79-2.78-4.04-0.07-8.08-0.04-12.13-0.02-1.55 0.01-3.03 0.29-3.09 2.07-0.05 1.84 1.21 2.72 3.08 2.82 2.2 0.11 4.41 0.03 6.61 0.03zm-15.18-20.62c-2.62 0.58-3.38 1.76-3.48 3.69-0.13 2.68 0.68 4.53 3.87 4.93 1.07 0.14 2.68 0.05 2.35-1.25-0.65-2.54-1.82-4.97-2.74-7.37zm3.78-6.77c-2.5 0.98-4.73-3.31-6.92-0.16-0.75 1.07 0.02 2.19 1.34 2.83 2.97 1.44 4-0.94 5.58-2.67z"/>
			<path class="s5" d="m108.67 315.15c0.72-2.05-0.11-3.92-0.82-5.81-1.55-4.11-2.38-8.28-2.27-12.66 0.09-3.64 0.53-6.13 4.8-8.44 2.91-1.58 4.77-5.3 8.67-6.5 5.03-0.49 10.18 0.53 15.15-0.92 1.59 0.33 3.27 2.25 4.68-0.22 1.29-2.25 1.52-4.54-0.54-6.46-1.69-1.58-3.8-2.83-6.4-1.71-1.21 0.53-2.47 2.41-3.57 0.65-1.2-1.91 1.26-2.57 2.65-2.99 8.89-2.7 15.11-9.84 24.48-11.8 1.19-0.25 2.85-1.77 2.93-2.79 0.56-7.9 7.16-13.44 9.64-20.57 0.53-1.49 1.92-2.23 3.52-2.92 8.74-3.79 14.12-9.86 15.19-18.75 0.39-3.27 0.51-6.68 3.66-9.05 2.64-1.98 5.07-1.7 5.86 1.36 0.69 2.66 2.55 5.19-0.1 8.4-2.49 3.02 1.46 3.94 3.92 4.9q0.06 1.02 0.1 2.03c-5.56 1.16-2.86 5.21-3.42 8.08-0.49 2.46 1.23 3.15 3.6 3 0.6 2.66 0.59 5.32 0.13 7.99-2.45 5.01-2.68 10.01 0.13 14.99q0 2.5 0.01 5c-0.52 0.42-1.37 0.77-1.49 1.28-0.52 2.07 0.57 5.17-3.71 4.68-3.64-0.41-8.25 1.71-10.05-3.63-0.96-2.87-3.47-4.37-6.72-1.61-1.09 0.92-2.36 1.89-3.75 0.41-0.9-0.95-0.17-3.81-2.72-2.6-1.98 0.94-1.46 3.5-0.53 4.97 1.83 2.94 0.79 5-0.83 7.72-1.56 2.65-3.19 5.07-5.42 7.29-2.16 2.13-2.53 4.64-2.37 7.72 0.23 4.08 3.64 6.37 5.07 9.72 2.17 5.08 5.46 10.03 9.41 14.14 3.08 3.2 4.92 6.53 7.14 11.49-5.97-3.94-11.48-3.77-16.98-3.61-4.38 0.13-7.03 1.8-6.55 6.14q-2.75 0.17-5.51 0.33c-0.08-2.01-0.42-3.79 0.42-6.04 1.37-3.67-1.88-7.35-3.22-10.87-1.02-2.67-13.08-2.65-16.29-0.95-3.77 2-7.32 4.33-11.06 6.3-5.15 2.7-10.2 7.95-16.84 2.31zm9.2-20.48c-1.54 0.55-3.38 1.04-2.97 2.98 0.35 1.64 1.89 2.43 3.63 2.65 2.35 0.3 4.74 0.43 7.11 0.64 0.1 2.66-0.99 6.44 4.55 3.23 1.56-0.91 3.86-0.81 5.83-1.13 4.48-0.74 8.28-2.59 11.32-5.63 2.04-2.05 2.12-4.66 1.37-7.04-0.83-2.62-3.02-0.49-4.61-0.54-1.48-0.05-2.23-0.89-2.94-1.92-0.85-1.22-1.6-2.66-4.05-2.44 0.19 2.84 1.17 5.75-0.36 8.49q-6.61 0.12-13.23 0.24c-2.08-1.75-4.05-2.32-5.65 0.47z"/>
			<path class="s4" d="m161.14 324.09c-0.48-4.35 2.17-6.01 6.54-6.14 5.51-0.16 11.02-0.33 16.99 3.61-2.23-4.96-4.06-8.29-7.14-11.49-3.96-4.11-7.24-9.07-9.41-14.14-1.44-3.35-4.84-5.63-5.07-9.72-0.17-3.09 0.21-5.59 2.37-7.72 2.23-2.22 3.85-4.64 5.42-7.29 1.62-2.72 2.66-4.78 0.82-7.72-0.92-1.48-1.44-4.03 0.54-4.97 2.54-1.21 1.82 1.65 2.72 2.6 1.4 1.48 2.66 0.51 3.74-0.41 3.25-2.76 5.76-1.26 6.73 1.61 1.8 5.34 6.41 3.21 10.05 3.63 4.27 0.49 3.2-2.61 3.71-4.68 0.12-0.5 0.98-0.85 1.49-1.28q-0.02 5.49-0.04 10.98c-4.69-2.63-9.39-3.09-14.67-1.06-3.79 1.45-4.7 4.07-4.59 7.03 0.11 2.96 2.63 1.9 4.57 1.47 2.27-0.51 2.98 1.13 3.48 2.47 1.83 4.88 5.61 6.71 11.11 6.13q0.28 2.49 0.56 4.99c-0.12 4.48 0.15 9-0.46 13.42-1.36 9.87-8.02 15.85-18.32 18.81-7.05 0.18-14.11 0.55-21.14-0.13z"/>
			<path class="s3" d="m197.8 186.01c-3.23-0.26-4 1.7-4.4 3.98l-0.01 0.01c-2.58 0.71-6.14-1.71-7.78 1.98-7.71-1.45-15.51-2.75-23.36-1.73-11 1.42-22 0.57-32.99 0.48-2.14-0.02-4.25-0.57-6.36 0.18-4.73 1.68-9.23 0.04-13.79-0.74-5.78-7.84-3.47-16.52-2.85-24.91 0.38-5.09 4.79-7.08 10.1-7.21 4.42-0.11 8.86-0.02 13.29-0.02 1.68 0 3.45 0.16 3.86-1.9q1.54 0 3.08 0 0.08 0.96 0.16 1.91 0 1.02 0 2.04c-5.42 2.04-11.11 0.35-16.63 0.98-8.94 2.09-8.94 2.09-8.95 10.22 0 2.66 0.2 5.33-0.07 7.97-0.41 4.04 1.38 5.99 5.84 6.93 5.14 1.08 10.25 0.71 15.38 0.81q5.55 0.02 11.09 0.04 1.12 0 2.23 0 1.66-0.02 3.32-0.02 12.78 0 25.57-0.01 2.76 0 5.52 0 1.66 0.03 3.31 0.04c9-0.01 11.34-2.14 9.84-10.16-0.81-4.31-0.74-8.56-0.91-12.85q1.12 0 2.22-0.01c0.09 1.99 1.64 2.05 3.27 2q0.03 3.01 0.07 6.04-2.54 2.98 0 5.96-0.03 3.97-0.05 7.99z"/>
			<path class="s4" d="m108.67 315.15c6.64 5.64 11.69 0.39 16.79-2.29 3.75-1.97 7.29-4.3 11.06-6.3 3.21-1.7 15.27-1.72 16.29 0.95 1.35 3.52 4.59 7.2 3.23 10.87-0.85 2.25-0.49 4.02-0.42 6.04q-15.54 0.33-31.07 0.65-1.1-0.12-2.2-0.25c-5.55-2.09-10.58-4.78-13.68-9.67z"/>
			<path class="s5" d="m200.5 286.97c-5.49 0.59-9.27-1.24-11.11-6.13-0.5-1.34-1.21-2.97-3.48-2.47-1.94 0.43-4.46 1.49-4.57-1.47-0.11-2.96 0.8-5.58 4.59-7.03 5.28-2.02 9.98-1.57 14.67 1.06q-0.01 2.01-0.03 4.02c-2.37 1.31-2.33 2.65-0.03 3.99 0.47 2.68 0.49 5.36-0.04 8.03z"/>
			<path class="s4" d="m200.38 231.99c-2.39 0.15-4.09-0.54-3.6-3 0.57-2.87-2.15-6.92 3.42-8.08 0.61 3.68 0.61 7.38 0.18 11.08z"/>
			<path class="s4" d="m200.63 254.96c-2.82-4.98-2.58-9.97-0.14-14.99 0.58 5 0.49 9.99 0.14 14.99z"/>
			<path class="s2" d="m185.61 191.97c1.65-3.69 5.2-1.26 7.78-1.98-1.66 3.66-5.18 1.34-7.78 1.98z"/>
			<path class="s4" d="m200.54 278.95c-2.3-1.35-2.33-2.68 0.03-3.99q-0.02 2-0.03 3.99z"/>
			<path class="s6" d="m124.65 149.12c2.35-4.6 7.51-6.69 11.26-10.03 5.28-4.72 7.43-10.11 6.82-16.64-0.29-3.14-0.6-6.32-0.4-9.45 0.28-4.54 4.48-7.86 9.42-7.88 4.48-0.02 9.23 3.86 9.35 8.11 0.09 3.09 0.37 6.17-0.64 9.34-1.87 5.86 1.8 12.53 8.41 16.34 6.03 3.47 8.68 9.05 11.46 14.56 0.51 1.01 0.08 1.96-1.38 2.18-1.83-0.99-3.66-1.02-5.49 0.03q-1.74 0-3.47 0-0.47-0.65-0.94 0-5.13 0-10.26 0.01-2.05-1.46-4.12-0.01-1.83-0.01-3.67-0.02c-5.51-1.45-11.18-0.2-16.75-0.73-3.57-1.4-9.43 0.19-9.6-5.81zm26.76 4.78c5.72 0 10.16 0.18 14.57-0.07 2.34-0.14 4.98-0.87 5.99-3 1.14-2.37-1.65-3.38-2.98-4.83-0.83-0.89-1.78-1.69-2.76-2.44-7.03-5.38-10.07-12.23-9.5-20.48 0.14-2.15 0.32-4.38-0.15-6.46-0.82-3.63-3.51-4.97-7.71-4.65-4.3 0.33-3.08 3.04-3.17 5.13-0.14 3.48-0.22 6.99 0.01 10.47 0.35 5.17-1.91 9.21-5.92 12.68-1.99 1.72-4.02 3.44-5.78 5.35-2.45 2.66-3.09 4.91 1.3 7 5.72 2.71 11.65 0.47 16.1 1.3z"/>
			<path class="s0" d="m136.74 160.06q0-1.02 0-2.04c16.21-0.01 32.41-0.06 48.6 0.01 4.03 0.02 8.14 0.32 9.21 4.96q-0.04 0.5-0.04 0.99-1.12 0-2.22 0.01c-1.23-1.1-2.36-2.38-4.38-2.18-4.99-3.51-10.31-1.92-15.61-0.82q-8.89 0-17.77 0c-3.97-2.05-8.25-0.59-12.36-0.88q-2.71-0.02-5.43-0.05z"/>
			<path class="s7" d="m124.65 149.12c0.17 6 6.03 4.4 9.61 5.84q-1.04 0.37-2.1 0.74-1.52 0.01-3.05 0.03-0.7-0.86-1.39 0.01c-2.09-0.28-4.88 1.41-5.95-1.72 0.57-1.82 1.29-3.57 2.88-4.9z"/>
			<path class="s8" d="m132.18 155.7q1.05-0.37 2.1-0.74c5.56 0.52 11.22-0.73 16.74 0.73q-7.21 0.21-14.42 0.42-1.55 0-3.08 0-0.68-0.21-1.34-0.41z"/>
			<path class="s2" d="m197.86 177.98q-2.54-2.98 0-5.96c1.72 1.99 1.7 3.98 0 5.96z"/>
			<path class="s2" d="m194.52 163.99q0-0.5 0.04-0.99c2.05 0.14 3.22 1.07 3.23 3-1.63 0.03-3.19-0.03-3.27-2.01z"/>
			<path class="s8" d="m173.47 155.7c1.83-1.05 3.66-1.02 5.5-0.03q-2.76 0.02-5.5 0.03z"/>
			<path class="s8" d="m154.68 155.7q2.07-1.46 4.12 0.01-2.07 0-4.12-0.01z"/>
			<path class="s8" d="m169.06 155.7q0.47-0.64 0.94 0l-0.47 0.13z"/>
			<path class="s9" d="m311.02 170.19q-3.34-2.01-6.68-4.02c-0.86-3.01-2.53-5.08-6-6.49-4.03-1.63-6.67-5.13-9.6-8.07-1.56-1.56-1.28-3.65 0.16-5.5 4.29-5.51 10.85-5.3 14.35-1.29 5.1 5.86 12.47 7.95 20.3 9.03 0 0-0.03-0.07-0.03-0.06 0.52 3.17 3.31 4.78 5.97 5.99 12.55 5.7 24.96 11.71 38.91 14.48 5.4 1.07 6.81 4.15 6.04 9.71-0.65 4.75-4.43 3.93-7.89 4.02-7.96 0.22-14.81-1.89-22.13-5.15-7.02-3.12-14.12-6.58-21.63-8.93-3.94-1.21-6.74-5.34-11.77-3.72z"/>
			<path class="s6" d="m311.02 170.19c5.03-1.62 7.83 2.5 11.76 3.73 7.51 2.34 14.62 5.8 21.62 8.93 7.33 3.26 14.17 5.37 22.14 5.15 3.46-0.1 7.24 0.73 7.89-4.02 0.77-5.56-0.64-8.64-6.04-9.71-13.95-2.77-26.37-8.77-38.91-14.48-2.66-1.2-5.45-2.81-5.97-5.99 17.01 8.38 34.57 15.62 53.48 19.87 2.7 0.61 3.7 1.91 3 4.32-0.19 0.64-0.28 1.3-0.46 1.95-3.5 12.87-5.67 14.04-19.79 10.62-11.96-2.89-23.64-6.44-34.7-11.56-1.91-0.88-4.09-1.29-6.14-1.91q-0.89-0.62-1.77-1.24c-1.44-2.39-5.47-2.54-6.11-5.66z"/>
			<path class="s6" d="m323.54 153.87c-7.82-1.08-15.19-3.17-20.3-9.03-3.5-4.02-10.06-4.22-14.35 1.29-1.43 1.85-1.72 3.94-0.17 5.5 2.94 2.94 5.58 6.44 9.61 8.07 3.45 1.41 5.13 3.47 6 6.49-6.68-1.65-11.06-6.33-16.1-10.06-7.62-5.65-7.63-6.48-2.75-14.42q0.41-0.65 0.85-1.28c4.93-7.2 5.81-7.33 13.18-2.41 8 5.31 16.03 10.57 24.03 15.85z"/>
			<path class="s0" d="m318.92 146.02q1.67 0 3.33-0.01 11.66 6.02 23.31 12.02-1.09 0.97-2.18 1.95c-7.66-2.42-13.59-7.69-21.14-10.33-1.52-0.54-3.12-1.75-3.32-3.63z"/>
			<path class="s3" d="m343.39 159.98q1.09-0.97 2.18-1.95c3.47-0.26 5.9 2.1 8.95 2.89q2.16 0.06 4.33 0.12c1.78 1.88 4.19 2.06 6.69 2.01q1.17 1.43 2.35 2.86-3.37 0.04-6.75 0.08c-5.89-2.06-12.28-2.92-17.75-6.01z"/>
			<path class="s0" d="m124.55 325.07q15.54-0.32 31.07-0.65 2.75-0.16 5.51-0.33c7.04 0.68 14.09 0.31 21.13 0.09-0.34 1.79-1.84 1.78-3.35 1.78-17.29-0.01-34.59 0-51.88-0.06-0.82-0.01-1.64-0.55-2.48-0.83z"/>
			<path class="s10" d="m365.54 163.05c-2.5 0.05-4.91-0.13-6.68-2.01 1.97-1.15 4.2-0.91 6.39-1.08 5.01-0.4 11.86-4.84 10.82-7.3-2.14-5.07-3.48-10.64-8.69-14.3-5.93-4.18-14.16-5.47-18.31-11.93-0.32-0.51-2.07-0.29-3.14-0.4-0.5-1.31-1.27-2.46-2.85-2.83-9.38-2.15-18.3-1.12-26.46 3.63-2.12 1.23-4.01 3.17-1.98 5.85-0.16 1.25 0.22 2.25 1.42 3.02 5.06 3.23 10.04 6.31 16.43 7.49 6.43 1.18 12.35 3.71 13.1 10.84-1.71 0.03-3.44-0.05-4.18-1.75-1.16-2.73-3.51-3.48-6.44-4.52-8.97-3.16-18.37-5.82-25.05-12.8-5.06-5.28-4.27-10.03 2.6-12.89 1.15-0.48 1.84-0.94 1.93-2.06h0.02c7.21 0.01 14.49 0.57 21.61-0.12 7.46-0.72 12.57 2.77 17.52 6.46 5.87 4.4 12.99 7.1 18.72 11.61l0.02 0.02c-0.07 1.36 0.69 2 2.15 2.05 1.2 3.73 4.3 6.83 4.53 10.89 0.75 4.71-1.15 8.39-5.67 10.76-2.35 1.21-5.55-0.73-7.81 1.37z"/>
			<path class="s11" d="m314.44 119.99c-0.08 1.12-0.77 1.58-1.93 2.06-6.87 2.86-7.66 7.61-2.6 12.89 6.68 6.97 16.07 9.64 25.05 12.8 2.93 1.03 5.28 1.79 6.44 4.52 0.73 1.7 2.46 1.79 4.18 1.75 0.97 2.2 3.67 2.37 5.47 3.54 1.51 0.98 3.79 0.93 3.47 3.37-3.06-0.79-5.48-3.15-8.95-2.89q-11.65-6.01-23.31-12.02c-7.65-4.51-14.72-9.73-21.94-14.78-2.04-1.42-3.08-2.59-0.7-4.15 4.53-3 8.76-6.61 14.82-7.09z"/>
			<path class="s11" d="m372.3 137.95c-5.75-4.51-12.85-7.21-18.73-11.61-4.94-3.69-10.06-7.18-17.51-6.46-7.13 0.69-14.39 0.13-21.61 0.12 15.26-5.2 29.59-4.67 42.97 4.82 3.69 2.62 8.18 4.33 11.4 7.62 1.61 1.64 3.19 3.22 3.48 5.51z"/>
			<path class="s11" d="m365.54 163.05c2.26-2.1 5.46-0.16 7.79-1.38 4.52-2.37 6.41-6.05 5.67-10.76 3.98 4.29 1.29 9.46 2.28 14.14 0.02 2.39-1.45 2.95-3.88 2.98-3.42 0.04-6.31-1.51-9.51-2.12q-1.18-1.43-2.35-2.86z"/>
			<path class="s11" d="m374.47 140.02c-1.47-0.05-2.23-0.7-2.15-2.05 1.43 0.07 2.12 0.77 2.15 2.05z"/>
			<path class="s8" d="m281.99 311.89q-0.47 0.37-0.92 0.76-2.17 1.33-4.34 2.65-0.54 0.32-1.09 0.64c-17.91 5.43-29.75 2.38-39.48-11.16-5.72-7.95-6.05-16.77-1.49-25.51q0.42-0.64 0.85-1.28 1.03-1.36 2.05-2.73 4.33-4.02 9.62-6.99c3.6-1.21 7.4-2.27 11.16-2.09 5.91 0.28 10.67-0.86 13.65-5.8 5.7-3.07 7.82-2.3 9.23 3.29 0.12 0.44 0.58 0.8 0.88 1.2-1.92 4.12-1.57 7.54 1.87 11.32 9.98 11 7.78 22.4 0.11 33.64q-0.38 0.43-0.77 0.85-0.66 0.61-1.33 1.21zm-20.86-1.81c10.36-0.06 19.83-8.61 19.87-17.96 0.06-9.34-8.29-18.52-16.86-18.56-12.25-0.05-23.09 7.74-23.11 16.59-0.02 10.89 9.15 19.99 20.1 19.93z"/>
			<path class="s2" d="m275.63 315.93q0.55-0.32 1.09-0.64 0.02 0.3 0.02 0.61l-0.06 0.06q-0.53 0-1.05-0.03z"/>
			<path class="s2" d="m235.52 277.98q-0.43 0.64-0.85 1.28 0.42-0.63 0.85-1.28z"/>
			<path class="s11" d="m362.16 196.12c-0.01 1.63 2.44 2.11 2.23 3.83-5.19 1.19-7.88 5.91-12.9 7.36-13.5 3.9-26.96 3.88-40.39-0.25 3.34-2.14 7.13-0.91 10.69-1 8.23-0.21 16.48-0.17 24.72-0.02 3.07 0.05 4.41-1.72 5.26-3.65 1.19-2.67-1.88-2.18-3.25-2.83-6.14-2.89-13.27-3.64-19.02-7.55-2.43-1.66-4.27-4.93-8.35-4.03-0.37-2.65-2.7-1.81-4.44-2-0.39-2.64-2.7-1.8-4.45-2-0.18-0.47-0.19-1.15-0.54-1.36-7.28-4.27-15.88-6.54-22.37-12.06-1.18-1-2.79-0.59-4.07 0.33-1.4 1.01-2.51 2.43-1.69 3.89 2.13 3.8 2.89 8.26 6.1 11.49 2.35 2.35 2.82 4.87 2.55 7.76-9.65-8.13-13.04-18.51-13.31-30.01 0.45-3.85 2.57-4.48 5.86-2.32 6.82 4.49 13.54 9.12 20.38 13.6 6.78 4.44 14.03 8.12 21.93 10.8 7.06 2.4 13.7 5.72 21.03 7.57 4.61 1.15 9.12 2.68 14.03 2.45z"/>
			<path class="s3" d="m311.1 207.06c13.43 4.13 26.89 4.15 40.39 0.25 5.02-1.45 7.71-6.17 12.9-7.36 2.72 3.36 1.11 5.65-2.29 7.49-2.63 1.42-5.98 1.82-7.65 4.54-8.29 2.62-17.06 2.1-25.56 2.57-6.11 0.34-12.45-0.59-18.69-0.59q-5.5-1.93-11-3.86-2.34-0.57-4.69-1.13c-0.59-1.73 1.26-4.31-2.17-5.05-0.18-1.97-1.6-3.09-3.38-3.96-1.6-5.15-7.17-8.2-8.69-13.47-1.67-5.77-3.98-11.4-5.58-17.19-0.76-2.75-0.81-5.93 4.26-5.3 0.27 11.5 3.66 21.88 13.31 30.01q3.77 4.59 8.86 7.99 1.09 0.55 2.18 1.1 1.06 0.49 2.12 0.99c0.23 1.21 0.97 1.9 2.39 1.91q1.63 0.54 3.29 1.06z"/>
			<path class="s7" d="m299.19 210.11q5.5 1.93 11 3.86-3.82 7.49-7.63 14.99c-5.26 8.83-10.86 17.51-14.57 27.02q-1.27 2.33-2.55 4.66c-2.38 0.59-2.69 2.51-3.34 4.23-0.3-0.4-0.77-0.77-0.88-1.2-1.41-5.59-3.53-6.36-9.23-3.29-0.19-2.73 2.96-4.44 2.71-7.19l-0.05-0.01c1.45-0.57 1.3-2.09 2.18-2.99q11.2-20.04 22.36-40.08z"/>
			<path class="s2" d="m287.99 255.98c3.71-9.51 9.31-18.19 14.57-27.02 1.9 0.02 3.65 0.43 2.61 2.57-4.38 9.06-8.88 18.06-13.39 27.06-0.26 0.51-1.06 0.79-1.52 1.12-2.06-0.81 1.04-3.73-2.27-3.73z"/>
			<path class="s1" d="m276.84 250.18c-0.89 0.9-0.73 2.42-2.17 2.99 0.72-1-2.36-4.24 2.17-2.99z"/>
			<path class="s8" d="m127.73 155.74q0.69-0.87 1.39-0.01-0.7 0-1.39 0.01z"/>
			<path class="s1" d="m276.74 315.9q0-0.3-0.02-0.61 2.17-1.32 4.34-2.65c0.56 3.24-1.65 3.49-4.32 3.26z"/>
			<path class="s1" d="m281.99 311.89q0.67-0.6 1.33-1.2-0.66 0.58-1.33 1.2z"/>
			<path class="s5" d="m116.37 213.98c-0.79-4.46 6.06-3.39 5.26-6.92-0.65-2.84-2.28-5.49-3.62-8.54 2.77-0.4 3.95 1.53 5.34 2.44 6.15 4.02 12.64 1.76 18.97 1.12 5.83-0.6 11.5-2.34 17.46-2.07 3 0.13 5.34-1.05 7.4-2.87 1.07-0.94 2.29-1.3 3.26 0 0.9 1.21-0.42 1.64-1.21 2.31-3.25 2.75-8.2 4.15-8.61 9.15-0.09 1-1.61 1.2-2.67 1.52-6.09 1.83-10.17 10.71-18.62 4.29-4.44 2.7-8.21 0.71-12.36-1.01-3.29-1.39-7.11-0.19-10.6 0.58z"/>
			<path class="s12" d="m128.46 225.11c-3.31 0-6.63 0.03-9.94-0.01-2.46-0.03-3.85-1.28-3.84-3.4 0.01-2.15 1.9-2.64 3.88-2.66 6.27-0.04 12.53-0.08 18.79 0 2.38 0.03 4.65 0.96 4.76 3.29 0.15 2.88-2.63 2.67-4.81 2.71-2.95 0.06-5.9 0.01-8.85 0.01q0.02 0.04 0.01 0.06z"/>
			<path class="s12" d="m129.04 262.2c-3.32-0.01-6.64 0.08-9.97-0.04-1.81-0.06-3.33-0.92-3.25-2.74 0.07-1.87 1.71-2.39 3.53-2.41 6.1-0.07 12.19-0.15 18.29-0.14 2.27 0 4.18 0.92 4.01 3.19-0.19 2.25-2.45 2.11-4.29 2.14-2.77 0.04-5.55 0.01-8.32 0z"/>
			<path class="s12" d="m134.19 280.82c-4.97 1.44-10.12 0.43-15.15 0.92-1.67-1.06-4.93-1.01-4.31-3.7 0.55-2.44 3.34-2.14 5.49-2.2q4.98-0.11 9.97-0.04c3.78 0.05 5.63 1.43 4 5.02z"/>
			<path class="s12" d="m125.36 242.87c-2.2 0-4.41 0.09-6.6-0.03-1.87-0.09-3.13-0.98-3.08-2.82 0.06-1.79 1.54-2.07 3.09-2.07 4.05-0.02 8.08-0.05 12.13 0.02 1.99 0.03 3.73 0.67 3.79 2.78 0.05 2.35-1.81 2.48-3.8 2.42-1.84-0.06-3.67-0.01-5.52-0.01q-0.01-0.15-0.01-0.29z"/>
			<path class="s5" d="m110.18 222.25c0.92 2.4 2.09 4.84 2.74 7.38 0.33 1.3-1.28 1.38-2.35 1.25-3.19-0.4-4-2.25-3.87-4.93 0.1-1.95 0.86-3.12 3.48-3.7z"/>
			<path class="s5" d="m113.96 215.48c-1.58 1.73-2.61 4.11-5.58 2.67-1.33-0.64-2.09-1.76-1.34-2.83 2.18-3.16 4.42 1.14 6.92 0.16z"/>
			<path class="s12" d="m125.64 300.94c-2.38-0.2-4.76-0.33-7.11-0.64-1.74-0.22-3.28-1.02-3.62-2.65-0.41-1.94 1.42-2.42 2.96-2.98q2.82-0.24 5.65-0.48 6.62-0.12 13.23-0.24c2.15 0.62 5.35 0.12 5.52 3.08 0.15 2.76-2.78 2.93-4.94 3.83-3.98 1.64-7.8 0.73-11.69 0.08z"/>
			<path class="s4" d="m125.64 300.94c3.89 0.65 7.73 1.56 11.68-0.08 2.16-0.89 5.09-1.06 4.94-3.83-0.17-2.95-3.37-2.46-5.52-3.08 1.53-2.74 0.55-5.65 0.36-8.49 2.44-0.22 3.2 1.22 4.05 2.44 0.71 1.03 1.46 1.88 2.94 1.92 1.58 0.05 3.78-2.08 4.61 0.54 0.76 2.37 0.67 4.99-1.38 7.04-3.03 3.04-6.83 4.89-11.31 5.63-1.97 0.32-4.27 0.23-5.83 1.13-5.53 3.22-4.44-0.56-4.54-3.22z"/>
			<path class="s4" d="m123.52 294.19q-2.82 0.24-5.65 0.48c1.6-2.79 3.57-2.22 5.65-0.48z"/>
			<path class="s10" d="m136.74 160.06q2.71 0.02 5.42 0.05c0.3 1.9 1.9 1.88 3.46 1.9 0.54 2.77 2.99 1.96 4.84 1.97 10.12 0.06 20.26 0 30.39 0.05 5.36 0.03 9.12 3.49 9.22 8.33 0.04 1.99-0.06 3.98 0.02 5.97 0.14 3.6-1.39 5.77-5.7 5.67-2.37-0.06-4.59-0.03-4.33 2.98q-2.76 0-5.52 0c-0.18-1.7-1.12-2.87-3.09-2.89-6.61-0.07-13.22-0.03-19.83-0.06-2.31-0.01-2.66 1.32-2.65 2.96q-1.66 0.02-3.31 0.02-1.12-1.55-2.24 0-5.54-0.02-11.09-0.04c-0.31-5.01-4.61-2.79-7.13-2.86-9.38-0.27-12.27-2.53-12.83-11.03-0.13-2.1 0.81-3.85 1.8-5.84 1.41-2.85 6.34-2.46 5.96-6.19 5.5-0.63 11.19 1.05 16.61-0.99zm-6.45 3.95c-8.15 0.05-11.88 4.61-9.05 10.65 2.3 4.91 16.55 11.02 21.8 9.12 1.8-0.65 3.29-2.08 4.78-3.3 1.51-1.24 3-2.18 5.13-2.67 2.44-0.57 6.14-0.86 5.8-4.22-0.34-3.25-4.05-2.78-6.51-3.52-0.67-0.2-1.47-0.07-2.22-0.05-4.26 0.13-8.1 0.04-11.54-3.31-1.74-1.72-5.05-3.48-8.19-2.7z"/>
			<path class="s11" d="m180.05 186.97c-0.26-3.01 1.96-3.03 4.33-2.98 4.32 0.1 5.85-2.07 5.7-5.67-0.08-1.99 0.02-3.98-0.02-5.97-0.1-4.84-3.86-8.3-9.22-8.33-10.13-0.05-20.26 0.02-30.39-0.05-1.84-0.01-4.3 0.8-4.84-1.97 2.94-0.53 6.16 0.98 8.89-1.02q8.89 0 17.77 0c5.09 2.03 10.41 0.61 15.62 0.82 2.02-0.19 3.15 1.08 4.38 2.18 0.16 4.29 0.11 8.54 0.91 12.85 1.5 8.02-0.85 10.15-9.84 10.16-1.08 0.02-2.18-0.01-3.29-0.02z"/>
			<path class="s11" d="m120.11 161.04c0.37 3.73-4.55 3.34-5.96 6.19-0.99 1.99-1.93 3.74-1.8 5.84 0.55 8.5 3.44 10.76 12.82 11.03 2.53 0.07 6.83-2.15 7.14 2.86-5.14-0.1-10.25 0.27-15.38-0.81-4.46-0.94-6.25-2.89-5.84-6.93 0.27-2.64 0.06-5.31 0.07-7.97 0.01-8.12 0.01-8.12 8.95-10.21z"/>
			<path class="s11" d="m148.96 186.98c-0.01-1.64 0.34-2.97 2.65-2.96 6.62 0.03 13.23-0.01 19.83 0.06 1.97 0.02 2.91 1.19 3.09 2.89q-12.79 0-25.57 0.01z"/>
			<path class="s11" d="m143.41 187.01q1.12-1.56 2.24 0-1.12-0.01-2.24 0z"/>
			<path class="s9" d="m151.41 153.9c-4.45-0.84-10.38 1.4-16.09-1.31-4.39-2.08-3.75-4.34-1.3-7 1.76-1.91 3.79-3.62 5.78-5.35 4.01-3.47 6.27-7.52 5.92-12.68-0.23-3.48-0.15-6.98-0.01-10.47 0.09-2.09-1.13-4.8 3.17-5.13 4.19-0.32 6.89 1.01 7.71 4.65 0.47 2.08 0.29 4.31 0.15 6.46-0.57 8.25 2.46 15.1 9.5 20.48 0.98 0.75 1.93 1.55 2.76 2.44 1.33 1.45 4.12 2.45 2.99 4.83-1.02 2.13-3.66 2.86-5.99 3-4.44 0.27-8.88 0.08-14.59 0.08z"/>
			<path class="s3" d="m187.91 161.82c-5.21-0.21-10.52 1.21-15.61-0.82 5.29-1.11 10.61-2.69 15.61 0.82z"/>
			<path class="s3" d="m154.53 161c-2.74 2-5.96 0.49-8.9 1.02-1.56-0.02-3.16 0-3.46-1.9 4.11 0.29 8.39-1.18 12.36 0.88z"/>
			<path class="s13" d="m354.52 160.92c0.32-2.44-1.97-2.39-3.47-3.37-1.81-1.17-4.5-1.34-5.47-3.54-0.75-7.13-6.65-9.66-13.1-10.84-6.39-1.17-11.37-4.26-16.43-7.49-1.2-0.76-1.58-1.77-1.42-3.02 9.58 0.38 18.76-2.24 28.18-3.09 2.12-0.19 2.95-1.75 3.12-3.56 1.07 0.12 2.82-0.11 3.14 0.4 4.15 6.46 12.38 7.76 18.31 11.93 5.2 3.67 6.55 9.23 8.69 14.3 1.03 2.46-5.8 6.9-10.82 7.3-2.19 0.18-4.42-0.06-6.39 1.08q-2.18-0.03-4.34-0.1z"/>
			<path class="s14" d="m345.92 126.01c-0.17 1.8-0.99 3.37-3.12 3.56-9.42 0.86-18.6 3.47-28.18 3.09-2.04-2.68-0.13-4.62 1.99-5.85 8.16-4.75 17.08-5.78 26.46-3.63 1.58 0.37 2.35 1.52 2.85 2.83z"/>
			<path class="s1" d="m261.13 310.08c-10.94 0.07-20.12-9.04-20.09-19.93 0.02-8.85 10.86-16.64 23.1-16.59 8.57 0.03 16.9 9.22 16.86 18.56-0.06 9.35-9.51 17.89-19.87 17.96zm1.04-30.09c-8.08-0.03-15.26 5.22-15.42 11.3-0.17 6.03 6.48 12.51 12.91 12.58 9.43 0.11 15.58-4.58 15.72-11.99 0.1-6.57-5.77-11.86-13.21-11.89z"/>
			<path class="s10" d="m305.41 204.11q-1.06-0.5-2.12-0.99c-0.37-0.94-1.23-1.1-2.19-1.1q-5.08-3.4-8.85-7.99c0.29-2.88-0.19-5.4-2.55-7.76-3.21-3.22-3.97-7.69-6.1-11.49-0.82-1.46 0.28-2.88 1.69-3.89 1.28-0.92 2.89-1.33 4.07-0.33 6.49 5.52 15.09 7.79 22.37 12.06 0.35 0.21 0.37 0.9 0.54 1.36l-0.02 0.02c-1.62-0.22-3.24-0.5-4.88-0.65-4.23-0.39-7.38 2.07-10.04 4.21-2.45 1.96-1.97 5.92 0.13 7.76 4.32 3.77 9.17 7.8 15.8 7.32 2.98-0.22 5.69-0.18 8.63 0.17 2.76 0.33 6.5 0.24 7.75-2.29 1.14-2.3-0.93-4.8-3.06-6.45-2.26-1.74-4.23-3.6-5.44-6.06l0.02-0.02c4.08-0.9 5.91 2.37 8.35 4.03 5.75 3.91 12.88 4.65 19.02 7.55 1.37 0.65 4.44 0.15 3.25 2.83-0.85 1.93-2.19 3.7-5.25 3.65-8.24-0.15-16.5-0.18-24.73 0.02-3.56 0.09-7.35-1.14-10.69 1q-1.65-0.52-3.3-1.04c-0.06-1.4-0.84-2.07-2.4-1.92z"/>
			<path class="s10" d="m316.71 185.98c1.74 0.19 4.07-0.64 4.44 2l-0.02 0.02c-1.74-0.2-4.07 0.66-4.43-2z"/>
			<path class="s10" d="m312.26 183.98c1.75 0.19 4.06-0.65 4.45 2l-0.02 0.02c-1.75-0.19-4.07 0.66-4.45-2z"/>
			<path class="s11" d="m305.41 204.11c1.56-0.14 2.33 0.52 2.38 1.91-1.41-0.01-2.15-0.71-2.38-1.91z"/>
			<path class="s11" d="m301.1 202.01c0.96 0 1.82 0.16 2.19 1.1q-1.09-0.54-2.19-1.1z"/>
			<path class="s13" d="m130.29 164.01c3.14-0.77 6.44 0.99 8.2 2.69 3.44 3.35 7.28 3.44 11.55 3.31 0.73-0.02 1.53-0.15 2.21 0.05 2.48 0.74 6.18 0.27 6.51 3.52 0.34 3.37-3.36 3.65-5.8 4.22-2.12 0.5-3.61 1.43-5.12 2.67-1.49 1.22-2.98 2.65-4.78 3.3-5.26 1.9-19.52-4.2-21.81-9.12-2.83-6.03 0.89-10.6 9.04-10.64z"/>
			<path class="s15" d="m262.17 279.99c7.44 0.03 13.32 5.32 13.19 11.89-0.13 7.41-6.27 12.11-15.71 11.99-6.43-0.08-13.08-6.55-12.91-12.58 0.17-6.08 7.34-11.33 15.43-11.3z"/>
			<path class="s13" d="m312.25 184c0.38 2.66 2.7 1.81 4.45 2 0.36 2.66 2.7 1.81 4.43 2 1.21 2.46 3.18 4.31 5.44 6.06 2.14 1.66 4.21 4.16 3.06 6.45-1.25 2.53-4.99 2.63-7.75 2.29-2.94-0.35-5.65-0.39-8.63-0.17-6.63 0.49-11.47-3.54-15.8-7.32-2.1-1.83-2.58-5.79-0.14-7.76 2.67-2.14 5.82-4.6 10.05-4.21 1.65 0.16 3.26 0.44 4.89 0.66z"/>
		</g>
	</g>
</svg>