<svg xmlns="http://www.w3.org/2000/svg" viewBox="0 0 100 100" width="100%" height="100%">
  <!-- Shower Column and Faucet (Left) -->
  <path d="M 22,48 L 22,22 C 22,14 34,14 34,20" fill="none" stroke="#164E8C" stroke-width="4.5" stroke-linecap="round" />
  <path d="M 28,20 L 40,20 L 42,26 L 26,26 Z" fill="#ECAE3C" stroke="#121838" stroke-width="2.5" stroke-linejoin="round" />
  
  <!-- Water Spray Droplets -->
  <circle cx="31" cy="31" r="1.5" fill="#60A5FA" />
  <circle cx="35" cy="34" r="1.5" fill="#60A5FA" />
  <circle cx="39" cy="31" r="1.5" fill="#60A5FA" />
  
  <!-- Bathtub Basin -->
  <path d="M 16,50 C 16,68 24,78 40,78 L 68,78 C 84,78 88,66 88,50 Z" fill="#F8FAFC" stroke="#121838" stroke-width="4.5" stroke-linejoin="round" />
  
  <!-- Bathtub Rolled Rim Lip -->
  <path d="M 12,50 C 12,46.5 16,45 20,45 L 84,45 C 88,45 92,46.5 92,50 C 92,53.5 88,55 84,55 L 20,55 C 16,55 12,53.5 12,50 Z" fill="#E2E8F0" stroke="#121838" stroke-width="4" stroke-linejoin="round" />
  
  <!-- Water Surface -->
  <path d="M 22,50 Q 52,54 82,50" stroke="#60A5FA" stroke-width="3" fill="none" />
  
  <!-- Bathtub Claw Feet -->
  <path d="M 24,77 C 22,82 18,84 18,87 L 26,87 C 26,83 28,80 29,77 Z" fill="#ECAE3C" stroke="#121838" stroke-width="2.5" stroke-linejoin="round" />
  <path d="M 80,77 C 82,82 86,84 86,87 L 78,87 C 78,83 76,80 75,77 Z" fill="#ECAE3C" stroke="#121838" stroke-width="2.5" stroke-linejoin="round" />
  
  <!-- Soap Bubbles on Water -->
  <circle cx="48" cy="46" r="4.5" fill="#FFFFFF" stroke="#121838" stroke-width="2.5" />
  <circle cx="56" cy="43" r="3.5" fill="#FFFFFF" stroke="#121838" stroke-width="2" />
  <circle cx="63" cy="45" r="4" fill="#FFFFFF" stroke="#121838" stroke-width="2.5" />
  <circle cx="52" cy="39" r="2.5" fill="#FFFFFF" stroke="#121838" stroke-width="1.8" />
</svg>