<svg version="1.2" xmlns="http://www.w3.org/2000/svg" viewBox="0 0 469 468" width="469" height="468">
	<defs>
		<clipPath clipPathUnits="userSpaceOnUse" id="cp1">
			<path d="m0 0h469v468h-469z"/>
		</clipPath>
	</defs>
	<style>
		.s0 { fill: #1e1837 } 
		.s1 { fill: #231e3f } 
		.s2 { fill: #182050 } 
		.s3 { fill: #1f1425 } 
		.s4 { fill: #372c27 } 
		.s5 { fill: #ecebf2 } 
		.s6 { fill: #e9eff7 } 
		.s7 { fill: #244879 } 
		.s8 { fill: #dee4f2 } 
		.s9 { fill: #e1c18c } 
		.s10 { fill: #164d89 } 
		.s11 { fill: #1b528c } 
		.s12 { fill: #f3c362 } 
		.s13 { fill: #eab54e } 
		.s14 { fill: #ae7c19 } 
	</style>
	<g id="Clip-Path" clip-path="url(#cp1)">
		<g>
			<path class="s0" d="m224.4 355.27c-0.74 8.25-1.22 16.59-8.28 22.65-2.49 2.14-5.21 3.9-8.83 3.18-0.38-0.52-0.74-0.49-1.08 0.02q-12.5 0-25 0.01-3.34-1.99-6.67 0-7.39-0.02-14.77-0.02c0.48-2.33 2.39-1.91 4.03-1.92 3.2-0.03 6.41 0.08 9.6-0.05 1.34-0.06 3.63 0.78 3.74-1.21 0.14-2.24-2.22-2.01-3.85-2.02q-13.56-0.07-27.12 0.01c-1.54 0.01-4.07-0.72-4.1 1.58-0.03 2.36 2.54 1.33 4.02 1.7 3.02 0.75 6.8-1.85 9.12 1.91q-1.73 0.01-3.45 0.02-1.65-1.69-3.29 0.01c-7.34 0.06-14.69 0.25-22.03 0.14-10.04-0.15-16.44-5.05-18.83-14.56-6.35-25.19-6.47-50.7-3.95-76.33 3.01-30.7 13.1-59.6 23.95-88.31 3.23-8.52 6.34-17.1 9.85-25.52 2.37-5.67 0.75-11.58 1.82-17.29q0.04-3.45 0.07-6.91c-0.43-2.07 0.95-3.2 2.39-4.3 0.52-0.18 0.82-0.47 0.49-1.03-0.08-1.39-0.83-2.48-1.74-3.47-0.47-2.71-2.68-2.07-4.43-2.07-8.08-0.02-16.15 0.06-24.23 0.11-2.77-2.33-2.18-5.32-1.21-8.02 5.63-15.7 15.94-27.57 31.43-35.06 1.66 0.29 3.2-0.06 4.81-0.56 2.98-0.92 3.98 0.66 3.95 3.28-0.97 0.55-1.91 1.13-2.89 1.63-13.11 6.69-23.56 15.77-29.14 29.49-1.36 3.33-0.55 4.14 2.85 4.04 5.63-0.18 11.28-0.15 16.92-0.21 7.72-0.07 9.76 1.92 9.89 9.67q0.47 0.57 0.94 1.15l0.13 0.08q0.04 0.5 0.07 1 0 0.54 0 1.08c-4.43 1.45-9.2 2.89-8.88 8.56 0.23 4.06 1.38 8.1 2.25 12.12 0.36 1.62 1.67 2.29 3.37 2.2 8.74 0.01 17.5 0.12 26.25-0.02 4.03-0.06 8.2 0.91 12.1-0.98 2.31 0.15 3.51-0.74 3.42-3.14-0.1-2.54-0.4-5.15 0.06-7.62 1.16-6.16-2.93-8.26-7.68-10.01-1.21-0.45-2.47-0.77-3.71-1.16q-0.01-0.81-0.01-1.63c1.93-0.84 2.23-2.82 3.13-4.35 4.9-8.33 11.48-14.98 20.44-19.28q1.8 0.04 3.6 0.08l0.01 0.02c-0.14 2.75-2.8 1.81-4.22 2.7-2.82 1.77-6.24 3.32-4.46 7.54 3.76 8.91 8.74 17.17 14.92 24.7 2.41 2.95 4.78 6.11 8.3 8.01 3.62 1.96 5.61 0.92 5.83-3.01 0.07-1.27 0.01-2.54 0-3.82q1.14-0.54 2.28-1.08 0.32 0.33 0.14 0.76c-0.16 1.89-0.15 3.66 2.64 3.44 1.54 2.42 3.45 4.71 3.05 7.83-3.09 1.77-6.55 0.83-9.82 1.29-8.92-3.26-14.28-10.26-19.16-17.56-2.93-4.36-5.18-9.14-7.58-13.81-1.88-3.64-3.73-4.79-6.32-0.57-0.74 1.19-1.81 2.2-2.72 3.3q-0.38 0.86-0.76 1.73-0.08 0.65-0.15 1.29 0.54 0.67 1.09 1.33c2.92 1.05 3.75 3.26 3.71 6.05-0.04 2.9 0.38 5.87-0.04 8.72-1.02 6.94 1.9 12.98 4.11 19.21-1.61 0.35-2.48-2.51-3.83-1.28-1.24 1.14-0.69 3.09 0.08 4.63 0.49 0.96 1.04 2.24 2.41 1.81 2.25-0.7 1.13-2.78 1.51-4.23 3.94 5.35 2.44 10.84-0.32 15.82-2.27 4.14-2.83 7.73-0.35 11.77 2.82 4.62 0.38 9.26-0.78 13.53-2.43 8.99 0.53 15.55 7.56 21.25 15.58 12.66 24.38 28.88 26.46 48.48-1.93 6.2-0.82 12.57-0.78 18.83 0.04 9.75-0.96 19.54 0.59 29.26q-0.46 3.32-0.92 6.63c-3.83 1.38-1.37 4.49-2 6.76zm-105.7-104.25q-0.42 1.07-0.85 2.14-0.39 2.11-0.78 4.23c-2.03 10.61-5.2 21.04-5.24 31.96q-0.19 1.09-0.39 2.18-0.39 4.38-0.78 8.76-0.13 0.98-0.25 1.98c-0.98 8.91-0.88 17.82-0.02 26.74-0.24 1.43-0.24 2.82 0.46 4.15q0.31 3.95 0.62 7.91 0.15 0.99 0.31 1.97c0.14 3.26-0.09 6.58 0.51 9.75 1.45 7.54 0.8 16.01 8.89 20.94 0.22 0.51 0.36 1.13 1.17 0.64 23.03-0.07 46.05 0.53 69.08-0.3 4.69 0.14 9.39 0.26 14.08 0.45 5.29 0.21 8.6-2.15 9.69-7.15 1.45-6.64 2.73-13.32 4.09-19.99q0.66-5.45 1.33-10.9c1.01-7.68 1.57-15.39 1-23.14q-0.09-3.76-0.16-7.52c0.15-8.82-1.23-17.47-4.46-25.67-4.53-11.54-10.9-21.95-21.04-29.98-8.73-6.91-12.74-15.8-9.02-26.67 1.49-4.33 1.4-8.09-1.19-11.81-3.22-4.67-2.73-8.76 1.01-13.22 5.2-6.22 3.48-15.05-3.24-19.97-0.33-1.97-1.86-1.97-3.42-1.97q-15.8 0-31.61 0c-1.55 0-3.09-0.02-3.42 1.96-4.99 10.34-8.58 21.19-12.32 32q-5.23 14.24-10.46 28.48c-1.89 0.44-4.53-1.16-5.47 1.91-0.88 2.89 1.79 3.36 3.3 4.63q-0.71 2.73-1.42 5.51zm-11.2 39.03c-0.88 2.4-1.75 3.94-1.99 5.57-0.97 6.82-1.67 13.67-1.2 20.56 0.11 1.47-0.92 4 1.2 4.15 2.63 0.2 2.08-2.47 2.12-4.15 0.19-6.32-0.36-12.67 1.04-18.96 0.45-1.92 0.67-4.23-1.17-7.17z"/>
			<path class="s1" d="m241.51 340.83c-0.05-6.18-0.31-12.38-0.11-18.55 0.23-6.82 3.58-12.13 9.52-15.87 9.68-6.11 20.38-7.57 31.41-5.22 15.16 3.21 30.25 4.95 45.47 0.92 9.62-2.56 19.08-2.25 28.67 0.27 11.35 2.99 19.23 11.97 19.31 23.29 0.08 10.9 0.88 21.83-0.79 32.7-2.48-5.68-0.51-11.64-1.19-17.44-0.2-1.68 0.7-4.85-0.97-4.72-2.64 0.2-6.5-1.58-8.06 2.43h-0.01c-1.81 0.16-4.14-0.74-4.56 2.16-1.28 0.18-2.65 0.15-3.82 0.6-7.35 2.85-14.76 2.07-22.2 0.53 4.59-2.37 9.52-0.51 14.25-1.11 1.87-0.24 4.35 0.89 5.03-2.07 6.33-0.74 10.99-4.09 14.71-8.88 0.14-0.1 0.44-0.23 0.43-0.3-0.07-0.28-0.23-0.56-0.36-0.83q-0.01-4.91-0.03-9.84c2.58-4.12 0.79-6.78-3.13-8.73-2.14-1.06-4.26-2.17-6.4-3.23-8.92-4.39-18.75-4.78-27.9-2.76-6.52 1.43-13.3 1.19-19.71 3.51-3.13 1.12-7.3 0.84-10.63-0.07-9.89-2.72-19.82-4.37-30.14-4.13-8.92 0.21-16.03 3.44-21.54 10.3-1.99 2.49-2.63 4.67-0.66 7.29q0 3.28 0 6.56c-1.72 1.66-0.38 1.97 1.06 2.22q0.08 0.52 0.09 1.05c0.17 3.52 2.04 5.37 5.7 5.46q0.54-0.02 1.07 0.05-0.01 1.1-0.03 2.21-3.96-0.02-7.91-0.03-3.29 1.14-6.57 2.23z"/>
			<path class="s0" d="m219.77 123.82c-5.34 0.79-6.32 3.56-4.17 8.09 0.93 1.95 1.28 4.15 1.91 6.24q-0.58 0.04-1.16 0.07c-2.47-1.5-3.21-3.83-3.39-6.48-0.51-7.6-0.61-7.67-9.03-7.81l-0.01-0.02q0.01-1.02 0.01-2.04c3.86-1.88 7.75-3.67 11.97-4.68 2.63-4.15 2.3-12.49-0.59-15.16q-0.43-0.19-0.23-0.61c-1.16-2.55-3.54-1.56-5.41-1.56-17.78-0.08-35.54-0.06-53.31-0.07-0.2-4.29 3.13-3.24 5.52-3.24 21.24-0.06 42.49 0.05 63.71-0.06 14.92-0.07 12.19 0.63 12.3 11.69 0.1 11.05-2.1 13.13-13.67 13.57-1.75 0.06-3.96-0.62-4.45 2.07zm13.63-14.14c0-0.98-0.03-1.71 0.01-2.45 0.23-3.58 0.02-6.43-5.13-6.42-5.21 0.01-5.21 2.98-5.07 6.5 0.07 2.01-0.15 4.04 0.12 6.01 0.52 3.7 5.69 5.69 8.64 3.33 2.44-1.94 1-4.8 1.43-6.97z"/>
			<path class="s2" d="m203.94 123.92c8.41 0.15 8.51 0.22 9.02 7.81 0.19 2.66 0.92 4.98 3.39 6.48 0.42 3.08 0.89 6.11 4.28 7.63q0.16 0.51 0.31 1.03c-1.78 1.65-0.47 1.98 1.02 2.24q0.11 0.84 0.23 1.68-0.07 1.89-0.15 3.78c-0.04 1.61 0.01 3.17 2.24 3.34q0.01 1.07 0.01 2.13c0 1.27 0.07 2.54 0 3.81-0.21 3.93-2.21 4.97-5.83 3.02-3.54-1.91-5.89-5.06-8.3-8.01-6.18-7.53-11.16-15.8-14.92-24.71-1.78-4.22 1.64-5.76 4.46-7.54 1.43-0.89 4.09 0.07 4.24-2.69zm4.72 18.52c-0.69-2.68-1.57-5.96-2.39-9.26-0.39-1.59 0.37-4.18-2.77-3.38-2.16 0.55-4.78 1.69-3.9 4.35 1.22 3.71 2.01 7.73 5.03 10.68 0.75 0.74 1.49 1.91 2.7 1.54 1.71-0.48 0.96-2.08 1.33-3.93z"/>
			<path class="s3" d="m362.6 375.99c-11.3 7.16-23.55 5.07-35.51 2.77-12.74-2.44-25.21-3.01-37.86 0.23-4.87 1.25-9.98 1.89-15.1 1.23 0.22-1.93 1.63-2.29 3.25-2.15 5.16 0.47 9.97-1.23 14.92-2.19 10.18-1.97 20.98-0.18 30.8-4.54 4.28-0.1 8.58-0.26 12.69 1.25 10.47 3.84 19.19-0.12 27.57-5.69 0.68 2.33-0.57 3.66-2.34 5.03-1.01 0.78-3.03 1.69-2.08 3.3 0.4 0.69 2.38 0.53 3.66 0.76z"/>
			<path class="s1" d="m219.77 123.82c0.49-2.69 2.7-2.01 4.45-2.07 11.58-0.44 13.78-2.54 13.67-13.57-0.11-11.06 2.61-11.76-12.3-11.69-21.24 0.11-42.48 0.01-63.71 0.06-2.4 0.01-5.72-1.05-5.52 3.24q0 0.59 0.01 1.19-2.78 0.11-5.55 0.24c0.03-2.62-0.98-4.2-3.95-3.28-1.59 0.49-3.15 0.84-4.81 0.56 4.28-3 9.19-4.11 14.35-4.11 24.51-0.03 49.01-0.04 73.52 0.05 8.84 0.04 10.14 1.46 10.16 9.86 0 2.74 0.02 5.47 0 8.21-0.06 7.8-1.42 9.25-9.66 10.21-3.54 0.4-7.1 0.72-10.66 1.1z"/>
			<path class="s3" d="m241.51 340.83q3.28-1.1 6.55-2.2c-1.86 5.64-0.83 11.44-1.04 17.17-0.06 1.52 0.76 2.32 2.27 2.54q2.34 4.12 4.68 8.24c0.49 3.82 2.95 5.11 6.62 4.86l-0.01-0.01c0.37 2.64 2.25 2.2 4.09 1.86l0.47 0.11q0.01 2.99 0.01 5.99c-15.07-1.55-24.03-11.07-23.95-25.55 0.01-4.32 0.2-8.67 0.31-13.01z"/>
			<path class="s4" d="m265.14 379.41q0-2.99-0.01-5.99c6.57 1.06 13.15 0.65 19.48-1.04 11.77-3.14 23.75-1.82 35.65-2.29 1.1-0.04 2.27 0.01 2.83 1.25-9.82 4.36-20.61 2.57-30.8 4.54-4.95 0.95-9.75 2.66-14.92 2.19-1.63-0.14-3.03 0.22-3.25 2.15-3.04 0.28-6.08 0.39-8.98-0.81z"/>
			<path class="s0" d="m362.6 375.99c-1.27-0.23-3.25-0.06-3.67-0.76-0.94-1.61 1.07-2.52 2.07-3.3 1.78-1.37 3.03-2.7 2.35-5.03l0.02 0.03c3.31 0.54 5.54-1.55 5.62-3.98 0.19-5.53 1.5-11.19-0.74-16.64-0.9-2.15 1.08-4.82-1.32-6.7q-1.09-0.49-2.19-0.97c1.57-4.02 5.44-2.23 8.07-2.43 1.68-0.13 0.77 3.04 0.96 4.72 0.68 5.78-1.28 11.75 1.19 17.44q0.28 3.63-1.78 6.67c-1.41 0.34-1.58 1.38-1.52 2.54q-0.86 2.6-3.29 3.97-0.66 0.6-1.32 1.21-0.56 0.47-1.12 0.94c-1.71-0.02-3.44-0.09-3.38 2.31z"/>
			<path class="s1" d="m155.22 381.1c-2.33-3.77-6.1-1.17-9.12-1.91-1.49-0.37-4.06 0.66-4.02-1.7 0.04-2.3 2.56-1.57 4.1-1.58q13.56-0.09 27.12-0.01c1.62 0.01 3.98-0.22 3.86 2.02-0.13 1.99-2.41 1.15-3.74 1.2-3.2 0.13-6.4 0.03-9.61 0.06-1.64 0.02-3.55-0.41-4.03 1.92q-2.28 0-4.56 0z"/>
			<path class="s1" d="m227.28 341.85c-1.54-9.72-0.54-19.51-0.59-29.27-0.02-6.27-1.14-12.62 0.79-18.83 1.95 16.04 1.43 32.06-0.2 48.1z"/>
			<path class="s3" d="m111.85 141.56c8.07-0.04 16.14-0.11 24.22-0.11 1.75 0 3.96-0.62 4.43 2.07-7.3-0.07-14.59-0.04-21.88-0.29-2.3-0.08-4.94 0.42-6.77-1.67z"/>
			<path class="s1" d="m194.93 182.89c-0.39 1.47 0.74 3.53-1.51 4.23-1.37 0.43-1.92-0.84-2.41-1.8-0.78-1.54-1.33-3.49-0.08-4.63 1.36-1.24 2.22 1.62 3.83 1.27q0.2 0.46 0.17 0.93z"/>
			<path class="s1" d="m222.04 154.57q0.06-1.89 0.15-3.78c2.17 2.37 3.09 5.36 4.39 8.17q-1.14 0.54-2.28 1.08 0-1.06-0.01-2.13c0.05-1.61-0.72-2.7-2.25-3.34z"/>
			<path class="s1" d="m222.58 172.28c3.28-0.47 6.74 0.47 9.82-1.28-2.5 5.87-6.36 2.14-9.82 1.28z"/>
			<path class="s1" d="m220.63 145.85c-3.39-1.51-3.86-4.56-4.28-7.63q0.58-0.03 1.16-0.07 1.56 3.85 3.12 7.7z"/>
			<path class="s1" d="m224.4 355.27c0.63-2.26-1.83-5.37 1.95-6.79-0.2 2.38 0.47 5.01-1.95 6.79z"/>
			<path class="s1" d="m229.36 163.15c-2.79 0.22-2.8-1.54-2.64-3.44 1.66 0.59 1.58 2.42 2.64 3.44z"/>
			<path class="s1" d="m139.35 152.34q-0.03 3.45-0.07 6.91c-0.47-2.31-0.53-4.62 0.07-6.91z"/>
			<path class="s4" d="m174.54 381.12q3.33-1.98 6.67 0-3.33 0-6.67 0z"/>
			<path class="s3" d="m362.55 376.01c-0.06-2.4 1.67-2.33 3.38-2.31-0.82 1.18-1.93 1.98-3.38 2.31z"/>
			<path class="s1" d="m221.96 149.12c-1.49-0.26-2.8-0.59-1.02-2.24q0.51 1.13 1.02 2.24z"/>
			<path class="s4" d="m148.49 381.12q1.64-1.7 3.29-0.01-1.65 0.01-3.29 0.01z"/>
			<path class="s3" d="m371.67 367.59c-0.06-1.17 0.1-2.21 1.51-2.54q-0.75 1.26-1.51 2.54z"/>
			<path class="s1" d="m142.24 147.01c0.33 0.56 0.03 0.84-0.49 1.03q0.24-0.52 0.49-1.03z"/>
			<path class="s3" d="m367.06 372.77q0.65-0.61 1.31-1.21-0.66 0.6-1.31 1.21z"/>
			<path class="s1" d="m206.21 381.12q0.52-0.78 1.08-0.02-0.53 0-1.08 0.02z"/>
			<path class="s5" d="m132.75 210.46c3.72-10.81 7.33-21.66 12.32-32.01q19.23 0.01 38.45 0.01c6.73 4.93 8.45 13.76 3.24 19.97-3.74 4.47-4.23 8.55-1.01 13.22 2.59 3.74 2.68 7.5 1.19 11.82-3.72 10.87 0.29 19.76 9.02 26.66 10.14 8.03 16.51 18.45 21.04 29.99 3.22 8.2 4.61 16.85 4.45 25.67-2.47 0.28-3.9-2.46-6.24-2.16-4.1 0.51-5-1.95-4.74-4.89 0.37-4.23-1.55-7.94-2.43-11.86-0.55-2.41-0.53-4.41 1-6.1 2.4-2.62 1.6-4.63-0.83-6.45-3.83-2.86-8.06-5.3-9.07-10.48-0.2-1.07-1.39-1.9-2.59-1.8-3.56 0.3-5.28-2.24-7.57-4.09-8.43-6.82-16.26-14.18-27.48-17.29-11.47-3.17-24.82 1.25-30.13 11.49-6.11 11.77-7.04 24.72-8.98 37.41-0.81 5.35-0.1 11.22-2.18 16.01-2.71 6.24-3.43 11.51 0.03 17.52 2.13 3.7 1.78 8.98 0.25 11.86-1.54 2.9-2.03 9.47-8.74 8.04q-0.15-0.99-0.3-1.97c2.66-2.85 3.64-5.57-0.62-7.92-0.71-1.32-0.71-2.72-0.47-4.14 3.72-2.65 1.84-6.84 2.46-10.14 1.02-5.48 0.62-11.38-2.42-16.59q0.12-0.99 0.24-1.99c4.22-2.64 4.47-5.45 0.79-8.75q0.2-1.09 0.39-2.18c1.82-0.14 4.26 0.29 3.41-2.73-1.06-3.85 0.22-7.54 0.9-11.16 3.93-21.06 9.91-41.57 18.55-61.3 1-2.23 1.61-3.86-1.93-3.67z"/>
			<path class="s5" d="m150.82 101.21q2.77-0.12 5.55-0.24c2.06 0.07 4.12 0.2 6.19 0.22q26.26 0.12 52.52 0.21-0.2 0.42 0.23 0.62c0.85 5.03 1.11 10.08 0.59 15.16-4.22 1.01-8.1 2.81-11.96 4.68-1.4 0.32-2.7 0.82-3.62 1.96-8.96 4.29-15.54 10.95-20.44 19.28-0.9 1.54-1.2 3.5-3.13 4.35q-13.04-0.07-26.07-0.14-0.57-0.14-1.17-0.28l-0.13-0.08q-0.47-0.57-0.94-1.15c-0.13-7.73-2.15-9.73-9.89-9.66-5.64 0.05-11.29 0.03-16.92 0.21-3.39 0.1-4.21-0.72-2.85-4.05 5.58-13.71 16.04-22.79 29.14-29.48 0.99-0.49 1.93-1.07 2.9-1.61z"/>
			<path class="s6" d="m111.78 343.02c6.7 1.44 7.19-5.14 8.73-8.03 1.54-2.88 1.88-8.16-0.25-11.87-3.44-6.01-2.74-11.29-0.03-17.52 2.08-4.79 1.37-10.66 2.19-16.01 1.93-12.7 2.86-25.64 8.97-37.41 5.31-10.23 18.67-14.66 30.13-11.48 11.23 3.11 19.06 10.48 27.48 17.28 2.29 1.85 4.01 4.4 7.57 4.09 1.2-0.11 2.38 0.73 2.6 1.8 1.02 5.17 5.24 7.63 9.06 10.49 2.42 1.82 3.23 3.81 0.84 6.44-1.53 1.69-1.56 3.69-1.01 6.1 0.88 3.92 2.8 7.63 2.44 11.86-0.27 2.94 0.63 5.42 4.73 4.89 2.34-0.29 3.77 2.45 6.24 2.16q0.09 3.76 0.16 7.52c-3.72 0.3-8.95-1.07-9.31 4.27-0.39 5.63 1 11.35 3.06 16.74 0.88 2.32 3.19 2.12 5.25 2.12q-0.66 5.45-1.33 10.9c-3.38 0.56-7.43-1.48-10.07 1.36-3.2 3.45-2.71-0.28-3.65-1.34 1.87-18.4 3.13-36.7-0.1-55.23-1.4-8.01-4.11-14.26-10.63-19.09-3.07-2.22-5.63-4.92-7.84-7.93-3.92-3.9-7.92-7.74-11.75-11.72-5.86-6.1-12.49-9.51-21.65-9.18-17.16 0.61-20.04 5.79-22.92 16.79-7.38 28.06-9.49 56.38-5.24 85.05 1.85 12.48 3.9 13.96 17.1 14.1 16.38 0.19 32.76 0.29 49.14 0.42 0.16 3.49-0.56 6.07-5.19 5.51-1.31-0.15-3.84-0.91-3.41 1.98 0.26 1.76 0.84 3.44 3.42 3.47 1.93 0.02 4.87-1.17 4.94 2.51-23.02 0.84-46.05 0.23-69.08 0.3q-0.58-0.32-1.17-0.64c-8.09-4.93-7.44-13.4-8.89-20.94-0.63-3.18-0.38-6.5-0.53-9.76zm16.92 28.51c6.46-0.03 11.83-0.3 16.53-3.43 0.77-0.52 1.64-1.01 1.5-2.06-0.12-0.89-0.96-1.04-1.7-1.07-6.27-0.23-12.47-2.41-18.85-0.21-1.69 0.58-3.84 1.91-5.77-0.02-0.52-0.51-1.3-0.85-1.96-0.17-0.78 0.8-0.42 1.7 0.09 2.48 2.66 3.96 6.49 5.22 10.16 4.48z"/>
			<path class="s7" d="m184.67 171.01c-3.89 1.9-8.06 0.92-12.1 0.99-8.75 0.14-17.5 0.02-26.25 0.02-0.46-4.11-1.58-8.14-1.31-12.36 0.15-2.59 0.7-4.06 3.78-4.01 9.92 0.12 19.86-0.04 29.78 0.12 4.19 0.06 6.56 2.07 6.16 6.55-0.24 2.88-0.05 5.8-0.06 8.69z"/>
			<path class="s8" d="m191.42 374.05c-0.07-3.68-3-2.49-4.94-2.51-2.58-0.03-3.16-1.71-3.42-3.48-0.43-2.88 2.09-2.12 3.41-1.97 4.63 0.56 5.34-2.03 5.19-5.51 11.27-2.12 11.58-2.42 13.9-13.21 0.94 1.05 0.45 4.78 3.64 1.34 2.63-2.84 6.7-0.79 10.07-1.36-1.35 6.66-2.63 13.35-4.08 19.99-1.09 5-4.4 7.36-9.69 7.15-4.69-0.18-9.38-0.3-14.08-0.44z"/>
			<path class="s2" d="m184.67 171.01c0.01-2.9-0.18-5.82 0.06-8.69 0.4-4.48-1.97-6.49-6.16-6.55-9.92-0.16-19.86-0.01-29.78-0.12-3.08-0.04-3.63 1.42-3.78 4.01-0.27 4.22 0.85 8.25 1.31 12.36-1.7 0.09-3.01-0.59-3.37-2.21-0.87-4.03-2.02-8.06-2.25-12.13-0.32-5.66 4.45-7.11 8.88-8.56q13.59-0.02 27.18-0.02c1.23 0.39 2.5 0.7 3.71 1.15 4.75 1.76 8.84 3.86 7.69 10.02-0.47 2.47-0.16 5.08-0.07 7.62 0.09 2.39-1.11 3.28-3.42 3.12z"/>
			<path class="s6" d="m132.75 210.46c3.54-0.19 2.93 1.44 1.95 3.69-8.65 19.73-14.63 40.25-18.56 61.3-0.68 3.61-1.96 7.31-0.89 11.16 0.83 3.03-1.61 2.6-3.42 2.73 0.05-10.92 3.21-21.35 5.24-31.96q0.4-2.11 0.78-4.23c0.78-0.53 1.03-1.25 0.85-2.14q0.7-2.77 1.41-5.55 1.08-3.27 2.18-6.54 5.23-14.22 10.46-28.46z"/>
			<path class="s8" d="m220.62 336.46c-2.06 0-4.37 0.2-5.25-2.12-2.07-5.39-3.45-11.11-3.06-16.74 0.36-5.34 5.6-3.97 9.31-4.27 0.57 7.74 0.01 15.44-1 23.13z"/>
			<path class="s1" d="m107.5 290.05c1.84 2.95 1.62 5.25 1.19 7.17-1.42 6.3-0.87 12.64-1.05 18.96-0.04 1.69 0.51 4.35-2.11 4.15-2.12-0.15-1.1-2.67-1.21-4.15-0.46-6.89 0.23-13.75 1.21-20.56 0.22-1.63 1.09-3.18 1.97-5.57z"/>
			<path class="s3" d="m183.52 178.47q-19.22-0.01-38.45-0.02c0.33-1.97 1.87-1.96 3.42-1.96q15.81 0.02 31.61 0c1.55 0 3.09 0 3.42 1.98z"/>
			<path class="s6" d="m110.41 302.26c3.05 5.22 3.44 11.11 2.42 16.59-0.61 3.31 1.27 7.5-2.46 10.14-0.83-8.91-0.94-17.82 0.04-26.73z"/>
			<path class="s3" d="m176.76 149.09q-13.59 0.02-27.18 0.02 0-0.52 0-1.07 0.55-0.36 1.09-0.72 13.03 0.06 26.07 0.14 0.01 0.82 0.02 1.63z"/>
			<path class="s1" d="m122.29 238.93q-1.08 3.27-2.19 6.54c-1.5-1.27-4.18-1.74-3.29-4.62 0.95-3.07 3.59-1.47 5.48-1.92z"/>
			<path class="s6" d="m111.44 291.52c3.68 3.29 3.43 6.12-0.78 8.76q0.39-4.37 0.78-8.76z"/>
			<path class="s6" d="m110.85 333.15c4.26 2.33 3.28 5.06 0.62 7.91q-0.32-3.97-0.62-7.91z"/>
			<path class="s1" d="m200.31 123.83c0.93-1.14 2.22-1.64 3.61-1.96q0 1.02-0.01 2.04-1.79-0.05-3.6-0.08z"/>
			<path class="s1" d="m118.7 251.02c0.18 0.89-0.07 1.61-0.85 2.14q0.43-1.08 0.85-2.14z"/>
			<path class="s1" d="m148.44 145.81q0.47 0.58 0.94 1.16-0.46-0.57-0.94-1.16z"/>
			<path class="s8" d="m121.18 373.71q0.58 0.32 1.17 0.64c-0.81 0.5-0.95-0.14-1.17-0.64z"/>
			<path class="s1" d="m150.68 147.33q-0.54 0.36-1.09 0.72-0.03-0.5-0.07-1.01 0.57 0.14 1.16 0.29z"/>
			<path class="s2" d="m248.08 321.11c-1.96-2.62-1.33-4.79 0.66-7.29 5.51-6.86 12.62-10.09 21.53-10.3 10.33-0.24 20.26 1.41 30.15 4.13 3.33 0.91 7.5 1.2 10.63 0.07 6.41-2.33 13.19-2.07 19.71-3.51 9.15-2.02 18.97-1.63 27.9 2.76 2.14 1.05 4.26 2.17 6.4 3.24 3.92 1.95 5.71 4.6 3.13 8.71-9.17-10.84-22.93-14.9-34.12-10.06q-3.92 0.63-7.84 1.27c-8.27 1.06-16.6 1.25-24.93 1.17q-1.12-0.03-2.24-0.05c-6.4-1.21-12.63-3.28-19.24-3.35-4.91-2.22-9.82-0.65-14.73 0.05-0.93-0.01-1.76 0.18-2.28 1.03-3.43 1.2-6.5 2.95-9.05 5.51-3.14 1.22-3.97 4.26-5.68 6.62z"/>
			<path class="s4" d="m364.74 338.64q1.1 0.49 2.19 0.97c-4.93 4.33-11.22 6.29-17.4 6.48-8.41 0.25-16.91-0.85-25.12-3.16-12.96-3.63-25.69-2.42-38.39 1.31-4.19 1.22-8.47 1.88-12.97 2.08-7.49 0.34-13.85-2.32-20.19-5.37-3.41-1.63-4.22-0.65-4.04 2.64 0.27 4.91 0.33 9.83 0.47 14.75-1.51-0.22-2.33-1.03-2.27-2.54 0.21-5.73-0.81-11.54 1.04-17.17q3.96 0.02 7.91 0.02c1.52 2.93 4.37 1.95 6.82 2.18 0.2 1.17 0.76 2.07 2.12 2.08q8.09 0.04 16.18-0.01c1.36-0.01 1.91-0.92 2.1-2.09 2.04-0.17 4.07 0.16 6.11-0.54 6.19-2.13 12.44-3.95 19.19-3.96 3.2 0 5.17 2.83 8.45 2.31 6.1-0.99 11.47 2.13 17.19 3.28 7.45 1.55 14.86 2.33 22.21-0.52 1.16-0.45 2.54-0.42 3.82-0.61 1.94 0.14 3.69-0.14 4.55-2.15z"/>
			<path class="s7" d="m334.07 308.86c11.2-4.84 24.95-0.78 34.12 10.06q0.01 4.91 0.03 9.84-0.05 0.56-0.08 1.12c-3.72 4.79-8.37 8.14-14.7 8.87-11.31 2.04-22.13-0.4-32.88-3.4 5.67-2.61 11.4-1.47 16.94 0.14 1.85 0.54 3.84 1.52 5.29 0.63 2.53-1.58 5.16-1.64 7.92-2.04 5.54-0.81 11.59-6.18 11.78-9.98 0.4-7.64-5.56-13.54-13.64-14.04-4.94-0.3-10.07 1.54-14.78-1.2z"/>
			<path class="s2" d="m320.54 335.35c10.75 3 21.57 5.44 32.88 3.4-0.69 2.96-3.17 1.83-5.04 2.07-4.72 0.6-9.66-1.26-14.25 1.1-5.73-1.15-11.1-4.27-17.19-3.28-3.28 0.52-5.25-2.32-8.45-2.31-6.76 0-12.99 1.82-19.19 3.96-2.04 0.7-4.08 0.37-6.11 0.54q-10.2 0-20.4 0.01c-2.45-0.23-5.31 0.74-6.82-2.18q0.01-1.1 0.03-2.2 1.14 0 2.28 0 0.51 0.06 1.02 0.05c0.81 1.37 2.01 2.13 3.66 2.1 7.99-0.13 16.09 1.02 23.94-1.32 10.33-3.09 20.77-4.06 31.42-1.99q1.12 0.02 2.22 0.05z"/>
			<path class="s7" d="m258.29 336.46q-1.14 0-2.28 0-0.54-0.07-1.07-0.06-2.28-3.29-5.7-5.46-0.02-0.52-0.09-1.05c0.04-0.91-0.15-1.72-1.06-2.21q0-3.29 0-6.57c1.71-2.34 2.54-5.39 5.66-6.62 0.44 7.53-2.1 15.63 4.54 21.97z"/>
			<path class="s2" d="m249.23 330.93q3.42 2.17 5.7 5.46c-3.66-0.09-5.53-1.94-5.7-5.46z"/>
			<path class="s0" d="m364.73 338.64c-0.86 2.01-2.6 2.29-4.55 2.16 0.42-2.9 2.76-2 4.55-2.16z"/>
			<path class="s2" d="m248.08 327.67c0.91 0.49 1.1 1.3 1.06 2.21-1.44-0.25-2.77-0.56-1.06-2.21z"/>
			<path class="s2" d="m368.13 329.88q0.04-0.56 0.08-1.12c0.12 0.28 0.28 0.54 0.35 0.84 0.02 0.05-0.27 0.18-0.43 0.28z"/>
			<path class="s7" d="m233.4 109.68c-0.43 2.17 1.01 5.03-1.43 6.97-2.97 2.37-8.12 0.37-8.64-3.33-0.28-1.98-0.05-4.01-0.12-6.01-0.15-3.52-0.14-6.48 5.07-6.5 5.15-0.01 5.36 2.83 5.13 6.42-0.04 0.73-0.01 1.46-0.01 2.45z"/>
			<path class="s3" d="m215.08 101.42q-26.26-0.1-52.52-0.23c-2.06-0.01-4.12-0.14-6.19-0.21q-0.01-0.6-0.01-1.19c17.77 0.01 35.53-0.01 53.31 0.07 1.87 0 4.25-0.99 5.41 1.56z"/>
			<path class="s3" d="m215.89 117.17c0.52-5.07 0.26-10.12-0.59-15.15 2.9 2.67 3.21 11.01 0.59 15.15z"/>
			<path class="s7" d="m208.66 142.44c-0.38 1.85 0.38 3.45-1.31 3.94-1.22 0.36-1.95-0.81-2.71-1.54-3.03-2.95-3.81-6.97-5.03-10.68-0.89-2.66 1.74-3.8 3.91-4.35 3.14-0.8 2.38 1.78 2.76 3.38 0.81 3.3 1.69 6.57 2.38 9.25z"/>
			<path class="s0" d="m222.04 154.57c1.53 0.63 2.3 1.73 2.24 3.34-2.23-0.17-2.26-1.73-2.24-3.34z"/>
			<path class="s9" d="m249.31 358.35c-0.15-4.92-0.21-9.84-0.48-14.75-0.18-3.29 0.64-4.27 4.04-2.64 6.34 3.04 12.7 5.7 20.19 5.37 4.5-0.2 8.77-0.85 12.97-2.08 12.7-3.73 25.45-4.95 38.4-1.31 8.2 2.31 16.7 3.42 25.11 3.16 6.19-0.19 12.47-2.15 17.4-6.48 2.4 1.87 0.42 4.55 1.33 6.7-0.93 7.03 1.2 14.74-4.9 20.62l-0.02-0.03c-8.38 5.57-17.11 9.53-27.57 5.69-4.1-1.5-8.41-1.35-12.69-1.25-0.56-1.25-1.73-1.29-2.83-1.25-11.9 0.47-23.88-0.84-35.65 2.29-6.33 1.69-12.91 2.1-19.48 1.04l-0.47-0.1q-2.04-0.94-4.08-1.88l0.01 0.01q-3.31-2.43-6.62-4.85-2.33-4.14-4.66-8.26zm8.92 6.63c1.16 3.56 3.89 4.44 7.42 4.36 10.05-0.26 20-0.44 30.07-1.88 11.06-1.57 22.55-0.33 33.85-0.32 10.77 7.54 21.85 4.91 32.07-2.6 2.76-2.03 4.55-15.12 2.88-17.99-0.39-0.67-1.19-1.45-1.71-0.96-3.69 3.39-8.94 0.41-12.76 3.04-6.85 1.47-13.83 0.65-20.74 1.04q-0.47-0.43-0.93-0.86c-3.26-2.46-6.79-3.99-11.1-3.65-2.74 0.21-5.27-0.32-8.01-1.51-3.47-1.51-7.82-1.25-11.56-0.08-6.45 2.03-12.82 4.06-19.73 3.88-5.44-0.14-10.88 0-16.31 0.01-2.3 0.09-4.42-0.47-6.46-1.5-1.4-0.71-2.75-1.14-3.62 0.87-2.48 5.85 0.67 14.56 6.64 18.15z"/>
			<path class="s4" d="m253.97 366.6q3.31 2.43 6.62 4.85c-3.67 0.24-6.13-1.04-6.62-4.85z"/>
			<path class="s4" d="m260.58 371.45q2.04 0.94 4.08 1.88c-1.83 0.32-3.71 0.75-4.08-1.88z"/>
			<path class="s3" d="m363.37 366.93c6.1-5.89 3.97-13.6 4.9-20.62 2.23 5.45 0.93 11.11 0.73 16.64-0.09 2.44-2.32 4.53-5.63 3.98z"/>
			<path class="s10" d="m187 265.12c2.21 3.01 4.77 5.72 7.84 7.93 0.07 1.62 0.02 3.11 1.44 4.51 5.87 5.76 7.43 13.18 7.59 20.85 0.24 11.68-0.32 23.37 0.24 35.01 0.24 5.31-1.91 9.95-3.05 14.72-0.92 3.84-4.74 7.97-10.25 7.98-18.76 0.05-37.52 0.01-56.28 0.01-1.92 0-4.08 0.16-4.33-2.36-0.5-5-3.41-9.47-3.26-14.57 0.53-19.7-1.42-39.45 2.13-59.09 1.23-6.88 2.01-13.91 4.66-20.34 5.55-13.46 17.47-17.57 31.17-11.03 6.77 3.25 11.01 9.53 16.62 14.18 1.48 1.24 2.15 5.06 5.48 2.2z"/>
			<path class="s7" d="m187 265.12c-3.32 2.86-4-0.96-5.48-2.19-5.61-4.65-9.85-10.93-16.62-14.18-13.71-6.55-25.63-2.44-31.17 11.03-2.65 6.43-3.43 13.47-4.66 20.34-3.54 19.64-1.59 39.39-2.13 59.09-0.14 5.1 2.76 9.58 3.26 14.57 0.25 2.52 2.41 2.36 4.33 2.36 18.76 0 37.52 0.04 56.28-0.01 5.51-0.01 9.33-4.14 10.25-7.98 1.14-4.77 3.29-9.41 3.05-14.72-0.56-11.65 0-23.34-0.24-35.01-0.16-7.67-1.72-15.09-7.59-20.85-1.41-1.39-1.37-2.89-1.44-4.51 6.52 4.82 9.22 11.09 10.63 19.09 3.22 18.52 1.97 36.82 0.1 55.23-2.31 10.79-2.63 11.1-13.9 13.21-16.38-0.13-32.77-0.24-49.15-0.42-13.19-0.14-15.24-1.62-17.09-14.1-4.25-28.67-2.14-57.01 5.23-85.05 2.89-11 5.77-16.18 22.93-16.79 9.17-0.33 15.78 3.09 21.65 9.18 3.84 3.97 7.83 7.8 11.76 11.71z"/>
			<path class="s8" d="m128.7 371.53c-3.67 0.74-7.5-0.52-10.16-4.48-0.52-0.78-0.88-1.68-0.09-2.48 0.66-0.67 1.45-0.34 1.96 0.17 1.93 1.93 4.08 0.6 5.77 0.02 6.38-2.21 12.58-0.02 18.85 0.21 0.75 0.04 1.58 0.19 1.7 1.07 0.13 1.05-0.73 1.54-1.5 2.06-4.7 3.13-10.07 3.4-16.53 3.43z"/>
			<path class="s11" d="m258.29 336.46c-6.64-6.34-4.11-14.44-4.55-21.98 2.55-2.56 5.63-4.31 9.05-5.51 1.78 1.76 2.04 0.38 2.27-1.03 4.91-0.7 9.83-2.27 14.74-0.05 3.24 3.48 13.68 5.3 19.24 3.35q1.12 0.03 2.24 0.05c0.19 1.88 1.17 3.1 3.17 3.15 3.56 0.08 7.81 1.2 10.5-0.28 3.66-2 8.68 0.07 11.26-4.04q3.93-0.64 7.84-1.27c4.72 2.74 9.85 0.9 14.78 1.2 8.06 0.5 14.03 6.4 13.64 14.04-0.2 3.81-6.24 9.18-11.79 9.98-2.75 0.4-5.39 0.46-7.91 2.04-1.44 0.89-3.44-0.09-5.29-0.63-5.54-1.61-11.29-2.75-16.94-0.14q-1.1-0.04-2.21-0.06c-0.12-1.36-0.7-2.39-2.08-2.98-8.12-3.45-16.12-1.88-24.05 0.53-5.78 1.75-11.32 4.12-17.66 3.66-5.06-0.36-10.16-0.03-15.24 0q-0.5 0.03-1.01-0.03z"/>
			<path class="s7" d="m326.23 310.13c-2.59 4.11-7.61 2.04-11.26 4.04-2.7 1.48-6.95 0.35-10.51 0.28-2-0.05-2.98-1.28-3.17-3.15 8.34 0.08 16.65-0.11 24.94-1.17z"/>
			<path class="s7" d="m299.05 311.24c-5.56 1.95-16 0.13-19.24-3.35 6.61 0.07 12.84 2.15 19.24 3.35z"/>
			<path class="s7" d="m265.07 307.95c-0.24 1.41-0.5 2.78-2.27 1.03 0.51-0.84 1.35-1.05 2.27-1.03z"/>
			<path class="s1" d="m262.8 340.84q10.2-0.01 20.4-0.01c-0.19 1.17-0.74 2.08-2.09 2.09q-8.1 0.05-16.19 0.01c-1.36-0.02-1.92-0.92-2.12-2.09z"/>
			<path class="s7" d="m259.31 336.51c5.07-0.02 10.18-0.36 15.24 0 6.34 0.46 11.88-1.91 17.66-3.66 7.93-2.41 15.95-3.99 24.05-0.53 1.38 0.6 1.95 1.63 2.08 2.99-10.66-2.08-21.09-1.11-31.41 1.98-7.85 2.35-15.95 1.2-23.95 1.33-1.65 0.02-2.86-0.75-3.67-2.11z"/>
			<path class="s12" d="m329.31 349.69c6.91-0.41 13.89 0.42 20.74-1.06 0.05 1.86-0.88 2.5-2.71 3.33-7.38 3.37-15.19 6.48-17.77 15.19-11.31-0.01-22.79-1.26-33.85 0.32-10.07 1.44-20.02 1.63-30.07 1.88-3.54 0.09-6.26-0.79-7.42-4.35q7.5-0.09 14.99-0.18c1.56 1.21 2.92 2.79 5.36 1.73 2.37-1.03 2.57-2.8 2.21-4.9 4.88 0.05 7.54-4.21 11.67-5.64 2.01 0.06 4.22 0.36 5.15-1.97 0.53-1.34 0.58-2.84-0.61-3.98-2.12-2.03-4.36-1.18-6.58-0.14-7.92-0.1-15.83-0.17-23.75-0.35-1.88-0.04-4.38 0.9-5.03-2.09 5.44-0.01 10.89-0.15 16.32-0.01 6.92 0.19 13.28-1.85 19.73-3.88 3.74-1.17 8.09-1.42 11.56 0.08 2.74 1.18 5.26 1.72 8 1.51 4.32-0.34 7.84 1.2 11.11 3.65-1.49-0.09-3.01-0.41-4.47-0.23-2.48 0.3-4.33 1.7-4.03 4.27 0.26 2.22 1.5 4.04 4.21 4.39 4.44 0.57 5.85-1.4 5.24-7.57zm-18.15 9.73c0.09-1.35-0.66-1.98-1.94-2.12-1.36-0.14-2.8-0.07-3.04 1.55-0.23 1.43 0.7 2.4 2.19 2.58 1.53 0.2 2.42-0.61 2.79-2.01z"/>
			<path class="s13" d="m329.58 367.14c2.58-8.7 10.39-11.82 17.77-15.19 1.82-0.82 2.76-1.48 2.71-3.33 3.82-2.63 9.07 0.34 12.76-3.04 0.52-0.49 1.32 0.29 1.71 0.96 1.68 2.87-0.11 15.96-2.88 17.98-10.22 7.54-21.31 10.18-32.07 2.62zm23.51-6.47c-0.6-3.16-2.56-5.32-5.66-5.26-3.42 0.06-5.34 2.49-5.34 5.85 0 3.05 1.84 4.69 4.98 4.75 3.76 0.08 5.12-2.45 6.02-5.34z"/>
			<path class="s13" d="m273.22 364.81q-7.49 0.09-14.99 0.18c-5.96-3.6-9.11-12.31-6.64-18.14 0.85-2.02 2.21-1.59 3.62-0.88 2.04 1.04 4.16 1.6 6.46 1.5 0.64 2.99 3.13 2.05 5.03 2.09 7.9 0.18 15.82 0.25 23.73 0.34-0.96 2.55 0.47 4.34 2.04 6.11-4.13 1.42-6.79 5.69-11.67 5.64-3.85-1.9-6.87-1.96-7.58 3.16zm-9.26-11.1c-0.36-2.52-2.09-3.22-4.44-3.08-2.6 0.15-3.61 1.64-3.53 4.01 0.08 2.42 1.34 3.88 3.89 3.59 2.57-0.29 3.88-1.99 4.08-4.52z"/>
			<path class="s14" d="m329.31 349.69c0.61 6.17-0.78 8.15-5.21 7.56-2.72-0.36-3.96-2.17-4.22-4.39-0.29-2.57 1.54-3.98 4.04-4.27 1.45-0.18 2.96 0.13 4.46 0.23q0.46 0.42 0.93 0.87z"/>
			<path class="s14" d="m292.46 356.01c-1.57-1.77-3.01-3.56-2.04-6.11 2.22-1.01 4.46-1.87 6.58 0.15 1.19 1.14 1.14 2.64 0.61 3.97-0.94 2.35-3.14 2.05-5.15 1.99z"/>
			<path class="s14" d="m273.22 364.81c0.71-5.12 3.73-5.06 7.57-3.16 0.36 2.1 0.16 3.87-2.21 4.9-2.44 1.04-3.8-0.53-5.36-1.74z"/>
			<path class="s14" d="m311.16 359.42c-0.37 1.4-1.26 2.21-2.79 2.01-1.49-0.18-2.42-1.15-2.2-2.58 0.25-1.61 1.69-1.69 3.05-1.55 1.28 0.13 2.04 0.77 1.94 2.12z"/>
			<path class="s14" d="m353.09 360.67c-0.9 2.89-2.26 5.42-6.02 5.34-3.13-0.06-4.98-1.7-4.98-4.75 0-3.36 1.92-5.78 5.34-5.85 3.09-0.07 5.06 2.09 5.66 5.26z"/>
			<path class="s14" d="m263.96 353.71c-0.2 2.53-1.51 4.23-4.08 4.52-2.56 0.3-3.81-1.17-3.89-3.59-0.08-2.37 0.93-3.86 3.53-4.01 2.35-0.14 4.07 0.56 4.44 3.08z"/>
		</g>
	</g>
</svg>