<svg width="469" height="468" viewBox="0 0 469 468" fill="none" xmlns="http://www.w3.org/2000/svg">
<g clip-path="url(#clip0_6_1890)">
<path d="M0.0907261 234.066C0.0907261 157.586 0.113383 81.1054 9.80338e-05 4.6252C9.80338e-05 1.15082 0.339953 0 4.48619 0C157.885 0.142482 311.285 0.131522 464.684 0.0328806C468.252 0.0328806 469.011 0.843934 469 4.24159C468.898 157.377 468.91 310.524 468.977 463.66C468.977 466.772 468.66 468 464.797 468C311.205 467.879 157.625 467.879 4.03304 467.989C0.623166 467.989 -0.0112305 467.288 -0.0112305 464.054C0.113383 387.388 0.0907261 310.721 0.0907261 234.066ZM362.546 376.011C363.996 375.671 365.106 374.882 365.933 373.699C366.307 373.381 366.681 373.074 367.055 372.756C367.497 372.35 367.927 371.956 368.369 371.55C369.989 370.63 371.088 369.314 371.666 367.583C372.175 366.739 372.685 365.884 373.195 365.04C374.566 363.012 375.166 360.787 374.974 358.365C376.661 347.504 375.846 336.576 375.767 325.671C375.687 314.349 367.814 305.373 356.463 302.381C346.879 299.86 337.42 299.553 327.79 302.107C312.565 306.14 297.475 304.408 282.318 301.186C271.295 298.851 260.601 300.309 250.904 306.414C244.979 310.151 241.614 315.445 241.388 322.284C241.184 328.455 241.444 334.647 241.501 340.829C241.388 345.169 241.195 349.509 241.173 353.861C241.093 368.339 250.054 377.863 265.132 379.409C268.032 380.614 271.069 380.505 274.105 380.22C279.225 380.867 284.334 380.242 289.205 378.992C301.859 375.748 314.332 376.307 327.065 378.762C339.028 381.064 351.274 383.146 362.58 375.989L362.546 376.011ZM220.634 145.847C219.592 143.283 218.55 140.718 217.507 138.142C216.896 136.049 216.533 133.846 215.604 131.895C213.452 127.368 214.426 124.595 219.773 123.806C223.319 123.434 226.876 123.105 230.422 122.688C238.658 121.724 240.006 120.277 240.074 112.473C240.096 109.733 240.074 107.004 240.074 104.264C240.062 95.8688 238.76 94.4439 229.923 94.4111C205.42 94.3124 180.916 94.3343 156.401 94.3563C151.236 94.3672 146.33 95.4632 142.048 98.4663C126.562 105.952 116.253 117.822 110.623 133.528C109.66 136.224 109.06 139.205 111.835 141.54C113.682 143.633 116.321 143.118 118.61 143.206C125.894 143.469 133.189 143.425 140.485 143.502C141.414 144.499 142.15 145.584 142.241 146.976C142.082 147.316 141.912 147.656 141.754 148.006C140.304 149.102 138.933 150.231 139.363 152.303C138.763 154.604 138.808 156.906 139.295 159.219C138.23 164.929 139.839 170.825 137.471 176.503C133.96 184.92 130.844 193.502 127.627 202.029C116.774 230.734 106.681 259.636 103.667 290.335C101.152 315.96 101.288 341.476 107.621 366.662C110.011 376.176 116.412 381.075 126.449 381.228C133.79 381.338 141.142 381.141 148.483 381.086C149.582 381.086 150.669 381.086 151.768 381.075C152.924 381.064 154.068 381.064 155.223 381.053C156.741 381.053 158.259 381.053 159.777 381.053C164.705 381.064 169.622 381.075 174.55 381.075C176.77 381.075 179.002 381.075 181.222 381.075C189.56 381.075 197.886 381.075 206.224 381.064C206.587 381.053 206.949 381.053 207.3 381.042C210.925 381.765 213.644 380.001 216.137 377.863C223.194 371.802 223.67 363.462 224.406 355.22C226.819 353.433 226.151 350.814 226.366 348.424C226.672 346.21 226.978 343.996 227.284 341.793C228.915 325.77 229.436 309.735 227.488 293.7C225.403 274.092 216.612 257.882 201.024 245.223C194.012 239.524 191.033 232.959 193.468 223.971C194.624 219.697 197.082 215.061 194.25 210.447C191.78 206.402 192.324 202.807 194.601 198.675C197.354 193.688 198.861 188.186 194.918 182.849C194.941 182.531 194.884 182.213 194.748 181.917C192.539 175.692 189.605 169.653 190.636 162.715C191.055 159.865 190.647 156.906 190.681 153.991C190.727 151.218 189.888 148.993 186.966 147.941C186.603 147.502 186.241 147.053 185.878 146.614C185.923 146.187 185.98 145.749 186.025 145.321C186.275 144.74 186.535 144.17 186.784 143.589C187.702 142.493 188.767 141.485 189.503 140.29C192.098 136.071 193.944 137.222 195.825 140.86C198.226 145.529 200.492 150.308 203.403 154.67C208.286 161.97 213.644 168.973 222.571 172.228C226.026 173.083 229.878 176.821 232.393 170.946C232.789 167.822 230.875 165.532 229.334 163.11C228.281 162.09 228.36 160.249 226.695 159.668C226.819 159.383 226.774 159.142 226.559 158.912C225.256 156.106 224.338 153.114 222.163 150.746C222.084 150.187 222.016 149.628 221.937 149.07C221.597 148.324 221.257 147.579 220.917 146.823C220.838 146.538 220.736 146.198 220.634 145.847Z" fill="#FEFEFE"/>
<path d="M224.395 355.274C223.658 363.516 223.183 371.857 216.125 377.918C213.633 380.055 210.914 381.82 207.289 381.097C206.915 380.581 206.552 380.614 206.213 381.119C197.875 381.119 189.548 381.119 181.211 381.129C178.99 379.803 176.758 379.803 174.538 381.129C169.61 381.119 164.694 381.108 159.766 381.108C160.253 378.784 162.156 379.201 163.799 379.19C167.005 379.157 170.211 379.266 173.405 379.135C174.742 379.08 177.03 379.924 177.144 377.929C177.28 375.693 174.923 375.923 173.292 375.912C164.252 375.869 155.212 375.858 146.171 375.923C144.631 375.934 142.105 375.2 142.071 377.502C142.037 379.858 144.608 378.828 146.092 379.201C149.106 379.946 152.889 377.348 155.212 381.108C154.056 381.119 152.912 381.119 151.756 381.129C150.658 380.001 149.57 380.012 148.471 381.14C141.13 381.195 133.778 381.393 126.437 381.283C116.4 381.13 110 376.23 107.609 366.717C101.265 341.53 101.141 316.015 103.656 290.39C106.669 259.691 116.763 230.789 127.615 202.084C130.844 193.557 133.948 184.975 137.46 176.558C139.827 170.891 138.208 164.984 139.284 159.273C139.306 156.972 139.329 154.659 139.352 152.357C138.921 150.286 140.303 149.157 141.742 148.061C142.263 147.875 142.558 147.59 142.229 147.031C142.15 145.639 141.402 144.554 140.485 143.556C140.02 140.849 137.811 141.485 136.055 141.485C127.978 141.474 119.912 141.551 111.835 141.595C109.059 139.271 109.648 136.279 110.623 133.583C116.253 117.877 126.562 106.007 142.048 98.5211C143.713 98.806 145.254 98.4553 146.862 97.9621C149.842 97.0414 150.839 98.6197 150.805 101.239C149.842 101.787 148.902 102.368 147.916 102.872C134.809 109.558 124.364 118.644 118.779 132.355C117.42 135.687 118.235 136.498 121.634 136.399C127.264 136.224 132.906 136.246 138.547 136.191C146.273 136.115 148.313 138.109 148.437 145.858C148.754 146.242 149.06 146.625 149.377 147.009L149.513 147.086C149.536 147.425 149.559 147.754 149.581 148.094C149.581 148.456 149.581 148.806 149.581 149.168C145.152 150.615 140.383 152.062 140.7 157.728C140.926 161.794 142.082 165.828 142.954 169.85C143.305 171.472 144.619 172.141 146.319 172.053C155.064 172.064 163.821 172.174 172.567 172.031C176.6 171.965 180.769 172.941 184.666 171.045C186.977 171.198 188.178 170.31 188.087 167.91C187.985 165.367 187.69 162.759 188.155 160.293C189.31 154.133 185.221 152.029 180.474 150.275C179.262 149.826 178.005 149.508 176.758 149.124C176.758 148.576 176.747 148.039 176.747 147.491C178.684 146.647 178.979 144.674 179.885 143.14C184.779 134.81 191.361 128.157 200.322 123.861C201.523 123.883 202.723 123.916 203.924 123.938L203.935 123.96C203.788 126.711 201.126 125.768 199.71 126.656C196.889 128.431 193.468 129.977 195.247 134.196C199.008 143.107 203.992 151.371 210.166 158.901C212.579 161.849 214.947 165.006 218.47 166.913C222.095 168.874 224.078 167.833 224.304 163.899C224.372 162.627 224.315 161.356 224.304 160.084C225.063 159.723 225.822 159.361 226.581 158.999C226.796 159.219 226.842 159.471 226.717 159.756C226.559 161.652 226.57 163.416 229.357 163.197C230.897 165.619 232.812 167.91 232.415 171.034C229.323 172.798 225.856 171.856 222.594 172.316C213.667 169.061 208.308 162.057 203.426 154.758C200.503 150.396 198.249 145.617 195.847 140.948C193.966 137.309 192.12 136.158 189.526 140.378C188.789 141.573 187.724 142.581 186.807 143.677C186.558 144.258 186.297 144.828 186.048 145.409C186.002 145.836 185.946 146.275 185.901 146.702C186.263 147.14 186.626 147.59 186.988 148.028C189.911 149.08 190.738 151.294 190.704 154.078C190.658 156.983 191.078 159.953 190.658 162.803C189.639 169.74 192.562 175.779 194.771 182.005C193.162 182.356 192.29 179.495 190.942 180.733C189.696 181.873 190.251 183.824 191.021 185.359C191.508 186.323 192.063 187.595 193.434 187.167C195.677 186.466 194.555 184.394 194.941 182.936C198.883 188.285 197.376 193.776 194.623 198.763C192.346 202.895 191.791 206.49 194.272 210.534C197.093 215.148 194.646 219.785 193.491 224.059C191.055 233.046 194.023 239.612 201.047 245.311C216.635 257.97 225.426 274.191 227.51 293.788C225.584 299.991 226.694 306.359 226.728 312.617C226.774 322.372 225.766 332.159 227.318 341.881C227.012 344.095 226.706 346.309 226.4 348.512C222.571 349.893 225.029 352.995 224.395 355.274ZM118.7 251.021C118.417 251.734 118.133 252.446 117.85 253.158C117.59 254.572 117.329 255.975 117.069 257.389C115.041 267.998 111.869 278.433 111.835 289.349C111.699 290.072 111.574 290.807 111.438 291.53C111.178 294.445 110.917 297.372 110.657 300.287C110.577 300.945 110.487 301.602 110.407 302.271C109.433 311.182 109.535 320.092 110.385 329.014C110.147 330.439 110.147 331.831 110.849 333.157C111.053 335.798 111.268 338.429 111.472 341.07C111.574 341.728 111.676 342.385 111.778 343.043C111.925 346.298 111.687 349.619 112.288 352.786C113.738 360.327 113.092 368.799 121.181 373.731C121.396 374.236 121.543 374.86 122.348 374.367C145.378 374.301 168.398 374.904 191.429 374.071C196.119 374.214 200.82 374.334 205.51 374.521C210.801 374.729 214.108 372.372 215.196 367.374C216.646 360.733 217.926 354.047 219.286 347.383C219.727 343.744 220.181 340.116 220.622 336.478C221.631 328.795 222.186 321.09 221.619 313.341C221.563 310.831 221.506 308.332 221.461 305.822C221.608 296.999 220.226 288.352 216.997 280.153C212.466 268.612 206.099 258.2 195.96 250.166C187.226 243.261 183.216 234.373 186.943 223.5C188.427 219.171 188.336 215.411 185.753 211.685C182.525 207.016 183.023 202.928 186.761 198.467C191.961 192.253 190.239 183.419 183.522 178.498C183.193 176.525 181.664 176.525 180.1 176.525C169.565 176.525 159.029 176.525 148.494 176.525C146.942 176.525 145.401 176.514 145.073 178.487C140.077 188.833 136.486 199.684 132.747 210.49C129.258 219.982 125.78 229.473 122.291 238.965C120.399 239.414 117.76 237.814 116.819 240.883C115.936 243.765 118.609 244.237 120.116 245.508C119.64 247.328 119.176 249.169 118.7 251.021ZM107.496 290.05C106.624 292.451 105.751 293.985 105.513 295.618C104.539 302.435 103.837 309.285 104.313 316.179C104.415 317.648 103.395 320.18 105.513 320.333C108.142 320.531 107.587 317.856 107.632 316.179C107.824 309.855 107.269 303.509 108.674 297.218C109.116 295.3 109.342 292.988 107.496 290.05Z" fill="#1E1837"/>
<path d="M241.512 340.829C241.456 334.647 241.195 328.455 241.399 322.284C241.626 315.456 244.979 310.151 250.915 306.414C260.601 300.298 271.295 298.841 282.329 301.186C297.486 304.397 312.576 306.14 327.801 302.107C337.419 299.553 346.879 299.86 356.474 302.381C367.825 305.373 375.698 314.349 375.778 325.671C375.857 336.566 376.661 347.504 374.985 358.365C372.515 352.688 374.475 346.726 373.795 340.928C373.603 339.251 374.498 336.083 372.832 336.215C370.193 336.412 366.33 334.626 364.766 338.637H364.755C362.954 338.801 360.62 337.903 360.201 340.796C358.921 340.982 357.55 340.95 356.383 341.399C349.031 344.249 341.622 343.47 334.179 341.925C338.767 339.558 343.695 341.421 348.431 340.818C350.3 340.577 352.781 341.706 353.461 338.747C359.793 338.012 364.449 334.658 368.165 329.869C368.312 329.77 368.607 329.639 368.595 329.573C368.527 329.288 368.369 329.014 368.244 328.74C368.233 325.463 368.222 322.186 368.21 318.898C370.793 314.777 369.003 312.124 365.084 310.173C362.943 309.11 360.824 308.003 358.683 306.94C349.756 302.545 339.934 302.161 330.781 304.178C324.256 305.614 317.481 305.373 311.069 307.685C307.943 308.814 303.774 308.529 300.443 307.62C290.553 304.902 280.618 303.247 270.298 303.488C261.383 303.696 254.268 306.929 248.763 313.79C246.769 316.278 246.134 318.459 248.105 321.079C248.105 323.271 248.105 325.452 248.105 327.644C246.384 329.299 247.72 329.606 249.159 329.858C249.216 330.209 249.238 330.559 249.25 330.91C249.42 334.428 251.289 336.281 254.948 336.368C255.31 336.357 255.673 336.379 256.024 336.423C256.013 337.157 256.001 337.892 255.99 338.626C253.351 338.615 250.711 338.604 248.083 338.604C245.885 339.371 243.699 340.095 241.512 340.829Z" fill="#231E3F"/>
<path d="M219.773 123.817C214.426 124.606 213.451 127.379 215.604 131.906C216.533 133.857 216.884 136.06 217.507 138.153C217.122 138.175 216.737 138.197 216.351 138.219C213.882 136.717 213.145 134.394 212.964 131.741C212.454 124.135 212.352 124.069 203.935 123.927L203.924 123.905C203.924 123.225 203.935 122.546 203.935 121.866C207.787 119.992 211.684 118.195 215.898 117.186C218.526 113.043 218.198 104.703 215.309 102.028C215.026 101.897 214.947 101.7 215.083 101.415C213.916 98.8719 211.537 99.8583 209.668 99.8583C191.893 99.7816 174.13 99.8035 156.356 99.7925C156.163 95.4961 159.494 96.5483 161.884 96.5483C183.125 96.4935 204.366 96.6031 225.595 96.4935C240.515 96.4168 237.785 97.1182 237.887 108.177C237.989 119.225 235.791 121.307 224.225 121.746C222.469 121.812 220.26 121.132 219.773 123.817ZM233.401 109.679C233.401 108.703 233.367 107.969 233.412 107.234C233.639 103.65 233.435 100.801 228.28 100.812C223.069 100.823 223.069 103.793 223.205 107.311C223.284 109.317 223.058 111.345 223.33 113.317C223.851 117.022 229.017 119.006 231.973 116.649C234.409 114.709 232.97 111.849 233.401 109.679Z" fill="#1E1837"/>
<path d="M203.935 123.916C212.352 124.069 212.454 124.135 212.964 131.73C213.145 134.394 213.882 136.706 216.351 138.208C216.771 141.288 217.235 144.324 220.634 145.836C220.736 146.176 220.838 146.527 220.939 146.866C219.161 148.521 220.475 148.85 221.959 149.113C222.038 149.672 222.106 150.231 222.186 150.79C222.14 152.051 222.095 153.311 222.038 154.571C222.004 156.183 222.05 157.739 224.281 157.914C224.281 158.627 224.293 159.328 224.293 160.041C224.293 161.312 224.361 162.583 224.293 163.855C224.077 167.778 222.084 168.82 218.459 166.869C214.924 164.962 212.568 161.805 210.155 158.857C203.981 151.327 198.996 143.063 195.235 134.153C193.457 129.933 196.878 128.388 199.699 126.612C201.126 125.724 203.788 126.678 203.935 123.916ZM208.659 142.438C207.968 139.764 207.085 136.476 206.269 133.177C205.884 131.588 206.643 129.001 203.505 129.801C201.341 130.349 198.724 131.489 199.597 134.153C200.82 137.857 201.613 141.88 204.626 144.828C205.385 145.573 206.122 146.735 207.334 146.373C209.045 145.891 208.286 144.291 208.659 142.438Z" fill="#182050"/>
<path d="M362.603 375.989C351.297 383.146 339.051 381.064 327.088 378.762C314.354 376.318 301.882 375.748 289.228 378.992C284.357 380.242 279.247 380.878 274.127 380.22C274.354 378.291 275.758 377.929 277.378 378.072C282.544 378.543 287.347 376.844 292.298 375.88C302.482 373.907 313.278 375.704 323.1 371.342C327.382 371.244 331.676 371.079 335.788 372.592C346.256 376.428 354.978 372.471 363.362 366.903C364.041 369.227 362.795 370.564 361.017 371.934C360.008 372.712 357.992 373.622 358.943 375.233C359.34 375.924 361.322 375.759 362.603 375.989Z" fill="#1F1425"/>
<path d="M219.773 123.817C220.26 121.132 222.469 121.811 224.225 121.746C235.802 121.307 238 119.214 237.887 108.177C237.785 97.1182 240.504 96.4167 225.595 96.4934C204.355 96.603 183.114 96.5044 161.884 96.5482C159.482 96.5592 156.163 95.496 156.356 99.7924C156.356 100.187 156.367 100.582 156.367 100.976C154.52 101.053 152.663 101.13 150.816 101.217C150.85 98.5978 149.842 97.0195 146.874 97.9402C145.276 98.4334 143.724 98.7841 142.059 98.4991C146.341 95.496 151.247 94.3891 156.412 94.3891C180.916 94.3562 205.419 94.3452 229.934 94.4439C238.771 94.4767 240.073 95.9016 240.085 104.297C240.085 107.037 240.107 109.766 240.085 112.506C240.028 120.31 238.669 121.757 230.433 122.721C226.887 123.116 223.33 123.445 219.773 123.817Z" fill="#231E3F"/>
<path d="M241.512 340.829C243.698 340.095 245.885 339.36 248.06 338.626C246.202 344.27 247.233 350.068 247.018 355.801C246.961 357.324 247.777 358.124 249.295 358.343C250.858 361.094 252.41 363.834 253.973 366.585C254.461 370.4 256.919 371.693 260.589 371.441L260.578 371.43C260.952 374.071 262.832 373.633 264.668 373.293L265.143 373.403C265.143 375.397 265.155 377.392 265.155 379.387C250.076 377.842 241.116 368.317 241.195 353.839C241.206 349.52 241.399 345.169 241.512 340.829Z" fill="#1F1425"/>
<path d="M265.143 379.409C265.143 377.414 265.132 375.419 265.132 373.425C271.702 374.477 278.284 374.071 284.606 372.383C296.376 369.238 308.361 370.564 320.256 370.093C321.355 370.049 322.533 370.104 323.088 371.342C313.267 375.704 302.482 373.907 292.286 375.88C287.336 376.833 282.544 378.543 277.367 378.072C275.735 377.929 274.342 378.291 274.115 380.22C271.079 380.505 268.043 380.615 265.143 379.409Z" fill="#372C27"/>
<path d="M362.602 375.989C361.334 375.759 359.351 375.934 358.932 375.233C357.992 373.622 359.997 372.712 361.005 371.934C362.784 370.564 364.03 369.227 363.35 366.903L363.373 366.925C366.681 367.473 368.912 365.38 368.992 362.947C369.184 357.423 370.487 351.756 368.255 346.309C367.349 344.161 369.332 341.486 366.93 339.612C366.205 339.283 365.469 338.955 364.743 338.637C366.307 334.625 370.181 336.412 372.809 336.215C374.486 336.083 373.58 339.251 373.772 340.928C374.452 346.715 372.492 352.677 374.962 358.365C375.154 360.787 374.554 363.012 373.183 365.04C371.767 365.38 371.597 366.421 371.665 367.583C371.087 369.314 369.989 370.641 368.369 371.55C367.927 371.956 367.496 372.35 367.055 372.756C366.681 373.074 366.307 373.381 365.933 373.698C364.222 373.677 362.489 373.611 362.546 376.011L362.602 375.989Z" fill="#1E1837"/>
<path d="M155.223 381.097C152.89 377.326 149.117 379.935 146.104 379.19C144.608 378.817 142.037 379.847 142.082 377.491C142.116 375.189 144.642 375.924 146.183 375.913C155.223 375.847 164.263 375.858 173.303 375.902C174.923 375.913 177.28 375.682 177.155 377.918C177.031 379.913 174.754 379.069 173.417 379.124C170.222 379.255 167.016 379.146 163.81 379.179C162.168 379.201 160.264 378.773 159.777 381.097C158.259 381.097 156.741 381.097 155.223 381.097Z" fill="#231E3F"/>
<path d="M227.284 341.848C225.743 332.127 226.74 322.339 226.695 312.585C226.672 306.315 225.551 299.958 227.476 293.755C229.425 309.79 228.915 325.813 227.284 341.848Z" fill="#231E3F"/>
<path d="M111.846 141.562C119.923 141.518 127.989 141.452 136.067 141.452C137.822 141.452 140.031 140.828 140.496 143.524C133.2 143.447 125.905 143.48 118.621 143.228C116.321 143.151 113.681 143.655 111.846 141.562Z" fill="#1F1425"/>
<path d="M194.929 182.893C194.544 184.361 195.666 186.422 193.423 187.123C192.052 187.551 191.497 186.279 191.01 185.315C190.228 183.78 189.684 181.83 190.93 180.69C192.29 179.451 193.151 182.312 194.759 181.961C194.895 182.268 194.952 182.575 194.929 182.893Z" fill="#231E3F"/>
<path d="M222.039 154.572C222.084 153.311 222.129 152.051 222.186 150.79C224.361 153.158 225.279 156.15 226.581 158.956C225.822 159.317 225.063 159.679 224.304 160.041C224.304 159.328 224.293 158.627 224.293 157.914C224.338 156.303 223.568 155.207 222.039 154.572Z" fill="#231E3F"/>
<path d="M222.582 172.283C225.856 171.812 229.322 172.755 232.404 171.001C229.9 176.865 226.037 173.138 222.582 172.283Z" fill="#231E3F"/>
<path d="M220.634 145.847C217.235 144.335 216.771 141.288 216.352 138.219C216.737 138.197 217.122 138.175 217.507 138.153C218.549 140.718 219.592 143.282 220.634 145.847Z" fill="#231E3F"/>
<path d="M224.395 355.275C225.029 353.006 222.571 349.904 226.355 348.479C226.151 350.858 226.819 353.488 224.395 355.275Z" fill="#231E3F"/>
<path d="M229.357 163.153C226.57 163.373 226.559 161.608 226.717 159.712C228.383 160.304 228.303 162.134 229.357 163.153Z" fill="#231E3F"/>
<path d="M139.352 152.336C139.329 154.637 139.306 156.95 139.284 159.252C138.808 156.939 138.751 154.626 139.352 152.336Z" fill="#231E3F"/>
<path d="M174.538 381.119C176.758 379.803 178.99 379.793 181.211 381.119C178.99 381.119 176.77 381.119 174.538 381.119Z" fill="#372C27"/>
<path d="M362.546 376.011C362.489 373.611 364.222 373.677 365.933 373.699C365.106 374.882 363.996 375.682 362.546 376.011Z" fill="#1F1425"/>
<path d="M221.959 149.124C220.475 148.861 219.161 148.532 220.94 146.877C221.279 147.634 221.619 148.379 221.959 149.124Z" fill="#231E3F"/>
<path d="M148.494 381.119C149.581 379.99 150.68 379.979 151.779 381.108C150.68 381.119 149.581 381.119 148.494 381.119Z" fill="#372C27"/>
<path d="M371.665 367.594C371.609 366.421 371.767 365.38 373.183 365.051C372.685 365.895 372.175 366.739 371.665 367.594Z" fill="#1F1425"/>
<path d="M142.241 147.009C142.569 147.568 142.275 147.853 141.753 148.039C141.912 147.689 142.071 147.349 142.241 147.009Z" fill="#231E3F"/>
<path d="M367.055 372.767C367.496 372.361 367.927 371.967 368.369 371.561C367.927 371.956 367.496 372.361 367.055 372.767Z" fill="#1F1425"/>
<path d="M206.212 381.119C206.564 380.604 206.915 380.582 207.289 381.097C206.937 381.097 206.575 381.108 206.212 381.119Z" fill="#231E3F"/>
<path d="M132.747 210.458C136.474 199.651 140.077 188.8 145.073 178.454C157.885 178.454 170.709 178.465 183.522 178.465C190.251 183.386 191.973 192.22 186.761 198.434C183.023 202.895 182.525 206.983 185.753 211.652C188.336 215.39 188.427 219.149 186.943 223.467C183.216 234.34 187.226 243.229 195.96 250.133C206.099 258.156 212.466 268.579 216.997 280.121C220.215 288.319 221.608 296.966 221.449 305.789C218.98 306.074 217.552 303.334 215.207 303.63C211.106 304.145 210.211 301.679 210.472 298.742C210.835 294.511 208.92 290.796 208.036 286.883C207.493 284.472 207.515 282.466 209.045 280.778C211.435 278.159 210.642 276.153 208.206 274.334C204.377 271.473 200.152 269.029 199.144 263.845C198.94 262.782 197.75 261.949 196.549 262.047C192.992 262.354 191.27 259.811 188.982 257.959C180.553 251.142 172.725 243.777 161.499 240.675C150.034 237.496 136.678 241.924 131.365 252.161C125.259 263.932 124.33 276.876 122.393 289.568C121.577 294.917 122.291 300.791 120.207 305.581C117.499 311.817 116.785 317.089 120.241 323.095C122.37 326.8 122.019 332.083 120.49 334.965C118.949 337.859 118.462 344.435 111.755 342.999C111.654 342.342 111.552 341.684 111.45 341.026C114.112 338.177 115.086 335.459 110.827 333.113C110.124 331.787 110.124 330.395 110.362 328.97C114.078 326.318 112.197 322.131 112.82 318.832C113.84 313.352 113.443 307.455 110.396 302.238C110.475 301.581 110.566 300.923 110.645 300.254C114.859 297.613 115.109 294.796 111.427 291.497C111.563 290.774 111.688 290.04 111.823 289.316C113.636 289.185 116.083 289.612 115.233 286.587C114.168 282.74 115.449 279.046 116.128 275.43C120.059 254.375 126.041 233.858 134.684 214.129C135.681 211.904 136.293 210.271 132.747 210.458Z" fill="#ECEBF2"/>
<path d="M150.816 101.206C152.663 101.13 154.521 101.053 156.367 100.965C158.429 101.042 160.491 101.174 162.564 101.185C180.066 101.272 197.58 101.338 215.083 101.404C214.947 101.678 215.026 101.886 215.309 102.018C216.159 107.048 216.419 112.101 215.898 117.175C211.684 118.195 207.798 119.992 203.935 121.855C202.542 122.184 201.239 122.677 200.322 123.817C191.361 128.114 184.779 134.767 179.885 143.096C178.979 144.642 178.684 146.604 176.747 147.447C168.058 147.404 159.369 147.36 150.68 147.305C150.295 147.217 149.91 147.119 149.513 147.031L149.377 146.954C149.06 146.571 148.754 146.187 148.437 145.803C148.313 138.066 146.285 136.071 138.547 136.137C132.906 136.191 127.264 136.169 121.634 136.345C118.235 136.454 117.42 135.632 118.779 132.301C124.364 118.589 134.82 109.514 147.916 102.818C148.913 102.335 149.853 101.754 150.816 101.206Z" fill="#ECEBF2"/>
<path d="M111.778 343.021C118.485 344.457 118.972 337.881 120.513 334.987C122.053 332.105 122.393 326.833 120.263 323.117C116.82 317.111 117.522 311.828 120.229 305.603C122.314 300.813 121.6 294.939 122.416 289.59C124.353 276.887 125.282 263.954 131.388 252.183C136.701 241.946 150.057 237.518 161.522 240.697C172.748 243.809 180.576 251.175 189.005 257.981C191.293 259.833 193.015 262.376 196.572 262.069C197.773 261.96 198.951 262.803 199.166 263.867C200.186 269.04 204.411 271.495 208.229 274.355C210.653 276.175 211.458 278.17 209.067 280.8C207.538 282.488 207.515 284.494 208.059 286.905C208.943 290.818 210.857 294.533 210.495 298.764C210.234 301.701 211.129 304.178 215.23 303.652C217.575 303.356 219.003 306.096 221.472 305.811C221.529 308.321 221.585 310.82 221.631 313.33C217.915 313.626 212.681 312.256 212.319 317.604C211.934 323.227 213.316 328.948 215.377 334.341C216.261 336.664 218.572 336.456 220.634 336.456C220.192 340.095 219.739 343.723 219.297 347.361C215.921 347.92 211.866 345.882 209.226 348.72C206.031 352.173 206.519 348.435 205.578 347.383C207.448 328.981 208.705 310.678 205.476 292.155C204.083 284.143 201.375 277.885 194.85 273.062C191.78 270.837 189.22 268.141 187.011 265.127C183.091 261.225 179.092 257.389 175.263 253.411C169.395 247.306 162.768 243.897 153.614 244.226C136.452 244.84 133.574 250.024 130.686 261.017C123.311 289.075 121.204 317.396 125.452 346.068C127.298 358.552 129.349 360.031 142.547 360.174C158.928 360.36 175.309 360.459 191.69 360.59C191.848 364.076 191.134 366.662 186.501 366.103C185.187 365.95 182.661 365.193 183.091 368.076C183.352 369.841 183.93 371.518 186.512 371.55C188.438 371.572 191.384 370.378 191.452 374.06C168.432 374.904 145.401 374.29 122.37 374.356C121.985 374.148 121.589 373.929 121.204 373.721C113.115 368.788 113.761 360.316 112.311 352.776C111.676 349.597 111.926 346.276 111.778 343.021ZM128.703 371.529C135.16 371.496 140.53 371.233 145.231 368.098C146.002 367.583 146.874 367.09 146.727 366.037C146.613 365.15 145.775 364.996 145.027 364.974C138.763 364.744 132.555 362.563 126.177 364.755C124.489 365.336 122.336 366.673 120.411 364.744C119.89 364.229 119.108 363.889 118.451 364.569C117.669 365.369 118.032 366.268 118.541 367.046C121.204 371.013 125.033 372.274 128.703 371.529Z" fill="#E9EFF7"/>
<path d="M184.666 171.012C180.78 172.908 176.611 171.933 172.567 171.998C163.822 172.141 155.065 172.02 146.319 172.02C145.855 167.91 144.744 163.877 145.005 159.657C145.164 157.071 145.707 155.602 148.789 155.646C158.712 155.766 168.647 155.613 178.571 155.766C182.763 155.832 185.13 157.838 184.734 162.32C184.485 165.203 184.677 168.118 184.666 171.012Z" fill="#244879"/>
<path d="M191.417 374.049C191.35 370.367 188.415 371.561 186.478 371.539C183.895 371.507 183.318 369.83 183.057 368.065C182.627 365.183 185.153 365.939 186.467 366.092C191.1 366.651 191.814 364.065 191.655 360.579C202.927 358.464 203.244 358.157 205.555 347.372C206.496 348.424 206.009 352.151 209.203 348.709C211.831 345.871 215.898 347.92 219.274 347.35C217.915 354.014 216.635 360.7 215.185 367.342C214.097 372.34 210.789 374.696 205.499 374.488C200.809 374.312 196.119 374.192 191.417 374.049Z" fill="#DEE4F2"/>
<path d="M184.666 171.012C184.677 168.107 184.485 165.192 184.734 162.32C185.13 157.838 182.763 155.832 178.571 155.766C168.647 155.613 158.712 155.755 148.789 155.646C145.707 155.613 145.163 157.07 145.005 159.657C144.744 163.877 145.855 167.91 146.319 172.02C144.62 172.108 143.306 171.428 142.954 169.806C142.082 165.784 140.927 161.75 140.7 157.684C140.383 152.018 145.152 150.571 149.582 149.124C158.644 149.113 167.696 149.102 176.759 149.102C177.993 149.486 179.262 149.804 180.474 150.253C185.221 152.007 189.311 154.111 188.155 160.271C187.691 162.737 187.997 165.345 188.087 167.888C188.178 170.277 186.977 171.165 184.666 171.012Z" fill="#182050"/>
<path d="M132.747 210.458C136.293 210.271 135.681 211.904 134.696 214.151C126.052 233.88 120.071 254.397 116.14 275.452C115.46 279.057 114.18 282.762 115.245 286.609C116.083 289.645 113.636 289.207 111.835 289.338C111.88 278.422 115.041 267.988 117.069 257.378C117.341 255.975 117.59 254.561 117.85 253.148C118.632 252.621 118.881 251.898 118.7 251.01C119.164 249.158 119.64 247.317 120.105 245.464C120.83 243.283 121.555 241.102 122.291 238.921C125.78 229.441 129.258 219.949 132.747 210.458Z" fill="#E9EFF7"/>
<path d="M220.622 336.456C218.56 336.456 216.249 336.664 215.366 334.34C213.304 328.948 211.922 323.227 212.307 317.604C212.67 312.256 217.915 313.626 221.619 313.33C222.186 321.068 221.63 328.773 220.622 336.456Z" fill="#DEE4F2"/>
<path d="M107.496 290.05C109.342 292.999 109.116 295.3 108.685 297.218C107.269 303.52 107.824 309.855 107.643 316.179C107.598 317.867 108.153 320.531 105.525 320.333C103.406 320.18 104.426 317.659 104.324 316.179C103.859 309.285 104.55 302.435 105.525 295.618C105.751 293.985 106.624 292.44 107.496 290.05Z" fill="#231E3F"/>
<path d="M183.522 178.465C170.709 178.465 157.885 178.454 145.073 178.454C145.401 176.481 146.942 176.492 148.494 176.492C159.029 176.503 169.565 176.503 180.1 176.492C181.652 176.492 183.193 176.492 183.522 178.465Z" fill="#1F1425"/>
<path d="M110.407 302.26C113.455 307.477 113.851 313.374 112.832 318.854C112.22 322.164 114.1 326.351 110.373 328.992C109.535 320.081 109.433 311.171 110.407 302.26Z" fill="#E9EFF7"/>
<path d="M176.759 149.091C167.696 149.102 158.644 149.113 149.582 149.113C149.582 148.763 149.582 148.401 149.582 148.039C149.944 147.798 150.307 147.557 150.669 147.316C159.358 147.36 168.047 147.404 176.736 147.458C176.747 148.006 176.747 148.554 176.759 149.091Z" fill="#1F1425"/>
<path d="M122.291 238.932C121.566 241.113 120.841 243.294 120.104 245.475C118.598 244.204 115.924 243.733 116.808 240.85C117.759 237.781 120.399 239.382 122.291 238.932Z" fill="#231E3F"/>
<path d="M111.438 291.519C115.12 294.807 114.871 297.635 110.657 300.276C110.917 297.361 111.178 294.445 111.438 291.519Z" fill="#E9EFF7"/>
<path d="M110.849 333.146C115.109 335.48 114.134 338.209 111.472 341.059C111.257 338.418 111.053 335.776 110.849 333.146Z" fill="#E9EFF7"/>
<path d="M200.311 123.828C201.239 122.688 202.531 122.195 203.924 121.866C203.924 122.546 203.913 123.225 203.913 123.905C202.724 123.872 201.511 123.85 200.311 123.828Z" fill="#231E3F"/>
<path d="M118.7 251.021C118.881 251.909 118.632 252.632 117.85 253.158C118.133 252.435 118.417 251.734 118.7 251.021Z" fill="#231E3F"/>
<path d="M148.437 145.814C148.754 146.198 149.06 146.582 149.377 146.965C149.071 146.593 148.754 146.198 148.437 145.814Z" fill="#231E3F"/>
<path d="M121.181 373.709C121.566 373.918 121.962 374.137 122.347 374.345C121.543 374.849 121.396 374.214 121.181 373.709Z" fill="#DEE4F2"/>
<path d="M150.68 147.327C150.318 147.568 149.955 147.809 149.593 148.05C149.57 147.722 149.548 147.382 149.525 147.042C149.899 147.141 150.284 147.228 150.68 147.327Z" fill="#231E3F"/>
<path d="M248.083 321.112C246.123 318.492 246.746 316.322 248.74 313.823C254.246 306.962 261.36 303.729 270.275 303.521C280.596 303.279 290.531 304.934 300.421 307.653C303.751 308.562 307.92 308.847 311.047 307.718C317.459 305.395 324.244 305.647 330.758 304.211C339.912 302.194 349.734 302.578 358.66 306.973C360.802 308.025 362.92 309.143 365.061 310.206C368.981 312.157 370.771 314.81 368.188 318.92C359.023 308.08 345.259 304.025 334.066 308.858C331.449 309.286 328.844 309.702 326.227 310.129C317.957 311.193 309.631 311.379 301.304 311.302C300.557 311.28 299.809 311.258 299.061 311.247C292.661 310.042 286.43 307.97 279.825 307.905C274.909 305.68 270.004 307.247 265.087 307.948C264.158 307.937 263.331 308.135 262.81 308.979C259.377 310.184 256.307 311.927 253.759 314.492C250.621 315.708 249.794 318.755 248.083 321.112Z" fill="#182050"/>
<path d="M364.744 338.637C365.469 338.966 366.205 339.295 366.93 339.612C362.002 343.942 355.715 345.904 349.53 346.09C341.124 346.342 332.616 345.235 324.414 342.933C311.454 339.295 298.721 340.511 286.022 344.238C281.83 345.465 277.548 346.123 273.051 346.32C265.563 346.66 259.196 343.997 252.863 340.95C249.454 339.317 248.638 340.303 248.819 343.591C249.091 348.501 249.148 353.422 249.295 358.343C247.777 358.124 246.961 357.313 247.018 355.801C247.233 350.069 246.214 344.26 248.06 338.626C250.7 338.637 253.339 338.648 255.967 338.648C257.485 341.585 260.34 340.599 262.787 340.829C262.991 342.002 263.546 342.901 264.906 342.911C270.298 342.933 275.702 342.933 281.094 342.901C282.453 342.89 282.997 341.98 283.19 340.807C285.229 340.643 287.257 340.972 289.296 340.27C295.493 338.144 301.735 336.324 308.486 336.313C311.692 336.313 313.663 339.141 316.937 338.615C323.043 337.629 328.413 340.752 334.134 341.903C341.577 343.449 348.986 344.227 356.338 341.377C357.505 340.928 358.876 340.961 360.156 340.774C362.104 340.906 363.849 340.632 364.71 338.615L364.744 338.637Z" fill="#372C27"/>
<path d="M334.066 308.858C345.27 304.025 359.023 308.08 368.188 318.919C368.199 322.197 368.21 325.474 368.222 328.762C368.188 329.134 368.165 329.507 368.142 329.88C364.415 334.669 359.77 338.023 353.438 338.746C342.132 340.785 331.313 338.352 320.562 335.349C326.227 332.74 331.959 333.88 337.499 335.491C339.345 336.028 341.339 337.015 342.789 336.116C345.315 334.538 347.955 334.483 350.708 334.077C356.247 333.266 362.297 327.896 362.489 324.104C362.886 316.464 356.927 310.557 348.85 310.064C343.911 309.757 338.779 311.598 334.066 308.858Z" fill="#244879"/>
<path d="M320.54 335.349C331.291 338.352 342.109 340.785 353.415 338.747C352.735 341.706 350.254 340.577 348.385 340.818C343.661 341.421 338.722 339.558 334.134 341.925C328.402 340.774 323.032 337.651 316.937 338.637C313.663 339.163 311.692 336.324 308.486 336.335C301.734 336.335 295.504 338.155 289.296 340.292C287.257 340.993 285.217 340.665 283.19 340.829C276.393 340.829 269.584 340.84 262.787 340.84C260.34 340.61 257.485 341.585 255.967 338.659C255.979 337.925 255.99 337.19 256.001 336.456C256.76 336.456 257.519 336.456 258.278 336.456C258.618 336.5 258.958 336.522 259.298 336.511C260.114 337.881 261.314 338.637 262.957 338.615C270.955 338.484 279.055 339.634 286.905 337.289C297.226 334.198 307.671 333.234 318.319 335.305C319.067 335.316 319.803 335.327 320.54 335.349Z" fill="#182050"/>
<path d="M258.29 336.456C257.531 336.456 256.772 336.456 256.013 336.456C255.65 336.412 255.299 336.39 254.937 336.401C253.419 334.209 251.515 332.379 249.238 330.943C249.227 330.592 249.193 330.241 249.148 329.891C249.193 328.981 249.001 328.17 248.094 327.677C248.094 325.485 248.094 323.304 248.094 321.112C249.805 318.766 250.632 315.719 253.747 314.492C254.189 322.021 251.651 330.121 258.29 336.456Z" fill="#244879"/>
<path d="M249.227 330.932C251.515 332.379 253.407 334.198 254.925 336.39C251.266 336.302 249.397 334.45 249.227 330.932Z" fill="#182050"/>
<path d="M364.732 338.637C363.871 340.654 362.127 340.928 360.178 340.796C360.597 337.903 362.942 338.801 364.732 338.637Z" fill="#1E1837"/>
<path d="M248.083 327.666C248.989 328.159 249.182 328.97 249.136 329.88C247.698 329.628 246.372 329.321 248.083 327.666Z" fill="#182050"/>
<path d="M368.131 329.88C368.154 329.507 368.188 329.134 368.21 328.762C368.335 329.036 368.493 329.299 368.561 329.595C368.584 329.65 368.289 329.781 368.131 329.88Z" fill="#182050"/>
<path d="M233.401 109.679C232.97 111.849 234.409 114.709 231.973 116.649C229.005 119.017 223.851 117.022 223.33 113.317C223.047 111.345 223.285 109.306 223.205 107.311C223.058 103.793 223.069 100.834 228.28 100.812C233.435 100.801 233.639 103.64 233.412 107.234C233.367 107.958 233.401 108.692 233.401 109.679Z" fill="#244879"/>
<path d="M215.083 101.415C197.58 101.349 180.067 101.283 162.564 101.195C160.502 101.184 158.44 101.053 156.367 100.976C156.367 100.582 156.356 100.187 156.356 99.7924C174.13 99.8034 191.893 99.7815 209.668 99.8582C211.537 99.8582 213.916 98.8718 215.083 101.415Z" fill="#1F1425"/>
<path d="M215.887 117.175C216.408 112.101 216.147 107.048 215.298 102.017C218.198 104.692 218.515 113.032 215.887 117.175Z" fill="#1F1425"/>
<path d="M208.66 142.439C208.275 144.291 209.045 145.891 207.346 146.384C206.133 146.735 205.397 145.573 204.638 144.839C201.613 141.891 200.832 137.868 199.608 134.164C198.725 131.5 201.353 130.361 203.517 129.813C206.655 129.012 205.896 131.588 206.281 133.188C207.085 136.487 207.969 139.764 208.66 142.439Z" fill="#244879"/>
<path d="M222.038 154.572C223.568 155.196 224.338 156.303 224.281 157.914C222.05 157.739 222.016 156.183 222.038 154.572Z" fill="#1E1837"/>
<path d="M249.306 358.354C249.159 353.433 249.102 348.512 248.83 343.602C248.649 340.314 249.465 339.327 252.875 340.96C259.207 343.996 265.574 346.66 273.062 346.331C277.559 346.134 281.83 345.476 286.033 344.248C298.732 340.522 311.477 339.305 324.425 342.944C332.627 345.246 341.135 346.364 349.541 346.101C355.726 345.914 362.013 343.953 366.941 339.623C369.343 341.487 367.36 344.172 368.267 346.32C367.338 353.345 369.468 361.061 363.373 366.936L363.35 366.914C354.967 372.482 346.244 376.439 335.777 372.602C331.676 371.101 327.371 371.254 323.089 371.353C322.534 370.104 321.355 370.06 320.257 370.104C308.362 370.575 296.376 369.26 284.606 372.394C278.284 374.082 271.703 374.488 265.132 373.435L264.656 373.326C263.297 372.701 261.937 372.076 260.578 371.452L260.589 371.463C258.38 369.841 256.182 368.218 253.973 366.607C252.421 363.845 250.858 361.105 249.306 358.354ZM258.233 364.985C259.388 368.536 262.119 369.424 265.653 369.336C275.701 369.084 285.648 368.898 295.719 367.462C306.776 365.895 318.274 367.133 329.569 367.144C340.342 374.685 351.421 372.055 361.64 364.536C364.404 362.508 366.194 349.422 364.517 346.55C364.132 345.882 363.327 345.103 362.806 345.586C359.125 348.983 353.868 346.002 350.05 348.633C343.197 350.101 336.218 349.279 329.308 349.674C329.002 349.389 328.685 349.093 328.379 348.808C325.116 346.353 321.593 344.818 317.277 345.158C314.536 345.366 312.009 344.84 309.268 343.646C305.801 342.144 301.451 342.396 297.713 343.569C291.256 345.597 284.889 347.635 277.979 347.449C272.541 347.306 267.103 347.449 261.665 347.46C259.366 347.548 257.247 346.989 255.208 345.958C253.815 345.246 252.455 344.818 251.594 346.835C249.113 352.677 252.263 361.39 258.233 364.985Z" fill="#E1C18C"/>
<path d="M253.974 366.596C256.183 368.219 258.38 369.841 260.589 371.452C256.919 371.693 254.461 370.411 253.974 366.596Z" fill="#372C27"/>
<path d="M260.578 371.452C261.938 372.076 263.297 372.701 264.656 373.326C262.832 373.655 260.952 374.082 260.578 371.452Z" fill="#372C27"/>
<path d="M363.373 366.925C369.468 361.04 367.338 353.335 368.267 346.309C370.499 351.756 369.196 357.423 369.003 362.947C368.913 365.391 366.681 367.484 363.373 366.925Z" fill="#1F1425"/>
<path d="M187 265.116C189.209 268.13 191.769 270.837 194.839 273.051C194.907 274.673 194.862 276.164 196.278 277.556C202.146 283.321 203.709 290.741 203.868 298.413C204.106 310.086 203.55 321.78 204.106 333.42C204.355 338.725 202.202 343.372 201.058 348.139C200.141 351.976 196.323 356.107 190.806 356.118C172.046 356.173 153.286 356.129 134.526 356.129C132.611 356.129 130.448 356.294 130.198 353.773C129.7 348.775 126.789 344.303 126.936 339.196C127.468 319.5 125.52 299.75 129.066 280.11C130.3 273.227 131.082 266.201 133.733 259.767C139.284 246.308 151.201 242.198 164.898 248.741C171.672 251.986 175.909 258.266 181.517 262.924C183.001 264.162 183.669 267.977 187 265.116Z" fill="#164D89"/>
<path d="M186.999 265.116C183.68 267.977 183.001 264.162 181.516 262.935C175.909 258.277 171.672 251.997 164.898 248.752C151.19 242.198 139.272 246.308 133.733 259.778C131.082 266.212 130.3 273.248 129.066 280.12C125.531 299.761 127.48 319.511 126.936 339.207C126.8 344.314 129.7 348.786 130.198 353.784C130.448 356.305 132.611 356.14 134.526 356.14C153.286 356.14 172.046 356.184 190.806 356.129C196.323 356.118 200.141 351.986 201.058 348.15C202.202 343.383 204.355 338.736 204.106 333.431C203.55 321.78 204.106 310.086 203.868 298.424C203.709 290.752 202.146 283.332 196.278 277.567C194.873 276.175 194.907 274.684 194.839 273.062C201.364 277.885 204.06 284.154 205.465 292.155C208.694 310.666 207.436 328.97 205.567 347.383C203.256 358.168 202.939 358.475 191.667 360.59C175.286 360.459 158.905 360.349 142.524 360.174C129.326 360.031 127.276 358.552 125.429 346.068C121.181 317.396 123.288 289.064 130.663 261.017C133.552 250.024 136.429 244.84 153.592 244.226C162.756 243.897 169.372 247.317 175.24 253.41C179.081 257.378 183.068 261.214 186.999 265.116Z" fill="#244879"/>
<path d="M128.703 371.528C125.033 372.274 121.204 371.013 118.541 367.046C118.02 366.268 117.658 365.369 118.451 364.569C119.108 363.9 119.901 364.229 120.411 364.744C122.336 366.673 124.489 365.336 126.177 364.755C132.555 362.552 138.763 364.744 145.027 364.974C145.775 365.007 146.613 365.161 146.727 366.037C146.863 367.09 146.002 367.583 145.231 368.098C140.53 371.233 135.16 371.496 128.703 371.528Z" fill="#DEE4F2"/>
<path d="M258.29 336.456C251.651 330.121 254.178 322.021 253.736 314.481C256.285 311.916 259.366 310.173 262.787 308.968C264.566 310.732 264.826 309.351 265.064 307.938C269.969 307.236 274.886 305.669 279.803 307.894C283.043 311.368 293.476 313.187 299.038 311.237C299.786 311.258 300.534 311.28 301.281 311.291C301.474 313.166 302.448 314.393 304.453 314.437C308.011 314.525 312.259 315.643 314.955 314.163C318.614 312.157 323.633 314.229 326.215 310.119C328.832 309.691 331.449 309.275 334.055 308.847C338.767 311.587 343.899 309.746 348.827 310.053C356.893 310.546 362.863 316.454 362.467 324.093C362.274 327.896 356.225 333.267 350.685 334.067C347.932 334.472 345.293 334.527 342.766 336.105C341.328 337.004 339.334 336.018 337.476 335.48C331.936 333.869 326.193 332.729 320.54 335.338C319.804 335.316 319.067 335.294 318.331 335.283C318.206 333.924 317.628 332.894 316.246 332.302C308.135 328.85 300.126 330.417 292.196 332.828C286.418 334.582 280.879 336.949 274.535 336.489C269.482 336.127 264.384 336.456 259.298 336.489C258.969 336.511 258.63 336.5 258.29 336.456Z" fill="#1B528C"/>
<path d="M326.227 310.129C323.644 314.239 318.625 312.168 314.966 314.174C312.27 315.653 308.022 314.524 304.464 314.448C302.459 314.404 301.485 313.165 301.292 311.302C309.63 311.379 317.945 311.193 326.227 310.129Z" fill="#244879"/>
<path d="M299.05 311.236C293.487 313.187 283.054 311.368 279.814 307.894C286.418 307.959 292.649 310.042 299.05 311.236Z" fill="#244879"/>
<path d="M265.075 307.948C264.826 309.362 264.566 310.732 262.798 308.979C263.308 308.135 264.146 307.926 265.075 307.948Z" fill="#244879"/>
<path d="M262.798 340.84C269.595 340.84 276.404 340.829 283.201 340.829C283.008 342.002 282.465 342.911 281.105 342.922C275.713 342.955 270.309 342.955 264.917 342.933C263.557 342.911 263.002 342.013 262.798 340.84Z" fill="#231E3F"/>
<path d="M259.309 336.511C264.384 336.489 269.493 336.149 274.546 336.511C280.89 336.971 286.43 334.604 292.207 332.85C300.137 330.439 308.158 328.86 316.257 332.324C317.64 332.916 318.206 333.946 318.342 335.305C307.682 333.233 297.248 334.198 286.928 337.289C279.077 339.645 270.977 338.494 262.98 338.615C261.326 338.637 260.125 337.87 259.309 336.511Z" fill="#244879"/>
<path d="M329.308 349.685C336.218 349.279 343.197 350.112 350.05 348.633C350.096 350.485 349.167 351.131 347.343 351.964C339.957 355.329 332.151 358.442 329.569 367.155C318.263 367.144 306.776 365.895 295.719 367.473C285.648 368.909 275.701 369.095 265.653 369.347C262.107 369.435 259.388 368.558 258.233 364.996C263.229 364.941 268.225 364.875 273.221 364.821C274.784 366.026 276.143 367.605 278.579 366.552C280.947 365.522 281.15 363.747 280.788 361.653C285.671 361.697 288.333 357.445 292.456 356.009C294.473 356.074 296.682 356.37 297.611 354.036C298.143 352.699 298.189 351.197 296.999 350.057C294.881 348.03 292.638 348.885 290.417 349.915C282.499 349.816 274.591 349.75 266.673 349.575C264.792 349.531 262.289 350.474 261.643 347.482C267.08 347.471 272.529 347.328 277.956 347.471C284.878 347.657 291.244 345.618 297.69 343.591C301.428 342.418 305.779 342.166 309.245 343.668C311.987 344.851 314.513 345.388 317.254 345.18C321.571 344.84 325.094 346.375 328.356 348.83C326.872 348.742 325.354 348.424 323.893 348.6C321.412 348.896 319.565 350.298 319.86 352.874C320.121 355.088 321.355 356.907 324.074 357.258C328.515 357.828 329.92 355.855 329.308 349.685ZM311.16 359.417C311.25 358.069 310.503 357.444 309.222 357.302C307.863 357.16 306.424 357.225 306.175 358.847C305.949 360.283 306.877 361.248 308.373 361.434C309.902 361.631 310.786 360.82 311.16 359.417Z" fill="#F3C362"/>
<path d="M329.58 367.144C332.163 358.442 339.968 355.318 347.354 351.954C349.167 351.132 350.107 350.474 350.062 348.622C353.88 345.991 359.125 348.961 362.818 345.575C363.339 345.092 364.143 345.871 364.529 346.539C366.205 349.411 364.415 362.497 361.651 364.525C351.433 372.055 340.342 374.696 329.58 367.144ZM353.087 360.667C352.486 357.51 350.526 355.351 347.434 355.406C344.013 355.472 342.087 357.905 342.087 361.259C342.087 364.306 343.933 365.95 347.071 366.015C350.832 366.092 352.192 363.56 353.087 360.667Z" fill="#EAB54E"/>
<path d="M273.221 364.81C268.225 364.865 263.229 364.93 258.233 364.985C252.274 361.39 249.125 352.677 251.595 346.846C252.444 344.829 253.804 345.257 255.209 345.969C257.248 347.011 259.366 347.569 261.666 347.471C262.311 350.463 264.804 349.52 266.696 349.564C274.603 349.74 282.522 349.805 290.429 349.904C289.466 352.447 290.905 354.244 292.468 356.009C288.344 357.434 285.682 361.697 280.8 361.653C276.948 359.746 273.935 359.691 273.221 364.81ZM263.965 353.707C263.603 351.186 261.87 350.485 259.525 350.627C256.919 350.781 255.911 352.271 255.99 354.639C256.069 357.061 257.327 358.519 259.876 358.234C262.447 357.938 263.762 356.239 263.965 353.707Z" fill="#EAB54E"/>
<path d="M329.308 349.685C329.92 355.855 328.526 357.839 324.097 357.247C321.378 356.886 320.143 355.077 319.883 352.863C319.588 350.288 321.423 348.885 323.916 348.589C325.366 348.413 326.884 348.72 328.379 348.819C328.685 349.104 329.002 349.389 329.308 349.685Z" fill="#AE7C19"/>
<path d="M292.456 356.009C290.893 354.244 289.454 352.447 290.417 349.904C292.638 348.885 294.881 348.03 296.999 350.046C298.189 351.186 298.143 352.688 297.611 354.025C296.67 356.37 294.473 356.075 292.456 356.009Z" fill="#AE7C19"/>
<path d="M273.221 364.81C273.934 359.692 276.948 359.746 280.788 361.653C281.151 363.747 280.947 365.522 278.579 366.553C276.143 367.594 274.784 366.016 273.221 364.81Z" fill="#AE7C19"/>
<path d="M311.16 359.417C310.786 360.82 309.903 361.631 308.373 361.434C306.878 361.248 305.949 360.283 306.175 358.847C306.425 357.236 307.863 357.16 309.223 357.302C310.503 357.434 311.262 358.069 311.16 359.417Z" fill="#AE7C19"/>
<path d="M353.086 360.667C352.191 363.56 350.832 366.092 347.071 366.015C343.944 365.95 342.086 364.306 342.086 361.259C342.086 357.905 344.012 355.483 347.433 355.406C350.515 355.34 352.486 357.499 353.086 360.667Z" fill="#AE7C19"/>
<path d="M263.965 353.707C263.761 356.239 262.447 357.938 259.876 358.234C257.316 358.53 256.069 357.061 255.99 354.639C255.911 352.271 256.919 350.781 259.525 350.627C261.87 350.485 263.592 351.186 263.965 353.707Z" fill="#AE7C19"/>
</g>
<defs>
<clipPath id="clip0_6_1890">
<rect width="469" height="468" fill="white"/>
</clipPath>
</defs>
</svg>
