<svg xmlns="http://www.w3.org/2000/svg" viewBox="0 0 100 100" width="100%" height="100%">
  <!-- Cleaning Bucket -->
  <path d="M 22,46 L 27,78 C 27,82 53,82 53,78 L 58,46 Z" fill="#164E8C" stroke="#121838" stroke-width="4" stroke-linejoin="round" />
  <ellipse cx="40" cy="46" rx="18" ry="4" fill="#2563EB" stroke="#121838" stroke-width="3" />
  <path d="M 22,46 C 22,34 58,34 58,46" fill="none" stroke="#ECAE3C" stroke-width="3" stroke-linecap="round" />
  
  <!-- Mop Standing in Bucket -->
  <line x1="44" y1="14" x2="35" y2="52" stroke="#ECAE3C" stroke-width="4" stroke-linecap="round" />
  <rect x="42" y="10" width="4" height="7" rx="1.5" fill="#121838" />
  
  <!-- Soap Foam Bubbles -->
  <circle cx="32" cy="43" r="4" fill="#FFFFFF" stroke="#121838" stroke-width="2" />
  <circle cx="39" cy="40" r="4.5" fill="#FFFFFF" stroke="#121838" stroke-width="2" />
  <circle cx="47" cy="42" r="3.5" fill="#FFFFFF" stroke="#121838" stroke-width="2" />
  
  <!-- Trigger Spray Bottle (Right) -->
  <path d="M 64,54 C 64,50 68,48 70,48 L 74,48 C 76,48 80,50 80,54 L 82,78 C 82,81 62,81 62,78 Z" fill="#ECAE3C" stroke="#121838" stroke-width="3" stroke-linejoin="round" />
  <path d="M 63,64 Q 72,66 81,64 L 82,78 C 82,81 62,81 62,78 Z" fill="#EEB33B" />
  <path d="M 67,48 L 67,42 L 60,40 L 60,37 L 76,37 L 78,44 L 72,48 Z" fill="#164E8C" stroke="#121838" stroke-width="2.2" stroke-linejoin="round" />
  <path d="M 66,43 C 63,46 64,50 67,51" stroke="#121838" stroke-width="2.2" fill="none" />
  
  <!-- Sparkles -->
  <path d="M 82,20 Q 82,26 88,26 Q 82,26 82,32 Q 82,26 76,26 Q 82,26 82,20 Z" fill="#ECAE3C" />
  <path d="M 16,60 Q 16,64 20,64 Q 16,64 16,68 Q 16,64 12,64 Q 16,64 16,60 Z" fill="#ECAE3C" />
</svg>