<svg width="477" height="470" viewBox="0 0 477 470" fill="none" xmlns="http://www.w3.org/2000/svg">
<g clip-path="url(#clip0_6_2324)">
<path d="M0.150473 469.869C0.150473 315.031 0.16552 160.192 0 5.33972C0 0.874722 1.00817 0 6.15435 0C161.051 0.156667 315.949 0.156667 470.831 0C475.977 0 477 0.874722 476.985 5.33972C476.819 158.442 476.819 311.545 476.985 464.647C476.985 469.112 475.977 470 470.831 469.987C313.947 469.843 157.049 469.869 0.150473 469.869ZM122.109 408.73C124.17 407.777 124.411 406.367 123.463 404.657C125.179 401.028 126.894 397.385 128.609 393.756C129.091 392.763 129.813 391.81 130.024 390.779C131.333 384.225 135.682 382.619 143.16 382.802C160.645 383.246 178.175 382.711 195.675 382.58C215.222 383.141 234.753 383.194 254.3 382.645C256.331 382.645 258.347 382.632 260.379 382.632C280.918 383.22 301.443 383.246 321.983 382.658C322.494 382.658 323.021 382.658 323.532 382.658C327.008 382.776 330.514 383.272 333.93 382.946C339.377 382.423 341.83 384.369 343.244 388.834C345.155 394.852 347.924 400.649 350.302 406.55C351.039 408.365 351.415 410.963 354.033 410.884C364.281 410.61 374.648 412.725 384.76 409.775C386.084 407.255 385.738 404.644 385.287 402.02C385.287 401.145 385.272 400.27 385.272 399.396C385.272 398.965 385.256 398.534 385.256 398.116C385.272 396.367 385.272 394.617 385.287 392.881C385.828 390.27 385.919 387.659 385.241 385.061C385.497 384.682 385.572 384.277 385.422 383.846C389.635 383.559 393.848 383.35 398.047 382.959C403.133 382.489 406.458 380.361 406.443 375.504C406.353 346.077 406.247 316.636 406.157 287.209C406.157 281.987 406.157 276.765 406.157 271.543C406.157 269.806 406.157 268.07 406.142 266.333C406.127 259.806 406.112 253.278 406.097 246.763C406.082 219.203 406.082 191.629 406.067 164.069C406.714 139.446 406.654 114.811 406.097 90.1878C406.217 87.3939 406.428 84.6131 406.428 81.8192C406.428 66.8444 405.646 66.2439 388.251 67.7844C365.153 67.1969 342.071 67.1708 318.973 67.7714C317.995 67.7714 317.017 67.7714 316.039 67.7714C299.08 67.6408 282.122 67.3928 265.179 67.4189C236.499 67.4581 207.803 67.6539 179.123 67.7975C177.649 67.2753 176.159 67.2753 174.684 67.7975C163.625 67.2231 152.58 67.1969 141.52 67.7453C140.045 67.2231 138.586 67.21 137.111 67.7453C115.563 67.3014 94.0156 66.8053 72.4829 68.1761C68.4051 69.7167 68.7211 72.7325 69.0521 75.7744C69.0521 76.2444 69.0521 76.7275 69.0521 77.1975C68.4352 78.4639 68.4352 79.7433 69.0371 81.0097C68.9017 83.1639 68.6308 85.3181 68.6308 87.4853C68.5405 154.539 68.4502 221.592 68.4352 288.645C68.4352 306.427 68.676 324.209 68.7963 341.977C67.9236 351.991 68.1794 362.018 68.5104 372.044C68.4803 373.337 68.4653 374.642 68.4352 375.935C67.6828 377.475 68.7512 378.65 69.5337 379.878C69.4133 380.752 69.8647 381.144 70.8729 381.052L71.3393 381.353L71.9111 381.314C72.2723 382.084 72.8742 382.489 73.8673 382.319C75.8084 382.88 77.7645 383.207 79.7959 382.698C82.9258 383.05 86.0556 383.402 89.1704 383.742C89.2757 385.047 89.3811 386.353 89.4864 387.659C89.4714 389.486 89.4563 391.314 89.4563 393.129C89.4563 393.978 89.4413 394.826 89.4413 395.688C89.4262 396.889 89.4112 398.077 89.3961 399.278C89.2908 401.563 89.1102 403.848 89.1253 406.145C89.1253 409.331 90.3441 411.524 94.7229 410.728C96.3179 410.715 97.9129 410.715 99.5079 410.702C105.617 410.793 111.726 410.884 117.836 410.963C119.837 410.989 121.868 411.067 122.229 408.704L122.109 408.73Z" fill="#FDFDFD"/>
<path d="M68.7212 341.964C68.5858 324.182 68.345 306.401 68.36 288.632C68.3751 221.579 68.4654 154.525 68.5557 87.4721C68.5557 85.318 68.8265 83.1638 68.9619 80.9966C71.0084 81.0096 73.0398 81.0357 75.0862 81.0488C75.5828 82.3674 74.6498 84.156 76.7715 84.9655C76.7414 85.3963 76.7113 85.8402 76.6662 86.271C74.5595 86.5321 73.8373 87.681 73.8373 89.4174C73.8523 98.1907 73.8523 106.964 73.8373 115.737C73.8373 117.474 74.5896 118.61 76.6812 118.871C76.7865 150.974 76.9822 183.078 76.9822 215.169C76.9822 265.707 76.8467 316.258 76.7715 366.796C73.13 366.326 73.8674 363.845 73.8373 361.809C73.7771 356.678 73.6266 351.547 73.8824 346.429C74.0479 343.035 72.4529 341.703 68.7212 341.964Z" fill="#29182D"/>
<path d="M315.979 67.7452C316.957 67.7452 317.935 67.7452 318.913 67.7452C320.959 70.1604 323.954 69.2074 326.557 69.2335C341.078 69.3249 355.598 69.2988 370.119 69.3118C371.022 73.2677 374.678 71.4921 377.281 71.8707C379.734 72.2232 383.015 70.983 383.631 74.5602C378.139 74.6516 372.632 74.8082 367.14 74.8213C305.385 74.8735 243.616 74.8735 181.862 74.9257C151.873 74.9518 121.883 75.0563 91.9091 75.1346C91.0665 72.4974 95.054 71.701 94.8584 69.3118C106.385 69.2988 117.911 69.3379 129.422 69.2335C132.025 69.2074 135.035 70.1735 137.051 67.7191C138.526 67.1968 139.985 67.1968 141.46 67.7191C152.505 70.3171 163.564 70.2127 174.624 67.7713C176.099 67.2491 177.589 67.2491 179.063 67.7713C181.125 70.1604 184.119 69.2335 186.722 69.2335C227.26 69.2857 267.812 69.2988 308.35 69.2335C310.938 69.2335 313.947 70.1735 315.979 67.7452Z" fill="#29182D"/>
<path d="M321.937 382.645C301.398 383.233 280.873 383.207 260.334 382.619C258.859 380.478 256.361 381.366 254.27 381.105C254.119 379.055 253.969 377.005 253.818 374.956C257.475 374.773 261.131 374.577 264.803 374.394C268.324 374.381 271.845 374.368 275.366 374.355C277.352 374.355 279.338 374.342 281.325 374.342C295.875 374.355 310.441 374.368 324.992 374.394C348.541 374.59 372.075 374.799 395.624 374.995C395.007 377.75 392.434 377.371 390.358 377.201C385.001 376.77 381.239 379.708 380.05 383.102C378.816 386.614 380.757 390.701 385.226 392.894C385.211 394.643 385.211 396.393 385.196 398.129C384.128 398.56 384.143 398.991 385.211 399.409C385.211 400.283 385.226 401.158 385.226 402.033C382.668 404.487 383.18 407.111 384.7 409.788C374.588 412.738 364.22 410.61 353.973 410.898C351.355 410.963 350.979 408.378 350.241 406.563C347.864 400.662 345.095 394.852 343.184 388.847C341.77 384.369 339.317 382.436 333.87 382.959C330.454 383.285 326.948 382.802 323.472 382.671C322.976 381.64 322.464 381.627 321.937 382.645ZM376.363 400.662C378.53 395.518 378.094 390.335 376.574 385.152C375.777 383.011 373.369 383.598 371.669 382.972C372.526 377.723 369.186 376.575 364.13 377.24C359.706 377.828 352.634 374.708 353.446 382.841C352.498 383.481 351.129 383.99 351.581 385.296C353.311 390.231 355.117 395.14 356.983 400.035C357.374 401.08 358.397 402.007 359.736 401.902C365.289 401.445 371.067 403.443 376.363 400.662Z" fill="#29182D"/>
<path d="M195.645 382.567C178.145 382.698 160.615 383.233 143.13 382.789C135.652 382.606 131.303 384.212 129.994 390.766C129.783 391.797 129.061 392.75 128.579 393.743C126.849 385.008 123.102 391.745 120.078 392.907C122.425 383.416 122.425 383.429 110.493 383.324C108.296 383.311 106.099 383.168 103.917 383.076C104.519 378.977 103.104 376.548 97.6722 377.188C95.7612 377.41 93.805 377.227 91.8639 377.227C87.4852 376.013 81.9327 379.812 78.4116 374.877C86.8983 374.76 95.4 374.642 103.887 374.525C128.971 374.512 154.07 374.499 179.153 374.486C182.133 374.642 185.097 374.799 188.076 374.943C188.588 375.386 189.34 375.765 189.581 376.3C189.942 377.11 189.115 377.136 188.408 377.227C185.609 377.58 182.343 376.287 179.454 378.703C183.066 380.556 186.301 379.538 189.355 379.838C191.823 380.099 195.089 378.964 195.645 382.567Z" fill="#28111A"/>
<path d="M385.241 392.881C380.772 390.687 378.831 386.601 380.065 383.089C381.254 379.695 385.016 376.757 390.373 377.188C392.464 377.358 395.022 377.736 395.639 374.982C396.136 374.838 396.617 374.694 397.114 374.551C400.334 371.404 397.881 367.592 398.709 364.172C403.283 363.323 401.598 360.111 401.613 357.84C401.733 336.22 401.673 314.587 401.688 292.967C401.688 290.238 400.846 286.935 406.112 287.209C406.202 316.636 406.308 346.077 406.398 375.504C406.413 380.347 403.088 382.475 398.002 382.959C393.803 383.35 389.59 383.559 385.377 383.846C384.369 384.147 384.023 384.512 385.196 385.061C385.858 387.659 385.768 390.27 385.241 392.881Z" fill="#342231"/>
<path d="M406.007 164.043C406.022 191.603 406.022 219.177 406.037 246.737C402.937 246.933 401.448 245.758 401.658 242.99C401.839 240.744 401.432 238.682 398.709 237.624C398.724 234.556 398.739 231.488 398.769 228.42C398.95 228.302 399.296 228.146 399.281 228.094C399.16 227.793 398.95 227.519 398.769 227.232C398.468 225.469 399.236 223.524 397.626 221.984C397.626 218.498 397.626 214.999 397.626 211.513C398.769 210.638 398.754 209.777 397.61 208.915C397.671 207.596 397.716 206.265 397.776 204.946C402.155 201.774 400.454 198.183 398.739 194.593C398.423 192.83 399.236 190.898 397.565 189.358C397.565 188.47 397.565 187.595 397.565 186.707C399.431 184.723 398.318 182.347 398.709 180.167C400.214 179.331 400.168 178.469 398.739 177.608C398.348 177.569 397.957 177.529 397.55 177.503C397.61 176.655 397.671 175.806 397.731 174.957C401.312 173.665 401.222 170.649 401.538 168.116C401.884 165.492 403.374 164.448 406.007 164.043Z" fill="#342231"/>
<path d="M398.709 237.624C401.447 238.682 401.839 240.758 401.658 242.99C401.447 245.758 402.937 246.933 406.037 246.737C406.052 253.265 406.067 259.78 406.082 266.307C404.171 266.386 402.019 266.216 401.809 268.605C401.568 271.36 403.795 271.503 406.097 271.516C406.097 276.739 406.097 281.961 406.097 287.183C400.846 286.922 401.688 290.212 401.673 292.941C401.658 314.561 401.718 336.194 401.598 357.814C401.583 360.085 403.268 363.297 398.694 364.146C397.896 356.325 400.033 348.401 397.505 340.646C397.505 339.784 397.52 338.935 397.52 338.074C400.063 324.535 398.092 310.892 398.513 297.301C398.634 293.502 399.792 289.507 397.46 285.838C397.46 283.24 397.46 280.642 397.46 278.057C399.22 275.002 399.205 271.934 397.475 268.879C397.475 264.976 397.46 261.085 397.46 257.182C399.958 250.784 397.957 244.139 398.709 237.624Z" fill="#29182D"/>
<path d="M120.093 392.907C123.117 391.745 126.864 385.008 128.594 393.743C126.879 397.385 125.164 401.015 123.448 404.657C121.612 405.675 122.004 407.242 122.094 408.73L122.154 408.678C117.414 408.639 112.644 408.365 107.934 408.652C105.045 408.835 101.238 406.89 99.4327 410.689C97.8377 410.702 96.2427 410.702 94.6476 410.715C90.1485 407.856 94.1812 402.007 89.3209 399.265C89.3359 398.064 89.351 396.876 89.366 395.675C90.2388 395.348 91.3673 395.087 91.0513 394.03C90.931 393.625 89.9679 393.416 89.3811 393.116C89.3961 391.288 89.4112 389.46 89.4112 387.646C92.9322 386.118 92.6163 384.826 89.0952 383.729C85.9653 383.376 82.8355 383.024 79.7207 382.685C80.9094 380.113 82.8355 380.06 85.6644 380.831C88.9748 381.731 91.5028 380.687 91.8488 377.253C93.7899 377.253 95.7611 377.436 97.6571 377.214C103.104 376.575 104.504 379.003 103.902 383.102C98.9963 382.502 97.3562 384.382 97.8377 388.546C98.2289 391.954 97.8979 395.44 97.9129 398.886C97.928 400.375 97.8828 401.772 99.9443 402.62C106.445 405.284 115.925 402.203 118.392 396.51C118.919 395.283 119.521 394.095 120.093 392.907Z" fill="#29182D"/>
<path d="M406.007 164.043C403.358 164.448 401.884 165.492 401.553 168.116C401.237 170.636 401.327 173.665 397.746 174.957C397.671 170.205 397.595 165.44 397.535 160.688C397.926 160.231 398.318 159.787 398.709 159.33C399.19 158.377 400.078 157.437 400.078 156.484C400.168 141.627 400.153 126.769 400.168 111.899C400.168 110.267 399.867 108.883 397.701 108.466C397.625 107.16 397.565 105.867 397.49 104.562C398.709 103.674 398.724 102.773 397.505 101.872C397.595 101.011 397.671 100.136 397.761 99.2744C399.491 98.2169 401.222 97.1594 402.952 96.1019L402.892 96.2586C401.673 94.6919 399.928 94.0652 397.806 94.0913C397.746 92.825 397.671 91.5586 397.61 90.2922C397.971 90.2661 398.348 90.2269 398.709 90.1747C401.162 90.1747 403.599 90.1616 406.052 90.1616C406.594 114.784 406.669 139.42 406.007 164.043Z" fill="#29182D"/>
<path d="M195.645 382.567C195.088 378.977 191.823 380.112 189.34 379.851C186.286 379.538 183.051 380.569 179.439 378.715C182.328 376.3 185.594 377.593 188.392 377.24C189.1 377.149 189.927 377.123 189.566 376.313C189.325 375.778 188.588 375.399 188.061 374.955C206.509 374.707 224.942 373.989 243.375 375.334C245.136 377.697 246.896 377.71 248.657 375.321C250.372 375.204 252.103 375.073 253.818 374.955C253.969 377.005 254.119 379.055 254.27 381.105C254.27 381.614 254.27 382.123 254.27 382.632C234.738 383.167 215.192 383.128 195.645 382.567Z" fill="#342231"/>
<path d="M91.8638 377.24C91.5177 380.674 88.9747 381.718 85.6794 380.817C82.8505 380.047 80.9244 380.099 79.7357 382.671C77.7043 383.194 75.7481 382.854 73.807 382.293C73.16 381.953 72.513 381.614 71.8509 381.287L71.2791 381.327L70.8126 381.026C70.3612 380.635 69.9248 380.243 69.4734 379.851C68.6909 378.624 67.6376 377.462 68.375 375.909C71.8057 374.655 71.8509 373.363 68.4502 372.018C68.1192 361.991 67.8483 351.965 68.7361 341.951C72.4678 341.69 74.0628 343.022 73.8973 346.416C73.6566 351.534 73.792 356.678 73.8522 361.795C73.8823 363.832 73.145 366.3 76.7864 366.783C76.7864 367.657 76.7864 368.532 76.7864 369.407C75.5676 369.577 74.3036 369.733 74.108 371.065C73.8672 372.788 75.2666 373.141 76.8015 373.324C77.3281 373.846 77.8698 374.368 78.3965 374.89C81.9175 379.825 87.47 376.013 91.8638 377.24Z" fill="#342231"/>
<path d="M406.037 90.1617C403.584 90.1617 401.146 90.1748 398.694 90.1748C398.694 89.287 398.709 88.3992 398.709 87.5114C400.213 86.6759 400.168 85.8142 398.739 84.9526C398.363 84.9134 397.986 84.8742 397.595 84.8481C397.625 82.707 397.655 80.5528 397.685 78.4117C397.821 78.2812 398.092 78.1376 398.077 78.0331C398.032 77.7328 397.851 77.4326 397.731 77.1323C394.059 72.0406 388.13 76.1923 383.616 74.5473C382.999 70.97 379.734 72.1973 377.266 71.8578C374.678 71.4923 371.022 73.2548 370.104 69.2989C376.093 68.4764 382.458 70.9309 388.176 67.7453C405.57 66.2048 406.353 66.7923 406.353 81.7801C406.368 84.587 406.157 87.3678 406.037 90.1617Z" fill="#342231"/>
<path d="M94.8433 69.312C95.0389 71.7011 91.0664 72.4975 91.894 75.1348C88.5234 75.2131 85.1378 75.2784 81.7672 75.3567C81.6167 75.0564 81.4662 74.7561 81.3459 74.4559C80.8493 73.7378 80.3377 73.7378 79.8261 74.4559C79.6907 74.7561 79.5552 75.0434 79.3897 75.3175C78.9684 75.3175 78.5772 75.4089 78.216 75.6048C73.7319 75.9181 76.0041 79.182 75.0711 81.0489C73.0247 81.0359 70.9933 81.0098 68.9469 80.9967C68.345 79.7303 68.345 78.4509 68.9619 77.1845C70.1958 76.7145 70.2259 76.2314 68.9619 75.7614C68.6158 72.7195 68.3149 69.7036 72.3927 68.1631C79.7358 70.6045 87.3798 68.6461 94.8433 69.312Z" fill="#342231"/>
<path d="M315.979 67.7453C313.947 70.1737 310.938 69.2337 308.35 69.2337C267.812 69.2859 227.26 69.2859 186.722 69.2337C184.119 69.2337 181.124 70.1606 179.063 67.7714C207.743 67.6409 236.438 67.432 265.119 67.3928C282.062 67.3798 299.02 67.6278 315.979 67.7453Z" fill="#28111A"/>
<path d="M388.191 67.7714C382.473 70.9439 376.108 68.5026 370.119 69.3251C355.598 69.312 341.078 69.3512 326.557 69.2467C323.954 69.2337 320.959 70.1737 318.913 67.7584C342.01 67.1578 365.093 67.1709 388.191 67.7714Z" fill="#28111A"/>
<path d="M94.8433 69.312C87.3798 68.6462 79.7508 70.6045 72.4077 68.1501C93.9404 66.7792 115.488 67.2753 137.036 67.7192C135.02 70.1867 132.01 69.2076 129.407 69.2337C117.896 69.3512 106.37 69.299 94.8433 69.312Z" fill="#28111A"/>
<path d="M99.4326 410.676C101.238 406.889 105.045 408.822 107.934 408.639C112.644 408.352 117.414 408.626 122.154 408.665C121.793 411.028 119.746 410.963 117.76 410.937C111.651 410.858 105.542 410.767 99.4326 410.676Z" fill="#28111A"/>
<path d="M174.609 67.7714C163.549 70.2128 152.49 70.3303 141.445 67.7192C152.505 67.1708 163.564 67.197 174.609 67.7714Z" fill="#28111A"/>
<path d="M89.3359 399.252C94.1962 401.981 90.1635 407.842 94.6627 410.702C90.2839 411.498 89.0651 409.305 89.0651 406.119C89.05 403.834 89.2306 401.537 89.3359 399.252Z" fill="#28111A"/>
<path d="M406.097 271.529C403.795 271.516 401.568 271.373 401.808 268.618C402.019 266.229 404.171 266.399 406.082 266.32C406.097 268.057 406.097 269.793 406.097 271.529Z" fill="#342231"/>
<path d="M89.1101 383.716C92.6462 384.812 92.9472 386.105 89.4261 387.632C89.3208 386.327 89.2154 385.021 89.1101 383.716Z" fill="#28111A"/>
<path d="M384.7 409.775C383.18 407.098 382.668 404.487 385.226 402.02C385.678 404.631 386.024 407.242 384.7 409.775Z" fill="#28111A"/>
<path d="M68.4502 372.018C71.8509 373.363 71.8058 374.655 68.375 375.909C68.4051 374.616 68.4201 373.324 68.4502 372.018Z" fill="#29182D"/>
<path d="M254.27 382.632C254.27 382.123 254.27 381.614 254.27 381.105C256.376 381.366 258.859 380.478 260.334 382.619C258.317 382.619 256.301 382.619 254.27 382.632Z" fill="#28111A"/>
<path d="M122.109 408.73C122.019 407.242 121.612 405.662 123.463 404.657C124.411 406.354 124.17 407.764 122.109 408.73Z" fill="#28111A"/>
<path d="M89.3961 393.116C89.983 393.416 90.946 393.625 91.0664 394.03C91.3974 395.074 90.2538 395.348 89.3811 395.675C89.3811 394.813 89.3811 393.964 89.3961 393.116Z" fill="#28111A"/>
<path d="M68.9768 75.7483C70.2408 76.2313 70.2107 76.7013 68.9768 77.1713C68.9768 76.7013 68.9768 76.2313 68.9768 75.7483Z" fill="#29182D"/>
<path d="M69.4734 379.851C69.9248 380.243 70.3612 380.635 70.8126 381.026C69.8044 381.118 69.353 380.726 69.4734 379.851Z" fill="#29182D"/>
<path d="M71.8508 381.288C72.4979 381.627 73.1449 381.967 73.807 382.293C72.8139 382.463 72.212 382.045 71.8508 381.288Z" fill="#29182D"/>
<path d="M321.938 382.645C322.449 381.627 322.961 381.64 323.487 382.645C322.976 382.645 322.464 382.645 321.938 382.645Z" fill="#28111A"/>
<path d="M385.181 385.061C384.008 384.512 384.354 384.134 385.362 383.846C385.512 384.264 385.452 384.669 385.181 385.061Z" fill="#28111A"/>
<path d="M385.211 399.396C384.143 398.978 384.128 398.547 385.196 398.116C385.211 398.547 385.211 398.978 385.211 399.396Z" fill="#28111A"/>
<path d="M78.2311 75.6048C78.5922 75.409 78.9834 75.3046 79.4047 75.3176C80.2022 75.3307 80.9847 75.3437 81.7822 75.3568C85.1528 75.2784 88.5385 75.2132 91.9091 75.1348C121.898 75.0696 151.888 74.9521 181.862 74.9259C243.616 74.8737 305.385 74.8607 367.14 74.8215C372.632 74.8215 378.139 74.6518 383.631 74.5604C388.146 76.2054 394.074 72.0537 397.746 77.1454C397.731 77.5632 397.716 77.994 397.701 78.4118C397.671 80.5529 397.64 82.7071 397.61 84.8612C397.61 86.6759 397.61 88.4776 397.61 90.2923C397.671 91.5587 397.746 92.8251 397.806 94.0915C397.791 95.8148 397.776 97.5382 397.776 99.2746C397.686 100.136 397.61 101.011 397.52 101.873C397.52 102.773 397.505 103.661 397.505 104.562C397.58 105.868 397.64 107.16 397.716 108.466C397.64 122.37 397.58 136.261 397.505 150.165C397.505 151.928 397.52 153.69 397.52 155.453C397.535 156.288 397.535 157.124 397.55 157.959C397.55 158.873 397.55 159.787 397.55 160.688C397.625 165.44 397.701 170.205 397.761 174.958C397.701 175.806 397.64 176.655 397.58 177.503C397.58 180.572 397.58 183.64 397.58 186.708C397.58 187.595 397.58 188.47 397.58 189.358C397.61 191.133 397.625 192.922 397.656 194.698C397.701 198.118 397.746 201.526 397.791 204.946C397.731 206.265 397.686 207.597 397.625 208.915C397.625 209.777 397.641 210.651 397.641 211.513C397.641 214.999 397.641 218.498 397.641 221.984C397.58 233.734 397.535 245.471 397.475 257.221C397.475 261.124 397.49 265.015 397.49 268.918C397.49 271.973 397.49 275.042 397.475 278.096C397.475 280.695 397.475 283.293 397.475 285.878C397.505 303.294 397.52 320.697 397.55 338.113C397.55 338.975 397.535 339.823 397.535 340.685C397.4 351.978 397.264 363.271 397.129 374.564C396.632 374.708 396.151 374.851 395.654 374.995C372.105 374.799 348.571 374.59 325.022 374.394C325.519 371.64 328.047 371.822 330.153 372.07C335.811 372.736 337.842 370.595 337.045 365.934C347.698 365.83 358.337 365.647 368.99 365.634C385.693 365.608 385.693 365.647 386.611 351.155C391.306 350.96 388.146 356.156 392.043 357.226C392.299 355.79 392.645 354.785 392.645 353.793C392.675 331.363 392.886 308.934 392.615 286.504C392.464 274.545 393.818 262.626 392.916 250.641C392.509 245.275 390.072 245.771 386.069 246.985C385.753 247.05 385.422 247.116 385.106 247.168C384.64 247.103 384.158 247.037 383.692 246.972C382.683 246.985 381.675 247.011 380.667 247.024C375.145 247.024 369.622 247.037 364.1 247.037C362.61 247.037 361.121 247.037 359.631 247.024C358.608 247.024 357.6 247.024 356.576 247.024C354.59 247.024 352.589 247.024 350.603 247.024C345.577 247.037 340.551 247.05 335.51 247.05C321.486 247.011 307.477 246.985 293.453 246.946C290.925 246.946 288.397 246.946 285.884 246.946C279.083 247.05 272.266 247.142 265.465 247.246C263.915 246.998 262.365 246.763 260.936 247.612C258.016 246.802 255.112 246.776 252.208 247.625C247.453 246.228 242.578 246.711 237.733 247.037C230.946 247.063 224.175 247.09 217.389 247.116C208.135 247.077 198.88 247.037 189.626 246.998C157.049 246.998 124.471 246.998 91.879 247.011C90.7504 246.815 89.7122 246.737 89.7422 248.16C89.4413 259.871 89.1554 271.582 88.8545 283.293C83.934 282.209 86.6124 278.71 85.9353 276.295C85.514 274.767 86.7779 272.261 83.8587 272.195C81.4963 272.143 79.9163 273.71 79.9163 276.112C79.9464 295.578 79.9314 315.044 79.9314 334.496C79.9314 336.376 80.3678 338.087 83.1515 337.917C85.9955 337.747 85.6042 335.763 85.9353 334.066C86.3716 331.794 84.25 328.569 88.8244 327.695C88.9447 335.28 89.035 342.865 89.2156 350.45C89.3209 355.19 87.6657 361.104 90.299 364.342C93.1881 367.893 100.561 365.007 105.858 366.039C105.226 368.885 103.556 371.548 103.932 374.564C95.4452 374.681 86.9434 374.799 78.4568 374.917C77.9301 374.394 77.3884 373.872 76.8617 373.35C76.8467 372.044 76.8467 370.739 76.8316 369.433C76.8316 368.558 76.8316 367.684 76.8316 366.809C76.9069 316.271 77.0423 265.72 77.0423 215.182C77.0423 183.078 76.8467 150.975 76.7414 118.884C76.7414 108.022 76.7263 97.1596 76.7263 86.2973C76.7564 85.8665 76.7865 85.4226 76.8316 84.9918C79.7358 82.1326 77.7044 78.7121 78.2311 75.6048ZM356.561 157.137C357.554 158.103 358.548 158.116 359.556 157.15C361.557 157.006 363.573 156.85 365.575 156.706C367.079 156.693 368.584 156.667 370.089 156.654C372.587 156.68 375.1 156.706 377.597 156.732C379.102 156.915 380.607 157.098 382.112 157.267C382.714 157.763 383.21 157.633 383.631 157.071C384.474 156.471 385.332 155.87 386.174 155.27C388.477 155.792 387.754 159.63 390.674 158.912C393.939 158.103 392.765 155.192 392.555 153.272C391.035 139.551 395.338 126.038 394.24 112.33C394.059 110.032 395.338 107.669 395.338 105.332C395.353 103.165 394.405 100.332 391.817 100.175C388.371 99.9535 390.207 103.008 389.635 104.601C388.552 107.578 392.314 111.73 386.761 113.636C386.641 105.685 386.626 97.7209 386.34 89.7701C386.28 87.9815 387.875 85.1223 383.646 84.9134C375.626 84.9526 367.591 84.9918 359.571 85.044C317.965 85.0309 276.359 85.0179 234.753 85.0048C232.24 85.0048 229.742 85.0048 227.23 85.0048C225.228 85.0048 223.227 85.0048 221.226 85.0048C205.682 85.0048 190.153 85.0048 174.609 85.0048C147.494 84.9657 120.379 84.9265 93.2633 84.9004C92.857 84.8612 92.4357 84.8743 92.0294 84.9004C86.3265 88.4384 90.8557 93.7912 88.9447 98.0082C85.198 97.6165 86.1008 95.0837 85.8751 93.034C85.7246 91.6501 86.492 89.509 83.949 89.4959C81.5114 89.4829 79.8863 90.9059 79.8863 93.2951C79.9013 97.6165 79.8411 101.938 79.8712 106.259C79.8863 109.928 79.796 113.61 80.127 117.265C80.2925 119.028 81.8123 120.764 83.9039 120.816C86.4619 120.895 85.7848 118.714 85.86 117.343C85.9654 115.463 86.2212 113.858 88.9146 113.662C89.2306 115.059 89.5466 116.469 89.8626 117.866C89.8927 118.531 89.9078 119.197 89.9379 119.85C89.5466 122.096 88.9447 124.341 89.8476 126.6C88.5535 135.386 89.5617 144.225 89.2306 153.024C89.1253 155.688 90.2388 157.098 93.5191 156.902C95.9869 156.745 98.4697 156.706 100.937 156.615C103.45 156.615 105.963 156.601 108.476 156.601C108.973 156.758 109.469 156.902 109.981 157.058C111.38 157.385 112.795 157.985 114.194 157.985C141.43 158.051 168.665 158.051 195.901 157.998C197.316 157.998 198.73 157.411 200.129 157.098C213.687 157.111 227.245 157.124 240.787 157.137C242.277 158.338 243.767 158.338 245.256 157.124C248.281 156.98 251.29 156.836 254.315 156.693C258.332 156.836 262.35 156.993 266.368 157.137C268.354 158.416 270.34 158.416 272.326 157.124C275.351 157.124 278.39 157.124 281.415 157.111C296.929 158.612 312.443 158.612 327.956 157.111C330.469 156.967 332.982 156.823 335.51 156.68C338.023 156.68 340.536 156.68 343.049 156.68C347.533 156.823 352.047 156.98 356.561 157.137ZM248.341 237.481C251.591 237.572 254.841 237.742 258.092 237.755C290.398 237.859 322.72 237.938 355.026 238.016C355.553 238.59 356.065 238.577 356.561 238.003C364.07 237.99 371.579 237.964 379.087 237.951C379.614 238.538 380.125 238.525 380.622 237.938C383.782 237.833 385.919 237.729 385.843 233.668C385.437 213.041 385.347 192.4 385.708 171.772C385.798 166.367 383.722 165.388 378.064 165.414C320.237 165.597 262.41 165.518 204.583 165.571C186.572 165.584 168.545 165.767 150.533 165.858C133.996 165.858 117.459 165.845 100.922 165.845C96.9198 166.002 92.6163 164.108 89.0501 167.177C86.9585 167.046 85.9503 166.08 85.8901 164.239C85.8299 162.738 85.8901 160.884 83.4374 160.91C81.0299 160.936 79.9615 162.542 79.9464 164.448C79.9314 178.744 79.6756 193.053 80.2474 207.335C80.3828 210.887 82.5346 215.234 88.9598 212.819C89.0651 218.655 89.6821 224.53 89.1554 230.326C88.5987 236.266 90.7805 237.911 97.7173 237.872C138.887 237.663 180.056 237.885 221.226 237.977C222.234 239.021 223.227 239.021 224.235 237.977C227.215 237.794 230.209 237.624 233.188 237.441C238.229 237.468 243.285 237.481 248.341 237.481Z" fill="#B4968D"/>
<path d="M76.6812 86.2581C76.6812 97.1203 76.6962 107.983 76.6962 118.845C74.6046 118.584 73.8372 117.448 73.8523 115.711C73.8673 106.938 73.8673 98.1647 73.8523 89.3914C73.8523 87.6811 74.5745 86.5192 76.6812 86.2581Z" fill="#28111A"/>
<path d="M78.2311 75.6047C77.7044 78.712 79.7358 82.1325 76.7715 84.9525C74.6498 84.1561 75.5827 82.3675 75.0862 81.0358C76.0191 79.182 73.747 75.9181 78.2311 75.6047Z" fill="#977B7C"/>
<path d="M253.818 374.943C252.103 375.06 250.372 375.191 248.642 375.308C246.881 375.308 245.121 375.321 243.375 375.321C224.942 373.976 206.509 374.695 188.061 374.943C185.082 374.786 182.118 374.629 179.138 374.486C178.657 371.626 178.16 368.78 177.679 365.921C180.658 365.751 183.637 365.595 186.617 365.425C189.34 365.503 192.064 365.647 194.788 365.66C218.622 365.764 242.472 365.843 266.307 365.934C265.811 368.741 265.299 371.548 264.803 374.355C261.146 374.577 257.475 374.76 253.818 374.943Z" fill="#B4968D"/>
<path d="M264.803 374.381C265.299 371.574 265.811 368.767 266.307 365.947C267.827 365.778 269.332 365.595 270.852 365.425C292.911 365.582 314.955 365.738 337.015 365.908C337.812 370.569 335.781 372.71 330.123 372.044C328.017 371.796 325.504 371.613 324.992 374.368C310.441 374.355 295.875 374.342 281.325 374.316C279.323 370.647 277.337 370.647 275.366 374.329C271.845 374.368 268.324 374.368 264.803 374.381Z" fill="#B08E7E"/>
<path d="M371.669 382.972C373.354 383.598 375.777 383.011 376.574 385.152C376.499 390.322 376.439 395.492 376.364 400.662C371.067 403.443 365.289 401.445 359.751 401.902C358.412 402.02 357.404 401.08 356.998 400.035C355.132 395.139 353.326 390.231 351.596 385.296C351.144 384.003 352.514 383.481 353.461 382.841C359.511 383.768 365.59 383.677 371.669 382.972Z" fill="#B4968D"/>
<path d="M371.669 382.972C365.59 383.677 359.51 383.768 353.446 382.854C352.634 374.721 359.706 377.828 364.13 377.253C369.201 376.574 372.526 377.723 371.669 382.972Z" fill="#342231"/>
<path d="M376.364 400.662C376.439 395.492 376.499 390.322 376.574 385.152C378.094 390.335 378.53 395.518 376.364 400.662Z" fill="#342231"/>
<path d="M275.366 374.355C277.337 370.673 279.323 370.66 281.325 374.342C279.338 374.342 277.352 374.342 275.366 374.355Z" fill="#B4968D"/>
<path d="M177.679 365.934C178.16 368.793 178.657 371.64 179.138 374.499C154.055 374.512 128.956 374.525 103.872 374.538C103.496 371.522 105.166 368.859 105.798 366.026C129.753 365.386 153.723 365.308 177.679 365.934Z" fill="#977B7C"/>
<path d="M120.093 392.907C119.536 394.095 118.934 395.283 118.407 396.484C115.94 402.19 106.475 405.258 99.9594 402.594C97.898 401.746 97.9431 400.349 97.9281 398.86C97.913 395.414 98.2441 391.941 97.8528 388.52C97.3713 384.356 99.0115 382.476 103.917 383.076C106.114 383.168 108.311 383.298 110.493 383.324C122.44 383.429 122.44 383.416 120.093 392.907Z" fill="#B08E7E"/>
<path d="M397.099 374.551C397.234 363.258 397.37 351.965 397.505 340.672C400.033 348.427 397.896 356.351 398.694 364.172C397.866 367.592 400.319 371.404 397.099 374.551Z" fill="#563A3A"/>
<path d="M397.445 257.207C397.505 245.457 397.55 233.72 397.61 221.97C399.235 223.524 398.453 225.456 398.754 227.219C398.709 227.61 398.709 228.015 398.754 228.407C398.739 231.475 398.724 234.543 398.694 237.611C397.956 244.139 399.958 250.784 397.445 257.207Z" fill="#563A3A"/>
<path d="M397.776 204.933C397.731 201.513 397.686 198.105 397.64 194.685C398.002 194.671 398.378 194.632 398.739 194.58C400.454 198.17 402.155 201.774 397.776 204.933Z" fill="#29182D"/>
<path d="M397.565 186.694C397.565 183.626 397.565 180.558 397.565 177.49C397.956 177.516 398.363 177.556 398.754 177.595C398.739 178.443 398.724 179.305 398.724 180.154C398.318 182.334 399.431 184.71 397.565 186.694Z" fill="#563A3A"/>
<path d="M398.739 194.58C398.378 194.632 398.002 194.671 397.64 194.684C397.61 192.909 397.595 191.12 397.565 189.345C399.22 190.872 398.423 192.817 398.739 194.58Z" fill="#563A3A"/>
<path d="M397.61 211.513C397.61 210.651 397.595 209.777 397.595 208.915C398.754 209.764 398.754 210.638 397.61 211.513Z" fill="#563A3A"/>
<path d="M398.709 180.167C398.724 179.318 398.724 178.456 398.739 177.608C400.168 178.469 400.213 179.318 398.709 180.167Z" fill="#29182D"/>
<path d="M398.754 228.42C398.709 228.028 398.709 227.624 398.754 227.232C398.935 227.519 399.145 227.793 399.266 228.094C399.296 228.146 398.935 228.302 398.754 228.42Z" fill="#29182D"/>
<path d="M397.52 338.1C397.49 320.684 397.475 303.281 397.445 285.865C399.777 289.533 398.618 293.541 398.498 297.327C398.107 310.918 400.063 324.561 397.52 338.1Z" fill="#563A3A"/>
<path d="M397.445 278.083C397.445 275.028 397.445 271.96 397.46 268.905C399.19 271.96 399.205 275.028 397.445 278.083Z" fill="#563A3A"/>
<path d="M397.49 150.152C397.565 136.248 397.625 122.357 397.701 108.452C399.867 108.87 400.168 110.267 400.168 111.886C400.138 126.743 400.168 141.6 400.078 156.471C400.078 157.424 399.19 158.364 398.709 159.317C398.318 158.86 397.926 158.403 397.535 157.946C397.52 157.11 397.52 156.275 397.505 155.439C399.085 153.664 399.085 151.901 397.49 150.152Z" fill="#28111A"/>
<path d="M397.761 99.2615C397.776 97.5381 397.791 95.8148 397.791 94.0784C399.912 94.0523 401.658 94.679 402.877 96.2456L402.937 96.089C401.222 97.1465 399.491 98.204 397.761 99.2615Z" fill="#28111A"/>
<path d="M397.595 90.2922C397.595 88.4775 397.595 86.6758 397.595 84.8611C397.971 84.8872 398.348 84.9133 398.739 84.9655C398.724 85.8141 398.709 86.6758 398.709 87.5244C398.709 88.4122 398.694 89.3 398.694 90.1878C398.333 90.2269 397.971 90.2661 397.595 90.2922Z" fill="#563A3A"/>
<path d="M397.535 157.946C397.926 158.403 398.318 158.86 398.709 159.317C398.318 159.774 397.926 160.218 397.535 160.675C397.535 159.761 397.535 158.86 397.535 157.946Z" fill="#563A3A"/>
<path d="M397.49 104.549C397.49 103.648 397.505 102.76 397.505 101.859C398.724 102.773 398.709 103.661 397.49 104.549Z" fill="#563A3A"/>
<path d="M402.952 96.0889L402.892 96.2462C402.877 96.2593 402.952 96.0889 402.952 96.0889Z" fill="#FDFDFD"/>
<path d="M243.375 375.321C245.136 375.321 246.881 375.321 248.642 375.308C246.896 377.697 245.151 377.684 243.375 375.321Z" fill="#29182D"/>
<path d="M76.7865 369.407C76.8015 370.713 76.8015 372.018 76.8166 373.324C75.2817 373.141 73.8823 372.788 74.1231 371.065C74.2886 369.72 75.5676 369.564 76.7865 369.407Z" fill="#29182D"/>
<path d="M398.709 87.5113C398.724 86.6627 398.724 85.801 398.739 84.9524C400.168 85.8141 400.213 86.6757 398.709 87.5113Z" fill="#29182D"/>
<path d="M397.701 78.4117C397.716 77.9939 397.731 77.563 397.746 77.1453C397.866 77.4455 398.032 77.7328 398.092 78.0461C398.107 78.1375 397.836 78.2811 397.701 78.4117Z" fill="#563A3A"/>
<path d="M81.7823 75.3568C80.9998 75.3437 80.2023 75.3306 79.4048 75.3176C79.5703 75.0304 79.7057 74.7431 79.8412 74.4429C80.3528 74.4429 80.8493 74.4429 81.3609 74.4429C81.4813 74.7562 81.6167 75.0565 81.7823 75.3568Z" fill="#806768"/>
<path d="M81.3608 74.4558C80.8492 74.4558 80.3527 74.4558 79.8411 74.4558C80.3527 73.7247 80.8492 73.7377 81.3608 74.4558Z" fill="#29182D"/>
<path d="M177.679 365.934C153.723 365.307 129.768 365.386 105.813 366.012C100.516 364.968 93.1428 367.866 90.2537 364.315C87.6204 361.077 89.2907 355.163 89.1703 350.424C88.9897 342.839 88.9145 335.254 88.7791 327.668C88.7791 321.127 88.7791 314.587 88.764 308.046C88.764 306.766 88.7791 305.474 88.7791 304.194C88.7941 297.223 88.7941 290.238 88.8092 283.266C89.1101 271.556 89.396 259.845 89.6969 248.134C90.4042 247.755 91.1264 247.364 91.8337 246.985C124.411 246.985 156.989 246.985 189.581 246.972C189.852 249.009 188.994 251.816 192.786 251.868C202.416 251.998 212.047 251.907 223.317 251.907C220.383 249.544 218.863 248.317 217.343 247.089C224.13 247.063 230.901 247.037 237.687 247.011C237.913 250.301 236.754 254.257 242.713 254.727C242.367 255.536 241.645 256.359 241.72 257.142C243.285 277.169 241.675 297.236 242.683 317.263C242.533 319.848 242.382 322.433 242.232 325.031C240.396 325.906 240.381 326.794 242.202 327.707C242.186 328.543 242.186 329.392 242.171 330.227C241.75 330.24 241.344 330.292 240.938 330.397C239.373 330.606 237.251 325.592 236.619 330.097C235.746 336.194 235.641 342.552 236.89 349.106C240.637 347.082 237.808 343.4 240.953 341.912C241.359 342.003 241.78 342.069 242.202 342.069C242.171 346.847 242.141 351.638 242.111 356.417C238.575 356.756 240.05 352.265 236.709 352.226C235.581 354.027 237.537 357.304 233.414 357.657C233.414 325.044 233.324 292.431 233.549 259.819C233.579 255.092 231.292 254.649 226.838 254.662C186.241 254.779 145.643 254.871 105.06 254.622C98.8457 254.583 97.6419 256.333 97.6871 261.281C97.9429 291.282 98.0031 321.297 97.7322 351.299C97.6871 356.665 99.2069 358.192 105.572 358.192C147.163 358.114 188.753 358.44 230.329 358.636C228.418 361.156 225.439 360.242 222.866 360.268C212.227 360.359 201.574 360.568 190.935 360.203C185.503 360.02 185.247 361.978 186.587 365.464C183.622 365.608 180.658 365.764 177.679 365.934Z" fill="#28111A"/>
<path d="M355.027 238.016C322.72 237.938 290.398 237.859 258.092 237.755C254.842 237.742 251.591 237.585 248.341 237.481C250.643 235.509 253.547 236.345 256.181 236.345C289.405 236.279 322.645 236.293 355.869 236.306C359.977 236.306 364.311 236.697 364.1 231.344C378.425 230.861 378.425 230.861 377.101 218.054C377.251 205.064 377.161 192.073 377.643 179.096C377.838 173.874 375.732 172.386 369.878 172.438C343.425 172.673 316.957 172.568 290.504 172.581C285.403 172.568 280.302 172.555 275.216 172.542C272.326 172.555 269.422 172.568 266.533 172.581C257.339 172.124 248.145 172.046 238.952 172.673C236.589 172.634 234.227 172.608 231.849 172.568C226.222 172.581 220.579 172.581 214.951 172.594C213.567 172.581 212.182 172.581 210.798 172.568C207.698 172.568 204.599 172.568 201.514 172.568C199.106 172.581 196.699 172.594 194.306 172.594C193.689 172.594 193.072 172.594 192.455 172.594C164.708 172.568 136.946 172.503 109.199 172.529C97.4466 172.542 97.4466 172.621 98.3945 182.83C98.2441 197.152 98.2892 211.474 97.8378 225.783C97.6873 230.639 99.9745 231.423 104.895 231.462C110.417 231.514 111.516 229.621 111.38 225.248C111.094 216.357 111.501 207.466 111.621 198.562C114.45 205.051 112.343 211.774 112.885 218.38C113.126 221.305 112.915 224.203 117.49 224.569C117.204 229.177 119.31 231.175 124.998 230.992C133.996 230.705 143.01 231.083 152.008 231.188C151.241 235.875 154.356 236.371 158.749 236.345C180.929 236.214 203.124 236.266 225.319 236.332C227.952 236.345 230.856 235.522 233.173 237.428C230.194 237.611 227.2 237.781 224.22 237.964C223.212 237.964 222.219 237.964 221.211 237.964C180.041 237.885 138.872 237.65 97.7024 237.859C90.7655 237.898 88.5837 236.24 89.1404 230.313C89.6821 224.516 89.0652 218.641 88.9448 212.806C88.9749 197.583 89.005 182.373 89.0351 167.15C92.6013 164.069 96.9049 165.975 100.907 165.819C100.351 169.644 102.036 171.184 106.716 171.119C119.882 170.897 133.064 170.819 146.215 171.158C151.752 171.302 151.828 169.278 150.518 165.845C168.53 165.74 186.557 165.571 204.568 165.558C262.395 165.505 320.222 165.584 378.049 165.401C383.707 165.388 385.798 166.354 385.693 171.759C385.332 192.387 385.422 213.028 385.828 233.655C385.904 237.716 383.767 237.82 380.607 237.924C380.095 237.924 379.584 237.938 379.072 237.938C371.564 237.951 364.055 237.977 356.546 237.99C356.05 238.003 355.538 238.016 355.027 238.016Z" fill="#28111A"/>
<path d="M337.015 365.908C314.955 365.751 292.911 365.595 270.852 365.425C271.348 361.6 269.588 359.994 264.968 360.216C259.295 360.49 253.608 360.294 247.92 360.255C245.527 360.242 242.713 360.764 242.292 357.579C242.774 357.631 243.27 357.67 243.752 357.722C254.781 357.722 265.811 357.722 276.841 357.722C308.606 357.879 340.37 357.931 372.12 358.271C378.199 358.336 377.522 355.229 377.507 351.925C377.447 321.976 377.221 292.014 377.552 262.064C377.613 256.189 376.138 254.466 369.066 254.505C328.302 254.792 287.524 254.57 246.761 254.531C247.483 250.954 250.764 252.024 253.246 251.972C258.784 251.842 264.321 251.933 271.8 251.933C268.535 249.505 266.985 248.356 265.42 247.194C272.221 247.089 279.038 246.998 285.839 246.894C288.367 250.758 290.88 250.771 293.408 246.894C307.432 246.933 321.441 246.959 335.465 246.998C335.074 250.458 336.473 252.077 340.897 251.998C352.348 251.789 363.799 251.789 375.235 251.998C379.689 252.077 381.013 250.405 380.607 246.972C381.615 246.959 382.623 246.933 383.631 246.92C384.008 247.507 384.459 247.664 385.046 247.115C385.362 247.05 385.693 246.998 386.009 246.933C386.159 247.716 386.31 248.512 386.46 249.296C386.46 250.627 386.46 251.959 386.46 253.291C386.475 254.57 386.475 255.837 386.49 257.116C386.49 261.059 386.505 265.002 386.505 268.931C386.521 273.266 386.521 277.587 386.536 281.922C386.551 285.838 386.581 289.768 386.596 293.685C386.581 303.685 386.566 313.686 386.551 323.686C386.551 325.436 386.551 327.185 386.551 328.922C386.551 330.658 386.551 332.394 386.566 334.118C386.566 335.867 386.551 337.617 386.551 339.366C386.551 343.27 386.551 347.186 386.566 351.09C385.648 365.582 385.648 365.529 368.945 365.569C358.307 365.621 347.653 365.804 337.015 365.908Z" fill="#28111A"/>
<path d="M254.3 156.68C251.275 156.823 248.266 156.967 245.241 157.111C243.752 157.111 242.262 157.111 240.772 157.124C227.215 157.111 213.657 157.098 200.114 157.084C199.633 156.902 199.151 156.732 198.67 156.549C195.405 154.369 191.613 155.857 188.107 155.387C188.453 152.711 190.725 152.841 192.967 152.789C195.299 152.737 198.023 153.324 198.85 150.413C200.16 150.309 201.469 150.217 202.763 150.113C206.916 150.139 211.069 150.126 215.222 150.217C219.571 150.322 221.617 148.651 221.151 144.825C221.166 144.016 221.166 143.193 221.181 142.384C223.152 141.104 223.197 139.773 221.316 138.402C221.376 132.775 221.436 127.161 221.497 121.534C225.695 119.236 225.304 116.756 220.639 116.443C215.418 116.09 210.256 116.194 204.689 117.944C197.707 120.15 189.431 119.902 181.922 117.8C174.579 115.738 167.477 114.197 161.337 119.876C159.502 121.573 157.35 121.404 155.138 121.456C161.247 115.411 167.702 110.411 177.995 114.419C190.966 119.471 203.229 116.638 215.252 111.638C216.365 111.168 217.675 111.038 218.758 110.541C221.752 109.171 224.506 109.536 227.184 111.142C228.208 112.826 229.246 114.523 230.269 116.208C230.314 125.294 230.796 134.407 230.269 143.468C229.938 149.225 232.586 150.165 238.455 150.139C244.549 150.113 246.716 148.624 246.611 143.128C246.43 133.702 245.362 124.224 250.026 115.006C252.855 109.419 256.301 108.701 262.2 110.463C269.001 112.487 275.817 114.576 283.145 114.98C289.977 115.346 294.205 113.192 295.168 107.069C295.575 106.664 295.996 106.246 296.402 105.841C296.929 104.967 297.44 104.079 297.967 103.204C298.449 102.721 298.93 102.251 299.412 101.768C302.195 101.873 302.842 104.014 304.152 105.515C303.173 107.121 302.105 108.714 302.481 110.659C299.261 110.346 298.689 112.761 298.268 114.406C296.538 121.103 290.88 122.435 284.259 122.84C279.414 123.127 274.869 122.318 270.355 120.855C258.483 117.004 257.174 117.618 254.631 128.284C254.074 130.582 254.285 133.036 254.285 135.412C254.3 151.666 254.315 151.666 272.236 148.703C275.501 150.544 279.248 150.074 282.845 150.322C284.74 155.518 291.196 150.622 294.356 154.46C291.241 156.066 288.021 155.178 285.041 155.387C274.809 156.144 264.412 153.925 254.3 156.68Z" fill="#29182D"/>
<path d="M233.158 237.454C230.841 235.548 227.937 236.358 225.303 236.358C203.109 236.292 180.929 236.253 158.734 236.371C154.34 236.397 151.225 235.901 151.993 231.214C173.781 231.162 195.57 230.953 217.358 231.188C223.362 231.253 225.95 229.987 224.039 224.621C229.11 224.347 225.785 219.725 228.433 218.21C229.622 220.861 230.389 223.602 230.179 226.462C229.742 232.075 234.302 231.135 238.244 231.331C242.638 231.553 245.422 230.861 245.151 226.148C244.91 221.918 244.218 217.375 248.13 213.798C249.695 217.727 245.286 222.793 251.215 225.874C250.447 230.391 252.554 231.619 257.821 231.553C287.629 231.175 317.438 231.175 347.247 231.005C350.557 230.992 354.786 232.023 354.951 227.193C355.132 221.722 350.256 223.785 347.397 223.772C319.349 223.55 291.301 223.524 263.253 223.446C263.433 222.336 263.794 221.044 265.179 220.939C273.109 220.378 280.979 218.485 288.999 219.477C309.93 222.088 330.936 220.143 351.912 220.56C357.058 220.665 360.428 218.132 358.818 212.975C358.412 211.683 357.93 210.403 358.698 209.202C361.933 204.163 356.817 200.181 356.17 195.598C355.102 188.039 347.157 193.666 342.748 191.89C342.311 191.721 341.77 191.773 341.273 191.708C351.28 184.658 356.757 184.475 360.549 191.355C361.798 193.614 362.294 196.395 362.279 198.927C362.219 207.583 363.167 216.265 361.376 224.908C360.895 227.219 359.796 230.313 364.1 231.37C364.311 236.71 359.977 236.332 355.869 236.332C322.645 236.319 289.405 236.305 256.181 236.371C253.547 236.371 250.628 235.535 248.341 237.507C243.285 237.48 238.229 237.467 233.158 237.454Z" fill="#29182D"/>
<path d="M221.211 84.9917C223.212 84.9917 225.213 84.9917 227.214 84.9917C229.727 89.0781 232.24 89.0911 234.738 84.9917C276.344 85.0048 317.95 85.0178 359.556 85.0309C360.127 88.9736 358.171 90.2792 353.612 90.227C336.924 90.0442 320.237 90.0964 303.549 90.2139C301.082 90.227 297.877 88.9606 296.417 92.1331C294.837 92.6161 293.272 92.5509 291.737 91.9895C288.833 89.1173 285.914 89.1303 282.995 91.9764C281.385 92.577 279.79 92.8381 278.315 91.7023C277.066 89.8223 274.929 90.1617 272.988 90.1617C260.003 90.1356 247.017 90.1486 234.031 90.1486C232.06 90.1486 229.968 89.9137 228.584 91.5978C227.681 91.6109 226.778 91.6239 225.86 91.65C223.212 89.6395 220.624 88.8561 218.306 92.0156C215.267 92.812 212.212 92.7859 209.143 92.1331C208.872 89.0781 209.955 87.3678 214.033 87.4592C216.606 87.5114 220.278 88.8953 221.211 84.9917Z" fill="#29182D"/>
<path d="M296.417 92.12C297.877 88.9475 301.082 90.2269 303.55 90.2008C320.237 90.0964 336.925 90.0311 353.612 90.2139C358.171 90.2661 360.143 88.9605 359.556 85.0178C367.576 84.9786 375.611 84.9394 383.631 84.8872C383.647 106.024 383.481 127.161 383.827 148.285C383.902 152.789 382.458 155.439 377.598 156.706C375.1 156.68 372.587 156.654 370.089 156.628C370.059 154.382 370.029 152.136 370.014 149.904C373.505 149.708 377.703 150.987 377.537 145.465C377.131 131.391 377.191 117.304 377.056 103.23C377.086 101.05 377.101 98.8697 377.131 96.6764C377.522 94.7311 378.079 92.7075 374.558 92.6422C348.526 92.4725 322.479 92.3028 296.417 92.12Z" fill="#28111A"/>
<path d="M386.505 257.142C386.49 255.863 386.49 254.596 386.475 253.317C388.582 251.985 388.597 250.654 386.475 249.322C386.325 248.539 386.174 247.742 386.024 246.959C390.027 245.745 392.464 245.262 392.87 250.615C393.773 262.6 392.419 274.519 392.57 286.478C392.855 308.908 392.645 331.337 392.6 353.767C392.6 354.772 392.254 355.777 391.998 357.2C388.1 356.143 391.26 350.933 386.566 351.129C386.566 347.226 386.566 343.309 386.551 339.405C388.763 337.669 388.763 335.92 386.566 334.157C386.566 332.421 386.566 330.684 386.551 328.961C388.747 327.212 388.747 325.462 386.551 323.726C386.566 313.725 386.581 303.725 386.596 293.724C388.988 289.794 389.079 285.878 386.536 281.961C386.52 277.626 386.52 273.305 386.505 268.971C389.094 265.015 389.109 261.085 386.505 257.142Z" fill="#B08E7E"/>
<path d="M93.2482 84.8872C120.363 84.9264 147.479 84.9655 174.594 84.9917C174.76 88.9475 179.861 86.3755 181.486 89.1172C179.123 90.7753 176.324 90.1094 173.812 90.1094C152.896 90.1617 131.98 90.1094 111.064 90.2008C108.596 90.2139 105.391 88.9475 103.932 92.12C96.4382 91.9633 98.3492 96.9636 97.7323 100.593C93.3385 101.05 91.4576 99.4833 91.8337 95.5536C92.1497 92.3942 91.9692 89.2086 91.9993 86.0361C92.4206 85.6575 92.8269 85.2658 93.2482 84.8872Z" fill="#29182D"/>
<path d="M88.7792 308.046C88.7792 314.587 88.7792 321.128 88.7942 327.668C84.2199 328.543 86.3415 331.768 85.9052 334.04C85.5741 335.724 85.9653 337.721 83.1214 337.891C80.3226 338.061 79.9013 336.35 79.9013 334.47C79.8862 315.005 79.9163 295.539 79.8862 276.086C79.8862 273.684 81.4662 272.117 83.8286 272.169C86.7629 272.235 85.4838 274.741 85.9052 276.269C86.5823 278.684 83.9039 282.183 88.8243 283.266C88.8093 290.238 88.8093 297.223 88.7942 304.195C87.2594 304.351 85.9202 304.73 86.161 306.414C86.3415 307.733 87.5754 307.889 88.7792 308.046Z" fill="#BB906F"/>
<path d="M103.932 92.133C105.391 88.9605 108.597 90.2269 111.064 90.2138C131.98 90.1094 152.896 90.1746 173.812 90.1224C176.34 90.1094 179.138 90.7882 181.486 89.1302C179.861 86.3885 174.745 88.9605 174.594 85.0046C190.138 85.0046 205.667 85.0046 221.211 85.0046C220.278 88.9082 216.606 87.5244 214.048 87.4852C209.97 87.4069 208.872 89.1041 209.158 92.1721C174.082 92.9163 139.007 92.7335 103.932 92.133ZM199.603 88.5296C199.181 88.373 198.685 88.0205 198.384 88.1249C198.083 88.2294 198.008 88.7777 197.827 89.1432C198.233 89.2999 198.745 89.6524 199.046 89.548C199.332 89.4435 199.422 88.8821 199.603 88.5296Z" fill="#28111A"/>
<path d="M89.05 167.163C89.0199 182.386 88.9898 197.596 88.9597 212.819C82.5345 215.234 80.3828 210.886 80.2473 207.335C79.6906 193.052 79.9314 178.744 79.9464 164.448C79.9464 162.542 81.0148 160.936 83.4374 160.91C85.8901 160.884 85.8299 162.737 85.8901 164.239C85.9503 166.067 86.9584 167.033 89.05 167.163Z" fill="#B08E7E"/>
<path d="M100.907 156.588C98.4396 156.68 95.9568 156.732 93.489 156.876C90.2087 157.084 89.1103 155.661 89.2005 152.998C89.5316 144.199 88.5234 135.36 89.8175 126.574C93.474 124.367 92.4357 122.096 89.9078 119.824C89.8777 119.158 89.8626 118.492 89.8325 117.826C92.2852 116.534 94.9486 116.051 97.7926 116.234C98.5901 125.803 96.9349 135.451 98.9662 144.995C96.995 149.29 99.4177 150.635 103.932 150.596C103.405 152.789 99.9895 153.86 100.907 156.588Z" fill="#342231"/>
<path d="M386.746 113.623C392.299 111.717 388.537 107.565 389.62 104.588C390.207 102.995 388.371 99.9404 391.802 100.162C394.39 100.332 395.338 103.152 395.323 105.319C395.308 107.656 394.029 110.019 394.225 112.317C395.323 126.025 391.035 139.538 392.539 153.259C392.75 155.178 393.924 158.09 390.659 158.899C387.739 159.617 388.462 155.792 386.159 155.257C386.295 152.698 386.445 150.126 386.581 147.567C390.914 144.094 390.944 135.491 386.641 131.94C386.686 125.83 386.716 119.733 386.746 113.623Z" fill="#B08E7E"/>
<path d="M254.3 156.68C264.412 153.925 274.809 156.145 285.026 155.4C288.006 155.178 291.226 156.079 294.341 154.473C291.166 150.635 284.725 155.518 282.83 150.322C288.171 151.249 289.255 146.849 292.129 144.695C297.26 145.583 300.946 149.747 306.589 149.512C310.562 153.455 315.843 150.609 320.403 151.549C320.162 154.787 322.299 155.374 325.534 155.466C328.859 155.57 332.501 154.304 335.495 156.654C332.982 156.797 330.469 156.941 327.941 157.085C312.428 156.497 296.914 156.523 281.4 157.085C278.376 157.085 275.336 157.085 272.311 157.098C270.325 157.098 268.339 157.111 266.353 157.111C262.335 156.98 258.317 156.823 254.3 156.68Z" fill="#342231"/>
<path d="M150.533 165.845C151.842 169.291 151.767 171.302 146.23 171.158C133.078 170.819 119.897 170.91 106.731 171.119C102.051 171.197 100.366 169.657 100.922 165.819C117.444 165.832 133.996 165.845 150.533 165.845Z" fill="#29182D"/>
<path d="M335.495 156.667C332.501 154.317 328.859 155.583 325.534 155.479C322.299 155.374 320.177 154.787 320.403 151.562C323.111 151.536 325.865 151.836 328.498 151.418C332.32 150.818 336.879 153.494 339.994 149.591C341.529 149.108 343.049 149.081 344.569 149.656C344.659 151.118 344.584 152.776 347.082 152.593C349.053 152.45 348.917 151.001 349.038 149.786C350.753 149.121 352.453 149.251 354.154 149.878C361.843 152.228 362.144 152.006 362.881 143.219C363.829 145.361 364.792 147.502 365.74 149.643C365.981 150.909 366.478 151.04 367.26 149.891C368.193 149.891 369.111 149.891 370.044 149.891C370.074 152.136 370.104 154.382 370.119 156.614C368.614 156.628 367.11 156.654 365.605 156.667C358.096 154.552 350.573 154.617 343.064 156.641C340.506 156.667 338.008 156.667 335.495 156.667Z" fill="#29182D"/>
<path d="M386.596 147.567C386.46 150.126 386.31 152.698 386.174 155.257C385.332 155.857 384.474 156.458 383.631 157.058C383.12 157.124 382.623 157.189 382.112 157.254C380.607 157.072 379.102 156.889 377.597 156.719C382.443 155.453 383.902 152.815 383.827 148.298C383.481 127.174 383.646 106.037 383.631 84.9004C387.86 85.1093 386.25 87.9684 386.325 89.7571C386.611 97.7079 386.626 105.659 386.746 113.623C386.716 119.72 386.686 125.83 386.656 131.927C386.641 137.149 386.626 142.358 386.596 147.567Z" fill="#342231"/>
<path d="M88.8845 113.649C86.191 113.831 85.9202 115.45 85.8299 117.33C85.7547 118.701 86.4318 120.881 83.8738 120.803C81.7972 120.738 80.2624 119.001 80.0969 117.252C79.7658 113.596 79.8561 109.915 79.8411 106.246C79.811 101.925 79.8712 97.6033 79.8561 93.2819C79.8561 90.8927 81.4812 89.4697 83.9189 89.4828C86.4468 89.4958 85.6794 91.65 85.8449 93.0208C86.0707 95.0705 85.1829 97.5903 88.9146 97.995C88.8996 100.162 88.8845 102.342 88.8695 104.51C84.0995 106.677 84.0995 108.857 88.8544 111.037C88.8695 111.912 88.8845 112.774 88.8845 113.649Z" fill="#B08E7E"/>
<path d="M380.622 246.985C381.028 250.432 379.704 252.103 375.25 252.011C363.799 251.802 352.348 251.802 340.912 252.011C336.503 252.09 335.089 250.471 335.48 247.011C340.506 246.998 345.532 246.998 350.573 246.985C352.559 250.392 354.545 250.392 356.546 246.985C357.57 246.985 358.578 246.985 359.601 246.985C359.812 247.977 360.037 248.995 361.497 249.139C363.333 249.335 363.844 248.264 364.07 246.985C369.577 246.998 375.1 246.998 380.622 246.985Z" fill="#29182D"/>
<path d="M100.907 156.588C99.9744 153.86 103.39 152.776 103.947 150.609C106.64 150.387 108.882 149.786 108.506 146.797C108.085 143.611 109.936 140.987 111.35 138.258C114.961 136.261 117.64 133.075 121.958 131.965C127.601 132.266 132.627 127.122 138.631 130.503C133.409 133.349 127.977 135.66 122.004 137.227C112.494 139.734 106.249 147.123 112.975 155.374C111.35 155.439 109.605 155.152 108.461 156.562C105.933 156.588 103.42 156.588 100.907 156.588Z" fill="#29182D"/>
<path d="M88.8695 104.51C88.8846 102.342 88.8996 100.162 88.9147 97.995C90.8257 93.778 86.2964 88.4253 91.9994 84.8872C91.9091 85.2658 91.9241 85.6575 91.9994 86.0361C91.9542 89.2086 92.1348 92.4072 91.8339 95.5536C91.4426 99.4833 93.3386 101.05 97.7324 100.593C97.7625 105.802 97.7776 111.024 97.8076 116.234C94.9637 116.051 92.3003 116.534 89.8476 117.826C89.5316 116.429 89.2156 115.032 88.8846 113.622C88.8695 112.748 88.8695 111.886 88.8545 111.011C88.8545 108.857 88.8695 106.69 88.8695 104.51Z" fill="#28111A"/>
<path d="M217.343 247.076C218.863 248.304 220.383 249.531 223.317 251.894C212.047 251.894 202.416 251.985 192.786 251.855C188.994 251.803 189.852 248.996 189.581 246.959C198.835 246.998 208.089 247.037 217.343 247.076Z" fill="#342231"/>
<path d="M265.42 247.207C266.984 248.369 268.534 249.518 271.8 251.946C264.321 251.946 258.784 251.855 253.246 251.985C250.763 252.038 247.483 250.967 246.761 254.544C245.422 254.596 244.067 254.662 242.728 254.714C236.769 254.244 237.913 250.288 237.702 246.998C242.563 246.672 247.423 246.189 252.178 247.586C255.097 250.105 258.001 250.131 260.905 247.56C262.335 246.724 263.885 246.959 265.42 247.207Z" fill="#342231"/>
<path d="M108.446 156.575C109.59 155.152 111.335 155.452 112.96 155.387C137.999 155.387 163.053 155.387 188.091 155.387C191.598 155.857 195.405 154.356 198.655 156.549C195.179 156.601 191.703 156.68 188.227 156.693C162.135 156.81 136.043 156.928 109.936 157.032C109.454 156.889 108.958 156.732 108.446 156.575Z" fill="#342231"/>
<path d="M109.951 157.032C136.043 156.915 162.135 156.81 188.242 156.693C191.718 156.68 195.194 156.601 198.67 156.549C199.151 156.732 199.633 156.902 200.114 157.084C198.7 157.398 197.3 157.985 195.886 157.985C168.65 158.037 141.415 158.024 114.179 157.972C112.765 157.959 111.365 157.359 109.951 157.032Z" fill="#977B7C"/>
<path d="M281.4 157.111C296.914 156.549 312.427 156.523 327.941 157.111C312.427 158.612 296.914 158.612 281.4 157.111Z" fill="#977B7C"/>
<path d="M343.019 156.667C350.542 154.643 358.051 154.578 365.559 156.693C363.558 156.836 361.542 156.993 359.541 157.137C358.547 157.137 357.539 157.137 356.546 157.124C352.047 156.98 347.533 156.823 343.019 156.667Z" fill="#342231"/>
<path d="M234.738 84.9917C232.225 89.0911 229.728 89.0911 227.215 84.9917C229.728 84.9917 232.24 84.9917 234.738 84.9917Z" fill="#28111A"/>
<path d="M293.423 246.92C290.895 250.797 288.367 250.784 285.854 246.92C288.367 246.92 290.895 246.92 293.423 246.92Z" fill="#342231"/>
<path d="M89.9227 119.837C92.4356 122.109 93.4889 124.38 89.8324 126.587C88.9296 124.328 89.5314 122.082 89.9227 119.837Z" fill="#28111A"/>
<path d="M356.531 246.985C354.545 250.392 352.544 250.392 350.557 246.985C352.544 246.985 354.545 246.985 356.531 246.985Z" fill="#28111A"/>
<path d="M364.055 246.998C363.814 248.277 363.317 249.348 361.482 249.152C360.037 248.996 359.796 247.99 359.586 246.998C361.075 246.998 362.565 246.998 364.055 246.998Z" fill="#28111A"/>
<path d="M260.905 247.573C258.001 250.145 255.097 250.105 252.178 247.599C255.082 246.737 257.986 246.75 260.905 247.573Z" fill="#28111A"/>
<path d="M397.49 150.152C399.085 151.914 399.085 153.677 397.505 155.439C397.505 153.677 397.49 151.914 397.49 150.152Z" fill="#563A3A"/>
<path d="M266.353 157.124C268.339 157.124 270.325 157.111 272.311 157.111C270.325 158.403 268.339 158.403 266.353 157.124Z" fill="#977B7C"/>
<path d="M240.772 157.11C242.262 157.11 243.752 157.097 245.241 157.097C243.767 158.312 242.277 158.312 240.772 157.11Z" fill="#977B7C"/>
<path d="M356.561 157.137C357.554 157.137 358.563 157.137 359.556 157.15C358.548 158.116 357.554 158.103 356.561 157.137Z" fill="#977B7C"/>
<path d="M221.211 237.977C222.219 237.977 223.212 237.977 224.22 237.977C223.212 239.034 222.219 239.034 221.211 237.977Z" fill="#977B7C"/>
<path d="M91.8339 246.972C91.1267 247.351 90.4044 247.742 89.6972 248.121C89.6671 246.698 90.7053 246.776 91.8339 246.972Z" fill="#342231"/>
<path d="M385.061 247.129C384.474 247.677 384.023 247.507 383.646 246.933C384.113 246.998 384.594 247.063 385.061 247.129Z" fill="#342231"/>
<path d="M92.0142 86.0362C91.924 85.6576 91.924 85.2659 92.0142 84.8873C92.4205 84.8481 92.8418 84.8481 93.2481 84.8873C92.8268 85.2659 92.4205 85.6576 92.0142 86.0362Z" fill="#977B7C"/>
<path d="M382.127 157.254C382.638 157.189 383.135 157.124 383.647 157.058C383.21 157.62 382.729 157.75 382.127 157.254Z" fill="#977B7C"/>
<path d="M379.087 237.951C379.599 237.951 380.11 237.938 380.622 237.938C380.125 238.525 379.614 238.538 379.087 237.951Z" fill="#977B7C"/>
<path d="M355.026 238.016C355.538 238.016 356.05 238.003 356.561 238.003C356.065 238.577 355.553 238.59 355.026 238.016Z" fill="#977B7C"/>
<path d="M242.292 357.579C242.713 360.764 245.527 360.242 247.92 360.255C253.608 360.294 259.311 360.49 264.968 360.216C269.588 359.994 271.348 361.6 270.852 365.425C269.332 365.595 267.827 365.777 266.308 365.947C242.473 365.856 218.623 365.777 194.788 365.673C192.064 365.66 189.34 365.516 186.617 365.438C185.278 361.952 185.534 359.994 190.966 360.177C201.589 360.542 212.243 360.333 222.896 360.242C225.469 360.216 228.448 361.13 230.359 358.61C231.383 358.284 232.406 357.957 233.414 357.631C237.537 357.265 235.581 353.988 236.709 352.2C240.05 352.239 238.56 356.73 242.111 356.391L242.668 356.299C242.533 356.73 242.412 357.161 242.292 357.579Z" fill="#342231"/>
<path d="M233.399 357.631C232.376 357.957 231.352 358.284 230.344 358.61C188.753 358.414 147.163 358.088 105.587 358.153C99.2219 358.166 97.7021 356.626 97.7473 351.26C98.0181 321.258 97.9579 291.243 97.7021 261.242C97.657 256.307 98.8608 254.544 105.075 254.583C145.673 254.831 186.271 254.74 226.853 254.623C231.292 254.61 233.594 255.053 233.564 259.78C233.309 292.405 233.414 325.018 233.399 357.631ZM117.444 353.766C118.437 357.748 122.154 356.273 124.802 356.286C146.094 356.391 167.401 356.534 188.708 356.273C199.783 356.13 210.873 357.422 221.963 354.08C227.771 352.33 230.073 350.45 230.344 345.333C230.901 334.914 229.562 324.548 230.043 314.104C230.781 298.045 230.194 281.935 230.269 265.837C230.284 263.187 229.742 260.498 226.462 260.38C220.699 260.171 215.493 257.416 210.045 257.364C179.484 257.038 148.908 257.064 118.332 257.286C106.55 257.377 100.922 262.913 100.922 273.266C100.907 296.753 100.907 320.227 100.922 343.714C100.922 345.241 100.516 346.886 101.058 348.257C102.322 351.495 104.097 354.837 107.964 356.09C110.131 356.795 113.697 357.448 114.465 353.766C115.443 353.753 116.436 353.753 117.444 353.766Z" fill="#B08E7E"/>
<path d="M242.728 254.714C244.067 254.662 245.422 254.596 246.761 254.544C287.524 254.583 328.302 254.805 369.066 254.518C376.153 254.466 377.627 256.202 377.552 262.077C377.221 292.027 377.447 321.976 377.507 351.939C377.507 355.242 378.184 358.349 372.12 358.284C340.355 357.944 308.605 357.892 276.841 357.735C276.841 357.278 276.841 356.821 276.841 356.364C303.896 356.364 330.951 356.116 357.991 356.495C367.17 356.625 374.829 350.059 374.723 342.33C374.362 317.772 374.603 293.215 374.573 268.644C374.558 262.299 369.637 257.312 362.43 257.273C327.866 257.116 293.287 256.985 258.724 257.364C251.29 257.442 244.534 261.947 244.985 269.636C245.903 285.46 245.241 301.361 245.226 317.224C244.383 317.237 243.526 317.237 242.683 317.25C241.675 297.223 243.3 277.156 241.72 257.129C241.66 256.346 242.382 255.523 242.728 254.714Z" fill="#B08E7E"/>
<path d="M276.84 356.352C276.84 356.808 276.84 357.265 276.84 357.722C265.811 357.722 254.781 357.722 243.751 357.722C243.39 357.252 243.014 356.769 242.653 356.299L242.096 356.391C242.126 351.612 242.156 346.821 242.186 342.043C244.684 338.087 244.714 334.144 242.156 330.201C242.171 329.366 242.171 328.517 242.186 327.681C243.781 326.807 243.812 325.906 242.217 325.005C242.367 322.42 242.518 319.835 242.668 317.237C243.511 317.224 244.368 317.224 245.211 317.211C245.226 327.629 245.301 338.061 245.211 348.479C245.166 353.91 248.04 356.43 254.3 356.352C261.823 356.273 269.332 356.352 276.84 356.352Z" fill="#B4968D"/>
<path d="M240.953 341.886C237.793 343.374 240.637 347.056 236.89 349.08C235.626 342.526 235.746 336.181 236.619 330.071C237.266 325.567 239.388 330.58 240.938 330.371C240.938 334.209 240.953 338.048 240.953 341.886Z" fill="#342231"/>
<path d="M240.953 341.886C240.953 338.048 240.938 334.209 240.938 330.371C241.344 330.266 241.75 330.214 242.172 330.201C244.73 334.144 244.7 338.087 242.202 342.043C241.78 342.029 241.359 341.977 240.953 341.886Z" fill="#B08E7E"/>
<path d="M88.7792 308.046C87.5754 307.902 86.3415 307.732 86.1609 306.414C85.9352 304.73 87.2594 304.351 88.7942 304.194C88.7792 305.474 88.7792 306.753 88.7792 308.046Z" fill="#B4968D"/>
<path d="M242.232 325.005C243.827 325.906 243.797 326.807 242.202 327.681C240.381 326.78 240.396 325.88 242.232 325.005Z" fill="#B08E7E"/>
<path d="M248.145 213.772C244.233 217.349 244.94 221.879 245.166 226.122C245.422 230.848 242.638 231.527 238.259 231.305C234.317 231.109 229.757 232.049 230.194 226.436C230.42 223.576 229.637 220.835 228.463 218.171C227.726 215.991 226.853 213.889 224.371 212.688L224.401 212.675C224.16 211.121 223.001 210.325 221.391 209.881C218.818 207.401 215.462 206.017 212.002 204.724C197.541 199.28 182.99 194.019 170.321 185.598C165.37 182.308 160.149 181.929 155.439 186.029C146.29 193.979 136.87 195.611 126.548 187.569C122.214 184.201 118.151 185.989 114.781 189.005C111.862 191.616 110.854 194.933 111.636 198.575C111.516 207.466 111.109 216.37 111.395 225.261C111.531 229.634 110.432 231.527 104.91 231.475C99.9894 231.436 97.7022 230.653 97.8527 225.796C98.3041 211.487 98.2589 197.165 98.4094 182.843C99.7486 183.078 100.335 183.796 100.892 184.919C104.88 192.948 106.896 193.509 113.321 187.465C118.076 182.974 124.532 182.699 129.091 184.632C137.668 188.261 143.928 185.794 151.256 182.556C154.641 181.054 158.839 177.725 162.661 179.527C167.793 181.955 173.36 183.653 178.145 186.864C183.698 190.572 189.807 193.888 197.165 194.541C206.178 198.04 215.192 201.526 224.205 205.024C224.28 206.696 225.288 207.57 227.214 207.623V207.636C227.651 210.221 229.848 212.101 231.052 214.372C233.068 218.132 237.356 219.712 241.163 216.109C243.451 213.941 246.219 211.304 245.301 207.649L245.316 207.636C248.221 207.884 250.463 207.061 252.644 205.22C256.211 202.231 260.966 201.134 265.54 199.567C275.968 196.003 286.757 192.504 295.364 186.146C306.649 177.804 307.868 177.294 321.11 183.248C328.212 186.446 335.013 188.522 343.395 184.645C351.219 181.015 359.435 184.828 364.04 191.721C365.59 194.045 365.544 196.212 365.575 198.51C365.65 207.179 365.665 215.848 365.59 224.516C365.575 227.219 366.763 228.472 369.983 228.472C373.038 228.472 374.467 227.584 374.693 224.751C374.889 222.454 372.888 219.32 377.131 218.067C378.455 230.874 378.455 230.875 364.13 231.358C359.826 230.3 360.925 227.206 361.406 224.895C363.197 216.252 362.249 207.57 362.309 198.914C362.324 196.382 361.813 193.601 360.579 191.342C356.802 184.462 351.31 184.645 341.303 191.695C341.303 191.695 341.363 191.76 341.363 191.773C335.555 194.11 330.243 193.105 325.157 190.089C321.862 188.144 318.522 186.238 315.121 184.423C312.683 183.117 309.93 182.373 307.387 184.044C293.122 193.483 276.314 198.588 260.304 205.09C258.693 205.873 257.083 206.669 255.473 207.453C255.052 207.505 254.661 207.636 254.3 207.844C253.562 208.563 252.84 209.281 252.103 209.999C251.35 210.521 250.613 211.043 249.861 211.565C249.304 212.296 248.732 213.041 248.145 213.772Z" fill="#806768"/>
<path d="M377.116 218.067C372.872 219.32 374.874 222.454 374.678 224.751C374.452 227.584 373.023 228.485 369.968 228.472C366.748 228.472 365.544 227.219 365.574 224.516C365.65 215.847 365.635 207.179 365.559 198.51C365.544 196.199 365.574 194.045 364.025 191.721C359.435 184.814 351.204 181.015 343.38 184.645C335.013 188.522 328.197 186.446 321.095 183.248C307.853 177.294 306.649 177.804 295.349 186.146C286.757 192.491 275.953 195.99 265.525 199.567C260.935 201.134 256.196 202.231 252.629 205.22C250.447 207.048 248.205 207.884 245.301 207.635C249.59 199.528 258.859 197.374 267.18 194.802C275.336 192.282 282.634 188.483 290.323 185.271C292.956 184.175 293.994 181.786 293.122 179.122C292.234 176.407 289.721 176.302 287.133 176.302C282.122 176.302 277.111 176.328 272.101 176.276C269.693 176.25 266.834 176.851 266.262 173.665C266.322 173.312 266.413 172.96 266.518 172.607C269.407 172.594 272.311 172.581 275.2 172.555C280.286 174.2 285.387 174.161 290.488 172.594C316.942 172.581 343.41 172.686 369.863 172.451C375.716 172.399 377.823 173.887 377.627 179.109C377.161 192.086 377.251 205.077 377.116 218.067Z" fill="#8D685B"/>
<path d="M197.15 194.541C189.792 193.888 183.683 190.572 178.13 186.864C173.345 183.666 167.778 181.955 162.647 179.527C158.825 177.725 154.626 181.054 151.241 182.556C143.913 185.794 137.653 188.261 129.076 184.632C124.532 182.699 118.061 182.974 113.306 187.465C106.896 193.522 104.865 192.948 100.877 184.919C100.321 183.796 99.7337 183.078 98.3945 182.843C97.4616 172.634 97.4465 172.555 109.199 172.542C136.946 172.516 164.708 172.581 192.455 172.607C193.072 173.286 193.689 173.286 194.306 172.607C196.714 172.594 199.121 172.581 201.514 172.581C204.614 174.109 207.713 174.109 210.798 172.581C212.182 172.594 213.567 172.594 214.951 172.607C215.056 172.96 215.147 173.312 215.207 173.665C214.635 176.864 211.761 176.237 209.369 176.25C201.604 176.302 193.855 176.198 186.09 176.315C183.788 176.354 180.658 175.232 179.5 177.973C178.326 180.728 181.305 182.007 182.87 183.914C186.662 188.548 194.818 188.587 197.15 194.541Z" fill="#8D685B"/>
<path d="M224.055 224.595C225.966 229.96 223.393 231.227 217.374 231.162C195.585 230.927 173.797 231.149 152.008 231.188C142.995 231.096 133.981 230.718 124.998 230.992C119.31 231.175 117.204 229.177 117.489 224.569C119.852 222.767 122.726 223.615 125.359 223.589C138.766 223.446 152.174 223.433 165.581 223.38C181.11 223.354 196.638 223.315 212.167 223.289C215.538 223.341 218.908 223.394 222.264 223.459C222.866 223.837 223.468 224.216 224.055 224.595Z" fill="#E9E8F0"/>
<path d="M222.264 223.459C218.893 223.407 215.523 223.354 212.167 223.289C212.393 222.676 212.393 221.84 212.874 221.487C221.015 215.443 220.579 211.147 211.099 207.374C204.027 204.567 196.518 202.531 189.687 199.358C185.157 197.256 180.764 197.008 176.009 197.23L176.024 197.217C170.607 188.862 163.835 187.151 153.964 191.303C148.472 193.614 142.859 195.781 136.434 194.998C132.567 194.528 128.609 193.496 124.953 195.742C122.997 195.807 121.056 195.873 119.1 195.938C115.819 196.081 115.925 198.131 115.925 200.142C115.925 204.267 116.045 208.393 115.895 212.505C115.684 218.263 118.769 220.769 125.374 220.691C136.615 220.547 147.87 220.613 159.11 220.704C161.638 220.717 164.949 219.738 165.551 223.407C152.143 223.459 138.736 223.472 125.329 223.616C122.696 223.642 119.837 222.793 117.459 224.595C112.885 224.229 113.096 221.344 112.855 218.406C112.313 211.8 114.42 205.077 111.591 198.588C110.809 194.946 111.817 191.643 114.751 189.018C118.137 185.989 122.199 184.214 126.518 187.582C136.84 195.624 146.26 193.993 155.409 186.042C160.119 181.942 165.34 182.321 170.291 185.611C182.96 194.032 197.511 199.293 211.972 204.737C215.433 206.043 218.788 207.414 221.361 209.907C221.181 211.8 222.098 212.793 224.371 212.701L224.341 212.714C223.347 216.239 226.041 220.326 222.264 223.459Z" fill="#29182D"/>
<path d="M231.864 172.594C234.227 172.634 236.589 172.66 238.966 172.699C239.087 173.051 239.177 173.417 239.222 173.783C235.25 177.203 223.468 177.151 219.676 173.678C223.708 173.117 227.997 174.631 231.864 172.594Z" fill="#8D685B"/>
<path d="M239.222 173.77C239.162 173.404 239.072 173.038 238.967 172.686C248.16 172.059 257.354 172.138 266.548 172.595C266.428 172.947 266.353 173.286 266.292 173.652C265.314 173.652 264.336 173.652 263.358 173.665C256.828 173.691 250.297 173.704 243.767 173.73C242.247 173.743 240.727 173.757 239.222 173.77Z" fill="#563A3A"/>
<path d="M231.864 172.594C227.997 174.631 223.709 173.117 219.676 173.678C218.186 173.678 216.697 173.678 215.222 173.678C215.162 173.313 215.086 172.96 214.966 172.621C220.594 172.608 226.236 172.594 231.864 172.594Z" fill="#563A3A"/>
<path d="M290.519 172.608C285.418 174.174 280.316 174.213 275.23 172.568C280.332 172.568 285.418 172.581 290.519 172.608Z" fill="#563A3A"/>
<path d="M210.813 172.594C207.713 174.122 204.614 174.122 201.529 172.594C204.629 172.594 207.713 172.594 210.813 172.594Z" fill="#563A3A"/>
<path d="M194.306 172.621C193.689 173.299 193.072 173.299 192.455 172.621C193.072 172.621 193.689 172.621 194.306 172.621Z" fill="#563A3A"/>
<path d="M386.505 257.142C389.109 261.085 389.094 265.015 386.52 268.958C386.52 265.028 386.505 261.085 386.505 257.142Z" fill="#B4968D"/>
<path d="M386.551 281.948C389.094 285.864 389.003 289.781 386.611 293.711C386.596 289.794 386.581 285.877 386.551 281.948Z" fill="#B4968D"/>
<path d="M386.566 323.726C388.778 325.475 388.763 327.211 386.566 328.961C386.581 327.211 386.566 325.462 386.566 323.726Z" fill="#B4968D"/>
<path d="M386.581 334.157C388.763 335.906 388.763 337.656 386.566 339.405C386.566 337.656 386.581 335.906 386.581 334.157Z" fill="#B4968D"/>
<path d="M386.49 249.309C388.612 250.641 388.597 251.972 386.49 253.304C386.475 251.985 386.475 250.654 386.49 249.309Z" fill="#B4968D"/>
<path d="M242.653 356.299C243.014 356.769 243.39 357.252 243.752 357.722C243.27 357.67 242.774 357.631 242.292 357.579C242.412 357.161 242.533 356.73 242.653 356.299Z" fill="#B08E7E"/>
<path d="M344.538 149.656C343.019 149.081 341.499 149.108 339.964 149.591C328.829 148.859 317.709 149.094 306.574 149.512C300.931 149.747 297.26 145.583 292.113 144.695C289.721 143.011 286.757 142.554 283.913 141.888C277.247 140.334 273.816 142.371 272.206 148.69C254.285 151.653 254.269 151.653 254.254 135.399C254.254 133.023 254.044 130.569 254.601 128.271C257.159 117.604 258.468 116.991 270.325 120.842C274.839 122.304 279.398 123.127 284.229 122.827C290.865 122.435 296.522 121.09 298.238 114.393C298.659 112.748 299.246 110.333 302.451 110.646C307.958 114.145 308.334 118.035 303.941 122.553C302.812 123.714 300.901 125.373 303.354 126.965C305.867 128.597 308.094 127.592 309.824 125.764C310.757 124.785 311.284 123.506 312.157 122.474C313.104 121.364 313.827 119.38 316.069 120.594C318.747 122.043 316.942 123.427 315.663 124.772C314.444 126.051 311.148 127.109 314.489 129.159C316.731 130.529 319.454 133.454 322.028 130.255C325.458 125.986 328.408 126.978 332.32 129.485C334.442 130.843 337.27 131.391 339.783 132.292C342.191 133.258 344.704 134.054 346.976 135.203C354.831 139.133 356.531 142.749 354.093 149.865C352.408 149.225 350.708 149.108 348.977 149.773C347.518 149.747 346.028 149.708 344.538 149.656Z" fill="#E9E8F0"/>
<path d="M221.481 121.56C221.421 127.187 221.361 132.801 221.301 138.428C219.284 139.708 219.315 141.039 221.165 142.41C221.15 143.219 221.15 144.042 221.135 144.851C218.773 144.812 216.937 145.857 214.936 146.797C211.776 148.259 209.037 147.985 206.705 144.878C200.581 136.705 197.752 136.274 188.272 141.914C182.298 145.465 176.279 149.695 169.087 149.982C153.347 150.609 137.562 150.152 121.793 150.126C119.461 150.126 117.173 149.969 116.331 147.606C115.473 145.178 116.647 143.246 118.934 142.031C120.815 141.039 122.937 140.243 125.073 139.812C136.84 137.436 148.502 134.12 157.651 127.396C166.875 120.62 175.301 121.116 185.052 125.307C191.026 127.866 196.924 127.422 202.747 124.028C206.419 121.887 210.753 120.516 214.966 119.223C217.539 118.427 220.594 118.127 221.481 121.56Z" fill="#25487D"/>
<path d="M221.481 121.56C220.594 118.127 217.524 118.44 214.966 119.21C210.753 120.503 206.419 121.874 202.748 124.015C196.924 127.409 191.026 127.853 185.052 125.294C175.301 121.116 166.875 120.62 157.651 127.383C148.502 134.107 136.855 137.423 125.073 139.799C122.937 140.23 120.8 141.026 118.934 142.018C116.632 143.233 115.458 145.165 116.331 147.593C117.173 149.956 119.461 150.113 121.793 150.113C137.563 150.139 153.347 150.596 169.087 149.969C176.279 149.682 182.298 145.439 188.272 141.901C197.752 136.274 200.581 136.692 206.705 144.865C209.037 147.972 211.776 148.246 214.936 146.784C216.952 145.844 218.773 144.799 221.135 144.838C221.602 148.664 219.555 150.335 215.207 150.23C211.054 150.126 206.901 150.152 202.748 150.126C202.733 146.314 200.31 145.282 196.398 146.026C194.953 146.301 192.816 146.653 192.982 147.998C193.358 151.092 196.849 149.617 198.835 150.426C198.008 153.338 195.284 152.75 192.952 152.802C190.725 152.855 188.438 152.737 188.091 155.4C163.053 155.4 137.999 155.4 112.96 155.4C106.249 147.149 112.479 139.76 121.989 137.253C127.962 135.686 133.394 133.363 138.616 130.53C144.123 127.514 149.631 124.511 155.123 121.495C157.35 121.43 159.502 121.613 161.322 119.915C167.447 114.236 174.549 115.777 181.907 117.84C189.416 119.941 197.692 120.19 204.674 117.983C210.226 116.221 215.402 116.129 220.624 116.482C225.288 116.769 225.695 119.263 221.481 121.56Z" fill="#151E4C"/>
<path d="M365.71 149.669C364.762 147.528 363.799 145.387 362.851 143.246C362.836 141.078 362.415 138.99 360.985 137.149C357.268 129.694 348.737 128.14 341.408 125.098C338.896 122.553 335.254 121.573 332.004 120.085C322.389 115.711 312.187 112.2 304.151 105.528C302.842 104.027 302.21 101.873 299.411 101.781C298.93 102.264 298.448 102.734 297.967 103.217C297.44 104.092 296.929 104.98 296.402 105.855C295.996 106.259 295.574 106.677 295.168 107.082C294.205 113.218 289.992 115.372 283.145 114.993C275.802 114.589 269.001 112.5 262.199 110.476C256.286 108.714 252.855 109.432 250.026 115.02C245.361 124.237 246.445 133.715 246.61 143.141C246.716 148.638 244.549 150.126 238.455 150.152C232.586 150.165 229.938 149.238 230.269 143.481C230.796 134.42 230.314 125.307 230.269 116.221C234.001 116.704 233.278 119.25 233.203 121.286C233.113 123.793 233.609 125.934 235.761 127.775C236.694 128.571 236.574 130.699 238.68 129.851C239.929 129.355 241.72 127.997 241.615 127.187C240.998 122.239 245.497 118.414 245.256 113.623L245.271 113.61C249.289 113.205 247.995 110.463 248.296 108.426C253.668 105.006 260.439 104.327 265.705 106.285C273.018 109.001 280.136 107.97 287.359 108.374C289.345 108.361 290.338 107.5 290.353 105.776C290.368 104.915 290.383 104.053 290.398 103.191C302.466 97.3162 301.924 97.9167 312.864 105.358C319.53 109.889 325.895 115.933 335.525 116.221C340.536 118.414 345.531 120.594 350.542 122.788C356.967 128.18 363.588 133.389 366.733 141.052C367.44 142.789 368.885 145.361 372.165 144.695C375.746 143.964 374.528 141.248 374.558 139.29C374.678 129.289 374.528 119.302 374.678 109.301C374.708 107.16 373.188 104.314 377.071 103.217C377.206 117.291 377.146 131.378 377.552 145.452C377.718 150.975 373.519 149.695 370.029 149.891C369.096 149.891 368.178 149.891 367.245 149.891C366.718 149.839 366.222 149.747 365.71 149.669Z" fill="#806768"/>
<path d="M304.152 105.528C312.172 112.199 322.389 115.698 332.004 120.085C335.269 121.573 338.896 122.553 341.424 125.098C341.439 126.913 341.454 128.728 341.469 130.543C340.912 131.13 340.37 131.718 339.814 132.318C337.301 131.404 334.487 130.869 332.35 129.511C328.438 127.018 325.489 126.025 322.058 130.281C319.485 133.48 316.746 130.556 314.519 129.185C311.179 127.135 314.474 126.078 315.693 124.798C316.972 123.453 318.778 122.083 316.099 120.62C313.857 119.406 313.135 121.391 312.187 122.5C311.299 123.532 310.787 124.811 309.854 125.79C308.124 127.618 305.897 128.61 303.384 126.991C300.946 125.412 302.842 123.741 303.971 122.579C308.38 118.061 307.989 114.171 302.481 110.672C302.12 108.74 303.173 107.147 304.152 105.528Z" fill="#342231"/>
<path d="M155.138 121.482C149.63 124.498 144.123 127.501 138.631 130.516C132.627 127.135 127.601 132.266 121.958 131.979C121.958 131.091 121.943 130.203 121.943 129.302C127.436 129.106 132.176 126.756 137.126 125.137C143.837 122.944 149.676 119.576 155.093 115.241C163.248 108.727 173.887 111.377 183.652 111.037C187.926 116.39 194.291 114.119 198.895 112.826C208.225 110.228 217.328 107.643 227.26 108.413C227.244 109.327 227.229 110.241 227.199 111.168C224.521 109.562 221.767 109.21 218.773 110.567C217.689 111.064 216.38 111.194 215.267 111.664C203.244 116.664 190.98 119.497 178.01 114.445C167.687 110.437 161.232 115.437 155.138 121.482Z" fill="#806768"/>
<path d="M227.184 111.168C227.199 110.254 227.214 109.34 227.245 108.413C229.547 108.374 230.675 109.967 231.849 111.181C235.641 115.111 239.764 116.991 245.256 113.636C245.512 118.427 241.013 122.252 241.615 127.2C241.72 128.01 239.914 129.367 238.68 129.864C236.574 130.699 236.694 128.584 235.761 127.788C233.61 125.947 233.113 123.806 233.203 121.299C233.278 119.249 234.001 116.704 230.269 116.234C229.231 114.549 228.208 112.865 227.184 111.168Z" fill="#8D685B"/>
<path d="M272.221 148.703C273.831 142.371 277.262 140.347 283.928 141.901C286.772 142.567 289.736 143.011 292.129 144.708C289.255 146.862 288.171 151.249 282.829 150.335C279.233 150.074 275.486 150.544 272.221 148.703Z" fill="#25487D"/>
<path d="M198.85 150.413C196.864 149.604 193.373 151.079 192.997 147.985C192.831 146.64 194.968 146.287 196.413 146.013C200.31 145.269 202.748 146.3 202.763 150.113C201.453 150.217 200.144 150.322 198.85 150.413Z" fill="#B4968D"/>
<path d="M221.181 142.41C219.33 141.039 219.3 139.707 221.316 138.428C223.197 139.799 223.152 141.13 221.181 142.41Z" fill="#151E4C"/>
<path d="M297.967 103.217C298.449 102.734 298.93 102.264 299.412 101.781C298.93 102.264 298.449 102.747 297.967 103.217Z" fill="#342231"/>
<path d="M295.168 107.095C295.574 106.69 295.996 106.272 296.402 105.867C295.996 106.272 295.59 106.69 295.168 107.095Z" fill="#342231"/>
<path d="M341.288 191.695C341.785 191.747 342.341 191.695 342.763 191.877C347.157 193.653 355.117 188.026 356.185 195.585C356.832 200.155 361.948 204.137 358.713 209.189C357.93 210.403 358.427 211.67 358.833 212.962C360.428 218.106 357.073 220.639 351.927 220.547C330.966 220.143 309.945 222.088 289.014 219.464C281.009 218.459 273.139 220.352 265.194 220.926C263.81 221.03 263.448 222.323 263.268 223.433C260.273 223.485 257.279 223.537 254.3 223.576C253.773 220.848 253.231 218.119 252.705 215.39C259.356 209.92 267.105 205.808 275.291 202.452C285.839 198.131 297.711 196.068 305.912 187.856C307.973 185.794 311.389 186.224 314.173 187.83C317.273 189.619 320.372 191.381 323.472 193.157C328.016 195.755 338.294 194.959 341.333 191.773L341.288 191.695ZM336.323 216.709C338.068 216.709 339.829 216.709 341.574 216.709C354.093 216.709 357.133 213.38 354.364 202.714C354.199 202.087 353.823 201.486 353.732 200.847C353.085 196.055 351.129 195.063 345.802 197.57C336.097 202.126 326.361 202.648 317.453 195.481C313.917 192.635 309.734 192.582 305.792 195.154C298.524 199.894 290.458 203.17 281.821 205.625C275.697 207.374 269.798 209.764 263.87 211.996C262.124 212.662 259.265 213.276 259.656 215.182C260.198 217.871 263.373 216.761 265.329 216.683C288.999 215.665 312.653 220.339 336.323 216.709Z" fill="#151E4C"/>
<path d="M254.3 223.563C257.294 223.511 260.289 223.459 263.268 223.42C291.316 223.498 319.364 223.537 347.413 223.746C350.272 223.772 355.147 221.696 354.966 227.167C354.801 231.997 350.573 230.966 347.262 230.979C317.453 231.149 287.63 231.149 257.836 231.527C252.569 231.592 250.463 230.352 251.23 225.848C252.253 225.091 253.277 224.334 254.3 223.563Z" fill="#E9E8F0"/>
<path d="M254.3 223.563C253.276 224.334 252.253 225.091 251.215 225.861C245.286 222.78 249.71 217.701 248.13 213.785C248.717 213.04 249.289 212.309 249.876 211.565C250.824 212.845 251.757 214.111 252.705 215.39C253.246 218.119 253.773 220.835 254.3 223.563Z" fill="#342231"/>
<path d="M222.264 223.459C226.041 220.325 223.347 216.239 224.355 212.688C226.838 213.889 227.711 215.991 228.448 218.171C225.785 219.699 229.11 224.307 224.055 224.582C223.468 224.216 222.866 223.837 222.264 223.459Z" fill="#342231"/>
<path d="M377.056 103.23C373.173 104.327 374.693 107.186 374.663 109.314C374.513 119.315 374.663 129.302 374.543 139.303C374.513 141.261 375.732 143.977 372.15 144.708C368.87 145.374 367.425 142.802 366.718 141.065C363.573 133.389 356.952 128.193 350.527 122.788C353.868 119.837 356.275 122.461 359.014 123.767C365.033 126.665 368.163 125.386 368.494 119.602C368.84 113.544 368.629 107.473 368.554 101.403C368.509 97.4598 366.041 95.3971 361.527 95.384C347.292 95.3448 333.057 95.384 318.823 95.3448C316.641 95.3448 315.001 95.841 313.932 97.6426C312.804 99.5618 313.737 101.115 315.106 102.369C316.596 103.74 318.552 104.771 320.267 105.92C325.383 109.314 332.531 110.502 335.525 116.234C325.895 115.933 319.53 109.902 312.864 105.372C301.924 97.9298 302.466 97.3293 290.398 103.204C291.602 96.6112 287.825 95.2535 280.918 95.2665C225.078 95.4623 169.237 95.371 113.412 95.371C104.248 95.371 101.103 97.9429 100.967 105.907C100.832 114.602 101.118 123.297 100.847 131.979C100.727 136 102.367 137.645 106.911 137.11L106.941 137.136C107.332 142.071 105.271 145.139 98.9962 144.995C96.9649 135.465 98.6201 125.803 97.8226 116.234C97.7925 111.025 97.7774 105.802 97.7473 100.593C98.3643 96.9637 96.4532 91.9634 103.947 92.1201C139.022 92.7207 174.097 92.9035 209.158 92.1332C212.227 92.786 215.282 92.799 218.321 92.0157C220.895 92.6685 223.438 92.9426 225.875 91.6501C226.778 91.6371 227.681 91.624 228.599 91.5979C245.166 92.9426 261.748 91.5587 278.33 91.7023C279.805 92.8251 281.4 92.5771 283.01 91.9765C285.929 92.7207 288.833 92.7207 291.752 91.9765C293.287 92.5379 294.852 92.6032 296.432 92.1201C322.479 92.2898 348.526 92.4726 374.588 92.6423C374.678 94.3526 374.272 96.311 377.161 96.6765C377.116 98.8698 377.086 101.05 377.056 103.23Z" fill="#8D685B"/>
<path d="M278.315 91.7152C261.733 91.5716 245.166 92.9555 228.584 91.6107C229.968 89.9266 232.045 90.1616 234.031 90.1616C247.017 90.1485 260.003 90.1485 272.988 90.1746C274.945 90.1746 277.081 89.8221 278.315 91.7152Z" fill="#28111A"/>
<path d="M291.752 91.9894C288.833 92.7205 285.929 92.7335 283.01 91.9894C285.929 89.1302 288.833 89.1171 291.752 91.9894Z" fill="#28111A"/>
<path d="M225.875 91.6632C223.438 92.9557 220.895 92.6815 218.322 92.0287C220.639 88.8693 223.227 89.6526 225.875 91.6632Z" fill="#28111A"/>
<path d="M377.146 96.6894C374.257 96.3239 374.663 94.3656 374.573 92.6553C378.094 92.7206 377.522 94.7442 377.146 96.6894Z" fill="#806768"/>
<path d="M199.603 88.5297C199.422 88.8822 199.332 89.4436 199.031 89.548C198.73 89.6525 198.233 89.3 197.812 89.1433C197.993 88.7908 198.083 88.2294 198.369 88.125C198.685 88.0205 199.181 88.373 199.603 88.5297Z" fill="#29182D"/>
<path d="M98.9814 145.008C105.256 145.139 107.318 142.071 106.926 137.149C108.506 137.201 110.207 136.875 111.335 138.271C109.921 141 108.085 143.624 108.491 146.81C108.882 149.8 106.625 150.4 103.932 150.622C99.4328 150.661 97.0102 149.303 98.9814 145.008Z" fill="#806768"/>
<path d="M386.596 147.567C386.611 142.358 386.626 137.149 386.656 131.939C390.959 135.491 390.929 144.081 386.596 147.567Z" fill="#B4968D"/>
<path d="M306.589 149.525C317.724 149.107 328.859 148.872 339.979 149.604C336.879 153.507 332.32 150.831 328.483 151.431C325.865 151.849 323.096 151.549 320.387 151.575C315.843 150.622 310.547 153.455 306.589 149.525Z" fill="#28111A"/>
<path d="M339.799 132.318C340.355 131.73 340.897 131.143 341.454 130.542C345.426 130.399 348.782 132.057 351.701 133.95C354.575 135.804 357.148 137.671 360.985 137.135C362.415 138.976 362.836 141.065 362.851 143.232C362.114 152.006 361.798 152.241 354.124 149.878C356.561 142.762 354.861 139.146 347.006 135.216C344.719 134.08 342.206 133.284 339.799 132.318Z" fill="#28111A"/>
<path d="M344.539 149.656C346.028 149.695 347.518 149.747 349.008 149.786C348.887 151 349.023 152.45 347.051 152.593C344.554 152.776 344.629 151.131 344.539 149.656Z" fill="#28111A"/>
<path d="M365.71 149.669C366.222 149.76 366.718 149.839 367.23 149.917C366.447 151.066 365.951 150.935 365.71 149.669Z" fill="#28111A"/>
<path d="M88.8694 104.51C88.8694 106.69 88.8694 108.857 88.8544 111.038C84.0994 108.857 84.0994 106.677 88.8694 104.51Z" fill="#B4968D"/>
<path d="M111.335 138.258C110.207 136.861 108.506 137.188 106.926 137.136L106.896 137.11C110.026 131.77 114.42 128.271 121.929 129.289C121.929 130.177 121.944 131.065 121.944 131.966C117.625 133.075 114.962 136.261 111.335 138.258Z" fill="#8D685B"/>
<path d="M117.444 353.766C116.436 353.766 115.443 353.766 114.435 353.766C108.07 351.952 106.881 347.591 106.896 342.513C106.941 320.801 106.911 299.077 106.911 277.365C106.911 268.148 113.472 262.443 124.306 262.43C151.587 262.391 178.867 262.534 206.148 262.325C212.062 262.286 216.877 265.054 222.384 266.007C225.334 266.516 228.253 269.336 226.387 273.227C225.108 275.89 225.454 278.828 225.951 281.595C228.042 293.28 226.628 295.03 213.356 296.361C206.57 297.053 200.31 302.706 201.785 306.832C204.192 313.555 209.173 317.12 217.419 317.133C222.776 317.146 224.476 319.13 224.28 323.465C224.055 328.674 224.1 333.883 224.265 339.092C224.431 344.484 222.715 347.931 215.688 349.249C210.286 350.268 205.035 351.547 199.512 351.116C185.91 350.059 172.352 352.97 158.689 351.273C152.429 350.503 146.802 354.693 139.97 353.923C132.552 353.101 124.953 353.753 117.444 353.766Z" fill="#C08F5F"/>
<path d="M117.444 353.766C124.953 353.753 132.552 353.1 139.94 353.936C146.772 354.706 152.399 350.502 158.659 351.286C172.337 352.97 185.88 350.072 199.482 351.129C205.005 351.56 210.256 350.28 215.658 349.262C222.7 347.943 224.401 344.497 224.235 339.105C224.085 333.896 224.024 328.673 224.25 323.477C224.446 319.143 222.745 317.158 217.389 317.145C209.143 317.132 204.147 313.568 201.754 306.845C200.28 302.719 206.54 297.066 213.326 296.374C226.598 295.029 228.012 293.293 225.92 281.608C225.424 278.84 225.063 275.903 226.357 273.24C228.238 269.349 225.304 266.529 222.354 266.02C216.847 265.067 212.032 262.299 206.118 262.338C178.837 262.547 151.557 262.403 124.276 262.443C113.442 262.456 106.881 268.161 106.881 277.378C106.881 299.09 106.911 320.814 106.866 342.525C106.851 347.604 108.04 351.965 114.405 353.779C113.652 357.461 110.071 356.808 107.904 356.103C104.052 354.85 102.262 351.508 100.998 348.27C100.471 346.899 100.862 345.254 100.862 343.727C100.862 320.24 100.847 296.766 100.862 273.279C100.877 262.926 106.49 257.377 118.272 257.299C148.848 257.077 179.424 257.051 209.985 257.377C215.432 257.429 220.639 260.184 226.402 260.393C229.682 260.51 230.224 263.2 230.209 265.85C230.134 281.935 230.721 298.045 229.983 314.117C229.502 324.561 230.841 334.927 230.284 345.345C230.013 350.463 227.711 352.343 221.903 354.093C210.813 357.435 199.723 356.155 188.648 356.286C167.356 356.56 146.049 356.417 124.742 356.299C122.154 356.273 118.437 357.735 117.444 353.766ZM213.852 313.607C218.337 313.372 221.241 311.257 221.12 307.171C220.985 302.98 218.066 300.265 213.13 300.238C208.18 300.212 206.254 303.346 206.208 307.132C206.148 311.244 208.917 313.372 213.852 313.607Z" fill="#BB906F"/>
<path d="M276.84 356.351C269.332 356.351 261.823 356.26 254.315 356.364C248.055 356.443 245.181 353.923 245.226 348.492C245.316 338.074 245.226 327.642 245.226 317.224C245.241 301.361 245.903 285.46 244.985 269.636C244.534 261.947 251.29 257.443 258.723 257.364C293.287 256.986 327.851 257.103 362.43 257.273C369.652 257.312 374.573 262.299 374.573 268.644C374.603 293.202 374.362 317.772 374.723 342.33C374.844 350.059 367.185 356.626 357.991 356.495C330.951 356.103 303.896 356.351 276.84 356.351ZM313.3 351.129C327.068 351.129 340.837 351.181 354.605 351.116C364.792 351.064 368.584 347.787 368.584 339.21C368.584 328.452 368.584 317.694 368.584 306.936C368.584 295.421 368.539 283.919 368.614 272.404C368.629 269.636 368.328 266.803 365.138 265.759C360.609 264.284 355.809 262.586 351.099 262.547C320.929 262.26 290.759 262.378 260.589 262.417C254.962 262.417 252.9 265.302 251.019 269.78C248.401 276.047 252.073 281.752 251.23 287.666C250.282 294.272 253.472 296.622 260.966 296.453C267.752 296.296 272.341 301.518 272.341 308.255C272.341 315.984 271.514 316.689 261.853 317.224C253.713 317.668 251.32 319.822 251.29 326.741C251.275 332.395 251.019 338.048 251.395 343.674C251.666 347.839 253.592 351.168 259.506 351.155C277.427 351.077 295.364 351.116 313.3 351.129ZM268.233 306.858C267.993 302.889 265.901 300.069 261.056 300.226C256.105 300.395 253.893 303.228 253.532 307.498C253.126 312.276 256.647 313.268 260.785 313.36C265.615 313.477 267.872 310.905 268.233 306.858Z" fill="#BB906F"/>
<path d="M215.222 173.678C216.711 173.678 218.201 173.678 219.676 173.678C223.468 177.151 235.25 177.203 239.222 173.783C240.727 173.769 242.247 173.756 243.751 173.743C247.995 177.477 259.25 177.438 263.343 173.678C264.321 173.678 265.299 173.678 266.277 173.665C266.834 176.851 269.708 176.25 272.116 176.276C277.126 176.328 282.137 176.302 287.148 176.302C289.736 176.302 292.264 176.42 293.137 179.122C294.009 181.786 292.971 184.175 290.338 185.271C282.649 188.47 275.351 192.282 267.195 194.802C258.859 197.374 249.59 199.541 245.316 207.636L245.301 207.649C239.267 208.51 233.248 208.536 227.214 207.636V207.623C227.184 205.899 226.176 205.038 224.205 205.024C215.192 201.526 206.178 198.04 197.165 194.541C194.833 188.588 186.677 188.548 182.885 183.927C181.32 182.021 178.356 180.741 179.514 177.986C180.688 175.245 183.803 176.354 186.105 176.328C193.854 176.198 201.619 176.302 209.383 176.263C211.761 176.25 214.65 176.877 215.222 173.678Z" fill="#93654B"/>
<path d="M252.705 215.39C251.757 214.111 250.824 212.845 249.876 211.565C250.628 211.043 251.365 210.521 252.118 209.999C253.653 209.894 254.164 209.006 254.3 207.844C254.646 207.635 255.037 207.505 255.473 207.453C257.715 207.622 259.957 207.818 260.304 205.09C276.299 198.601 293.122 193.496 307.387 184.044C309.915 182.373 312.668 183.117 315.121 184.423C318.522 186.237 321.862 188.13 325.157 190.089C330.243 193.105 335.555 194.11 341.363 191.773C338.324 194.959 328.032 195.755 323.502 193.157C320.403 191.381 317.288 189.606 314.203 187.83C311.419 186.224 307.988 185.794 305.942 187.856C297.741 196.081 285.869 198.131 275.321 202.452C267.105 205.795 259.356 209.92 252.705 215.39Z" fill="#29182D"/>
<path d="M227.199 207.623C233.233 208.523 239.252 208.497 245.286 207.636C246.219 211.278 243.436 213.915 241.148 216.096C237.341 219.699 233.053 218.119 231.037 214.359C229.833 212.088 227.636 210.195 227.199 207.623Z" fill="#8D685B"/>
<path d="M224.386 212.688C222.113 212.78 221.196 211.787 221.376 209.894C222.986 210.338 224.16 211.135 224.386 212.688Z" fill="#342231"/>
<path d="M224.19 205.024C226.176 205.037 227.169 205.899 227.199 207.622C225.258 207.557 224.265 206.696 224.19 205.024Z" fill="#8D685B"/>
<path d="M260.318 205.077C259.972 207.805 257.73 207.609 255.488 207.44C257.098 206.656 258.708 205.873 260.318 205.077Z" fill="#342231"/>
<path d="M254.315 207.831C254.179 209.006 253.668 209.881 252.133 209.985C252.855 209.267 253.577 208.549 254.315 207.831Z" fill="#342231"/>
<path d="M176.023 197.23C180.763 197.008 185.172 197.256 189.701 199.358C196.533 202.531 204.042 204.567 211.114 207.374C220.594 211.147 221.03 215.443 212.889 221.487C212.408 221.84 212.408 222.676 212.182 223.289C196.653 223.315 181.125 223.354 165.596 223.381C165.009 219.725 161.683 220.704 159.155 220.678C147.915 220.6 136.66 220.521 125.419 220.665C118.814 220.743 115.729 218.237 115.94 212.479C116.09 208.367 115.97 204.241 115.97 200.116C115.97 198.118 115.864 196.055 119.145 195.912C119.115 199.371 119.054 202.844 119.069 206.304C119.099 215.103 119.731 216.213 129.813 216.513C154.461 217.244 179.138 217.597 203.801 217.767C207.367 217.793 213.642 218.106 213.973 214.999C214.274 212.127 208.089 211.474 204.508 210.077C194.712 206.291 183.923 204.137 176.023 197.23Z" fill="#151E4C"/>
<path d="M176.023 197.23C183.923 204.137 194.712 206.291 204.478 210.103C208.059 211.5 214.259 212.153 213.943 215.025C213.612 218.132 207.337 217.819 203.771 217.793C179.108 217.623 154.431 217.271 129.783 216.54C119.701 216.239 119.069 215.13 119.039 206.33C119.024 202.87 119.084 199.398 119.114 195.938C121.071 195.873 123.012 195.807 124.968 195.742C132.07 202.152 141.505 203.223 149.164 199.097C158.463 194.071 166.529 192.243 176.038 197.204L176.023 197.23Z" fill="#25487D"/>
<path d="M176.039 197.204C166.529 192.243 158.448 194.071 149.164 199.097C141.52 203.236 132.085 202.152 124.968 195.742C128.625 193.496 132.582 194.528 136.449 194.998C142.874 195.768 148.487 193.614 153.979 191.303C163.85 187.138 170.622 188.862 176.039 197.204Z" fill="#151E4C"/>
<path d="M263.343 173.665C259.235 177.425 247.995 177.464 243.751 173.73C250.282 173.717 256.813 173.691 263.343 173.665Z" fill="#8D685B"/>
<path d="M121.928 129.302C114.42 128.284 110.011 131.783 106.896 137.122C102.352 137.645 100.697 136.013 100.832 131.992C101.103 123.31 100.802 114.615 100.952 105.92C101.088 97.9558 104.233 95.3969 113.397 95.3839C169.237 95.3839 225.078 95.4622 280.903 95.2794C287.81 95.2533 291.587 96.6241 290.383 103.217C290.368 104.079 290.353 104.941 290.338 105.802C288.412 105.867 287.419 106.729 287.344 108.4C280.121 107.996 273.004 109.014 265.691 106.311C260.424 104.353 253.653 105.045 248.281 108.452C244.233 108.844 245.542 111.599 245.256 113.636L245.241 113.649C239.749 117.004 235.626 115.124 231.834 111.194C230.66 109.98 229.517 108.374 227.23 108.426C222.354 103.243 215.748 105.437 210.467 106.599C201.574 108.531 193.027 111.547 183.637 111.051C173.887 111.39 163.233 108.74 155.078 115.254C149.661 119.589 143.822 122.957 137.111 125.151C132.161 126.756 127.421 129.106 121.928 129.302Z" fill="#93654B"/>
<path d="M335.51 116.247C332.531 110.515 325.368 109.34 320.252 105.933C318.537 104.784 316.581 103.765 315.091 102.382C313.722 101.128 312.789 99.5746 313.917 97.6554C314.986 95.8538 316.626 95.3446 318.808 95.3577C333.042 95.3968 347.277 95.3577 361.512 95.3968C366.026 95.4099 368.494 97.4727 368.539 101.415C368.614 107.486 368.825 113.557 368.479 119.615C368.148 125.412 365.003 126.678 358.999 123.78C356.275 122.461 353.853 119.837 350.512 122.8C345.517 120.62 340.521 118.44 335.51 116.247Z" fill="#93654B"/>
<path d="M360.985 137.136C357.148 137.671 354.575 135.804 351.701 133.95C348.782 132.057 345.426 130.399 341.454 130.543C341.439 128.728 341.424 126.913 341.409 125.098C348.737 128.127 357.269 129.694 360.985 137.136Z" fill="#29182D"/>
<path d="M245.271 113.635C245.557 111.586 244.248 108.844 248.296 108.452C247.995 110.489 249.289 113.231 245.271 113.635Z" fill="#8D685B"/>
<path d="M287.344 108.4C287.419 106.729 288.412 105.868 290.338 105.802C290.338 107.513 289.33 108.387 287.344 108.4Z" fill="#8D685B"/>
<path d="M183.637 111.037C193.042 111.52 201.589 108.518 210.467 106.585C215.748 105.437 222.354 103.23 227.23 108.413C217.298 107.656 208.195 110.241 198.865 112.826C194.261 114.119 187.911 116.39 183.637 111.037Z" fill="#8D685B"/>
<path d="M336.323 216.709C312.668 220.339 288.999 215.665 265.344 216.657C263.388 216.735 260.213 217.845 259.672 215.156C259.28 213.25 262.124 212.636 263.885 211.97C269.813 209.738 275.712 207.348 281.836 205.599C290.473 203.145 298.524 199.868 305.807 195.128C309.749 192.57 313.932 192.609 317.468 195.455C326.376 202.622 336.127 202.1 345.817 197.544C351.144 195.037 353.1 196.042 353.747 200.821C353.838 201.46 354.214 202.061 354.379 202.688C357.163 213.354 354.124 216.683 341.589 216.683C339.814 216.709 338.068 216.709 336.323 216.709Z" fill="#25487D"/>
<path d="M213.852 313.608C208.917 313.373 206.148 311.245 206.193 307.132C206.254 303.346 208.18 300.213 213.115 300.239C218.051 300.265 220.97 302.967 221.105 307.171C221.241 311.258 218.337 313.373 213.852 313.608Z" fill="#28111A"/>
<path d="M313.3 351.129C295.364 351.116 277.427 351.09 259.506 351.142C253.593 351.155 251.666 347.826 251.396 343.661C251.019 338.034 251.275 332.368 251.29 326.728C251.305 319.809 253.713 317.668 261.853 317.211C271.529 316.675 272.341 315.984 272.341 308.242C272.341 301.505 267.767 296.283 260.966 296.439C253.472 296.609 250.282 294.259 251.23 287.653C252.088 281.739 248.401 276.034 251.019 269.767C252.9 265.289 254.947 262.404 260.589 262.404C290.759 262.377 320.929 262.247 351.099 262.534C355.809 262.573 360.609 264.27 365.138 265.746C368.328 266.79 368.629 269.61 368.614 272.391C368.539 283.906 368.584 295.408 368.584 306.923C368.584 317.681 368.584 328.439 368.584 339.196C368.584 347.774 364.792 351.051 354.605 351.103C340.837 351.181 327.069 351.129 313.3 351.129Z" fill="#C08F5F"/>
<path d="M268.233 306.858C267.872 310.892 265.615 313.464 260.785 313.36C256.647 313.268 253.126 312.276 253.532 307.498C253.893 303.228 256.105 300.395 261.056 300.226C265.901 300.069 267.993 302.902 268.233 306.858Z" fill="#342231"/>
</g>
<defs>
<clipPath id="clip0_6_2324">
<rect width="477" height="470" fill="white"/>
</clipPath>
</defs>
</svg>
