<svg version="1.2" xmlns="http://www.w3.org/2000/svg" viewBox="0 0 477 470" width="477" height="470">
	<defs>
		<clipPath clipPathUnits="userSpaceOnUse" id="cp1">
			<path d="m0 0h477v470h-477z"/>
		</clipPath>
	</defs>
	<style>
		.s0 { fill: #29182d } 
		.s1 { fill: #28111a } 
		.s2 { fill: #342231 } 
		.s3 { fill: #b4968d } 
		.s4 { fill: #977b7c } 
		.s5 { fill: #b08e7e } 
		.s6 { fill: #563a3a } 
		.s7 { fill: #fdfdfd } 
		.s8 { fill: #806768 } 
		.s9 { fill: #bb906f } 
		.s10 { fill: #8d685b } 
		.s11 { fill: #e9e8f0 } 
		.s12 { fill: #25487d } 
		.s13 { fill: #151e4c } 
		.s14 { fill: #c08f5f } 
		.s15 { fill: #93654b } 
	</style>
	<g id="Clip-Path" clip-path="url(#cp1)">
		<g>
			<path class="s0" d="m68.72 341.96c-0.13-17.78-0.38-35.56-0.36-53.33 0.02-67.05 0.11-134.1 0.2-201.16 0-2.15 0.27-4.31 0.4-6.47q3.06 0.02 6.13 0.05c0.49 1.32-0.44 3.11 1.68 3.92q-0.04 0.65-0.1 1.3c-2.11 0.26-2.83 1.41-2.83 3.15q0.02 13.16 0 26.32c0 1.73 0.75 2.87 2.84 3.13 0.11 32.1 0.3 64.21 0.3 96.3 0 50.54-0.13 101.09-0.21 151.63-3.64-0.47-2.9-2.95-2.93-4.99-0.06-5.13-0.21-10.26 0.04-15.38 0.17-3.39-1.43-4.73-5.16-4.47z"/>
			<path class="s0" d="m315.98 67.75q1.47 0 2.93 0c2.05 2.41 5.04 1.46 7.65 1.48 14.52 0.09 29.04 0.07 43.56 0.08 0.9 3.96 4.56 2.18 7.16 2.56 2.45 0.35 5.73-0.89 6.35 2.69-5.49 0.09-11 0.25-16.49 0.26-61.76 0.05-123.52 0.05-185.28 0.11-29.99 0.02-59.98 0.13-89.95 0.2-0.84-2.63 3.14-3.43 2.95-5.82 11.52-0.01 23.05 0.03 34.56-0.08 2.6-0.02 5.61 0.94 7.63-1.51q2.21-0.78 4.41 0c11.04 2.6 22.1 2.49 33.16 0.05q2.22-0.78 4.44 0c2.06 2.39 5.06 1.46 7.66 1.46q60.82 0.09 121.63 0c2.59 0 5.6 0.94 7.63-1.48z"/>
			<path class="s0" d="m321.94 382.64q-30.8 0.87-61.61-0.02c-1.47-2.14-3.97-1.25-6.06-1.51q-0.23-3.08-0.45-6.15 5.48-0.29 10.98-0.57 5.28-0.02 10.57-0.03 2.97-0.01 5.95-0.02 21.84 0.02 43.67 0.05 35.32 0.3 70.63 0.61c-0.61 2.75-3.19 2.37-5.26 2.2-5.36-0.43-9.12 2.51-10.31 5.9-1.23 3.51 0.71 7.6 5.18 9.79q-0.02 2.63-0.03 5.24-1.6 0.65 0.01 1.28 0.01 1.31 0.02 2.62c-2.56 2.46-2.05 5.08-0.53 7.76-10.11 2.95-20.48 0.82-30.73 1.11-2.61 0.06-2.99-2.52-3.73-4.34-2.38-5.9-5.14-11.71-7.06-17.71-1.41-4.48-3.86-6.41-9.31-5.89-3.42 0.33-6.92-0.16-10.4-0.29q-0.74-1.55-1.53-0.03zm54.42 18.02c2.17-5.14 1.73-10.33 0.21-15.51-0.79-2.14-3.2-1.55-4.9-2.18 0.86-5.25-2.48-6.39-7.54-5.73-4.42 0.59-11.5-2.53-10.68 5.6-0.95 0.64-2.32 1.15-1.87 2.46q2.6 7.4 5.4 14.74c0.39 1.04 1.42 1.97 2.76 1.86 5.55-0.45 11.33 1.54 16.62-1.24z"/>
			<path class="s1" d="m195.65 382.57c-17.5 0.13-35.03 0.66-52.52 0.22-7.48-0.18-11.83 1.42-13.14 7.98-0.21 1.03-0.93 1.98-1.41 2.97-1.73-8.73-5.48-1.99-8.5-0.83 2.34-9.49 2.34-9.48-9.59-9.59-2.19-0.01-4.39-0.15-6.57-0.24 0.6-4.1-0.82-6.53-6.25-5.89-1.91 0.22-3.86 0.04-5.81 0.04-4.37-1.22-9.93 2.58-13.45-2.35q12.74-0.18 25.48-0.36 37.63-0.01 75.26-0.03 4.47 0.23 8.93 0.45c0.51 0.45 1.26 0.82 1.5 1.36 0.36 0.81-0.46 0.84-1.17 0.93-2.8 0.35-6.07-0.94-8.96 1.47 3.62 1.86 6.85 0.84 9.9 1.14 2.47 0.26 5.74-0.88 6.3 2.73z"/>
			<path class="s2" d="m385.24 392.88c-4.47-2.19-6.41-6.28-5.18-9.79 1.19-3.4 4.96-6.33 10.31-5.9 2.09 0.17 4.65 0.55 5.27-2.21q0.74-0.21 1.47-0.43c3.22-3.15 0.77-6.96 1.6-10.38 4.57-0.85 2.89-4.06 2.9-6.33 0.12-21.62 0.06-43.25 0.08-64.87 0-2.73-0.84-6.03 4.42-5.76q0.14 44.15 0.29 88.29c0.01 4.85-3.31 6.98-8.4 7.46-4.2 0.39-8.41 0.6-12.62 0.89-1.01 0.3-1.36 0.66-0.18 1.21 0.66 2.6 0.57 5.21 0.04 7.82z"/>
			<path class="s2" d="m406.01 164.04q0.01 41.35 0.03 82.7c-3.1 0.19-4.59-0.98-4.38-3.75 0.18-2.25-0.23-4.31-2.95-5.37q0.02-4.6 0.06-9.2c0.18-0.12 0.53-0.27 0.51-0.33-0.12-0.3-0.33-0.57-0.51-0.86-0.3-1.76 0.47-3.71-1.14-5.25q0-5.23 0-10.47 1.7-1.31-0.02-2.6 0.08-1.98 0.17-3.96c4.37-3.18 2.67-6.77 0.96-10.36-0.32-1.76 0.5-3.69-1.17-5.23q-0.01-1.33 0-2.65c1.86-1.99 0.75-4.36 1.14-6.54 1.5-0.84 1.46-1.7 0.03-2.56q-0.58-0.06-1.19-0.11 0.09-1.27 0.18-2.54c3.58-1.3 3.49-4.31 3.81-6.84 0.34-2.63 1.83-3.67 4.47-4.08z"/>
			<path class="s0" d="m398.71 237.62c2.74 1.06 3.13 3.14 2.95 5.37-0.21 2.77 1.28 3.94 4.38 3.75q0.02 9.78 0.04 19.57c-1.91 0.08-4.06-0.09-4.27 2.3-0.24 2.75 1.99 2.89 4.29 2.91q0 7.83 0 15.66c-5.25-0.26-4.41 3.03-4.43 5.76-0.01 21.62 0.05 43.25-0.07 64.87-0.02 2.27 1.67 5.49-2.91 6.34-0.79-7.83 1.34-15.75-1.18-23.5q0-1.29 0.01-2.58c2.54-13.53 0.57-27.18 0.99-40.77 0.12-3.8 1.28-7.79-1.05-11.46q0-3.9 0-7.78c1.76-3.06 1.75-6.13 0.02-9.18q-0.01-5.85-0.02-11.7c2.5-6.4 0.5-13.04 1.25-19.56z"/>
			<path class="s0" d="m120.09 392.91c3.03-1.17 6.77-7.9 8.5 0.83q-2.57 5.46-5.14 10.92c-1.84 1.01-1.45 2.58-1.36 4.07l0.06-0.05c-4.74-0.04-9.51-0.32-14.22-0.03-2.89 0.18-6.69-1.76-8.5 2.04q-2.39 0.01-4.78 0.02c-4.5-2.85-0.47-8.7-5.33-11.45q0.02-1.79 0.05-3.59c0.87-0.32 2-0.58 1.68-1.64-0.12-0.41-1.08-0.61-1.67-0.91q0.03-2.75 0.03-5.47c3.52-1.53 3.21-2.82-0.31-3.92q-4.7-0.53-9.38-1.05c1.19-2.57 3.12-2.62 5.94-1.85 3.31 0.9 5.84-0.14 6.19-3.58 1.94 0 3.91 0.19 5.81-0.04 5.44-0.64 6.84 1.79 6.24 5.89-4.9-0.6-6.54 1.28-6.06 5.45 0.39 3.4 0.06 6.89 0.07 10.34 0.02 1.48-0.03 2.88 2.03 3.73 6.5 2.66 15.98-0.42 18.45-6.11 0.53-1.23 1.13-2.41 1.7-3.6z"/>
			<path class="s0" d="m406.01 164.04c-2.65 0.41-4.13 1.45-4.46 4.08-0.31 2.52-0.22 5.54-3.8 6.84q-0.12-7.14-0.21-14.27 0.58-0.68 1.17-1.36c0.48-0.95 1.37-1.89 1.37-2.85 0.09-14.85 0.07-29.71 0.09-44.58 0-1.63-0.3-3.02-2.47-3.43q-0.11-1.96-0.21-3.91 1.84-1.33 0.02-2.69 0.12-1.3 0.25-2.6 2.6-1.58 5.19-3.17l-0.06 0.16c-1.22-1.57-2.96-2.19-5.08-2.17q-0.1-1.9-0.2-3.8 0.55-0.04 1.1-0.12 3.67 0 7.34-0.01c0.54 24.62 0.62 49.26-0.04 73.88z"/>
			<path class="s2" d="m195.65 382.57c-0.56-3.59-3.83-2.46-6.31-2.72-3.05-0.31-6.29 0.72-9.9-1.14 2.89-2.41 6.15-1.12 8.95-1.47 0.71-0.09 1.54-0.12 1.18-0.93-0.25-0.53-0.98-0.91-1.51-1.36 18.45-0.24 36.88-0.96 55.31 0.38q2.65 3.56 5.29-0.01 2.58-0.18 5.16-0.37 0.22 3.08 0.45 6.16 0 0.76 0 1.52-29.3 0.79-58.63-0.06z"/>
			<path class="s2" d="m91.86 377.24c-0.34 3.43-2.89 4.48-6.18 3.58-2.83-0.77-4.76-0.72-5.94 1.85-2.04 0.52-3.99 0.18-5.93-0.38q-0.97-0.51-1.96-1l-0.57 0.04-0.47-0.3q-0.67-0.59-1.34-1.18c-0.78-1.23-1.83-2.39-1.09-3.94q5.16-1.88 0.07-3.89c-0.33-10.03-0.6-20.06 0.29-30.07 3.73-0.26 5.32 1.07 5.16 4.47-0.24 5.11-0.11 10.26-0.05 15.38 0.03 2.03-0.71 4.5 2.94 4.98q0 1.31 0 2.63c-1.22 0.17-2.49 0.32-2.68 1.65-0.24 1.73 1.16 2.08 2.69 2.26q0.8 0.79 1.6 1.57c3.52 4.93 9.07 1.12 13.46 2.35z"/>
			<path class="s2" d="m406.04 90.16q-3.68 0.01-7.35 0.01 0.01-1.33 0.02-2.66c1.5-0.83 1.46-1.7 0.03-2.56q-0.56-0.06-1.14-0.1 0.04-3.22 0.08-6.44c0.14-0.13 0.41-0.27 0.4-0.38-0.05-0.3-0.23-0.6-0.35-0.9-3.67-5.09-9.6-0.94-14.11-2.58-0.62-3.58-3.89-2.35-6.35-2.69-2.59-0.37-6.25 1.39-7.17-2.56 5.99-0.82 12.36 1.63 18.08-1.55 17.39-1.55 18.17-0.96 18.17 14.03 0.02 2.81-0.19 5.59-0.31 8.38z"/>
			<path class="s2" d="m94.84 69.31c0.2 2.39-3.77 3.19-2.95 5.82q-5.06 0.12-10.12 0.23-0.24-0.45-0.42-0.9-0.75-1.08-1.52 0-0.2 0.45-0.44 0.86-0.63-0.01-1.17 0.28c-4.49 0.32-2.22 3.58-3.15 5.45q-3.06-0.03-6.12-0.05-0.91-1.91 0.01-3.82c1.24-0.47 1.27-0.95 0-1.42-0.34-3.04-0.65-6.06 3.43-7.6 7.35 2.44 14.99 0.49 22.45 1.15z"/>
			<path class="s1" d="m315.98 67.75c-2.03 2.42-5.04 1.48-7.63 1.48q-60.81 0.08-121.63 0c-2.6 0-5.6 0.93-7.66-1.46 28.68-0.13 57.38-0.34 86.06-0.38 16.94-0.01 33.9 0.24 50.86 0.36z"/>
			<path class="s1" d="m388.19 67.77c-5.72 3.17-12.08 0.73-18.07 1.56-14.52-0.02-29.04 0.02-43.56-0.08-2.61-0.02-5.6 0.92-7.65-1.49q34.64-0.9 69.28 0.01z"/>
			<path class="s1" d="m94.84 69.31c-7.46-0.66-15.09 1.29-22.43-1.16 21.53-1.37 43.08-0.87 64.63-0.43-2.02 2.47-5.03 1.49-7.63 1.51-11.51 0.12-23.04 0.07-34.57 0.08z"/>
			<path class="s1" d="m99.43 410.68c1.81-3.79 5.61-1.86 8.5-2.04 4.71-0.29 9.48-0.01 14.22 0.03-0.36 2.36-2.4 2.29-4.39 2.27q-9.16-0.12-18.33-0.26z"/>
			<path class="s1" d="m174.61 67.77c-11.06 2.44-22.12 2.56-33.17-0.05q16.6-0.82 33.17 0.05z"/>
			<path class="s1" d="m89.34 399.25c4.86 2.73 0.82 8.59 5.32 11.45-4.38 0.8-5.59-1.39-5.59-4.58-0.02-2.29 0.16-4.58 0.27-6.87z"/>
			<path class="s2" d="m406.1 271.53c-2.31-0.01-4.53-0.16-4.29-2.91 0.21-2.39 2.36-2.22 4.27-2.3q0.02 2.61 0.02 5.21z"/>
			<path class="s1" d="m89.11 383.72c3.54 1.09 3.84 2.38 0.32 3.91q-0.16-1.96-0.32-3.91z"/>
			<path class="s1" d="m384.7 409.77c-1.52-2.67-2.03-5.28 0.53-7.75 0.45 2.61 0.79 5.22-0.53 7.75z"/>
			<path class="s0" d="m68.45 372.02q5.09 2.01-0.08 3.89 0.04-1.94 0.08-3.89z"/>
			<path class="s1" d="m254.27 382.63q0-0.76 0-1.52c2.11 0.26 4.59-0.63 6.06 1.51q-3.02 0-6.06 0.01z"/>
			<path class="s1" d="m122.11 408.73c-0.09-1.49-0.5-3.07 1.35-4.07 0.95 1.69 0.71 3.1-1.35 4.07z"/>
			<path class="s1" d="m89.4 393.12c0.58 0.3 1.55 0.5 1.67 0.91 0.33 1.04-0.82 1.32-1.69 1.65q0-1.3 0.02-2.56z"/>
			<path class="s0" d="m68.98 75.75c1.26 0.48 1.23 0.95 0 1.42q0-0.7 0-1.42z"/>
			<path class="s0" d="m69.47 379.85q0.67 0.59 1.34 1.18-1.51 0.13-1.34-1.18z"/>
			<path class="s0" d="m71.85 381.29q0.97 0.51 1.96 1c-1 0.17-1.6-0.25-1.96-1z"/>
			<path class="s1" d="m321.94 382.64q0.76-1.51 1.55 0-0.77 0-1.55 0z"/>
			<path class="s1" d="m385.18 385.06c-1.17-0.55-0.83-0.93 0.18-1.21q0.23 0.62-0.18 1.21z"/>
			<path class="s1" d="m385.21 399.4q-1.61-0.63-0.01-1.28 0.01 0.65 0.01 1.28z"/>
			<path class="s3" d="m78.23 75.6q0.54-0.3 1.17-0.28 1.19 0.02 2.38 0.04 5.07-0.11 10.13-0.23c29.99-0.06 59.98-0.18 89.95-0.2 61.76-0.06 123.52-0.07 185.28-0.11 5.49 0 11-0.17 16.49-0.26 4.52 1.65 10.44-2.51 14.12 2.59q-0.03 0.63-0.05 1.26-0.04 3.22-0.09 6.45 0 2.72 0 5.43 0.1 1.9 0.2 3.8-0.03 2.58-0.03 5.18-0.13 1.3-0.26 2.6-0.01 1.35-0.02 2.69 0.11 1.95 0.22 3.91-0.11 20.85-0.22 41.7 0.01 2.64 0.02 5.28 0.02 1.26 0.03 2.51 0 1.37 0 2.73 0.12 7.13 0.21 14.27-0.09 1.27-0.18 2.54 0 4.61 0 9.21 0 1.32 0 2.65 0.04 2.67 0.08 5.34 0.06 5.12 0.13 10.25-0.08 1.98-0.17 3.96 0.01 1.3 0.02 2.6 0 5.24 0 10.47-0.08 17.62-0.16 35.24 0 5.85 0.01 11.7 0 4.59-0.01 9.18 0 3.9 0 7.78 0.03 26.12 0.07 52.23-0.01 1.29-0.01 2.58-0.21 16.93-0.41 33.87-0.74 0.22-1.48 0.44-35.31-0.31-70.63-0.61c0.5-2.75 3.03-2.57 5.13-2.32 5.66 0.67 7.69-1.47 6.9-6.14 10.65-0.1 21.29-0.28 31.94-0.3 16.7-0.02 16.7 0.02 17.62-14.48 4.7-0.19 1.54 5.01 5.43 6.08 0.26-1.44 0.6-2.44 0.6-3.44 0.03-22.43 0.25-44.86-0.03-67.29-0.15-11.95 1.21-23.87 0.31-35.86-0.41-5.36-2.85-4.87-6.85-3.65q-0.48 0.1-0.96 0.18-0.71-0.1-1.42-0.2-1.51 0.03-3.02 0.05-8.29 0.01-16.57 0.02-2.23 0-4.47-0.02-1.53 0-3.05 0-2.99 0-5.98 0-7.53 0.03-15.09 0.03-21.03-0.05-42.06-0.1-3.79 0-7.57 0-10.21 0.15-20.42 0.3c-1.54-0.25-3.09-0.49-4.52 0.36-2.92-0.81-5.83-0.83-8.73 0.02-4.76-1.4-9.63-0.92-14.48-0.59q-10.17 0.04-20.34 0.08-13.88-0.06-27.76-0.12-48.87-0.01-97.75 0.01c-1.13-0.19-2.17-0.27-2.14 1.15q-0.44 17.57-0.89 35.13c-4.92-1.08-2.24-4.58-2.91-6.99-0.43-1.53 0.84-4.04-2.08-4.1-2.36-0.06-3.94 1.51-3.94 3.91q0.03 29.2 0.01 58.39c0 1.88 0.44 3.59 3.22 3.42 2.85-0.17 2.45-2.16 2.79-3.85 0.43-2.28-1.69-5.5 2.88-6.37 0.12 7.58 0.21 15.17 0.4 22.75 0.1 4.74-1.55 10.65 1.08 13.89 2.89 3.55 10.26 0.67 15.56 1.7-0.63 2.84-2.3 5.51-1.93 8.52q-12.74 0.18-25.47 0.36-0.8-0.79-1.6-1.57-0.01-1.96-0.03-3.92 0-1.31 0-2.62c0.08-50.54 0.21-101.09 0.21-151.63 0-32.1-0.19-64.2-0.3-96.3q-0.01-16.29-0.01-32.58 0.04-0.66 0.1-1.31c2.91-2.86 0.87-6.28 1.4-9.39zm278.33 81.54q1.49 1.45 3 0.01 3-0.22 6.01-0.44 2.26-0.03 4.52-0.06 3.75 0.04 7.51 0.08 2.25 0.28 4.51 0.54c0.6 0.49 1.1 0.36 1.52-0.2q1.27-0.9 2.54-1.8c2.31 0.52 1.58 4.36 4.5 3.64 3.27-0.81 2.09-3.72 1.88-5.64-1.51-13.72 2.79-27.23 1.69-40.94-0.18-2.3 1.1-4.66 1.1-7 0.01-2.17-0.94-5-3.52-5.16-3.45-0.22-1.61 2.84-2.19 4.43-1.08 2.98 2.68 7.13-2.87 9.04-0.12-7.96-0.13-15.92-0.42-23.87-0.06-1.79 1.53-4.65-2.69-4.86q-12.04 0.06-24.08 0.13-62.41-0.02-124.82-0.04-3.76 0-7.52 0-3 0-6 0-23.31 0-46.62 0-40.67-0.06-81.35-0.1-0.61-0.05-1.23 0c-5.7 3.54-1.17 8.89-3.09 13.11-3.74-0.39-2.84-2.93-3.06-4.98-0.16-1.38 0.61-3.52-1.93-3.53-2.44-0.02-4.06 1.41-4.06 3.8 0.01 4.32-0.05 8.64-0.02 12.96 0.02 3.67-0.07 7.35 0.26 11 0.16 1.77 1.68 3.5 3.77 3.56 2.56 0.07 1.88-2.11 1.96-3.48 0.11-1.88 0.36-3.48 3.05-3.68q0.48 2.1 0.95 4.21 0.04 1 0.08 1.98c-0.39 2.25-1 4.49-0.09 6.75-1.3 8.79-0.29 17.62-0.62 26.42-0.1 2.67 1.01 4.08 4.29 3.88 2.47-0.16 4.95-0.19 7.42-0.28q3.77-0.01 7.54-0.02 0.74 0.23 1.5 0.46c1.4 0.32 2.81 0.93 4.21 0.93q40.86 0.09 81.71 0.01c1.42 0 2.83-0.59 4.23-0.9q20.34 0.02 40.66 0.04 2.23 1.8 4.47-0.02 4.53-0.21 9.05-0.43 6.03 0.22 12.06 0.45 2.98 1.92 5.96-0.02 4.54 0.01 9.08-0.01 23.28 2.25 46.55 0 3.76-0.22 7.55-0.43 3.77 0 7.54 0 6.73 0.22 13.51 0.46zm-108.22 80.34c3.25 0.09 6.5 0.26 9.75 0.27q48.47 0.15 96.94 0.27 0.79 0.85 1.53-0.02 11.26-0.02 22.53-0.05 0.79 0.88 1.53-0.01c3.16-0.11 5.3-0.21 5.22-4.27-0.4-20.63-0.49-41.27-0.13-61.9 0.09-5.4-1.99-6.38-7.65-6.36-57.82 0.19-115.65 0.11-173.48 0.16-18.01 0.01-36.04 0.2-54.05 0.29q-24.8-0.01-49.61-0.02c-4 0.16-8.3-1.73-11.87 1.34-2.09-0.13-3.1-1.1-3.16-2.94-0.06-1.5 0-3.36-2.45-3.33-2.41 0.03-3.48 1.63-3.49 3.54-0.02 14.29-0.27 28.6 0.3 42.88 0.13 3.56 2.28 7.9 8.71 5.49 0.11 5.83 0.72 11.71 0.2 17.51-0.56 5.94 1.62 7.58 8.56 7.54 41.17-0.21 82.34 0.01 123.51 0.11q1.5 1.56 3 0 4.48-0.27 8.96-0.54 7.56 0.04 15.15 0.04z"/>
			<path class="s1" d="m76.68 86.26q0.01 16.29 0.02 32.58c-2.1-0.26-2.86-1.39-2.85-3.13q0.02-13.16 0-26.32c0-1.71 0.72-2.87 2.83-3.13z"/>
			<path class="s4" d="m78.23 75.6c-0.53 3.11 1.51 6.53-1.46 9.35-2.12-0.79-1.19-2.58-1.68-3.91 0.93-1.86-1.34-5.12 3.14-5.44z"/>
			<path class="s3" d="m253.82 374.94q-2.58 0.19-5.18 0.37-2.64 0-5.26 0.01c-18.44-1.34-36.87-0.63-55.32-0.38q-4.46-0.24-8.92-0.45-0.73-4.29-1.46-8.57 4.47-0.25 8.94-0.49c2.72 0.07 5.44 0.22 8.17 0.23q35.76 0.15 71.52 0.27-0.76 4.21-1.51 8.43-5.49 0.32-10.98 0.58z"/>
			<path class="s5" d="m264.8 374.38q0.75-4.21 1.51-8.43 2.27-0.26 4.54-0.52 33.08 0.23 66.16 0.48c0.8 4.66-1.23 6.8-6.89 6.13-2.1-0.24-4.62-0.43-5.13 2.33q-21.83-0.02-43.67-0.05-3-5.51-5.95 0.01-5.29 0.04-10.57 0.05z"/>
			<path class="s3" d="m371.67 382.97c1.68 0.63 4.11 0.04 4.9 2.18q-0.1 7.76-0.21 15.51c-5.29 2.78-11.07 0.78-16.61 1.24-1.34 0.12-2.35-0.82-2.75-1.87q-2.81-7.34-5.4-14.73c-0.46-1.3 0.91-1.82 1.86-2.46 6.05 0.93 12.13 0.84 18.21 0.13z"/>
			<path class="s2" d="m371.67 382.97c-6.08 0.71-12.16 0.8-18.22-0.12-0.82-8.13 6.26-5.02 10.68-5.6 5.07-0.68 8.4 0.47 7.54 5.72z"/>
			<path class="s2" d="m376.36 400.66q0.11-7.75 0.21-15.51c1.52 5.18 1.96 10.37-0.21 15.51z"/>
			<path class="s3" d="m275.37 374.36q2.95-5.53 5.95-0.02-2.98 0-5.95 0.02z"/>
			<path class="s4" d="m177.68 365.93q0.73 4.29 1.46 8.57-37.63 0.02-75.27 0.04c-0.37-3.02 1.3-5.68 1.93-8.51 23.95-0.64 47.92-0.72 71.88-0.1z"/>
			<path class="s5" d="m120.09 392.91c-0.55 1.19-1.16 2.37-1.68 3.57-2.47 5.71-11.94 8.78-18.45 6.11-2.06-0.84-2.02-2.24-2.03-3.73-0.02-3.45 0.31-6.92-0.08-10.34-0.48-4.16 1.16-6.04 6.07-5.44 2.19 0.09 4.39 0.22 6.57 0.24 11.95 0.11 11.95 0.1 9.6 9.59z"/>
			<path class="s6" d="m397.1 374.55q0.2-16.94 0.4-33.88c2.53 7.76 0.4 15.68 1.19 23.5-0.82 3.42 1.63 7.23-1.59 10.38z"/>
			<path class="s6" d="m397.44 257.21q0.09-17.62 0.17-35.24c1.63 1.55 0.84 3.49 1.14 5.25q-0.06 0.59 0 1.19-0.01 4.6-0.06 9.2c-0.73 6.53 1.27 13.17-1.25 19.6z"/>
			<path class="s0" d="m397.78 204.93q-0.07-5.12-0.14-10.25 0.55-0.02 1.1-0.1c1.71 3.59 3.42 7.19-0.96 10.35z"/>
			<path class="s6" d="m397.56 186.69q0-4.6 0-9.2 0.6 0.04 1.19 0.11-0.02 1.27-0.03 2.55c-0.4 2.18 0.71 4.56-1.16 6.54z"/>
			<path class="s6" d="m398.74 194.58q-0.55 0.08-1.1 0.1-0.04-2.67-0.08-5.34c1.66 1.53 0.86 3.48 1.18 5.24z"/>
			<path class="s6" d="m397.61 211.51q-0.01-1.3-0.01-2.59 1.73 1.27 0.01 2.59z"/>
			<path class="s0" d="m398.71 180.17q0.01-1.28 0.03-2.56c1.43 0.86 1.47 1.71-0.03 2.56z"/>
			<path class="s0" d="m398.75 228.42q-0.06-0.59 0-1.19c0.19 0.29 0.39 0.56 0.52 0.86 0.03 0.06-0.33 0.21-0.52 0.33z"/>
			<path class="s6" d="m397.52 338.1q-0.04-26.12-0.07-52.24c2.33 3.67 1.17 7.68 1.05 11.47-0.39 13.59 1.56 27.23-0.98 40.77z"/>
			<path class="s6" d="m397.44 278.08q0-4.59 0.02-9.18c1.73 3.06 1.74 6.13-0.02 9.18z"/>
			<path class="s1" d="m397.49 150.15q0.1-20.85 0.21-41.7c2.17 0.42 2.47 1.82 2.47 3.44-0.03 14.85 0 29.71-0.09 44.58 0 0.95-0.89 1.89-1.37 2.85q-0.59-0.69-1.17-1.37-0.02-1.26-0.04-2.51 2.38-2.66-0.01-5.29z"/>
			<path class="s1" d="m397.76 99.26q0.03-2.58 0.03-5.18c2.12-0.03 3.87 0.6 5.09 2.17l0.06-0.16q-2.58 1.59-5.18 3.17z"/>
			<path class="s6" d="m397.6 90.29q0-2.71 0-5.43 0.56 0.03 1.14 0.11-0.03 1.27-0.03 2.55-0.01 1.34-0.02 2.67-0.53 0.06-1.09 0.1z"/>
			<path class="s6" d="m397.54 157.95q0.58 0.68 1.17 1.37-0.59 0.68-1.17 1.36-0.01-1.37 0-2.73z"/>
			<path class="s6" d="m397.49 104.55q0.01-1.35 0.01-2.69 1.83 1.36-0.01 2.69z"/>
			<path class="s7" d="m402.95 96.09l-0.06 0.16c-0.01 0.01 0.06-0.16 0.06-0.16z"/>
			<path class="s0" d="m243.38 375.32q2.63 0 5.26-0.01-2.61 3.57-5.26 0.01z"/>
			<path class="s0" d="m76.79 369.41q0.01 1.96 0.03 3.91c-1.54-0.18-2.94-0.53-2.7-2.26 0.17-1.34 1.45-1.5 2.67-1.65z"/>
			<path class="s0" d="m398.71 87.51q0.01-1.28 0.03-2.56c1.43 0.86 1.47 1.73-0.03 2.56z"/>
			<path class="s6" d="m397.7 78.41q0.02-0.63 0.05-1.26c0.12 0.3 0.28 0.58 0.34 0.9 0.02 0.09-0.25 0.23-0.39 0.36z"/>
			<path class="s8" d="m81.78 75.36q-1.18-0.02-2.38-0.04 0.25-0.43 0.44-0.88 0.76 0 1.52 0 0.18 0.47 0.42 0.92z"/>
			<path class="s0" d="m81.36 74.46q-0.76 0-1.52 0 0.76-1.09 1.52 0z"/>
			<path class="s1" d="m177.68 365.93c-23.96-0.62-47.91-0.54-71.87 0.08-5.29-1.04-12.67 1.86-15.56-1.7-2.63-3.23-0.96-9.15-1.08-13.89-0.18-7.58-0.26-15.17-0.39-22.75q0-9.81-0.02-19.62 0.01-1.93 0.02-3.86 0.01-10.46 0.03-20.92 0.44-17.57 0.89-35.14 1.07-0.57 2.13-1.14 48.87 0 97.75-0.02c0.27 2.04-0.59 4.85 3.21 4.9 9.63 0.13 19.26 0.04 30.53 0.04-2.94-2.37-4.46-3.59-5.98-4.82q10.18-0.04 20.35-0.08c0.22 3.29-0.94 7.25 5.02 7.72-0.34 0.81-1.06 1.63-0.99 2.41 1.56 20.03-0.04 40.1 0.96 60.12q-0.22 3.88-0.45 7.77-2.76 1.31-0.03 2.68-0.01 1.26-0.03 2.52-0.63 0.01-1.23 0.17c-1.57 0.21-3.69-4.81-4.32-0.3-0.87 6.09-0.98 12.45 0.27 19.01 3.75-2.03 0.92-5.71 4.06-7.2q0.62 0.15 1.25 0.16-0.04 7.17-0.09 14.35c-3.54 0.34-2.06-4.16-5.4-4.19-1.13 1.8 0.83 5.07-3.3 5.43 0-32.62-0.09-65.23 0.14-97.84 0.03-4.73-2.26-5.17-6.71-5.16-40.6 0.12-81.2 0.21-121.78-0.04-6.21-0.04-7.42 1.71-7.37 6.66 0.25 30 0.31 60.02 0.04 90.02-0.04 5.37 1.48 6.89 7.84 6.89 41.59-0.08 83.18 0.25 124.76 0.45-1.91 2.52-4.89 1.6-7.46 1.63-10.64 0.09-21.3 0.3-31.94-0.07-5.43-0.18-5.68 1.78-4.34 5.26q-4.45 0.22-8.91 0.47z"/>
			<path class="s1" d="m355.03 238.02q-48.47-0.12-96.94-0.27c-3.25-0.01-6.5-0.17-9.75-0.27 2.3-1.97 5.21-1.14 7.84-1.14 33.22-0.06 66.47-0.05 99.69-0.03 4.11 0 8.44 0.39 8.23-4.97 14.33-0.48 14.33-0.48 13-13.29 0.15-12.99 0.06-25.98 0.54-38.95 0.2-5.23-1.91-6.71-7.76-6.66-26.45 0.23-52.92 0.13-79.38 0.14q-7.65-0.02-15.28-0.04-4.35 0.02-8.69 0.04c-9.19-0.46-18.38-0.53-27.58 0.09q-3.54-0.05-7.1-0.1-8.45 0.01-16.9 0.02-2.08-0.01-4.15-0.02-4.66 0-9.29 0-3.61 0.02-7.2 0.02-0.93 0-1.85 0c-27.75-0.02-55.51-0.09-83.26-0.06-11.75 0.01-11.75 0.09-10.81 10.3-0.15 14.32-0.1 28.64-0.55 42.95-0.15 4.86 2.13 5.64 7.06 5.68 5.52 0.05 6.62-1.84 6.48-6.21-0.29-8.89 0.12-17.78 0.24-26.69 2.83 6.49 0.72 13.21 1.27 19.82 0.24 2.92 0.03 5.82 4.6 6.19-0.29 4.61 1.82 6.61 7.51 6.42 9-0.28 18.01 0.09 27.01 0.2-0.77 4.68 2.35 5.18 6.74 5.15 22.18-0.13 44.37-0.07 66.57-0.01 2.63 0.01 5.54-0.81 7.85 1.1q-4.47 0.27-8.95 0.53-1.5 0-3.01 0c-41.17-0.08-82.34-0.31-123.51-0.1-6.93 0.04-9.12-1.62-8.56-7.55 0.54-5.79-0.07-11.67-0.2-17.5q0.05-22.83 0.1-45.66c3.56-3.08 7.86-1.18 11.87-1.33-0.56 3.82 1.13 5.36 5.81 5.3 13.16-0.22 26.34-0.3 39.5 0.04 5.53 0.14 5.61-1.88 4.3-5.32 18.01-0.1 36.04-0.27 54.05-0.28 57.83-0.06 115.65 0.02 173.48-0.16 5.66-0.01 7.75 0.95 7.64 6.36-0.36 20.63-0.27 41.27 0.14 61.89 0.07 4.07-2.06 4.17-5.22 4.27q-0.77 0.01-1.54 0.02-11.26 0.02-22.52 0.05-0.75 0.02-1.52 0.03z"/>
			<path class="s1" d="m337.01 365.91q-33.08-0.23-66.16-0.49c0.5-3.82-1.26-5.43-5.88-5.2-5.67 0.27-11.36 0.07-17.05 0.03-2.39-0.01-5.21 0.51-5.63-2.67q0.73 0.07 1.46 0.14 16.55 0 33.09 0c31.77 0.16 63.53 0.21 95.28 0.55 6.08 0.07 5.4-3.04 5.39-6.35-0.06-29.94-0.29-59.91 0.04-89.86 0.06-5.87-1.41-7.59-8.48-7.56-40.77 0.29-81.55 0.07-122.31 0.03 0.72-3.58 4-2.51 6.49-2.56 5.53-0.13 11.07-0.04 18.55-0.04-3.26-2.43-4.81-3.57-6.38-4.74q10.21-0.15 20.42-0.3 3.78 5.81 7.57 0 21.03 0.06 42.05 0.11c-0.39 3.46 1.01 5.08 5.44 5q17.18-0.32 34.34 0c4.45 0.08 5.77-1.6 5.37-5.03q1.51-0.02 3.02-0.05c0.38 0.59 0.83 0.74 1.42 0.19q0.48-0.09 0.96-0.18 0.22 1.18 0.45 2.37 0 1.99 0 3.99 0.02 1.91 0.03 3.83 0.01 5.91 0.01 11.81 0.02 6.5 0.04 12.99 0.03 5.88 0.06 11.76-0.03 15.01-0.05 30.01 0 2.62 0 5.23 0 2.61 0.02 5.2-0.01 2.62-0.02 5.25 0 5.86 0.02 11.72c-0.92 14.49-0.92 14.44-17.63 14.48-10.63 0.05-21.29 0.23-31.93 0.34z"/>
			<path class="s0" d="m254.3 156.68q-4.53 0.21-9.06 0.43-2.23 0-4.47 0.01-20.34-0.02-40.66-0.04-0.72-0.26-1.44-0.53c-3.27-2.18-7.06-0.69-10.56-1.16 0.34-2.68 2.61-2.55 4.86-2.6 2.33-0.05 5.05 0.53 5.88-2.38q1.97-0.15 3.91-0.3c4.16 0.03 8.31 0.02 12.46 0.11 4.35 0.1 6.4-1.57 5.93-5.4q0.02-1.22 0.03-2.44 2.96-1.92 0.14-3.98 0.09-8.43 0.18-16.87c4.19-2.29 3.8-4.77-0.86-5.09-5.22-0.35-10.38-0.25-15.95 1.5-6.98 2.21-15.26 1.96-22.77-0.14-7.34-2.06-14.44-3.6-20.58 2.08-1.84 1.69-3.99 1.52-6.2 1.58 6.11-6.05 12.56-11.05 22.85-7.04 12.98 5.05 25.24 2.22 37.26-2.78 1.11-0.47 2.42-0.6 3.51-1.1 2.99-1.37 5.75-1 8.42 0.6q1.55 2.53 3.09 5.07c0.04 9.08 0.53 18.2 0 27.26-0.33 5.75 2.32 6.69 8.18 6.67 6.1-0.03 8.27-1.52 8.16-7.01-0.18-9.43-1.25-18.91 3.42-28.12 2.82-5.59 6.27-6.31 12.17-4.55 6.8 2.03 13.62 4.12 20.94 4.52 6.84 0.37 11.06-1.79 12.03-7.91q0.62-0.62 1.23-1.23 0.78-1.32 1.57-2.64 0.72-0.71 1.44-1.43c2.78 0.1 3.43 2.24 4.74 3.74-0.98 1.61-2.04 3.2-1.67 5.15-3.22-0.31-3.79 2.1-4.21 3.75-1.73 6.69-7.39 8.02-14.01 8.43-4.85 0.29-9.39-0.52-13.9-1.99-11.88-3.85-13.19-3.23-15.73 7.43-0.56 2.3-0.35 4.76-0.35 7.13 0.02 16.26 0.03 16.26 17.96 13.29 3.26 1.84 7.01 1.37 10.61 1.62 1.89 5.2 8.35 0.3 11.51 4.14-3.12 1.61-6.34 0.72-9.32 0.93-10.23 0.75-20.63-1.46-30.74 1.29z"/>
			<path class="s0" d="m233.16 237.45c-2.32-1.9-5.22-1.09-7.86-1.09-22.19-0.07-44.37-0.11-66.57 0.01-4.39 0.03-7.51-0.47-6.74-5.16 21.79-0.05 43.58-0.26 65.37-0.02 6 0.06 8.59-1.2 6.68-6.57 5.07-0.27 1.74-4.89 4.39-6.41 1.19 2.65 1.96 5.39 1.75 8.25-0.44 5.62 4.12 4.68 8.06 4.87 4.4 0.22 7.18-0.47 6.91-5.18-0.24-4.23-0.93-8.77 2.98-12.35 1.56 3.93-2.84 8.99 3.08 12.07-0.76 4.52 1.34 5.75 6.61 5.68 29.81-0.37 59.62-0.37 89.43-0.54 3.31-0.02 7.54 1.01 7.7-3.82 0.18-5.47-4.69-3.4-7.55-3.42-28.05-0.22-56.1-0.25-84.15-0.32 0.18-1.11 0.54-2.41 1.93-2.51 7.93-0.56 15.8-2.45 23.82-1.46 20.93 2.61 41.94 0.66 62.91 1.08 5.15 0.11 8.52-2.43 6.91-7.58-0.41-1.3-0.89-2.58-0.12-3.78 3.23-5.04-1.88-9.02-2.53-13.6-1.07-7.56-9.01-1.93-13.42-3.71-0.44-0.17-0.98-0.12-1.48-0.18 10.01-7.05 15.49-7.23 19.28-0.35 1.25 2.25 1.74 5.04 1.73 7.57-0.06 8.65 0.89 17.33-0.9 25.98-0.49 2.31-1.58 5.4 2.72 6.46 0.21 5.34-4.12 4.96-8.23 4.96-33.23-0.01-66.47-0.02-99.69 0.04-2.63 0-5.55-0.83-7.84 1.14q-7.58-0.04-15.18-0.06z"/>
			<path class="s0" d="m221.21 84.99q3 0 6 0 3.78 6.14 7.53 0 62.41 0.02 124.82 0.04c0.57 3.94-1.39 5.25-5.95 5.2-16.69-0.19-33.37-0.13-50.06-0.02-2.47 0.02-5.67-1.25-7.13 1.92q-2.38 0.71-4.68-0.14-4.36-4.3-8.74-0.01c-1.62 0.6-3.21 0.86-4.69-0.28-1.24-1.88-3.38-1.54-5.32-1.54q-19.48-0.02-38.96-0.01c-1.97 0-4.06-0.24-5.45 1.45q-1.35 0.01-2.72 0.05c-2.65-2.01-5.24-2.79-7.55 0.37-3.04 0.79-6.1 0.77-9.17 0.11-0.27-3.05 0.82-4.76 4.89-4.67 2.58 0.05 6.25 1.44 7.18-2.47z"/>
			<path class="s1" d="m296.42 92.12c1.46-3.17 4.66-1.89 7.13-1.92 16.69-0.1 33.37-0.17 50.06 0.01 4.56 0.06 6.53-1.25 5.95-5.19q12.03-0.06 24.07-0.13c0.02 21.13-0.15 42.27 0.2 63.39 0.07 4.51-1.37 7.16-6.23 8.43q-3.76-0.04-7.51-0.08-0.05-3.37-0.08-6.73c3.49-0.19 7.69 1.09 7.53-4.44-0.41-14.07-0.35-28.16-0.48-42.23q0.03-3.27 0.07-6.55c0.39-1.95 0.95-3.97-2.57-4.04q-39.05-0.25-78.14-0.52z"/>
			<path class="s5" d="m386.5 257.14q-0.01-1.91-0.02-3.82 3.17-2 0-4-0.23-1.18-0.46-2.36c4.01-1.21 6.44-1.7 6.85 3.66 0.9 11.98-0.45 23.9-0.3 35.86 0.29 22.43 0.07 44.86 0.03 67.29 0 1-0.35 2.01-0.6 3.43-3.9-1.06-0.74-6.27-5.43-6.07q0-5.86-0.02-11.73 3.32-2.6 0.02-5.24 0-2.61-0.02-5.2 3.3-2.63 0-5.23 0.02-15 0.05-30.01c2.39-3.93 2.48-7.84-0.06-11.76q-0.02-6.49-0.04-12.99 3.9-5.92 0-11.83z"/>
			<path class="s0" d="m93.25 84.89q40.67 0.06 81.34 0.1c0.17 3.96 5.27 1.39 6.9 4.13-2.37 1.66-5.17 0.99-7.68 0.99-20.91 0.05-41.83 0-62.75 0.09-2.46 0.01-5.67-1.25-7.13 1.92-7.49-0.16-5.58 4.84-6.2 8.47-4.39 0.46-6.27-1.11-5.9-5.04 0.32-3.16 0.14-6.34 0.17-9.51q0.62-0.58 1.25-1.15z"/>
			<path class="s9" d="m88.78 308.05q0 9.81 0.01 19.62c-4.57 0.87-2.45 4.1-2.88 6.37-0.34 1.68 0.06 3.68-2.79 3.85-2.8 0.17-3.22-1.54-3.22-3.42-0.01-19.47 0.02-38.93-0.01-58.38 0-2.41 1.58-3.97 3.94-3.92 2.93 0.07 1.65 2.57 2.08 4.1 0.67 2.41-2.01 5.91 2.91 7q-0.01 10.46-0.03 20.92c-1.53 0.16-2.87 0.54-2.63 2.22 0.18 1.32 1.42 1.48 2.62 1.64z"/>
			<path class="s1" d="m103.93 92.13c1.46-3.17 4.67-1.9 7.13-1.92 20.92-0.1 41.84-0.04 62.75-0.09 2.53-0.01 5.33 0.67 7.68-0.99-1.63-2.74-6.75-0.17-6.9-4.13q23.31 0 46.62 0c-0.93 3.91-4.6 2.52-7.16 2.49-4.08-0.08-5.18 1.61-4.89 4.68-35.08 0.75-70.15 0.56-105.23-0.04zm95.67-3.6c-0.42-0.16-0.91-0.51-1.22-0.41-0.3 0.11-0.37 0.66-0.55 1.02 0.4 0.16 0.92 0.51 1.22 0.41 0.28-0.11 0.37-0.67 0.55-1.02z"/>
			<path class="s5" d="m89.05 167.16q-0.05 22.83-0.09 45.66c-6.43 2.41-8.58-1.93-8.71-5.48-0.56-14.29-0.32-28.6-0.3-42.89 0-1.91 1.06-3.51 3.49-3.54 2.45-0.03 2.39 1.83 2.45 3.33 0.06 1.83 1.07 2.79 3.16 2.92z"/>
			<path class="s2" d="m100.91 156.59c-2.47 0.09-4.95 0.14-7.42 0.29-3.28 0.2-4.38-1.22-4.29-3.88 0.33-8.8-0.68-17.64 0.62-26.43 3.65-2.2 2.62-4.47 0.09-6.75q-0.04-1-0.08-1.99c2.46-1.3 5.12-1.78 7.96-1.6 0.8 9.57-0.86 19.22 1.18 28.77-1.97 4.29 0.45 5.63 4.96 5.6-0.52 2.19-3.94 3.26-3.02 5.99z"/>
			<path class="s5" d="m386.75 113.62c5.55-1.9 1.79-6.06 2.87-9.03 0.59-1.6-1.25-4.65 2.18-4.43 2.59 0.17 3.54 2.99 3.52 5.16-0.01 2.34-1.29 4.7-1.09 7 1.09 13.71-3.19 27.22-1.69 40.94 0.21 1.92 1.38 4.83-1.88 5.64-2.92 0.72-2.2-3.11-4.5-3.64q0.21-3.85 0.42-7.69c4.33-3.48 4.36-12.08 0.06-15.63q0.06-9.16 0.11-18.32z"/>
			<path class="s2" d="m254.3 156.68c10.11-2.75 20.51-0.53 30.73-1.28 2.98-0.22 6.2 0.68 9.31-0.93-3.17-3.84-9.61 1.05-11.51-4.15 5.34 0.93 6.42-3.47 9.3-5.63 5.13 0.89 8.82 5.06 14.46 4.82 3.97 3.95 9.25 1.1 13.81 2.04-0.24 3.24 1.9 3.82 5.13 3.92 3.33 0.1 6.97-1.17 9.96 1.18q-3.76 0.22-7.55 0.44c-15.51-0.59-31.03-0.57-46.54 0q-4.54-0.01-9.09 0.01-2.98 0-5.96 0.01-6.02-0.21-12.05-0.43z"/>
			<path class="s0" d="m150.53 165.84c1.31 3.45 1.24 5.46-4.3 5.32-13.15-0.34-26.33-0.25-39.5-0.04-4.68 0.08-6.36-1.46-5.81-5.3q24.8 0.02 49.61 0.02z"/>
			<path class="s0" d="m335.5 156.67c-3-2.35-6.64-1.09-9.97-1.19-3.23-0.11-5.35-0.69-5.13-3.92 2.71-0.02 5.47 0.28 8.1-0.14 3.82-0.6 8.38 2.07 11.49-1.83 1.54-0.48 3.06-0.51 4.58 0.07 0.09 1.46 0.01 3.12 2.51 2.93 1.97-0.14 1.84-1.59 1.96-2.8 1.71-0.67 3.41-0.54 5.11 0.09 7.69 2.35 7.99 2.13 8.73-6.66q1.43 3.21 2.86 6.42c0.24 1.27 0.74 1.4 1.52 0.25q1.39 0 2.78 0 0.05 3.37 0.08 6.72-2.26 0.03-4.51 0.06c-7.51-2.12-15.04-2.05-22.55-0.03-2.55 0.03-5.05 0.03-7.56 0.03z"/>
			<path class="s2" d="m386.6 147.57q-0.22 3.84-0.43 7.69-1.27 0.9-2.54 1.8-0.76 0.1-1.52 0.19-2.26-0.27-4.51-0.53c4.84-1.27 6.3-3.9 6.23-8.42-0.35-21.13-0.18-42.26-0.2-63.4 4.23 0.21 2.62 3.07 2.69 4.86 0.29 7.95 0.31 15.9 0.43 23.86q-0.05 9.16-0.09 18.31-0.02 7.83-0.06 15.64z"/>
			<path class="s5" d="m88.88 113.65c-2.69 0.18-2.96 1.8-3.05 3.68-0.08 1.37 0.6 3.55-1.96 3.47-2.07-0.06-3.61-1.8-3.77-3.55-0.33-3.65-0.24-7.33-0.26-11-0.03-4.33 0.03-8.65 0.02-12.97 0-2.39 1.62-3.81 4.06-3.8 2.53 0.02 1.76 2.17 1.92 3.54 0.23 2.05-0.66 4.57 3.07 4.97q-0.02 3.26-0.04 6.52-7.15 3.25-0.02 6.53 0.03 1.3 0.03 2.61z"/>
			<path class="s0" d="m380.62 246.99c0.41 3.44-0.92 5.11-5.37 5.02q-17.18-0.31-34.34 0c-4.41 0.08-5.82-1.54-5.43-5q7.54-0.01 15.09-0.02 2.98 5.11 5.98 0 1.52 0 3.05 0c0.21 0.99 0.44 2 1.9 2.15 1.83 0.19 2.34-0.88 2.57-2.15q8.26 0.01 16.55 0z"/>
			<path class="s0" d="m100.91 156.59c-0.94-2.73 2.48-3.81 3.04-5.98 2.69-0.22 4.93-0.82 4.56-3.81-0.43-3.19 1.43-5.81 2.84-8.54 3.61-2 6.29-5.19 10.61-6.29 5.64 0.3 10.67-4.85 16.67-1.47-5.22 2.85-10.65 5.16-16.63 6.73-9.51 2.5-15.75 9.89-9.03 18.14-1.62 0.07-3.36-0.22-4.51 1.19q-3.79 0.03-7.55 0.03z"/>
			<path class="s1" d="m88.87 104.51q0.02-3.26 0.04-6.52c1.92-4.21-2.61-9.56 3.09-13.1q-0.12 0.57 0 1.15c-0.05 3.17 0.13 6.37-0.17 9.51-0.39 3.93 1.51 5.5 5.9 5.04q0.04 7.82 0.08 15.64c-2.85-0.18-5.51 0.3-7.96 1.6q-0.47-2.1-0.97-4.21-0.01-1.3-0.03-2.61 0.01-3.23 0.02-6.5z"/>
			<path class="s2" d="m217.34 247.08c1.52 1.22 3.04 2.45 5.98 4.81-11.27 0-20.9 0.1-30.53-0.04-3.8-0.05-2.94-2.85-3.21-4.89q13.88 0.06 27.76 0.12z"/>
			<path class="s2" d="m265.42 247.21c1.56 1.16 3.11 2.31 6.38 4.74-7.48 0-13.02-0.1-18.55 0.04-2.49 0.05-5.77-1.02-6.49 2.55q-2.02 0.09-4.03 0.17c-5.96-0.47-4.82-4.42-5.03-7.71 4.86-0.33 9.72-0.81 14.48 0.59 2.92 2.51 5.82 2.54 8.72-0.03 1.43-0.84 2.98-0.6 4.52-0.35z"/>
			<path class="s2" d="m108.45 156.57c1.14-1.42 2.88-1.12 4.51-1.18q37.57 0 75.13 0c3.51 0.47 7.32-1.03 10.57 1.16-3.48 0.05-6.96 0.13-10.43 0.14q-39.14 0.18-78.29 0.34-0.73-0.22-1.49-0.46z"/>
			<path class="s4" d="m109.95 157.03q39.14-0.17 78.29-0.34c3.48-0.01 6.95-0.09 10.43-0.14q0.72 0.27 1.44 0.53c-1.41 0.32-2.81 0.91-4.22 0.91q-40.86 0.07-81.71-0.02c-1.42-0.01-2.82-0.61-4.23-0.94z"/>
			<path class="s4" d="m281.4 157.11c15.51-0.56 31.03-0.59 46.54 0q-23.27 2.25-46.54 0z"/>
			<path class="s2" d="m343.02 156.67c7.52-2.03 15.03-2.09 22.54 0.02q-3.01 0.22-6.02 0.45-1.5 0-2.99-0.02-6.76-0.22-13.53-0.45z"/>
			<path class="s1" d="m234.74 84.99q-3.76 6.15-7.53 0 3.78 0 7.53 0z"/>
			<path class="s2" d="m293.42 246.92q-3.79 5.81-7.57 0 3.78 0 7.57 0z"/>
			<path class="s1" d="m89.92 119.84c2.52 2.27 3.57 4.54-0.09 6.75-0.9-2.26-0.3-4.51 0.09-6.75z"/>
			<path class="s1" d="m356.53 246.99q-2.99 5.11-5.97 0 2.98 0 5.97 0z"/>
			<path class="s1" d="m364.06 247c-0.25 1.28-0.74 2.35-2.58 2.15-1.44-0.15-1.68-1.16-1.89-2.15q2.23 0 4.47 0z"/>
			<path class="s1" d="m260.9 247.57c-2.9 2.58-5.8 2.53-8.72 0.03 2.9-0.86 5.81-0.85 8.72-0.03z"/>
			<path class="s6" d="m397.49 150.15q2.39 2.65 0.01 5.29 0-2.64-0.01-5.29z"/>
			<path class="s4" d="m266.35 157.12q2.98 0 5.96-0.01-2.98 1.94-5.96 0.01z"/>
			<path class="s4" d="m240.77 157.11q2.24-0.01 4.47-0.01-2.21 1.82-4.47 0.01z"/>
			<path class="s4" d="m356.56 157.14q1.5-0.01 3 0.01-1.51 1.44-3-0.01z"/>
			<path class="s4" d="m221.21 237.98q1.51 0 3.01 0-1.5 1.58-3.01 0z"/>
			<path class="s2" d="m91.83 246.97q-1.06 0.58-2.13 1.15c-0.03-1.42 1.01-1.34 2.13-1.15z"/>
			<path class="s2" d="m385.06 247.13c-0.59 0.55-1.04 0.38-1.41-0.2q0.7 0.1 1.41 0.2z"/>
			<path class="s4" d="m92.01 86.04q-0.13-0.58 0-1.15 0.62-0.06 1.24 0-0.63 0.57-1.24 1.15z"/>
			<path class="s4" d="m382.13 157.25q0.76-0.09 1.52-0.19c-0.44 0.56-0.92 0.69-1.52 0.19z"/>
			<path class="s4" d="m379.09 237.95q0.76-0.01 1.53-0.01-0.74 0.89-1.53 0.01z"/>
			<path class="s4" d="m355.03 238.02q0.76-0.01 1.53-0.02-0.74 0.87-1.53 0.02z"/>
			<path class="s2" d="m242.29 357.58c0.42 3.18 3.24 2.66 5.63 2.68 5.69 0.03 11.39 0.23 17.05-0.04 4.62-0.23 6.38 1.38 5.88 5.21q-2.27 0.26-4.54 0.52-35.76-0.13-71.52-0.28c-2.73-0.01-5.45-0.15-8.17-0.23-1.34-3.49-1.09-5.45 4.35-5.26 10.62 0.36 21.27 0.15 31.93 0.06 2.57-0.02 5.55 0.89 7.46-1.63q1.54-0.49 3.05-0.98c4.13-0.36 2.17-3.64 3.3-5.43 3.34 0.04 1.85 4.53 5.4 4.19l0.56-0.09q-0.2 0.65-0.38 1.28z"/>
			<path class="s5" d="m233.4 357.63q-1.54 0.49-3.06 0.98c-41.59-0.2-83.18-0.52-124.75-0.46-6.37 0.02-7.89-1.52-7.84-6.89 0.27-30 0.21-60.02-0.05-90.02-0.04-4.93 1.16-6.7 7.37-6.66 40.6 0.25 81.2 0.16 121.78 0.04 4.44-0.01 6.74 0.43 6.71 5.16-0.25 32.62-0.15 65.24-0.16 97.85zm-115.96-3.86c1 3.98 4.71 2.5 7.36 2.52 21.29 0.1 42.6 0.24 63.91-0.02 11.07-0.14 22.16 1.15 33.25-2.19 5.81-1.75 8.11-3.63 8.38-8.75 0.56-10.42-0.78-20.78-0.3-31.23 0.74-16.05 0.15-32.16 0.23-48.26 0.01-2.65-0.53-5.34-3.81-5.46-5.76-0.21-10.97-2.96-16.42-3.02-30.56-0.32-61.13-0.3-91.71-0.07-11.78 0.09-17.41 5.62-17.41 15.98q-0.02 35.22 0 70.44c0 1.53-0.4 3.18 0.14 4.55 1.26 3.24 3.04 6.58 6.9 7.83 2.17 0.71 5.74 1.36 6.5-2.32q1.47-0.02 2.98 0z"/>
			<path class="s5" d="m242.73 254.71q2.01-0.08 4.03-0.17c40.76 0.04 81.54 0.26 122.31-0.02 7.08-0.05 8.56 1.68 8.48 7.56-0.33 29.95-0.1 59.9-0.04 89.86 0 3.3 0.67 6.41-5.39 6.34-31.76-0.34-63.51-0.39-95.28-0.54q0-0.69 0-1.38c27.06 0 54.11-0.24 81.15 0.13 9.18 0.13 16.84-6.43 16.73-14.16-0.36-24.56-0.12-49.12-0.15-73.69-0.01-6.34-4.93-11.33-12.14-11.37-34.56-0.15-69.14-0.28-103.71 0.09-7.43 0.08-14.19 4.59-13.73 12.28 0.91 15.82 0.25 31.72 0.24 47.58q-1.28 0.02-2.55 0.03c-1-20.03 0.62-40.09-0.96-60.12-0.06-0.78 0.66-1.61 1.01-2.42z"/>
			<path class="s3" d="m276.84 356.35q0 0.69 0 1.37-16.54 0-33.09 0-0.55-0.71-1.1-1.42l-0.55 0.09q0.04-7.17 0.09-14.35c2.49-3.95 2.52-7.9-0.03-11.84q0.01-1.26 0.03-2.52c1.59-0.87 1.62-1.77 0.03-2.68q0.22-3.87 0.45-7.76 1.27-0.02 2.54-0.03c0.02 10.42 0.09 20.85 0 31.27-0.04 5.43 2.83 7.95 9.09 7.87 7.52-0.08 15.03 0 22.54 0z"/>
			<path class="s2" d="m240.95 341.89c-3.16 1.48-0.31 5.17-4.06 7.19-1.26-6.55-1.14-12.9-0.27-19.01 0.65-4.5 2.77 0.51 4.32 0.3q0.01 5.76 0.01 11.52z"/>
			<path class="s5" d="m240.95 341.89q0-5.76-0.01-11.52 0.6-0.15 1.23-0.17c2.56 3.94 2.53 7.89 0.03 11.84q-0.63-0.02-1.25-0.15z"/>
			<path class="s3" d="m88.78 308.05c-1.2-0.15-2.44-0.32-2.62-1.64-0.22-1.68 1.1-2.06 2.63-2.22q-0.01 1.92-0.01 3.86z"/>
			<path class="s5" d="m242.23 325c1.6 0.91 1.57 1.81-0.03 2.68q-2.73-1.36 0.03-2.68z"/>
			<path class="s8" d="m248.15 213.77c-3.92 3.58-3.21 8.11-2.98 12.35 0.25 4.73-2.53 5.41-6.91 5.18-3.94-0.19-8.5 0.75-8.07-4.86 0.23-2.86-0.55-5.61-1.73-8.27-0.73-2.18-1.61-4.28-4.09-5.48l0.03-0.01c-0.24-1.56-1.4-2.36-3.01-2.8-2.57-2.48-5.93-3.86-9.39-5.16-14.46-5.44-29.01-10.7-41.68-19.12-4.95-3.29-10.17-3.67-14.88 0.43-9.15 7.95-18.57 9.58-28.89 1.54-4.34-3.37-8.4-1.58-11.77 1.43-2.92 2.62-3.93 5.93-3.14 9.57-0.12 8.9-0.53 17.8-0.25 26.69 0.14 4.37-0.96 6.27-6.48 6.21-4.92-0.03-7.21-0.82-7.06-5.67 0.45-14.31 0.41-28.64 0.56-42.96 1.34 0.24 1.92 0.96 2.48 2.08 3.99 8.03 6.01 8.59 12.43 2.54 4.76-4.49 11.21-4.76 15.77-2.83 8.58 3.63 14.84 1.16 22.17-2.07 3.38-1.51 7.58-4.84 11.4-3.03 5.13 2.43 10.7 4.12 15.49 7.33 5.55 3.71 11.66 7.03 19.01 7.68q13.52 5.24 27.05 10.48 0.11 2.52 3 2.6v0.02c0.44 2.58 2.64 4.46 3.84 6.73 2.02 3.76 6.31 5.34 10.11 1.74 2.29-2.17 5.06-4.81 4.14-8.46l0.02-0.01c2.9 0.24 5.14-0.58 7.32-2.42 3.57-2.99 8.33-4.09 12.9-5.65 10.43-3.57 21.22-7.07 29.82-13.42 11.29-8.35 12.51-8.86 25.75-2.9 7.1 3.2 13.9 5.27 22.28 1.4 7.83-3.64 16.04 0.18 20.65 7.07 1.55 2.32 1.5 4.49 1.53 6.79q0.12 13 0.02 26.01c-0.02 2.7 1.17 3.95 4.39 3.95 3.06 0 4.49-0.89 4.71-3.72 0.2-2.3-1.8-5.43 2.44-6.68 1.32 12.8 1.32 12.8-13 13.29-4.3-1.06-3.2-4.15-2.72-6.46 1.79-8.65 0.84-17.33 0.9-25.99 0.01-2.53-0.5-5.31-1.73-7.57-3.78-6.88-9.27-6.7-19.28 0.35 0 0 0.06 0.07 0.06 0.08-5.8 2.34-11.12 1.33-16.2-1.68q-4.94-2.93-10.04-5.67c-2.44-1.3-5.19-2.05-7.73-0.38-14.27 9.44-31.08 14.55-47.09 21.05q-2.41 1.18-4.83 2.36-0.63 0.08-1.17 0.39-1.1 1.08-2.2 2.16-1.12 0.78-2.24 1.56-0.83 1.11-1.71 2.21z"/>
			<path class="s10" d="m377.12 218.07c-4.25 1.25-2.25 4.38-2.44 6.68-0.23 2.83-1.66 3.74-4.71 3.72-3.22 0-4.43-1.25-4.4-3.95q0.11-13.01-0.01-26.01c-0.02-2.31 0.01-4.47-1.54-6.79-4.59-6.91-12.82-10.71-20.64-7.07-8.37 3.87-15.18 1.8-22.28-1.4-13.25-5.96-14.45-5.45-25.75 2.9-8.59 6.34-19.4 9.84-29.83 13.42-4.59 1.56-9.32 2.66-12.89 5.65-2.18 1.83-4.42 2.66-7.33 2.41 4.29-8.1 13.56-10.26 21.88-12.83 8.16-2.52 15.45-6.32 23.14-9.53 2.64-1.09 3.67-3.48 2.8-6.15-0.89-2.71-3.4-2.82-5.99-2.82-5.01 0-10.02 0.03-15.03-0.02-2.41-0.03-5.27 0.57-5.84-2.61q0.1-0.53 0.26-1.06 4.34-0.02 8.68-0.05c5.09 1.64 10.19 1.6 15.29 0.03 26.45-0.01 52.92 0.1 79.37-0.14 5.86-0.05 7.96 1.44 7.77 6.66-0.47 12.98-0.38 25.97-0.51 38.96z"/>
			<path class="s10" d="m197.15 194.54c-7.36-0.65-13.47-3.97-19.02-7.68-4.79-3.19-10.35-4.9-15.48-7.33-3.83-1.8-8.02 1.52-11.41 3.03-7.33 3.23-13.59 5.7-22.16 2.07-4.55-1.93-11.02-1.66-15.77 2.84-6.41 6.05-8.45 5.48-12.43-2.55-0.56-1.12-1.15-1.84-2.49-2.08-0.93-10.21-0.94-10.28 10.81-10.3 27.75-0.02 55.51 0.04 83.26 0.07q0.92 1.02 1.85 0 3.61-0.03 7.2-0.03 4.66 2.29 9.29 0 2.07 0.01 4.15 0.03 0.16 0.53 0.26 1.06c-0.58 3.19-3.45 2.57-5.84 2.58-7.77 0.05-15.52-0.05-23.28 0.07-2.3 0.03-5.43-1.09-6.59 1.65-1.17 2.76 1.8 4.04 3.37 5.94 3.79 4.64 11.95 4.68 14.28 10.63z"/>
			<path class="s11" d="m224.06 224.59c1.91 5.37-0.67 6.64-6.69 6.57-21.78-0.23-43.57-0.01-65.36 0.03-9.01-0.09-18.03-0.47-27.01-0.2-5.69 0.19-7.8-1.81-7.51-6.42 2.36-1.8 5.24-0.95 7.87-0.98 13.41-0.14 26.81-0.16 40.22-0.21q23.29-0.05 46.59-0.09 5.06 0.07 10.09 0.17 0.91 0.57 1.8 1.13z"/>
			<path class="s0" d="m222.26 223.46q-5.06-0.08-10.09-0.17c0.22-0.61 0.22-1.45 0.7-1.8 8.14-6.05 7.71-10.34-1.77-14.12-7.07-2.8-14.58-4.84-21.41-8.01-4.53-2.1-8.93-2.35-13.68-2.13l0.01-0.01c-5.41-8.36-12.18-10.07-22.06-5.92-5.49 2.31-11.1 4.48-17.53 3.7-3.86-0.47-7.82-1.5-11.48 0.74q-2.92 0.1-5.85 0.2c-3.28 0.14-3.17 2.19-3.17 4.2 0 4.13 0.12 8.25-0.03 12.36-0.22 5.76 2.87 8.27 9.47 8.19 11.25-0.14 22.5-0.08 33.74 0.01 2.53 0.02 5.84-0.96 6.44 2.71-13.41 0.05-26.81 0.06-40.22 0.21-2.63 0.02-5.49-0.83-7.87 0.97-4.57-0.36-4.36-3.25-4.6-6.18-0.55-6.61 1.56-13.33-1.27-19.82-0.78-3.64 0.23-6.95 3.16-9.57 3.39-3.03 7.45-4.81 11.77-1.44 10.32 8.04 19.74 6.41 28.89-1.54 4.71-4.1 9.93-3.72 14.88-0.43 12.67 8.42 27.22 13.68 41.68 19.13 3.46 1.3 6.82 2.67 9.39 5.17-0.18 1.89 0.74 2.88 3.01 2.79l-0.03 0.01c-0.99 3.53 1.7 7.62-2.08 10.75z"/>
			<path class="s10" d="m231.86 172.59q3.54 0.06 7.11 0.11 0.18 0.53 0.25 1.08c-3.97 3.42-15.75 3.37-19.54-0.1 4.03-0.56 8.32 0.95 12.18-1.09z"/>
			<path class="s6" d="m239.22 173.77q-0.09-0.55-0.25-1.08c9.19-0.63 18.38-0.55 27.58-0.1q-0.17 0.52-0.26 1.06-1.46 0-2.93 0.01-9.8 0.04-19.59 0.07-2.29 0.02-4.55 0.04z"/>
			<path class="s6" d="m231.86 172.59c-3.86 2.04-8.15 0.53-12.18 1.09q-2.24 0-4.46 0-0.08-0.55-0.25-1.06 8.44-0.02 16.89-0.03z"/>
			<path class="s6" d="m290.52 172.61c-5.1 1.56-10.2 1.6-15.29-0.04q7.65 0 15.29 0.04z"/>
			<path class="s6" d="m210.81 172.59q-4.65 2.3-9.28 0 4.64 0 9.28 0z"/>
			<path class="s6" d="m194.31 172.62q-0.93 1.02-1.85 0 0.92 0 1.85 0z"/>
			<path class="s3" d="m386.5 257.14c2.61 3.94 2.59 7.88 0.02 11.82q-0.01-5.9-0.02-11.82z"/>
			<path class="s3" d="m386.55 281.95c2.54 3.91 2.45 7.83 0.06 11.76q-0.02-5.87-0.06-11.76z"/>
			<path class="s3" d="m386.57 323.73q3.3 2.61 0 5.23 0.01-2.63 0-5.23z"/>
			<path class="s3" d="m386.58 334.16q3.28 2.62-0.01 5.24 0-2.62 0.01-5.24z"/>
			<path class="s3" d="m386.49 249.31q3.17 2 0 3.99-0.02-1.97 0-3.99z"/>
			<path class="s5" d="m242.65 356.3q0.55 0.71 1.1 1.42-0.73-0.07-1.46-0.14 0.18-0.63 0.36-1.28z"/>
			<path class="s11" d="m344.54 149.66c-1.52-0.58-3.04-0.55-4.58-0.07-11.13-0.73-22.25-0.5-33.39-0.08-5.64 0.24-9.31-3.93-14.46-4.82-2.39-1.68-5.35-2.14-8.2-2.8-6.66-1.56-10.09 0.48-11.7 6.8-17.93 2.96-17.94 2.96-17.96-13.29 0-2.38-0.21-4.83 0.35-7.13 2.56-10.67 3.87-11.28 15.72-7.43 4.52 1.46 9.08 2.29 13.91 1.99 6.63-0.39 12.29-1.74 14.01-8.44 0.42-1.64 1.01-4.06 4.21-3.74 5.51 3.49 5.88 7.38 1.49 11.9-1.13 1.16-3.04 2.82-0.59 4.42 2.52 1.63 4.74 0.62 6.47-1.21 0.94-0.98 1.46-2.25 2.34-3.29 0.94-1.11 1.67-3.09 3.91-1.88 2.68 1.45 0.87 2.84-0.41 4.18-1.22 1.28-4.51 2.34-1.17 4.39 2.24 1.37 4.96 4.29 7.54 1.09 3.43-4.26 6.38-3.27 10.29-0.76 2.12 1.35 4.95 1.9 7.46 2.8 2.41 0.97 4.92 1.76 7.2 2.91 7.85 3.93 9.55 7.55 7.11 14.67-1.68-0.65-3.38-0.76-5.11-0.1q-2.2-0.04-4.44-0.11z"/>
			<path class="s12" d="m221.48 121.56q-0.09 8.43-0.18 16.87c-2.02 1.28-1.98 2.61-0.13 3.98q-0.02 1.22-0.03 2.44c-2.37-0.04-4.2 1.01-6.2 1.95-3.16 1.46-5.9 1.19-8.23-1.92-6.13-8.17-8.96-8.61-18.44-2.97-5.97 3.56-11.99 7.78-19.18 8.07-15.74 0.63-31.53 0.17-47.3 0.15-2.33 0-4.62-0.16-5.46-2.52-0.86-2.43 0.32-4.36 2.6-5.58 1.89-0.99 4.01-1.79 6.14-2.22 11.77-2.37 23.43-5.69 32.58-12.41 9.23-6.78 17.65-6.28 27.4-2.09q8.96 3.82 17.7-1.28c3.67-2.14 8-3.51 12.22-4.81 2.57-0.79 5.62-1.09 6.51 2.34z"/>
			<path class="s13" d="m221.48 121.56c-0.89-3.43-3.96-3.12-6.51-2.35-4.22 1.29-8.55 2.66-12.22 4.8q-8.74 5.11-17.7 1.28c-9.75-4.17-18.17-4.67-27.4 2.09-9.15 6.73-20.8 10.04-32.58 12.42-2.13 0.43-4.27 1.23-6.14 2.22-2.3 1.21-3.47 3.14-2.6 5.57 0.84 2.37 3.13 2.52 5.46 2.52 15.77 0.03 31.56 0.49 47.3-0.14 7.19-0.29 13.21-4.53 19.18-8.07 9.48-5.63 12.31-5.21 18.44 2.97 2.33 3.1 5.07 3.38 8.23 1.91 2.01-0.94 3.83-1.98 6.19-1.94 0.47 3.82-1.57 5.5-5.92 5.39-4.16-0.1-8.31-0.08-12.46-0.1-0.02-3.82-2.44-4.85-6.35-4.1-1.45 0.27-3.58 0.62-3.42 1.97 0.38 3.09 3.87 1.62 5.86 2.43-0.83 2.91-3.56 2.32-5.89 2.37-2.22 0.05-4.51-0.06-4.86 2.6q-37.56 0-75.13 0c-6.71-8.25-0.48-15.64 9.03-18.15 5.97-1.56 11.4-3.89 16.63-6.72q8.26-4.52 16.5-9.04c2.23-0.06 4.38 0.12 6.2-1.57 6.13-5.68 13.23-4.14 20.59-2.08 7.51 2.1 15.78 2.35 22.76 0.14 5.56-1.76 10.73-1.85 15.95-1.5 4.67 0.29 5.07 2.78 0.86 5.08z"/>
			<path class="s8" d="m365.71 149.67q-1.43-3.21-2.86-6.42c-0.01-2.17-0.43-4.26-1.86-6.1-3.72-7.46-12.25-9.01-19.58-12.05-2.51-2.55-6.16-3.53-9.41-5.01-9.61-4.38-19.81-7.89-27.85-14.56-1.31-1.5-1.94-3.66-4.74-3.75q-0.72 0.72-1.44 1.44-0.79 1.32-1.57 2.64-0.62 0.61-1.23 1.22c-0.96 6.14-5.18 8.29-12.02 7.91-7.35-0.4-14.15-2.49-20.95-4.51-5.91-1.77-9.34-1.05-12.17 4.54-4.67 9.22-3.58 18.7-3.42 28.12 0.11 5.5-2.06 6.99-8.15 7.01-5.87 0.02-8.52-0.91-8.19-6.67 0.53-9.06 0.04-18.17 0-27.26 3.73 0.48 3.01 3.03 2.93 5.07-0.09 2.5 0.41 4.64 2.56 6.49 0.93 0.79 0.81 2.92 2.92 2.07 1.25-0.49 3.04-1.85 2.94-2.66-0.62-4.95 3.88-8.78 3.64-13.57l0.01-0.01c4.02-0.4 2.73-3.15 3.03-5.18 5.37-3.42 12.14-4.1 17.41-2.14 7.31 2.71 14.43 1.68 21.65 2.08q2.97-0.01 2.99-2.59 0.03-1.3 0.05-2.59c12.07-5.87 11.52-5.27 22.46 2.17 6.67 4.53 13.04 10.57 22.66 10.86q7.51 3.28 15.02 6.57c6.43 5.39 13.05 10.6 16.19 18.26 0.71 1.74 2.16 4.31 5.44 3.65 3.58-0.74 2.36-3.45 2.39-5.41 0.12-10-0.03-19.99 0.12-29.99 0.03-2.14-1.49-4.99 2.39-6.08 0.14 14.07 0.08 28.16 0.48 42.23 0.17 5.53-4.03 4.25-7.52 4.44q-1.39 0-2.78 0c-0.53-0.05-1.03-0.14-1.54-0.22z"/>
			<path class="s2" d="m304.15 105.53c8.02 6.67 18.24 10.17 27.85 14.55 3.27 1.49 6.9 2.47 9.42 5.02q0.03 2.72 0.05 5.44-0.83 0.88-1.66 1.78c-2.51-0.92-5.32-1.45-7.46-2.81-3.91-2.49-6.86-3.48-10.29 0.77-2.57 3.2-5.31 0.28-7.54-1.09-3.34-2.05-0.05-3.11 1.17-4.39 1.28-1.35 3.09-2.72 0.41-4.18-2.24-1.21-2.96 0.77-3.91 1.88-0.89 1.03-1.4 2.31-2.34 3.29-1.73 1.83-3.95 2.82-6.47 1.2-2.43-1.58-0.54-3.25 0.59-4.41 4.41-4.52 4.02-8.41-1.49-11.91-0.36-1.93 0.69-3.52 1.67-5.14z"/>
			<path class="s8" d="m155.14 121.48q-8.27 4.52-16.51 9.04c-6-3.38-11.03 1.75-16.67 1.46q-0.01-1.33-0.02-2.68c5.5-0.19 10.24-2.54 15.19-4.16 6.71-2.2 12.55-5.56 17.96-9.9 8.16-6.51 18.8-3.86 28.56-4.2 4.28 5.35 10.64 3.08 15.25 1.79 9.33-2.6 18.43-5.19 28.36-4.42q-0.02 1.37-0.06 2.76c-2.68-1.61-5.43-1.96-8.43-0.6-1.08 0.49-2.39 0.62-3.5 1.09-12.03 5-24.29 7.84-37.26 2.78-10.32-4-16.78 1-22.87 7.04z"/>
			<path class="s10" d="m227.18 111.17q0.02-1.37 0.06-2.76c2.31-0.04 3.44 1.56 4.61 2.77 3.79 3.93 7.91 5.81 13.41 2.46 0.25 4.79-4.25 8.61-3.64 13.56 0.1 0.81-1.71 2.17-2.94 2.66-2.11 0.84-1.99-1.28-2.92-2.07-2.15-1.84-2.65-3.98-2.56-6.49 0.08-2.05 0.8-4.6-2.93-5.07q-1.55-2.52-3.09-5.06z"/>
			<path class="s12" d="m272.22 148.7c1.61-6.33 5.04-8.35 11.71-6.8 2.84 0.67 5.81 1.11 8.2 2.81-2.88 2.15-3.96 6.54-9.3 5.63-3.6-0.27-7.34 0.2-10.61-1.64z"/>
			<path class="s3" d="m198.85 150.41c-1.99-0.81-5.48 0.67-5.85-2.42-0.17-1.35 1.97-1.7 3.41-1.98 3.9-0.74 6.34 0.29 6.35 4.1q-1.97 0.16-3.91 0.3z"/>
			<path class="s13" d="m221.18 142.41c-1.85-1.37-1.88-2.7 0.14-3.98q2.82 2.06-0.14 3.98z"/>
			<path class="s2" d="m297.97 103.22q0.72-0.72 1.44-1.44-0.72 0.73-1.44 1.44z"/>
			<path class="s2" d="m295.17 107.09q0.61-0.61 1.23-1.22-0.6 0.61-1.23 1.22z"/>
			<path class="s13" d="m341.29 191.69c0.5 0.06 1.05 0 1.47 0.19 4.4 1.77 12.36-3.85 13.42 3.71 0.65 4.57 5.77 8.55 2.53 13.6-0.78 1.21-0.28 2.48 0.12 3.77 1.6 5.15-1.76 7.68-6.9 7.59-20.96-0.41-41.99 1.54-62.92-1.09-8-1-15.87 0.89-23.82 1.47-1.38 0.1-1.74 1.39-1.92 2.5q-4.5 0.08-8.97 0.15-0.8-4.1-1.6-8.19c6.66-5.47 14.41-9.58 22.59-12.94 10.55-4.32 22.42-6.38 30.62-14.59 2.06-2.07 5.48-1.64 8.26-0.03q4.65 2.67 9.3 5.33c4.55 2.59 14.82 1.8 17.86-1.39zm-4.96 25.02q2.62 0 5.25 0c12.52 0 15.56-3.33 12.79-14-0.17-0.63-0.54-1.23-0.63-1.86-0.65-4.8-2.61-5.79-7.93-3.28-9.71 4.55-19.44 5.08-28.35-2.09-3.54-2.85-7.72-2.9-11.66-0.33-7.27 4.74-15.34 8.02-23.97 10.47-6.13 1.75-12.03 4.14-17.95 6.37-1.75 0.67-4.61 1.28-4.22 3.19 0.54 2.69 3.72 1.58 5.67 1.5 23.67-1.02 47.33 3.66 71 0.03z"/>
			<path class="s11" d="m254.3 223.56q4.5-0.08 8.97-0.14c28.05 0.08 56.09 0.12 84.14 0.33 2.86 0.02 7.74-2.05 7.56 3.42-0.17 4.83-4.4 3.8-7.71 3.81-29.81 0.17-59.63 0.17-89.42 0.55-5.27 0.06-7.38-1.18-6.61-5.68q1.53-1.13 3.07-2.29z"/>
			<path class="s2" d="m254.3 223.56q-1.53 1.15-3.09 2.3c-5.92-3.08-1.5-8.16-3.08-12.08q0.87-1.11 1.75-2.22 1.41 1.92 2.83 3.83 0.8 4.09 1.59 8.17z"/>
			<path class="s2" d="m222.26 223.46c3.78-3.14 1.09-7.22 2.09-10.77 2.49 1.2 3.36 3.3 4.1 5.48-2.66 1.53 0.66 6.14-4.39 6.41q-0.89-0.55-1.8-1.12z"/>
			<path class="s10" d="m377.06 103.23c-3.89 1.1-2.37 3.96-2.4 6.08-0.15 10 0 19.99-0.12 29.99-0.03 1.96 1.19 4.68-2.39 5.41-3.28 0.66-4.72-1.91-5.43-3.65-3.15-7.67-9.77-12.87-16.19-18.27 3.34-2.95 5.74-0.33 8.48 0.98 6.02 2.9 9.15 1.62 9.48-4.17 0.35-6.06 0.14-12.13 0.06-18.2-0.04-3.94-2.51-6-7.02-6.02-14.24-0.04-28.47 0-42.71-0.04-2.18 0-3.82 0.5-4.89 2.3-1.13 1.92-0.19 3.47 1.18 4.73 1.49 1.37 3.44 2.4 5.16 3.55 5.11 3.39 12.26 4.58 15.25 10.31-9.63-0.3-15.99-6.33-22.66-10.86-10.94-7.44-10.39-8.04-22.46-2.17 1.2-6.59-2.58-7.95-9.48-7.93-55.84 0.19-111.68 0.1-167.51 0.1-9.16 0-12.31 2.57-12.44 10.54-0.14 8.69 0.15 17.39-0.12 26.07-0.12 4.02 1.52 5.67 6.06 5.13l0.03 0.03c0.39 4.93-1.67 8-7.94 7.85-2.04-9.53-0.38-19.19-1.18-28.76q-0.04-7.82-0.07-15.64c0.61-3.63-1.3-8.63 6.2-8.47 35.07 0.6 70.15 0.78 105.21 0.01 3.07 0.66 6.12 0.67 9.16-0.11 2.58 0.65 5.12 0.92 7.55-0.37q1.36-0.02 2.73-0.05c16.57 1.34 33.15-0.04 49.73 0.1 1.48 1.13 3.07 0.88 4.68 0.28q4.37 1.11 8.74 0 2.31 0.85 4.68 0.14 39.07 0.26 78.16 0.52c0.09 1.71-0.32 3.67 2.57 4.04q-0.06 3.28-0.1 6.55z"/>
			<path class="s1" d="m278.31 91.72c-16.58-0.15-33.14 1.24-49.73-0.11 1.39-1.68 3.46-1.45 5.45-1.45q19.48-0.02 38.96 0.01c1.95 0 4.09-0.35 5.32 1.55z"/>
			<path class="s1" d="m291.75 91.99q-4.37 1.11-8.74 0 4.37-4.3 8.74 0z"/>
			<path class="s1" d="m225.88 91.66c-2.44 1.3-4.98 1.02-7.56 0.37 2.32-3.16 4.91-2.38 7.56-0.37z"/>
			<path class="s8" d="m377.15 96.69c-2.89-0.37-2.49-2.32-2.58-4.03 3.52 0.06 2.95 2.08 2.58 4.03z"/>
			<path class="s0" d="m199.6 88.53c-0.18 0.35-0.27 0.91-0.57 1.02-0.3 0.1-0.8-0.25-1.22-0.41 0.18-0.35 0.27-0.91 0.56-1.02 0.32-0.1 0.81 0.25 1.23 0.41z"/>
			<path class="s8" d="m98.98 145.01c6.28 0.13 8.34-2.94 7.95-7.86 1.58 0.05 3.28-0.27 4.4 1.12-1.41 2.73-3.25 5.35-2.84 8.54 0.39 2.99-1.87 3.59-4.56 3.81-4.5 0.04-6.92-1.32-4.95-5.61z"/>
			<path class="s3" d="m386.6 147.57q0.01-7.82 0.06-15.63c4.3 3.55 4.27 12.14-0.06 15.63z"/>
			<path class="s1" d="m306.59 149.53c11.13-0.42 22.27-0.66 33.39 0.07-3.1 3.91-7.66 1.23-11.5 1.83-2.61 0.42-5.38 0.12-8.09 0.14-4.55-0.95-9.84 1.89-13.8-2.04z"/>
			<path class="s1" d="m339.8 132.32q0.83-0.88 1.65-1.78c3.98-0.14 7.33 1.52 10.25 3.41 2.87 1.85 5.45 3.72 9.29 3.18 1.43 1.85 1.85 3.94 1.86 6.1-0.74 8.78-1.05 9.01-8.73 6.65 2.44-7.12 0.74-10.73-7.11-14.66-2.29-1.14-4.8-1.94-7.21-2.9z"/>
			<path class="s1" d="m344.54 149.66q2.23 0.06 4.47 0.13c-0.12 1.21 0.01 2.66-1.96 2.8-2.5 0.19-2.42-1.46-2.51-2.93z"/>
			<path class="s1" d="m365.71 149.67q0.76 0.13 1.52 0.25c-0.78 1.15-1.28 1.02-1.52-0.25z"/>
			<path class="s3" d="m88.87 104.51q0 3.26-0.02 6.53-7.13-3.28 0.02-6.53z"/>
			<path class="s10" d="m111.33 138.26c-1.12-1.4-2.82-1.07-4.4-1.12l-0.03-0.03c3.13-5.34 7.52-8.84 15.03-7.82q0.01 1.33 0.01 2.68c-4.31 1.1-6.98 4.29-10.61 6.29z"/>
			<path class="s14" d="m117.44 353.77q-1.5 0-3 0c-6.37-1.82-7.56-6.18-7.54-11.26 0.04-21.71 0.01-43.43 0.01-65.14 0-9.22 6.56-14.93 17.4-14.94 27.28-0.04 54.56 0.1 81.84-0.1 5.91-0.04 10.73 2.72 16.23 3.68 2.95 0.51 5.87 3.33 4.01 7.22-1.28 2.66-0.94 5.6-0.44 8.37 2.09 11.68 0.68 13.43-12.59 14.76-6.79 0.69-13.05 6.35-11.58 10.47 2.41 6.73 7.39 10.29 15.64 10.3 5.36 0.02 7.06 2 6.86 6.33-0.22 5.21-0.18 10.42-0.02 15.63 0.17 5.39-1.54 8.84-8.57 10.16-5.4 1.02-10.66 2.3-16.18 1.87-13.6-1.06-27.16 1.85-40.82 0.15-6.26-0.77-11.89 3.42-18.72 2.65-7.42-0.82-15.02-0.17-22.53-0.15z"/>
			<path class="s9" d="m117.44 353.77c7.51-0.02 15.11-0.67 22.5 0.17 6.83 0.77 12.46-3.44 18.72-2.65 13.68 1.68 27.22-1.22 40.82-0.16 5.52 0.43 10.78-0.85 16.18-1.87 7.04-1.32 8.74-4.76 8.58-10.15-0.15-5.21-0.22-10.44 0.01-15.63 0.2-4.34-1.5-6.32-6.86-6.33-8.25-0.02-13.24-3.58-15.64-10.3-1.47-4.13 4.79-9.78 11.58-10.48 13.27-1.34 14.68-3.08 12.59-14.76-0.5-2.77-0.86-5.71 0.44-8.37 1.88-3.89-1.06-6.71-4.01-7.22-5.5-0.95-10.32-3.72-16.23-3.68-27.28 0.21-54.56 0.06-81.84 0.1-10.84 0.02-17.4 5.72-17.4 14.94 0 21.71 0.03 43.43-0.01 65.14-0.02 5.08 1.17 9.44 7.54 11.26-0.76 3.68-4.34 3.03-6.51 2.32-3.85-1.25-5.64-4.59-6.9-7.83-0.53-1.37-0.14-3.02-0.14-4.54q-0.01-35.23 0-70.45c0.02-10.35 5.63-15.9 17.41-15.98 30.58-0.22 61.15-0.25 91.72 0.08 5.44 0.05 10.65 2.8 16.41 3.01 3.28 0.12 3.82 2.81 3.81 5.46-0.08 16.09 0.51 32.2-0.23 48.27-0.48 10.44 0.86 20.81 0.3 31.23-0.27 5.11-2.57 6.99-8.38 8.74-11.09 3.35-22.18 2.06-33.25 2.2-21.29 0.27-42.6 0.13-63.91 0.01-2.59-0.03-6.3 1.44-7.3-2.53zm96.41-40.16c4.49-0.24 7.39-2.35 7.27-6.44-0.13-4.19-3.05-6.9-7.99-6.93-4.95-0.03-6.88 3.11-6.92 6.89-0.06 4.11 2.71 6.24 7.64 6.48z"/>
			<path class="s9" d="m276.84 356.35c-7.51 0-15.02-0.09-22.52 0.01-6.26 0.08-9.14-2.44-9.09-7.87 0.09-10.42 0-20.85 0-31.27 0.01-15.86 0.67-31.76-0.24-47.58-0.46-7.69 6.3-12.2 13.73-12.28 34.57-0.37 69.13-0.26 103.71-0.09 7.22 0.04 12.14 5.03 12.14 11.37 0.03 24.56-0.21 49.13 0.15 73.69 0.12 7.73-7.53 14.3-16.73 14.16-27.04-0.39-54.09-0.14-81.15-0.14zm36.46-5.22c13.77 0 27.54 0.05 41.31-0.01 10.18-0.06 13.97-3.33 13.97-11.91q0-16.14 0-32.27c0-11.52-0.04-23.02 0.03-34.54 0.02-2.76-0.28-5.6-3.47-6.64-4.53-1.48-9.33-3.17-14.04-3.21-30.17-0.29-60.34-0.17-90.51-0.13-5.63 0-7.69 2.88-9.57 7.36-2.62 6.27 1.05 11.97 0.21 17.89-0.95 6.6 2.24 8.95 9.74 8.78 6.78-0.15 11.37 5.07 11.37 11.8 0 7.73-0.83 8.44-10.49 8.97-8.14 0.45-10.53 2.6-10.56 9.52-0.01 5.65-0.27 11.31 0.11 16.93 0.27 4.17 2.19 7.5 8.11 7.48 17.92-0.07 35.85-0.03 53.79-0.02zm-45.07-44.27c-0.24-3.97-2.33-6.79-7.17-6.63-4.95 0.16-7.17 3-7.53 7.27-0.4 4.78 3.12 5.77 7.26 5.86 4.83 0.12 7.08-2.46 7.44-6.5z"/>
			<path class="s15" d="m215.22 173.68q2.24 0 4.46 0c3.79 3.47 15.57 3.52 19.54 0.1q2.27-0.02 4.53-0.04c4.25 3.74 15.5 3.7 19.59-0.06q1.47 0 2.94-0.02c0.55 3.19 3.43 2.59 5.84 2.62 5.01 0.05 10.02 0.02 15.03 0.02 2.59 0 5.11 0.12 5.99 2.82 0.87 2.67-0.17 5.06-2.8 6.15-7.69 3.2-14.99 7.01-23.15 9.53-8.33 2.57-17.6 4.74-21.87 12.84l-0.02 0.01c-6.03 0.86-12.05 0.89-18.09-0.01v-0.02q-0.04-2.58-3-2.6-13.52-5.24-27.05-10.48c-2.33-5.95-10.48-5.99-14.28-10.61-1.56-1.91-4.52-3.19-3.37-5.94 1.18-2.75 4.29-1.64 6.59-1.66 7.75-0.13 15.52-0.03 23.28-0.07 2.38-0.01 5.27 0.62 5.84-2.58z"/>
			<path class="s0" d="m252.71 215.39q-1.42-1.91-2.83-3.82 1.12-0.79 2.24-1.57c1.53-0.11 2.04-0.99 2.18-2.16q0.52-0.31 1.17-0.39c2.24 0.17 4.49 0.37 4.83-2.36 16-6.49 32.82-11.59 47.09-21.05 2.53-1.67 5.28-0.92 7.73 0.38q5.1 2.73 10.04 5.67c5.08 3.02 10.39 4.02 16.2 1.68-3.04 3.19-13.33 3.99-17.86 1.39q-4.66-2.67-9.3-5.33c-2.78-1.61-6.21-2.04-8.26 0.03-8.2 8.22-20.07 10.27-30.62 14.59-8.21 3.35-15.96 7.47-22.61 12.94z"/>
			<path class="s10" d="m227.2 207.62c6.03 0.9 12.05 0.88 18.09 0.02 0.93 3.64-1.85 6.27-4.14 8.46-3.81 3.6-8.1 2.02-10.11-1.74-1.21-2.27-3.4-4.17-3.84-6.74z"/>
			<path class="s2" d="m224.39 212.69c-2.28 0.09-3.19-0.9-3.01-2.8 1.61 0.45 2.78 1.24 3.01 2.8z"/>
			<path class="s10" d="m224.19 205.02q2.97 0.02 3.01 2.6-2.91-0.09-3.01-2.6z"/>
			<path class="s2" d="m260.32 205.08c-0.35 2.72-2.59 2.53-4.83 2.36q2.41-1.17 4.83-2.36z"/>
			<path class="s2" d="m254.31 207.83c-0.13 1.18-0.64 2.05-2.18 2.16q1.08-1.08 2.18-2.16z"/>
			<path class="s13" d="m176.02 197.23c4.74-0.22 9.15 0.03 13.68 2.13 6.83 3.17 14.34 5.21 21.41 8.01 9.48 3.78 9.92 8.07 1.78 14.12-0.48 0.35-0.48 1.19-0.71 1.8q-23.29 0.04-46.58 0.09c-0.59-3.65-3.92-2.68-6.45-2.7-11.24-0.08-22.49-0.16-33.73-0.01-6.61 0.07-9.69-2.43-9.48-8.19 0.15-4.11 0.03-8.24 0.03-12.36 0-2-0.11-4.06 3.17-4.21-0.03 3.46-0.09 6.93-0.07 10.39 0.03 8.8 0.66 9.91 10.74 10.21 24.65 0.73 49.33 1.09 73.99 1.26 3.57 0.02 9.84 0.34 10.17-2.77 0.3-2.87-5.88-3.53-9.46-4.92-9.8-3.79-20.59-5.94-28.49-12.85z"/>
			<path class="s12" d="m176.02 197.23c7.9 6.91 18.69 9.06 28.46 12.87 3.58 1.4 9.78 2.05 9.46 4.93-0.33 3.1-6.6 2.79-10.17 2.76-24.66-0.17-49.34-0.52-73.99-1.25-10.08-0.3-10.71-1.41-10.74-10.21-0.02-3.46 0.04-6.93 0.07-10.39q2.93-0.1 5.86-0.2c7.1 6.41 16.53 7.48 24.19 3.36 9.3-5.03 17.37-6.86 26.88-1.9z"/>
			<path class="s13" d="m176.04 197.2c-9.51-4.96-17.59-3.13-26.88 1.9-7.64 4.14-17.07 3.05-24.19-3.36 3.66-2.24 7.61-1.21 11.48-0.74 6.42 0.77 12.04-1.39 17.53-3.7 9.87-4.16 16.64-2.44 22.06 5.9z"/>
			<path class="s10" d="m263.34 173.66c-4.1 3.77-15.34 3.8-19.59 0.07q9.8-0.02 19.59-0.07z"/>
			<path class="s15" d="m121.93 129.3c-7.51-1.02-11.92 2.48-15.03 7.82-4.55 0.52-6.2-1.11-6.07-5.13 0.27-8.68-0.03-17.38 0.12-26.07 0.14-7.96 3.28-10.52 12.45-10.54 55.84 0 111.68 0.08 167.5-0.1 6.91-0.03 10.69 1.34 9.48 7.94q-0.02 1.29-0.04 2.58-2.89 0.1-3 2.6c-7.22-0.4-14.34 0.61-21.65-2.09-5.27-1.96-12.04-1.27-17.41 2.14-4.05 0.39-2.74 3.15-3.02 5.19l-0.02 0.01c-5.49 3.35-9.61 1.47-13.41-2.46-1.17-1.21-2.31-2.82-4.6-2.76-4.88-5.19-11.48-2.99-16.76-1.83-8.9 1.93-17.44 4.95-26.83 4.45-9.75 0.34-20.41-2.31-28.56 4.2-5.42 4.34-11.26 7.71-17.97 9.9-4.95 1.61-9.69 3.96-15.18 4.15z"/>
			<path class="s15" d="m335.51 116.25c-2.98-5.73-10.14-6.91-15.26-10.32-1.71-1.15-3.67-2.16-5.16-3.55-1.37-1.25-2.3-2.81-1.17-4.72 1.07-1.81 2.71-2.32 4.89-2.3 14.23 0.04 28.47 0 42.7 0.04 4.52 0.01 6.98 2.07 7.03 6.02 0.07 6.07 0.28 12.14-0.06 18.19-0.33 5.8-3.48 7.07-9.48 4.17-2.73-1.32-5.15-3.94-8.49-0.98q-7.49-3.27-15-6.55z"/>
			<path class="s0" d="m360.99 137.14c-3.84 0.53-6.42-1.34-9.29-3.19-2.92-1.89-6.27-3.55-10.25-3.41q-0.02-2.72-0.04-5.44c7.33 3.03 15.86 4.59 19.58 12.04z"/>
			<path class="s10" d="m245.27 113.64c0.29-2.05-1.02-4.8 3.03-5.19-0.31 2.04 0.99 4.78-3.03 5.19z"/>
			<path class="s10" d="m287.34 108.4q0.11-2.5 3-2.6-0.01 2.57-3 2.6z"/>
			<path class="s10" d="m183.64 111.04c9.4 0.48 17.95-2.52 26.83-4.46 5.28-1.14 11.88-3.35 16.76 1.83-9.93-0.75-19.03 1.83-28.36 4.42-4.61 1.29-10.96 3.56-15.23-1.79z"/>
			<path class="s12" d="m336.32 216.71c-23.65 3.63-47.32-1.05-70.98-0.05-1.95 0.08-5.13 1.18-5.67-1.5-0.39-1.91 2.45-2.52 4.22-3.19 5.92-2.23 11.82-4.62 17.95-6.37 8.63-2.45 16.68-5.73 23.97-10.47 3.94-2.56 8.12-2.52 11.66 0.33 8.91 7.16 18.66 6.64 28.35 2.08 5.32-2.5 7.28-1.5 7.93 3.28 0.09 0.64 0.46 1.24 0.63 1.87 2.78 10.66-0.26 13.99-12.79 13.99q-2.66 0.04-5.27 0.03z"/>
			<path class="s1" d="m213.85 313.61c-4.93-0.24-7.7-2.37-7.66-6.48 0.06-3.78 1.99-6.92 6.93-6.89 4.93 0.02 7.85 2.73 7.98 6.93 0.14 4.09-2.76 6.2-7.25 6.44z"/>
			<path class="s14" d="m313.3 351.13c-17.94-0.01-35.87-0.04-53.79 0.01-5.92 0.01-7.84-3.31-8.11-7.48-0.38-5.63-0.13-11.29-0.11-16.93 0.01-6.92 2.42-9.06 10.56-9.52 9.68-0.53 10.49-1.23 10.49-8.97 0-6.73-4.57-11.96-11.37-11.8-7.5 0.17-10.69-2.18-9.74-8.79 0.86-5.91-2.83-11.62-0.21-17.88 1.88-4.48 3.93-7.37 9.57-7.37 30.17-0.02 60.34-0.15 90.51 0.13 4.71 0.04 9.51 1.74 14.04 3.22 3.19 1.04 3.49 3.86 3.47 6.64-0.07 11.52-0.03 23.02-0.03 34.53q0 16.14 0 32.28c0 8.57-3.79 11.85-13.98 11.9-13.76 0.08-27.53 0.03-41.3 0.03z"/>
			<path class="s2" d="m268.23 306.86c-0.36 4.03-2.62 6.6-7.44 6.5-4.14-0.09-7.66-1.08-7.26-5.86 0.36-4.27 2.58-7.11 7.53-7.27 4.84-0.16 6.93 2.67 7.17 6.63z"/>
		</g>
	</g>
</svg>