<svg width="459" height="468" viewBox="0 0 459 468" fill="none" xmlns="http://www.w3.org/2000/svg">
<g clip-path="url(#clip0_6_1979)">
<path d="M228.919 467.891C154.192 467.891 79.4651 467.855 4.73806 468C0.956724 468.012 0.0113896 467.371 0.0113896 463.114C0.148065 310.464 0.159454 157.802 0 5.13953C0 0.507907 1.2073 0 5.05697 0C154.705 0.12093 304.341 0.12093 453.989 0C457.941 0 459.011 0.665116 459 5.18791C458.852 157.85 458.852 310.5 459 463.163C459 467.492 457.941 468.012 454.239 468C379.125 467.855 304.022 467.891 228.919 467.891ZM61.1165 69.9944C59.5789 70.974 59.5447 72.6065 59.5447 74.227C59.6472 104.314 59.7497 134.402 59.8408 164.477C59.8295 165.699 59.8294 166.908 59.8181 168.129C59.7269 170.125 59.5447 172.132 59.5447 174.127C59.5219 212.1 59.4878 250.06 59.5447 288.032C59.5789 318.155 59.7269 348.279 59.8294 378.403C59.465 380.495 59.0891 382.575 60.08 384.607C60.2736 387.291 61.8112 387.327 63.6563 386.59C65.6837 385.792 67.0277 384.74 66.9707 381.91C66.7771 372.453 66.9024 362.984 66.9024 353.515C66.9593 290.075 67.0277 226.647 67.0846 163.207L67.2099 163.087C90.6952 163.05 114.181 163.002 137.666 162.99C221.197 162.941 304.728 162.905 388.259 162.869C388.293 163.316 388.521 163.498 388.931 163.413C388.863 235.959 388.783 308.505 388.726 381.039C388.726 382.623 388.487 384.28 389.626 385.634C395.127 388.21 396.129 387.473 396.129 380.555C396.152 341.93 396.175 303.317 396.141 264.692C396.129 251.438 395.936 238.172 395.822 224.918C396.266 207.202 396.335 189.473 395.822 171.757C396.266 154.017 396.323 136.276 395.822 118.536C396.403 103.214 396.357 87.9042 395.913 72.5823C395.708 72.0381 395.514 71.506 395.309 70.9619C392.006 69.1237 388.533 68.4344 384.842 69.1358C382.952 69.1358 381.073 69.1358 379.182 69.1358C377.268 69.1358 375.366 69.1358 373.453 69.1358C370.435 69.1358 367.405 69.1479 364.387 69.1479C362.496 69.0753 360.605 68.9302 358.726 68.9181C302.473 68.894 246.231 68.8456 189.978 68.8698C152.86 68.894 115.752 69.0391 78.6336 69.1237C76.3671 69.1358 74.0892 69.1358 71.8227 69.1479C68.7817 69.1721 65.7406 69.2084 62.6996 69.2326C62.0049 69.0512 61.4695 69.3172 61.1165 69.9944ZM342.564 351.859C345.776 347.771 349.717 344.192 350.628 338.532C352.678 321.191 352.12 303.825 350.981 286.46C351.05 286.327 351.198 286.157 351.163 286.06C351.084 285.782 350.924 285.528 350.799 285.274C349.637 282.094 348.476 278.913 347.314 275.745C347.507 271.404 352.712 270.412 353.031 266.155C358.271 262.636 360.378 257.944 360.093 251.051C359.74 242.332 356.346 237.338 348.191 236.987C340.81 236.673 333.373 236.334 326.516 240.18C325.195 240.917 324.398 240.107 323.464 239.442C323.134 238.801 322.803 238.172 322.473 237.531L322.53 237.217L322.291 237.035C319.318 227.724 316.448 218.388 313.361 209.125C309.307 196.923 298.544 188.833 286.425 188.833C248.111 188.808 209.785 188.845 171.47 188.845C167.643 188.845 163.953 189.377 160.308 190.719C150.024 194.504 144.898 203.187 141.345 213.236C138.645 220.879 136.47 228.727 133.782 236.358C133.144 238.16 133.349 241.207 129.033 239.345C121.379 236.032 112.996 236.08 104.784 237.882C104.42 238.003 104.055 238.112 103.679 238.233C93.964 243.336 93.0528 255.235 101.675 264.245C102.358 269.094 103.087 273.931 103.702 278.793C103.919 280.51 103.395 282.517 105.752 283.001C103.85 301.02 104.83 319.087 105.092 337.129C105.183 343.115 108.372 348.122 112.973 351.847C113.281 359.925 113.6 367.991 113.907 376.069C115.251 382.998 118.702 386.553 125.399 386.94C131.812 387.315 138.258 387.207 144.693 387.098C153.281 386.953 157.916 382.091 158.167 372.876C158.349 366.249 158.258 359.622 158.292 352.995C168.315 352.911 178.338 352.766 188.361 352.766C224.682 352.778 261.015 352.826 297.336 352.862C297.405 359.284 297.427 365.693 297.564 372.114C297.769 381.511 302.917 387.061 311.744 387.255C317.416 387.388 323.088 387.303 328.76 387.158C336.972 386.94 341.277 383.3 342.052 374.751C342.747 367.144 342.439 359.477 342.564 351.859Z" fill="#FDFDFE"/>
<path d="M59.8293 168.129C59.8407 166.908 59.8407 165.699 59.8521 164.477C62.859 163.135 61.5378 160.305 61.5378 158.165C61.6403 131.5 61.7314 104.822 61.515 78.1573C61.4694 73.0662 62.4603 70.5629 67.6995 71.349C69.4421 71.615 71.5264 72.0624 72.9957 70.2122C74.8978 69.9462 77.0162 70.9378 78.6677 69.1601C115.786 69.0755 152.894 68.9303 190.012 68.9062C246.265 68.8699 302.507 68.9183 358.76 68.9545C360.651 68.9545 362.542 69.0996 364.421 69.1843C367.45 70.841 370.469 70.8531 373.487 69.1722C375.4 69.1722 377.302 69.1722 379.216 69.1722C381.107 70.7564 382.986 70.7443 384.877 69.1722C388.567 68.4708 392.041 69.1601 395.344 70.9983C395.549 71.5424 395.742 72.0745 395.947 72.6187C396.391 87.9406 396.437 103.25 395.856 118.572C392.815 117.931 389.774 117.218 390.514 122.478C390.674 123.615 389.865 124.268 388.897 124.619C388.851 119.443 388.84 114.267 388.76 109.079C388.726 107.193 389.239 104.702 386.027 105.439C377.678 105.439 369.33 105.427 360.981 105.427C345.822 105.342 330.673 105.258 315.514 105.185C314.58 105.185 313.601 105.137 313.088 106.237C312.359 106.358 311.619 106.479 310.89 106.6C304.432 104.52 297.94 105.56 291.436 106.274C290.707 106.382 289.99 106.503 289.261 106.612C286.197 106.503 283.133 106.395 280.07 106.298C277.86 106.298 275.65 106.286 273.429 106.286C272.222 104.738 271.015 104.726 269.819 106.298C268.384 106.322 266.96 106.334 265.525 106.358L265.536 106.407C265.343 105.729 265.013 105.246 264.238 105.451C263.099 105.451 261.949 105.451 260.81 105.451C258.908 105.451 257.006 105.451 255.115 105.451C252.461 105.451 249.807 105.451 247.154 105.451C231.22 105.439 215.274 105.439 199.34 105.427C198.577 105.427 197.814 105.427 197.051 105.439C196.254 105.246 195.923 105.754 195.684 106.431C194.705 106.431 193.725 106.431 192.746 106.431C192.518 105.766 192.176 105.246 191.39 105.451C189.864 105.451 188.349 105.451 186.823 105.463C185.684 105.463 184.545 105.463 183.406 105.463C178.85 105.463 174.306 105.463 169.75 105.463C168.987 105.463 168.224 105.463 167.461 105.463C165.183 105.463 162.916 105.463 160.638 105.451C155.752 105.463 150.866 105.488 145.98 105.5C134.226 105.088 122.483 104.968 110.741 105.536C108.805 105.33 106.868 105.137 104.932 104.931C104.522 103.275 103.383 102.888 101.925 102.888C91.7657 102.912 81.6176 102.9 71.4581 102.888C70.0344 102.888 68.8157 103.117 68.4513 104.859C65.8089 111.715 67.4604 118.826 67.4262 125.828C67.2212 127.594 67.9729 128.355 69.6358 128.319C73.4399 128.21 77.244 128.174 80.9456 127.013C82.0846 126.892 83.2349 126.759 84.3739 126.638C85.9001 126.747 87.4263 126.844 88.9525 126.953C90.604 129.71 92.0277 127.461 93.5197 126.723C94.6473 126.687 95.7749 126.662 96.891 126.626C99.9207 126.638 102.95 126.638 105.969 126.65C106.743 126.832 107.518 127.013 108.292 127.195C107.723 129.565 105.183 131.173 105.969 134.063C105.593 134.245 105.217 134.426 104.852 134.608C104.476 134.608 104.089 134.608 103.713 134.608C97.2669 134.595 90.809 134.571 84.3625 134.559C80.137 134.462 75.9228 134.366 71.6973 134.269C71.4581 134.136 71.2075 134.112 70.957 134.233C68.4171 133.483 66.9137 134.1 67.0617 137.304C67.1642 139.517 67.0617 141.73 67.0503 143.943C67.0048 154.646 67.0048 154.646 76.424 155.625C81.3443 158.346 86.2532 158.479 91.1507 155.541C92.301 155.541 93.4628 155.541 94.6131 155.541C94.6587 157.04 94.9206 158.443 96.7088 158.467C101.401 158.552 106.094 158.6 110.786 158.636C112.745 158.648 114.123 157.947 113.93 155.504C115.467 155.021 116.994 155.021 118.531 155.504C120.012 158.153 121.504 158.128 123.019 155.541C128.736 154.972 134.442 154.948 140.16 155.577C141.276 158.116 142.392 158.116 143.509 155.577C158.326 154.936 173.144 154.96 187.962 155.613C188.213 155.94 188.452 156.254 188.702 156.581C188.816 156.266 188.93 155.94 189.044 155.625C190.206 155.129 191.368 155.129 192.529 155.649C197.062 158.431 201.584 158.455 206.117 155.637C212.974 154.948 219.83 154.984 226.675 155.613C227.803 158.116 228.919 158.104 230.024 155.601C236.88 154.96 243.725 154.948 250.582 155.613C252.461 158.322 254.329 158.322 256.208 155.613C260.787 154.996 265.366 154.984 269.933 155.625C271.402 158.189 272.871 158.032 274.341 155.637C275.525 155.105 276.71 155.105 277.894 155.649C278.179 156.097 278.373 156.835 278.748 156.943C279.671 157.234 279.91 156.387 280.092 155.625C280.878 155.625 281.653 155.613 282.439 155.613C285.445 158.431 288.452 158.407 291.471 155.625C294.91 155.008 298.35 155.008 301.79 155.625C302.906 158.104 304.01 158.092 305.138 155.637C310.844 154.972 316.55 155.033 322.257 155.541C322.097 158.528 324.102 158.165 325.992 158.673C329.375 159.58 333.111 157.475 337.074 159.652C334.352 161.587 332.222 160.934 330.229 160.934C251.22 160.97 172.199 160.97 93.1894 160.97C86.0595 160.97 78.9183 160.946 71.7884 160.995C69.9888 161.007 67.8248 160.366 67.187 163.208L67.0617 163.328C63.8271 164.356 65.0344 167.235 65.023 169.375C64.9319 191.965 64.9433 214.567 64.9205 237.156C63.8157 237.156 62.6995 237.156 61.5947 237.156C61.5833 216.09 61.5947 195.036 61.515 173.97C61.5492 171.866 62.654 169.254 59.8293 168.129ZM145.843 76.295C143.941 74.4327 142.028 74.4327 140.126 76.295C139.374 76.5127 138.611 76.7183 137.859 76.9359C135.559 76.3917 133.247 76.3917 130.934 76.8755C130.912 76.6578 130.946 76.4643 131.026 76.2708C129.887 74.6745 128.748 74.6987 127.609 76.2708C125.707 76.4764 123.816 76.6699 121.914 76.8755C120.399 76.8755 118.884 76.8634 117.369 76.8634C101.663 76.7424 85.9456 76.6457 70.2394 76.4643C68.0868 76.4401 67.3806 77.2624 67.1073 79.548C65.0002 96.9741 65.7747 97.9778 82.1074 97.7843C83.6108 97.7601 85.1256 97.5787 86.629 97.482C90.4217 97.9536 94.2145 98.0141 98.0072 97.4941C105.741 97.6029 113.463 97.8206 121.196 97.8085C146.857 97.7601 172.518 97.6271 198.179 97.5303C200.832 98.002 203.497 98.0141 206.151 97.5183C206.527 97.5183 206.903 97.5183 207.279 97.5183C208.042 97.5183 208.794 97.5183 209.557 97.5062C231.186 98.0262 252.814 98.0141 274.443 97.5424C275.206 97.5424 275.958 97.5424 276.721 97.5424C282.029 97.5424 287.348 97.5424 292.655 97.5424C293.794 97.5424 294.933 97.5424 296.072 97.5303C307.837 97.7359 319.591 97.9294 331.357 98.135C331.596 99.949 330.639 102.646 333.646 102.646C336.642 102.646 335.685 99.949 335.924 98.135C336.676 98.135 337.428 98.135 338.191 98.135C337.61 101.231 337.655 103.528 341.801 102.924C344.74 102.488 347.803 102.658 350.787 102.888C354.204 103.154 355.731 101.799 355.286 98.135C356.801 97.9415 358.305 97.748 359.819 97.5545C368.92 97.6271 378.009 97.6876 387.109 97.7601C387.906 98.0141 388.305 97.6755 388.362 96.8169C388.59 95.9945 388.829 95.1601 389.056 94.3378C391.471 89.1136 391.562 83.9015 389 78.7015C388.419 77.4438 387.781 76.295 386.152 76.9359C382.337 76.8876 378.51 76.8392 374.694 76.7787C371.232 76.1983 367.769 76.1983 364.296 76.7424C356.357 76.5731 348.418 76.4159 340.469 76.2466C339.182 74.5536 337.371 75.0615 335.719 75.0494C310.4 75.0252 285.081 75.0252 259.773 75.0373C258.133 75.0373 256.311 74.5415 255.069 76.3071C252.427 76.3071 249.785 76.3071 247.142 76.3071C245.901 74.5294 244.079 75.0373 242.438 75.0252C222.803 75.001 203.156 75.001 183.52 75.0252C181.88 75.0252 180.058 74.5294 178.805 76.2708C177.29 76.2708 175.787 76.2708 174.272 76.2708C167.438 74.1908 160.593 74.2029 153.759 76.2708C151.481 76.4885 149.215 76.7062 146.937 76.9117C146.595 76.7303 146.219 76.5127 145.843 76.295Z" fill="#1D1838"/>
<path d="M104.784 237.858C112.996 236.068 121.379 236.02 129.032 239.321C133.349 241.183 133.155 238.136 133.782 236.334C136.47 228.691 138.645 220.843 141.345 213.212C144.898 203.163 150.023 194.48 160.308 190.695C163.953 189.353 167.643 188.82 171.47 188.82C209.785 188.82 248.11 188.784 286.425 188.808C298.544 188.82 309.307 196.911 313.361 209.1C316.437 218.364 319.318 227.7 322.291 237.011C320.127 236.987 318.293 237.422 319.352 240.397C320.195 242.767 320.001 245.101 319.637 247.484C314.307 238.087 311.562 227.482 307.655 217.445C301.266 201.034 296.892 197.007 280.354 196.971C245.115 196.887 209.864 196.911 174.625 197.032C159.067 197.08 151.39 204.566 146.846 220.516C143.349 232.791 139.135 244.968 133.224 256.324C131.812 255.26 132.552 253.966 132.689 252.575C133.474 244.569 130.342 240.966 122.552 240.687C120.855 240.627 119.158 240.687 117.461 240.7C112.757 238.317 108.064 238.716 103.679 241.353C97.563 245.053 97.6883 251.934 103.77 256.348C104.625 258.464 106.663 258.936 108.281 259.976C108.759 264.523 112.073 263.386 114.727 263.628C115.934 263.737 117.757 263.084 117.962 264.982C118.133 266.639 116.538 267.062 115.206 267.316L114.864 267.026C110.775 264.499 105.536 268.066 101.709 264.22C93.0869 255.211 93.9981 243.312 103.713 238.208C104.055 238.087 104.42 237.979 104.784 237.858ZM238.953 194.722C250.115 194.722 261.277 194.794 272.439 194.649C274.181 194.625 277.416 196.088 277.348 192.714C277.302 190.054 274.295 191.142 272.609 191.13C250.286 191.058 227.962 191.058 205.639 191.13C203.953 191.13 201.049 190.054 200.958 192.823C200.867 195.762 203.805 194.661 205.457 194.673C216.63 194.77 227.791 194.722 238.953 194.722Z" fill="#261F3D"/>
<path d="M67.2212 163.099C67.859 160.257 70.023 160.898 71.8226 160.886C78.9525 160.837 86.0937 160.861 93.2236 160.861C172.233 160.861 251.254 160.861 330.263 160.825C332.257 160.825 334.387 161.478 337.109 159.543C333.145 157.366 329.409 159.483 326.027 158.564C324.136 158.056 322.131 158.419 322.291 155.432C328.646 155.323 335.002 155.323 341.334 155.02C343.031 154.936 345.719 156.351 346.141 152.795L346.163 152.783C347.211 157.221 350.901 153.932 352.963 155.407C353.213 160.523 348.179 156.943 346.197 160.837C351.175 160.837 355.514 160.837 359.854 160.837C367.769 160.849 375.674 160.813 383.59 160.886C385.321 160.898 387.53 160.027 388.282 162.857C304.751 162.893 221.22 162.929 137.689 162.978C114.192 163.014 90.7065 163.062 67.2212 163.099Z" fill="#18102C"/>
<path d="M395.845 224.918C395.959 238.172 396.152 251.438 396.164 264.692C396.198 303.317 396.175 341.93 396.152 380.555C396.152 387.473 395.139 388.21 389.649 385.635C391.38 383.542 390.583 381.015 390.583 378.693C390.663 327.479 390.674 276.265 390.697 225.051C392.417 225.015 394.125 224.967 395.845 224.918Z" fill="#292652"/>
<path d="M319.637 247.496C320.001 245.114 320.195 242.78 319.352 240.409C318.304 237.434 320.138 236.999 322.291 237.023L322.53 237.205L322.473 237.519C322.803 238.16 323.134 238.789 323.464 239.43C324.386 240.095 325.195 240.905 326.516 240.168C333.361 236.334 340.81 236.661 348.191 236.975C356.346 237.326 359.74 242.332 360.093 251.039C360.377 257.932 358.27 262.624 353.031 266.143C349.352 266.748 345.685 267.341 341.516 268.018C343.749 270.981 345.537 273.351 347.325 275.733C348.487 278.914 349.649 282.094 350.81 285.262C350.753 285.395 350.639 285.565 350.674 285.674C350.742 285.952 350.89 286.194 351.004 286.46C352.154 303.825 352.701 321.191 350.651 338.532C349.102 337.226 349.774 335.376 349.603 333.743C349.614 322.485 349.899 311.202 349.523 299.955C349.273 292.663 349.307 284.827 345.036 278.732C340.32 272.021 338.601 265.853 343.954 258.863C349.033 259.178 352.166 257.606 352.029 251.233C351.892 244.811 348.088 244.255 343.703 244.436C339.614 244.606 335.537 245.186 331.459 245.585C329.91 243.904 328.088 243.408 327.165 245.851C326.232 248.33 326.926 250.495 330.115 250.35C330.184 251.547 330.263 252.744 330.332 253.941C327.917 255.997 326.368 259.674 322.348 258.718L322.291 258.198C323.771 257.63 323.532 256.421 323.282 255.211C324.648 251.462 323.031 249.286 319.888 247.907L319.637 247.496Z" fill="#1D1838"/>
<path d="M388.282 162.869C387.542 160.039 385.321 160.91 383.59 160.898C375.674 160.825 367.77 160.849 359.854 160.849C359.706 158.527 360.48 157.149 362.929 157.246C364.934 157.33 366.938 157.246 368.943 157.246C369.763 157.185 370.617 157.197 370.959 156.145C371.016 155.903 371.084 155.661 371.175 155.419C372.348 155.432 373.521 155.432 374.694 155.444C376.915 158.298 379.159 158.213 381.414 155.504C383.783 155.286 386.152 155.081 388.521 154.863C389.011 154.597 389.888 154.416 389.945 154.065C391.107 147.438 390.72 140.763 390.139 134.099C390.059 133.241 388.954 133.579 388.351 134.148C383.419 134.136 378.476 134.112 373.544 134.099C373.521 133.374 373.499 132.648 373.476 131.923C374.273 127.993 377.291 129.988 379.353 129.419C381.597 128.803 384.717 131.149 386.004 127.231C386.38 127.098 386.756 126.965 387.143 126.844C387.918 127.013 388.362 126.686 388.464 125.84C388.601 125.417 388.749 125.006 388.886 124.582C389.854 124.232 390.663 123.579 390.503 122.442C389.763 117.181 392.804 117.895 395.845 118.536C396.346 136.276 396.289 154.017 395.845 171.757C394.114 171.745 392.371 171.721 390.64 171.709C389.957 168.976 392.098 165.59 388.954 163.413C388.544 163.498 388.316 163.316 388.282 162.869Z" fill="#261F3D"/>
<path d="M61.6403 237.047C62.7451 237.047 63.8613 237.047 64.9661 237.047C64.9774 284.138 64.9547 331.216 65.0458 378.306C65.0572 382.224 64.7952 385.211 60.0799 384.619C59.089 382.599 59.4649 380.507 59.8294 378.415C62.8932 377.097 61.5378 374.255 61.5492 372.114C61.6403 327.092 61.6289 282.07 61.6403 237.047Z" fill="#261F3D"/>
<path d="M60.0913 384.607C64.7952 385.199 65.0572 382.212 65.0572 378.294C64.966 331.204 64.9774 284.126 64.9774 237.035C64.9888 214.446 64.9774 191.844 65.0799 169.254C65.0913 167.114 63.884 164.235 67.1187 163.208C67.0617 226.648 66.9934 290.075 66.9364 353.515C66.9251 362.984 66.8112 372.453 67.0048 381.91C67.0617 384.74 65.7291 385.792 63.6904 386.59C61.8225 387.327 60.2849 387.291 60.0913 384.607Z" fill="#18102C"/>
<path d="M61.6404 237.047C61.629 282.07 61.6404 327.092 61.5493 372.114C61.5493 374.255 62.8933 377.097 59.8295 378.415C59.727 348.291 59.5903 318.167 59.5448 288.044C59.4992 250.072 59.5334 212.112 59.5448 174.14C59.5448 172.144 59.727 170.137 59.8181 168.141C62.6541 169.266 61.5379 171.878 61.5493 173.873C61.6404 194.915 61.629 215.981 61.6404 237.047Z" fill="#18102C"/>
<path d="M388.954 163.413C392.098 165.59 389.956 168.976 390.64 171.709C390.651 189.486 390.674 207.274 390.685 225.051C390.663 276.265 390.651 327.479 390.571 378.693C390.571 381.015 391.369 383.542 389.638 385.634C388.499 384.292 388.738 382.623 388.738 381.039C388.817 308.505 388.886 235.959 388.954 163.413Z" fill="#18102C"/>
<path d="M297.336 352.826C261.015 352.79 224.682 352.729 188.361 352.729C178.338 352.729 168.315 352.874 158.292 352.959L158.327 352.983C159.01 349.767 161.47 350.674 163.384 350.674C207.997 350.661 252.61 350.686 297.223 350.71C297.257 351.46 297.28 352.221 297.314 352.971L297.336 352.826Z" fill="#18102C"/>
<path d="M158.304 352.947C158.269 359.574 158.372 366.213 158.178 372.828C157.916 382.043 153.292 386.916 144.704 387.049C138.281 387.158 131.834 387.267 125.411 386.892C118.713 386.505 115.251 382.95 113.918 376.021C115.741 374.509 115.069 372.356 115.092 370.446C115.183 364.653 115.16 358.861 115.183 353.056C119.192 354.362 116.595 357.929 117.404 360.336C117.404 362.936 117.335 365.536 117.404 368.136C117.552 373.505 123.474 383.506 127.654 384.087C135.684 385.187 143.566 385.054 150.764 379.576C156.766 375.005 156.231 368.837 156.083 362.464C156.037 360.263 156.117 358.062 156.094 355.861C156.071 354.193 156.834 353.261 158.349 352.959C158.326 352.971 158.304 352.947 158.304 352.947Z" fill="#261F3D"/>
<path d="M390.697 225.051C390.686 207.274 390.663 189.485 390.651 171.709C392.383 171.721 394.125 171.733 395.856 171.757C396.358 189.473 396.301 207.202 395.856 224.918C394.125 224.966 392.417 225.015 390.697 225.051Z" fill="#1D1838"/>
<path d="M112.985 351.81C108.383 348.098 105.194 343.091 105.103 337.093C104.83 319.05 103.861 300.983 105.764 282.965C107.928 277.1 109.932 271.113 114.841 267.014L115.183 267.304C115.149 268.949 114.67 270.352 113.782 271.779C110.581 276.942 109.192 282.686 107.996 288.781C106.287 297.549 107.381 306.207 107.928 314.709C108.691 326.669 105.092 339.983 114.955 350.02C115.251 350.323 115.057 351.181 115.092 351.786C114.385 351.798 113.691 351.81 112.985 351.81Z" fill="#261F3D"/>
<path d="M342.564 351.859C342.428 359.477 342.735 367.156 342.052 374.714C341.277 383.264 336.972 386.916 328.76 387.122C323.088 387.267 317.405 387.352 311.744 387.219C302.917 387.025 297.769 381.462 297.564 372.078C297.427 365.669 297.405 359.247 297.336 352.826L297.313 352.959C299.899 353.503 299.489 355.68 299.512 357.591C299.534 360.916 299.523 364.242 299.523 367.555C299.523 368.753 299.512 369.962 299.512 371.159C299.557 380.64 303.19 384.461 312.177 384.473C317.462 384.473 322.746 384.473 328.02 384.473C336.573 384.473 340.343 380.459 340.446 371.074C340.514 364.665 340.457 358.256 340.457 351.846L340.48 351.822C341.186 351.846 341.881 351.846 342.564 351.859Z" fill="#1D1838"/>
<path d="M72.9844 70.2121C71.5151 72.0744 69.4422 71.6149 67.6882 71.3489C62.449 70.5628 61.4581 73.0661 61.5037 78.1572C61.7201 104.822 61.629 131.487 61.5265 158.165C61.5151 160.305 62.8477 163.135 59.8408 164.477C59.7383 134.39 59.6358 104.302 59.5447 74.227C59.5447 72.6065 59.5788 70.9861 61.1164 69.9944C61.6518 69.7526 62.1985 69.5107 62.7338 69.2568C65.7748 69.2326 68.8158 69.1963 71.8568 69.1721C72.2327 69.5228 72.6085 69.8614 72.9844 70.2121Z" fill="#18102C"/>
<path d="M114.841 267.026C109.932 271.138 107.928 277.112 105.764 282.977C103.406 282.481 103.93 280.486 103.713 278.768C103.098 273.907 102.369 269.07 101.686 264.22C105.513 268.054 110.752 264.499 114.841 267.026Z" fill="#EBE9F0"/>
<path d="M342.564 351.858C341.869 351.846 341.186 351.846 340.491 351.834C342.109 345.582 348.817 341.797 348.077 334.36C348.065 334.215 349.056 333.949 349.58 333.743C349.751 335.388 349.079 337.238 350.628 338.532C349.728 344.192 345.787 347.771 342.564 351.858Z" fill="#261F3D"/>
<path d="M347.314 275.733C345.525 273.363 343.737 270.981 341.505 268.018C345.673 267.341 349.352 266.736 353.02 266.143C352.701 270.4 347.507 271.38 347.314 275.733Z" fill="#EBE9F0"/>
<path d="M112.985 351.81C113.691 351.798 114.397 351.798 115.103 351.786C115.137 352.221 115.16 352.645 115.194 353.068C115.171 358.861 115.194 364.665 115.103 370.458C115.069 372.368 115.752 374.521 113.93 376.033C113.6 367.967 113.292 359.888 112.985 351.81Z" fill="#18102C"/>
<path d="M373.487 69.1479C370.469 70.8289 367.439 70.8168 364.421 69.16C367.439 69.16 370.469 69.1479 373.487 69.1479Z" fill="#261F3D"/>
<path d="M72.9844 70.212C72.6086 69.8734 72.2213 69.5227 71.8455 69.1841C74.112 69.172 76.3899 69.172 78.6564 69.1599C77.0049 70.9376 74.8979 69.9339 72.9844 70.212Z" fill="#261F3D"/>
<path d="M384.876 69.1479C382.986 70.72 381.106 70.7321 379.216 69.1479C381.106 69.1479 382.986 69.1479 384.876 69.1479Z" fill="#261F3D"/>
<path d="M350.981 286.459C350.867 286.205 350.731 285.952 350.651 285.673C350.617 285.565 350.742 285.395 350.788 285.262C350.913 285.528 351.072 285.782 351.152 286.048C351.198 286.157 351.049 286.314 350.981 286.459Z" fill="#48435A"/>
<path d="M395.936 72.5824C395.731 72.0382 395.537 71.5061 395.332 70.9619C395.537 71.5061 395.742 72.0503 395.936 72.5824Z" fill="#292652"/>
<path d="M62.7338 69.2687C62.1985 69.5106 61.6518 69.7646 61.1165 70.0064C61.4695 69.3171 62.0048 69.0511 62.7338 69.2687Z" fill="#261F3D"/>
<path d="M323.464 239.418C323.134 238.777 322.803 238.148 322.473 237.507C322.815 238.148 323.134 238.777 323.464 239.418Z" fill="#261F3D"/>
<path d="M167.461 105.403C168.224 105.403 168.987 105.403 169.75 105.403C169.614 107.834 170.65 109.357 172.973 108.825C176.425 108.027 180.661 111.207 183.315 106.564C183.486 106.274 183.384 105.802 183.406 105.403C184.545 105.403 185.684 105.403 186.823 105.403C186.949 110.917 190.946 108.632 193.372 108.765C195.707 108.886 199.386 110.482 199.34 105.391C215.274 105.403 231.22 105.403 247.154 105.415C246.926 108.329 248.475 108.97 250.867 108.934C253.224 108.886 255.389 108.91 255.115 105.427C257.017 105.427 258.919 105.427 260.81 105.427C260.912 106.757 260.639 108.341 262.416 108.728C264.238 109.127 265.229 108.221 265.525 106.334C266.96 106.31 268.384 106.298 269.819 106.274C271.026 108.075 272.234 108.075 273.43 106.261C275.639 106.261 277.849 106.274 280.07 106.274C283.077 108.112 286.072 110.675 289.261 106.588C289.99 106.479 290.708 106.358 291.437 106.249C293.84 108.68 297.302 107.954 300.104 109.635C304.204 112.102 307.803 109.684 310.89 106.564C311.619 106.443 312.359 106.322 313.088 106.201C313.293 107.773 313.988 108.946 315.628 108.813C318.897 108.547 322.029 110.107 325.138 109.914C329.489 109.635 333.772 112.973 337.917 110.567C340.571 109.031 342.371 108.946 345.161 110.409C351.653 113.832 358.954 111.232 360.993 105.391C369.341 105.391 377.69 105.403 386.038 105.403C386.038 106.612 386.038 107.821 386.038 109.031C386.038 123.155 384.706 124.486 371.482 124.679C369.125 124.715 366.061 122.986 364.41 126.529C362.507 126.529 360.605 126.517 358.703 126.517C356.813 123.639 354.922 123.627 353.031 126.529C350.742 126.529 348.464 126.541 346.175 126.541C345.537 124.038 343.589 124.619 341.972 124.619C320.104 124.594 298.225 124.594 276.357 124.619C274.739 124.619 272.792 124.074 272.2 126.602C269.91 126.602 267.632 126.59 265.343 126.59C264.739 124.087 262.814 124.619 261.197 124.619C241.197 124.594 221.208 124.594 201.208 124.619C199.591 124.619 197.655 124.087 197.074 126.602C193.657 126.602 190.229 126.602 186.812 126.614C183.372 123.748 175.502 123.748 172.04 126.602C169.374 126.602 166.709 126.602 164.055 126.602C162.165 123.603 160.274 123.615 158.383 126.59C153.828 127.074 149.26 127.098 144.705 126.602C141.265 123.736 134.534 123.724 131.071 126.59C128.03 126.59 124.989 126.578 121.948 126.578C118.486 123.748 111.789 123.736 108.212 126.566L108.338 127.122C107.563 126.941 106.789 126.759 106.014 126.578C102.996 123.47 99.9663 123.482 96.9367 126.554C95.8091 126.59 94.6815 126.614 93.5654 126.65C93.5768 126.324 93.5654 126.009 93.5198 125.683C90.3535 124.425 87.1644 122.901 84.4195 126.566C83.2806 126.687 82.1302 126.82 80.9913 126.941C80.6154 126.529 80.2282 126.118 79.8523 125.707C75.6382 124.207 72.9616 121.027 72.0391 116.541C71.2873 112.864 71.1621 109.043 70.7634 105.294C82.1644 105.149 93.5767 105.004 104.978 104.859C106.914 105.064 108.85 105.258 110.786 105.463C110.684 106.685 110.559 108.172 111.868 108.523C117.609 110.047 123.349 112.344 129.363 110.276C131.527 109.527 133.702 109.563 135.775 109.2C139.238 108.583 144.34 111.607 146.037 105.415C150.923 105.403 155.809 105.379 160.696 105.367C160.559 107.737 161.436 108.886 163.828 108.898C166.174 108.946 167.689 108.305 167.461 105.403ZM365.788 114.327C365.947 115.488 366.619 115.996 367.667 116.008C368.635 116.021 369.603 115.851 369.751 114.618C369.945 113.009 368.897 112.659 367.678 112.659C366.631 112.659 365.947 113.179 365.788 114.327Z" fill="#C0BEC2"/>
<path d="M84.3626 134.474C90.8091 134.486 97.267 134.511 103.714 134.523C103.907 134.994 104.089 135.466 104.283 135.938C104.477 135.466 104.659 134.994 104.852 134.523C105.228 134.341 105.604 134.16 105.969 133.979C106.732 134.16 107.495 134.353 108.258 134.535C110.912 137.981 113.566 137.981 116.219 134.535C116.982 134.353 117.745 134.16 118.509 133.979C121.151 134.075 123.793 134.245 126.436 134.245C173.759 134.245 221.083 134.184 268.407 134.232C297.735 134.257 327.075 134.438 356.403 134.547C356.665 136.131 355.685 138.755 358.111 138.755C360.549 138.755 359.558 136.131 359.82 134.559C362.098 134.547 364.375 134.547 366.653 134.535C366.448 136.482 367.61 137.848 368.305 139.469C369.239 141.633 369.82 144.306 367.792 146.108C362.519 150.764 356.972 154.875 349.58 151.199C349.387 149.059 348.02 148.381 346.403 148.986C342.177 150.558 338.134 150.328 333.76 149.276C331.653 148.768 327.974 148.526 326.813 152.396C308.908 152.396 291.004 152.396 273.099 152.396C212.268 152.396 151.436 152.36 90.6041 152.469C84.9891 152.481 82.2328 148.43 79.2601 144.705C77.9275 143.024 78.4173 141.017 80.9572 140.11C83.349 139.263 84.5677 137.256 84.3626 134.474Z" fill="#C1C0C6"/>
<path d="M98.0302 97.494C94.2375 98.0019 90.4447 97.9414 86.652 97.4819C83.7477 92.3303 83.7021 88.7749 90.7523 89.0773C91.2534 89.1014 91.7545 88.4847 92.2898 88.3879C98.7591 87.3117 104.078 82.7284 110.707 81.7972C112.985 81.4828 117.051 81.3256 117.381 76.8633C118.896 76.8633 120.411 76.8754 121.926 76.8754C122.313 81.4586 125.616 80.9749 128.497 81.0354C131.311 81.0838 131.014 78.8707 130.935 76.8875C133.247 76.4038 135.559 76.3917 137.86 76.9479C138.281 81.4828 142.062 80.1647 144.397 80.7452C146.356 81.2289 146.96 78.9191 146.971 76.9479C149.249 76.7303 151.516 76.5126 153.794 76.307C154.933 76.5247 156.071 76.7424 157.21 76.9479C157.279 80.8177 160.388 80.6121 162.495 80.721C164.579 80.8298 163.816 78.3628 164.056 76.9117C167.472 76.7061 170.889 76.5005 174.306 76.2949C175.821 76.2949 177.324 76.2949 178.839 76.2949C201.618 76.307 224.398 76.307 247.177 76.3191C249.819 76.3191 252.461 76.3191 255.104 76.3191C257.359 76.4038 259.614 76.5489 261.869 76.561C282.006 76.6698 302.154 76.7545 322.291 76.8391C322.485 81.0838 318.908 84.6754 320.753 89.4279C321.368 91.0242 319.022 93.0075 316.972 93.0317C312.507 93.08 308.293 95.1117 303.544 93.9749C301.676 93.5275 296.63 91.9312 296.118 97.5303C294.979 97.5303 293.84 97.5303 292.701 97.5424C292.598 96.3814 292.655 94.7368 291.346 94.6884C286.938 94.4949 282.519 94.4949 278.122 94.6884C276.812 94.7489 276.869 96.3935 276.767 97.5424C276.004 97.5424 275.252 97.5424 274.489 97.5424C274.614 94.7005 272.951 94.3498 270.799 94.3619C251.641 94.3982 232.484 94.3982 213.327 94.3619C211.197 94.3619 209.489 94.64 209.603 97.5061C208.839 97.5061 208.088 97.5061 207.325 97.5182C207.211 97.1554 207.154 96.5386 206.972 96.4903C206.174 96.2847 206.334 97.0586 206.197 97.5303C203.543 98.0261 200.878 98.014 198.224 97.5424C198.338 94.7126 196.687 94.3377 194.534 94.374C190.377 94.4466 186.208 94.5312 182.063 94.3619C175.536 94.0959 168.976 95.3172 162.529 92.3182C159.819 91.0484 155.992 91.1089 153.087 92.5963C149.466 94.4586 145.809 94.4103 142.04 94.3982C128.998 94.3861 115.946 94.374 102.905 94.4103C100.752 94.4103 97.996 93.5638 98.0302 97.494Z" fill="#C1C0C6"/>
<path d="M296.095 97.5423C296.607 91.9432 301.664 93.5395 303.521 93.9869C308.282 95.1237 312.496 93.092 316.949 93.0437C318.999 93.0195 321.357 91.0241 320.73 89.4399C318.885 84.6995 322.462 81.0958 322.268 76.8511C328.339 76.6576 334.409 76.452 340.48 76.2585C348.418 76.4278 356.357 76.5851 364.307 76.7544C364.273 77.0446 364.296 77.3348 364.375 77.613C364.409 79.0278 364.546 81.0353 363.316 81.4344C353.1 84.6995 357.986 91.4716 359.831 97.5665C358.316 97.7599 356.813 97.9534 355.298 98.1469C349.603 98.1469 343.908 98.1469 338.213 98.1469C337.462 98.1469 336.71 98.1469 335.947 98.1469C334.421 98.1469 332.906 98.1469 331.38 98.1469C319.614 97.9413 307.86 97.7479 296.095 97.5423Z" fill="#C4C2CA"/>
<path d="M84.3626 134.474C84.5676 137.256 83.3489 139.263 80.9799 140.11C78.44 141.017 77.9502 143.036 79.2828 144.705C82.2441 148.442 85.0004 152.481 90.6268 152.469C151.459 152.36 212.29 152.396 273.122 152.396C291.026 152.396 308.931 152.396 326.835 152.396C333.27 152.529 339.717 152.662 346.152 152.795C345.731 156.338 343.043 154.936 341.346 155.02C335.002 155.323 328.646 155.323 322.302 155.432C316.596 154.924 310.89 154.863 305.184 155.528C304.068 155.528 302.951 155.528 301.835 155.516C298.396 154.899 294.956 154.899 291.516 155.516C288.509 154.984 285.491 154.984 282.484 155.504C281.698 155.504 280.924 155.516 280.138 155.516C279.398 155.516 278.669 155.528 277.928 155.528C276.744 154.984 275.559 154.972 274.375 155.516C272.906 155.516 271.436 155.516 269.967 155.504C265.389 154.875 260.81 154.875 256.243 155.492C254.363 154.972 252.496 154.984 250.616 155.492C243.76 154.827 236.915 154.839 230.058 155.48C228.942 155.48 227.826 155.492 226.71 155.492C219.853 154.863 212.996 154.827 206.151 155.516C201.618 154.948 197.097 154.948 192.564 155.528C191.402 155.008 190.24 155.008 189.078 155.504C188.714 155.504 188.361 155.504 187.996 155.492C173.178 154.839 158.361 154.815 143.543 155.456C142.427 155.456 141.31 155.456 140.194 155.456C134.477 154.827 128.771 154.851 123.053 155.419C121.561 155.407 120.058 155.395 118.565 155.383C117.028 154.899 115.502 154.899 113.964 155.383C107.529 154.912 101.082 154.875 94.6474 155.419C93.497 155.419 92.3353 155.419 91.1849 155.419C86.276 154.984 81.3671 154.924 76.4582 155.504C67.0276 154.525 67.0276 154.525 67.0846 143.822C67.096 141.609 67.1985 139.384 67.096 137.183C66.9479 133.979 68.4513 133.362 70.9912 134.112C71.1051 134.426 71.2076 134.752 71.3215 135.067C71.4582 134.765 71.5948 134.45 71.7315 134.148C75.9229 134.281 80.137 134.378 84.3626 134.474Z" fill="#C4C2CA"/>
<path d="M117.381 76.8632C117.062 81.3255 112.996 81.4827 110.707 81.7972C104.067 82.7283 98.759 87.3116 92.2898 88.3879C91.7544 88.4725 91.2533 89.0893 90.7522 89.0772C83.702 88.7748 83.7362 92.3302 86.6519 97.4818C85.1485 97.5907 83.6451 97.772 82.1303 97.7841C65.7862 97.9776 65.0117 96.986 67.1302 79.5479C67.4035 77.2623 68.1211 76.44 70.2623 76.4641C85.9685 76.6455 101.675 76.7423 117.381 76.8632Z" fill="#C4C2CA"/>
<path d="M359.831 97.5544C357.986 91.4595 353.111 84.6874 363.316 81.4223C364.546 81.0232 364.409 79.0158 364.375 77.6009C365.161 77.6009 365.947 77.613 366.722 77.613C367.063 77.9637 367.405 78.3144 367.747 78.6651C370.07 78.0725 373.1 80.4065 374.706 76.7786C378.521 76.8269 382.348 76.8753 386.164 76.9358C386.505 83.5627 384.751 90.2986 387.154 96.8046C387.143 97.119 387.132 97.4455 387.109 97.76C378.02 97.6995 368.931 97.6269 359.831 97.5544Z" fill="#C1C0C6"/>
<path d="M98.0301 97.494C97.9959 93.5638 100.764 94.4103 102.882 94.4103C115.923 94.374 128.976 94.3861 142.017 94.3982C145.787 94.3982 149.443 94.4466 153.065 92.5964C155.969 91.1089 159.796 91.0484 162.506 92.3182C168.942 95.3173 175.513 94.0959 182.04 94.3619C186.197 94.5312 190.354 94.4466 194.511 94.374C196.664 94.3378 198.315 94.7006 198.201 97.5424C172.541 97.6392 146.88 97.7722 121.219 97.8205C113.486 97.8205 105.752 97.6029 98.0301 97.494Z" fill="#C4C2CA"/>
<path d="M209.58 97.506C209.466 94.64 211.174 94.3618 213.304 94.3618C232.461 94.3981 251.619 94.3981 270.776 94.3618C272.94 94.3618 274.591 94.7125 274.466 97.5423C252.837 98.0139 231.208 98.026 209.58 97.506Z" fill="#C4C2CA"/>
<path d="M360.981 105.403C358.942 111.244 351.653 113.844 345.15 110.421C342.371 108.958 340.56 109.043 337.906 110.579C333.76 112.985 329.478 109.659 325.127 109.926C322.017 110.119 318.885 108.559 315.617 108.825C313.988 108.958 313.282 107.785 313.077 106.213C313.601 105.113 314.569 105.149 315.503 105.161C330.674 105.233 345.822 105.318 360.981 105.403Z" fill="#C4C2CA"/>
<path d="M145.98 105.451C144.283 111.643 139.181 108.62 135.718 109.236C133.645 109.599 131.47 109.563 129.306 110.313C123.303 112.381 117.552 110.083 111.811 108.559C110.502 108.208 110.627 106.721 110.729 105.5C122.483 104.907 134.226 105.04 145.98 105.451Z" fill="#C4C2CA"/>
<path d="M364.398 126.541C366.049 122.998 369.113 124.727 371.471 124.691C384.683 124.498 386.015 123.167 386.027 109.043C386.027 107.833 386.027 106.624 386.027 105.415C389.239 104.677 388.726 107.168 388.76 109.055C388.851 114.231 388.863 119.406 388.897 124.594C388.76 125.018 388.612 125.429 388.476 125.852C388.031 126.191 387.599 126.517 387.154 126.856C386.778 126.989 386.403 127.122 386.015 127.243C378.806 127.001 371.608 126.771 364.398 126.541Z" fill="#C4C2CA"/>
<path d="M70.7064 105.318C71.1051 109.079 71.2304 112.888 71.9821 116.565C72.9046 121.051 75.5812 124.22 79.7953 125.731C75.6723 125.743 71.5379 125.768 67.4148 125.78C67.449 118.778 65.7975 111.679 68.4399 104.81C69.203 104.98 69.9547 105.149 70.7064 105.318Z" fill="#C4C2CA"/>
<path d="M340.491 76.2587C334.421 76.4522 328.35 76.6577 322.279 76.8512C302.143 76.7666 281.994 76.6819 261.858 76.5731C259.603 76.561 257.347 76.4159 255.092 76.3312C256.334 74.5657 258.156 75.0615 259.796 75.0615C285.115 75.0373 310.434 75.0373 335.742 75.0736C337.393 75.0615 339.204 74.5657 340.491 76.2587Z" fill="#18102C"/>
<path d="M70.7066 105.318C69.9548 105.149 69.2031 104.98 68.4514 104.81C68.8159 103.057 70.0346 102.827 71.4583 102.839C81.6178 102.851 91.7659 102.863 101.925 102.839C103.383 102.839 104.522 103.214 104.932 104.883C93.5199 105.028 82.1189 105.173 70.7066 105.318Z" fill="#18102C"/>
<path d="M108.269 134.547C107.506 134.366 106.743 134.172 105.98 133.991C105.194 131.113 107.734 129.492 108.304 127.122L108.178 126.566C111.629 126.747 115.069 126.916 118.52 127.098C118.52 129.395 118.52 131.693 118.531 133.991C117.768 134.172 117.005 134.366 116.242 134.547C113.588 134.547 110.923 134.547 108.269 134.547Z" fill="#261F3D"/>
<path d="M338.213 98.147C343.908 98.147 349.603 98.147 355.298 98.147C355.742 101.811 354.216 103.166 350.799 102.9C347.815 102.67 344.762 102.5 341.813 102.936C337.667 103.54 337.633 101.243 338.213 98.147Z" fill="#261F3D"/>
<path d="M247.165 76.3313C224.386 76.3192 201.607 76.3192 178.828 76.3071C180.08 74.5536 181.903 75.0615 183.543 75.0615C203.179 75.0373 222.826 75.0373 242.461 75.0615C244.113 75.0615 245.935 74.5657 247.165 76.3313Z" fill="#18102C"/>
<path d="M94.6245 155.456C101.06 154.912 107.506 154.948 113.941 155.419C114.135 157.862 112.757 158.564 110.798 158.552C106.105 158.515 101.413 158.467 96.7202 158.382C94.932 158.346 94.6815 156.955 94.6245 155.456Z" fill="#18102C"/>
<path d="M310.89 106.576C307.803 109.696 304.204 112.114 300.104 109.647C297.302 107.954 293.851 108.68 291.437 106.261C297.929 105.524 304.432 104.496 310.89 106.576Z" fill="#C4C2CA"/>
<path d="M276.744 97.5423C276.847 96.3814 276.79 94.7367 278.1 94.6883C282.507 94.4948 286.926 94.4948 291.323 94.6883C292.633 94.7488 292.576 96.3934 292.678 97.5423C287.371 97.5544 282.052 97.5544 276.744 97.5423Z" fill="#C4C2CA"/>
<path d="M183.395 105.403C183.372 105.79 183.475 106.261 183.304 106.564C180.65 111.207 176.413 108.039 172.962 108.825C170.639 109.357 169.602 107.834 169.739 105.403C174.295 105.403 178.851 105.403 183.395 105.403Z" fill="#C4C2CA"/>
<path d="M387.155 96.8045C384.751 90.2985 386.517 83.5627 386.164 76.9357C387.792 76.2948 388.43 77.4436 389.011 78.7013C388.487 83.9134 388.487 89.1255 389.068 94.3376C388.84 95.1599 388.601 95.9943 388.373 96.8166C387.975 96.8166 387.565 96.8166 387.155 96.8045Z" fill="#C4C2CA"/>
<path d="M130.935 76.8875C131.014 78.8708 131.311 81.0838 128.497 81.0354C125.616 80.987 122.313 81.4587 121.926 76.8754C123.828 76.6698 125.718 76.4763 127.62 76.2708C128.759 76.2708 129.898 76.2708 131.037 76.2708C130.946 76.4763 130.912 76.6698 130.935 76.8875Z" fill="#C4C2CA"/>
<path d="M199.329 105.391C199.386 110.482 195.696 108.886 193.361 108.765C190.935 108.644 186.937 110.929 186.812 105.403C188.338 105.403 189.853 105.403 191.379 105.391C191.835 105.717 192.279 106.044 192.735 106.37C193.714 106.37 194.694 106.37 195.673 106.37C196.129 106.044 196.584 105.705 197.04 105.379C197.814 105.391 198.577 105.391 199.329 105.391Z" fill="#C4C2CA"/>
<path d="M146.971 76.9478C146.96 78.9069 146.356 81.2287 144.397 80.745C142.062 80.1767 138.281 81.4948 137.859 76.9478C138.611 76.7301 139.374 76.5246 140.126 76.3069C142.028 76.3069 143.93 76.3069 145.843 76.3069C146.219 76.5125 146.595 76.7301 146.971 76.9478Z" fill="#C4C2CA"/>
<path d="M389.079 94.3497C388.498 89.1376 388.498 83.9255 389.022 78.7134C391.574 83.9134 391.482 89.1255 389.079 94.3497Z" fill="#18102C"/>
<path d="M76.4355 155.54C81.3445 154.96 86.2534 155.021 91.1623 155.456C86.2648 158.382 81.3558 158.249 76.4355 155.54Z" fill="#18102C"/>
<path d="M192.552 155.553C197.085 154.972 201.607 154.972 206.14 155.54C201.607 158.358 197.074 158.334 192.552 155.553Z" fill="#18102C"/>
<path d="M67.4263 125.78C71.5493 125.767 75.6838 125.743 79.8068 125.731C80.1826 126.142 80.5699 126.554 80.9457 126.965C77.2555 128.126 73.44 128.162 69.6359 128.271C67.973 128.319 67.2213 127.557 67.4263 125.78Z" fill="#A9A5B5"/>
<path d="M255.115 105.415C255.377 108.898 253.213 108.886 250.867 108.922C248.475 108.97 246.938 108.317 247.154 105.403C249.808 105.415 252.462 105.415 255.115 105.415Z" fill="#C4C2CA"/>
<path d="M157.21 76.9479C156.071 76.7302 154.932 76.5125 153.793 76.3069C160.627 74.239 167.472 74.2269 174.306 76.3069C170.889 76.5125 167.472 76.7181 164.055 76.9237C161.778 76.4158 159.488 76.4037 157.21 76.9479Z" fill="#18102C"/>
<path d="M167.461 105.403C167.689 108.305 166.174 108.946 163.771 108.922C161.379 108.898 160.491 107.749 160.639 105.391C162.917 105.403 165.183 105.403 167.461 105.403Z" fill="#C4C2CA"/>
<path d="M96.9026 126.565C99.9322 123.494 102.962 123.482 105.98 126.59C102.95 126.578 99.9322 126.578 96.9026 126.565Z" fill="#C4C2CA"/>
<path d="M331.38 98.147C332.906 98.147 334.421 98.147 335.947 98.147C335.708 99.9609 336.665 102.658 333.669 102.658C330.662 102.658 331.619 99.9609 331.38 98.147Z" fill="#261F3D"/>
<path d="M282.473 155.504C285.48 154.984 288.498 154.984 291.505 155.516C288.486 158.298 285.48 158.322 282.473 155.504Z" fill="#18102C"/>
<path d="M374.717 76.7906C373.123 80.4185 370.093 78.0724 367.758 78.6771C367.417 78.3264 367.075 77.9757 366.733 77.625C365.947 77.625 365.161 77.6129 364.387 77.6129C364.319 77.3348 364.296 77.0445 364.319 76.7543C367.781 76.2101 371.243 76.2101 374.717 76.7906Z" fill="#A9A5B5"/>
<path d="M289.261 106.588C286.061 110.663 283.077 108.099 280.07 106.273C283.134 106.37 286.197 106.479 289.261 106.588Z" fill="#C4C2CA"/>
<path d="M84.374 126.59C87.1189 122.925 90.308 124.449 93.4743 125.707C91.9481 126.045 90.1485 125.163 88.9526 126.904C87.4264 126.795 85.9002 126.686 84.374 126.59Z" fill="#C4C2CA"/>
<path d="M265.525 106.322C265.229 108.208 264.238 109.115 262.416 108.716C260.639 108.329 260.924 106.745 260.81 105.415C261.949 105.415 263.099 105.415 264.238 105.415C264.671 105.729 265.104 106.056 265.537 106.37L265.525 106.322Z" fill="#C4C2CA"/>
<path d="M250.594 155.504C252.473 154.984 254.341 154.984 256.22 155.504C254.352 158.225 252.473 158.213 250.594 155.504Z" fill="#18102C"/>
<path d="M118.543 155.419C120.035 155.432 121.538 155.444 123.03 155.456C121.527 158.044 120.023 158.068 118.543 155.419Z" fill="#18102C"/>
<path d="M88.9526 126.892C90.1485 125.163 91.9481 126.033 93.4743 125.695C93.5199 126.009 93.5426 126.336 93.5199 126.662C92.0278 127.4 90.6041 129.649 88.9526 126.892Z" fill="#A9A5B5"/>
<path d="M273.43 106.249C272.234 108.063 271.027 108.063 269.819 106.261C271.015 104.689 272.223 104.701 273.43 106.249Z" fill="#C4C2CA"/>
<path d="M301.824 155.528C302.94 155.528 304.056 155.528 305.172 155.54C304.045 157.995 302.929 157.995 301.824 155.528Z" fill="#18102C"/>
<path d="M269.956 155.516C271.425 155.516 272.894 155.516 274.363 155.528C272.883 157.923 271.413 158.068 269.956 155.516Z" fill="#18102C"/>
<path d="M226.698 155.516C227.814 155.516 228.931 155.504 230.047 155.504C228.931 158.007 227.814 158.02 226.698 155.516Z" fill="#18102C"/>
<path d="M140.172 155.492C141.288 155.492 142.404 155.492 143.52 155.492C142.404 158.032 141.288 158.032 140.172 155.492Z" fill="#18102C"/>
<path d="M145.844 76.2948C143.941 76.2948 142.039 76.2948 140.126 76.2948C142.039 74.4325 143.941 74.4446 145.844 76.2948Z" fill="#18102C"/>
<path d="M277.917 155.54C278.657 155.54 279.386 155.528 280.127 155.528C279.944 156.29 279.705 157.137 278.783 156.846C278.407 156.713 278.202 155.988 277.917 155.54Z" fill="#18102C"/>
<path d="M131.037 76.2829C129.898 76.2829 128.759 76.2829 127.62 76.2829C128.759 74.7108 129.898 74.6866 131.037 76.2829Z" fill="#18102C"/>
<path d="M206.174 97.5182C206.311 97.0587 206.152 96.2726 206.949 96.4782C207.131 96.5266 207.188 97.1554 207.302 97.5061C206.926 97.5182 206.55 97.5182 206.174 97.5182Z" fill="#C4C2CA"/>
<path d="M187.985 155.528C188.349 155.528 188.702 155.528 189.067 155.54C188.953 155.855 188.839 156.181 188.725 156.496C188.475 156.169 188.235 155.843 187.985 155.528Z" fill="#18102C"/>
<path d="M104.852 134.523C104.659 134.994 104.476 135.466 104.283 135.938C104.089 135.466 103.907 134.994 103.713 134.523C104.101 134.523 104.476 134.523 104.852 134.523Z" fill="#C0BEC2"/>
<path d="M197.051 105.403C196.596 105.729 196.14 106.068 195.685 106.395C195.924 105.717 196.254 105.197 197.051 105.403Z" fill="#C1C0C6"/>
<path d="M265.537 106.37C265.104 106.056 264.671 105.729 264.238 105.415C265.013 105.209 265.343 105.693 265.537 106.37Z" fill="#C1C0C6"/>
<path d="M192.746 106.382C192.29 106.056 191.846 105.729 191.391 105.403C192.177 105.209 192.507 105.717 192.746 106.382Z" fill="#C1C0C6"/>
<path d="M71.6974 134.184C71.5607 134.487 71.424 134.801 71.2873 135.103C71.1734 134.789 71.0709 134.462 70.957 134.148C71.2076 134.027 71.4582 134.051 71.6974 134.184Z" fill="#48435A"/>
<path d="M387.154 96.8047C387.564 96.8168 387.963 96.8168 388.373 96.8289C388.316 97.6875 387.906 98.014 387.12 97.7721C387.132 97.4456 387.154 97.1312 387.154 96.8047Z" fill="#A9A5B5"/>
<path d="M319.637 247.496L319.865 247.907C320.503 250.604 321.664 253.022 323.259 255.211C323.51 256.42 323.749 257.63 322.268 258.198C312.029 257.46 301.79 257.775 291.55 258.162C289.272 258.162 286.983 258.15 284.705 258.15C246.391 257.593 208.065 257.654 169.75 258.138C168.224 258.138 166.698 258.15 165.183 258.15C161.39 258.15 157.609 258.15 153.816 258.15C153.053 258.15 152.29 258.15 151.516 258.15C146.869 258.162 142.222 258.174 137.575 258.186C136.254 258.138 134.932 258.089 133.611 258.041C133.486 257.473 133.349 256.892 133.224 256.324C139.135 244.98 143.349 232.803 146.846 220.516C151.379 204.566 159.067 197.08 174.625 197.032C209.864 196.911 245.115 196.874 280.354 196.971C296.904 197.007 301.266 201.046 307.655 217.445C311.562 227.494 314.295 238.087 319.637 247.496Z" fill="#EBE9F0"/>
<path d="M133.611 258.041C134.932 258.089 136.254 258.138 137.575 258.186C142.233 260.943 146.869 261.173 151.516 258.15C152.279 258.15 153.042 258.15 153.816 258.15C157.609 261.161 161.39 261.149 165.183 258.15C166.709 258.15 168.236 258.138 169.75 258.138C170.65 260.883 172.871 259.952 174.602 259.952C209.682 260 244.773 260 279.853 259.952C281.585 259.952 283.806 260.871 284.705 258.138C286.983 258.138 289.273 258.15 291.55 258.15C292.017 259.855 293.27 259.939 294.648 259.988C302.633 260.266 310.674 259.214 318.601 261.112C320.275 261.512 322.052 261.221 322.314 258.706C326.334 259.661 327.883 255.985 330.298 253.929C331.756 257.908 334.409 259.456 338.407 258.815C340.195 258.525 342.075 258.815 343.908 258.851C338.555 265.841 340.286 272.008 344.99 278.72C349.273 284.815 349.239 292.651 349.478 299.943C349.854 311.19 349.569 322.472 349.558 333.731C349.034 333.937 348.043 334.203 348.054 334.348C348.795 341.797 342.097 345.57 340.469 351.822L340.446 351.846C335.514 355.898 334.489 361.872 334.375 367.785C334.193 376.927 324.352 385.356 317.234 381.619C311.528 378.632 304.956 376.625 302.12 369.49C301.642 368.293 300.753 367.604 299.5 367.531C299.5 364.205 299.512 360.88 299.489 357.566C299.478 355.656 299.876 353.491 297.291 352.935C297.257 352.185 297.234 351.423 297.2 350.673C296.346 346.646 293.27 348.279 291.152 348.279C255.218 348.182 219.272 348.206 183.338 348.206C183.349 347.396 183.349 346.586 183.361 345.776C221.425 345.776 259.489 345.788 297.541 345.739C299.728 345.739 302.12 346.574 304.056 344.663C309.728 344.615 315.412 344.554 321.084 344.506C321.847 344.506 322.61 344.506 323.384 344.506C324.899 344.518 326.414 344.53 327.929 344.542C328.681 344.542 329.444 344.53 330.195 344.53C332.086 344.518 333.977 344.494 335.867 344.482C340.571 343.091 342.997 339.572 343.874 334.686C346.061 322.521 344.535 310.21 344.99 297.984C345.161 293.304 344.227 288.793 342.917 284.404C339.398 272.601 330.833 265.974 319.318 265.974C275.89 265.974 232.473 265.962 189.044 265.962C185.627 265.962 182.211 265.974 178.794 265.974C172.347 265.974 165.889 265.974 159.443 265.974C158.68 265.974 157.928 265.974 157.165 265.974C150.935 265.974 144.705 265.962 138.463 265.974C124.773 266.01 115.251 273.314 112.814 287.596C110.217 302.797 110.9 318.361 112.438 333.646C113.429 343.514 115.855 344.675 125.308 344.518C126.447 344.53 127.575 344.53 128.714 344.542C129.078 344.591 129.443 344.627 129.807 344.651C129.625 347.324 130.832 348.46 133.292 348.194C133.19 349.512 132.62 350.565 131.413 350.939C125.878 352.657 120.502 354.616 117.347 360.336C116.55 357.929 119.135 354.362 115.126 353.056C115.103 352.632 115.069 352.197 115.035 351.774C115.001 351.169 115.194 350.311 114.898 350.008C105.023 339.971 108.634 326.645 107.871 314.697C107.324 306.195 106.231 297.537 107.939 288.769C109.135 282.674 110.525 276.93 113.725 271.766C114.613 270.339 115.092 268.937 115.126 267.292C116.47 267.05 118.064 266.615 117.882 264.958C117.677 263.072 115.866 263.712 114.648 263.604C111.994 263.362 108.679 264.511 108.201 259.952C112.051 260.314 115.775 259.395 119.522 258.706C123.326 258.621 127.119 257.122 130.923 258.682L131.026 258.791C131.356 259.383 131.698 260.472 132.005 260.459C133.463 260.435 133.304 259.02 133.611 258.041Z" fill="#161C48"/>
<path d="M238.953 194.722C227.791 194.722 216.63 194.77 205.468 194.673C203.816 194.661 200.878 195.762 200.969 192.823C201.06 190.054 203.964 191.142 205.65 191.13C227.974 191.058 250.297 191.058 272.621 191.13C274.306 191.13 277.302 190.042 277.359 192.714C277.427 196.088 274.192 194.625 272.45 194.649C261.265 194.794 250.104 194.722 238.953 194.722Z" fill="#1D1838"/>
<path d="M119.591 258.742C115.843 259.432 112.119 260.351 108.269 259.988C106.652 258.936 104.613 258.476 103.759 256.36C103.725 255.368 103.782 254.353 103.622 253.385C102.495 246.637 103.406 245.476 110.035 245.428C112.472 245.404 114.909 245.416 117.347 245.416C119.784 245.537 122.244 245.065 121.06 249.527C120.274 252.43 120.581 255.731 119.591 258.742Z" fill="#24427A"/>
<path d="M119.591 258.742C120.581 255.743 120.274 252.43 121.048 249.515C122.233 245.053 119.773 245.525 117.335 245.404C117.37 243.832 117.404 242.272 117.438 240.699C119.135 240.687 120.832 240.627 122.529 240.687C130.32 240.965 133.452 244.581 132.666 252.575C132.529 253.965 131.8 255.259 133.201 256.324C133.326 256.892 133.463 257.472 133.588 258.041C133.281 259.02 133.44 260.435 132.051 260.484C131.743 260.496 131.402 259.395 131.071 258.815C131.14 258.621 131.219 258.416 131.288 258.222C131.185 258.379 131.071 258.549 130.969 258.706C127.199 257.158 123.395 258.645 119.591 258.742Z" fill="#292652"/>
<path d="M117.449 240.7C117.415 242.272 117.381 243.832 117.347 245.404C114.909 245.404 112.472 245.404 110.035 245.416C103.417 245.464 102.495 246.625 103.622 253.373C103.782 254.341 103.714 255.356 103.759 256.348C97.6771 251.934 97.5404 245.053 103.668 241.353C108.053 238.716 112.745 238.317 117.449 240.7Z" fill="#161C48"/>
<path d="M349.603 151.199C356.995 154.875 362.542 150.776 367.815 146.108C369.842 144.318 369.261 141.633 368.328 139.469C367.633 137.848 366.471 136.482 366.676 134.535C367.792 134.39 368.908 134.233 370.036 134.087C371.209 134.087 372.382 134.087 373.555 134.087C378.487 134.099 383.43 134.124 388.362 134.136C388.419 141.041 388.476 147.946 388.521 154.839C386.152 155.057 383.783 155.262 381.414 155.48C379.17 155.456 376.938 155.444 374.694 155.42C373.521 155.407 372.348 155.407 371.175 155.395C367.006 155.008 362.838 154.815 358.681 155.468C358.316 155.456 357.963 155.456 357.599 155.444C356.061 154.912 354.523 154.924 352.974 155.395C350.913 153.92 347.223 157.209 346.175 152.771C347.416 152.505 348.749 152.445 349.603 151.199Z" fill="#C4C2CA"/>
<path d="M352.974 155.408C354.523 154.936 356.061 154.924 357.599 155.456C357.849 155.794 358.1 156.121 358.339 156.46C358.453 156.133 358.567 155.807 358.681 155.48C362.838 154.827 367.006 155.021 371.175 155.408C371.095 155.649 371.027 155.891 370.97 156.133C370.116 156.109 369.387 156.363 368.954 157.234C366.949 157.246 364.945 157.318 362.94 157.234C360.492 157.125 359.717 158.515 359.865 160.837C355.526 160.837 351.186 160.837 346.209 160.837C348.191 156.955 353.225 160.535 352.974 155.408Z" fill="#1D1838"/>
<path d="M349.603 151.199C348.749 152.433 347.416 152.505 346.175 152.783L346.152 152.795C339.717 152.662 333.271 152.529 326.835 152.396C327.997 148.526 331.676 148.768 333.783 149.276C338.168 150.328 342.2 150.546 346.426 148.986C348.043 148.381 349.41 149.059 349.603 151.199Z" fill="#C0BEC2"/>
<path d="M343.92 258.851C342.086 258.827 340.207 258.525 338.419 258.815C334.409 259.456 331.756 257.908 330.309 253.929C330.241 252.732 330.161 251.535 330.093 250.338C330.537 248.753 330.981 247.157 331.425 245.573C335.503 245.174 339.58 244.581 343.669 244.424C348.054 244.243 351.858 244.799 351.995 251.22C352.132 257.605 348.999 259.165 343.92 258.851Z" fill="#24427A"/>
<path d="M322.314 258.718C322.063 261.221 320.275 261.524 318.601 261.125C310.662 259.214 302.632 260.278 294.648 260C293.27 259.952 292.006 259.867 291.55 258.162C301.79 257.775 312.029 257.46 322.257 258.198C322.268 258.198 322.314 258.718 322.314 258.718Z" fill="#18102C"/>
<path d="M331.425 245.573C330.981 247.157 330.537 248.753 330.093 250.338C326.892 250.483 326.198 248.318 327.132 245.839C328.054 243.396 329.876 243.904 331.425 245.573Z" fill="#161C48"/>
<path d="M323.248 255.211C321.653 253.022 320.491 250.604 319.854 247.907C322.997 249.286 324.614 251.474 323.248 255.211Z" fill="#261F3D"/>
<path d="M370.036 134.1C368.92 134.245 367.804 134.402 366.676 134.547C364.398 134.559 362.12 134.559 359.842 134.571C358.703 134.571 357.564 134.571 356.414 134.571C327.086 134.462 297.746 134.281 268.418 134.257C221.094 134.208 173.771 134.269 126.447 134.269C123.805 134.269 121.162 134.087 118.52 134.003C118.52 131.705 118.52 129.407 118.509 127.11C119.648 126.94 120.775 126.759 121.914 126.59C124.955 126.59 127.996 126.602 131.037 126.602C135.582 126.602 140.126 126.614 144.67 126.614C149.226 127.098 153.793 127.086 158.349 126.602C160.24 126.602 162.131 126.602 164.021 126.614C166.686 126.614 169.352 126.614 172.005 126.614C176.926 126.614 181.857 126.626 186.778 126.626C190.195 126.626 193.623 126.626 197.04 126.614C219.796 126.614 242.564 126.602 265.32 126.602C267.61 126.602 269.887 126.614 272.177 126.614C296.835 127.025 321.494 127.134 346.152 126.553C348.441 126.553 350.719 126.541 353.009 126.541C354.899 126.541 356.79 126.529 358.681 126.529C360.583 126.529 362.485 126.541 364.387 126.541C371.596 126.771 378.795 127.013 386.004 127.243C384.729 131.161 381.596 128.803 379.353 129.432C377.291 130 374.273 128.005 373.476 131.935C371.893 131.862 370.275 131.753 370.036 134.1Z" fill="#1D1838"/>
<path d="M388.521 154.863C388.464 147.958 388.407 141.053 388.362 134.16C388.965 133.592 390.082 133.253 390.15 134.112C390.731 140.763 391.107 147.438 389.956 154.077C389.888 154.416 389.022 154.597 388.521 154.863Z" fill="#18102C"/>
<path d="M374.694 155.444C376.938 155.468 379.17 155.48 381.414 155.504C379.148 158.213 376.915 158.298 374.694 155.444Z" fill="#18102C"/>
<path d="M370.036 134.099C370.275 131.753 371.904 131.862 373.487 131.923C373.51 132.648 373.533 133.374 373.556 134.099C372.382 134.099 371.209 134.099 370.036 134.099Z" fill="#48435A"/>
<path d="M368.954 157.246C369.376 156.375 370.104 156.121 370.97 156.145C370.628 157.197 369.774 157.185 368.954 157.246Z" fill="#18102C"/>
<path d="M387.143 126.844C387.587 126.505 388.02 126.179 388.464 125.84C388.373 126.687 387.918 127.013 387.143 126.844Z" fill="#A9A5B5"/>
<path d="M183.372 348.231C219.306 348.231 255.252 348.206 291.186 348.303C293.293 348.303 296.38 346.671 297.234 350.698C252.621 350.673 208.008 350.649 163.395 350.661C161.481 350.661 159.021 349.754 158.338 352.971C156.823 353.273 156.071 354.205 156.083 355.873C156.106 358.074 156.026 360.275 156.071 362.476C156.219 368.849 156.755 375.017 150.752 379.588C143.554 385.078 135.673 385.211 127.643 384.098C123.463 383.518 117.552 373.517 117.392 368.148C117.313 365.548 117.381 362.948 117.392 360.348C120.547 354.628 125.923 352.669 131.458 350.952C132.666 350.577 133.235 349.525 133.338 348.206C134.078 348.206 134.818 348.206 135.559 348.206C135.627 349.791 136.39 350.613 137.905 350.625C143.452 350.867 149.26 353.213 154.454 350.335C159.34 347.626 164.272 348.376 169.249 348.231C173.964 348.11 178.668 348.218 183.372 348.231Z" fill="#292652"/>
<path d="M299.523 367.555C300.787 367.628 301.664 368.305 302.143 369.514C304.979 376.649 311.539 378.645 317.257 381.644C324.375 385.38 334.227 376.952 334.398 367.809C334.512 361.896 335.537 355.922 340.469 351.871C340.469 358.28 340.526 364.689 340.457 371.099C340.355 380.483 336.585 384.486 328.031 384.498C322.746 384.498 317.462 384.498 312.188 384.498C303.202 384.486 299.569 380.664 299.523 371.183C299.512 369.962 299.523 368.765 299.523 367.555Z" fill="#261F3D"/>
<path d="M346.175 126.541C321.517 127.11 296.858 127.013 272.2 126.602C272.792 124.074 274.728 124.619 276.357 124.619C298.225 124.594 320.104 124.594 341.972 124.619C343.59 124.619 345.537 124.038 346.175 126.541Z" fill="#C4C2CA"/>
<path d="M265.354 126.59C242.598 126.59 219.83 126.602 197.074 126.602C197.666 124.087 199.602 124.619 201.208 124.619C221.208 124.595 241.197 124.595 261.197 124.619C262.814 124.619 264.751 124.075 265.354 126.59Z" fill="#C4C2CA"/>
<path d="M186.801 126.602C181.88 126.602 176.949 126.59 172.028 126.59C175.502 123.736 183.361 123.736 186.801 126.602Z" fill="#C4C2CA"/>
<path d="M144.693 126.602C140.149 126.602 135.604 126.59 131.06 126.59C134.511 123.736 141.253 123.736 144.693 126.602Z" fill="#C4C2CA"/>
<path d="M121.925 126.578C120.786 126.747 119.659 126.928 118.52 127.098C115.069 126.916 111.629 126.747 108.178 126.566C111.766 123.748 118.463 123.748 121.925 126.578Z" fill="#C4C2CA"/>
<path d="M365.788 114.339C365.947 113.179 366.63 112.659 367.678 112.671C368.897 112.671 369.945 113.021 369.751 114.63C369.603 115.863 368.635 116.032 367.667 116.02C366.619 115.996 365.936 115.488 365.788 114.339Z" fill="#A9A5B5"/>
<path d="M358.692 126.529C356.801 126.529 354.911 126.541 353.02 126.541C354.911 123.639 356.801 123.651 358.692 126.529Z" fill="#C4C2CA"/>
<path d="M164.044 126.59C162.153 126.59 160.263 126.59 158.372 126.578C160.263 123.603 162.153 123.603 164.044 126.59Z" fill="#C4C2CA"/>
<path d="M108.269 134.547C110.923 134.547 113.577 134.547 116.231 134.547C113.588 137.993 110.923 138.005 108.269 134.547Z" fill="#C0BEC2"/>
<path d="M356.425 134.559C357.564 134.559 358.703 134.559 359.854 134.559C359.592 136.143 360.571 138.767 358.145 138.755C355.708 138.767 356.687 136.143 356.425 134.559Z" fill="#C0BEC2"/>
<path d="M157.21 76.9479C159.488 76.4037 161.778 76.4158 164.056 76.9237C163.828 78.3749 164.58 80.8419 162.495 80.733C160.388 80.6121 157.279 80.8177 157.21 76.9479Z" fill="#C4C2CA"/>
<path d="M284.706 258.138C283.806 260.871 281.585 259.94 279.854 259.952C244.774 260 209.682 260 174.602 259.952C172.871 259.952 170.65 260.883 169.75 258.138C208.065 257.642 246.391 257.594 284.706 258.138Z" fill="#18102C"/>
<path d="M151.516 258.15C146.88 261.173 142.233 260.943 137.575 258.186C142.222 258.174 146.869 258.162 151.516 258.15Z" fill="#18102C"/>
<path d="M165.183 258.15C161.402 261.161 157.609 261.161 153.816 258.15C157.609 258.15 161.39 258.15 165.183 258.15Z" fill="#18102C"/>
<path d="M178.85 265.998C182.267 265.998 185.684 265.986 189.101 265.986C189.466 268.985 191.664 268.429 193.475 268.429C210.445 268.453 227.427 268.453 244.397 268.453C261.277 268.453 278.168 268.441 295.047 268.453C299.751 268.453 303.999 271.283 305.787 274.886C308.099 279.53 301.881 278.829 300.024 281.151C299.899 281.308 299.785 281.477 299.626 281.586C288.373 289.604 286.664 301.515 288.236 314.406C289.546 325.205 293.931 328.809 304.147 328.906C307.541 328.942 310.901 328.7 314.329 329.414C321.14 330.817 327.655 327.334 326.847 319.352C331.22 311.673 332.701 303.692 328.999 295.203C329.888 290.825 326.254 287.874 325.856 283.932C325.662 282.009 325.081 279.953 326.79 278.297C328.783 276.374 330.901 277.474 332.61 278.393C337.553 281.03 340.434 286.326 340.229 291.393C339.512 309.134 344.717 327.515 335.913 344.506C334.022 344.518 332.131 344.542 330.241 344.554C329.478 343.369 328.726 343.369 327.974 344.566C326.459 344.554 324.945 344.542 323.43 344.53C323.259 343.659 323.236 342.499 322.04 342.777C321.63 342.873 321.425 343.913 321.129 344.518C315.457 344.566 309.774 344.627 304.09 344.675C302.462 342.607 300.218 343.43 298.236 343.418C258.498 343.369 218.76 343.369 179.033 343.418C177.039 343.418 174.819 342.619 173.144 344.591C167.085 344.591 161.014 344.591 154.955 344.579C153.805 343.043 152.666 343.043 151.527 344.579C145.456 344.554 139.397 344.542 133.326 344.518C131.8 342.922 130.285 342.886 128.77 344.554C127.632 344.542 126.504 344.542 125.365 344.53C125.547 342.003 124.488 340.89 122.062 340.902C119.693 340.914 117.95 339.427 117.597 337.069C116.652 330.865 114.488 324.939 114.978 318.373C115.524 311.032 115.934 303.765 117.016 296.412C118.862 283.811 126.606 276.531 135.126 269.868C139.853 266.179 146.174 269.142 151.732 268.405C153.736 268.139 156.538 269.686 157.233 265.974C157.996 265.974 158.748 265.974 159.511 265.974C159.705 267.256 160.194 268.32 161.584 268.332C166.652 268.368 171.721 268.368 176.789 268.332C178.156 268.344 178.645 267.268 178.85 265.998ZM127.563 302.277C127.563 303.499 127.563 304.72 127.563 305.941C126.219 309.049 124.807 312.169 128.839 314.37C128.873 314.709 128.896 315.047 128.884 315.386C131.128 323.464 133.076 329.027 141.561 329.003C142.791 329.003 144.067 329.813 145.251 330.393C152.757 334.021 158.053 333.235 163.383 326.306C166.14 322.726 171.003 319.449 170.422 314.539C169.705 308.505 170.024 302.555 169.796 296.569C169.705 294.187 168.885 292.542 167.381 290.789C159.488 281.634 149.682 278.792 138.452 280.582C135.524 281.054 132.301 281.912 131.208 285.178C130.183 288.237 128.748 290.97 127.347 293.8C126.003 296.509 125.752 299.508 127.563 302.277ZM227.917 317.998C214.83 317.998 201.743 318.071 188.668 317.95C185.263 317.926 182.358 318.349 182.404 322.775C182.45 327.068 185.707 326.415 188.27 326.415C214.625 326.439 240.981 326.427 267.347 326.427C270.263 326.427 273.361 326.717 273.293 322.122C273.213 317.502 270.013 317.998 267.177 317.998C254.09 317.998 241.003 318.01 227.917 317.998ZM268.304 305.953C270.73 306.897 272.94 306.522 273.27 303.341C273.612 299.979 271.949 298.637 268.896 298.637C241.277 298.661 213.657 298.649 186.037 298.637C183.953 298.637 182.245 298.927 182.29 301.806C182.336 304.539 183.6 305.869 186.117 305.905C188.201 305.941 190.274 305.941 192.358 305.941C217.677 305.953 242.997 305.953 268.304 305.953Z" fill="#1E4A84"/>
<path d="M326.858 319.353C327.667 327.334 321.152 330.817 314.341 329.414C310.913 328.713 307.553 328.942 304.159 328.906C293.942 328.809 289.557 325.206 288.248 314.407C286.676 301.515 288.384 289.604 299.637 281.586C299.785 281.477 299.911 281.308 300.036 281.151C301.892 278.817 308.111 279.53 305.799 274.887C304.011 271.283 299.763 268.453 295.059 268.453C278.179 268.429 261.289 268.453 244.409 268.453C227.439 268.453 210.457 268.465 193.486 268.429C191.675 268.429 189.477 268.985 189.113 265.986C232.541 265.986 275.958 265.986 319.387 265.998C330.902 265.998 339.467 272.625 342.986 284.428C344.296 288.83 345.23 293.34 345.059 298.008C344.603 310.247 346.13 322.545 343.943 334.711C343.066 339.596 340.64 343.115 335.936 344.506C344.74 327.515 339.535 309.134 340.253 291.394C340.458 286.327 337.576 281.03 332.633 278.394C330.924 277.474 328.806 276.374 326.813 278.297C325.116 279.954 325.685 282.009 325.879 283.932C326.277 287.874 329.911 290.825 329.022 295.203C323.806 287.645 317.371 283.122 307.974 284.101C299.489 284.984 291.289 292.796 290.457 301.697C289.398 312.98 294.99 322.485 303.931 325.278C312.735 328.023 320.15 325.46 326.858 319.353Z" fill="#24427A"/>
<path d="M157.222 265.986C156.538 269.698 153.737 268.151 151.721 268.417C146.163 269.142 139.841 266.192 135.115 269.88C126.595 276.531 118.85 283.823 117.005 296.424C115.923 303.777 115.513 311.032 114.966 318.385C114.477 324.952 116.641 330.877 117.586 337.081C117.951 339.439 119.682 340.926 122.051 340.914C124.477 340.902 125.536 342.015 125.354 344.542C115.9 344.699 113.474 343.539 112.484 333.671C110.957 318.385 110.263 302.821 112.859 287.62C115.297 273.338 124.818 266.022 138.509 265.998C144.75 265.974 150.98 265.986 157.222 265.986Z" fill="#24427A"/>
<path d="M173.145 344.591C174.83 342.632 177.051 343.418 179.033 343.418C218.771 343.369 258.509 343.369 298.236 343.418C300.218 343.418 302.45 342.607 304.09 344.675C302.154 346.586 299.762 345.752 297.576 345.752C259.512 345.8 221.448 345.788 183.395 345.788C180.001 345.219 176.356 346.949 173.145 344.591Z" fill="#24427A"/>
<path d="M173.144 344.591C176.356 346.949 180.001 345.219 183.395 345.788C183.384 346.598 183.384 347.408 183.372 348.219C178.668 348.219 173.964 348.11 169.26 348.243C164.283 348.376 159.352 347.638 154.465 350.347C149.272 353.225 143.463 350.879 137.916 350.637C137.837 349.065 137.074 348.243 135.57 348.219C134.83 348.219 134.089 348.219 133.349 348.219C130.889 348.485 129.682 347.348 129.864 344.675C131.014 344.627 132.176 344.579 133.326 344.542C139.397 344.566 145.456 344.579 151.527 344.603C152.666 344.603 153.816 344.603 154.955 344.603C161.014 344.591 167.085 344.591 173.144 344.591Z" fill="#112C62"/>
<path d="M178.85 265.998C178.657 267.28 178.156 268.344 176.778 268.356C171.709 268.392 166.641 268.392 161.572 268.356C160.183 268.344 159.693 267.28 159.5 265.998C165.946 265.986 172.393 265.998 178.85 265.998Z" fill="#24427A"/>
<path d="M133.315 344.53C132.165 344.579 131.003 344.627 129.853 344.663C129.488 344.639 129.124 344.603 128.759 344.555C130.274 342.898 131.789 342.934 133.315 344.53Z" fill="#24427A"/>
<path d="M321.129 344.518C321.426 343.914 321.631 342.874 322.041 342.777C323.225 342.499 323.259 343.66 323.43 344.53C322.656 344.53 321.892 344.518 321.129 344.518Z" fill="#24427A"/>
<path d="M327.974 344.554C328.726 343.357 329.478 343.357 330.241 344.542C329.489 344.554 328.726 344.554 327.974 344.554Z" fill="#24427A"/>
<path d="M131.003 258.706C131.105 258.549 131.219 258.38 131.322 258.222C131.254 258.416 131.174 258.621 131.105 258.815L131.003 258.706Z" fill="#261F3D"/>
<path d="M358.681 155.48C358.567 155.807 358.453 156.133 358.339 156.46C358.088 156.121 357.838 155.794 357.599 155.456C357.952 155.468 358.316 155.48 358.681 155.48Z" fill="#18102C"/>
<path d="M135.57 348.219C137.073 348.243 137.837 349.065 137.916 350.637C136.402 350.625 135.638 349.803 135.57 348.219Z" fill="#161C48"/>
<path d="M227.917 317.998C241.003 317.998 254.09 317.998 267.165 318.01C270.001 318.01 273.213 317.514 273.281 322.134C273.361 326.729 270.252 326.439 267.336 326.439C240.981 326.439 214.625 326.451 188.258 326.427C185.684 326.427 182.427 327.08 182.393 322.787C182.347 318.361 185.251 317.926 188.657 317.962C201.755 318.059 214.842 317.998 227.917 317.998Z" fill="#112C62"/>
<path d="M326.858 319.353C320.161 325.46 312.735 328.023 303.919 325.266C294.979 322.473 289.386 312.968 290.446 301.685C291.277 292.796 299.478 284.972 307.963 284.089C317.359 283.11 323.806 287.633 329.011 295.191C332.701 303.704 331.22 311.674 326.858 319.353ZM321.653 314.237C326.437 311.855 327.712 307.393 326.562 302.604C325.036 296.231 321.471 291.055 315.4 288.624C311.972 287.246 308.396 286.677 306.357 291.273C305.4 291.829 304.398 292.325 303.487 292.954C298.418 296.509 296.22 301.757 297.462 307.84C298.373 312.314 301.437 317.067 305.537 317.49C310.856 318.059 317.439 321.275 321.653 314.237Z" fill="#1D1838"/>
<path d="M268.305 305.954C242.986 305.954 217.666 305.954 192.359 305.954C190.275 305.954 188.202 305.942 186.117 305.917C183.589 305.881 182.336 304.551 182.29 301.818C182.245 298.94 183.953 298.649 186.038 298.649C213.657 298.662 241.277 298.674 268.897 298.649C271.949 298.649 273.612 299.992 273.27 303.354C272.951 306.522 270.742 306.897 268.305 305.954Z" fill="#112C62"/>
<path d="M128.873 315.386C128.884 315.048 128.873 314.709 128.827 314.37C128.406 311.565 127.973 308.759 127.552 305.942C127.552 304.72 127.552 303.499 127.563 302.277C128.053 298.444 128.987 294.792 131.333 291.72C137.438 283.727 149.135 281.731 157.472 287.258C166.971 293.546 170.206 304.744 165.456 314.878C161.299 323.755 149.807 328.326 140.593 325.351C135.251 323.622 132.461 319.123 128.873 315.386ZM133.6 309.448C135.08 314.225 138.053 317.515 142.415 319.425C142.654 319.969 142.757 320.816 143.144 320.997C149.511 323.875 162.29 315.41 162.928 308.07C163.907 296.835 157.096 290.342 148.338 287.947C141.8 286.157 133.702 293.244 133.474 300.27C133.042 303.342 131.743 306.413 133.6 309.448Z" fill="#1D1838"/>
<path d="M128.873 315.386C132.449 319.123 135.251 323.633 140.593 325.351C149.807 328.326 161.299 323.754 165.456 314.878C170.206 304.744 166.971 293.546 157.472 287.258C149.135 281.743 137.438 283.726 131.333 291.72C128.987 294.792 128.053 298.444 127.563 302.277C125.752 299.508 126.003 296.509 127.335 293.812C128.736 290.982 130.171 288.249 131.197 285.19C132.29 281.937 135.513 281.066 138.44 280.594C149.67 278.805 159.477 281.634 167.37 290.801C168.885 292.554 169.693 294.199 169.784 296.581C170.012 302.555 169.705 308.505 170.411 314.552C170.992 319.461 166.128 322.726 163.372 326.318C158.042 333.247 152.757 334.033 145.24 330.406C144.044 329.825 142.78 329.015 141.55 329.015C133.064 329.015 131.117 323.452 128.873 315.386Z" fill="#24427A"/>
<path d="M127.563 305.941C127.985 308.747 128.418 311.553 128.839 314.37C124.807 312.169 126.208 309.049 127.563 305.941Z" fill="#24427A"/>
<path d="M154.955 344.591C153.816 344.591 152.666 344.591 151.527 344.591C152.666 343.055 153.805 343.055 154.955 344.591Z" fill="#24427A"/>
<path d="M321.653 314.237C317.427 321.275 310.856 318.046 305.548 317.49C301.436 317.055 298.384 312.302 297.473 307.84C296.231 301.745 298.43 296.509 303.498 292.953C304.409 292.312 305.4 291.829 306.368 291.272C322.723 292.421 328.134 300.536 321.653 314.237Z" fill="#DDB97B"/>
<path d="M321.653 314.237C328.122 300.536 322.724 292.421 306.357 291.261C308.396 286.665 311.972 287.234 315.4 288.612C321.471 291.043 325.024 296.231 326.562 302.592C327.712 307.405 326.437 311.855 321.653 314.237Z" fill="#18102C"/>
<path d="M133.474 300.27C133.702 293.244 141.789 286.157 148.338 287.947C157.108 290.342 163.907 296.835 162.928 308.07C162.29 315.41 149.511 323.875 143.144 320.997C142.757 320.828 142.654 319.969 142.415 319.425C145.741 319.159 149.055 318.905 152.028 317.067C157.939 313.717 160.422 309.17 159.591 303.269C158.828 297.863 154.295 292.905 148.52 291.986C143.03 291.115 138.099 292.397 135.297 298.287C135.012 298.734 134.727 299.194 134.442 299.641C134.135 299.847 133.805 300.052 133.474 300.27Z" fill="#18102C"/>
<path d="M152.028 317.067C149.056 318.917 145.73 319.171 142.415 319.425C138.053 317.514 135.08 314.225 133.6 309.448C135.354 306.328 134.135 302.906 134.465 299.629C134.75 299.181 135.035 298.722 135.32 298.274C135.399 300.669 135.491 303.063 135.536 305.458C135.684 312.701 139.534 316.74 146.402 316.861C148.27 316.91 150.149 316.994 152.028 317.067Z" fill="#C0BEC2"/>
<path d="M134.454 299.641C134.124 302.906 135.342 306.328 133.588 309.46C131.732 306.425 133.03 303.341 133.463 300.282C133.805 300.052 134.135 299.846 134.454 299.641Z" fill="#DDB97B"/>
<path d="M152.028 317.067C150.149 317.006 148.27 316.91 146.379 316.873C139.511 316.752 135.661 312.713 135.513 305.47C135.468 303.075 135.365 300.681 135.297 298.286C138.099 292.397 143.03 291.115 148.52 291.986C154.295 292.905 158.828 297.863 159.591 303.269C160.434 309.17 157.939 313.717 152.028 317.067Z" fill="#DDB97B"/>
</g>
<defs>
<clipPath id="clip0_6_1979">
<rect width="459" height="468" fill="white"/>
</clipPath>
</defs>
</svg>
