<svg version="1.2" xmlns="http://www.w3.org/2000/svg" viewBox="0 0 459 468" width="459" height="468">
	<defs>
		<clipPath clipPathUnits="userSpaceOnUse" id="cp1">
			<path d="m0 0h459v468h-459z"/>
		</clipPath>
	</defs>
	<style>
		.s0 { fill: #1d1838 } 
		.s1 { fill: #261f3d } 
		.s2 { fill: #18102c } 
		.s3 { fill: #292652 } 
		.s4 { fill: #ebe9f0 } 
		.s5 { fill: #48435a } 
		.s6 { fill: #c0bec2 } 
		.s7 { fill: #c1c0c6 } 
		.s8 { fill: #c4c2ca } 
		.s9 { fill: #a9a5b5 } 
		.s10 { fill: #161c48 } 
		.s11 { fill: #24427a } 
		.s12 { fill: #1e4a84 } 
		.s13 { fill: #112c62 } 
		.s14 { fill: #ddb97b } 
	</style>
	<g id="Clip-Path" clip-path="url(#cp1)">
		<g>
			<path class="s0" d="m59.83 168.13q0.01-1.83 0.02-3.65c3.01-1.35 1.69-4.17 1.69-6.32 0.1-26.66 0.19-53.34-0.02-80-0.05-5.09 0.94-7.6 6.18-6.81 1.74 0.26 3.83 0.71 5.3-1.14 1.9-0.26 4.02 0.73 5.67-1.05 37.12-0.08 74.22-0.23 111.34-0.25 56.25-0.04 112.5 0.01 168.75 0.04 1.89 0 3.78 0.15 5.66 0.23q4.54 2.5 9.07-0.01 2.86 0 5.73 0 2.83 2.37 5.66 0c3.69-0.7 7.16-0.01 10.46 1.83q0.31 0.81 0.61 1.62c0.44 15.32 0.49 30.63-0.09 45.95-3.05-0.64-6.09-1.35-5.35 3.91 0.16 1.13-0.64 1.79-1.61 2.14-0.05-5.18-0.06-10.35-0.14-15.54-0.03-1.89 0.48-4.38-2.73-3.64q-12.53-0.01-25.05-0.01-22.73-0.13-45.47-0.24c-0.93 0-1.91-0.05-2.42 1.05q-1.1 0.18-2.2 0.36c-6.46-2.08-12.95-1.04-19.45-0.33q-1.09 0.17-2.18 0.34-4.6-0.16-9.19-0.31-3.31-0.01-6.64-0.01-1.81-2.34-3.61 0.01-2.15 0.03-4.3 0.06l0.02 0.05c-0.2-0.68-0.53-1.16-1.3-0.96q-1.72 0-3.43 0-2.86 0-5.69 0-3.99 0-7.97 0-23.9-0.01-47.81-0.02-1.14-0.01-2.29 0.01c-0.8-0.19-1.13 0.31-1.37 0.99q-1.46 0-2.93 0c-0.23-0.66-0.57-1.18-1.36-0.98q-2.28 0-4.57 0.01-1.71 0-3.41 0-6.83 0-13.66 0-1.14 0-2.29 0-3.41 0.01-6.82-0.01-7.33 0.03-14.66 0.05c-11.75-0.41-23.5-0.53-35.24 0.04q-2.9-0.31-5.81-0.61c-0.41-1.65-1.55-2.04-3.01-2.04q-15.23 0.03-30.46 0c-1.43 0-2.64 0.23-3.01 1.97-2.64 6.86-0.99 13.97-1.02 20.97-0.21 1.76 0.54 2.52 2.21 2.49 3.8-0.11 7.6-0.15 11.31-1.31q1.71-0.18 3.42-0.37 2.29 0.16 4.58 0.31c1.65 2.76 3.08 0.51 4.57-0.23q1.69-0.05 3.37-0.09 4.55 0.01 9.08 0.02 1.16 0.27 2.32 0.54c-0.57 2.37-3.11 3.98-2.32 6.87q-0.57 0.28-1.12 0.55-0.57 0-1.14 0-9.67-0.03-19.35-0.05-6.33-0.15-12.66-0.29-0.36-0.21-0.74-0.04c-2.54-0.75-4.05-0.13-3.9 3.07 0.1 2.22 0 4.43-0.01 6.64-0.05 10.71-0.05 10.71 9.37 11.69 4.92 2.72 9.83 2.85 14.73-0.09q1.73 0 3.46 0c0.05 1.5 0.31 2.9 2.1 2.93q7.04 0.12 14.08 0.17c1.96 0.01 3.33-0.69 3.14-3.14q2.3-0.72 4.6 0c1.48 2.65 2.97 2.63 4.49 0.04 5.72-0.57 11.42-0.59 17.14 0.04q1.67 3.81 3.35 0 22.22-0.96 44.45 0.03 0.37 0.49 0.74 0.97 0.17-0.48 0.34-0.95 1.75-0.76 3.49 0.02c4.53 2.78 9.05 2.81 13.59-0.01 6.85-0.69 13.71-0.66 20.56-0.03q1.69 3.75 3.34-0.01 10.28-0.97 20.56 0.01 2.82 4.07 5.63 0 6.87-0.93 13.72 0.02c1.47 2.56 2.94 2.4 4.41 0.01q1.78-0.8 3.55 0.01c0.29 0.45 0.48 1.19 0.86 1.29 0.92 0.29 1.16-0.55 1.34-1.31q1.18-0.01 2.35-0.02c3 2.82 6.01 2.8 9.03 0.02q5.16-0.93 10.32 0 1.67 3.7 3.35 0.01c5.7-0.67 11.41-0.61 17.12-0.1-0.16 2.99 1.84 2.62 3.73 3.13 3.38 0.91 7.12-1.2 11.08 0.98-2.72 1.94-4.85 1.28-6.84 1.28q-118.52 0.05-237.04 0.04c-7.13 0-14.27-0.02-21.4 0.03-1.8 0.01-3.97-0.63-4.6 2.21l-0.13 0.12c-3.23 1.03-2.03 3.91-2.04 6.05-0.09 22.59-0.08 45.19-0.1 67.78q-1.66 0-3.33 0c-0.01-21.07 0-42.12-0.08-63.19 0.04-2.1 1.14-4.72-1.68-5.84zm86.01-91.83q-2.86-2.8-5.71-0.01-1.14 0.33-2.27 0.65-3.45-0.81-6.93-0.06-0.03-0.33 0.1-0.61c-1.14-1.6-2.28-1.57-3.42 0q-2.85 0.3-5.7 0.61-2.27-0.01-4.54-0.02c-15.71-0.12-31.42-0.21-47.13-0.4-2.15-0.02-2.86 0.8-3.13 3.09-2.11 17.42-1.34 18.43 15 18.23 1.5-0.02 3.02-0.2 4.52-0.3 3.79 0.47 7.58 0.53 11.38 0.01 7.73 0.11 15.45 0.33 23.19 0.32 25.66-0.05 51.32-0.18 76.98-0.28q3.98 0.72 7.97-0.01 0.56 0 1.13 0 1.14 0 2.28-0.01c21.63 0.52 43.25 0.5 64.88 0.03q1.14 0 2.28 0 7.97 0 15.93 0 1.71 0.01 3.42-0.01 17.64 0.3 35.29 0.61c0.24 1.81-0.72 4.51 2.29 4.51 2.99 0 2.03-2.7 2.27-4.51q1.13 0 2.27 0c-0.58 3.09-0.54 5.39 3.61 4.78 2.94-0.43 6-0.26 8.99-0.03 3.41 0.26 4.94-1.09 4.5-4.75q2.26-0.3 4.53-0.59 13.64 0.11 27.29 0.21c0.8 0.25 1.19-0.08 1.25-0.94q0.35-1.24 0.7-2.48c2.41-5.23 2.5-10.44-0.06-15.64-0.58-1.26-1.22-2.41-2.85-1.76q-5.73-0.07-11.46-0.16-5.19-0.86-10.39-0.04-11.91-0.25-23.83-0.49c-1.29-1.7-3.1-1.19-4.75-1.2q-37.98-0.03-75.95-0.01c-1.64 0-3.46-0.5-4.7 1.27q-3.96 0-7.93 0c-1.24-1.78-3.06-1.27-4.7-1.28q-29.46-0.04-58.92 0c-1.64 0-3.46-0.5-4.72 1.24q-2.26 0-4.53 0-10.25-3.11-20.51 0-3.41 0.33-6.82 0.64-0.52-0.28-1.1-0.62z"/>
			<path class="s1" d="m104.78 237.86c8.22-1.79 16.6-1.84 24.25 1.46 4.32 1.86 4.13-1.18 4.75-2.99 2.69-7.64 4.87-15.49 7.56-23.12 3.56-10.05 8.68-18.73 18.97-22.52 3.64-1.34 7.33-1.87 11.16-1.87 38.31 0 76.64-0.04 114.96-0.01 12.11 0.01 22.88 8.1 26.93 20.29 3.08 9.26 5.96 18.6 8.93 27.91-2.16-0.02-4 0.41-2.94 3.39 0.85 2.37 0.65 4.7 0.29 7.08-5.33-9.39-8.08-20-11.99-30.04-6.38-16.41-10.76-20.43-27.3-20.47q-52.86-0.12-105.72 0.06c-15.56 0.05-23.24 7.54-27.78 23.49-3.5 12.27-7.72 24.45-13.63 35.8-1.41-1.06-0.67-2.35-0.53-3.75 0.78-8-2.35-11.6-10.14-11.88-1.69-0.06-3.39 0-5.09 0.01-4.7-2.38-9.4-1.98-13.78 0.65-6.12 3.7-5.99 10.58 0.09 15 0.86 2.11 2.89 2.59 4.51 3.63 0.48 4.54 3.79 3.41 6.45 3.65 1.2 0.11 3.03-0.55 3.23 1.35 0.17 1.66-1.42 2.08-2.75 2.34l-0.35-0.29c-4.08-2.53-9.32 1.04-13.15-2.81-8.62-9.01-7.71-20.91 2-26.01q0.52-0.18 1.07-0.35zm134.17-43.14c11.17 0 22.33 0.07 33.49-0.07 1.74-0.03 4.98 1.44 4.91-1.94-0.05-2.66-3.05-1.57-4.74-1.58q-33.49-0.11-66.97 0c-1.69 0-4.59-1.08-4.68 1.69-0.09 2.94 2.85 1.84 4.5 1.85 11.17 0.1 22.33 0.05 33.49 0.05z"/>
			<path class="s2" d="m67.22 163.1c0.64-2.84 2.8-2.2 4.6-2.21 7.13-0.05 14.27-0.03 21.4-0.03q118.52 0.01 237.04-0.04c2 0 4.13 0.66 6.85-1.28-3.97-2.17-7.7-0.06-11.08-0.98-1.89-0.5-3.9-0.14-3.74-3.13 6.36-0.11 12.71-0.11 19.04-0.41 1.7-0.08 4.39 1.33 4.81-2.23l0.02-0.01c1.05 4.44 4.74 1.15 6.8 2.63 0.25 5.11-4.78 1.53-6.76 5.43 4.98 0 9.31 0 13.65 0 7.92 0.01 15.82-0.03 23.74 0.05 1.73 0.01 3.94-0.86 4.69 1.97q-125.29 0.05-250.59 0.12-35.24 0.06-70.47 0.12z"/>
			<path class="s3" d="m395.85 224.92c0.11 13.25 0.3 26.52 0.31 39.77q0.04 57.93-0.01 115.87c0 6.91-1.01 7.65-6.5 5.07 1.73-2.09 0.93-4.62 0.93-6.94 0.08-51.21 0.09-102.43 0.12-153.64q2.57-0.06 5.15-0.13z"/>
			<path class="s0" d="m319.64 247.5c0.36-2.39 0.56-4.72-0.29-7.09-1.05-2.98 0.79-3.41 2.94-3.39l0.24 0.19-0.06 0.31q0.5 0.95 0.99 1.91c0.93 0.66 1.74 1.48 3.06 0.74 6.84-3.84 14.29-3.51 21.67-3.2 8.16 0.36 11.55 5.36 11.9 14.07 0.29 6.89-1.82 11.58-7.06 15.1-3.68 0.61-7.34 1.2-11.51 1.88 2.23 2.96 4.02 5.33 5.8 7.71q1.75 4.78 3.49 9.53c-0.06 0.13-0.17 0.3-0.14 0.41 0.07 0.28 0.22 0.52 0.33 0.79 1.15 17.36 1.7 34.73-0.35 52.07-1.55-1.3-0.88-3.15-1.05-4.79 0.01-11.25 0.3-22.54-0.08-33.79-0.25-7.29-0.21-15.12-4.48-21.22-4.72-6.71-6.44-12.88-1.09-19.87 5.08 0.32 8.22-1.25 8.08-7.63-0.14-6.42-3.94-6.98-8.33-6.79-4.09 0.17-8.16 0.75-12.24 1.15-1.55-1.69-3.37-2.18-4.29 0.26-0.94 2.48-0.24 4.65 2.95 4.5q0.1 1.8 0.21 3.59c-2.41 2.06-3.96 5.73-7.98 4.78l-0.06-0.52c1.48-0.57 1.24-1.78 0.99-2.99 1.37-3.75-0.25-5.92-3.39-7.3z"/>
			<path class="s1" d="m388.28 162.87c-0.74-2.83-2.96-1.96-4.69-1.97-7.92-0.08-15.82-0.05-23.74-0.05-0.14-2.32 0.63-3.7 3.08-3.6 2 0.08 4.01 0 6.01 0 0.82-0.07 1.68-0.05 2.02-1.1q0.08-0.37 0.22-0.73 1.75 0.01 3.51 0.02c2.23 2.86 4.47 2.77 6.72 0.06q3.56-0.32 7.11-0.64c0.49-0.26 1.37-0.44 1.43-0.8 1.16-6.62 0.77-13.3 0.19-19.96-0.08-0.86-1.19-0.52-1.79 0.05q-7.4-0.03-14.81-0.05-0.03-1.09-0.06-2.18c0.79-3.93 3.81-1.93 5.87-2.5 2.25-0.62 5.37 1.73 6.65-2.19q0.57-0.2 1.14-0.39 1.17 0.26 1.32-1 0.22-0.63 0.43-1.26c0.96-0.35 1.77-1 1.61-2.14-0.74-5.26 2.3-4.55 5.35-3.9 0.5 17.74 0.44 35.48 0 53.22q-2.61-0.03-5.21-0.05c-0.68-2.73 1.46-6.12-1.69-8.3q-0.61 0.13-0.67-0.54z"/>
			<path class="s1" d="m61.64 237.05q1.66 0 3.33 0c0.01 47.09-0.02 94.17 0.08 141.26 0.01 3.91-0.25 6.9-4.97 6.31-0.99-2.02-0.62-4.11-0.25-6.2 3.06-1.32 1.71-4.17 1.72-6.31 0.09-45.02 0.08-90.04 0.09-135.06z"/>
			<path class="s2" d="m60.09 384.61c4.71 0.59 4.97-2.4 4.97-6.32-0.09-47.09-0.08-94.16-0.08-141.26 0.01-22.58 0-45.19 0.1-67.78 0.01-2.14-1.2-5.02 2.04-6.04q-0.09 95.15-0.18 190.3c-0.01 9.47-0.13 18.94 0.06 28.4 0.06 2.83-1.27 3.88-3.31 4.68-1.87 0.74-3.41 0.7-3.6-1.98z"/>
			<path class="s2" d="m61.64 237.05c-0.01 45.02 0 90.04-0.09 135.06 0 2.14 1.34 4.99-1.72 6.31-0.1-30.13-0.24-60.25-0.29-90.38-0.04-37.97-0.01-75.93 0-113.9 0-2 0.19-4 0.28-6 2.83 1.13 1.72 3.74 1.73 5.73 0.09 21.04 0.08 42.11 0.09 63.18z"/>
			<path class="s2" d="m388.95 163.41c3.15 2.18 1.01 5.57 1.69 8.3q0.02 26.67 0.05 53.34c-0.03 51.21-0.04 102.43-0.12 153.64 0 2.32 0.8 4.85-0.93 6.94-1.14-1.34-0.9-3.01-0.9-4.59q0.11-108.8 0.21-217.63z"/>
			<path class="s2" d="m297.34 352.83c-36.32-0.04-72.66-0.1-108.98-0.1-10.02 0-20.04 0.14-30.07 0.23l0.04 0.02c0.68-3.21 3.14-2.31 5.05-2.31q66.92-0.01 133.84 0.04 0.05 1.13 0.09 2.26z"/>
			<path class="s1" d="m158.3 352.95c-0.03 6.62 0.07 13.26-0.12 19.88-0.26 9.21-4.89 14.09-13.48 14.22-6.42 0.11-12.87 0.22-19.29-0.16-6.7-0.38-10.16-3.94-11.49-10.87 1.82-1.51 1.15-3.66 1.17-5.57 0.09-5.8 0.07-11.59 0.09-17.39 4.01 1.3 1.41 4.87 2.22 7.28 0 2.6-0.07 5.2 0 7.8 0.15 5.37 6.07 15.37 10.25 15.95 8.03 1.1 15.92 0.96 23.11-4.51 6.01-4.57 5.47-10.74 5.32-17.12-0.04-2.2 0.04-4.4 0.01-6.6-0.02-1.67 0.74-2.6 2.26-2.9-0.02 0.01-0.05-0.01-0.05-0.01z"/>
			<path class="s0" d="m390.7 225.05q-0.03-26.67-0.05-53.34 2.6 0.01 5.21 0.05c0.5 17.71 0.44 35.44 0 53.16q-2.59 0.07-5.16 0.13z"/>
			<path class="s1" d="m112.98 351.81c-4.6-3.71-7.79-8.72-7.88-14.72-0.27-18.04-1.24-36.11 0.66-54.13 2.17-5.86 4.17-11.85 9.08-15.95l0.34 0.29c-0.03 1.65-0.51 3.05-1.4 4.48-3.2 5.16-4.59 10.91-5.78 17-1.71 8.77-0.62 17.43-0.07 25.93 0.76 11.96-2.84 25.27 7.02 35.31 0.3 0.3 0.11 1.16 0.14 1.77q-1.05 0.02-2.11 0.02z"/>
			<path class="s0" d="m342.56 351.86c-0.13 7.62 0.18 15.3-0.51 22.85-0.77 8.55-5.08 12.21-13.29 12.41-5.67 0.15-11.36 0.23-17.02 0.1-8.82-0.2-13.97-5.76-14.18-15.14-0.13-6.41-0.16-12.83-0.22-19.25l-0.03 0.13c2.59 0.54 2.18 2.72 2.2 4.63q0.02 4.99 0.01 9.96 0 1.81-0.01 3.61c0.05 9.48 3.68 13.3 12.67 13.31q7.93 0 15.84 0c8.55 0 12.32-4.01 12.43-13.4 0.06-6.4 0.01-12.81 0.01-19.22l0.02-0.03q1.06 0.03 2.08 0.04z"/>
			<path class="s2" d="m72.98 70.21c-1.46 1.86-3.54 1.4-5.29 1.14-5.24-0.79-6.23 1.72-6.19 6.81 0.22 26.66 0.13 53.33 0.03 80-0.01 2.15 1.32 4.97-1.69 6.32q-0.16-45.14-0.3-90.25c0-1.62 0.04-3.24 1.58-4.24q0.81-0.36 1.61-0.73 4.57-0.05 9.13-0.09 0.56 0.52 1.12 1.04z"/>
			<path class="s4" d="m114.84 267.03c-4.91 4.11-6.91 10.08-9.08 15.95-2.35-0.5-1.83-2.49-2.05-4.21-0.61-4.86-1.34-9.7-2.02-14.55 3.82 3.83 9.06 0.28 13.15 2.81z"/>
			<path class="s1" d="m342.56 351.86q-1.03-0.01-2.07-0.03c1.62-6.25 8.33-10.03 7.59-17.47-0.02-0.15 0.98-0.41 1.5-0.62 0.17 1.65-0.5 3.5 1.05 4.79-0.9 5.66-4.84 9.24-8.07 13.33z"/>
			<path class="s4" d="m347.31 275.73c-1.79-2.37-3.57-4.75-5.81-7.71 4.17-0.68 7.85-1.28 11.52-1.88-0.32 4.26-5.51 5.24-5.71 9.59z"/>
			<path class="s2" d="m112.98 351.81q1.06-0.01 2.12-0.02 0.05 0.65 0.09 1.28c-0.02 5.79 0 11.6-0.09 17.39-0.03 1.91 0.65 4.06-1.17 5.57q-0.49-12.1-0.95-24.22z"/>
			<path class="s1" d="m373.49 69.15q-4.54 2.51-9.07 0.01 4.53-0.01 9.07-0.01z"/>
			<path class="s1" d="m72.98 70.21q-0.57-0.51-1.13-1.03 3.4-0.01 6.81-0.02c-1.66 1.78-3.76 0.77-5.68 1.05z"/>
			<path class="s1" d="m384.88 69.15q-2.83 2.37-5.66 0 2.83 0 5.66 0z"/>
			<path class="s5" d="m350.98 286.46c-0.11-0.25-0.25-0.51-0.33-0.79-0.03-0.1 0.09-0.27 0.14-0.41 0.12 0.27 0.28 0.52 0.36 0.79 0.05 0.11-0.1 0.26-0.17 0.41z"/>
			<path class="s3" d="m395.94 72.58q-0.31-0.81-0.61-1.62 0.31 0.82 0.61 1.62z"/>
			<path class="s1" d="m62.73 69.27q-0.8 0.37-1.61 0.74 0.52-1.05 1.61-0.74z"/>
			<path class="s1" d="m323.46 239.42q-0.49-0.96-0.99-1.91 0.51 0.95 0.99 1.91z"/>
			<path class="s6" d="m167.46 105.4q1.15 0 2.29 0c-0.14 2.43 0.9 3.96 3.22 3.42 3.46-0.79 7.69 2.39 10.34-2.26 0.18-0.29 0.07-0.76 0.1-1.16q1.7 0 3.41 0c0.13 5.52 4.13 3.23 6.55 3.36 2.34 0.13 6.02 1.72 5.97-3.37q23.91 0.01 47.81 0.03c-0.22 2.91 1.32 3.55 3.72 3.51 2.35-0.04 4.52-0.02 4.24-3.5q2.86 0 5.7 0c0.1 1.33-0.17 2.91 1.61 3.3 1.82 0.4 2.81-0.51 3.1-2.4q2.15-0.03 4.3-0.06 1.81 2.71 3.61-0.01 3.31 0.01 6.64 0.01c3.01 1.84 6 4.4 9.19 0.32q1.09-0.17 2.18-0.34c2.4 2.43 5.86 1.7 8.66 3.38 4.1 2.47 7.7 0.05 10.79-3.07q1.1-0.18 2.2-0.36c0.2 1.57 0.9 2.75 2.54 2.61 3.27-0.26 6.4 1.3 9.51 1.1 4.35-0.28 8.63 3.06 12.78 0.66 2.65-1.54 4.45-1.62 7.24-0.16 6.49 3.42 13.79 0.82 15.83-5.02q12.53 0.01 25.05 0.01 0 1.82 0 3.63c0 14.12-1.33 15.46-14.56 15.65-2.36 0.03-5.42-1.69-7.07 1.85q-2.85-0.01-5.71-0.01-2.83-4.33-5.67 0.01-3.43 0-6.85 0.01c-0.64-2.5-2.59-1.92-4.21-1.92q-32.81-0.04-65.61 0c-1.62 0-3.57-0.55-4.16 1.98q-3.43 0-6.86-0.01c-0.6-2.5-2.53-1.97-4.14-1.97q-30-0.04-59.99 0c-1.62 0-3.56-0.53-4.14 1.98q-5.13 0-10.26 0.01c-3.44-2.86-11.31-2.86-14.77-0.01q-4 0-7.99 0-2.83-4.48-5.67-0.01c-4.55 0.48-9.12 0.51-13.67 0.01-3.45-2.86-10.18-2.88-13.64-0.01q-4.56-0.01-9.12-0.01c-3.46-2.83-10.16-2.84-13.74-0.01l0.13 0.55q-1.16-0.27-2.33-0.54-4.53-4.65-9.07-0.03-1.7 0.05-3.37 0.1 0.02-0.48-0.05-0.97c-3.17-1.26-6.36-2.78-9.1 0.89q-1.71 0.18-3.43 0.37-0.57-0.62-1.14-1.23c-4.21-1.5-6.89-4.68-7.81-9.17-0.75-3.68-0.88-7.5-1.28-11.25q17.11-0.21 34.22-0.43 2.9 0.3 5.81 0.6c-0.11 1.22-0.23 2.71 1.08 3.06 5.74 1.53 11.48 3.82 17.49 1.76 2.17-0.75 4.34-0.72 6.42-1.08 3.46-0.62 8.56 2.41 10.26-3.79q7.33-0.02 14.66-0.04c-0.14 2.37 0.74 3.52 3.13 3.53 2.34 0.05 3.86-0.59 3.63-3.5zm198.33 8.93c0.16 1.16 0.83 1.67 1.88 1.68 0.96 0.01 1.93-0.16 2.08-1.39 0.19-1.61-0.85-1.96-2.07-1.96-1.05 0-1.73 0.52-1.89 1.67z"/>
			<path class="s7" d="m84.36 134.47q9.68 0.03 19.35 0.05 0.29 0.71 0.57 1.42 0.29-0.71 0.57-1.42 0.57-0.27 1.12-0.54 1.14 0.28 2.29 0.55 3.98 5.17 7.96 0 1.14-0.27 2.29-0.55c2.64 0.09 5.28 0.27 7.93 0.27 47.32 0 94.64-0.07 141.97-0.02 29.33 0.03 58.66 0.21 87.99 0.32 0.27 1.58-0.71 4.2 1.71 4.2 2.44 0 1.45-2.62 1.71-4.19q3.42-0.01 6.83-0.03c-0.2 1.95 0.96 3.32 1.66 4.94 0.93 2.16 1.51 4.84-0.52 6.64-5.27 4.65-10.82 8.77-18.21 5.09-0.19-2.14-1.56-2.82-3.18-2.21-4.22 1.57-8.27 1.34-12.64 0.29-2.11-0.51-5.79-0.75-6.95 3.12q-26.85 0-53.71 0c-60.83 0-121.66-0.04-182.5 0.07-5.61 0.01-8.37-4.04-11.34-7.76-1.33-1.69-0.84-3.69 1.7-4.6 2.39-0.85 3.61-2.85 3.4-5.64z"/>
			<path class="s7" d="m98.03 97.49c-3.79 0.51-7.59 0.45-11.38-0.01-2.9-5.15-2.95-8.71 4.1-8.4 0.5 0.02 1-0.6 1.54-0.69 6.47-1.08 11.79-5.66 18.42-6.59 2.27-0.32 6.34-0.47 6.67-4.94q2.27 0.01 4.55 0.02c0.38 4.58 3.69 4.09 6.57 4.16 2.81 0.04 2.51-2.17 2.44-4.15 2.31-0.49 4.62-0.5 6.92 0.06 0.42 4.53 4.2 3.21 6.54 3.8 1.96 0.48 2.56-1.83 2.57-3.8q3.41-0.33 6.82-0.64 1.71 0.33 3.42 0.64c0.07 3.87 3.18 3.66 5.29 3.77 2.08 0.11 1.32-2.36 1.56-3.81q5.12-0.31 10.25-0.62 2.26 0 4.53 0 34.17 0.02 68.34 0.03 3.96 0 7.92 0c2.26 0.08 4.51 0.23 6.77 0.24q30.21 0.16 60.42 0.28c0.2 4.24-3.38 7.84-1.54 12.59 0.62 1.59-1.73 3.58-3.78 3.6-4.46 0.05-8.68 2.08-13.43 0.94-1.86-0.44-6.91-2.04-7.42 3.56q-1.71 0-3.42 0.01c-0.1-1.16-0.05-2.8-1.35-2.85q-6.62-0.29-13.23 0c-1.31 0.06-1.25 1.7-1.35 2.85q-1.14 0-2.28 0c0.12-2.84-1.54-3.19-3.69-3.18q-28.74 0.06-57.47 0c-2.13 0-3.84 0.28-3.73 3.15q-1.14-0.01-2.28 0.01c-0.11-0.36-0.17-0.98-0.35-1.03-0.8-0.21-0.64 0.57-0.77 1.04q-3.99 0.73-7.98 0.01c0.12-2.83-1.53-3.2-3.69-3.17-4.15 0.08-8.32 0.16-12.47-0.01-6.52-0.26-13.08 0.96-19.53-2.04-2.71-1.27-6.54-1.21-9.44 0.28-3.62 1.86-7.28 1.81-11.05 1.8q-19.57-0.03-39.14 0.01c-2.15 0-4.9-0.85-4.87 3.08z"/>
			<path class="s8" d="m296.1 97.54c0.51-5.6 5.56-4 7.42-3.55 4.76 1.13 8.98-0.9 13.43-0.95 2.05-0.02 4.41-2.02 3.78-3.6-1.85-4.74 1.73-8.34 1.54-12.59q9.1-0.3 18.21-0.59 11.9 0.25 23.83 0.49-0.05 0.44 0.06 0.86c0.04 1.42 0.18 3.43-1.05 3.82-10.22 3.27-5.33 10.04-3.49 16.14q-2.27 0.29-4.53 0.58-8.54 0-17.09 0-1.12 0-2.26 0-2.29 0-4.57 0-17.64-0.31-35.28-0.61z"/>
			<path class="s8" d="m84.36 134.47c0.21 2.79-1.01 4.79-3.38 5.64-2.54 0.91-3.03 2.93-1.7 4.6 2.96 3.73 5.72 7.77 11.35 7.76 60.83-0.11 121.66-0.07 182.49-0.07q26.86 0 53.71 0 9.66 0.2 19.32 0.39c-0.42 3.55-3.11 2.15-4.8 2.23-6.35 0.3-12.7 0.3-19.05 0.41-5.7-0.51-11.41-0.57-17.12 0.1q-1.67 0-3.35-0.01-5.15-0.93-10.31 0-4.52-0.8-9.04-0.02-1.17 0.01-2.34 0.02-1.11 0-2.21 0.01-1.78-0.82-3.56-0.01-2.2 0-4.4-0.02-6.87-0.94-13.73-0.01-2.81-0.77-5.62 0-10.28-0.98-20.56-0.01-1.68 0.01-3.35 0.01c-6.86-0.63-13.71-0.66-20.56 0.03q-6.79-0.86-13.59 0.01-1.74-0.78-3.48-0.03-0.54 0.01-1.08-0.01-22.23-0.99-44.46-0.03-1.67 0-3.35 0c-5.71-0.63-11.42-0.61-17.14-0.04q-2.24-0.02-4.49-0.04-2.29-0.72-4.6 0c-6.43-0.47-12.88-0.5-19.31 0.04q-1.73 0-3.47 0c-4.9-0.44-9.81-0.5-14.72 0.08-9.43-0.97-9.43-0.97-9.38-11.68 0.02-2.21 0.12-4.44 0.02-6.64-0.15-3.2 1.35-3.82 3.89-3.07q0.17 0.48 0.33 0.96 0.21-0.46 0.41-0.92 6.29 0.19 12.63 0.32z"/>
			<path class="s8" d="m117.38 76.86c-0.32 4.47-4.38 4.62-6.67 4.94-6.64 0.93-11.95 5.51-18.42 6.59-0.54 0.08-1.04 0.7-1.54 0.69-7.05-0.31-7.01 3.25-4.1 8.4-1.5 0.11-3 0.29-4.52 0.3-16.34 0.2-17.12-0.79-15-18.23 0.27-2.29 0.99-3.11 3.13-3.09 15.71 0.19 31.42 0.28 47.12 0.4z"/>
			<path class="s7" d="m359.83 97.55c-1.84-6.09-6.72-12.86 3.49-16.13 1.23-0.4 1.09-2.4 1.06-3.82q1.18 0.01 2.34 0.01 0.51 0.53 1.03 1.06c2.32-0.6 5.35 1.74 6.96-1.89q5.72 0.07 11.45 0.16c0.35 6.62-1.41 13.36 0.99 19.86q-0.01 0.48-0.04 0.96-13.63-0.09-27.28-0.21z"/>
			<path class="s8" d="m98.03 97.49c-0.03-3.93 2.73-3.08 4.85-3.08q19.57-0.04 39.14-0.01c3.77 0 7.42 0.05 11.04-1.8 2.91-1.49 6.74-1.55 9.45-0.28 6.43 3 13 1.78 19.53 2.04 4.16 0.17 8.31 0.09 12.47 0.01 2.15-0.03 3.8 0.33 3.69 3.17-25.66 0.1-51.32 0.23-76.98 0.28-7.73 0-15.47-0.22-23.19-0.33z"/>
			<path class="s8" d="m209.58 97.51c-0.11-2.87 1.59-3.15 3.72-3.15q28.74 0.06 57.48 0c2.16 0 3.81 0.35 3.69 3.18-21.63 0.47-43.26 0.49-64.89-0.03z"/>
			<path class="s8" d="m360.98 105.4c-2.04 5.84-9.33 8.44-15.83 5.02-2.78-1.46-4.59-1.38-7.24 0.16-4.15 2.4-8.43-0.92-12.78-0.65-3.11 0.19-6.25-1.37-9.51-1.11-1.63 0.14-2.34-1.04-2.54-2.61 0.52-1.1 1.49-1.06 2.42-1.05q22.75 0.11 45.48 0.24z"/>
			<path class="s8" d="m145.98 105.45c-1.7 6.19-6.8 3.17-10.26 3.79-2.07 0.36-4.25 0.32-6.41 1.07-6.01 2.07-11.76-0.23-17.5-1.75-1.31-0.35-1.18-1.84-1.08-3.06 11.75-0.59 23.5-0.46 35.25-0.05z"/>
			<path class="s8" d="m364.4 126.54c1.65-3.54 4.71-1.81 7.07-1.85 13.21-0.19 14.55-1.52 14.56-15.65q0-1.81 0-3.62c3.21-0.74 2.7 1.75 2.73 3.64 0.09 5.17 0.1 10.35 0.14 15.53q-0.21 0.63-0.42 1.26-0.66 0.5-1.33 1.01-0.56 0.2-1.13 0.38-10.81-0.36-21.62-0.7z"/>
			<path class="s8" d="m70.71 105.32c0.4 3.76 0.52 7.57 1.27 11.25 0.92 4.48 3.6 7.65 7.82 9.16q-6.19 0.03-12.39 0.05c0.04-7-1.61-14.1 1.03-20.97q1.14 0.25 2.27 0.51z"/>
			<path class="s2" d="m340.49 76.26q-9.1 0.29-18.21 0.59-30.21-0.12-60.42-0.28c-2.26-0.01-4.51-0.15-6.77-0.24 1.24-1.76 3.07-1.27 4.71-1.27q37.98-0.04 75.94 0.01c1.65-0.01 3.46-0.5 4.75 1.19z"/>
			<path class="s2" d="m70.71 105.32q-1.13-0.26-2.26-0.51c0.37-1.75 1.58-1.98 3.01-1.97q15.23 0.03 30.47 0c1.45 0 2.59 0.37 3 2.04q-17.11 0.22-34.22 0.44z"/>
			<path class="s1" d="m108.27 134.55q-1.15-0.28-2.29-0.56c-0.79-2.88 1.75-4.5 2.32-6.87l-0.12-0.55q5.17 0.26 10.34 0.53 0 3.44 0.01 6.89-1.14 0.28-2.29 0.56-3.98 0-7.97 0z"/>
			<path class="s1" d="m338.21 98.15q8.55 0 17.09 0c0.44 3.66-1.08 5.02-4.5 4.75-2.98-0.23-6.04-0.4-8.99 0.04-4.14 0.6-4.18-1.7-3.6-4.79z"/>
			<path class="s2" d="m247.16 76.33q-34.16-0.01-68.33-0.02c1.25-1.76 3.07-1.25 4.71-1.25q29.46-0.03 58.92 0c1.65 0 3.48-0.49 4.7 1.27z"/>
			<path class="s2" d="m94.62 155.46c6.44-0.55 12.89-0.51 19.32-0.04 0.2 2.44-1.18 3.14-3.14 3.13q-7.04-0.05-14.08-0.17c-1.79-0.03-2.04-1.42-2.1-2.92z"/>
			<path class="s8" d="m310.89 106.58c-3.09 3.12-6.69 5.53-10.79 3.07-2.8-1.7-6.25-0.97-8.66-3.39 6.49-0.74 12.99-1.76 19.45 0.32z"/>
			<path class="s8" d="m276.74 97.54c0.11-1.16 0.05-2.8 1.36-2.85q6.62-0.29 13.22 0c1.31 0.06 1.26 1.7 1.36 2.85q-7.97 0.02-15.94 0z"/>
			<path class="s8" d="m183.4 105.4c-0.03 0.39 0.07 0.86-0.1 1.16-2.65 4.65-6.89 1.48-10.34 2.26-2.32 0.54-3.36-0.99-3.22-3.42q6.84 0 13.66 0z"/>
			<path class="s8" d="m387.15 96.8c-2.4-6.5-0.63-13.24-0.99-19.86 1.63-0.65 2.27 0.5 2.85 1.76q-0.8 7.82 0.06 15.64-0.35 1.24-0.7 2.48-0.6 0-1.22-0.02z"/>
			<path class="s8" d="m130.94 76.89c0.07 1.98 0.37 4.19-2.44 4.15-2.88-0.05-6.19 0.42-6.57-4.16q2.84-0.31 5.69-0.61 1.71 0 3.42 0-0.14 0.3-0.1 0.62z"/>
			<path class="s8" d="m199.33 105.39c0.06 5.09-3.63 3.5-5.97 3.38-2.43-0.13-6.42 2.16-6.55-3.37q2.29 0.01 4.57-0.01 0.68 0.49 1.36 0.98 1.46 0 2.93 0 0.69-0.5 1.37-0.99 1.16 0.01 2.29 0.01z"/>
			<path class="s8" d="m146.97 76.95c-0.01 1.96-0.61 4.28-2.57 3.8-2.34-0.57-6.12 0.74-6.54-3.8q1.13-0.32 2.27-0.64 2.85 0 5.71 0 0.57 0.31 1.13 0.64z"/>
			<path class="s2" d="m389.08 94.35q-0.86-7.82-0.06-15.64c2.55 5.2 2.46 10.42 0.06 15.64z"/>
			<path class="s2" d="m76.44 155.54c4.9-0.58 9.81-0.52 14.72-0.08-4.9 2.92-9.8 2.79-14.72 0.08z"/>
			<path class="s2" d="m192.55 155.55q6.8-0.87 13.59-0.01c-4.53 2.82-9.07 2.79-13.59 0.01z"/>
			<path class="s9" d="m67.43 125.78q6.19-0.03 12.38-0.05 0.57 0.62 1.14 1.24c-3.69 1.16-7.51 1.19-11.31 1.3-1.67 0.05-2.42-0.71-2.21-2.49z"/>
			<path class="s8" d="m255.12 105.42c0.26 3.48-1.91 3.47-4.25 3.5-2.4 0.05-3.93-0.6-3.72-3.52q3.99 0.02 7.97 0.02z"/>
			<path class="s2" d="m157.21 76.95q-1.71-0.33-3.42-0.64 10.26-3.11 20.52 0-5.13 0.31-10.26 0.61c-2.27-0.5-4.56-0.52-6.84 0.03z"/>
			<path class="s8" d="m167.46 105.4c0.23 2.91-1.29 3.55-3.69 3.52-2.39-0.02-3.28-1.17-3.13-3.53q3.41 0.02 6.82 0.01z"/>
			<path class="s8" d="m96.9 126.56q4.55-4.62 9.08 0.03-4.54-0.01-9.08-0.03z"/>
			<path class="s1" d="m331.38 98.15q2.28 0 4.57 0c-0.24 1.81 0.72 4.51-2.28 4.51-3.01 0-2.05-2.7-2.29-4.51z"/>
			<path class="s2" d="m282.47 155.5q4.52-0.78 9.03 0.02c-3.01 2.78-6.02 2.8-9.03-0.02z"/>
			<path class="s9" d="m374.72 76.79c-1.6 3.63-4.63 1.28-6.96 1.89q-0.51-0.53-1.03-1.06-1.18 0-2.34-0.01-0.11-0.42-0.07-0.86 5.19-0.82 10.4 0.04z"/>
			<path class="s8" d="m289.26 106.59c-3.2 4.07-6.18 1.51-9.19-0.32q4.6 0.15 9.19 0.32z"/>
			<path class="s8" d="m84.37 126.59c2.75-3.67 5.94-2.14 9.1-0.88-1.52 0.33-3.32-0.55-4.52 1.19q-2.29-0.16-4.58-0.31z"/>
			<path class="s8" d="m265.52 106.32c-0.29 1.89-1.28 2.8-3.1 2.4-1.78-0.39-1.5-1.97-1.61-3.3q1.71-0.01 3.43 0 0.65 0.47 1.3 0.95z"/>
			<path class="s2" d="m250.59 155.5q2.82-0.78 5.63 0-2.8 4.08-5.63 0z"/>
			<path class="s2" d="m118.54 155.42q2.25 0.02 4.49 0.04c-1.5 2.58-3.01 2.61-4.49-0.04z"/>
			<path class="s9" d="m88.95 126.89c1.2-1.73 3-0.86 4.52-1.2q0.08 0.48 0.05 0.97c-1.49 0.74-2.92 2.99-4.57 0.23z"/>
			<path class="s8" d="m273.43 106.25q-1.8 2.72-3.61 0.01 1.8-2.35 3.61-0.01z"/>
			<path class="s2" d="m301.82 155.53q1.68-0.01 3.35 0.01-1.69 3.69-3.35-0.01z"/>
			<path class="s2" d="m269.96 155.52q2.2-0.01 4.4 0.01c-1.48 2.39-2.95 2.54-4.4-0.01z"/>
			<path class="s2" d="m226.7 155.52q1.67-0.01 3.35-0.02-1.68 3.77-3.35 0.02z"/>
			<path class="s2" d="m140.17 155.49q1.68 0 3.35 0-1.67 3.81-3.35 0z"/>
			<path class="s2" d="m145.84 76.29q-2.85 0-5.71 0 2.86-2.78 5.71 0z"/>
			<path class="s2" d="m277.92 155.54q1.1-0.01 2.21-0.01c-0.19 0.76-0.43 1.61-1.35 1.32-0.37-0.14-0.58-0.86-0.86-1.31z"/>
			<path class="s2" d="m131.04 76.28q-1.71 0-3.42 0c1.14-1.57 2.28-1.59 3.42 0z"/>
			<path class="s8" d="m206.17 97.52c0.14-0.46-0.02-1.25 0.78-1.04 0.18 0.05 0.24 0.68 0.35 1.03q-0.56 0.01-1.13 0.01z"/>
			<path class="s2" d="m187.99 155.53q0.54-0.01 1.08 0.01-0.17 0.48-0.35 0.96-0.37-0.5-0.73-0.97z"/>
			<path class="s6" d="m104.85 134.52q-0.28 0.71-0.57 1.42-0.28-0.71-0.57-1.42 0.58 0 1.14 0z"/>
			<path class="s7" d="m197.05 105.4q-0.68 0.5-1.37 0.99c0.24-0.67 0.57-1.19 1.37-0.99z"/>
			<path class="s7" d="m265.54 106.37q-0.65-0.48-1.3-0.95c0.77-0.21 1.1 0.27 1.3 0.95z"/>
			<path class="s7" d="m192.75 106.38q-0.68-0.49-1.36-0.98c0.79-0.19 1.12 0.32 1.36 0.98z"/>
			<path class="s5" d="m71.7 134.18q-0.21 0.46-0.41 0.92-0.17-0.47-0.33-0.95 0.38-0.17 0.74 0.03z"/>
			<path class="s9" d="m387.15 96.8q0.61 0.02 1.22 0.03-0.08 1.3-1.25 0.94 0.03-0.48 0.03-0.97z"/>
			<path class="s4" d="m319.64 247.5l0.23 0.41c0.63 2.69 1.79 5.11 3.39 7.3 0.25 1.21 0.49 2.42-0.99 2.99-10.24-0.74-20.48-0.43-30.72-0.04q-3.42 0-6.85-0.01c-38.31-0.56-76.63-0.5-114.95-0.01q-2.29 0-4.57 0.01-5.68 0-11.36 0-1.15 0-2.3 0-6.97 0.02-13.94 0.04-1.99-0.08-3.97-0.15-0.19-0.86-0.39-1.72c5.92-11.34 10.13-23.52 13.63-35.8 4.53-15.95 12.22-23.44 27.78-23.49q52.86-0.19 105.72-0.06c16.55 0.04 20.92 4.08 27.3 20.47 3.91 10.05 6.65 20.65 11.99 30.06z"/>
			<path class="s10" d="m133.61 258.04q1.98 0.07 3.96 0.15c4.66 2.75 9.3 2.98 13.95-0.04q1.14 0 2.3 0 5.68 4.51 11.36 0 2.3-0.01 4.57-0.01c0.9 2.74 3.12 1.81 4.85 1.81q52.63 0.07 105.25 0c1.73 0 3.96 0.92 4.85-1.81q3.43 0 6.85 0.01c0.47 1.7 1.72 1.79 3.1 1.84 7.98 0.28 16.02-0.78 23.95 1.12 1.67 0.4 3.45 0.11 3.71-2.4 4.02 0.95 5.57-2.73 7.99-4.78 1.46 3.98 4.11 5.53 8.11 4.88 1.78-0.29 3.66 0 5.5 0.04-5.36 6.99-3.62 13.16 1.08 19.87 4.28 6.09 4.25 13.93 4.49 21.22 0.37 11.25 0.09 22.53 0.08 33.79-0.53 0.21-1.52 0.47-1.51 0.62 0.75 7.45-5.95 11.22-7.58 17.47l-0.02 0.03c-4.94 4.05-5.96 10.02-6.08 15.94-0.18 9.14-10.02 17.57-17.14 13.83-5.7-2.99-12.27-5-15.11-12.13-0.48-1.2-1.37-1.89-2.62-1.96q0.01-4.99-0.01-9.96c-0.01-1.91 0.39-4.08-2.2-4.64q-0.04-1.13-0.09-2.26c-0.85-4.02-3.93-2.39-6.05-2.39-35.93-0.1-71.88-0.07-107.81-0.07q0.01-1.22 0.02-2.43c38.07 0 76.13 0.01 114.18-0.04 2.19 0 4.58 0.83 6.52-1.08q8.51-0.08 17.02-0.15 1.15 0 2.3 0 2.28 0.01 4.55 0.03 1.13 0 2.26-0.01 2.84-0.02 5.68-0.05c4.7-1.39 7.13-4.91 8-9.79 2.19-12.17 0.67-24.48 1.12-36.71 0.17-4.68-0.76-9.19-2.07-13.58-3.52-11.8-12.09-18.43-23.6-18.43q-65.14 0-130.28-0.01-5.12 0.01-10.25 0.01-9.67 0-19.35 0-1.14 0-2.28 0-9.34 0-18.7 0c-13.69 0.04-23.21 7.34-25.65 21.63-2.59 15.2-1.91 30.76-0.37 46.05 0.99 9.86 3.41 11.02 12.87 10.87q1.7 0.01 3.4 0.02 0.55 0.08 1.1 0.11c-0.19 2.67 1.02 3.81 3.48 3.54-0.1 1.32-0.67 2.37-1.88 2.75-5.53 1.72-10.91 3.68-14.06 9.4-0.8-2.41 1.78-5.98-2.22-7.28q-0.04-0.65-0.1-1.29c-0.03-0.6 0.16-1.46-0.13-1.76-9.88-10.04-6.27-23.37-7.03-35.31-0.55-8.51-1.64-17.16 0.07-25.93 1.19-6.1 2.58-11.84 5.78-17 0.89-1.43 1.37-2.83 1.41-4.48 1.34-0.24 2.93-0.68 2.75-2.33-0.2-1.89-2.01-1.25-3.23-1.36-2.66-0.24-5.97 0.91-6.45-3.65 3.85 0.36 7.57-0.56 11.32-1.24 3.81-0.09 7.6-1.59 11.4-0.03l0.11 0.11c0.33 0.59 0.67 1.68 0.97 1.67 1.46-0.03 1.3-1.44 1.61-2.42z"/>
			<path class="s0" d="m238.95 194.72c-11.16 0-22.32 0.05-33.48-0.05-1.65-0.01-4.59 1.09-4.5-1.85 0.09-2.77 2.99-1.68 4.68-1.69q33.49-0.11 66.97 0c1.69 0 4.68-1.09 4.74 1.58 0.07 3.38-3.17 1.92-4.91 1.94-11.19 0.14-22.35 0.07-33.5 0.07z"/>
			<path class="s11" d="m119.59 258.74c-3.75 0.69-7.47 1.61-11.32 1.25-1.62-1.05-3.66-1.51-4.51-3.63-0.04-0.99 0.02-2.01-0.14-2.98-1.12-6.74-0.21-7.9 6.41-7.95q3.66-0.03 7.32-0.01c2.43 0.12 4.89-0.36 3.71 4.11-0.79 2.9-0.48 6.2-1.47 9.21z"/>
			<path class="s3" d="m119.59 258.74c0.99-3 0.68-6.31 1.46-9.23 1.18-4.46-1.28-3.99-3.72-4.11q0.06-2.35 0.11-4.7c1.7-0.01 3.39-0.07 5.09-0.01 7.79 0.27 10.92 3.89 10.14 11.88-0.14 1.39-0.87 2.69 0.53 3.75q0.19 0.86 0.39 1.72c-0.31 0.98-0.15 2.39-1.54 2.44-0.31 0.02-0.65-1.09-0.98-1.67q0.11-0.29 0.22-0.59-0.16 0.24-0.32 0.49c-3.77-1.55-7.58-0.07-11.38 0.03z"/>
			<path class="s10" d="m117.45 240.7q-0.05 2.35-0.1 4.7-3.66 0-7.32 0.02c-6.61 0.04-7.53 1.21-6.41 7.95 0.16 0.97 0.09 1.99 0.14 2.98-6.08-4.42-6.22-11.3-0.09-15 4.38-2.63 9.08-3.03 13.78-0.65z"/>
			<path class="s8" d="m349.6 151.2c7.39 3.68 12.94-0.42 18.21-5.09 2.03-1.79 1.45-4.48 0.52-6.64-0.7-1.62-1.86-2.99-1.65-4.93q1.67-0.23 3.36-0.45 1.76 0 3.51 0 7.41 0.02 14.81 0.05 0.09 10.36 0.16 20.7-3.55 0.32-7.11 0.64-3.36-0.03-6.72-0.06-1.76-0.01-3.52-0.02c-4.16-0.39-8.33-0.58-12.49 0.07q-0.54-0.01-1.08-0.03c-1.54-0.53-3.08-0.52-4.63-0.04-2.06-1.48-5.75 1.81-6.8-2.63 1.25-0.26 2.58-0.32 3.43-1.57z"/>
			<path class="s0" d="m352.97 155.41c1.55-0.47 3.09-0.49 4.63 0.05q0.38 0.5 0.74 1 0.17-0.49 0.34-0.98c4.16-0.65 8.33-0.46 12.49-0.07q-0.11 0.36-0.2 0.72c-0.85-0.02-1.58 0.23-2.02 1.1-2 0.02-4.01 0.09-6.01 0-2.45-0.1-3.22 1.28-3.08 3.61-4.33 0-8.67 0-13.65 0 1.98-3.88 7.01-0.3 6.76-5.43z"/>
			<path class="s6" d="m349.6 151.2c-0.85 1.23-2.18 1.31-3.43 1.58l-0.02 0.01q-9.66-0.19-19.32-0.39c1.17-3.87 4.85-3.63 6.95-3.12 4.39 1.05 8.42 1.27 12.65-0.29 1.61-0.61 2.98 0.07 3.17 2.21z"/>
			<path class="s11" d="m343.92 258.85c-1.83-0.02-3.71-0.33-5.5-0.04-4.01 0.65-6.66-0.9-8.11-4.88q-0.11-1.8-0.22-3.59 0.67-2.39 1.33-4.77c4.08-0.4 8.16-0.99 12.25-1.15 4.38-0.18 8.19 0.38 8.32 6.8 0.14 6.38-2.99 7.94-8.07 7.63z"/>
			<path class="s2" d="m322.31 258.72c-0.25 2.5-2.04 2.8-3.71 2.4-7.94-1.91-15.97-0.84-23.95-1.12-1.38-0.05-2.64-0.13-3.1-1.84 10.24-0.39 20.48-0.7 30.71 0.04 0.01 0 0.05 0.52 0.05 0.52z"/>
			<path class="s10" d="m331.43 245.57q-0.67 2.38-1.34 4.77c-3.2 0.14-3.89-2.02-2.96-4.5 0.92-2.44 2.75-1.94 4.3-0.27z"/>
			<path class="s1" d="m323.25 255.21c-1.6-2.19-2.76-4.61-3.4-7.3 3.15 1.38 4.76 3.56 3.4 7.3z"/>
			<path class="s0" d="m370.04 134.1q-1.68 0.22-3.36 0.45-3.42 0.01-6.84 0.02-1.7 0-3.43 0c-29.32-0.11-58.66-0.29-87.99-0.31-47.33-0.05-94.65 0.01-141.97 0.01-2.65 0-5.29-0.18-7.93-0.27q0-3.44-0.01-6.89 1.7-0.26 3.4-0.52 4.57 0.01 9.13 0.01 6.81 0.01 13.63 0.01 6.84 0.72 13.68-0.01 2.84 0 5.67 0.01 4 0 7.98 0 7.39 0.01 14.78 0.02 5.13 0 10.26-0.02 34.14 0 68.28-0.01 3.43 0.01 6.86 0.01c24.65 0.42 49.31 0.52 73.97-0.06q3.43 0 6.86-0.01 2.83 0 5.67-0.01 2.85 0.01 5.71 0.01 10.81 0.35 21.61 0.7c-1.27 3.92-4.4 1.56-6.65 2.19-2.06 0.57-5.08-1.42-5.87 2.51-1.59-0.08-3.21-0.19-3.44 2.16z"/>
			<path class="s2" d="m388.52 154.86q-0.09-10.36-0.16-20.7c0.6-0.57 1.72-0.91 1.79-0.05 0.58 6.65 0.96 13.33-0.19 19.97-0.07 0.34-0.94 0.52-1.44 0.78z"/>
			<path class="s2" d="m374.69 155.44q3.36 0.03 6.72 0.06c-2.26 2.71-4.49 2.8-6.72-0.06z"/>
			<path class="s5" d="m370.04 134.1c0.23-2.35 1.86-2.24 3.45-2.18q0.03 1.09 0.07 2.18-1.76 0-3.52 0z"/>
			<path class="s2" d="m368.95 157.25c0.43-0.88 1.15-1.13 2.02-1.1-0.34 1.05-1.2 1.04-2.02 1.1z"/>
			<path class="s9" d="m387.14 126.84q0.66-0.5 1.32-1-0.14 1.26-1.32 1z"/>
			<path class="s3" d="m183.37 348.23c35.94 0 71.88-0.02 107.82 0.07 2.1 0 5.19-1.63 6.04 2.4q-66.92-0.05-133.83-0.04c-1.92 0-4.38-0.91-5.06 2.31-1.52 0.3-2.27 1.23-2.26 2.9 0.03 2.2-0.05 4.4-0.01 6.61 0.15 6.37 0.69 12.54-5.32 17.11-7.2 5.49-15.08 5.62-23.11 4.51-4.18-0.58-10.09-10.58-10.25-15.95-0.08-2.6-0.01-5.2 0-7.8 3.16-5.72 8.53-7.68 14.07-9.4 1.21-0.37 1.78-1.43 1.88-2.74q1.11 0 2.22 0c0.07 1.58 0.83 2.4 2.35 2.41 5.54 0.25 11.35 2.59 16.54-0.29 4.89-2.7 9.82-1.95 14.8-2.1 4.71-0.12 9.42-0.01 14.12 0z"/>
			<path class="s1" d="m299.52 367.56c1.27 0.07 2.14 0.75 2.62 1.95 2.84 7.14 9.4 9.13 15.12 12.13 7.12 3.74 16.97-4.69 17.14-13.83 0.11-5.91 1.14-11.89 6.07-15.94 0 6.41 0.06 12.82-0.01 19.23-0.1 9.38-3.88 13.39-12.43 13.4q-7.93 0-15.84 0c-8.99-0.01-12.62-3.84-12.67-13.32q-0.01-1.82 0-3.62z"/>
			<path class="s8" d="m346.18 126.54c-24.66 0.57-49.32 0.47-73.98 0.06 0.59-2.53 2.53-1.98 4.16-1.98q32.8-0.04 65.61 0c1.62 0 3.57-0.58 4.21 1.92z"/>
			<path class="s8" d="m265.35 126.59q-34.14 0.01-68.28 0.01c0.6-2.51 2.53-1.98 4.14-1.98q29.99-0.04 59.99 0c1.61 0 3.55-0.55 4.15 1.97z"/>
			<path class="s8" d="m186.8 126.6q-7.39 0-14.77-0.01c3.47-2.85 11.33-2.85 14.77 0.01z"/>
			<path class="s8" d="m144.69 126.6q-6.81 0-13.63-0.01c3.45-2.85 10.19-2.85 13.63 0.01z"/>
			<path class="s8" d="m121.92 126.58q-1.7 0.26-3.4 0.52-5.17-0.27-10.34-0.53c3.59-2.82 10.28-2.82 13.74 0.01z"/>
			<path class="s9" d="m365.79 114.34c0.16-1.16 0.84-1.68 1.89-1.67 1.22 0 2.26 0.35 2.07 1.96-0.15 1.23-1.12 1.4-2.08 1.39-1.05-0.02-1.73-0.53-1.88-1.68z"/>
			<path class="s8" d="m358.69 126.53q-2.83 0-5.67 0.01 2.84-4.34 5.67-0.01z"/>
			<path class="s8" d="m164.04 126.59q-2.83 0-5.67-0.01 2.84-4.47 5.67 0.01z"/>
			<path class="s6" d="m108.27 134.55q3.98 0 7.96 0-3.97 5.17-7.96 0z"/>
			<path class="s6" d="m356.43 134.56q1.7 0 3.42 0c-0.26 1.58 0.72 4.21-1.71 4.19-2.43 0.02-1.45-2.61-1.71-4.19z"/>
			<path class="s8" d="m157.21 76.95c2.28-0.55 4.57-0.53 6.85-0.03-0.23 1.45 0.52 3.92-1.57 3.81-2.1-0.12-5.21 0.09-5.28-3.78z"/>
			<path class="s2" d="m284.71 258.14c-0.9 2.73-3.13 1.8-4.86 1.81q-52.62 0.07-105.25 0c-1.73 0-3.95 0.93-4.85-1.81 38.32-0.5 76.64-0.55 114.96 0z"/>
			<path class="s2" d="m151.52 258.15c-4.64 3.02-9.29 2.79-13.95 0.04q6.98-0.02 13.95-0.04z"/>
			<path class="s2" d="m165.18 258.15q-5.67 4.52-11.36 0 5.68 0 11.36 0z"/>
			<path class="s12" d="m178.85 266q5.13-0.01 10.25-0.01c0.37 3 2.56 2.44 4.38 2.44q25.46 0.03 50.92 0.02 25.32-0.01 50.65 0c4.7 0 8.95 2.83 10.74 6.44 2.31 4.64-3.91 3.94-5.77 6.26-0.12 0.16-0.23 0.33-0.39 0.44-11.26 8.01-12.97 19.92-11.39 32.82 1.31 10.79 5.69 14.4 15.91 14.5 3.39 0.03 6.75-0.21 10.18 0.5 6.81 1.41 13.32-2.08 12.52-10.06 4.37-7.68 5.85-15.66 2.15-24.15 0.89-4.38-2.75-7.33-3.14-11.27-0.2-1.92-0.78-3.98 0.93-5.63 1.99-1.93 4.11-0.83 5.82 0.09 4.94 2.64 7.82 7.94 7.62 13-0.72 17.74 4.49 36.12-4.32 53.12q-2.83 0.02-5.67 0.04-1.14-1.78-2.27 0.02-2.27-0.02-4.54-0.04c-0.17-0.87-0.19-2.03-1.39-1.75-0.41 0.09-0.61 1.13-0.91 1.74q-8.51 0.08-17.04 0.16c-1.63-2.07-3.87-1.25-5.85-1.26q-59.61-0.08-119.21 0c-1.99 0-4.21-0.8-5.89 1.17q-9.09 0-18.18-0.01-1.73-2.31-3.43 0-9.1-0.03-18.2-0.06c-1.53-1.6-3.05-1.63-4.56 0.03q-1.7-0.01-3.41-0.02c0.19-2.53-0.87-3.64-3.3-3.63-2.37 0.01-4.11-1.47-4.46-3.83-0.95-6.2-3.11-12.13-2.62-18.7 0.54-7.34 0.95-14.61 2.04-21.96 1.84-12.6 9.59-19.88 18.11-26.54 4.72-3.69 11.04-0.73 16.6-1.47 2.01-0.26 4.81 1.29 5.5-2.43q1.14 0 2.28 0c0.2 1.29 0.68 2.35 2.07 2.36q7.61 0.06 15.21 0c1.37 0.01 1.86-1.06 2.06-2.33zm-51.29 36.28q0 1.83 0 3.66c-1.34 3.11-2.75 6.23 1.28 8.43q0.06 0.51 0.04 1.02c2.25 8.07 4.2 13.64 12.68 13.61 1.23 0 2.51 0.81 3.69 1.39 7.51 3.63 12.8 2.85 18.13-4.08 2.76-3.58 7.62-6.86 7.04-11.77-0.71-6.04-0.4-11.98-0.62-17.97-0.09-2.38-0.92-4.03-2.42-5.78-7.89-9.16-17.7-12-28.93-10.21-2.93 0.47-6.15 1.33-7.24 4.6-1.03 3.06-2.46 5.79-3.86 8.62-1.35 2.71-1.6 5.71 0.21 8.48zm100.36 15.72c-13.09 0-26.18 0.07-39.25-0.05-3.41-0.02-6.31 0.4-6.27 4.82 0.05 4.3 3.31 3.65 5.87 3.65q39.53 0.02 79.08 0.01c2.91 0 6.01 0.29 5.94-4.31-0.08-4.62-3.28-4.12-6.11-4.12q-19.63 0.01-39.26 0zm40.38-12.05c2.43 0.95 4.64 0.57 4.97-2.61 0.34-3.36-1.32-4.7-4.37-4.7q-41.43 0.02-82.86 0c-2.09 0-3.8 0.29-3.75 3.17 0.05 2.73 1.31 4.06 3.83 4.09q3.12 0.05 6.24 0.04 37.98 0.02 75.94 0.01z"/>
			<path class="s11" d="m326.86 319.35c0.81 7.98-5.71 11.47-12.52 10.06-3.43-0.7-6.79-0.47-10.18-0.5-10.22-0.1-14.6-3.7-15.91-14.5-1.57-12.9 0.13-24.81 11.39-32.82 0.15-0.11 0.27-0.28 0.4-0.44 1.85-2.33 8.07-1.62 5.76-6.26-1.79-3.61-6.04-6.44-10.74-6.44-16.88-0.02-33.77 0-50.65 0-16.97 0-33.95 0.01-50.92-0.02-1.82 0-4.01 0.55-4.38-2.44q65.14-0.01 130.28 0.01c11.51 0 20.08 6.62 23.6 18.43 1.31 4.4 2.24 8.91 2.07 13.58-0.46 12.24 1.07 24.53-1.12 36.7-0.87 4.89-3.3 8.4-8 9.8 8.8-17 3.6-35.38 4.31-53.12 0.21-5.06-2.67-10.36-7.62-13-1.71-0.92-3.82-2.02-5.82-0.09-1.69 1.65-1.13 3.71-0.93 5.63 0.4 3.94 4.03 6.89 3.14 11.27-5.21-7.56-11.65-12.08-21.05-11.1-8.48 0.88-16.68 8.7-17.51 17.6-1.06 11.28 4.53 20.78 13.47 23.58 8.8 2.74 16.22 0.18 22.93-5.93z"/>
			<path class="s11" d="m157.22 265.99c-0.68 3.71-3.48 2.16-5.5 2.43-5.56 0.72-11.88-2.23-16.6 1.46-8.52 6.65-16.27 13.94-18.12 26.54-1.08 7.36-1.49 14.61-2.03 21.96-0.49 6.57 1.67 12.5 2.62 18.7 0.36 2.36 2.09 3.85 4.46 3.83 2.43-0.01 3.49 1.1 3.3 3.63-9.45 0.16-11.88-1-12.87-10.87-1.52-15.29-2.22-30.85 0.38-46.05 2.44-14.28 11.96-21.6 25.65-21.62q9.35-0.03 18.71-0.01z"/>
			<path class="s11" d="m173.15 344.59c1.68-1.96 3.9-1.17 5.88-1.17q59.61-0.08 119.21 0c1.98 0 4.21-0.81 5.85 1.26-1.94 1.91-4.33 1.07-6.51 1.07-38.07 0.05-76.13 0.04-114.18 0.04-3.4-0.57-7.04 1.16-10.25-1.2z"/>
			<path class="s13" d="m173.14 344.59c3.22 2.36 6.86 0.63 10.26 1.2q-0.02 1.21-0.03 2.43c-4.7 0-9.41-0.11-14.11 0.02-4.98 0.14-9.91-0.6-14.79 2.11-5.2 2.88-11.01 0.53-16.55 0.29-0.08-1.57-0.85-2.4-2.35-2.42q-1.11 0-2.22 0c-2.46 0.27-3.67-0.87-3.49-3.54q1.74-0.08 3.47-0.14 9.1 0.03 18.2 0.06 1.71 0 3.43 0 9.09-0.01 18.18-0.01z"/>
			<path class="s11" d="m178.85 266c-0.19 1.28-0.69 2.34-2.07 2.36q-7.61 0.05-15.21 0c-1.39-0.02-1.88-1.08-2.07-2.36q9.67-0.01 19.35 0z"/>
			<path class="s11" d="m133.31 344.53q-1.73 0.08-3.46 0.13-0.54-0.03-1.09-0.1c1.51-1.66 3.03-1.63 4.55-0.03z"/>
			<path class="s11" d="m321.13 344.52c0.3-0.61 0.5-1.65 0.91-1.74 1.19-0.28 1.22 0.88 1.39 1.75q-1.16-0.01-2.3-0.01z"/>
			<path class="s11" d="m327.97 344.55q1.13-1.79 2.27-0.01-1.13 0.02-2.27 0.01z"/>
			<path class="s1" d="m131 258.71q0.16-0.25 0.32-0.49-0.11 0.3-0.22 0.6z"/>
			<path class="s2" d="m358.68 155.48q-0.17 0.49-0.34 0.98-0.38-0.5-0.74-1 0.53 0.02 1.08 0.02z"/>
			<path class="s10" d="m135.57 348.22c1.5 0.02 2.27 0.84 2.35 2.42-1.52-0.02-2.28-0.84-2.35-2.42z"/>
			<path class="s13" d="m227.92 318q19.63-0.01 39.25 0.01c2.83 0 6.04-0.5 6.11 4.12 0.08 4.6-3.03 4.31-5.94 4.31q-39.53 0.01-79.08-0.01c-2.58 0-5.83 0.65-5.87-3.64-0.04-4.43 2.86-4.86 6.27-4.83 13.1 0.1 26.18 0.04 39.26 0.04z"/>
			<path class="s0" d="m326.86 319.35c-6.7 6.11-14.13 8.67-22.94 5.92-8.94-2.8-14.53-12.3-13.47-23.59 0.83-8.88 9.03-16.71 17.51-17.59 9.4-0.98 15.85 3.54 21.05 11.1 3.69 8.51 2.21 16.48-2.15 24.16zm-5.21-5.11c4.79-2.39 6.06-6.85 4.91-11.64-1.52-6.37-5.09-11.55-11.16-13.98-3.43-1.37-7-1.94-9.04 2.65-0.96 0.56-1.96 1.05-2.87 1.68-5.07 3.56-7.27 8.81-6.03 14.89 0.91 4.47 3.98 9.23 8.08 9.65 5.32 0.57 11.9 3.78 16.11-3.25z"/>
			<path class="s13" d="m268.31 305.95q-37.99 0-75.95 0-3.12 0-6.24-0.03c-2.53-0.04-3.78-1.37-3.83-4.1-0.04-2.88 1.66-3.17 3.75-3.17q41.43 0.03 82.86 0c3.05 0 4.71 1.34 4.37 4.7-0.32 3.17-2.53 3.55-4.96 2.6z"/>
			<path class="s0" d="m128.87 315.39q0.02-0.51-0.04-1.02-0.64-4.21-1.28-8.43 0-1.83 0.01-3.66c0.49-3.84 1.43-7.49 3.77-10.56 6.11-7.99 17.8-9.99 26.14-4.46 9.5 6.29 12.74 17.48 7.99 27.62-4.16 8.88-15.65 13.45-24.87 10.47-5.34-1.73-8.13-6.23-11.72-9.96zm4.73-5.94c1.48 4.78 4.45 8.06 8.81 9.98 0.24 0.54 0.35 1.39 0.73 1.57 6.37 2.88 19.15-5.59 19.79-12.93 0.98-11.24-5.83-17.73-14.59-20.12-6.54-1.79-14.64 5.29-14.87 12.32-0.43 3.07-1.73 6.14 0.13 9.18z"/>
			<path class="s11" d="m128.87 315.39c3.58 3.73 6.38 8.24 11.72 9.96 9.22 2.98 20.71-1.6 24.87-10.47 4.75-10.14 1.51-21.33-7.99-27.62-8.34-5.52-20.03-3.53-26.14 4.46-2.34 3.07-3.28 6.72-3.77 10.56-1.81-2.77-1.56-5.77-0.23-8.47 1.41-2.83 2.84-5.56 3.87-8.62 1.09-3.25 4.31-4.12 7.24-4.6 11.23-1.78 21.04 1.04 28.93 10.21 1.51 1.75 2.32 3.4 2.41 5.78 0.23 5.98-0.07 11.93 0.63 17.97 0.58 4.91-4.28 8.18-7.04 11.77-5.33 6.93-10.61 7.71-18.13 4.09-1.2-0.58-2.46-1.39-3.69-1.39-8.49 0-10.43-5.57-12.68-13.63z"/>
			<path class="s11" d="m127.56 305.94q0.64 4.21 1.28 8.43c-4.03-2.2-2.63-5.32-1.28-8.43z"/>
			<path class="s11" d="m154.96 344.59q-1.72 0-3.43 0 1.7-2.3 3.43 0z"/>
			<path class="s14" d="m321.65 314.24c-4.22 7.03-10.79 3.81-16.1 3.25-4.11-0.44-7.17-5.19-8.08-9.65-1.24-6.1 0.96-11.33 6.03-14.89 0.91-0.64 1.9-1.12 2.87-1.68 16.35 1.15 21.76 9.27 15.28 22.97z"/>
			<path class="s2" d="m321.65 314.24c6.47-13.7 1.07-21.82-15.29-22.98 2.04-4.59 5.61-4.03 9.04-2.65 6.07 2.43 9.62 7.62 11.16 13.98 1.15 4.81-0.12 9.27-4.91 11.65z"/>
			<path class="s2" d="m133.47 300.27c0.23-7.03 8.32-14.11 14.87-12.32 8.77 2.39 15.57 8.88 14.59 20.12-0.64 7.34-13.42 15.81-19.79 12.93-0.38-0.17-0.49-1.03-0.73-1.57 3.33-0.27 6.65-0.53 9.62-2.36 5.91-3.35 8.39-7.9 7.56-13.8-0.76-5.41-5.3-10.37-11.07-11.28-5.49-0.87-10.42 0.41-13.22 6.3q-0.43 0.67-0.86 1.35-0.46 0.31-0.97 0.63z"/>
			<path class="s6" d="m152.03 317.07c-2.97 1.85-6.3 2.1-9.62 2.36-4.36-1.92-7.33-5.2-8.81-9.98 1.75-3.12 0.53-6.54 0.87-9.82q0.42-0.68 0.85-1.36 0.13 3.6 0.22 7.19c0.14 7.24 3.99 11.28 10.86 11.4q2.81 0.09 5.63 0.21z"/>
			<path class="s14" d="m134.45 299.64c-0.33 3.27 0.89 6.69-0.86 9.82-1.86-3.03-0.56-6.12-0.13-9.18q0.52-0.34 0.99-0.64z"/>
			<path class="s14" d="m152.03 317.07c-1.88-0.06-3.76-0.16-5.65-0.2-6.87-0.12-10.72-4.16-10.87-11.4-0.04-2.4-0.14-4.79-0.21-7.18 2.8-5.89 7.73-7.17 13.22-6.3 5.77 0.91 10.31 5.87 11.07 11.28 0.84 5.9-1.65 10.45-7.56 13.8z"/>
		</g>
	</g>
</svg>