<svg width="457" height="490" viewBox="0 0 457 490" fill="none" xmlns="http://www.w3.org/2000/svg">
<g clip-path="url(#clip0_5_528)">
<path d="M228.348 0.125429C303.002 0.125429 377.656 0.175556 452.31 0.000108844C456.304 -0.0124231 457.011 1.05279 457 5.48911C456.88 165.134 456.88 324.779 456.978 484.423C456.978 488.609 456.587 490.013 452.376 490.013C303.067 489.837 153.759 489.85 4.45031 489.988C0.674619 489.988 0.0217619 489.048 0.0326429 484.824C0.152333 324.967 0.174095 165.109 0 5.26354C0 0.213152 1.45805 0.0502367 4.92907 0.0627687C79.3983 0.150492 153.868 0.125429 228.348 0.125429ZM121.268 107.474C120.604 108.79 120.507 110.156 120.92 111.597C120.768 111.973 120.735 112.362 120.833 112.763C119.451 113.201 118.091 113.74 116.687 114.041C104.229 116.773 92.1508 120.708 81.3895 128.804C78.1035 131.285 75.2635 133.917 79.6377 138.378C80.8346 139.594 80.9216 141.649 80.3341 143.053C79.4201 145.246 77.8315 143.591 76.591 143.165C74.1754 142.338 71.836 141.235 69.4205 140.446C67.5054 139.819 65.351 139.155 64.3064 142.037C63.3815 144.606 63.9691 146.937 65.8298 148.767C67.6904 150.597 70.008 151.173 72.3257 151.574C75.405 152.113 78.3102 153.028 80.7258 155.422C81.4439 167.101 79.5724 178.881 81.8465 190.486C82.1294 193.419 83.2284 195.9 85.002 198.005C85.7963 201.99 83.0761 200.624 81.6833 200.675C73.9034 200.925 66.1235 201.038 58.3437 201.076C55.2535 201.088 53.6757 202.366 53.8063 206.226C54.0022 212.054 54.0022 217.893 53.9478 223.733C53.9151 227.393 55.2535 229.034 58.4742 228.997C72.4019 228.834 86.3186 228.784 100.246 228.683C114 229.298 127.764 229.21 141.529 228.721C142.965 228.821 144.401 229.022 145.837 229.022C198.523 229.047 251.198 229.072 303.883 229.059C327.778 229.059 351.672 228.972 375.578 228.922C378.037 228.922 381.127 229.511 381.454 225.525C382.085 218.019 383.303 210.399 380.703 203.005C380.812 202.103 380.572 201.527 379.68 201.552C374.544 200.123 369.343 201.339 364.185 201.038C362.205 200.925 360.116 201.301 359.746 198.093C359.855 197.228 359.964 196.351 360.072 195.486C360.627 192.566 361.607 189.671 361.672 186.739C362.183 163.417 362.053 140.095 361.324 116.773C361.182 112.224 358.56 108.326 359.626 103.401C360.921 97.4612 358.266 93.263 353.022 93.1628C336.385 92.862 319.748 92.9748 303.111 93.0625C299.944 93.075 296.702 94.9172 297.278 98.7771C297.997 103.665 296.397 107.838 296.103 112.312C295.538 120.796 295.962 129.355 295.984 137.889C295.831 139.544 295.69 141.21 295.538 142.865C291.686 145.759 289.009 151.148 283.438 150.384C283.286 147.877 283.144 145.371 282.992 142.865C282.981 142.05 282.97 141.223 282.959 140.408C282.992 129.155 283.83 117.813 279.836 107.036C279.455 106.008 279.662 104.529 279.934 103.364C281.436 96.9098 279.586 93.3006 273.689 93.1878C257.759 92.8495 241.807 92.8996 225.878 92.9873C222.668 92.9998 218.544 94.8295 218.903 98.3886C219.632 105.657 215.943 112.061 216.955 119.129C216.944 119.53 216.923 119.919 216.912 120.32C216.901 121.172 216.89 122.036 216.868 122.889C216.836 130.383 216.792 137.877 216.759 145.371C216.759 147.063 216.759 148.755 216.759 150.434C216.716 156.424 216.455 162.427 216.672 168.405C217.042 178.618 215.225 189.032 218.49 199.02C218.315 199.547 218.141 200.073 217.967 200.599C208.425 200.875 198.882 201.163 189.339 201.439C187.511 200.888 185.694 200.875 183.866 201.414C182.68 200.825 181.494 200.75 180.308 201.401C180.112 200.687 179.906 199.985 179.71 199.271C180.667 198.745 180.874 197.842 180.678 196.727L180.689 196.652C183.018 194.584 183.703 191.589 184.204 188.481C185.89 177.929 184.954 167.277 185.074 156.675C185.205 156.036 185.335 155.384 185.466 154.745C189.231 151.386 193.909 151.675 198.229 150.484C201.298 149.632 202.843 147.063 202.299 143.566C201.722 139.844 199.263 140.258 196.793 141.022C194.541 141.712 192.158 141.9 189.992 142.802C184.911 144.907 184.889 142.276 186.347 137.99C190.515 134.468 187.446 132.563 185.085 130.508C184.41 130.019 183.736 129.531 183.072 129.042C182.506 128.415 181.951 127.789 181.385 127.149L181.19 127.024C173.432 121.285 164.716 118.49 155.848 116.159C153.411 115.52 151.006 114.693 148.536 114.279C146.784 113.991 145.957 113.866 145.837 111.171C145.554 104.855 142.073 101.045 136.882 99.4664C131.17 97.7369 125.566 100.08 122.193 105.319C121.932 105.883 121.682 106.434 121.421 106.998L121.268 107.474ZM150.386 259.262C148.068 257.281 145.674 255.627 142.606 256.893C141.148 256.943 139.701 256.993 138.242 257.031C137.176 256.605 136.099 256.191 135 256.918C129.092 257.72 125.338 261.229 124.26 268.159C124.184 270.189 124.119 272.207 124.043 274.237C110.104 276.994 96.4052 280.716 83.5984 287.91C79.0284 290.479 74.948 293.687 72.8806 299.401C72.2604 301.106 71.379 302.672 73.207 304.201C75.4376 306.056 76.1449 309.214 74.6107 311.257C73.1635 313.187 70.6283 311.47 68.7132 310.329C68.2345 310.041 67.7775 309.703 67.2878 309.427C62.6634 306.795 57.2773 308.011 55.21 312.146C52.74 317.059 54.3721 323.35 59.0292 326.621C62.3043 328.927 65.895 330.481 69.6163 331.283C74.1863 332.273 75.3071 334.967 75.492 340.268C76.0579 356.886 71.8252 374.393 81.4657 389.569C74.2299 389.544 66.994 389.744 59.7691 389.406C54.9053 389.18 53.3058 391.587 53.5778 396.837C53.8063 401.199 53.5887 405.585 53.6213 409.958C53.6866 417.252 54.4592 418.067 60.9116 418.042C86.0466 417.979 111.171 417.979 136.306 417.879C163.051 417.778 189.807 417.578 216.553 417.427C217.249 417.427 217.956 417.427 218.653 417.427C221.591 417.427 224.528 417.427 227.477 417.427C229.61 417.954 231.743 417.954 233.875 417.427C234.593 417.515 235.311 417.691 236.019 417.691C281.283 417.703 326.537 417.691 371.802 417.678C373.793 417.678 375.785 417.49 377.776 417.415C380.681 417.302 381.965 415.635 381.889 412.239C381.758 406.612 381.834 400.986 381.736 395.346C381.704 393.579 382.063 391.399 379.68 391.06C379.408 390.847 379.103 390.772 378.788 390.835C378.57 390.133 378.352 389.456 377.504 389.682C370.616 389.682 363.728 389.682 356.841 389.682C343.055 389.682 329.279 389.682 313.883 389.682C320.118 382.075 320.216 374.794 318.845 367.149C317.974 362.262 317.702 357.174 316.396 352.449C314.993 347.386 316.668 346.008 320.596 345.068C326.222 343.714 331.728 341.672 337.277 339.917L337.266 339.955C349.159 336.584 361.084 333.388 372.923 329.754C378.309 328.1 380.137 323.425 378.603 317.122C377.101 310.943 373.097 307.71 367.972 309.64C349.605 316.533 330.629 320.831 312.109 327.047C312.338 315.518 312.338 315.53 301.838 315.53C284.45 315.53 267.051 315.48 249.663 315.568C247.825 315.58 245.648 314.44 244.125 316.733C242.047 317.422 242.395 319.29 242.993 320.731C245.006 325.505 244.626 330.405 243.907 335.356C243.037 341.283 242.123 347.198 241.231 353.113C239.239 365.031 235.518 376.899 240.904 389.043C238.206 389.243 236.084 389.393 233.951 389.556C222.711 389.581 211.471 389.607 200.231 389.632C199.328 388.892 199.296 388.04 200.025 387.125C204.605 381.36 205.019 374.368 204.442 367.087C204.453 363.741 204.453 360.395 204.464 357.048C204.497 355.382 204.518 353.727 204.551 352.061C206.031 350.795 206.031 349.542 204.551 348.276C204.551 346.196 204.551 344.115 204.551 342.048C209.513 340.456 213.169 337.499 213.31 330.894C216.357 329.127 219.752 328.263 222.592 325.894C226.813 322.372 226.041 317.31 224.953 312.974C224.039 309.314 220.829 308.086 217.173 307.973C212.636 307.823 209.154 311.094 204.954 311.758C204.42 310.993 203.898 310.229 203.365 309.465C202.658 305.843 206.194 304.928 206.858 302.184C208.033 301.156 208.022 300.078 206.967 298.963C205.073 293.699 201.298 290.466 197.141 288.135C185.161 281.418 172.768 276.092 159.21 275.641C157.589 275.591 156.468 275.039 155.739 273.41C158.416 267.119 156.555 262.219 150.32 259.174L150.386 259.262Z" fill="#FDFDFD"/>
<path d="M233.951 389.581C236.084 389.431 238.206 389.268 240.904 389.068C235.529 376.912 239.24 365.056 241.231 353.138C242.885 354.204 242.493 355.695 242.069 357.399C241.416 360.044 241.046 362.763 242.526 365.47C245.812 362.011 243.646 356.046 247.705 353.539C246.813 361.56 244.386 369.305 244.647 377.526C244.919 385.772 246.889 388.241 254.005 388.541C261.056 388.842 268.107 388.955 275.158 389.155C276.083 393.241 278.019 395.258 282.013 394.682C285.179 394.218 288.443 394.594 291.664 394.594C297.268 394.594 302.871 394.594 308.714 394.594C307.866 391.148 304.667 391.587 304.71 388.679C306.419 387.977 307.811 386.875 309.128 385.333C315.004 378.415 312.653 369.981 311.718 362.425C310.543 352.951 307.605 343.765 305.428 334.466C305.385 331.584 305.352 328.689 305.309 325.806C305.505 325.393 305.69 324.979 305.885 324.578C307.398 326.27 306.604 328.463 306.854 330.431C307.518 335.895 310.619 341.521 314.144 342.236C318.083 343.038 323.262 343.627 327.506 340.82C330.77 340.581 333.937 338.764 337.31 339.955C331.749 341.709 326.255 343.752 320.629 345.105C316.701 346.045 315.025 347.411 316.429 352.487C317.735 357.199 318.007 362.287 318.877 367.187C320.248 374.831 320.15 382.112 313.916 389.719C329.312 389.719 343.087 389.719 356.874 389.719C356.471 393.366 357.679 394.97 361.052 394.782C363.261 394.657 365.709 393.805 367.744 395.785C364.686 395.86 361.629 395.985 358.582 396.01C341.695 396.186 324.797 396.336 307.909 396.499C295.984 396.574 284.047 396.637 272.122 396.712C268.498 395.772 264.864 395.86 261.241 396.675C260.479 396.675 259.718 396.662 258.945 396.662C257.15 396.487 255.365 396.148 253.57 396.148C191.418 396.098 129.277 396.073 67.1247 396.06C65.3402 396.06 63.4796 395.634 61.8148 396.812C61.4775 397.239 61.1293 397.677 60.792 398.103C58.2458 410.034 58.866 410.974 69.1159 410.974C169.264 410.961 269.423 410.961 369.572 410.923C371.672 410.923 373.957 411.725 375.785 409.708C377.613 406.913 374.435 401.725 379.484 400.021C380.246 399.77 379.669 394.206 379.713 391.098C382.107 391.436 381.747 393.629 381.769 395.384C381.867 401.011 381.791 406.65 381.922 412.277C381.998 415.673 380.714 417.327 377.809 417.453C375.817 417.528 373.826 417.716 371.835 417.716C326.57 417.741 281.316 417.741 236.051 417.728C235.333 417.728 234.615 417.553 233.908 417.465C234.637 415.059 237.281 416.976 238.402 414.758C232.308 414.758 226.433 414.758 220.557 414.758C218.783 414.758 216.825 414.445 216.596 417.465C189.851 417.615 163.095 417.816 136.349 417.916C111.214 418.017 86.0902 418.016 60.9552 418.079C54.5028 418.092 53.7302 417.277 53.6649 409.996C53.6323 405.622 53.8499 401.236 53.6214 396.875C53.3494 391.624 54.9489 389.218 59.8127 389.444C67.0376 389.782 74.2735 389.581 81.5093 389.607C82.3036 389.632 83.1088 389.669 83.9031 389.694C84.2513 393.053 86.5363 391.975 88.2446 392.188C119.778 392.188 151.322 392.201 182.855 392.201C183.257 395.283 185.346 394.669 187.055 394.669C201.298 394.694 215.541 394.582 229.784 394.757C233.212 394.77 234.343 393.216 233.951 389.581ZM203.561 415.034C203.561 415.222 203.561 415.422 203.55 415.61C206.423 415.61 209.284 415.61 212.157 415.61C212.157 415.422 212.157 415.222 212.168 415.034C209.295 415.034 206.423 415.034 203.561 415.034ZM198.218 415.209C196.956 414.52 195.835 414.357 194.649 415.41C195.901 416.112 197.032 416.3 198.218 415.209ZM180.972 415.184C180.82 415.122 180.667 415.021 180.515 415.021C180.461 415.021 180.417 415.297 180.374 415.447C180.526 415.51 180.678 415.61 180.831 415.61C180.885 415.61 180.929 415.335 180.972 415.184Z" fill="#21162C"/>
<path d="M359.702 198.093C360.072 201.314 362.162 200.925 364.142 201.038C369.299 201.339 374.501 200.136 379.636 201.552C379.974 202.04 380.322 202.517 380.659 203.005C383.26 210.399 382.041 218.019 381.41 225.525C381.073 229.511 377.993 228.909 375.534 228.922C351.64 228.972 327.745 229.059 303.84 229.059C251.154 229.072 198.479 229.047 145.794 229.022C144.358 229.022 142.921 228.821 141.485 228.721C141.79 226.54 138.33 227.393 139.167 224.31C150.864 224.31 162.605 224.31 174.345 224.31C239 224.31 303.655 224.335 368.309 224.235C370.344 224.235 373.228 225.939 374.25 221.941C376.688 217.355 375.904 212.793 374.163 208.231C374.076 207.404 373.826 207.016 373.173 207.755C369.898 207.743 366.612 207.743 363.337 207.73C360.138 206.176 356.906 206.364 353.674 207.555C336.243 207.542 318.801 207.542 301.37 207.542C301.011 207.254 300.652 206.966 300.292 206.677C300.249 203.92 297.072 203.707 296.865 201.088C298.029 198.607 297.366 196.376 296.114 194.246H296.582L297.05 194.258C298.399 195.461 298.867 197.191 299.215 199.008C299.955 202.855 301.653 202.366 303.676 200.261C304.732 200.524 305.787 200.787 306.854 201.05C312.131 205.399 318.061 202.028 323.643 202.893C324.611 203.043 325.09 201.903 325.319 200.85C333.251 200.775 341.194 200.612 349.126 200.687C351.607 200.712 353.402 200.349 353.424 196.94C355.448 197.667 353.881 201.577 356.754 201.715C359.137 201.84 358.712 199.283 359.702 198.093Z" fill="#26213E"/>
<path d="M182.833 392.175C151.3 392.175 119.756 392.163 88.2228 392.163C87.8637 388.804 85.5896 389.895 83.8813 389.669C76.8848 377.939 78.517 364.567 78.4408 351.534C78.4191 347.587 78.5061 343.626 78.4191 339.679C78.2994 334.779 75.8403 330.844 72.1407 329.979C69.0941 329.277 66.45 327.673 63.5448 326.771C58.7354 325.28 55.7105 319.653 56.9074 315.718C58.1261 311.708 63.0225 310.692 68.2345 313.387C68.5609 313.55 68.8329 313.938 69.1594 314.013C71.9775 314.64 75.0786 315.693 77.4398 313.312C79.8009 310.931 77.2222 308.537 76.7216 306.068C76.1123 303.035 74.8501 299.176 77.8641 296.932C81.0087 294.589 83.6419 296.569 85.7093 299.602C86.9171 301.381 88.4948 302.045 90.4425 302.02C96.0462 301.945 101.661 302.271 107.243 301.87C110.561 301.632 114.239 301.118 115.436 296.293C116.165 296.268 116.905 296.243 117.634 296.231C121.932 297.985 126.393 296.506 130.746 297.145C131.409 298.361 132.062 298.361 132.726 297.145C135.631 296.581 138.667 297.885 141.485 296.256C142.225 296.281 142.954 296.306 143.694 296.331C144.053 296.845 144.423 297.358 144.782 297.86C145.141 297.346 145.511 296.832 145.87 296.318C148.035 296.306 150.212 296.293 152.377 296.293C154.063 298.85 156.457 300.191 159.058 300.679C170.124 302.785 181.309 301.857 192.441 301.958C195.313 301.983 197.881 298.687 200.688 300.09C204.236 301.857 200.982 306.883 203.365 309.502C203.898 310.266 204.42 311.031 204.954 311.795C204.344 312.146 203.452 312.322 203.18 312.886C202.745 313.775 203.452 314.377 204.214 314.402C206.118 314.452 208.131 315.154 209.817 313.487C211.656 311.67 213.517 311.256 215.465 313.262C214.159 316.244 211.569 316.984 209.154 317.447C205.411 318.174 203.898 320.342 204.497 324.59C201.319 324.077 200.297 325.593 200.09 329.328C199.894 332.749 202.331 337.147 198.12 339.604C198.088 330.042 197.892 320.48 198.11 310.918C198.218 306.018 196.684 304.351 192.441 304.426C178.731 304.652 165.01 304.514 151.289 304.514C138.972 304.502 126.654 304.502 114.326 304.489C105.36 304.489 96.3835 304.627 87.4176 304.426C84.001 304.351 82.4885 305.479 82.7062 309.652C82.9455 314.176 82.7497 318.738 82.7497 323.287C82.7497 339.566 82.7606 355.845 82.7606 372.124C82.63 374.956 82.8367 377.676 84.9259 379.668V379.681C84.9694 381.26 85.6549 382.125 87.0476 382.2L87.0803 382.238C87.1347 383.817 87.8528 384.644 89.2238 384.694L89.2565 384.731C91.8679 389.243 95.8939 389.644 100.061 389.644C129.103 389.644 158.133 389.644 187.174 389.644C186.848 393.015 184.541 391.9 182.833 392.175ZM76.2102 322.272C76.2211 320.154 75.4703 318.55 73.5117 318.412C70.2039 318.187 67.277 316.745 64.3609 315.166C62.9137 314.389 61.5209 314.339 60.5525 315.981C59.3883 317.961 60.3458 319.528 61.6515 320.793C65.1008 324.164 69.4423 324.716 73.6314 325.493C75.2636 325.819 76.0688 324.152 76.2102 322.272Z" fill="#1A2551"/>
<path d="M179.655 199.296C179.851 200.01 180.058 200.712 180.254 201.426C175.738 204.735 170.689 204.321 165.673 204.309C149.613 204.271 133.553 204.346 117.503 204.284C106.372 204.233 94.9036 206.414 84.9692 198.03C85.0454 195.223 84.8822 192.516 82.8039 190.549C82.8039 180.673 82.8366 170.798 82.7604 160.91C82.7495 158.855 83.6418 156.123 80.7039 155.434C78.2883 153.04 75.3722 152.113 72.3038 151.587C69.9862 151.186 67.6794 150.609 65.8079 148.779C63.9472 146.95 63.3597 144.619 64.2846 142.05C65.3291 139.167 67.4836 139.832 69.3986 140.458C71.8142 141.248 74.1645 142.351 76.5692 143.178C77.8096 143.604 79.3982 145.258 80.3122 143.065C80.8998 141.661 80.8127 139.606 79.6158 138.39C75.2526 133.929 78.0816 131.285 81.3676 128.816C92.1289 120.72 104.207 116.785 116.665 114.053C118.069 113.74 119.429 113.201 120.811 112.775C121.159 116.748 117.449 116.059 115.599 118.114C119.658 120.532 123.901 117.55 127.361 120.207C115.675 121.034 104.49 124.33 93.6522 129.305C92.8688 129.267 92.3683 129.43 92.9776 130.47C94.9471 130.621 96.9165 130.896 98.886 130.909C123.194 131.047 147.502 131.16 171.81 131.272C172.833 131.874 173.649 131.723 174.16 130.433C175.564 130.47 176.26 131.31 176.304 132.901C171.81 135.37 167.022 134.167 162.409 134.092C139.657 133.691 116.927 134.806 94.1854 135.445C86.7972 135.646 84.9584 137.877 84.9475 146.261C84.9366 152.715 84.9257 159.168 84.9692 165.635C84.9801 167.615 84.4252 170.021 87.0693 170.56C87.091 174.934 87.0257 179.295 87.1454 183.668C87.4501 194.133 92.6947 200.436 101.78 200.524C122.552 200.712 143.324 200.737 164.106 200.537C173.007 200.449 178.371 193.819 178.48 183.593C178.578 174.645 178.611 165.71 178.676 156.762C180.058 157.138 181.462 154.469 182.843 156.787C183.344 170.197 182.506 183.506 180.624 196.739L180.613 196.815C179.253 197.078 177.903 197.404 179.655 199.296Z" fill="#1B1B3C"/>
<path d="M84.9694 198.018C94.8929 206.402 106.372 204.221 117.503 204.271C133.564 204.334 149.613 204.259 165.673 204.296C170.69 204.309 175.749 204.735 180.254 201.414C181.44 200.762 182.626 200.837 183.812 201.426C185.629 203.695 187.457 203.983 189.285 201.451C198.828 201.176 208.37 200.887 217.913 200.612C218.598 200.311 218.729 199.772 218.435 199.033C215.182 189.045 216.988 178.643 216.618 168.417C216.4 162.439 216.662 156.437 216.705 150.446C218.751 161.186 217.064 172.076 217.663 182.866C217.804 185.436 216.792 188.255 218.718 190.498C218.718 194.546 219.871 197.291 223.984 196.739L224.311 196.84L224.648 196.802C224.267 202.73 228.478 200.023 230.698 201.075C232.548 203.97 234.354 204.071 236.106 200.963C237.194 200.95 238.293 200.938 239.381 200.925C239.849 203.419 243.744 203.494 242.645 207.078C235.018 208.357 227.358 207.617 219.719 207.529C217.586 206.339 215.454 206.276 213.332 207.592C212.2 207.605 211.08 207.605 209.948 207.617C206.368 206.226 202.778 206.226 199.198 207.605C191.537 207.592 183.877 207.58 176.217 207.567C175.14 206.539 173.845 206.752 172.594 206.752C146.784 206.752 120.975 206.765 95.1649 206.777C93.9136 206.777 92.6187 206.564 91.5415 207.605C90.769 207.592 90.0073 207.58 89.2348 207.567C87.842 206.402 86.4384 206.427 85.0238 207.504C79.529 207.504 74.045 207.504 68.5501 207.504C65.9822 206.502 63.436 205.913 61.0205 207.993C60.7158 210.424 60.1826 212.855 60.1609 215.287C60.1391 217.68 59.0184 221.014 62.7614 221.402C62.9246 221.615 63.0552 221.853 63.1749 222.104C64.0018 225.375 66.3739 224.235 68.1801 224.247C78.6802 224.347 89.1804 224.26 99.6805 224.36C101.095 224.372 102.945 223.357 104.044 225.901C102.988 227.242 100.529 226.215 100.203 228.683C86.2751 228.784 72.3584 228.846 58.4308 228.997C55.21 229.034 53.8717 227.393 53.9043 223.733C53.9587 217.893 53.9587 212.053 53.7629 206.226C53.6323 202.354 55.21 201.088 58.3002 201.075C66.0801 201.038 73.86 200.913 81.6399 200.674C83.0435 200.637 85.7746 202.003 84.9694 198.018Z" fill="#26213E"/>
<path d="M218.74 190.523C216.803 188.28 217.826 185.448 217.684 182.891C217.086 172.101 218.772 161.211 216.727 150.471C216.727 148.779 216.727 147.088 216.727 145.408C218.239 137.927 218.109 130.42 216.836 122.926C216.847 122.074 216.857 121.209 216.879 120.357C216.988 120.244 217.216 120.106 217.195 120.019C217.151 119.718 217.021 119.442 216.912 119.166C215.911 112.098 219.589 105.695 218.859 98.426C218.5 94.8669 222.624 93.0373 225.834 93.0247C241.775 92.9496 257.715 92.8994 273.645 93.2252C279.553 93.3506 281.403 96.9472 279.891 103.401C279.619 104.567 279.412 106.045 279.793 107.073C283.786 117.851 282.948 129.192 282.916 140.446C279.575 139.681 280.598 136.523 280.783 134.393C281.73 123.791 279.249 113.565 278.52 103.151C278.389 101.233 276.996 100.394 276.507 98.8646C276.093 97.6114 275.549 96.446 274.211 96.9598C272.927 97.4611 273.177 98.9524 273.079 100.155C267.998 100.268 262.916 100.381 257.835 100.481C248.086 100.431 238.336 100.381 228.598 100.343C227.085 100.331 225.562 100.444 225.584 102.825C225.606 105.156 227.107 105.294 228.631 105.281C238.38 105.218 248.118 105.156 257.868 105.08C262.971 105.294 268.074 105.507 273.177 105.72C270.816 109.692 267.291 107.324 264.32 107.762C261.099 108.239 257.737 107.988 256.736 112.763C247.378 112.788 238.01 113.001 228.652 112.775C224.398 112.675 222.951 114.517 223.005 119.342C223.168 131.774 223.016 144.218 222.983 156.662C220.764 156.549 219.904 157.677 219.741 160.321C219.153 170.372 218.37 180.423 218.74 190.523Z" fill="#1B1B3C"/>
<path d="M295.94 137.902C295.929 129.368 295.505 120.808 296.06 112.324C296.354 107.838 297.953 103.665 297.235 98.7896C296.658 94.9172 299.901 93.0875 303.067 93.075C319.704 92.9873 336.341 92.887 352.978 93.1752C358.223 93.263 360.878 97.4612 359.583 103.414C358.517 108.339 361.139 112.224 361.28 116.785C362.009 140.107 362.14 163.429 361.629 186.751C361.563 189.684 360.584 192.579 360.029 195.499C358.549 194.145 359.169 192.228 359.017 190.524C359.017 186.802 358.843 183.055 359.072 179.358C359.3 175.573 358.07 173.43 354.784 172.929C354.73 171.249 354.676 169.57 354.61 167.878C354.632 167.477 354.719 167.089 354.85 166.713C356.417 166.462 356.863 165.284 356.852 163.643C356.83 156.424 356.83 149.193 356.841 141.975C356.841 140.596 356.427 139.569 355.165 139.243C355.078 137.802 355.002 136.348 354.915 134.907C355.209 134.656 355.503 134.405 355.786 134.167C357.026 134.055 358.778 134.268 358.81 132.388C358.919 125.057 360.225 117.562 356.689 110.62C355.622 108.527 351.912 109.905 352.499 106.033C353.511 104.216 354.186 102.411 352.402 100.657C352.053 100.594 351.716 100.519 351.368 100.456C348.125 99.9175 344.894 99.8799 341.651 100.431C330.281 100.369 318.921 100.293 307.55 100.243C306.147 100.243 304.612 99.8548 303.622 101.572C301.914 101.597 300.989 102.123 300.184 104.391C297.659 111.472 298.247 118.778 298.062 126.084C297.964 130.007 298.889 132.939 302.382 134.192C302.436 135.07 302.48 135.934 302.534 136.812L302.458 136.724C300.304 137.1 298.127 137.501 295.94 137.902Z" fill="#26213E"/>
<path d="M100.214 228.696C100.54 226.227 102.999 227.267 104.055 225.914C102.956 223.382 101.106 224.385 99.6914 224.372C89.1913 224.272 78.6911 224.36 68.191 224.26C66.3957 224.247 64.0127 225.388 63.1858 222.117C63.5666 221.941 63.9475 221.766 64.3392 221.578C91.8789 221.478 119.408 221.377 146.947 221.29C167.251 221.979 187.555 221.904 207.859 221.39C225.562 221.49 243.266 221.64 260.958 221.703C298.726 221.816 336.483 221.879 374.25 221.954C373.239 225.951 370.344 224.247 368.309 224.247C303.655 224.335 239 224.322 174.346 224.322C162.605 224.322 150.865 224.322 139.167 224.322C138.33 227.418 141.801 226.553 141.485 228.734C127.732 229.222 113.967 229.31 100.214 228.696Z" fill="#21162C"/>
<path d="M115.425 296.281C114.228 301.106 110.55 301.619 107.232 301.858C101.65 302.259 96.0352 301.933 90.4315 302.008C88.4838 302.033 86.9061 301.381 85.6983 299.589C83.6309 296.544 80.9977 294.576 77.8531 296.92C74.85 299.163 76.1122 303.023 76.7106 306.056C77.2003 308.525 79.7899 310.918 77.4288 313.299C75.0785 315.668 71.9774 314.615 69.1484 314.001C68.8219 313.926 68.5499 313.55 68.2235 313.374C63.0115 310.693 58.1151 311.708 56.8964 315.705C55.6995 319.64 58.7244 325.267 63.5338 326.759C66.439 327.661 69.0831 329.252 72.1297 329.967C75.8293 330.831 78.2884 334.766 78.4081 339.666C78.506 343.614 78.4081 347.574 78.4298 351.522C78.506 364.567 76.8738 377.927 83.8703 389.656C83.076 389.631 82.2708 389.594 81.4765 389.569C71.836 374.393 76.0686 356.898 75.5028 340.268C75.3179 334.967 74.1862 332.273 69.6271 331.283C65.9058 330.481 62.3151 328.927 59.04 326.621C54.3829 323.35 52.7616 317.059 55.2207 312.146C57.299 308.011 62.6742 306.795 67.2986 309.427C67.7882 309.703 68.2452 310.041 68.724 310.329C70.6391 311.47 73.1743 313.186 74.6215 311.256C76.1557 309.214 75.4376 306.068 73.2178 304.201C71.3898 302.672 72.2821 301.118 72.8914 299.401C74.9588 293.687 79.05 290.478 83.6091 287.909C96.416 280.716 110.115 276.994 124.054 274.237C123.999 276.405 122.813 277.094 121.203 276.906C117.166 276.418 114.217 279.651 109.364 280.491C112.335 282.345 114.261 281.932 116.111 281.794C117.732 281.669 119.418 279.576 120.898 282.12C108.766 285.365 96.6989 288.824 85.6439 296.281C95.5782 296.281 105.502 296.281 115.425 296.281Z" fill="#1B1B3C"/>
<path d="M203.365 309.489C200.982 306.858 204.235 301.845 200.688 300.078C197.881 298.674 195.313 301.97 192.44 301.945C181.298 301.858 170.124 302.772 159.058 300.667C156.457 300.178 154.052 298.85 152.377 296.281C154.194 296.281 156.022 296.293 157.839 296.293C158.176 297.734 159.069 298.211 160.287 298.211C169.144 298.198 178.012 298.198 186.869 298.211C188.066 298.211 188.991 297.797 189.35 296.356C190.449 296.318 191.548 296.293 192.658 296.256C193.409 296.569 194.149 296.882 194.9 297.196C195.052 297.271 195.215 297.359 195.367 297.434C195.27 297.321 195.172 297.208 195.074 297.108C195.117 296.87 195.095 296.632 195.008 296.419C194.595 293.436 192.158 293.662 190.493 292.835C177.621 286.381 164.03 282.997 150.222 280.616C155.304 278.498 150.995 276.468 150.179 274.4C150.342 265.678 148.601 263.409 141.528 263.134C140.451 263.096 139.363 263.084 138.286 263.059C138.275 261.053 138.253 259.036 138.242 257.031C139.7 256.981 141.148 256.93 142.606 256.893C144.336 261.454 147.742 258.685 150.386 259.261L150.331 259.199C152.377 263.823 155.989 267.658 155.75 273.435C156.479 275.064 157.6 275.616 159.221 275.666C172.779 276.117 185.172 281.43 197.152 288.16C201.308 290.491 205.073 293.724 206.977 298.988C206.945 300.065 206.901 301.143 206.869 302.208C206.194 304.953 202.669 305.868 203.365 309.489Z" fill="#1B1B3C"/>
<path d="M327.495 340.794C323.251 343.614 318.072 343.025 314.133 342.21C310.619 341.496 307.517 335.869 306.843 330.405C306.603 328.438 307.387 326.245 305.874 324.553C305.537 324.039 305.189 323.513 304.852 322.999C296.811 322.736 288.759 322.46 280.718 322.197C280.38 318.675 281.262 316.808 284.82 316.946C291.49 317.197 298.171 316.946 304.841 317.034C308.704 317.084 311.652 318.387 310.357 323.989C309.944 325.806 310.586 326.758 312.109 327.059C330.629 320.843 349.605 316.545 367.972 309.652C373.097 307.735 377.101 310.956 378.603 317.134C380.137 323.437 378.309 328.112 372.923 329.766C361.095 333.388 349.159 336.583 337.266 339.955C337.201 337.31 338.909 337.248 340.53 336.797C346.09 335.268 351.814 334.19 357.113 331.859C361.498 329.916 367.265 330.606 369.822 324.415C370.856 322.385 373.228 320.442 371.465 317.923C370.127 316.031 367.831 316.984 365.916 317.472C364.708 317.773 363.478 318.011 362.26 318.274C361.03 316.495 359.3 317.071 357.722 317.021C351.02 316.833 344.948 319.903 338.648 321.858C330.422 324.415 321.489 324.59 315.156 332.736C314.003 334.215 311.707 334.816 312.61 337.423C313.437 339.829 315.417 339.892 317.234 339.065C320.988 337.423 324.242 338.902 327.495 340.794Z" fill="#1B1B3C"/>
<path d="M296.103 194.245C297.355 196.376 298.018 198.607 296.854 201.088C293.427 203.532 289.607 202.203 285.962 202.567C281.838 202.968 280.587 200.536 281.305 196.225L281.262 196.1C281.599 195.549 281.925 194.985 282.263 194.433C283.634 192.416 283.035 190.035 283.068 187.817C283.231 175.347 283.296 162.878 283.394 150.409C288.955 151.173 291.642 145.784 295.494 142.889C295.603 152.915 295.723 162.953 295.831 172.979C295.451 179.646 295.2 186.325 295.81 192.992C295.907 193.406 296.005 193.832 296.103 194.245Z" fill="#E9E7EC"/>
<path d="M283.405 150.409C283.307 162.878 283.231 175.347 283.079 187.817C283.046 190.035 283.645 192.416 282.274 194.433C281.512 194.647 281.109 195.148 281.273 196.1L281.316 196.226C279.227 195.261 277.073 195.511 274.918 195.724C267.791 195.536 260.664 195.336 253.537 195.148C252.819 194.12 252.09 194.108 251.361 195.135C250.273 195.135 249.185 195.135 248.086 195.123C240.893 193.118 233.581 194.759 226.335 194.246C227.075 193.13 228.13 193.03 229.229 193.005C236.193 192.905 243.2 193.531 250.077 191.739C256.007 190.198 261.905 190.549 267.835 191.689C270.12 192.128 272.285 191.727 272.024 188.005C275.756 188.569 276.463 186.288 276.431 182.516C276.344 170.147 276.496 157.777 276.561 145.408C278.672 144.494 280.304 141.962 282.959 142.864C283.112 145.396 283.253 147.902 283.405 150.409Z" fill="#1B1B3C"/>
<path d="M87.0802 170.51C84.4361 169.971 84.9911 167.565 84.9802 165.585C84.9367 159.131 84.9475 152.677 84.9584 146.21C84.9693 137.839 86.8082 135.608 94.1964 135.395C116.938 134.756 139.657 133.641 162.42 134.042C167.044 134.13 171.832 135.32 176.315 132.851C181.951 134.029 183.768 138.04 182.898 144.268C182.615 146.261 182.876 148.353 182.876 150.409C182.854 152.188 182.724 154.043 184.976 154.118C185.128 154.319 185.27 154.532 185.411 154.757C185.281 155.396 185.15 156.048 185.02 156.687C184.301 156.7 183.583 156.712 182.854 156.725C181.483 154.394 180.08 157.076 178.687 156.7L178.48 156.687C178.491 152.514 178.361 148.328 178.556 144.168C178.73 140.433 177.588 138.854 174.204 139.055C169.862 139.305 165.51 139.105 161.158 139.105C160.842 136.999 159.558 136.649 157.98 136.661C149.178 136.686 140.364 136.699 131.562 136.674C129.984 136.674 128.689 136.999 128.395 139.13C127.71 139.13 127.013 139.13 126.328 139.13C125.675 135.671 123.064 136.047 121.671 137.15C118.319 139.781 114.74 139.042 111.203 139.105C104.881 139.205 98.5487 139.28 92.2269 139.08C88.5165 138.967 87.004 140.571 87.0802 144.907C87.2434 153.441 87.102 161.976 87.0802 170.51Z" fill="#1A2551"/>
<path d="M327.495 340.794C324.252 338.902 320.988 337.423 317.256 339.102C315.439 339.917 313.458 339.854 312.631 337.461C311.728 334.854 314.035 334.253 315.178 332.774C321.499 324.616 330.444 324.44 338.67 321.896C344.981 319.941 351.041 316.871 357.744 317.059C359.311 317.109 361.052 316.532 362.281 318.312C355.731 320.38 349.159 322.422 342.619 324.54C336.722 326.445 330.824 328.363 324.97 330.443C323.436 330.982 321.706 332.034 322.392 334.441C322.99 336.533 324.851 335.995 326.156 335.781C329.355 335.268 332.511 334.39 335.688 333.726C347.211 331.308 358.103 325.806 369.833 324.453C367.276 330.643 361.509 329.967 357.124 331.897C351.825 334.24 346.101 335.318 340.541 336.834C338.931 337.273 337.212 337.335 337.277 339.992L337.288 339.955C333.925 338.739 330.759 340.544 327.495 340.794Z" fill="#26213E"/>
<path d="M295.81 192.992C295.2 186.325 295.451 179.646 295.831 172.979C298.062 173.255 299.161 170.36 301.304 170.36L301.5 170.347C301.446 170.798 301.392 171.262 301.337 171.713C301.272 176.901 301.479 182.052 303.524 186.839C303.35 190.022 304.971 190.474 307.289 190.561C311.957 190.737 316.625 190.724 321.304 191.088C333.86 192.065 346.471 192.955 359.017 190.511C359.169 192.215 358.549 194.133 360.029 195.486C359.92 196.351 359.811 197.228 359.703 198.093C358.712 199.284 359.137 201.84 356.743 201.715C353.881 201.577 355.437 197.654 353.413 196.94L353.37 197.003C353.522 196.213 353.261 195.699 352.597 195.461L352.532 195.424C346.036 193.218 339.497 193.895 332.946 194.998C324.274 195.048 315.602 195.198 306.93 195.098C303.426 195.06 302.523 196.664 303.666 200.261C301.642 202.366 299.944 202.855 299.204 199.008C298.856 197.191 298.388 195.461 297.039 194.258C296.626 193.845 296.223 193.419 295.81 192.992Z" fill="#1B1B3C"/>
<path d="M127.372 120.182C123.912 117.525 119.669 120.495 115.61 118.089C117.46 116.034 121.159 116.723 120.822 112.75C120.724 112.349 120.757 111.961 120.909 111.585C122.237 110.344 121.997 108.94 121.257 107.462L121.355 107.011C122.16 107.374 123.161 108.126 123.542 106.672C123.782 105.745 122.824 105.494 122.128 105.344C125.501 100.093 131.105 97.7494 136.817 99.4914C142.007 101.07 145.489 104.88 145.772 111.196C145.892 113.903 146.719 114.016 148.471 114.304C150.93 114.705 153.345 115.532 155.783 116.184C155.576 119.969 162.006 119.079 160.004 124.129C149.287 121.059 138.384 120.031 127.372 120.182ZM136.121 105.218C128.276 105.294 127.764 105.732 127.318 112.888C125.403 115.758 126.872 116.522 129.124 116.585C132.182 116.673 135.25 116.685 138.319 116.598C140.56 116.535 143.487 117.224 143.444 113.076C143.4 108.915 139.352 104.792 136.121 105.218Z" fill="#26213E"/>
<path d="M215.476 313.237C213.528 311.232 211.667 311.645 209.828 313.462C208.142 315.116 206.129 314.427 204.225 314.377C203.463 314.352 202.756 313.763 203.191 312.861C203.463 312.297 204.355 312.121 204.965 311.77C209.154 311.106 212.647 307.835 217.184 307.986C220.84 308.099 224.039 309.327 224.964 312.986C226.052 317.322 226.824 322.385 222.603 325.906C219.763 328.275 216.368 329.14 213.321 330.907C211.765 331.283 210.187 331.583 208.653 332.047C202.69 333.864 202.342 334.729 204.551 342.073C204.551 344.153 204.551 346.233 204.551 348.301C202.941 349.567 202.93 350.82 204.551 352.086C204.518 353.753 204.497 355.407 204.464 357.073C204.138 357.086 203.8 357.086 203.474 357.099C200.612 356.033 200.101 353.602 200.177 350.457C200.22 348.326 201.298 345.344 198.142 344.516C198.142 342.862 198.131 341.221 198.131 339.566C202.342 337.097 199.905 332.711 200.101 329.29C200.318 325.543 201.33 324.039 204.508 324.553C208.207 324.678 211.896 324.628 215.465 323.225C217.195 325.155 217.445 323.626 217.63 321.984C218.348 321.157 219.077 320.317 219.795 319.49C222.788 318.976 222.146 316.42 221.71 314.39C221.362 312.798 220.394 311.294 218.729 313.249C217.641 313.249 216.564 313.249 215.476 313.237Z" fill="#1B1B3C"/>
<path d="M203.474 357.111C203.8 357.098 204.138 357.086 204.464 357.086C204.453 360.432 204.453 363.778 204.442 367.124C202.897 367.387 202.364 368.54 202.44 370.182C202.68 375.834 202.353 381.185 198.588 385.659C197.359 387.125 198.023 389.218 200.242 389.669C211.482 389.644 222.722 389.619 233.962 389.594C234.354 393.228 233.222 394.782 229.784 394.732C215.541 394.557 201.298 394.682 187.055 394.644C185.346 394.644 183.246 395.258 182.854 392.175C184.552 391.9 186.859 393.015 187.207 389.644L187.729 389.631H188.251C188.632 389.243 189.013 388.867 189.394 388.479C190.863 387.213 192.321 385.947 193.79 384.681C195.183 384.594 195.901 383.754 195.912 382.137C198.186 381.974 198.131 380.145 198.001 378.252C198.033 377.049 198.077 375.846 198.11 374.643C201.102 374.004 200.34 371.209 200.21 369.167C199.894 364.58 200.351 360.407 203.474 357.111Z" fill="#26213E"/>
<path d="M247.716 353.539C243.657 356.046 245.812 362.011 242.537 365.47C241.057 362.763 241.416 360.043 242.08 357.399C242.504 355.695 242.896 354.216 241.242 353.138C242.134 347.223 243.048 341.308 243.918 335.38C244.647 330.43 245.017 325.53 243.004 320.756C242.395 319.314 242.058 317.447 244.136 316.771C247.553 316.858 250.991 317.247 254.386 316.971C258.27 316.645 259.184 318.337 257.879 322.259C250.262 323.099 250.262 323.099 250.349 332.047C250.36 333.701 250.436 335.343 250.48 336.985C250.338 338.163 250.186 339.353 250.044 340.531C249.468 343.94 248.902 347.336 248.325 350.745C248.118 351.672 247.912 352.612 247.716 353.539Z" fill="#26213E"/>
<path d="M282.959 142.889C280.304 141.987 278.672 144.519 276.561 145.433L276.365 145.421C276.365 135.821 276.365 126.222 276.365 116.635C276.365 115.006 275.625 114.166 274.254 114.016C272.666 112.111 270.62 113.101 268.77 112.875C267.323 112.875 265.865 112.875 264.418 112.875C262.971 112.888 261.524 112.9 260.077 112.913C258.967 112.863 257.868 112.813 256.758 112.775C257.759 108 261.11 108.251 264.342 107.787C267.312 107.349 270.838 109.717 273.199 105.745C275.44 103.827 274.701 101.998 273.101 100.181C273.199 98.9775 272.96 97.4736 274.233 96.9849C275.571 96.4585 276.126 97.6366 276.528 98.8898C277.029 100.406 278.411 101.258 278.541 103.176C279.26 113.59 281.74 123.816 280.805 134.418C280.62 136.548 279.586 139.706 282.937 140.471C282.937 141.248 282.948 142.075 282.959 142.889Z" fill="#1A2551"/>
<path d="M182.876 150.421C182.865 148.378 182.615 146.273 182.898 144.28C183.768 138.04 181.962 134.042 176.315 132.864C176.271 131.26 175.575 130.433 174.171 130.395C173.736 130.32 173.301 130.245 172.866 130.169C172.137 129.656 171.408 129.142 170.668 128.628C170.929 125.934 171.984 125.244 174.356 125.996C176.522 126.686 178.709 128.127 181.113 127.036L181.309 127.162C180.961 128.866 181.962 128.979 182.996 129.054C183.67 129.543 184.345 130.032 185.009 130.52C185.357 133.027 184.04 135.909 186.271 138.002C184.813 142.288 184.824 144.92 189.916 142.814C192.092 141.912 194.475 141.724 196.717 141.035C199.176 140.283 201.646 139.869 202.222 143.579C202.767 147.075 201.221 149.644 198.153 150.496C193.844 151.687 189.165 151.399 185.39 154.757C185.259 154.532 185.107 154.319 184.954 154.118C185.063 152.313 185.031 150.572 182.876 150.421Z" fill="#26213E"/>
<path d="M257.868 322.247C259.173 318.312 258.259 316.633 254.375 316.959C250.98 317.247 247.542 316.858 244.125 316.758C245.659 314.465 247.825 315.593 249.663 315.58C267.051 315.48 284.45 315.543 301.838 315.543C312.338 315.543 312.338 315.53 312.109 327.059C310.575 326.746 309.933 325.794 310.357 323.989C311.652 318.4 308.703 317.096 304.841 317.034C298.171 316.934 291.49 317.197 284.82 316.946C281.273 316.808 280.38 318.676 280.718 322.197C273.112 322.21 265.484 322.235 257.868 322.247Z" fill="#21162C"/>
<path d="M301.305 170.36C299.161 170.347 298.073 173.242 295.831 172.979C295.723 162.953 295.603 152.915 295.494 142.89C295.646 141.235 295.788 139.569 295.94 137.914C298.127 137.513 300.304 137.1 302.491 136.699C302.36 137.827 302.219 138.954 302.088 140.082C300.728 148.115 301.424 156.186 301.707 164.257C301.566 166.287 301.435 168.329 301.305 170.36Z" fill="#21162C"/>
<path d="M138.253 257.031C138.264 259.036 138.286 261.053 138.297 263.058C136.599 263.673 134.815 264.074 133.237 264.963C130.8 266.317 130.343 268.911 130.658 271.781C131.05 275.252 133.422 274.362 135.228 274.4C139.864 274.5 144.499 274.425 149.145 274.425C147.676 277.934 144.847 276.618 142.464 276.981C140.549 277.282 137.873 275.628 137.176 279.45C133.194 279.45 129.2 279.45 125.218 279.45C125.457 275.678 126.839 272.056 126.306 268.184C129.059 264.274 133.139 261.73 135.033 256.93C136.11 256.178 137.176 256.604 138.253 257.031Z" fill="#1A2551"/>
<path d="M379.691 391.06C379.647 394.168 380.224 399.732 379.462 399.983C374.403 401.675 377.58 406.875 375.763 409.67L375.23 409.708C374.729 405.334 377.526 400.371 373.478 396.624C371.563 396.336 369.648 396.035 367.722 395.747C365.687 393.767 363.239 394.619 361.03 394.745C357.657 394.933 356.449 393.328 356.852 389.682C363.739 389.682 370.627 389.682 377.515 389.682C377.939 390.07 378.363 390.459 378.799 390.835C379.114 390.772 379.419 390.847 379.691 391.06Z" fill="#26213E"/>
<path d="M181.124 127.062C178.72 128.152 176.533 126.698 174.367 126.022C171.995 125.27 170.94 125.959 170.679 128.653C167.121 127.149 163.563 125.646 160.005 124.142C162.018 119.091 155.576 119.981 155.783 116.197C164.651 118.527 173.366 121.31 181.124 127.062Z" fill="#1B1B3C"/>
<path d="M182.854 156.737C183.573 156.725 184.291 156.712 185.02 156.7C184.911 167.314 185.836 177.954 184.149 188.506C183.649 191.614 182.963 194.609 180.635 196.677C182.517 183.455 183.355 170.147 182.854 156.737Z" fill="#21162C"/>
<path d="M126.295 268.172C126.828 272.044 125.446 275.666 125.207 279.438C125.207 280.165 125.207 280.879 125.207 281.606C123.771 281.769 122.345 281.944 120.909 282.107C119.429 279.576 117.732 281.668 116.121 281.781C114.272 281.919 112.346 282.333 109.375 280.478C114.228 279.626 117.177 276.393 121.214 276.894C122.835 277.094 124.021 276.393 124.065 274.224C124.141 272.194 124.206 270.177 124.282 268.146C124.946 268.159 125.621 268.172 126.295 268.172Z" fill="#26213E"/>
<path d="M80.7041 155.421C83.6419 156.111 82.7388 158.843 82.7606 160.898C82.8367 170.773 82.8041 180.648 82.8041 190.536C82.4777 190.523 82.1512 190.511 81.8248 190.498C79.5507 178.881 81.4222 167.101 80.7041 155.421Z" fill="#21162C"/>
<path d="M204.551 342.073C202.342 334.729 202.68 333.864 208.653 332.047C210.187 331.583 211.765 331.283 213.321 330.907C213.169 337.536 209.502 340.481 204.551 342.073Z" fill="#E9E7EC"/>
<path d="M200.231 389.657C198.011 389.205 197.348 387.113 198.577 385.646C202.342 381.172 202.668 375.821 202.429 370.169C202.364 368.528 202.897 367.375 204.431 367.112C204.997 374.393 204.594 381.373 200.014 387.15C199.295 388.065 199.328 388.917 200.231 389.657Z" fill="#1B1B3C"/>
<path d="M126.295 268.172C125.621 268.172 124.957 268.159 124.282 268.159C125.349 261.229 129.113 257.72 135.022 256.918C133.128 261.718 129.037 264.262 126.295 268.172Z" fill="#1B1B3C"/>
<path d="M216.574 417.427C216.803 414.407 218.762 414.72 220.535 414.72C226.411 414.708 232.297 414.72 238.38 414.72C237.259 416.939 234.615 415.021 233.886 417.427C231.753 417.954 229.621 417.954 227.488 417.427C224.55 415.147 221.612 415.147 218.664 417.427C217.978 417.427 217.282 417.427 216.574 417.427Z" fill="#26213E"/>
<path d="M155.761 273.423C156 267.645 152.388 263.811 150.342 259.186C156.566 262.244 158.437 267.144 155.761 273.423Z" fill="#21162C"/>
<path d="M216.825 122.901C218.098 130.408 218.228 137.902 216.716 145.383C216.759 137.902 216.792 130.395 216.825 122.901Z" fill="#26213E"/>
<path d="M150.386 259.261C147.742 258.685 144.336 261.442 142.606 256.893C145.674 255.627 148.068 257.269 150.386 259.261Z" fill="#21162C"/>
<path d="M186.293 138.002C184.062 135.909 185.379 133.027 185.031 130.521C187.392 132.588 190.46 134.481 186.293 138.002Z" fill="#1B1B3C"/>
<path d="M81.8247 190.499C82.1511 190.511 82.4776 190.524 82.804 190.536C84.8823 192.504 85.0563 195.211 84.9693 198.018C83.2066 195.912 82.1076 193.431 81.8247 190.499Z" fill="#26213E"/>
<path d="M218.675 417.427C221.612 415.159 224.55 415.159 227.499 417.427C224.561 417.427 221.623 417.427 218.675 417.427Z" fill="#21162C"/>
<path d="M204.551 352.098C202.93 350.832 202.941 349.579 204.551 348.313C206.031 349.567 206.031 350.832 204.551 352.098Z" fill="#E9E7EC"/>
<path d="M189.296 201.464C187.457 203.995 185.64 203.707 183.823 201.439C185.64 200.887 187.468 200.912 189.296 201.464Z" fill="#21162C"/>
<path d="M179.655 199.296C177.904 197.404 179.253 197.078 180.624 196.752C180.82 197.867 180.613 198.77 179.655 199.296Z" fill="#21162C"/>
<path d="M122.128 105.356C122.824 105.507 123.782 105.757 123.542 106.685C123.161 108.151 122.16 107.386 121.355 107.023C121.616 106.472 121.878 105.908 122.128 105.356Z" fill="#1B1B3C"/>
<path d="M121.268 107.474C121.997 108.94 122.237 110.356 120.92 111.597C120.507 110.156 120.594 108.777 121.268 107.474Z" fill="#1B1B3C"/>
<path d="M183.007 129.067C181.973 128.991 180.972 128.879 181.32 127.174C181.886 127.801 182.452 128.44 183.007 129.067Z" fill="#1B1B3C"/>
<path d="M206.869 302.208C206.901 301.131 206.945 300.053 206.977 298.988C208.022 300.103 208.044 301.181 206.869 302.208Z" fill="#3F374C"/>
<path d="M216.912 119.154C217.01 119.442 217.14 119.718 217.195 120.006C217.206 120.094 216.988 120.232 216.879 120.345C216.879 119.944 216.89 119.543 216.912 119.154Z" fill="#26213E"/>
<path d="M378.788 390.835C378.363 390.446 377.939 390.058 377.504 389.682C378.352 389.456 378.581 390.133 378.788 390.835Z" fill="#21162C"/>
<path d="M380.659 203.018C380.322 202.529 379.974 202.053 379.636 201.564C380.529 201.539 380.768 202.116 380.659 203.018Z" fill="#21162C"/>
<path d="M218.446 199.045C218.751 199.785 218.609 200.323 217.924 200.624C218.098 200.085 218.272 199.559 218.446 199.045Z" fill="#7E6669"/>
<path d="M247.716 353.539C247.912 352.612 248.118 351.685 248.314 350.757C251.198 347.862 252.177 344.554 250.034 340.544C250.175 339.366 250.327 338.175 250.469 336.997C252.46 336.646 252.308 334.892 252.427 333.213C253.037 324.566 253.048 324.515 260.675 324.49C273.308 324.44 285.941 324.566 298.573 324.378C302.142 324.327 304.079 325.292 303.688 329.867C303.535 331.609 303.176 333.777 305.418 334.466C307.594 343.777 310.532 352.963 311.707 362.425C312.643 369.981 314.993 378.415 309.117 385.333C307.801 386.887 306.419 387.977 304.699 388.679C294.852 388.842 284.994 389.005 275.147 389.168C268.096 388.967 261.045 388.855 253.994 388.554C246.878 388.253 244.909 385.784 244.637 377.538C244.386 369.305 246.824 361.547 247.716 353.539ZM263.493 341.383C263.015 338.451 264.734 333.889 260.523 333.35C256.704 332.862 256.932 337.286 256.475 340.143C254.81 350.532 253.352 360.971 251.785 371.372C251.328 374.418 252.493 376.298 254.963 376.874C258.031 377.588 259.38 375.019 259.75 372.275C261.132 362.036 262.253 351.747 263.493 341.383Z" fill="#BCB3B3"/>
<path d="M272.089 396.674C284.015 396.599 295.951 396.537 307.876 396.461C312.534 398.028 317.321 396.712 322.022 397.326C321.38 402.853 324.829 405.986 327.451 409.595C248.075 409.607 168.687 409.633 89.3108 409.645C90.2465 405.572 93.1626 407.277 95.1865 407.264C122.726 407.151 150.266 407.226 177.806 407.114C179.829 407.101 183.464 408.893 183.551 404.908C183.627 401.286 180.21 400.171 177.316 399.72C176.065 399.532 174.781 399.682 173.518 399.682C146.164 399.682 118.798 399.72 91.4434 399.632C89.5393 399.632 86.8626 401.073 86.0574 397.314C139.331 397.339 192.604 397.364 245.877 397.389C245.18 400.81 242.765 399.607 240.98 399.632C232.287 399.745 223.593 399.619 214.91 399.72C212.581 399.745 209.164 398.629 209.23 403.204C209.284 407.114 212.07 407.251 214.801 407.239C235.083 407.176 255.365 407.239 275.636 407.139C277.334 407.126 280.402 408.48 280.293 404.996C280.206 402.264 278.552 399.607 275.31 399.632C273.667 399.645 271.469 400.547 270.957 397.414C271.338 397.163 271.719 396.925 272.089 396.674Z" fill="#B9967B"/>
<path d="M86.0683 397.301C86.8843 401.048 89.5611 399.607 91.4543 399.619C118.809 399.707 146.175 399.682 173.529 399.67C174.802 399.67 176.086 399.519 177.327 399.707C180.221 400.158 183.627 401.274 183.562 404.895C183.485 408.881 179.84 407.101 177.816 407.101C150.277 407.226 122.737 407.139 95.1974 407.251C93.1735 407.264 90.2466 405.547 89.3108 409.633C86.7646 409.633 84.2076 409.62 81.6615 409.62C80.9651 408.417 80.2578 408.404 79.5615 409.62C77.7226 409.62 75.8837 409.62 74.0448 409.62C72.6194 407.953 71.194 407.953 69.7686 409.62C61.3032 409.833 61.3032 409.833 60.9768 399.908C60.955 399.294 60.8245 398.667 60.7483 398.053C61.0856 397.627 61.4338 397.188 61.782 396.762C63.7297 396.95 65.6882 397.126 67.6359 397.314C68.6696 398.717 69.7033 398.73 70.737 397.314C75.8511 397.326 80.9542 397.314 86.0683 397.301Z" fill="#B28E70"/>
<path d="M270.968 397.401C271.48 400.547 273.678 399.632 275.321 399.619C278.563 399.594 280.217 402.251 280.304 404.983C280.413 408.467 277.355 407.114 275.647 407.126C255.365 407.226 235.094 407.164 214.812 407.226C212.081 407.239 209.284 407.101 209.241 403.191C209.186 398.617 212.603 399.745 214.92 399.707C223.614 399.594 232.308 399.72 240.991 399.619C242.765 399.594 245.191 400.797 245.888 397.376C250.218 396.699 254.625 398.04 258.923 396.624C259.685 396.624 260.446 396.637 261.219 396.637C264.396 397.99 267.737 396.762 270.968 397.401Z" fill="#B28E70"/>
<path d="M81.6725 409.62C84.2186 409.62 86.7756 409.632 89.3218 409.632C168.698 409.62 248.086 409.595 327.462 409.582C340.171 409.582 352.869 409.57 365.578 409.57C367.384 409.595 369.191 409.607 370.997 409.632C372.411 409.657 373.826 409.683 375.241 409.708L375.774 409.67C373.946 411.688 371.65 410.886 369.561 410.886C269.412 410.923 169.253 410.923 69.105 410.936C58.8551 410.936 58.2349 409.996 60.781 398.065C60.8572 398.679 60.9878 399.294 61.0095 399.92C61.336 409.845 61.336 409.845 69.8013 409.632C71.2267 409.632 72.6521 409.632 74.0776 409.62C75.9164 409.62 77.7553 409.62 79.5942 409.62C80.2688 409.62 80.9652 409.62 81.6725 409.62Z" fill="#7E6669"/>
<path d="M258.923 396.624C254.625 398.04 250.218 396.7 245.888 397.376C192.615 397.351 139.342 397.326 86.0684 397.301C80.9652 397.314 75.8512 397.326 70.748 397.326C69.7143 397.326 68.6806 397.326 67.6469 397.326C65.6992 397.138 63.7407 396.963 61.793 396.775C63.4578 395.597 65.3184 396.023 67.1029 396.023C129.255 396.023 191.396 396.048 253.548 396.111C255.332 396.111 257.128 396.449 258.923 396.624Z" fill="#7E6669"/>
<path d="M275.157 389.155C285.005 388.992 294.863 388.829 304.71 388.667C304.667 391.574 307.866 391.135 308.714 394.582C302.86 394.582 297.257 394.582 291.664 394.582C288.443 394.582 285.179 394.206 282.012 394.669C278.019 395.258 276.082 393.241 275.157 389.155Z" fill="#3F374C"/>
<path d="M305.417 334.453C303.176 333.764 303.535 331.596 303.687 329.854C304.079 325.28 302.142 324.315 298.573 324.365C285.94 324.565 273.308 324.428 260.675 324.478C253.047 324.503 253.036 324.54 252.427 333.2C252.307 334.879 252.46 336.634 250.469 336.985C250.425 335.343 250.36 333.689 250.338 332.047C250.251 323.099 250.251 323.099 257.868 322.26C265.484 322.247 273.101 322.222 280.729 322.209C288.77 322.473 296.821 322.748 304.862 323.012C304.656 324.014 304.503 325.004 305.309 325.794C305.341 328.676 305.385 331.558 305.417 334.453Z" fill="#E9E7EC"/>
<path d="M322.033 397.326C317.332 396.725 312.544 398.04 307.887 396.461C324.775 396.298 341.673 396.148 358.56 395.973C361.618 395.935 364.675 395.822 367.722 395.747C369.637 396.035 371.552 396.336 373.478 396.624C370.464 396.825 367.461 397.025 364.458 397.226C363.01 397.238 361.563 397.238 360.105 397.251C359.746 397.213 359.398 397.213 359.039 397.263C346.7 397.288 334.361 397.301 322.033 397.326Z" fill="#7E6669"/>
<path d="M270.968 397.401C267.737 396.75 264.396 397.99 261.208 396.637C264.842 395.822 268.466 395.735 272.089 396.674C271.719 396.925 271.338 397.163 270.968 397.401Z" fill="#7E6669"/>
<path d="M207.859 415.736C211.218 415.736 213.941 415.55 213.941 415.322C213.941 415.094 211.218 414.908 207.859 414.908C204.5 414.908 201.776 415.094 201.776 415.322C201.776 415.55 204.5 415.736 207.859 415.736Z" fill="#26213E"/>
<path d="M83.8813 389.656C85.5897 389.882 87.8747 388.792 88.2229 392.15C86.5145 391.937 84.2295 393.028 83.8813 389.656Z" fill="#1B1B3C"/>
<path d="M198.218 415.209C197.032 416.3 195.912 416.112 194.649 415.41C195.825 414.357 196.956 414.52 198.218 415.209Z" fill="#26213E"/>
<path d="M305.309 325.781C304.503 324.992 304.656 324.002 304.863 322.999C305.2 323.513 305.548 324.039 305.885 324.553C305.69 324.967 305.494 325.38 305.309 325.781Z" fill="#BCB3B3"/>
<path d="M180.972 415.184C180.928 415.335 180.885 415.61 180.831 415.61C180.678 415.61 180.526 415.51 180.374 415.447C180.417 415.297 180.461 415.021 180.515 415.021C180.667 415.021 180.82 415.121 180.972 415.184Z" fill="#26213E"/>
<path d="M374.25 221.954C336.483 221.879 298.726 221.816 260.958 221.703C243.255 221.653 225.551 221.503 207.859 221.39C207.859 220.688 207.87 219.986 207.87 219.284C237.227 219.284 266.583 219.297 295.94 219.297C316.973 219.297 338.006 219.297 359.039 219.297C362.836 219.297 366.634 219.322 370.42 219.272C372.009 219.259 373.88 219.585 374.131 216.878C374.327 214.798 374.446 212.805 372.553 211.352C371.008 210.174 369.474 209.585 367.635 209.171C363.946 208.344 361.248 211.389 357.94 211.778C338.006 211.778 318.061 211.778 298.127 211.778C294.667 209.798 291.022 209.008 287.148 209.259C277.845 209.873 268.433 207.956 259.206 210.951C256.638 211.79 254.233 207.517 251.731 209.635C248.282 212.567 244.549 211.69 240.872 211.728C230.23 211.84 219.599 211.765 208.958 211.778C189.742 211.778 170.526 211.778 151.311 211.778C143.531 212.642 136.034 210.926 128.624 208.457C130.604 208.357 132.584 208.206 134.565 208.169C148.46 207.956 162.344 207.755 176.239 207.567C183.899 207.58 191.559 207.592 199.219 207.617C202.799 208.144 206.39 208.181 209.97 207.617C211.101 207.605 212.222 207.605 213.354 207.605C215.486 208.118 217.619 208.169 219.741 207.542C227.39 207.617 235.039 208.369 242.667 207.091C257.15 208.407 271.654 207.68 286.147 207.667C286.517 207.667 286.887 207.68 287.257 207.68C291.566 207.617 295.875 207.555 300.184 207.492C300.575 207.504 300.967 207.517 301.359 207.529C318.79 207.542 336.232 207.542 353.664 207.554C356.874 208.231 360.094 208.206 363.326 207.73C366.601 207.742 369.887 207.742 373.162 207.755C373.478 207.968 373.804 208.131 374.152 208.231C375.904 212.805 376.688 217.367 374.25 221.954Z" fill="#AA9086"/>
<path d="M300.184 207.517C295.875 207.579 291.566 207.642 287.257 207.705C286.898 207.153 286.528 207.141 286.147 207.692C271.654 207.692 257.15 208.432 242.667 207.116C243.766 203.519 239.871 203.444 239.403 200.95C249.957 200.875 260.523 200.637 271.077 200.812C274.624 200.875 275.56 199.358 274.918 195.724C277.073 195.511 279.227 195.273 281.316 196.225C280.598 200.549 281.839 202.98 285.973 202.567C289.618 202.216 293.438 203.532 296.865 201.088C297.083 203.707 300.249 203.92 300.293 206.677C300.216 206.965 300.184 207.241 300.184 207.517Z" fill="#21162C"/>
<path d="M303.666 200.273C302.523 196.677 303.426 195.073 306.93 195.11C315.602 195.211 324.274 195.06 332.946 195.01C339.475 195.148 346.003 195.298 352.532 195.436L352.597 195.474C352.858 195.987 353.12 196.501 353.37 197.015L353.413 196.952C353.392 200.361 351.585 200.725 349.115 200.7C341.183 200.624 333.24 200.787 325.308 200.862C319.149 200.925 313.001 201 306.843 201.063C305.777 200.787 304.721 200.537 303.666 200.273Z" fill="#FDFDFD"/>
<path d="M306.832 201.05C312.991 200.988 319.138 200.913 325.297 200.85C325.069 201.903 324.59 203.043 323.621 202.893C318.039 202.04 312.109 205.411 306.832 201.05Z" fill="#21162C"/>
<path d="M363.326 207.742C360.094 208.219 356.873 208.244 353.664 207.567C356.906 206.389 360.127 206.188 363.326 207.742Z" fill="#3F374C"/>
<path d="M374.163 208.244C373.815 208.143 373.478 207.981 373.173 207.768C373.815 207.041 374.065 207.417 374.163 208.244Z" fill="#3F374C"/>
<path d="M295.81 192.992C296.212 193.419 296.626 193.845 297.028 194.258L296.56 194.246H296.092C296.005 193.832 295.907 193.406 295.81 192.992Z" fill="#21162C"/>
<path d="M300.184 207.517C300.184 207.229 300.216 206.953 300.293 206.69C300.652 206.978 301.011 207.266 301.37 207.554C300.967 207.542 300.576 207.529 300.184 207.517Z" fill="#3F374C"/>
<path d="M114.337 304.477C126.654 304.489 138.971 304.489 151.3 304.502C154.292 307.434 157.436 309.941 160.918 312.209C167.686 316.608 174.802 315.517 181.919 315.818C186.075 315.994 190.547 317.372 191.015 322.748C191.603 329.503 192.832 336.07 193.659 342.737C194.845 352.236 193.061 361.422 189.644 369.981C187.718 374.794 190.079 380.245 187.207 384.644C186.848 384.656 186.478 384.656 186.119 384.669C161.06 384.669 136.001 384.631 110.942 384.706C109.027 384.706 106.361 383.34 105.621 387.125C99.9959 387.99 94.6533 386.285 89.289 384.732L89.2564 384.694C89.2999 382.99 88.5927 382.175 87.1128 382.238L87.0802 382.2C87.1455 380.496 86.4056 379.694 84.9584 379.681V379.669C84.2838 377.137 86.732 373.415 82.7931 372.124C82.7931 355.845 82.7822 339.566 82.7822 323.287C84.3056 323.112 84.7843 322.072 84.9911 320.405C86.1444 311.332 90.4642 307.046 98.342 307.021C102.292 307.008 106.242 307.046 110.18 306.996C111.889 306.946 113.956 307.535 114.337 304.477Z" fill="#144A88"/>
<path d="M120.909 282.107C122.346 281.944 123.771 281.769 125.207 281.606C129.549 281.242 133.89 280.866 138.232 280.503C139.701 280.49 141.17 280.478 142.638 280.453C144.064 280.465 145.489 280.478 146.926 280.49C148.025 280.528 149.134 280.553 150.233 280.591C164.041 282.972 177.632 286.368 190.504 292.809C192.169 293.637 194.595 293.411 195.019 296.394C194.236 296.343 193.453 296.293 192.658 296.231C191.559 296.268 190.46 296.293 189.35 296.331C178.85 295.729 168.339 295.83 157.839 296.268C156.022 296.268 154.194 296.256 152.377 296.256C150.212 296.268 148.035 296.281 145.87 296.281C145.141 296.281 144.412 296.281 143.694 296.281C142.954 296.256 142.225 296.231 141.485 296.206C133.531 296.193 125.577 296.193 117.623 296.181C116.894 296.206 116.154 296.231 115.425 296.243C105.502 296.243 95.5784 296.243 85.644 296.243C96.6991 288.812 108.777 285.365 120.909 282.107Z" fill="#E9E7EC"/>
<path d="M187.196 384.644C190.069 380.245 187.707 374.794 189.633 369.981C193.061 361.422 194.834 352.236 193.648 342.737C192.821 336.07 191.592 329.503 191.004 322.748C190.536 317.372 186.064 315.994 181.908 315.818C174.792 315.517 167.676 316.595 160.908 312.209C157.426 309.953 154.281 307.434 151.289 304.502C165.01 304.502 178.731 304.64 192.441 304.414C196.673 304.339 198.218 306.006 198.11 310.906C197.892 320.455 198.099 330.029 198.12 339.591C198.12 341.246 198.131 342.887 198.131 344.541C198.11 351.233 198.077 357.926 198.055 364.618C194.53 365.583 196.053 368.879 195.944 371.197C195.553 379.38 192.713 383.942 187.196 384.644Z" fill="#1D457D"/>
<path d="M187.196 384.644C192.713 383.942 195.553 379.393 195.955 371.197C196.064 368.879 194.541 365.583 198.066 364.618C198.077 367.964 198.088 371.322 198.099 374.668C198.066 375.871 198.023 377.074 197.99 378.278C196.662 379.117 195.89 380.358 195.901 382.162C194.878 382.664 194.138 383.478 193.779 384.706C192.31 385.972 190.852 387.238 189.383 388.504C189.002 388.892 188.621 389.268 188.241 389.657H187.718L187.196 389.669C158.155 389.669 129.124 389.669 100.083 389.669C95.9157 389.669 91.9006 389.268 89.2783 384.757C94.6426 386.298 99.9852 388.015 105.611 387.15C130.68 387.163 155.75 387.2 180.82 387.125C182.724 387.125 185.401 388.491 186.108 384.694C186.478 384.656 186.837 384.644 187.196 384.644Z" fill="#243F75"/>
<path d="M114.337 304.477C113.956 307.535 111.889 306.946 110.181 306.971C106.231 307.021 102.281 306.983 98.342 306.996C90.4642 307.021 86.1336 311.307 84.9911 320.38C84.7844 322.059 84.2947 323.087 82.7823 323.262C82.7823 318.713 82.989 314.164 82.7388 309.627C82.5103 305.454 84.0227 304.314 87.4502 304.402C96.3944 304.615 105.371 304.477 114.337 304.477Z" fill="#243F75"/>
<path d="M76.1993 322.285C76.0688 324.152 75.2527 325.819 73.6206 325.518C69.4205 324.741 65.079 324.177 61.6406 320.819C60.3349 319.54 59.3774 317.986 60.5416 316.006C61.51 314.352 62.9028 314.402 64.35 315.192C67.2661 316.771 70.2039 318.212 73.5009 318.437C75.4703 318.55 76.2102 320.154 76.1993 322.285Z" fill="#243F75"/>
<path d="M215.465 323.237C211.907 324.653 208.218 324.703 204.508 324.565C203.909 320.317 205.411 318.162 209.165 317.422C211.569 316.959 214.17 316.207 215.476 313.237C216.564 313.237 217.652 313.237 218.74 313.249C219.752 315.179 219.937 317.309 219.806 319.503C219.088 320.33 218.359 321.169 217.641 321.996C216.749 322.034 215.933 322.247 215.465 323.237Z" fill="#243F75"/>
<path d="M117.623 296.206C125.577 296.218 133.531 296.218 141.485 296.231C138.667 297.847 135.62 296.556 132.726 297.12C132.062 297.12 131.398 297.12 130.745 297.12C126.382 296.481 121.921 297.973 117.623 296.206Z" fill="#3F374C"/>
<path d="M82.7824 372.112C86.7213 373.403 84.2622 377.125 84.9477 379.656C82.8477 377.651 82.6518 374.944 82.7824 372.112Z" fill="#243F75"/>
<path d="M84.9475 379.668C86.3947 379.681 87.1346 380.496 87.0693 382.187C85.6765 382.112 84.991 381.247 84.9475 379.668Z" fill="#243F75"/>
<path d="M87.1021 382.225C88.5819 382.162 89.2891 382.989 89.2456 384.681C87.8746 384.631 87.1565 383.804 87.1021 382.225Z" fill="#243F75"/>
<path d="M143.694 296.318C144.423 296.318 145.152 296.318 145.87 296.318C145.511 296.832 145.141 297.346 144.782 297.86C144.423 297.333 144.053 296.82 143.694 296.318Z" fill="#1B1B3C"/>
<path d="M130.735 297.12C131.398 297.12 132.062 297.12 132.715 297.12C132.062 298.336 131.398 298.336 130.735 297.12Z" fill="#1B1B3C"/>
<path d="M87.0803 170.51C87.1021 161.976 87.2435 153.441 87.1021 144.907C87.0259 140.571 88.5384 138.954 92.2488 139.08C98.5706 139.28 104.903 139.205 111.225 139.105C114.761 139.042 118.341 139.782 121.693 137.15C123.096 136.06 125.697 135.671 126.35 139.13C120.496 142.551 114.196 141.624 107.994 141.661C103.478 141.686 98.9406 141.95 94.4358 141.586C90.3337 141.248 89.4959 143.077 89.1586 147.601C88.3534 158.642 91.1933 169.207 91.4545 180.047C91.6503 188.243 98.6577 196.714 105.839 196.752C125.544 196.827 145.25 196.627 164.955 196.902C169.373 196.965 172.67 194.083 173.377 190.674C174.302 186.187 176.533 182.027 176.359 177.164C176.174 171.964 176.293 166.75 176.337 161.55C176.359 159.57 175.804 157.151 178.491 156.7C178.491 156.7 178.687 156.712 178.698 156.712C178.633 165.66 178.6 174.595 178.502 183.543C178.393 193.769 173.029 200.399 164.128 200.486C143.357 200.687 122.585 200.662 101.802 200.474C92.7167 200.386 87.472 194.083 87.1674 183.618C87.0368 179.245 87.1021 174.871 87.0803 170.51Z" fill="#243F75"/>
<path d="M160.004 124.142C163.562 125.646 167.12 127.149 170.679 128.653C171.408 129.167 172.137 129.681 172.866 130.182C172.517 130.533 172.169 130.896 171.821 131.247C147.513 131.135 123.205 131.034 98.8969 130.884C96.9274 130.871 94.958 130.596 92.9885 130.445C93.217 130.057 93.4346 129.668 93.6631 129.28C104.501 124.292 115.686 121.009 127.372 120.182C138.384 120.031 149.287 121.059 160.004 124.142Z" fill="#E9E7EC"/>
<path d="M171.821 131.247C172.169 130.896 172.517 130.533 172.866 130.182C173.301 130.257 173.736 130.333 174.171 130.408C173.671 131.686 172.844 131.849 171.821 131.247Z" fill="#7E6669"/>
<path d="M93.6633 129.28C93.4348 129.668 93.2172 130.057 92.9887 130.445C92.3793 129.418 92.8907 129.242 93.6633 129.28Z" fill="#7E6669"/>
<path d="M146.947 221.302C119.408 221.402 91.8789 221.503 64.3392 221.59C63.8604 221.039 63.3381 220.951 62.7723 221.415C59.0293 221.026 60.15 217.693 60.1718 215.299C60.1935 212.868 60.7267 210.437 61.0314 208.006C63.5449 207.843 66.0583 207.68 68.561 207.517C74.0558 207.517 79.5399 207.517 85.0347 207.517C86.4275 208.068 87.842 208.068 89.2457 207.58C90.0182 207.592 90.7799 207.605 91.5524 207.617C94.7623 207.88 97.9722 208.143 101.182 208.394C100.257 210.349 98.4401 210.813 96.9167 211.778C87.1892 211.778 77.4507 211.765 67.7231 211.778C65.5905 211.778 63.3055 211.314 63.1749 215.224C63.0334 219.36 65.2423 219.309 67.7449 219.309C77.8315 219.272 87.9291 219.284 98.0157 219.284C114.326 219.284 130.626 219.284 146.936 219.284C146.947 219.974 146.947 220.638 146.947 221.302Z" fill="#AA9086"/>
<path d="M272.035 188.03C272.296 191.752 270.141 192.153 267.846 191.714C261.905 190.574 256.018 190.223 250.088 191.764C243.211 193.556 236.204 192.93 229.24 193.03C228.141 193.042 227.086 193.155 226.346 194.271C224.953 194.358 224.224 195.261 224.006 196.79C219.904 197.341 218.74 194.596 218.74 190.549C218.37 180.448 219.142 170.397 219.763 160.347C219.926 157.702 220.775 156.562 223.005 156.687C223.049 158.367 223.081 160.046 223.125 161.738C223.114 162.991 223.114 164.244 223.103 165.497C223.114 172.177 223.125 178.844 223.136 185.523C223.604 188.995 225.997 187.992 227.771 188.005C235.268 188.067 242.754 187.992 250.251 187.967C257.509 187.955 264.777 187.992 272.035 188.03Z" fill="#1A2551"/>
<path d="M274.918 195.712C275.571 199.346 274.624 200.863 271.077 200.8C260.523 200.624 249.957 200.863 239.403 200.938C238.315 200.95 237.216 200.963 236.128 200.975C234.321 201.013 232.515 201.051 230.72 201.088C228.511 200.035 224.289 202.73 224.67 196.815C226.03 194.797 227.978 195.524 229.697 195.474C235.823 195.286 241.96 195.223 248.097 195.11C249.185 195.11 250.273 195.11 251.372 195.123C252.101 195.123 252.819 195.135 253.548 195.135C260.664 195.336 267.791 195.524 274.918 195.712Z" fill="#FDFDFD"/>
<path d="M101.193 208.419C97.983 208.156 94.7731 207.893 91.5632 207.63C92.6404 206.59 93.9353 206.803 95.1866 206.803C120.996 206.79 146.806 206.778 172.615 206.778C173.867 206.778 175.162 206.565 176.239 207.592C162.344 207.793 148.46 207.981 134.565 208.194C132.584 208.219 130.604 208.382 128.624 208.469C119.473 208.457 110.333 208.432 101.193 208.419Z" fill="#3F374C"/>
<path d="M248.086 195.123C241.949 195.236 235.823 195.298 229.686 195.486C227.956 195.536 226.008 194.81 224.659 196.827L224.322 196.865L223.995 196.765C224.213 195.236 224.942 194.333 226.335 194.246C233.581 194.759 240.893 193.118 248.086 195.123Z" fill="#3F374C"/>
<path d="M230.709 201.101C232.515 201.063 234.321 201.025 236.117 200.988C234.365 204.096 232.559 203.995 230.709 201.101Z" fill="#21162C"/>
<path d="M209.97 207.642C206.39 208.194 202.799 208.169 199.219 207.642C202.799 206.251 206.39 206.251 209.97 207.642Z" fill="#3F374C"/>
<path d="M68.5719 207.529C66.0584 207.692 63.5449 207.855 61.0422 208.018C63.4578 205.938 66.004 206.539 68.5719 207.529Z" fill="#3F374C"/>
<path d="M219.741 207.555C217.619 208.181 215.486 208.144 213.354 207.617C215.476 206.301 217.597 206.364 219.741 207.555Z" fill="#3F374C"/>
<path d="M89.2566 207.592C87.8421 208.068 86.4384 208.068 85.0457 207.529C86.4602 206.452 87.8638 206.439 89.2566 207.592Z" fill="#3F374C"/>
<path d="M62.7722 221.427C63.338 220.951 63.8603 221.051 64.3391 221.603C63.9582 221.778 63.5774 221.954 63.1857 222.142C63.066 221.878 62.9354 221.64 62.7722 221.427Z" fill="#7E6669"/>
<path d="M223.125 161.7C223.081 160.021 223.049 158.342 223.005 156.65C223.038 144.205 223.19 131.761 223.027 119.33C222.962 114.517 224.42 112.663 228.674 112.763C238.032 112.988 247.4 112.788 256.758 112.75C257.857 112.8 258.967 112.838 260.066 112.888C261.143 116.485 256.693 116.197 256.78 119.091C253.907 118.715 251.872 119.781 251.47 123.39C251.067 127.012 253.548 126.385 255.343 126.811C256.377 127.049 256.638 128.052 256.79 129.092C254.44 129.092 252.101 129.067 249.751 129.104C246.53 129.155 243.124 128.465 240.469 131.323C235.681 136.461 231.264 141.712 232.754 150.434C233.375 154.043 232.885 157.903 232.907 161.637C229.632 159.093 226.356 154.306 223.125 161.7Z" fill="#243F75"/>
<path d="M257.889 105.081C248.14 105.143 238.402 105.206 228.652 105.281C227.129 105.294 225.627 105.168 225.606 102.825C225.584 100.456 227.107 100.344 228.62 100.344C238.369 100.381 248.118 100.431 257.857 100.481C257.868 102.01 257.879 103.552 257.889 105.081Z" fill="#BCB3B3"/>
<path d="M257.89 105.081C257.879 103.552 257.868 102.01 257.857 100.481C262.938 100.369 268.02 100.256 273.101 100.156C274.701 101.973 275.441 103.815 273.199 105.72C268.096 105.507 262.993 105.294 257.89 105.081Z" fill="#E9E7EC"/>
<path d="M302.088 140.082C302.218 138.955 302.36 137.827 302.49 136.699L302.567 136.787C307.724 132.751 313.393 132.714 319.062 134.556C331.02 138.453 342.924 139.957 354.915 134.907C355.002 136.348 355.078 137.802 355.165 139.243C355.122 144.231 355.067 149.231 355.024 154.219C354.839 154.594 354.806 154.995 354.915 155.409C354.893 159.181 354.882 162.941 354.86 166.713C354.719 167.089 354.643 167.477 354.621 167.878C349.398 172.026 343.664 172.753 337.636 171.036C333.632 169.896 329.725 168.229 325.678 167.39C317.419 165.673 308.986 163.279 301.5 170.36C301.5 170.36 301.304 170.385 301.304 170.372C301.435 168.329 301.566 166.287 301.707 164.257C303.067 156.211 302.382 148.14 302.088 140.082ZM304.601 151.562C304.601 152.389 304.601 153.228 304.601 154.056C304.678 165.773 303.84 164.47 313.176 164.031C322.022 163.617 330.694 164.783 339.061 167.502C347.124 170.122 352.499 166.525 352.521 156.988C352.521 154.494 352.445 151.988 352.521 149.494C352.706 144.043 350.584 141.499 345.742 141.536C342.162 141.561 338.593 141.925 334.981 140.96C327.582 138.992 320.226 136.523 312.523 136.611C306.255 136.674 304.721 138.453 304.623 145.922C304.59 147.815 304.612 149.682 304.601 151.562Z" fill="#B9967B"/>
<path d="M352.51 106.02C351.923 109.893 355.633 108.514 356.699 110.607C360.236 117.55 358.919 125.044 358.821 132.375C358.799 134.255 357.037 134.042 355.796 134.155C355.481 133.315 355.176 132.475 354.861 131.636C354.828 127.488 354.589 123.34 354.806 119.204C355.067 114.229 353.141 112.725 349.028 112.813C338.594 113.013 328.159 112.838 317.724 112.8C318.061 109.316 317.038 107.499 313.665 107.775C311.957 107.913 309.596 108.84 309.03 105.494C313.741 105.482 318.453 105.469 323.153 105.457C323.36 106.02 323.534 107.048 323.795 107.086C332.141 108.113 340.498 108.652 348.811 106.81C349.007 106.772 349.094 106.096 349.235 105.72C350.323 105.82 351.411 105.92 352.51 106.02Z" fill="#1B1B3C"/>
<path d="M359.017 190.511C346.471 192.955 333.86 192.065 321.304 191.087C316.625 190.724 311.957 190.736 307.289 190.561C304.971 190.473 303.339 190.01 303.524 186.839C308.617 186.814 313.698 186.776 318.779 186.751C327.049 186.764 335.308 186.801 343.577 186.801C354.741 186.801 354.741 186.789 354.697 174.194C354.719 173.768 354.752 173.342 354.774 172.916C358.06 173.417 359.289 175.56 359.061 179.345C358.843 183.042 359.017 186.776 359.017 190.511Z" fill="#1A2551"/>
<path d="M354.85 131.636C355.165 132.475 355.47 133.315 355.785 134.155C355.492 134.405 355.198 134.656 354.915 134.894C342.924 139.957 331.02 138.453 319.062 134.543C313.393 132.689 307.724 132.739 302.567 136.774C302.512 135.897 302.469 135.032 302.414 134.155C302.436 133.315 302.447 132.475 302.469 131.636C305.374 129.18 308.769 129.518 312.12 129.054C317.811 128.265 322.914 131.385 328.344 131.586C337.168 131.912 346.014 131.648 354.85 131.636Z" fill="#3F374C"/>
<path d="M354.784 172.904C354.763 173.33 354.73 173.756 354.708 174.182C346.732 174.182 338.768 174.182 330.792 174.169C330.215 170.786 327.843 171.763 326.048 171.751C317.811 171.663 309.574 171.713 301.337 171.701C301.392 171.249 301.446 170.786 301.5 170.335C308.986 163.254 317.419 165.648 325.678 167.364C329.726 168.204 333.632 169.871 337.636 171.011C343.664 172.728 349.387 172.001 354.621 167.853C354.676 169.545 354.73 171.224 354.784 172.904Z" fill="#3F374C"/>
<path d="M302.469 131.636C302.447 132.475 302.436 133.315 302.414 134.155C298.921 132.901 297.997 129.969 298.095 126.046C298.279 118.753 297.681 111.447 300.216 104.354C301.022 102.085 301.946 101.572 303.655 101.534C304.123 102.8 303.394 104.479 304.678 105.456C304.841 106.559 304.264 108.364 305.722 108.389C307.213 108.401 306.625 106.584 306.799 105.494C307.539 105.494 308.279 105.482 309.019 105.482C309.585 108.828 311.946 107.9 313.654 107.762C317.027 107.499 318.05 109.304 317.713 112.788C316.102 112.813 314.481 112.838 312.871 112.85C302.665 112.951 302.425 113.226 302.447 124.806C302.458 127.099 302.458 129.367 302.469 131.636Z" fill="#1A2551"/>
<path d="M304.678 105.469C303.394 104.492 304.112 102.812 303.655 101.547C304.634 99.8296 306.168 100.218 307.583 100.218C318.953 100.268 330.313 100.343 341.684 100.406C340.661 104.379 337.767 102.136 335.743 102.812C333.022 103.715 329.53 100.669 327.484 104.968C326.048 105.131 324.601 105.294 323.164 105.456C318.453 105.469 313.741 105.482 309.041 105.494C308.301 105.494 307.561 105.507 306.821 105.507C306.092 105.494 305.385 105.482 304.678 105.469Z" fill="#E9E7EC"/>
<path d="M327.462 104.968C329.508 100.682 333.001 103.727 335.721 102.812C337.745 102.136 340.639 104.379 341.662 100.406C344.905 99.8548 348.136 99.8924 351.379 100.431C351.64 101.083 351.966 101.221 352.412 100.632C354.186 102.386 353.522 104.191 352.51 106.008C351.411 105.908 350.323 105.807 349.224 105.707C341.978 105.469 334.72 105.218 327.462 104.968Z" fill="#BCB3B3"/>
<path d="M355.024 154.206C355.067 149.218 355.122 144.218 355.165 139.23C356.438 139.569 356.852 140.584 356.841 141.962C356.841 149.181 356.841 156.412 356.852 163.63C356.852 165.259 356.406 166.45 354.85 166.7C354.871 162.928 354.882 159.169 354.904 155.396C355.024 155.284 355.241 155.171 355.23 155.071C355.22 154.782 355.1 154.494 355.024 154.206Z" fill="#21162C"/>
<path d="M352.412 100.644C351.977 101.233 351.64 101.083 351.379 100.444C351.727 100.507 352.064 100.569 352.412 100.644Z" fill="#E9E7EC"/>
<path d="M146.947 221.302C146.947 220.638 146.947 219.974 146.947 219.309C148.046 216.527 152.225 216.126 151.3 211.803C170.515 211.803 189.731 211.803 208.947 211.803C208.577 214.297 207.456 216.653 207.859 219.297C207.859 219.999 207.848 220.7 207.848 221.402C187.555 221.916 167.251 221.991 146.947 221.302Z" fill="#B9967B"/>
<path d="M149.134 274.412C144.499 274.412 139.864 274.488 135.218 274.387C133.411 274.35 131.039 275.24 130.648 271.768C130.321 268.898 130.789 266.317 133.226 264.951C134.804 264.074 136.589 263.672 138.286 263.046C139.363 263.071 140.451 263.071 141.529 263.109C148.601 263.384 150.342 265.64 150.179 274.375C149.831 274.387 149.483 274.4 149.134 274.412Z" fill="#243F75"/>
<path d="M157.85 296.293C168.35 295.842 178.861 295.755 189.361 296.356C189.002 297.797 188.077 298.223 186.88 298.211C178.023 298.198 169.155 298.198 160.298 298.211C159.08 298.211 158.187 297.735 157.85 296.293Z" fill="#21162C"/>
<path d="M149.134 274.413C149.483 274.4 149.831 274.387 150.179 274.387C151.006 276.455 155.304 278.473 150.222 280.603C149.123 280.566 148.014 280.541 146.915 280.503C145.5 278.987 144.075 279.024 142.628 280.465C141.159 280.478 139.69 280.491 138.221 280.516C137.862 280.152 137.503 279.801 137.144 279.438C137.84 275.616 140.517 277.27 142.432 276.969C144.836 276.606 147.665 277.921 149.134 274.413Z" fill="#26213E"/>
<path d="M192.658 296.256C193.442 296.306 194.225 296.356 195.019 296.419C195.106 296.644 195.128 296.87 195.085 297.108L194.9 297.196C194.149 296.882 193.409 296.569 192.658 296.256Z" fill="#3F374C"/>
<path d="M195.085 297.108C195.183 297.221 195.281 297.333 195.378 297.434C195.226 297.359 195.063 297.271 194.911 297.196C194.9 297.196 195.085 297.108 195.085 297.108Z" fill="#21162C"/>
<path d="M369.844 324.428C358.103 325.781 347.222 331.283 335.699 333.701C332.522 334.365 329.367 335.243 326.168 335.757C324.862 335.97 323.001 336.508 322.403 334.416C321.717 332.022 323.447 330.969 324.981 330.418C330.835 328.35 336.733 326.42 342.63 324.515C349.181 322.397 355.742 320.355 362.292 318.287C363.511 318.024 364.73 317.798 365.948 317.485C367.863 316.996 370.17 316.044 371.498 317.936C373.249 320.455 370.866 322.397 369.844 324.428Z" fill="#243F75"/>
<path d="M281.262 196.1C281.088 195.148 281.501 194.647 282.263 194.434C281.925 194.985 281.599 195.536 281.262 196.1Z" fill="#21162C"/>
<path d="M272.035 188.03C264.777 187.992 257.519 187.967 250.262 187.929C250.327 186.714 250.109 185.185 251.263 184.621C253.298 183.606 254.712 182.215 254.081 179.495C253.319 176.237 250.893 176.738 248.76 176.738C245.474 176.738 243.069 175.134 241.622 171.7C243.407 171.826 245.529 171.274 246.932 172.177C253.472 176.387 258.379 172.114 263.08 168.154C270.163 162.189 270.457 153.291 269.804 144.218C271.904 145.27 273.906 147.025 276.376 145.421L276.572 145.433C276.518 157.802 276.354 170.171 276.441 182.541C276.463 186.313 275.756 188.593 272.035 188.03Z" fill="#243F75"/>
<path d="M253.537 195.148C252.808 195.148 252.09 195.135 251.361 195.135C252.09 194.095 252.808 194.108 253.537 195.148Z" fill="#3F374C"/>
<path d="M178.48 156.687C175.803 157.138 176.348 159.557 176.326 161.537C176.282 166.738 176.163 171.951 176.348 177.152C176.522 182.014 174.291 186.175 173.366 190.661C172.659 194.07 169.373 196.952 164.944 196.89C145.239 196.614 125.533 196.827 105.828 196.739C98.6467 196.714 91.6393 188.243 91.4435 180.034C91.1823 169.194 88.3315 158.617 89.1476 147.589C89.4849 143.065 90.3118 141.235 94.4248 141.574C98.9187 141.937 103.456 141.674 107.983 141.649C114.185 141.611 120.485 142.539 126.339 139.117C127.024 139.117 127.721 139.117 128.406 139.117C139.331 139.105 150.244 139.105 161.169 139.092C165.521 139.092 169.873 139.293 174.215 139.042C177.599 138.854 178.741 140.421 178.567 144.155C178.371 148.328 178.502 152.514 178.48 156.687ZM174.139 154.131C174.16 144.644 171.527 142.075 164.705 141.549C158.078 141.047 151.528 143.955 144.891 141.724C143.269 141.185 141.866 142.802 140.386 143.253C134.586 145.007 129.516 151.637 123.183 148.767C115.752 145.396 107.852 147.426 100.388 144.481C95.6435 142.601 91.9549 148.178 92.4663 154.018C93.13 161.474 94.5989 168.693 97.5586 175.247C99.5824 179.733 99.0601 186.776 103.826 188.406C110.561 190.699 116.622 195.449 124.424 194.521C132.378 193.569 140.375 193.03 148.253 191.388C150.832 190.849 153.617 189.997 154.542 186.313C155.413 182.804 156.925 182.303 158.938 185.36C160.015 186.989 161.419 187.052 162.79 186.175C164.553 185.06 164.009 183.643 163.084 182.027C160.94 178.255 163.693 175.974 165.63 174.32C172.137 168.768 171.212 159.632 174.139 154.131Z" fill="#1D457D"/>
<path d="M161.169 139.105C150.244 139.117 139.331 139.117 128.406 139.13C128.7 137 129.984 136.674 131.573 136.674C140.375 136.699 149.189 136.686 157.992 136.661C159.58 136.649 160.853 137 161.169 139.105Z" fill="#243F75"/>
<path d="M182.876 150.421C185.031 150.572 185.063 152.301 184.976 154.131C182.724 154.068 182.865 152.201 182.876 150.421Z" fill="#1B1B3C"/>
<path d="M301.337 171.713C309.574 171.713 317.811 171.675 326.048 171.763C327.843 171.788 330.215 170.798 330.792 174.182C327.049 174.42 322.261 172.904 321.238 178.969C320.749 181.851 319.541 184.145 318.79 186.751C313.709 186.777 308.616 186.814 303.535 186.839C301.478 182.052 301.272 176.914 301.337 171.713Z" fill="#243F75"/>
<path d="M352.521 195.436C345.992 195.286 339.464 195.148 332.935 194.997C339.497 193.92 346.036 193.23 352.521 195.436Z" fill="#3F374C"/>
<path d="M353.37 197.015C353.109 196.501 352.847 195.987 352.597 195.474C353.25 195.712 353.522 196.213 353.37 197.015Z" fill="#3F374C"/>
<path d="M127.318 112.888C127.764 105.732 128.276 105.294 136.121 105.219C136.556 107.549 139.984 108.427 138.667 111.484C137.285 114.718 134.478 114.079 131.986 114.166C130.31 114.216 128.787 113.74 127.318 112.888Z" fill="#243F75"/>
<path d="M127.318 112.888C128.787 113.74 130.31 114.216 131.986 114.166C134.488 114.078 137.285 114.718 138.667 111.484C139.983 108.427 136.556 107.549 136.121 105.218C139.352 104.792 143.4 108.928 143.443 113.076C143.487 117.236 140.571 116.535 138.319 116.597C135.261 116.685 132.193 116.673 129.124 116.585C126.883 116.51 125.403 115.745 127.318 112.888Z" fill="#1A2551"/>
<path d="M198.088 374.656C198.077 371.31 198.066 367.951 198.055 364.605C198.077 357.913 198.11 351.221 198.131 344.529C201.287 345.356 200.21 348.326 200.166 350.469C200.09 353.614 200.612 356.046 203.463 357.111C200.34 360.407 199.883 364.58 200.177 369.167C200.318 371.222 201.08 374.004 198.088 374.656Z" fill="#1A2551"/>
<path d="M219.795 319.503C219.926 317.309 219.741 315.192 218.729 313.249C220.394 311.294 221.362 312.798 221.71 314.39C222.146 316.432 222.788 318.989 219.795 319.503Z" fill="#1A2551"/>
<path d="M215.465 323.237C215.943 322.247 216.749 322.034 217.641 321.996C217.434 323.638 217.195 325.167 215.465 323.237Z" fill="#1A2551"/>
<path d="M195.89 382.137C195.879 380.333 196.651 379.092 197.979 378.252C198.109 380.145 198.164 381.974 195.89 382.137Z" fill="#1A2551"/>
<path d="M193.768 384.681C194.138 383.453 194.867 382.638 195.89 382.137C195.879 383.754 195.172 384.593 193.768 384.681Z" fill="#1A2551"/>
<path d="M188.229 389.631C188.61 389.243 188.991 388.867 189.372 388.479C188.991 388.854 188.61 389.243 188.229 389.631Z" fill="#1A2551"/>
<path d="M250.033 340.531C252.177 344.541 251.198 347.85 248.314 350.745C248.891 347.349 249.457 343.94 250.033 340.531Z" fill="#E9E7EC"/>
<path d="M276.365 145.421C273.895 147.025 271.893 145.283 269.793 144.218C268.683 141.724 267.019 139.543 266.649 136.649C267.508 136.849 268.542 136.774 269.206 137.313C270.49 138.328 271.578 140.609 273.221 139.644C275.114 138.528 274.07 135.909 274.157 133.967C274.298 130.658 274.244 127.337 274.189 124.016C274.08 117.725 271.545 115.369 266.235 117.011C263.123 117.976 260.153 119.567 256.812 119.129L256.791 119.104C256.704 116.209 261.154 116.497 260.077 112.9C261.524 112.888 262.971 112.875 264.418 112.863C265.876 114.617 267.323 114.605 268.77 112.863C270.62 113.101 272.666 112.098 274.254 114.003C274.211 115.683 274.929 116.547 276.376 116.622C276.365 126.222 276.365 135.821 276.365 145.421Z" fill="#1D457D"/>
<path d="M268.76 112.863C267.312 114.617 265.854 114.617 264.407 112.863C265.865 112.863 267.312 112.863 268.76 112.863Z" fill="#243F75"/>
<path d="M276.365 116.623C274.918 116.547 274.2 115.683 274.244 114.003C275.625 114.154 276.354 114.993 276.365 116.623Z" fill="#243F75"/>
<path d="M302.088 140.082C302.382 148.153 303.067 156.223 301.707 164.256C301.413 156.186 300.717 148.103 302.088 140.082Z" fill="#7E6669"/>
<path d="M137.165 279.438C137.524 279.801 137.883 280.152 138.243 280.515C133.901 280.879 129.56 281.255 125.218 281.618C125.218 280.891 125.218 280.177 125.218 279.45C129.19 279.438 133.172 279.438 137.165 279.438Z" fill="#1B1B3C"/>
<path d="M364.447 397.226C367.45 397.025 370.464 396.825 373.467 396.624C377.515 400.371 374.718 405.334 375.219 409.708C373.804 409.683 372.39 409.658 370.975 409.632C371.345 408.818 371.704 408.003 372.074 407.189C373.967 406.938 374.62 405.509 373.935 403.742C373.14 401.7 371.846 400.071 369.659 399.67C367.798 399.331 365.132 400.998 364.447 397.226Z" fill="#AA9086"/>
<path d="M263.493 341.383C262.264 351.747 261.143 362.036 259.75 372.275C259.38 375.019 258.031 377.588 254.963 376.874C252.493 376.297 251.328 374.418 251.785 371.372C253.352 360.958 254.81 350.532 256.475 340.143C256.932 337.285 256.693 332.862 260.523 333.35C264.723 333.889 263.014 338.451 263.493 341.383Z" fill="#FDFDFD"/>
<path d="M364.447 397.226C365.132 400.998 367.787 399.331 369.659 399.67C371.846 400.071 373.151 401.7 373.935 403.742C374.62 405.509 373.968 406.951 372.074 407.189C369.909 408.028 366.743 405.196 365.557 409.57C352.848 409.57 340.15 409.582 327.441 409.582C324.818 405.973 321.369 402.84 322.011 397.314C334.35 397.301 346.689 397.276 359.017 397.263C359.376 397.928 359.735 397.915 360.083 397.251C361.552 397.238 363 397.238 364.447 397.226Z" fill="#B28E70"/>
<path d="M74.0558 409.62C72.6304 409.62 71.2049 409.62 69.7795 409.633C71.2049 407.953 72.6304 407.953 74.0558 409.62Z" fill="#B9967B"/>
<path d="M67.647 397.326C68.6807 397.326 69.7144 397.326 70.748 397.326C69.7144 398.742 68.6807 398.73 67.647 397.326Z" fill="#B9967B"/>
<path d="M81.6725 409.62C80.9762 409.62 80.2689 409.62 79.5725 409.62C80.2689 408.417 80.9653 408.417 81.6725 409.62Z" fill="#B9967B"/>
<path d="M365.578 409.57C366.764 405.196 369.93 408.028 372.096 407.189C371.726 408.003 371.367 408.818 370.997 409.632C369.18 409.62 367.373 409.595 365.578 409.57Z" fill="#B9967B"/>
<path d="M360.105 397.251C359.757 397.915 359.398 397.928 359.039 397.263C359.398 397.213 359.746 397.213 360.105 397.251Z" fill="#AA9086"/>
<path d="M207.87 219.297C207.467 216.653 208.588 214.297 208.958 211.803C219.599 211.803 230.23 211.866 240.872 211.753C244.549 211.715 248.282 212.592 251.731 209.66C254.233 207.542 256.638 211.803 259.206 210.976C268.433 207.981 277.834 209.898 287.148 209.284C291.022 209.033 294.667 209.823 298.127 211.803C298.954 214.911 296.539 216.765 295.94 219.322C266.583 219.309 237.227 219.31 207.87 219.297Z" fill="#B28E70"/>
<path d="M151.311 211.803C152.225 216.126 148.046 216.54 146.958 219.309C130.648 219.309 114.348 219.309 98.0375 219.309C97.6458 216.816 96.5577 214.447 96.9385 211.803C98.451 210.825 100.268 210.362 101.204 208.419C110.344 208.444 119.484 208.457 128.635 208.482C136.034 210.951 143.531 212.668 151.311 211.803Z" fill="#B28E70"/>
<path d="M295.94 219.309C296.539 216.753 298.954 214.898 298.127 211.79C318.061 211.79 338.006 211.79 357.94 211.79C357.559 214.447 358.658 216.803 359.039 219.309C338.006 219.322 316.973 219.309 295.94 219.309Z" fill="#B9967B"/>
<path d="M359.028 219.322C358.647 216.816 357.548 214.46 357.929 211.803C361.237 211.414 363.935 208.369 367.624 209.196C369.463 209.61 370.997 210.199 372.542 211.377C374.446 212.83 374.326 214.823 374.12 216.903C373.859 219.61 371.998 219.284 370.409 219.297C366.623 219.335 362.825 219.31 359.028 219.322Z" fill="#B28E70"/>
<path d="M286.147 207.692C286.517 207.141 286.887 207.153 287.257 207.705C286.887 207.692 286.517 207.692 286.147 207.692Z" fill="#3F374C"/>
<path d="M186.108 384.656C185.401 388.454 182.724 387.088 180.82 387.088C155.75 387.163 130.68 387.125 105.611 387.113C106.34 383.328 109.016 384.694 110.931 384.694C135.99 384.619 161.049 384.656 186.108 384.656Z" fill="#1D457D"/>
<path d="M142.638 280.465C144.075 279.037 145.511 278.987 146.926 280.503C145.489 280.491 144.064 280.478 142.638 280.465Z" fill="#1B1B3C"/>
<path d="M96.9275 211.803C96.5466 214.447 97.6347 216.816 98.0265 219.31C87.9398 219.31 77.8423 219.297 67.7556 219.335C65.253 219.347 63.0442 219.385 63.1856 215.249C63.3162 211.327 65.6012 211.803 67.7339 211.803C77.4723 211.79 87.1999 211.803 96.9275 211.803Z" fill="#B9967B"/>
<path d="M241.612 171.688C243.059 175.122 245.463 176.726 248.749 176.726C250.882 176.726 253.309 176.225 254.07 179.483C254.701 182.202 253.298 183.606 251.252 184.609C250.099 185.185 250.327 186.701 250.251 187.917C242.754 187.942 235.268 188.03 227.771 187.955C225.997 187.942 223.604 188.945 223.136 185.473C224.811 178.794 224.844 172.114 223.103 165.447C223.114 164.194 223.114 162.941 223.125 161.688C226.356 154.294 229.632 159.081 232.896 161.637L232.907 161.663C233.418 167.615 236.41 171.061 241.59 171.663L241.612 171.688Z" fill="#1D457D"/>
<path d="M223.103 165.459C224.844 172.126 224.811 178.806 223.136 185.486C223.125 178.806 223.114 172.139 223.103 165.459Z" fill="#243F75"/>
<path d="M266.649 136.636C267.019 139.531 268.683 141.724 269.793 144.205C270.446 153.279 270.141 162.176 263.069 168.142C258.368 172.102 253.45 176.375 246.921 172.164C245.518 171.262 243.396 171.801 241.612 171.688L241.59 171.676C239.49 167.427 236.595 164.094 232.907 161.675L232.896 161.65C232.874 157.903 233.364 154.056 232.744 150.446C231.253 141.724 235.671 136.473 240.458 131.335C243.113 128.478 246.519 129.167 249.74 129.117C252.09 129.079 254.429 129.104 256.78 129.104C258.205 129.167 259.63 129.23 261.056 129.28C262.927 131.736 264.788 134.192 266.649 136.636ZM237.139 142.677C232.602 153.391 236.215 164.144 245.518 168.919C254.897 173.731 264.2 165.046 266.453 157.377C269.641 146.511 264.559 134.481 255.735 131.623C246.856 128.754 239.457 133.165 237.139 142.727V142.677Z" fill="#3F374C"/>
<path d="M261.067 129.28C259.641 129.217 258.216 129.154 256.791 129.104C256.649 128.064 256.388 127.062 255.343 126.823C253.548 126.41 251.067 127.024 251.47 123.402C251.872 119.806 253.907 118.728 256.78 119.104L256.801 119.129C255.441 124.054 259.772 125.821 261.067 129.28Z" fill="#1D457D"/>
<path d="M304.601 151.562C304.612 149.694 304.591 147.815 304.612 145.947C304.71 138.478 306.244 136.699 312.512 136.636C320.227 136.548 327.571 139.017 334.97 140.985C338.583 141.95 342.152 141.586 345.731 141.561C350.563 141.524 352.684 144.068 352.51 149.519C352.423 152.013 352.51 154.507 352.51 157.013C352.489 166.55 347.124 170.147 339.051 167.527C330.694 164.808 322.022 163.642 313.165 164.056C303.829 164.495 304.667 165.798 304.591 154.081C304.591 153.216 304.601 152.389 304.601 151.562Z" fill="#F2B84C"/>
<path d="M355.024 154.206C355.1 154.494 355.22 154.782 355.241 155.083C355.252 155.171 355.024 155.296 354.915 155.409C354.806 154.983 354.839 154.582 355.024 154.206Z" fill="#3F374C"/>
<path d="M302.469 131.636C302.469 129.368 302.458 127.087 302.458 124.818C302.436 113.239 302.675 112.963 312.882 112.863C314.492 112.85 316.113 112.825 317.724 112.8C328.159 112.825 338.593 113.001 349.028 112.813C353.141 112.738 355.056 114.229 354.806 119.204C354.588 123.327 354.828 127.488 354.86 131.636C346.025 131.648 337.179 131.912 328.354 131.586C322.925 131.385 317.822 128.265 312.131 129.054C308.769 129.518 305.374 129.18 302.469 131.636Z" fill="#1D457D"/>
<path d="M327.462 104.968C334.72 105.218 341.967 105.469 349.224 105.72C349.083 106.096 348.996 106.772 348.8 106.81C340.476 108.652 332.13 108.101 323.785 107.086C323.523 107.048 323.36 106.02 323.143 105.457C324.59 105.294 326.026 105.131 327.462 104.968Z" fill="#26213E"/>
<path d="M318.79 186.751C319.541 184.145 320.749 181.864 321.238 178.969C322.261 172.904 327.049 174.42 330.792 174.182C338.767 174.182 346.732 174.182 354.708 174.194C354.741 186.802 354.741 186.802 343.588 186.802C335.318 186.802 327.049 186.764 318.79 186.751Z" fill="#1D457D"/>
<path d="M304.677 105.469C305.385 105.482 306.092 105.494 306.799 105.507C306.625 106.597 307.213 108.427 305.722 108.401C304.253 108.389 304.83 106.572 304.677 105.469Z" fill="#1B1B3C"/>
<path d="M174.139 154.131C171.201 159.632 172.137 168.768 165.652 174.332C163.715 175.999 160.962 178.28 163.105 182.039C164.019 183.656 164.564 185.072 162.812 186.187C161.441 187.052 160.026 187.002 158.96 185.373C156.947 182.315 155.434 182.816 154.564 186.325C153.639 190.022 150.854 190.874 148.275 191.401C140.397 193.03 132.389 193.581 124.445 194.534C116.644 195.474 110.583 190.724 103.848 188.418C99.0819 186.789 99.6042 179.746 97.5804 175.26C94.6208 168.705 93.1518 161.487 92.4881 154.03C91.9658 148.191 95.6544 142.614 100.409 144.494C107.874 147.439 115.773 145.408 123.205 148.78C129.527 151.649 134.608 145.02 140.408 143.265C141.888 142.814 143.291 141.198 144.913 141.737C151.539 143.955 158.1 141.047 164.727 141.561C171.527 142.075 174.161 144.644 174.139 154.131Z" fill="#144A88"/>
<path d="M261.067 129.28C259.772 125.821 255.441 124.054 256.79 119.116C260.131 119.555 263.101 117.963 266.213 116.998C271.523 115.357 274.058 117.713 274.167 124.004C274.222 127.325 274.276 130.646 274.135 133.954C274.048 135.897 275.103 138.516 273.199 139.631C271.556 140.596 270.468 138.315 269.184 137.3C268.52 136.774 267.486 136.836 266.627 136.636C264.788 134.192 262.927 131.736 261.067 129.28Z" fill="#144A88"/>
<path d="M232.907 161.675C236.595 164.093 239.49 167.427 241.59 171.675C236.421 171.074 233.429 167.627 232.907 161.675Z" fill="#243F75"/>
<path d="M237.139 142.714C239.457 133.152 246.856 128.741 255.735 131.611C264.559 134.468 269.641 146.511 266.453 157.364C264.2 165.034 254.908 173.718 245.518 168.906C236.215 164.131 232.613 153.379 237.139 142.664C237.172 145.985 237.107 149.318 237.281 152.627C237.542 157.878 242.232 166.124 245.801 166.425C251.502 166.901 257.9 169.106 261.991 161.813C264.973 156.499 266.333 151.574 263.787 144.732C259.511 133.24 248.107 129.869 240.556 138.967C239.479 140.27 239.054 142.438 237.139 142.714Z" fill="#BCB3B3"/>
<path d="M237.139 142.714C239.065 142.438 239.49 140.27 240.556 138.979C248.107 129.894 259.511 133.252 263.787 144.744C266.333 151.587 264.962 156.512 261.991 161.825C257.9 169.119 251.502 166.913 245.801 166.437C242.232 166.136 237.542 157.89 237.281 152.639C237.118 149.331 237.183 145.997 237.139 142.676V142.714Z" fill="#F2B84C"/>
</g>
<defs>
<clipPath id="clip0_5_528">
<rect width="457" height="490" fill="white"/>
</clipPath>
</defs>
</svg>
