<svg version="1.2" xmlns="http://www.w3.org/2000/svg" viewBox="0 0 457 490" width="457" height="490">
	<defs>
		<clipPath clipPathUnits="userSpaceOnUse" id="cp1">
			<path d="m0 0h457v490h-457z"/>
		</clipPath>
	</defs>
	<style>
		.s0 { fill: #21162c } 
		.s1 { fill: #26213e } 
		.s2 { fill: #1a2551 } 
		.s3 { fill: #1b1b3c } 
		.s4 { fill: #e9e7ec } 
		.s5 { fill: #3f374c } 
		.s6 { fill: #7e6669 } 
		.s7 { fill: #bcb3b3 } 
		.s8 { fill: #b9967b } 
		.s9 { fill: #b28e70 } 
		.s10 { fill: #aa9086 } 
		.s11 { fill: #fdfdfd } 
		.s12 { fill: #144a88 } 
		.s13 { fill: #1d457d } 
		.s14 { fill: #243f75 } 
		.s15 { fill: #f2b84c } 
	</style>
	<g id="Clip-Path" clip-path="url(#cp1)">
		<g>
			<path class="s0" d="m233.95 389.58c2.13-0.15 4.26-0.31 6.95-0.51-5.37-12.16-1.66-24.01 0.33-35.93 1.66 1.06 1.26 2.56 0.84 4.26-0.65 2.64-1.02 5.36 0.46 8.07 3.28-3.46 1.12-9.42 5.18-11.93-0.9 8.02-3.32 15.77-3.06 23.99 0.27 8.24 2.24 10.71 9.36 11.01 7.05 0.3 14.1 0.42 21.15 0.61 0.92 4.09 2.86 6.11 6.85 5.53 3.17-0.46 6.43-0.09 9.65-0.09 5.61 0 11.21 0 17.05 0-0.84-3.44-4.04-3-4-5.91 1.71-0.7 3.1-1.8 4.42-3.35 5.87-6.91 3.52-15.35 2.59-22.9-1.18-9.48-4.11-18.66-6.29-27.96q-0.06-4.33-0.12-8.66 0.29-0.63 0.58-1.23c1.51 1.69 0.71 3.88 0.96 5.85 0.67 5.46 3.77 11.09 7.29 11.81 3.94 0.8 9.12 1.39 13.37-1.42 3.26-0.24 6.43-2.06 9.8-0.86-5.56 1.75-11.05 3.79-16.68 5.15-3.93 0.94-5.61 2.3-4.2 7.38 1.31 4.71 1.58 9.8 2.45 14.7 1.37 7.64 1.27 14.92-4.96 22.53 15.39 0 29.17 0 42.95 0-0.4 3.65 0.81 5.25 4.18 5.06 2.21-0.12 4.66-0.97 6.69 1.01-3.05 0.07-6.11 0.2-9.16 0.22q-25.33 0.25-50.67 0.49-17.89 0.11-35.79 0.21c-3.62-0.94-7.26-0.85-10.88-0.03q-1.14-0.01-2.29-0.02c-1.8-0.17-3.58-0.51-5.38-0.51q-93.22-0.07-186.45-0.09c-1.78 0-3.64-0.43-5.31 0.75q-0.51 0.65-1.02 1.29c-2.54 11.93-1.92 12.87 8.33 12.87q150.22 0 300.45-0.05c2.1 0 4.39 0.81 6.22-1.21 1.82-2.8-1.35-7.98 3.69-9.69 0.77-0.25 0.19-5.81 0.23-8.92 2.4 0.34 2.04 2.53 2.06 4.28 0.1 5.63 0.02 11.27 0.15 16.9 0.08 3.39-1.21 5.05-4.11 5.17-1.99 0.08-3.98 0.27-5.98 0.27q-67.89 0.03-135.78 0.01c-0.72 0-1.43-0.18-2.14-0.27 0.73-2.4 3.37-0.48 4.49-2.7-6.09 0-11.97 0-17.84 0-1.78 0-3.73-0.31-3.96 2.7-26.75 0.16-53.5 0.36-80.25 0.46-25.14 0.1-50.26 0.1-75.39 0.16-6.46 0.01-7.23-0.8-7.3-8.08-0.03-4.38 0.19-8.76-0.04-13.12-0.27-5.26 1.33-7.66 6.19-7.44 7.23 0.34 14.46 0.14 21.7 0.17q1.2 0.04 2.39 0.08c0.35 3.36 2.64 2.29 4.34 2.5q47.31 0 94.61 0.01c0.41 3.08 2.5 2.47 4.21 2.47 14.24 0.02 28.48-0.09 42.72 0.09 3.43 0.01 4.56-1.54 4.17-5.18zm-30.39 25.45q0 0.29-0.01 0.58 4.3 0 8.61 0-0.01-0.29 0.01-0.58-4.31 0-8.61 0zm-5.34 0.18c-1.26-0.69-2.38-0.85-3.57 0.2 1.25 0.7 2.38 0.89 3.57-0.2zm-17.25-0.03c-0.15-0.06-0.3-0.16-0.46-0.16-0.05 0-0.09 0.28-0.14 0.43 0.16 0.06 0.31 0.16 0.46 0.16 0.05 0 0.1-0.28 0.14-0.43z"/>
			<path class="s1" d="m359.7 198.09c0.37 3.22 2.46 2.84 4.44 2.95 5.16 0.3 10.36-0.9 15.5 0.51q0.51 0.73 1.02 1.45c2.6 7.4 1.38 15.02 0.75 22.53-0.34 3.98-3.42 3.38-5.88 3.39-23.89 0.05-47.78 0.14-71.69 0.14q-79.02 0.01-158.05-0.04c-1.43 0-2.87-0.2-4.3-0.3 0.3-2.18-3.16-1.33-2.32-4.41q17.55 0 35.18 0c64.65 0 129.31 0.03 193.96-0.07 2.03 0 4.92 1.7 5.94-2.3 2.44-4.59 1.65-9.15-0.09-13.71-0.08-0.83-0.33-1.21-0.99-0.48q-4.91-0.01-9.83-0.02c-3.2-1.55-6.43-1.37-9.67-0.17q-26.15-0.02-52.3-0.02-0.54-0.43-1.08-0.86c-0.04-2.76-3.22-2.97-3.42-5.59 1.16-2.48 0.5-4.71-0.76-6.84h0.47l0.47 0.01c1.35 1.2 1.82 2.93 2.16 4.75 0.74 3.84 2.44 3.36 4.47 1.25q1.58 0.4 3.17 0.79c5.28 4.35 11.21 0.98 16.79 1.84 0.97 0.15 1.45-0.99 1.68-2.04 7.93-0.07 15.87-0.24 23.81-0.16 2.48 0.02 4.27-0.34 4.29-3.75 2.03 0.73 0.46 4.64 3.33 4.77 2.39 0.13 1.96-2.43 2.95-3.62z"/>
			<path class="s2" d="m182.83 392.18q-47.3-0.01-94.61-0.02c-0.36-3.36-2.63-2.27-4.34-2.49-7-11.73-5.36-25.1-5.44-38.14-0.02-3.94 0.07-7.9-0.02-11.85-0.12-4.9-2.58-8.84-6.28-9.7-3.05-0.7-5.69-2.31-8.6-3.21-4.8-1.49-7.83-7.12-6.63-11.05 1.22-4.01 6.11-5.03 11.32-2.33 0.33 0.16 0.6 0.55 0.93 0.62 2.82 0.63 5.92 1.68 8.28-0.7 2.36-2.38-0.22-4.77-0.72-7.24-0.61-3.03-1.87-6.89 1.14-9.14 3.15-2.34 5.78-0.36 7.85 2.67 1.21 1.78 2.78 2.45 4.73 2.42 5.61-0.08 11.22 0.25 16.8-0.15 3.32-0.24 7-0.75 8.2-5.58q1.09-0.04 2.19-0.06c4.3 1.76 8.76 0.28 13.12 0.91q0.99 1.83 1.98 0c2.9-0.56 5.94 0.74 8.76-0.88q1.1 0.03 2.2 0.07 0.55 0.77 1.09 1.53 0.55-0.77 1.09-1.54 3.25-0.02 6.51-0.03c1.68 2.56 4.08 3.9 6.68 4.39 11.06 2.11 22.25 1.18 33.38 1.28 2.87 0.02 5.44-3.27 8.25-1.87 3.55 1.77 0.29 6.79 2.67 9.41q0.8 1.15 1.59 2.3c-0.61 0.35-1.5 0.52-1.77 1.09-0.44 0.88 0.27 1.49 1.03 1.51 1.91 0.05 3.92 0.75 5.61-0.91 1.84-1.82 3.7-2.23 5.64-0.23-1.3 2.98-3.89 3.72-6.31 4.19-3.74 0.72-5.25 2.89-4.65 7.14-3.18-0.51-4.2 1-4.41 4.74-0.2 3.42 2.24 7.82-1.97 10.27-0.03-9.56-0.23-19.12-0.01-28.68 0.11-4.9-1.43-6.57-5.67-6.49-13.71 0.22-27.43 0.08-41.15 0.08q-18.47-0.01-36.96-0.02c-8.97 0-17.95 0.14-26.91-0.06-3.42-0.08-4.93 1.05-4.71 5.22 0.24 4.53 0.04 9.09 0.04 13.64q0.01 24.42 0.01 48.83c-0.13 2.84 0.08 5.56 2.17 7.55v0.01c0.04 1.58 0.72 2.44 2.12 2.52l0.03 0.04q0.08 2.37 2.14 2.45l0.04 0.04c2.61 4.51 6.63 4.91 10.8 4.91q43.56 0 87.11 0c-0.32 3.37-2.63 2.26-4.34 2.54zm-106.62-69.91c0.01-2.12-0.74-3.72-2.7-3.86-3.31-0.22-6.23-1.67-9.15-3.24-1.45-0.78-2.84-0.83-3.81 0.81-1.16 1.98-0.2 3.55 1.1 4.81 3.45 3.37 7.79 3.93 11.98 4.7 1.63 0.33 2.44-1.34 2.58-3.22z"/>
			<path class="s3" d="m179.66 199.3q0.29 1.06 0.59 2.13c-4.51 3.31-9.56 2.89-14.58 2.88-16.06-0.04-32.12 0.04-48.17-0.03-11.13-0.05-22.6 2.13-32.53-6.25 0.08-2.81-0.09-5.51-2.17-7.48 0-9.88 0.04-19.75-0.04-29.64-0.01-2.06 0.88-4.79-2.06-5.48-2.41-2.39-5.33-3.32-8.4-3.84-2.31-0.4-4.62-0.98-6.49-2.81-1.86-1.83-2.45-4.16-1.53-6.73 1.05-2.88 3.2-2.22 5.12-1.59 2.41 0.79 4.76 1.89 7.17 2.72 1.24 0.42 2.83 2.08 3.74-0.12 0.59-1.4 0.5-3.45-0.69-4.67-4.37-4.46-1.54-7.11 1.75-9.57 10.76-8.1 22.84-12.04 35.3-14.77 1.4-0.31 2.76-0.85 4.14-1.28 0.35 3.98-3.36 3.29-5.21 5.34 4.06 2.42 8.3-0.56 11.76 2.1-11.68 0.82-22.87 4.12-33.71 9.09-0.78-0.03-1.28 0.13-0.67 1.17 1.97 0.15 3.94 0.43 5.91 0.44q36.46 0.2 72.92 0.36c1.02 0.6 1.84 0.45 2.35-0.84 1.4 0.04 2.1 0.88 2.14 2.47-4.49 2.47-9.28 1.27-13.89 1.19-22.75-0.4-45.48 0.72-68.22 1.35-7.39 0.21-9.23 2.44-9.24 10.82q-0.03 9.68 0.02 19.37c0.01 1.98-0.54 4.39 2.1 4.93 0.02 4.37-0.04 8.73 0.08 13.11 0.3 10.46 5.54 16.77 14.63 16.85q31.16 0.3 62.33 0.02c8.9-0.09 14.26-6.72 14.37-16.95 0.1-8.95 0.13-17.88 0.2-26.83 1.38 0.38 2.78-2.29 4.16 0.03 0.5 13.41-0.33 26.72-2.22 39.95l-0.01 0.07c-1.36 0.27-2.71 0.59-0.95 2.49z"/>
			<path class="s1" d="m84.97 198.02c9.92 8.38 21.4 6.2 32.53 6.25 16.06 0.06 32.11-0.01 48.17 0.03 5.02 0.01 10.08 0.44 14.58-2.89 1.19-0.65 2.38-0.57 3.56 0.02 1.82 2.26 3.65 2.55 5.47 0.02q14.32-0.42 28.63-0.84c0.69-0.3 0.82-0.84 0.53-1.58-3.26-9.99-1.45-20.39-1.82-30.61-0.22-5.98 0.04-11.98 0.09-17.97 2.04 10.74 0.35 21.63 0.95 32.42 0.14 2.57-0.87 5.38 1.06 7.63 0 4.05 1.15 6.79 5.26 6.24l0.33 0.1 0.34-0.04c-0.38 5.93 3.83 3.22 6.05 4.27 1.85 2.9 3.65 3 5.41-0.11q1.63-0.02 3.27-0.04c0.47 2.5 4.36 2.57 3.27 6.16-7.63 1.28-15.29 0.54-22.93 0.45-2.13-1.19-4.27-1.25-6.39 0.06q-1.69 0.02-3.38 0.03-5.38-2.09-10.75-0.02-11.49-0.01-22.98-0.03c-1.08-1.03-2.38-0.82-3.63-0.82q-38.71 0.01-77.43 0.03c-1.25 0-2.54-0.22-3.62 0.82q-1.15-0.01-2.31-0.03c-1.39-1.17-2.79-1.14-4.21-0.07q-8.23 0-16.47 0c-2.57-1-5.11-1.59-7.53 0.49-0.3 2.43-0.84 4.86-0.86 7.3-0.02 2.39-1.14 5.72 2.6 6.11q0.24 0.32 0.41 0.7c0.83 3.27 3.2 2.14 5.01 2.15 10.5 0.1 21 0.01 31.5 0.11 1.42 0.01 3.26-1 4.36 1.54-1.05 1.34-3.51 0.31-3.84 2.78-13.92 0.1-27.84 0.17-41.77 0.32-3.22 0.03-4.56-1.61-4.53-5.27 0.06-5.84 0.06-11.68-0.14-17.5-0.13-3.88 1.45-5.14 4.54-5.16q11.67-0.04 23.34-0.4c1.4-0.03 4.13 1.33 3.33-2.65z"/>
			<path class="s3" d="m218.74 190.52c-1.94-2.24-0.91-5.07-1.06-7.63-0.59-10.79 1.09-21.68-0.95-32.42q0-2.54 0-5.06c1.51-7.48 1.38-14.99 0.11-22.48q0.01-1.29 0.04-2.57c0.11-0.12 0.34-0.25 0.31-0.34-0.04-0.3-0.17-0.58-0.28-0.85-1-7.07 2.68-13.48 1.95-20.74-0.36-3.56 3.76-5.39 6.97-5.41 15.94-0.07 31.88-0.12 47.81 0.21 5.91 0.12 7.76 3.72 6.25 10.17-0.27 1.17-0.48 2.64-0.1 3.67 4 10.78 3.16 22.12 3.13 33.38-3.35-0.77-2.32-3.93-2.14-6.06 0.95-10.6-1.53-20.83-2.26-31.24-0.13-1.92-1.52-2.76-2.01-4.29-0.42-1.25-0.96-2.41-2.3-1.9-1.28 0.5-1.03 1.99-1.13 3.19q-7.62 0.18-15.25 0.33-14.62-0.08-29.23-0.14c-1.52-0.01-3.04 0.1-3.02 2.48 0.03 2.34 1.53 2.47 3.05 2.46q14.62-0.09 29.24-0.2 7.65 0.32 15.31 0.64c-2.36 3.97-5.89 1.6-8.86 2.04-3.22 0.48-6.58 0.23-7.58 5-9.36 0.03-18.73 0.24-28.09 0.01-4.25-0.1-5.7 1.75-5.65 6.57 0.17 12.43 0.02 24.88-0.02 37.32-2.22-0.11-3.08 1.02-3.24 3.66-0.59 10.05-1.37 20.1-1 30.2z"/>
			<path class="s1" d="m295.94 137.9c-0.01-8.53-0.44-17.09 0.12-25.58 0.29-4.48 1.89-8.66 1.18-13.53-0.58-3.87 2.66-5.7 5.83-5.72 16.63-0.08 33.27-0.18 49.91 0.11 5.24 0.08 7.9 4.28 6.6 10.23-1.06 4.93 1.56 8.81 1.7 13.37q1.1 34.99 0.35 69.97c-0.07 2.93-1.05 5.83-1.6 8.75-1.48-1.35-0.86-3.27-1.01-4.98 0-3.72-0.18-7.46 0.05-11.16 0.23-3.79-1-5.93-4.29-6.43q-0.07-2.52-0.17-5.05 0.04-0.6 0.24-1.17c1.57-0.25 2.01-1.43 2-3.07q-0.03-10.83-0.01-21.67c0-1.37-0.41-2.4-1.67-2.73q-0.13-2.17-0.25-4.33 0.44-0.38 0.87-0.74c1.24-0.11 2.99 0.1 3.02-1.78 0.11-7.33 1.42-14.83-2.12-21.77-1.07-2.09-4.78-0.72-4.19-4.59 1.01-1.81 1.69-3.62-0.1-5.37q-0.52-0.1-1.03-0.2c-3.24-0.54-6.48-0.58-9.72-0.03q-17.05-0.1-34.1-0.19c-1.4 0-2.94-0.39-3.93 1.33-1.71 0.03-2.63 0.55-3.44 2.82-2.52 7.08-1.93 14.39-2.12 21.69-0.1 3.93 0.83 6.86 4.32 8.11q0.08 1.31 0.15 2.62l-0.07-0.09q-3.24 0.57-6.52 1.18z"/>
			<path class="s0" d="m100.21 228.7c0.33-2.47 2.79-1.43 3.85-2.79-1.1-2.53-2.95-1.52-4.37-1.54-10.5-0.1-21-0.01-31.5-0.11-1.79-0.01-4.18 1.13-5-2.14q0.56-0.26 1.15-0.54 41.3-0.16 82.61-0.29c20.3 0.69 40.61 0.61 60.91 0.1 17.7 0.1 35.41 0.25 53.1 0.31 37.77 0.12 75.52 0.18 113.29 0.25-1.01 4-3.91 2.3-5.94 2.3-64.66 0.09-129.31 0.07-193.96 0.07q-17.63 0-35.18 0c-0.84 3.1 2.63 2.23 2.32 4.41-13.76 0.49-27.52 0.58-41.28-0.03z"/>
			<path class="s3" d="m115.42 296.28c-1.19 4.83-4.87 5.34-8.19 5.58-5.58 0.4-11.19 0.07-16.8 0.15-1.95 0.02-3.52-0.63-4.73-2.42-2.07-3.05-4.7-5.01-7.85-2.67-3 2.24-1.74 6.1-1.14 9.14 0.49 2.47 3.08 4.86 0.72 7.24-2.35 2.37-5.45 1.32-8.28 0.7-0.33-0.07-0.6-0.45-0.93-0.63-5.21-2.68-10.1-1.66-11.32 2.34-1.2 3.93 1.82 9.56 6.63 11.05 2.91 0.9 5.55 2.49 8.6 3.21 3.7 0.86 6.16 4.8 6.28 9.7 0.1 3.94 0 7.9 0.02 11.85 0.08 13.05-1.56 26.41 5.44 38.14q-1.2-0.05-2.39-0.09c-9.64-15.18-5.41-32.67-5.98-49.3-0.18-5.3-1.31-8-5.87-8.99-3.72-0.8-7.31-2.35-10.59-4.66-4.66-3.27-6.28-9.56-3.82-14.47 2.08-4.14 7.45-5.35 12.08-2.72 0.49 0.27 0.95 0.61 1.42 0.9 1.92 1.14 4.45 2.86 5.9 0.93 1.54-2.05 0.82-5.19-1.4-7.06-1.83-1.53-0.94-3.08-0.33-4.8 2.07-5.71 6.16-8.92 10.72-11.49 12.81-7.19 26.5-10.92 40.44-13.67-0.05 2.16-1.24 2.85-2.85 2.67-4.03-0.49-6.98 2.74-11.84 3.58 2.97 1.86 4.9 1.44 6.75 1.3 1.62-0.12 3.31-2.21 4.79 0.33-12.13 3.25-24.2 6.7-35.26 14.16q14.9 0 29.78 0z"/>
			<path class="s3" d="m203.37 309.49c-2.39-2.63 0.87-7.64-2.68-9.41-2.81-1.41-5.38 1.89-8.25 1.86-11.14-0.08-22.32 0.83-33.38-1.27-2.6-0.49-5.01-1.82-6.68-4.39q2.73 0.01 5.46 0.01c0.34 1.44 1.23 1.92 2.45 1.92q13.29-0.02 26.58 0c1.2 0 2.12-0.41 2.48-1.85q1.65-0.05 3.31-0.1 1.12 0.47 2.24 0.94 0.23 0.12 0.47 0.23-0.15-0.17-0.3-0.32 0.07-0.37-0.06-0.69c-0.42-2.98-2.85-2.76-4.52-3.59-12.87-6.45-26.46-9.83-40.27-12.21 5.08-2.12 0.78-4.15-0.04-6.22 0.16-8.72-1.58-10.99-8.65-11.27q-1.62-0.04-3.24-0.07-0.03-3.02-0.05-6.03 2.18-0.08 4.37-0.14c1.73 4.56 5.13 1.79 7.78 2.37l-0.06-0.06c2.05 4.62 5.66 8.46 5.42 14.23 0.73 1.63 1.85 2.19 3.47 2.24 13.56 0.45 25.95 5.76 37.93 12.49 4.16 2.33 7.92 5.56 9.83 10.83q-0.06 1.62-0.11 3.22c-0.68 2.74-4.2 3.66-3.5 7.28z"/>
			<path class="s3" d="m327.5 340.79c-4.25 2.82-9.43 2.23-13.37 1.42-3.51-0.71-6.61-6.34-7.29-11.81-0.24-1.96 0.55-4.16-0.97-5.85q-0.51-0.77-1.02-1.55-12.07-0.4-24.13-0.8c-0.34-3.53 0.54-5.39 4.1-5.25 6.67 0.25 13.35 0 20.02 0.08 3.86 0.05 6.81 1.36 5.52 6.96-0.42 1.82 0.23 2.77 1.75 3.07 18.52-6.22 37.5-10.52 55.86-17.41 5.13-1.92 9.13 1.31 10.63 7.48 1.54 6.31-0.29 10.98-5.68 12.64-11.82 3.62-23.76 6.81-35.65 10.18-0.07-2.64 1.64-2.7 3.26-3.15 5.56-1.53 11.28-2.61 16.58-4.94 4.39-1.94 10.15-1.25 12.71-7.44 1.04-2.04 3.41-3.98 1.64-6.5-1.33-1.89-3.63-0.94-5.54-0.45-1.21 0.3-2.44 0.54-3.66 0.8-1.23-1.78-2.96-1.2-4.54-1.25-6.7-0.19-12.77 2.88-19.07 4.84-8.23 2.56-17.16 2.73-23.49 10.88-1.16 1.47-3.45 2.08-2.55 4.68 0.83 2.41 2.81 2.47 4.62 1.64 3.76-1.64 7.01-0.16 10.27 1.73z"/>
			<path class="s4" d="m296.1 194.25c1.25 2.13 1.92 4.36 0.75 6.84-3.42 2.44-7.24 1.11-10.89 1.48-4.12 0.4-5.37-2.03-4.66-6.35l-0.04-0.12q0.5-0.83 1-1.67c1.37-2.01 0.78-4.4 0.81-6.61 0.16-12.47 0.23-24.94 0.32-37.41 5.56 0.76 8.25-4.63 12.1-7.52q0.17 15.04 0.34 30.09c-0.38 6.67-0.63 13.34-0.02 20.01q0.15 0.63 0.29 1.25z"/>
			<path class="s3" d="m283.4 150.41c-0.09 12.47-0.17 24.94-0.32 37.41-0.03 2.22 0.57 4.6-0.81 6.61-0.76 0.22-1.16 0.72-1 1.67l0.05 0.13c-2.09-0.97-4.25-0.72-6.4-0.51q-10.69-0.28-21.38-0.57-1.08-1.55-2.18-0.02-1.63 0.01-3.27-0.01c-7.2-2-14.51-0.36-21.75-0.87 0.74-1.12 1.79-1.22 2.89-1.24 6.96-0.1 13.97 0.52 20.85-1.27 5.93-1.54 11.82-1.19 17.75-0.05 2.29 0.44 4.46 0.04 4.19-3.68 3.74 0.56 4.44-1.72 4.41-5.49-0.09-12.37 0.07-24.74 0.13-37.11 2.11-0.92 3.74-3.45 6.4-2.55q0.22 3.8 0.44 7.55z"/>
			<path class="s2" d="m87.08 170.51c-2.64-0.54-2.09-2.94-2.1-4.92q-0.05-9.68-0.02-19.38c0.01-8.37 1.85-10.6 9.24-10.81 22.74-0.64 45.46-1.76 68.22-1.36 4.62 0.09 9.41 1.28 13.89-1.19 5.64 1.18 7.46 5.19 6.59 11.42-0.28 1.99-0.02 4.08-0.02 6.14-0.03 1.78-0.16 3.63 2.1 3.71q0.22 0.3 0.43 0.64-0.19 0.96-0.39 1.93-1.08 0.02-2.17 0.04c-1.37-2.34-2.77 0.35-4.16-0.03l-0.21-0.01c0.01-4.18-0.12-8.36 0.08-12.52 0.17-3.74-0.97-5.32-4.36-5.11-4.34 0.25-8.69 0.04-13.04 0.04-0.32-2.1-1.6-2.45-3.18-2.44q-13.21 0.04-26.42 0.01c-1.58 0-2.87 0.33-3.16 2.46q-1.04 0-2.07 0c-0.65-3.46-3.27-3.08-4.66-1.98-3.35 2.63-6.93 1.89-10.47 1.95-6.32 0.11-12.65 0.18-18.97-0.02-3.71-0.11-5.23 1.49-5.15 5.83 0.16 8.53 0.02 17.07 0 25.6z"/>
			<path class="s1" d="m327.5 340.79c-3.25-1.89-6.51-3.37-10.24-1.69-1.82 0.82-3.8 0.75-4.63-1.64-0.9-2.61 1.41-3.21 2.55-4.69 6.32-8.15 15.26-8.33 23.49-10.87 6.31-1.96 12.37-5.03 19.07-4.84 1.57 0.05 3.31-0.53 4.54 1.25-6.55 2.07-13.12 4.11-19.66 6.23-5.9 1.9-11.8 3.82-17.65 5.9-1.53 0.54-3.26 1.59-2.58 4 0.6 2.09 2.46 1.55 3.77 1.34 3.2-0.51 6.35-1.39 9.53-2.05 11.52-2.42 22.41-7.92 34.14-9.28-2.55 6.19-8.32 5.52-12.71 7.45-5.3 2.34-11.02 3.42-16.58 4.93-1.61 0.44-3.33 0.5-3.26 3.16l0.01-0.04c-3.36-1.21-6.53 0.59-9.79 0.84z"/>
			<path class="s3" d="m295.81 192.99c-0.61-6.67-0.36-13.34 0.02-20.01 2.23 0.27 3.33-2.62 5.47-2.62l0.2-0.01q-0.08 0.68-0.16 1.36c-0.07 5.19 0.14 10.34 2.18 15.13-0.17 3.18 1.45 3.63 3.77 3.72 4.67 0.18 9.33 0.16 14.01 0.53 12.56 0.97 25.17 1.87 37.72-0.58 0.15 1.7-0.47 3.62 1.01 4.98q-0.16 1.3-0.33 2.6c-0.99 1.19-0.56 3.75-2.96 3.62-2.86-0.13-1.3-4.06-3.33-4.77l-0.04 0.06q0.23-1.18-0.77-1.54l-0.07-0.04c-6.49-2.2-13.03-1.52-19.58-0.42-8.68 0.05-17.35 0.2-26.02 0.1-3.5-0.04-4.41 1.56-3.26 5.16-2.03 2.11-3.73 2.59-4.47-1.25-0.34-1.82-0.81-3.55-2.16-4.75q-0.62-0.62-1.23-1.27z"/>
			<path class="s1" d="m127.37 120.18c-3.46-2.66-7.7 0.31-11.76-2.09 1.85-2.06 5.55-1.37 5.21-5.34q-0.14-0.6 0.09-1.17c1.33-1.24 1.09-2.64 0.35-4.12l0.09-0.45c0.81 0.36 1.81 1.12 2.19-0.34 0.24-0.93-0.72-1.18-1.41-1.33 3.37-5.25 8.97-7.59 14.69-5.85 5.19 1.58 8.67 5.39 8.95 11.71 0.12 2.7 0.95 2.82 2.7 3.1 2.46 0.4 4.87 1.23 7.31 1.88-0.2 3.79 6.23 2.9 4.22 7.95-10.71-3.07-21.62-4.1-32.63-3.95zm8.75-14.96c-7.84 0.07-8.36 0.51-8.8 7.67-1.92 2.87-0.45 3.63 1.8 3.69q4.59 0.14 9.2 0.02c2.24-0.07 5.17 0.62 5.12-3.52-0.04-4.17-4.09-8.29-7.32-7.86z"/>
			<path class="s3" d="m215.48 313.24c-1.95-2.01-3.81-1.6-5.65 0.22-1.69 1.66-3.7 0.97-5.6 0.92-0.77-0.03-1.47-0.62-1.04-1.52 0.27-0.56 1.17-0.74 1.78-1.09 4.18-0.66 7.68-3.94 12.21-3.78 3.66 0.11 6.86 1.34 7.78 5 1.09 4.33 1.86 9.39-2.36 12.92-2.84 2.36-6.23 3.23-9.28 5-1.56 0.37-3.13 0.67-4.67 1.14-5.96 1.81-6.31 2.68-4.1 10.02q0 3.13 0 6.23-2.42 1.89 0 3.79-0.04 2.49-0.09 4.98-0.49 0.02-0.99 0.03c-2.86-1.07-3.37-3.5-3.29-6.64 0.04-2.13 1.12-5.12-2.04-5.94q0-2.48-0.01-4.95c4.21-2.47 1.78-6.86 1.97-10.28 0.22-3.75 1.23-5.25 4.41-4.74 3.7 0.13 7.39 0.08 10.96-1.32 1.73 1.92 1.98 0.4 2.16-1.25q1.08-1.24 2.16-2.49c3-0.51 2.36-3.07 1.92-5.1-0.35-1.59-1.32-3.1-2.98-1.14q-1.63 0-3.25-0.01z"/>
			<path class="s1" d="m203.47 357.11q0.5-0.02 0.99-0.02-0.01 5.02-0.02 10.03c-1.54 0.27-2.08 1.42-2 3.06 0.24 5.65-0.09 11-3.85 15.48-1.23 1.46-0.57 3.56 1.65 4.01q16.86-0.04 33.72-0.08c0.39 3.64-0.74 5.19-4.18 5.14-14.24-0.17-28.48-0.05-42.72-0.09-1.71 0-3.81 0.62-4.21-2.47 1.7-0.27 4.01 0.84 4.36-2.53l0.52-0.01h0.52q0.57-0.57 1.14-1.15 2.2-1.9 4.4-3.8 2.1-0.12 2.12-2.54c2.28-0.17 2.22-2 2.09-3.89q0.05-1.8 0.11-3.61c2.99-0.64 2.23-3.43 2.1-5.47-0.32-4.59 0.14-8.76 3.26-12.06z"/>
			<path class="s1" d="m247.72 353.54c-4.06 2.51-1.91 8.47-5.18 11.93-1.48-2.71-1.12-5.43-0.46-8.07 0.42-1.71 0.82-3.18-0.84-4.26 0.89-5.92 1.81-11.83 2.68-17.76 0.73-4.95 1.1-9.85-0.92-14.62-0.6-1.45-0.94-3.31 1.14-3.99 3.41 0.09 6.85 0.48 10.25 0.2 3.88-0.33 4.79 1.37 3.49 5.29-7.62 0.84-7.62 0.84-7.53 9.79 0.01 1.65 0.09 3.29 0.13 4.93q-0.22 1.78-0.44 3.55-0.85 5.11-1.72 10.21-0.31 1.4-0.6 2.8z"/>
			<path class="s2" d="m282.96 142.89c-2.66-0.9-4.29 1.63-6.4 2.54l-0.19-0.01q0-14.4 0-28.78c0-1.63-0.74-2.47-2.12-2.62-1.58-1.91-3.63-0.92-5.48-1.14q-2.18 0-4.35 0-2.17 0.01-4.34 0.03-1.66-0.07-3.32-0.13c1-4.78 4.35-4.53 7.58-4.99 2.97-0.44 6.5 1.93 8.86-2.04 2.24-1.92 1.5-3.75-0.1-5.57 0.1-1.2-0.14-2.71 1.13-3.2 1.34-0.52 1.9 0.66 2.3 1.91 0.5 1.52 1.88 2.37 2.01 4.29 0.72 10.41 3.2 20.64 2.27 31.24-0.19 2.13-1.22 5.29 2.13 6.05 0 0.78 0.01 1.61 0.02 2.42z"/>
			<path class="s1" d="m182.88 150.42c-0.01-2.04-0.26-4.15 0.02-6.14 0.87-6.24-0.94-10.24-6.58-11.42q-0.06-2.41-2.15-2.46-0.65-0.12-1.3-0.23-1.09-0.77-2.2-1.54c0.26-2.7 1.31-3.39 3.69-2.63 2.16 0.69 4.35 2.13 6.75 1.04l0.2 0.12c-0.35 1.71 0.65 1.82 1.69 1.89q1.01 0.74 2.01 1.47c0.35 2.51-0.97 5.39 1.26 7.48-1.46 4.29-1.45 6.92 3.65 4.81 2.17-0.9 4.55-1.09 6.8-1.77 2.46-0.76 4.93-1.17 5.5 2.54 0.55 3.5-1 6.06-4.07 6.92-4.31 1.19-8.99 0.9-12.76 4.26q-0.2-0.34-0.44-0.64c0.11-1.81 0.08-3.55-2.07-3.7z"/>
			<path class="s0" d="m257.87 322.25c1.3-3.94 0.39-5.62-3.5-5.29-3.39 0.29-6.83-0.1-10.25-0.2 1.54-2.3 3.7-1.17 5.54-1.18 17.39-0.1 34.79-0.04 52.18-0.04 10.5 0 10.5-0.01 10.27 11.52-1.54-0.31-2.18-1.27-1.75-3.07 1.29-5.59-1.66-6.89-5.52-6.96-6.67-0.1-13.35 0.17-20.02-0.08-3.55-0.14-4.44 1.73-4.1 5.25q-11.42 0.02-22.85 0.05z"/>
			<path class="s0" d="m301.31 170.36c-2.15-0.01-3.24 2.88-5.48 2.62q-0.17-15.05-0.34-30.09 0.23-2.49 0.45-4.98 3.28-0.6 6.55-1.21-0.2 1.69-0.4 3.38c-1.36 8.03-0.67 16.11-0.38 24.18q-0.21 3.05-0.4 6.1z"/>
			<path class="s2" d="m138.25 257.03q0.03 3.01 0.05 6.03c-1.7 0.61-3.49 1.01-5.06 1.9-2.44 1.36-2.9 3.95-2.58 6.82 0.39 3.47 2.76 2.58 4.57 2.62 4.63 0.1 9.27 0.03 13.92 0.03-1.47 3.5-4.3 2.19-6.69 2.55-1.91 0.3-4.59-1.35-5.28 2.47q-5.98 0-11.96 0c0.24-3.77 1.62-7.39 1.09-11.27 2.75-3.91 6.83-6.45 8.72-11.25 1.08-0.75 2.15-0.33 3.22 0.1z"/>
			<path class="s1" d="m379.69 391.06c-0.04 3.11 0.53 8.67-0.23 8.92-5.06 1.7-1.88 6.89-3.7 9.69l-0.53 0.04c-0.5-4.38 2.3-9.34-1.75-13.09q-2.87-0.43-5.76-0.87c-2.03-1.98-4.48-1.13-6.69-1-3.37 0.18-4.58-1.42-4.18-5.07q10.33 0 20.66 0 0.64 0.59 1.29 1.15 0.48-0.09 0.89 0.23z"/>
			<path class="s3" d="m181.12 127.06c-2.4 1.09-4.59-0.36-6.75-1.04-2.38-0.75-3.43-0.06-3.69 2.63q-5.34-2.25-10.68-4.51c2.02-5.05-4.42-4.16-4.22-7.94 8.87 2.33 17.59 5.11 25.34 10.86z"/>
			<path class="s0" d="m182.85 156.74q1.08-0.02 2.17-0.04c-0.11 10.61 0.82 21.25-0.87 31.81-0.5 3.1-1.19 6.1-3.52 8.17 1.89-13.22 2.72-26.53 2.22-39.94z"/>
			<path class="s1" d="m126.3 268.17c0.53 3.87-0.85 7.5-1.09 11.27q0 1.08 0 2.17-2.15 0.25-4.3 0.5c-1.48-2.53-3.18-0.44-4.79-0.33-1.85 0.14-3.77 0.55-6.74-1.3 4.85-0.85 7.8-4.09 11.83-3.59 1.62 0.2 2.81-0.5 2.86-2.67q0.1-3.03 0.21-6.07 1 0.02 2.02 0.02z"/>
			<path class="s0" d="m80.7 155.42c2.94 0.69 2.04 3.42 2.06 5.48 0.08 9.87 0.04 19.75 0.04 29.64q-0.49-0.02-0.98-0.04c-2.27-11.62-0.4-23.4-1.12-35.08z"/>
			<path class="s4" d="m204.55 342.07c-2.21-7.34-1.87-8.21 4.1-10.02 1.54-0.47 3.11-0.77 4.67-1.14-0.15 6.63-3.82 9.57-8.77 11.16z"/>
			<path class="s3" d="m200.23 389.66c-2.22-0.46-2.88-2.55-1.65-4.01 3.76-4.48 4.09-9.83 3.85-15.48-0.07-1.64 0.47-2.8 2-3.06 0.57 7.28 0.16 14.26-4.42 20.04-0.72 0.91-0.68 1.77 0.22 2.51z"/>
			<path class="s3" d="m126.3 268.17q-1.01 0-2.02-0.01c1.07-6.93 4.83-10.44 10.74-11.24-1.89 4.8-5.98 7.34-8.72 11.25z"/>
			<path class="s1" d="m216.57 417.43c0.23-3.02 2.19-2.71 3.97-2.71 5.87-0.01 11.76 0 17.84 0-1.12 2.22-3.76 0.3-4.49 2.71q-3.2 0.79-6.4 0-4.41-3.42-8.83 0-1.02 0-2.09 0z"/>
			<path class="s0" d="m155.76 273.42c0.24-5.78-3.37-9.61-5.42-14.23 6.23 3.05 8.1 7.95 5.42 14.23z"/>
			<path class="s1" d="m216.82 122.9c1.28 7.51 1.41 15-0.1 22.48q0.06-11.23 0.1-22.48z"/>
			<path class="s0" d="m150.39 259.26c-2.65-0.57-6.05 2.18-7.78-2.37 3.06-1.26 5.46 0.38 7.78 2.37z"/>
			<path class="s3" d="m186.29 138c-2.23-2.09-0.91-4.97-1.26-7.48 2.36 2.07 5.43 3.96 1.26 7.48z"/>
			<path class="s1" d="m81.82 190.5q0.49 0.02 0.98 0.04c2.08 1.96 2.26 4.67 2.17 7.48-1.76-2.11-2.86-4.59-3.15-7.52z"/>
			<path class="s0" d="m218.68 417.43q4.4-3.41 8.82 0-4.41 0-8.82 0z"/>
			<path class="s4" d="m204.55 352.1q-2.42-1.89 0-3.79 2.22 1.89 0 3.79z"/>
			<path class="s0" d="m189.3 201.46c-1.84 2.53-3.66 2.25-5.48-0.02q2.73-0.82 5.48 0.02z"/>
			<path class="s0" d="m179.66 199.3c-1.76-1.9-0.41-2.22 0.96-2.55 0.2 1.12-0.01 2.02-0.96 2.55z"/>
			<path class="s3" d="m122.13 105.36c0.69 0.15 1.65 0.4 1.41 1.33-0.38 1.46-1.38 0.7-2.18 0.33q0.39-0.83 0.77-1.66z"/>
			<path class="s3" d="m121.27 107.47c0.73 1.47 0.97 2.89-0.35 4.13-0.41-1.44-0.33-2.82 0.35-4.13z"/>
			<path class="s3" d="m183.01 129.07c-1.04-0.08-2.04-0.19-1.69-1.9q0.85 0.95 1.69 1.9z"/>
			<path class="s5" d="m206.87 302.21q0.05-1.62 0.11-3.22c1.04 1.11 1.06 2.19-0.11 3.22z"/>
			<path class="s1" d="m216.91 119.15c0.1 0.29 0.23 0.57 0.28 0.86 0.02 0.08-0.2 0.22-0.31 0.33q0-0.6 0.03-1.19z"/>
			<path class="s0" d="m378.79 390.83q-0.64-0.58-1.29-1.15c0.85-0.22 1.08 0.45 1.29 1.15z"/>
			<path class="s0" d="m380.66 203.02q-0.51-0.73-1.02-1.46c0.89-0.02 1.13 0.56 1.02 1.46z"/>
			<path class="s6" d="m218.45 199.04c0.3 0.75 0.16 1.28-0.53 1.58q0.27-0.8 0.53-1.58z"/>
			<path class="s7" d="m247.72 353.54q0.3-1.39 0.59-2.78c2.89-2.9 3.87-6.21 1.72-10.22q0.22-1.77 0.44-3.54c1.99-0.35 1.84-2.11 1.96-3.79 0.61-8.64 0.62-8.7 8.25-8.72 12.63-0.05 25.26 0.08 37.89-0.11 3.57-0.05 5.51 0.91 5.12 5.49-0.15 1.74-0.51 3.91 1.73 4.6 2.17 9.31 5.11 18.49 6.29 27.95 0.93 7.56 3.28 16-2.59 22.91-1.32 1.56-2.7 2.65-4.42 3.35q-14.78 0.24-29.55 0.49c-7.05-0.2-14.1-0.32-21.16-0.62-7.11-0.3-9.08-2.77-9.35-11.01-0.25-8.24 2.18-15.99 3.08-24zm15.77-12.16c-0.48-2.93 1.24-7.49-2.97-8.03-3.82-0.49-3.59 3.94-4.04 6.79-1.67 10.39-3.13 20.83-4.7 31.23-0.45 3.05 0.71 4.93 3.18 5.5 3.07 0.72 4.42-1.85 4.79-4.6 1.38-10.23 2.5-20.52 3.74-30.89z"/>
			<path class="s8" d="m272.09 396.67q17.89-0.1 35.79-0.21c4.65 1.57 9.44 0.25 14.14 0.87-0.64 5.52 2.81 8.66 5.43 12.27q-119.07 0.02-238.14 0.04c0.94-4.07 3.85-2.36 5.88-2.38 27.54-0.11 55.08-0.03 82.62-0.15 2.02-0.01 5.65 1.78 5.74-2.2 0.08-3.62-3.34-4.74-6.23-5.19-1.25-0.19-2.54-0.04-3.8-0.04-27.36 0-54.72 0.04-82.08-0.05-1.9 0-4.58 1.44-5.38-2.32q79.91 0.04 159.82 0.08c-0.7 3.42-3.12 2.22-4.9 2.24-8.69 0.11-17.39-0.01-26.07 0.09-2.33 0.02-5.75-1.09-5.68 3.48 0.05 3.91 2.84 4.05 5.57 4.04 20.28-0.06 40.57 0 60.84-0.1 1.69-0.01 4.76 1.34 4.65-2.14-0.08-2.74-1.74-5.39-4.98-5.37-1.64 0.01-3.84 0.92-4.35-2.22q0.57-0.37 1.13-0.74z"/>
			<path class="s9" d="m86.07 397.3c0.81 3.75 3.49 2.31 5.38 2.32 27.36 0.09 54.73 0.06 82.08 0.05 1.27 0 2.56-0.15 3.8 0.04 2.89 0.45 6.3 1.56 6.23 5.18-0.07 3.99-3.72 2.21-5.74 2.21-27.54 0.13-55.08 0.04-82.62 0.15-2.03 0.01-4.95-1.7-5.89 2.38q-3.82 0-7.65-0.01-1.05-1.81-2.1 0-2.76 0-5.52 0-2.13-2.5-4.27 0c-8.47 0.21-8.47 0.21-8.79-9.71-0.02-0.62-0.16-1.24-0.23-1.86q0.51-0.64 1.03-1.29 2.93 0.28 5.86 0.55 1.55 2.12 3.1 0 7.66 0.02 15.33-0.01z"/>
			<path class="s9" d="m270.97 397.4c0.51 3.15 2.71 2.23 4.35 2.22 3.24-0.03 4.9 2.63 4.98 5.36 0.11 3.49-2.95 2.13-4.65 2.15-20.29 0.1-40.56 0.03-60.84 0.1-2.73 0.01-5.53-0.13-5.57-4.04-0.05-4.57 3.36-3.44 5.68-3.48 8.69-0.12 17.39 0.01 26.07-0.09 1.77-0.03 4.2 1.18 4.9-2.24 4.33-0.68 8.73 0.66 13.03-0.76q1.14 0.01 2.3 0.02c3.18 1.35 6.52 0.12 9.75 0.76z"/>
			<path class="s6" d="m81.67 409.62q3.83 0.01 7.65 0.01 119.07-0.02 238.14-0.05 19.06 0 38.12-0.01 2.71 0.03 5.42 0.06 2.12 0.04 4.24 0.08l0.53-0.04c-1.82 2.02-4.12 1.22-6.21 1.22q-150.23 0.04-300.45 0.05c-10.25 0-10.88-0.94-8.33-12.88 0.08 0.62 0.21 1.23 0.23 1.86 0.33 9.93 0.33 9.93 8.79 9.71q2.14 0 4.28-0.01 2.76 0 5.51 0 1.02 0 2.08 0z"/>
			<path class="s6" d="m258.92 396.62c-4.3 1.42-8.7 0.08-13.03 0.76q-79.91-0.04-159.82-0.08-7.66 0.02-15.32 0.03-1.55 0-3.1 0-2.93-0.28-5.86-0.56c1.67-1.17 3.53-0.75 5.31-0.75q93.23 0 186.45 0.09c1.78 0 3.58 0.34 5.37 0.51z"/>
			<path class="s5" d="m275.16 389.15q14.77-0.24 29.55-0.48c-0.04 2.9 3.16 2.47 4 5.91-5.85 0-11.45 0-17.05 0-3.22 0-6.48-0.37-9.65 0.09-3.99 0.59-5.93-1.43-6.85-5.52z"/>
			<path class="s4" d="m305.42 334.45c-2.24-0.69-1.88-2.85-1.73-4.6 0.39-4.57-1.55-5.53-5.12-5.48-12.63 0.2-25.26 0.06-37.9 0.11-7.62 0.02-7.63 0.06-8.24 8.72-0.12 1.68 0.03 3.43-1.96 3.79-0.05-1.65-0.11-3.3-0.13-4.94-0.09-8.95-0.09-8.95 7.53-9.79q11.42-0.03 22.86-0.05 12.07 0.4 24.13 0.8c-0.2 1-0.36 1.99 0.45 2.78q0.05 4.32 0.11 8.66z"/>
			<path class="s6" d="m322.03 397.33c-4.7-0.6-9.49 0.71-14.14-0.87q25.33-0.23 50.67-0.49c3.06-0.03 6.12-0.15 9.16-0.22q2.87 0.44 5.76 0.87-4.52 0.3-9.02 0.61-2.17 0.01-4.35 0.02-0.54-0.06-1.07 0.01-18.51 0.03-37.01 0.07z"/>
			<path class="s6" d="m270.97 397.4c-3.23-0.65-6.57 0.59-9.76-0.76 3.63-0.82 7.26-0.9 10.88 0.03q-0.56 0.38-1.12 0.73z"/>
			<path class="s1" d="m207.86 415.74c3.36 0 6.08-0.19 6.08-0.42 0-0.23-2.72-0.41-6.08-0.41-3.36 0-6.08 0.18-6.08 0.41 0 0.23 2.72 0.42 6.08 0.42z"/>
			<path class="s3" d="m83.88 389.66c1.71 0.22 3.99-0.87 4.34 2.49-1.71-0.21-3.99 0.88-4.34-2.49z"/>
			<path class="s1" d="m198.22 415.21c-1.19 1.09-2.31 0.9-3.57 0.2 1.17-1.05 2.31-0.89 3.57-0.2z"/>
			<path class="s7" d="m305.31 325.78c-0.81-0.79-0.65-1.78-0.45-2.78q0.51 0.78 1.02 1.55-0.29 0.63-0.57 1.23z"/>
			<path class="s1" d="m180.97 415.18c-0.04 0.15-0.09 0.43-0.14 0.43-0.15 0-0.3-0.1-0.46-0.16 0.05-0.15 0.09-0.43 0.14-0.43 0.16 0 0.31 0.1 0.46 0.16z"/>
			<path class="s10" d="m374.25 221.95c-37.77-0.07-75.52-0.13-113.29-0.25-17.7-0.05-35.41-0.2-53.1-0.31q0-1.05 0.01-2.11 44.04 0.01 88.07 0.02 31.55 0 63.1 0c3.8 0 7.59 0.02 11.38-0.03 1.59-0.01 3.46 0.32 3.71-2.39 0.2-2.08 0.32-4.07-1.58-5.53-1.54-1.18-3.08-1.76-4.91-2.18-3.69-0.83-6.39 2.22-9.7 2.61q-29.91 0-59.81 0c-3.46-1.98-7.11-2.77-10.98-2.52-9.3 0.61-18.72-1.3-27.94 1.69-2.57 0.84-4.98-3.43-7.48-1.31-3.45 2.93-7.18 2.05-10.86 2.09-10.64 0.11-21.27 0.03-31.91 0.05q-28.83 0-57.65 0c-7.78 0.86-15.28-0.85-22.69-3.32 1.98-0.1 3.96-0.25 5.95-0.29q20.83-0.32 41.67-0.6 11.49 0.01 22.98 0.05c3.58 0.52 7.17 0.56 10.75 0q1.69-0.02 3.38-0.01c2.14 0.51 4.27 0.56 6.39-0.07 7.65 0.08 15.3 0.83 22.93-0.45 14.48 1.32 28.98 0.59 43.48 0.58q0.55 0 1.11 0.01 6.46-0.09 12.92-0.19 0.59 0.02 1.18 0.04 26.15 0.01 52.3 0.02c3.21 0.68 6.43 0.66 9.67 0.18q4.91 0.01 9.83 0.03 0.47 0.32 0.99 0.47c1.75 4.58 2.54 9.14 0.1 13.72z"/>
			<path class="s0" d="m300.18 207.52q-6.46 0.09-12.92 0.19-0.54-0.84-1.11-0.02c-14.5 0-29 0.74-43.48-0.57 1.1-3.6-2.8-3.68-3.27-6.17 10.56-0.08 21.12-0.31 31.68-0.14 3.54 0.06 4.48-1.45 3.84-5.09 2.15-0.21 4.31-0.45 6.4 0.5-0.72 4.33 0.52 6.76 4.65 6.35 3.65-0.35 7.47 0.96 10.89-1.48 0.22 2.62 3.39 2.83 3.43 5.59q-0.11 0.43-0.11 0.84z"/>
			<path class="s11" d="m303.67 200.27c-1.15-3.59-0.24-5.2 3.26-5.16 8.67 0.1 17.34-0.05 26.02-0.1q9.79 0.21 19.58 0.43l0.07 0.03q0.39 0.77 0.77 1.54l0.04-0.06c-0.02 3.41-1.83 3.77-4.3 3.75-7.93-0.08-15.87 0.09-23.8 0.16q-9.24 0.1-18.47 0.2-1.59-0.4-3.17-0.79z"/>
			<path class="s0" d="m306.83 201.05q9.23-0.1 18.47-0.2c-0.23 1.05-0.71 2.19-1.68 2.04-5.58-0.85-11.51 2.52-16.79-1.84z"/>
			<path class="s5" d="m363.33 207.74c-3.24 0.48-6.46 0.5-9.67-0.17 3.25-1.18 6.47-1.38 9.67 0.17z"/>
			<path class="s5" d="m374.16 208.24q-0.52-0.15-0.99-0.47c0.64-0.73 0.89-0.35 0.99 0.47z"/>
			<path class="s0" d="m295.81 192.99q0.61 0.65 1.22 1.27l-0.47-0.01h-0.47q-0.13-0.63-0.28-1.26z"/>
			<path class="s5" d="m300.18 207.52q0-0.44 0.11-0.83 0.54 0.43 1.08 0.86-0.6-0.01-1.19-0.03z"/>
			<path class="s12" d="m114.34 304.48q18.47 0.01 36.96 0.02c2.99 2.93 6.14 5.44 9.62 7.71 6.77 4.4 13.88 3.31 21 3.61 4.15 0.17 8.63 1.55 9.09 6.93 0.59 6.75 1.82 13.32 2.65 19.99 1.18 9.5-0.6 18.68-4.02 27.24-1.92 4.81 0.44 10.26-2.43 14.66q-0.55 0.02-1.09 0.03c-25.06 0-50.12-0.04-75.18 0.04-1.91 0-4.58-1.37-5.32 2.41-5.62 0.87-10.97-0.83-16.33-2.39l-0.03-0.04q0.07-2.55-2.15-2.45l-0.03-0.04c0.07-1.7-0.67-2.51-2.12-2.52v-0.01c-0.68-2.53 1.77-6.25-2.17-7.55q0-24.41-0.01-48.83c1.53-0.18 2-1.22 2.21-2.89 1.15-9.07 5.47-13.35 13.35-13.38 3.95-0.01 7.9 0.03 11.84-0.02 1.71-0.05 3.78 0.54 4.16-2.52z"/>
			<path class="s4" d="m120.91 282.11q2.15-0.25 4.3-0.5 6.51-0.56 13.02-1.11 2.21-0.01 4.41-0.05 2.13 0.02 4.29 0.04 1.65 0.05 3.3 0.1c13.81 2.38 27.4 5.78 40.27 12.22 1.67 0.83 4.09 0.6 4.52 3.58q-1.17-0.07-2.36-0.16-1.65 0.05-3.31 0.1c-10.5-0.6-21.01-0.5-31.51-0.06q-2.73-0.01-5.46-0.01-3.26 0.02-6.51 0.02-1.1 0-2.18 0-1.1-0.04-2.2-0.07-11.94-0.02-23.87-0.03-1.1 0.04-2.19 0.06-14.89 0-29.79 0c11.06-7.43 23.14-10.88 35.27-14.13z"/>
			<path class="s13" d="m187.2 384.64c2.87-4.39 0.51-9.85 2.43-14.66 3.43-8.56 5.2-17.74 4.02-27.24-0.83-6.67-2.06-13.24-2.65-19.99-0.46-5.38-4.94-6.76-9.09-6.93-7.12-0.3-14.23 0.78-21-3.61-3.48-2.26-6.63-4.78-9.62-7.71 13.72 0 27.44 0.14 41.15-0.09 4.23-0.07 5.78 1.6 5.67 6.5-0.22 9.54-0.01 19.12 0.01 28.68q0.01 2.48 0.01 4.95-0.04 10.04-0.07 20.08c-3.53 0.96-2.01 4.26-2.12 6.58-0.39 8.18-3.23 12.74-8.74 13.44z"/>
			<path class="s14" d="m187.2 384.64c5.51-0.7 8.35-5.25 8.76-13.44 0.1-2.32-1.42-5.62 2.11-6.58q0.01 5.02 0.03 10.05-0.06 1.8-0.11 3.61c-1.33 0.84-2.1 2.08-2.09 3.88-1.02 0.5-1.76 1.32-2.12 2.55q-2.2 1.89-4.4 3.79-0.57 0.58-1.14 1.16h-0.52l-0.52 0.01q-43.56 0-87.12 0c-4.16 0-8.18-0.4-10.8-4.91 5.36 1.54 10.71 3.25 16.33 2.39 25.07 0.01 50.14 0.05 75.21-0.02 1.9 0 4.58 1.36 5.29-2.44q0.55-0.05 1.09-0.05z"/>
			<path class="s14" d="m114.34 304.48c-0.38 3.06-2.45 2.47-4.16 2.49-3.95 0.05-7.9 0.01-11.84 0.03-7.88 0.02-12.21 4.31-13.35 13.38-0.21 1.68-0.7 2.71-2.21 2.88 0-4.55 0.21-9.1-0.04-13.63-0.23-4.18 1.28-5.32 4.71-5.23 8.94 0.21 17.92 0.08 26.89 0.08z"/>
			<path class="s14" d="m76.2 322.29c-0.13 1.86-0.95 3.53-2.58 3.23-4.2-0.78-8.54-1.34-11.98-4.7-1.31-1.28-2.26-2.83-1.1-4.81 0.97-1.66 2.36-1.61 3.81-0.82 2.92 1.58 5.85 3.02 9.15 3.25 1.97 0.11 2.71 1.71 2.7 3.85z"/>
			<path class="s14" d="m215.47 323.24c-3.56 1.41-7.25 1.46-10.96 1.32-0.6-4.24 0.9-6.4 4.65-7.14 2.41-0.46 5.01-1.21 6.32-4.18q1.63-0.01 3.26 0.01c1.01 1.93 1.2 4.06 1.07 6.25q-1.09 1.25-2.17 2.5c-0.89 0.03-1.71 0.25-2.17 1.24z"/>
			<path class="s5" d="m117.62 296.21q11.93 0.01 23.87 0.02c-2.82 1.62-5.87 0.33-8.76 0.89q-1 0-1.99 0c-4.36-0.64-8.82 0.85-13.12-0.91z"/>
			<path class="s14" d="m82.78 372.11c3.94 1.29 1.48 5.01 2.17 7.55-2.1-2.01-2.3-4.72-2.17-7.55z"/>
			<path class="s14" d="m84.95 379.67c1.44 0.01 2.18 0.83 2.12 2.52-1.39-0.08-2.08-0.94-2.12-2.52z"/>
			<path class="s14" d="m87.1 382.23q2.22-0.09 2.15 2.45-2.06-0.08-2.15-2.45z"/>
			<path class="s3" d="m143.69 296.32q1.1 0 2.18 0-0.54 0.77-1.09 1.54-0.54-0.79-1.09-1.54z"/>
			<path class="s3" d="m130.74 297.12q0.99 0 1.97 0-0.98 1.82-1.97 0z"/>
			<path class="s14" d="m87.08 170.51c0.02-8.53 0.16-17.07 0.02-25.6-0.07-4.34 1.44-5.96 5.15-5.83 6.32 0.2 12.65 0.13 18.97 0.03 3.54-0.07 7.12 0.67 10.47-1.96 1.41-1.09 4.01-1.48 4.66 1.98-5.85 3.42-12.15 2.49-18.36 2.53-4.51 0.03-9.05 0.29-13.55-0.07-4.11-0.34-4.94 1.49-5.28 6.01-0.81 11.04 2.03 21.61 2.29 32.45 0.2 8.19 7.21 16.66 14.39 16.7 19.7 0.08 39.41-0.12 59.12 0.15 4.41 0.07 7.71-2.82 8.42-6.23 0.92-4.48 3.15-8.64 2.98-13.51-0.19-5.2-0.07-10.41-0.02-15.61 0.02-1.98-0.54-4.4 2.15-4.85 0 0 0.2 0.01 0.21 0.01-0.07 8.95-0.1 17.89-0.2 26.83-0.11 10.23-5.47 16.86-14.37 16.95-20.77 0.2-41.55 0.17-62.33-0.02-9.08-0.08-14.33-6.39-14.63-16.85-0.13-4.37-0.07-8.75-0.09-13.11z"/>
			<path class="s4" d="m160 124.14q5.34 2.26 10.68 4.51 1.09 0.78 2.19 1.53-0.53 0.53-1.05 1.07-36.46-0.16-72.92-0.37c-1.97-0.01-3.94-0.28-5.91-0.44q0.34-0.58 0.67-1.16c10.84-4.99 22.03-8.27 33.71-9.1 11.01-0.15 21.92 0.88 32.63 3.96z"/>
			<path class="s6" d="m171.82 131.25q0.52-0.54 1.05-1.07 0.65 0.12 1.3 0.23c-0.5 1.28-1.33 1.44-2.35 0.84z"/>
			<path class="s6" d="m93.66 129.28q-0.33 0.58-0.67 1.16c-0.61-1.02-0.1-1.2 0.67-1.16z"/>
			<path class="s10" d="m146.95 221.3q-41.31 0.16-82.61 0.29c-0.48-0.55-1-0.64-1.57-0.18-3.74-0.38-2.62-3.72-2.6-6.11 0.02-2.43 0.56-4.86 0.86-7.29q3.77-0.25 7.53-0.49 8.24 0 16.47 0c1.4 0.55 2.81 0.55 4.22 0.06q1.15 0.02 2.3 0.04 4.82 0.39 9.63 0.77c-0.92 1.96-2.74 2.42-4.26 3.39q-14.6-0.01-29.2 0c-2.13 0-4.41-0.47-4.55 3.44-0.14 4.14 2.07 4.09 4.57 4.09 10.09-0.04 20.19-0.03 30.28-0.03q24.46 0 48.92 0 0.01 1.03 0.01 2.02z"/>
			<path class="s2" d="m272.04 188.03c0.26 3.72-1.9 4.12-4.19 3.68-5.95-1.14-11.83-1.49-17.76 0.05-6.88 1.8-13.89 1.17-20.85 1.27-1.1 0.01-2.15 0.12-2.89 1.24-1.4 0.09-2.13 0.99-2.34 2.52-4.11 0.55-5.27-2.19-5.27-6.24-0.37-10.1 0.4-20.15 1.02-30.2 0.17-2.65 1.01-3.79 3.24-3.66q0.06 2.51 0.12 5.05-0.01 1.88-0.02 3.76 0.02 10.01 0.04 20.02c0.46 3.48 2.86 2.47 4.63 2.48 7.5 0.07 14.98-0.01 22.48-0.03q10.89-0.01 21.79 0.06z"/>
			<path class="s11" d="m274.92 195.71c0.65 3.64-0.3 5.15-3.84 5.09-10.56-0.18-21.12 0.06-31.68 0.14q-1.63 0.02-3.27 0.03-2.72 0.06-5.41 0.12c-2.21-1.06-6.43 1.64-6.05-4.28 1.36-2.01 3.31-1.29 5.03-1.34 6.12-0.18 12.26-0.25 18.4-0.36q1.63 0 3.27 0.01 1.09 0.01 2.18 0.01 10.67 0.3 21.37 0.58z"/>
			<path class="s5" d="m101.19 208.42q-4.81-0.4-9.63-0.79c1.08-1.04 2.38-0.83 3.63-0.83q38.71-0.02 77.43-0.02c1.25 0 2.54-0.21 3.62 0.81q-20.84 0.29-41.68 0.6c-1.98 0.03-3.96 0.19-5.94 0.28q-13.72-0.03-27.43-0.05z"/>
			<path class="s5" d="m248.09 195.12c-6.14 0.12-12.27 0.18-18.4 0.37-1.73 0.05-3.68-0.68-5.03 1.34l-0.34 0.04-0.33-0.11c0.22-1.52 0.95-2.43 2.35-2.51 7.24 0.51 14.55-1.13 21.75 0.87z"/>
			<path class="s0" d="m230.71 201.1q2.71-0.06 5.41-0.11c-1.75 3.11-3.56 3.01-5.41 0.11z"/>
			<path class="s5" d="m209.97 207.64c-3.58 0.55-7.17 0.53-10.75 0q5.37-2.08 10.75 0z"/>
			<path class="s5" d="m68.57 207.53q-3.77 0.24-7.53 0.49c2.42-2.08 4.96-1.48 7.53-0.49z"/>
			<path class="s5" d="m219.74 207.56c-2.12 0.62-4.25 0.58-6.39 0.06 2.13-1.32 4.25-1.26 6.39-0.06z"/>
			<path class="s5" d="m89.26 207.59q-2.13 0.73-4.21-0.06c1.41-1.08 2.81-1.09 4.21 0.06z"/>
			<path class="s6" d="m62.77 221.43c0.57-0.48 1.09-0.38 1.57 0.17q-0.57 0.26-1.15 0.54-0.18-0.39-0.42-0.71z"/>
			<path class="s14" d="m223.13 161.7q-0.06-2.52-0.13-5.05c0.04-12.44 0.19-24.89 0.03-37.32-0.07-4.81 1.39-6.67 5.64-6.57 9.36 0.23 18.73 0.03 28.09-0.01q1.65 0.07 3.31 0.14c1.07 3.6-3.38 3.31-3.29 6.2-2.87-0.37-4.91 0.69-5.31 4.3-0.4 3.62 2.08 3 3.87 3.42 1.04 0.24 1.3 1.24 1.45 2.28-2.35 0-4.69-0.02-7.04 0.01-3.22 0.06-6.63-0.63-9.28 2.22-4.79 5.14-9.21 10.39-7.72 19.11 0.63 3.61 0.13 7.47 0.16 11.21-3.28-2.55-6.55-7.33-9.78 0.06z"/>
			<path class="s7" d="m257.89 105.08q-14.62 0.09-29.24 0.2c-1.52 0.01-3.02-0.11-3.04-2.45-0.03-2.37 1.5-2.49 3.01-2.49q14.63 0.06 29.24 0.14 0.01 2.3 0.03 4.6z"/>
			<path class="s4" d="m257.89 105.08q-0.02-2.3-0.03-4.6 7.62-0.17 15.24-0.32c1.6 1.81 2.34 3.65 0.1 5.56q-7.66-0.32-15.31-0.64z"/>
			<path class="s8" d="m302.09 140.08q0.2-1.69 0.4-3.38l0.08 0.09c5.15-4.04 10.82-4.08 16.49-2.23 11.96 3.89 23.86 5.4 35.86 0.35q0.12 2.16 0.25 4.33-0.08 7.49-0.15 14.98-0.27 0.56-0.1 1.19-0.03 5.65-0.06 11.3-0.21 0.57-0.24 1.17c-5.22 4.15-10.96 4.87-16.98 3.16-4.01-1.14-7.91-2.81-11.96-3.65-8.26-1.72-16.69-4.11-24.18 2.97 0 0-0.2 0.02-0.2 0.01q0.2-3.07 0.41-6.11c1.36-8.05 0.67-16.12 0.38-24.18zm2.51 11.48q0 1.25 0 2.5c0.08 11.71-0.76 10.41 8.58 9.97 8.84-0.41 17.51 0.75 25.88 3.47 8.06 2.62 13.44-0.98 13.46-10.51 0-2.5-0.07-5 0-7.5 0.19-5.45-1.94-7.99-6.78-7.95-3.58 0.02-7.15 0.38-10.76-0.58-7.4-1.97-14.75-4.44-22.46-4.35-6.26 0.06-7.8 1.84-7.9 9.31-0.03 1.89-0.01 3.76-0.02 5.64z"/>
			<path class="s3" d="m352.51 106.02c-0.59 3.87 3.12 2.49 4.19 4.59 3.54 6.94 2.22 14.43 2.12 21.77-0.02 1.88-1.78 1.66-3.02 1.78q-0.47-1.27-0.94-2.52c-0.03-4.15-0.27-8.3-0.05-12.44 0.26-4.97-1.67-6.48-5.78-6.39-10.44 0.2-20.87 0.03-31.31-0.01 0.34-3.48-0.68-5.3-4.05-5.02-1.71 0.13-4.07 1.06-4.64-2.29q7.07-0.01 14.12-0.03c0.21 0.56 0.38 1.59 0.65 1.63 8.34 1.02 16.7 1.56 25.01-0.28 0.2-0.04 0.28-0.71 0.43-1.09q1.62 0.15 3.27 0.3z"/>
			<path class="s2" d="m359.02 190.51c-12.55 2.45-25.16 1.56-37.72 0.58-4.67-0.37-9.34-0.35-14.01-0.53-2.32-0.09-3.95-0.55-3.77-3.72q7.64-0.04 15.26-0.09c8.27 0.01 16.53 0.05 24.8 0.05 11.16 0 11.16-0.01 11.12-12.61q0.04-0.63 0.07-1.27c3.29 0.5 4.52 2.64 4.29 6.43-0.22 3.69-0.04 7.43-0.04 11.16z"/>
			<path class="s5" d="m354.85 131.64q0.47 1.25 0.94 2.52-0.45 0.37-0.88 0.73c-11.99 5.07-23.89 3.56-35.85-0.35-5.67-1.85-11.34-1.8-16.49 2.23q-0.08-1.31-0.16-2.61 0.03-1.27 0.06-2.52c2.9-2.46 6.3-2.12 9.65-2.59 5.69-0.79 10.79 2.34 16.22 2.54 8.83 0.32 17.67 0.06 26.51 0.05z"/>
			<path class="s5" d="m354.78 172.9q-0.03 0.64-0.07 1.28-11.96 0.01-23.92-0.01c-0.57-3.38-2.95-2.41-4.74-2.42-8.24-0.09-16.48-0.04-24.71-0.05q0.08-0.68 0.16-1.36c7.49-7.09 15.92-4.69 24.18-2.98 4.05 0.84 7.95 2.51 11.96 3.65 6.02 1.72 11.75 0.99 16.98-3.16q0.08 2.54 0.16 5.05z"/>
			<path class="s2" d="m302.47 131.64q-0.03 1.25-0.06 2.52c-3.49-1.26-4.41-4.19-4.32-8.11 0.19-7.3-0.41-14.6 2.13-21.7 0.8-2.26 1.73-2.78 3.43-2.82 0.47 1.27-0.26 2.95 1.03 3.93 0.16 1.1-0.42 2.9 1.04 2.93 1.49 0.01 0.9-1.81 1.08-2.9q1.11 0 2.22-0.01c0.56 3.35 2.93 2.42 4.63 2.28 3.38-0.26 4.4 1.54 4.06 5.03q-2.42 0.04-4.84 0.06c-10.21 0.1-10.45 0.38-10.42 11.96q0.01 3.43 0.02 6.83z"/>
			<path class="s4" d="m304.68 105.47c-1.29-0.98-0.57-2.66-1.03-3.92 0.98-1.72 2.52-1.33 3.93-1.33q17.05 0.08 34.1 0.19c-1.02 3.97-3.91 1.73-5.94 2.4-2.72 0.91-6.21-2.14-8.26 2.16q-2.16 0.24-4.32 0.49-7.07 0.02-14.12 0.03-1.11 0.01-2.22 0.02-1.09-0.02-2.14-0.04z"/>
			<path class="s7" d="m327.46 104.97c2.05-4.29 5.54-1.24 8.26-2.16 2.03-0.67 4.92 1.57 5.94-2.4 3.24-0.56 6.48-0.52 9.72 0.02 0.26 0.65 0.59 0.79 1.03 0.2 1.78 1.76 1.11 3.56 0.1 5.38q-1.64-0.15-3.29-0.3-10.87-0.36-21.76-0.74z"/>
			<path class="s0" d="m355.02 154.21q0.07-7.49 0.15-14.98c1.27 0.34 1.68 1.35 1.67 2.73q0 10.84 0.01 21.67c0 1.63-0.44 2.82-2 3.07q0.03-5.65 0.05-11.3c0.12-0.12 0.34-0.23 0.33-0.33-0.01-0.29-0.13-0.58-0.21-0.86z"/>
			<path class="s4" d="m352.41 100.64c-0.43 0.59-0.77 0.44-1.03-0.2q0.52 0.09 1.03 0.2z"/>
			<path class="s8" d="m146.95 221.3q0-0.99 0-1.99c1.1-2.78 5.28-3.18 4.35-7.51q28.82 0 57.65 0c-0.37 2.5-1.49 4.85-1.09 7.5q-0.01 1.05-0.01 2.1c-20.29 0.52-40.6 0.59-60.9-0.1z"/>
			<path class="s14" d="m149.13 274.41c-4.63 0-9.27 0.08-13.91-0.02-1.81-0.04-4.18 0.85-4.57-2.62-0.33-2.87 0.14-5.45 2.58-6.82 1.57-0.88 3.36-1.28 5.06-1.9 1.07 0.02 2.16 0.02 3.24 0.06 7.07 0.27 8.81 2.53 8.65 11.26q-0.52 0.02-1.05 0.04z"/>
			<path class="s0" d="m157.85 296.29c10.5-0.45 21.01-0.54 31.51 0.07-0.36 1.44-1.28 1.86-2.48 1.85q-13.29-0.02-26.58 0c-1.22 0-2.11-0.48-2.45-1.92z"/>
			<path class="s1" d="m149.13 274.41q0.53-0.02 1.05-0.02c0.83 2.06 5.12 4.08 0.04 6.21q-1.65-0.05-3.31-0.1c-1.41-1.51-2.84-1.48-4.28-0.04q-2.21 0.02-4.41 0.06-0.54-0.54-1.08-1.08c0.7-3.82 3.38-2.17 5.29-2.47 2.41-0.36 5.23 0.95 6.7-2.56z"/>
			<path class="s5" d="m192.66 296.26q1.17 0.07 2.36 0.16 0.13 0.33 0.07 0.69l-0.19 0.09q-1.12-0.47-2.24-0.94z"/>
			<path class="s0" d="m195.09 297.11q0.14 0.17 0.29 0.32-0.24-0.11-0.47-0.23c-0.01 0 0.18-0.09 0.18-0.09z"/>
			<path class="s14" d="m369.84 324.43c-11.74 1.35-22.62 6.85-34.14 9.27-3.18 0.67-6.33 1.54-9.53 2.06-1.31 0.21-3.17 0.75-3.77-1.34-0.68-2.4 1.05-3.45 2.58-4 5.86-2.07 11.75-4 17.65-5.91 6.55-2.11 13.11-4.15 19.66-6.22 1.22-0.27 2.44-0.49 3.66-0.8 1.91-0.49 4.22-1.45 5.55 0.45 1.75 2.51-0.63 4.46-1.66 6.49z"/>
			<path class="s0" d="m281.26 196.1c-0.17-0.95 0.24-1.45 1-1.67q-0.5 0.83-1 1.67z"/>
			<path class="s14" d="m272.04 188.03q-10.89-0.05-21.78-0.1c0.07-1.22-0.15-2.74 1-3.31 2.04-1.01 3.45-2.4 2.82-5.12-0.76-3.26-3.19-2.76-5.32-2.76-3.29 0-5.69-1.61-7.14-5.04 1.79 0.13 3.91-0.43 5.31 0.48 6.54 4.21 11.45-0.07 16.15-4.03 7.08-5.96 7.38-14.86 6.72-23.93 2.1 1.05 4.11 2.81 6.58 1.2l0.19 0.01c-0.05 12.37-0.22 24.74-0.13 37.11 0.02 3.77-0.68 6.05-4.4 5.49z"/>
			<path class="s5" d="m253.54 195.15q-1.09-0.01-2.18-0.02 1.09-1.55 2.18 0.02z"/>
			<path class="s13" d="m178.48 156.69c-2.68 0.45-2.13 2.87-2.15 4.85-0.05 5.2-0.17 10.41 0.02 15.61 0.17 4.86-2.06 9.03-2.98 13.51-0.71 3.41-4 6.29-8.43 6.23-19.7-0.28-39.41-0.06-59.11-0.15-7.18-0.03-14.19-8.5-14.39-16.71-0.26-10.84-3.11-21.41-2.29-32.44 0.33-4.53 1.16-6.35 5.27-6.02 4.5 0.37 9.04 0.1 13.56 0.08 6.21-0.04 12.51 0.89 18.36-2.53q1.03 0 2.07 0 16.38-0.01 32.76-0.03c4.35 0 8.7 0.2 13.05-0.05 3.38-0.19 4.52 1.38 4.35 5.12-0.2 4.17-0.07 8.35-0.09 12.53zm-4.34-2.56c0.02-9.49-2.61-12.06-9.43-12.58-6.63-0.5-13.18 2.41-19.82 0.17-1.62-0.53-3.02 1.08-4.5 1.53-5.8 1.76-10.87 8.39-17.21 5.52-7.43-3.37-15.33-1.34-22.79-4.29-4.75-1.88-8.44 3.7-7.92 9.54 0.66 7.45 2.13 14.67 5.09 21.23 2.02 4.48 1.5 11.53 6.27 13.16 6.73 2.29 12.79 7.04 20.59 6.11 7.96-0.95 15.96-1.49 23.83-3.13 2.58-0.54 5.37-1.39 6.29-5.08 0.87-3.51 2.39-4.01 4.4-0.95 1.08 1.63 2.48 1.69 3.85 0.82 1.76-1.12 1.22-2.54 0.29-4.15-2.14-3.78 0.61-6.06 2.55-7.71 6.51-5.55 5.58-14.69 8.51-20.19z"/>
			<path class="s14" d="m161.17 139.1q-16.38 0.02-32.76 0.03c0.29-2.13 1.57-2.46 3.16-2.46q13.21 0.03 26.42-0.01c1.59-0.01 2.86 0.34 3.18 2.44z"/>
			<path class="s3" d="m182.88 150.42c2.15 0.15 2.18 1.88 2.1 3.71-2.26-0.06-2.11-1.93-2.1-3.71z"/>
			<path class="s14" d="m301.34 171.71c8.23 0 16.47-0.03 24.71 0.05 1.79 0.03 4.16-0.96 4.74 2.42-3.74 0.24-8.53-1.28-9.55 4.79-0.49 2.88-1.7 5.18-2.45 7.78q-7.63 0.05-15.25 0.09c-2.06-4.79-2.27-9.93-2.2-15.13z"/>
			<path class="s5" d="m352.52 195.44q-9.79-0.22-19.58-0.44c6.56-1.08 13.1-1.77 19.58 0.44z"/>
			<path class="s5" d="m353.37 197.01q-0.39-0.77-0.77-1.54 0.99 0.35 0.77 1.54z"/>
			<path class="s14" d="m127.32 112.89c0.44-7.16 0.96-7.6 8.8-7.67 0.44 2.33 3.86 3.21 2.55 6.26-1.38 3.24-4.19 2.6-6.68 2.69-1.68 0.05-3.2-0.43-4.67-1.28z"/>
			<path class="s2" d="m127.32 112.89c1.47 0.85 2.99 1.33 4.67 1.28 2.5-0.09 5.3 0.55 6.68-2.69 1.31-3.05-2.11-3.93-2.55-6.26 3.23-0.43 7.28 3.71 7.32 7.86 0.05 4.16-2.87 3.45-5.12 3.52q-4.59 0.12-9.2-0.02c-2.24-0.07-3.72-0.83-1.8-3.69z"/>
			<path class="s2" d="m198.09 374.66q-0.02-5.03-0.03-10.06 0.03-10.03 0.07-20.07c3.16 0.83 2.08 3.8 2.04 5.94-0.08 3.14 0.44 5.58 3.29 6.64-3.12 3.3-3.58 7.47-3.28 12.06 0.14 2.05 0.9 4.83-2.09 5.49z"/>
			<path class="s2" d="m219.79 319.5c0.14-2.19-0.05-4.31-1.06-6.25 1.66-1.96 2.63-0.45 2.98 1.14 0.44 2.04 1.08 4.6-1.92 5.11z"/>
			<path class="s2" d="m215.47 323.24c0.47-0.99 1.28-1.21 2.17-1.24-0.21 1.64-0.45 3.17-2.17 1.24z"/>
			<path class="s2" d="m195.89 382.14c-0.01-1.81 0.76-3.05 2.09-3.89 0.13 1.89 0.18 3.72-2.09 3.89z"/>
			<path class="s2" d="m193.77 384.68c0.37-1.23 1.1-2.04 2.12-2.54q-0.02 2.42-2.12 2.54z"/>
			<path class="s2" d="m188.23 389.63q0.57-0.57 1.14-1.15-0.57 0.57-1.14 1.15z"/>
			<path class="s4" d="m250.03 340.53c2.15 4.01 1.17 7.32-1.72 10.22q0.86-5.1 1.72-10.22z"/>
			<path class="s13" d="m276.37 145.42c-2.48 1.61-4.48-0.14-6.58-1.2-1.11-2.5-2.77-4.68-3.14-7.57 0.86 0.2 1.89 0.12 2.56 0.66 1.28 1.02 2.37 3.3 4.01 2.33 1.89-1.11 0.85-3.73 0.94-5.67 0.14-3.31 0.08-6.63 0.03-9.95-0.11-6.29-2.64-8.65-7.95-7.01-3.12 0.97-6.09 2.56-9.43 2.12l-0.02-0.03c-0.09-2.89 4.36-2.6 3.29-6.2q2.17-0.02 4.34-0.04 2.18 2.63 4.35 0c1.85 0.24 3.9-0.76 5.48 1.14q-0.05 2.52 2.13 2.62-0.02 14.4-0.01 28.8z"/>
			<path class="s14" d="m268.76 112.86q-2.18 2.63-4.35 0 2.18 0 4.35 0z"/>
			<path class="s14" d="m276.37 116.62q-2.18-0.1-2.13-2.62c1.38 0.15 2.11 0.99 2.13 2.62z"/>
			<path class="s6" d="m302.09 140.08c0.29 8.07 0.98 16.14-0.38 24.18-0.3-8.07-0.99-16.16 0.38-24.18z"/>
			<path class="s3" d="m137.16 279.44q0.54 0.54 1.08 1.07-6.51 0.56-13.02 1.11 0-1.09 0-2.17 5.96-0.01 11.94-0.01z"/>
			<path class="s10" d="m364.45 397.23q4.51-0.31 9.02-0.61c4.04 3.75 1.25 8.71 1.75 13.09q-2.12-0.04-4.24-0.08 0.54-1.22 1.09-2.44c1.9-0.25 2.55-1.68 1.87-3.45-0.8-2.04-2.09-3.67-4.28-4.07-1.86-0.34-4.53 1.33-5.21-2.44z"/>
			<path class="s11" d="m263.49 341.38c-1.23 10.37-2.35 20.66-3.74 30.89-0.37 2.75-1.72 5.32-4.79 4.6-2.47-0.57-3.63-2.45-3.18-5.5 1.57-10.41 3.03-20.84 4.7-31.23 0.45-2.85 0.21-7.28 4.04-6.79 4.2 0.54 2.49 5.1 2.97 8.03z"/>
			<path class="s9" d="m364.45 397.23c0.68 3.77 3.34 2.1 5.21 2.44 2.19 0.4 3.49 2.03 4.28 4.07 0.68 1.77 0.03 3.21-1.87 3.45-2.16 0.84-5.33-1.99-6.51 2.38q-19.06 0.01-38.12 0.01c-2.62-3.61-6.07-6.74-5.43-12.27q18.51-0.02 37.01-0.05 0.54 0.99 1.06-0.01 2.2-0.01 4.37-0.02z"/>
			<path class="s8" d="m74.06 409.62q-2.14 0-4.28 0.01 2.14-2.51 4.28-0.01z"/>
			<path class="s8" d="m67.65 397.33q1.55 0 3.1 0-1.55 2.11-3.1 0z"/>
			<path class="s8" d="m81.67 409.62q-1.05 0-2.1 0 1.04-1.8 2.1 0z"/>
			<path class="s8" d="m365.58 409.57c1.18-4.37 4.35-1.54 6.52-2.38q-0.55 1.22-1.1 2.44-2.73-0.02-5.42-0.06z"/>
			<path class="s10" d="m360.11 397.25q-0.53 1-1.07 0.01 0.53-0.07 1.07-0.01z"/>
			<path class="s9" d="m207.87 219.3c-0.4-2.65 0.72-5 1.09-7.5 10.64 0 21.27 0.07 31.91-0.05 3.68-0.04 7.41 0.84 10.86-2.09 2.5-2.12 4.91 2.14 7.48 1.32 9.22-3 18.62-1.08 27.94-1.7 3.87-0.25 7.52 0.54 10.98 2.52 0.82 3.11-1.59 4.96-2.19 7.52q-44.03-0.01-88.07-0.02z"/>
			<path class="s9" d="m151.31 211.8c0.91 4.33-3.26 4.74-4.35 7.51q-24.46 0-48.92 0c-0.39-2.49-1.48-4.86-1.1-7.51 1.51-0.98 3.33-1.44 4.26-3.38q13.71 0.03 27.43 0.06c7.4 2.47 14.9 4.19 22.68 3.32z"/>
			<path class="s8" d="m295.94 219.31c0.6-2.56 3.01-4.41 2.19-7.52q29.9 0 59.81 0c-0.38 2.66 0.72 5.01 1.1 7.52q-31.55 0.01-63.1 0z"/>
			<path class="s9" d="m359.03 219.32c-0.38-2.5-1.48-4.86-1.1-7.52 3.31-0.39 6.01-3.43 9.69-2.6 1.84 0.41 3.38 1 4.92 2.18 1.91 1.45 1.79 3.44 1.58 5.52-0.26 2.71-2.12 2.38-3.71 2.4-3.79 0.04-7.58 0.01-11.38 0.02z"/>
			<path class="s5" d="m286.15 207.69q0.55-0.82 1.11 0.02-0.56-0.02-1.11-0.02z"/>
			<path class="s13" d="m186.11 384.66c-0.71 3.79-3.39 2.43-5.29 2.43-25.07 0.07-50.14 0.03-75.21 0.02 0.73-3.78 3.41-2.42 5.32-2.42 25.06-0.07 50.12-0.03 75.18-0.03z"/>
			<path class="s3" d="m142.64 280.46c1.44-1.42 2.87-1.47 4.29 0.04q-2.16-0.02-4.29-0.04z"/>
			<path class="s8" d="m96.93 211.8c-0.38 2.65 0.7 5.02 1.1 7.51-10.09 0-20.19-0.01-30.27 0.02-2.51 0.02-4.72 0.05-4.57-4.08 0.13-3.92 2.41-3.45 4.54-3.45q14.61-0.01 29.2 0z"/>
			<path class="s13" d="m241.61 171.69c1.45 3.43 3.85 5.04 7.14 5.04 2.13 0 4.56-0.51 5.32 2.75 0.63 2.72-0.77 4.13-2.82 5.13-1.15 0.58-0.92 2.09-1 3.31-7.5 0.02-14.98 0.11-22.48 0.04-1.77-0.02-4.17 0.98-4.63-2.49 1.67-6.68 1.7-13.36-0.04-20.02q0.01-1.88 0.02-3.76c3.24-7.4 6.51-2.61 9.78-0.05l0.01 0.02c0.51 5.96 3.5 9.4 8.68 10z"/>
			<path class="s14" d="m223.1 165.46c1.74 6.67 1.71 13.35 0.04 20.03q-0.02-10.02-0.04-20.03z"/>
			<path class="s5" d="m266.65 136.64c0.37 2.89 2.03 5.08 3.14 7.57 0.66 9.07 0.35 17.97-6.72 23.93-4.7 3.96-9.62 8.24-16.15 4.02-1.4-0.9-3.52-0.36-5.31-0.47l-0.02-0.01q-3.15-6.38-8.68-10l-0.01-0.03c-0.03-3.75 0.46-7.59-0.16-11.2-1.49-8.73 2.93-13.98 7.72-19.11 2.65-2.86 6.06-2.17 9.28-2.22 2.35-0.04 4.69-0.02 7.04-0.02q2.14 0.1 4.28 0.18 2.8 3.69 5.59 7.36zm-29.51 6.04c-4.54 10.71-0.92 21.46 8.38 26.24 9.38 4.81 18.68-3.87 20.93-11.54 3.19-10.87-1.89-22.9-10.71-25.76-8.88-2.87-16.28 1.55-18.6 11.11z"/>
			<path class="s13" d="m261.07 129.28q-2.14-0.1-4.28-0.18c-0.14-1.04-0.4-2.04-1.45-2.28-1.79-0.41-4.27 0.2-3.87-3.42 0.4-3.59 2.44-4.67 5.31-4.3l0.02 0.03c-1.36 4.92 2.97 6.69 4.27 10.15z"/>
			<path class="s15" d="m304.6 151.56c0.01-1.87-0.01-3.75 0.01-5.61 0.1-7.47 1.63-9.25 7.9-9.31 7.72-0.09 15.06 2.38 22.46 4.35 3.61 0.96 7.18 0.6 10.76 0.57 4.83-0.04 6.95 2.51 6.78 7.96-0.09 2.49 0 4.99 0 7.49-0.02 9.54-5.39 13.14-13.46 10.52-8.36-2.72-17.03-3.89-25.89-3.47-9.33 0.44-8.49 1.74-8.57-9.98q0.01-1.29 0.01-2.52z"/>
			<path class="s5" d="m355.02 154.21c0.08 0.28 0.2 0.57 0.22 0.87 0.01 0.09-0.22 0.22-0.32 0.33q-0.17-0.64 0.1-1.2z"/>
			<path class="s13" d="m302.47 131.64q-0.01-3.41-0.01-6.82c-0.02-11.58 0.21-11.86 10.42-11.96q2.42-0.02 4.84-0.06c10.44 0.03 20.87 0.2 31.31 0.01 4.11-0.07 6.03 1.42 5.78 6.39-0.22 4.13 0.02 8.29 0.05 12.44-8.84 0.01-17.68 0.27-26.51-0.05-5.43-0.2-10.53-3.32-16.22-2.54-3.36 0.47-6.76 0.13-9.66 2.59z"/>
			<path class="s1" d="m327.46 104.97q10.88 0.37 21.76 0.75c-0.14 0.38-0.22 1.05-0.42 1.09-8.32 1.84-16.67 1.29-25.01 0.28-0.27-0.04-0.43-1.07-0.65-1.63q2.17-0.25 4.32-0.49z"/>
			<path class="s13" d="m318.79 186.75c0.75-2.6 1.96-4.89 2.45-7.78 1.02-6.07 5.81-4.55 9.55-4.79q11.96 0 23.92 0.01c0.03 12.61 0.03 12.61-11.12 12.61-8.27 0-16.54-0.04-24.8-0.05z"/>
			<path class="s3" d="m304.68 105.47q1.06 0.02 2.12 0.04c-0.18 1.09 0.41 2.92-1.08 2.89-1.47-0.01-0.89-1.83-1.04-2.93z"/>
			<path class="s12" d="m174.14 154.13c-2.94 5.5-2 14.64-8.49 20.2-1.93 1.67-4.69 3.95-2.54 7.71 0.91 1.62 1.45 3.03-0.3 4.15-1.37 0.86-2.78 0.81-3.85-0.82-2.01-3.05-3.53-2.55-4.4 0.95-0.92 3.7-3.71 4.55-6.28 5.08-7.88 1.63-15.89 2.18-23.83 3.13-7.81 0.94-13.87-3.81-20.6-6.11-4.77-1.63-4.25-8.67-6.27-13.16-2.96-6.55-4.43-13.77-5.09-21.23-0.52-5.84 3.16-11.42 7.92-9.54 7.46 2.95 15.36 0.92 22.8 4.29 6.32 2.87 11.4-3.76 17.2-5.52 1.48-0.45 2.88-2.06 4.5-1.52 6.63 2.22 13.19-0.69 19.82-0.18 6.8 0.51 9.43 3.08 9.41 12.57z"/>
			<path class="s12" d="m261.07 129.28c-1.3-3.46-5.63-5.23-4.28-10.16 3.34 0.44 6.31-1.16 9.42-2.12 5.31-1.64 7.85 0.71 7.96 7 0.05 3.33 0.11 6.65-0.04 9.95-0.08 1.95 0.97 4.57-0.93 5.68-1.64 0.97-2.73-1.32-4.02-2.33-0.66-0.53-1.69-0.46-2.55-0.66q-2.77-3.67-5.56-7.36z"/>
			<path class="s14" d="m232.91 161.68q5.53 3.62 8.68 10c-5.17-0.61-8.16-4.05-8.68-10z"/>
			<path class="s7" d="m237.14 142.71c2.32-9.56 9.72-13.97 18.6-11.1 8.82 2.86 13.9 14.9 10.71 25.75-2.25 7.67-11.54 16.36-20.93 11.55-9.3-4.78-12.91-15.53-8.38-26.25 0.03 3.33-0.03 6.66 0.14 9.97 0.26 5.25 4.95 13.49 8.52 13.8 5.7 0.47 12.1 2.68 16.19-4.62 2.98-5.31 4.34-10.24 1.8-17.08-4.28-11.49-15.68-14.86-23.23-5.76-1.08 1.3-1.51 3.47-3.42 3.74z"/>
			<path class="s15" d="m237.14 142.71c1.93-0.27 2.35-2.44 3.42-3.73 7.55-9.09 18.95-5.73 23.23 5.76 2.54 6.85 1.17 11.77-1.8 17.08-4.09 7.3-10.49 5.09-16.19 4.62-3.57-0.3-8.26-8.55-8.52-13.8-0.16-3.31-0.1-6.64-0.14-9.96z"/>
		</g>
	</g>
</svg>