<svg width="477" height="489" viewBox="0 0 477 489" fill="none" xmlns="http://www.w3.org/2000/svg">
<g clip-path="url(#clip0_5_916)">
<path d="M476.87 244.5C476.87 324.227 476.818 403.94 477 483.667C477.013 488.126 476.127 489.013 471.67 489C316.228 488.857 160.786 488.857 5.34344 489C0.886229 489 0 488.126 0.0130328 483.667C0.143361 324.227 0.143361 164.773 0 5.33336C0 0.87368 0.873197 0 5.33041 0C160.772 0.14344 316.215 0.14344 471.657 0C476.114 0 477 0.87368 477 5.33336C476.831 85.0599 476.87 164.773 476.87 244.5ZM211.157 75.5929C210.284 75.5929 209.411 75.5929 208.538 75.5929C186.499 75.6581 164.448 75.7102 142.409 75.7754C137.639 75.6972 132.882 75.5016 128.112 75.5538C116.539 75.6842 111.078 80.835 109.827 92.6492C109.788 93.5098 109.749 94.3835 109.71 95.2442C109.71 96.5612 109.71 97.8782 109.71 99.1953C109.697 107.45 109.671 115.704 109.658 123.958C109.124 127.414 109.084 130.882 109.606 134.351C109.606 140.441 109.619 146.53 109.619 152.607C109.619 156.519 109.619 160.418 109.606 164.33C109.501 166.273 109.319 168.216 109.319 170.159C109.293 205.98 109.267 241.788 109.293 277.609C109.319 315.372 109.384 353.149 109.462 390.913C109.475 399.011 111.847 405.844 119.967 409.365L120.149 409.678L120.501 409.652C123.746 411.881 127.474 411.66 131.136 411.66C204.901 411.673 278.654 411.66 352.42 411.634C355.847 411.634 359.379 411.908 362.311 409.521C368.919 406.926 369.74 401.097 370.314 395.138C373.051 390.509 371.448 385.515 371.487 380.664C372.06 376.765 372.034 372.879 371.461 368.98C371.461 354.623 371.461 340.279 371.461 325.922C372.008 323.757 371.995 321.606 371.448 319.454C371.448 316.403 371.448 313.338 371.448 310.287C371.448 309.426 371.448 308.579 371.448 307.718C371.474 270.776 371.487 233.82 371.513 196.878C372.099 192.992 372.112 189.106 371.526 185.22C371.526 183.016 371.526 180.826 371.526 178.622C372.086 173.432 372.125 168.255 371.513 163.065C371.591 139.424 371.891 115.782 371.63 92.1537C371.513 81.5391 364.918 75.4625 354.166 75.2799C341.381 75.0713 328.583 75.2538 315.784 75.293C282.186 75.3842 248.587 75.4886 214.989 75.5929C213.712 75.5929 212.434 75.5929 211.157 75.5929Z" fill="#FDFDFD"/>
<path d="M215.002 75.606C248.6 75.5017 282.199 75.3974 315.797 75.3061C328.596 75.267 341.381 75.0844 354.179 75.2931C364.931 75.4626 371.526 81.5523 371.643 92.1668C371.89 115.795 371.591 139.437 371.526 163.078C368.528 158.984 370.809 154.276 370.014 149.921C370.027 140.806 370.04 131.691 370.027 122.589C370.027 121.116 370.196 119.12 368.085 119.16C366.013 119.212 366.234 121.207 366.221 122.68C366.182 127.453 366.247 132.226 366.169 136.998C366.13 139.02 366.951 141.575 363.745 142.162C363.641 134.782 363.523 127.401 363.419 120.02C363.406 116.995 363.406 113.97 363.393 110.931C363.354 105.285 363.315 99.6257 363.263 93.9794C362.937 87.8506 360.474 83.3387 353.736 83.1953C344.86 83.0127 335.972 83.3387 327.097 83.4431C315.797 82.9215 304.511 82.8954 293.212 83.4691C286.265 82.9475 279.319 83.0258 272.372 83.5474C266.729 83.5474 261.086 83.5604 255.443 83.5604C248.496 83.5735 241.55 83.5734 234.603 83.5865C225.05 83.5082 215.51 83.43 205.957 83.3648C206.061 81.7479 206.921 80.9263 208.538 80.9133C209.411 80.9133 210.284 80.9133 211.17 80.9133C216.11 80.9133 221.049 80.9133 226.692 80.9133C223.629 74.8367 217.869 79.0225 215.002 75.606ZM320.541 80.9263C325.455 80.9263 330.381 80.9524 335.294 80.9003C336.767 80.8872 338.592 80.9133 338.331 78.6835C338.136 77.0143 336.559 77.0795 335.307 77.0665C330.394 77.0274 325.468 77.0404 320.554 77.0404C318.391 77.0404 316.227 77.0404 314.064 77.0404C304.772 77.7707 295.166 75.2539 286.161 78.8269C286.174 79.5311 286.2 80.2222 286.213 80.9263C295.492 80.9263 304.772 80.9263 314.051 80.9263C316.227 80.9263 318.391 80.9263 320.541 80.9263Z" fill="#181230"/>
<path d="M120.501 409.652L120.149 409.678L119.967 409.365C119.797 405.922 116.461 404.736 114.949 402.284C112.473 398.255 109.215 394.056 114.741 389.831C114.728 391.748 114.728 393.652 117.399 393.743L117.686 394.03L117.504 394.395C117.751 395.021 118.012 395.647 118.26 396.273C118.39 396.729 118.52 397.185 118.651 397.642C116.683 399.872 118.455 399.989 120.084 400.172L120.019 400.106C120.475 400.563 120.931 401.032 121.4 401.489L121.335 401.423C122.026 404.67 123.525 406.079 126.653 403.731C128.764 403.679 130.875 403.627 132.987 403.588C137.77 403.575 142.566 403.562 147.349 403.549C148.157 403.549 148.978 403.549 149.786 403.562C150.268 403.758 150.75 403.966 151.232 404.162C151.389 405.557 151.936 406.587 153.526 406.679C155.351 406.796 156.315 405.948 156.446 404.136C158.179 403.94 159.899 403.758 161.633 403.562C163.809 403.562 165.999 403.562 168.175 403.562C169.465 403.562 170.756 403.549 172.046 403.549C174.665 403.549 177.285 403.549 179.892 403.549C181.612 403.549 183.345 403.549 185.066 403.549C185.952 403.549 186.825 403.549 187.711 403.549C195.518 403.562 203.325 403.562 211.131 403.575C213.308 403.575 215.484 403.575 217.661 403.588C218.521 403.588 219.381 403.588 220.241 403.588C223.721 403.588 227.201 403.601 230.68 403.601C234.577 403.614 238.474 403.614 242.384 403.627C243.257 403.627 244.13 403.627 245.016 403.627C248.483 403.81 251.963 404.005 255.43 404.188C255.768 404.853 255.99 406.013 256.446 406.105C257.841 406.405 257.841 405.127 258.023 404.188C266.273 404.005 274.51 403.81 282.759 403.627C284.936 403.627 287.125 403.627 289.302 403.627C291.465 403.627 293.616 403.627 295.779 403.627C298.399 403.627 301.018 403.627 303.625 403.627C305.788 403.81 307.952 403.992 310.128 404.175C312.722 408.191 315.328 408.178 317.948 404.188C318.821 404.188 319.681 404.188 320.554 404.188C320.893 404.853 321.115 406.013 321.584 406.118C322.979 406.418 322.979 405.14 323.161 404.188C331.411 403.992 339.661 403.797 347.897 403.601C350.139 403.588 352.367 403.562 354.609 403.549C358.376 403.392 360.291 401.15 361.204 397.759C365.257 395.595 362.702 391.526 363.862 388.527C365.922 388.54 367.968 388.54 370.027 388.553C371.017 390.718 367.525 393.065 370.288 395.164C369.714 401.123 368.906 406.952 362.285 409.547C358.793 407.643 355.248 409.586 351.742 409.573C285.262 409.391 218.781 409.43 152.301 409.456C141.719 409.443 131.11 409.573 120.501 409.652Z" fill="#251F40"/>
<path d="M370.04 388.54C367.981 388.527 365.935 388.527 363.875 388.514C363.875 372.436 363.875 356.357 363.875 340.279C367.173 336.354 367.16 324.644 363.862 320.758C363.862 319.441 363.862 318.137 363.862 316.82C367.499 314.225 367.499 311.63 363.862 309.035C363.862 307.718 363.875 306.414 363.875 305.097C367.446 303.363 367.433 301.628 363.862 299.92C363.862 298.603 363.875 297.299 363.875 295.982C367.525 292.957 367.486 289.931 363.888 286.893C363.719 269.511 363.55 252.128 363.38 234.746C363.38 233.442 363.367 232.151 363.367 230.847C363.367 227.809 363.367 224.758 363.367 221.719C363.367 220.846 363.367 219.985 363.367 219.111C363.524 217.364 363.68 215.616 363.836 213.882C366.586 213.334 366.13 211.144 366.13 209.253C366.143 192.379 366.156 175.492 366.13 158.619C366.13 156.741 366.612 154.55 363.875 153.95C363.328 153.077 362.781 152.203 362.233 151.329C362.207 150.912 362.194 150.508 362.207 150.09C364.801 150.038 367.394 149.999 369.975 149.947C370.77 154.302 368.489 159.01 371.487 163.104C372.112 168.294 372.06 173.471 371.5 178.661C369.349 180.865 369.336 183.056 371.5 185.259C372.086 189.145 372.073 193.031 371.487 196.917C369.323 198.508 370.066 200.855 370.053 202.929C370.014 235.868 370.014 268.794 370.053 301.733C370.053 303.806 369.323 306.14 371.421 307.77C371.421 308.631 371.421 309.478 371.421 310.339C369.232 313.39 369.232 316.455 371.421 319.506C371.956 321.658 371.982 323.822 371.434 325.974C369.74 327.174 370.053 328.999 370.04 330.681C370.027 341.896 370.027 353.097 370.04 364.312C370.04 366.007 369.727 367.819 371.421 369.019C371.995 372.905 372.008 376.804 371.448 380.703C368.906 382.907 370.522 385.919 370.04 388.54Z" fill="#201A39"/>
<path d="M114.741 389.831C109.202 394.069 112.473 398.255 114.949 402.284C116.461 404.736 119.797 405.922 119.967 409.365C111.847 405.857 109.475 399.024 109.462 390.913C109.384 353.149 109.319 315.372 109.293 277.609C109.267 241.788 109.293 205.98 109.319 170.159C109.319 168.216 109.502 166.273 109.606 164.33C111.665 164.317 115.301 166.99 114.65 162.009C114.18 158.436 117.882 152.138 109.619 152.607C109.619 146.517 109.606 140.428 109.606 134.351C114.037 135.551 112.056 139.202 112.069 141.719C112.095 145.657 112.981 148.317 117.347 148.656C117.399 149.647 117.452 150.638 117.504 151.629C117.425 158.045 117.36 164.447 117.282 170.863C113.073 172.024 114.858 175.492 114.858 177.918C114.728 248.555 114.754 319.193 114.741 389.831Z" fill="#201A39"/>
<path d="M120.501 409.652C131.11 409.573 141.719 409.443 152.327 409.43C218.808 409.404 285.288 409.365 351.768 409.547C355.274 409.56 358.819 407.617 362.312 409.521C359.379 411.907 355.847 411.634 352.42 411.634C278.654 411.66 204.902 411.66 131.136 411.66C127.474 411.66 123.746 411.881 120.501 409.652Z" fill="#342E4C"/>
<path d="M109.814 92.6491C111.065 80.8218 116.526 75.671 128.099 75.5536C132.869 75.5015 137.626 75.6971 142.396 75.7753C140.624 79.27 135.997 77.1315 133.508 79.7916C135.828 81.552 138.069 80.874 140.128 80.887C156.602 80.9522 173.101 81.4216 189.536 80.6523C195.414 80.3784 199.584 85.6466 205.371 83.808C205.358 84.9816 205.358 86.1682 205.345 87.3418C205.305 95.1919 205.266 103.029 205.227 110.879C204.693 117.412 204.667 123.945 205.188 130.478C205.188 131.769 205.188 133.047 205.188 134.338C205.162 136.49 205.149 138.628 205.123 140.78C204.954 141.249 204.771 141.719 204.602 142.175C202.516 140.271 203.377 137.741 203.364 135.485C203.272 123.684 203.116 111.87 203.416 100.069C203.533 95.3223 202.243 93.1185 197.303 94.0052C197.069 93.1185 196.847 92.2318 196.613 91.3451C196.613 89.1674 196.626 87.0028 196.626 84.8251C196.795 83.9253 196.508 83.4428 195.505 83.6645C189.001 83.6515 182.485 83.6515 175.982 83.6384C175.539 83.5732 175.095 83.5211 174.665 83.4559C170.756 81.3825 166.859 81.3695 162.962 83.482C150.802 83.5732 138.656 83.6515 126.496 83.7428C126.04 83.7428 125.597 83.7297 125.141 83.7297C124.241 83.482 123.942 84.0818 123.707 84.7599C123.303 84.7468 122.912 84.8381 122.547 85.0207C121.687 84.8642 121.296 85.1772 121.479 86.0769C121.309 86.4551 121.218 86.8463 121.218 87.2636C119.315 87.2114 118.351 88.0199 118.703 90.028C117.491 91.1625 117.79 92.5578 118.012 93.9531C117.816 96.5611 117.621 99.156 117.425 101.764C114.206 101.503 114.832 99.0256 114.728 97.0044C114.623 95.1267 115.04 93.0012 112.251 92.7012C111.43 92.7012 110.622 92.6752 109.814 92.6491Z" fill="#181230"/>
<path d="M112.238 92.7405C115.027 93.0534 114.623 95.179 114.715 97.0437C114.819 99.0649 114.193 101.542 117.412 101.803C117.399 103.094 117.399 104.398 117.386 105.689C116.748 105.794 115.757 105.389 115.848 106.563C115.861 106.745 116.839 106.863 117.373 107.006C117.36 115.691 117.36 124.376 117.347 133.073C115.366 133.334 114.011 133.843 116.239 135.812C116.135 138.276 115.484 140.962 118.637 142.201C118.82 142.436 118.794 142.658 118.546 142.84C119.602 145.631 122.039 144.809 124.046 144.835C131.331 144.914 138.63 144.9 145.915 144.914C145.915 146.152 145.928 147.391 145.928 148.63C136.388 148.643 126.848 148.656 117.308 148.669C112.942 148.317 112.056 145.67 112.03 141.732C112.017 139.228 113.998 135.564 109.567 134.364C109.045 130.896 109.071 127.44 109.619 123.971C111 123.724 112.056 123.072 112.056 121.52C112.082 114.908 112.095 108.284 112.069 101.673C112.069 100.121 111.065 99.443 109.658 99.2083C109.658 97.8913 109.658 96.5742 109.658 95.2572C111.352 95.2311 112.147 94.3444 112.238 92.7405Z" fill="#342E4C"/>
<path d="M205.371 83.808C199.584 85.6466 195.414 80.3784 189.536 80.6523C173.101 81.4216 156.602 80.9522 140.128 80.887C138.056 80.874 135.828 81.5521 133.508 79.7917C136.01 77.1315 140.624 79.2831 142.396 75.7753C164.448 75.7101 186.486 75.6449 208.538 75.5928C208.538 77.3662 208.538 79.1397 208.538 80.9131C206.921 80.9261 206.061 81.7477 205.957 83.3646L205.814 83.7688L205.371 83.808Z" fill="#251F40"/>
<path d="M371.447 307.731C369.349 306.101 370.079 303.767 370.079 301.693C370.04 268.754 370.04 235.828 370.079 202.889C370.079 200.816 369.349 198.482 371.512 196.878C371.486 233.833 371.473 270.789 371.447 307.731Z" fill="#181230"/>
<path d="M109.606 152.62C117.869 152.164 114.167 158.449 114.636 162.022C115.288 167.003 111.665 164.33 109.593 164.343C109.606 160.431 109.606 156.532 109.606 152.62Z" fill="#181230"/>
<path d="M215.002 75.6058C217.869 79.0223 223.643 74.8365 226.692 80.9131C221.049 80.9131 216.11 80.9131 211.17 80.9131C211.17 79.1397 211.17 77.3662 211.17 75.5928C212.434 75.5928 213.712 75.5928 215.002 75.6058Z" fill="#251F40"/>
<path d="M109.697 99.1953C111.105 99.417 112.095 100.108 112.108 101.66C112.121 108.271 112.121 114.895 112.095 121.507C112.082 123.059 111.039 123.711 109.658 123.958C109.658 115.704 109.671 107.45 109.697 99.1953Z" fill="#201A39"/>
<path d="M371.461 368.993C369.753 367.793 370.079 365.967 370.079 364.285C370.066 353.071 370.066 341.87 370.079 330.655C370.079 328.96 369.766 327.147 371.474 325.948C371.461 340.279 371.461 354.636 371.461 368.993Z" fill="#181230"/>
<path d="M370.04 388.54C370.535 385.919 368.906 382.907 371.487 380.677C371.448 385.528 373.051 390.522 370.314 395.151C367.538 393.052 371.017 390.705 370.04 388.54Z" fill="#181230"/>
<path d="M211.157 75.5928C211.157 77.3662 211.157 79.1397 211.157 80.9131C210.284 80.9131 209.411 80.9131 208.525 80.9131C208.525 79.1397 208.525 77.3662 208.525 75.5928C209.411 75.5928 210.284 75.5928 211.157 75.5928Z" fill="#201A39"/>
<path d="M371.448 319.454C369.258 316.403 369.258 313.338 371.448 310.287C371.448 313.351 371.448 316.403 371.448 319.454Z" fill="#181230"/>
<path d="M371.526 185.233C369.362 183.029 369.375 180.839 371.526 178.635C371.526 180.839 371.526 183.029 371.526 185.233Z" fill="#181230"/>
<path d="M112.238 92.7404C112.147 94.3443 111.352 95.231 109.697 95.2571C109.736 94.3964 109.775 93.5227 109.814 92.6621C110.622 92.6751 111.43 92.7012 112.238 92.7404Z" fill="#201A39"/>
<path d="M272.359 83.5473C279.306 83.0257 286.252 82.9474 293.199 83.469C293.511 87.042 292.99 90.5106 291.908 93.901C282.746 94.4357 282.381 94.8399 282.16 103.929C282.095 106.68 281.912 109.432 281.795 112.183C273.767 111.322 265.504 111.062 261.307 102.207C260.538 100.577 259.066 100.238 257.867 102.129C255.834 100.864 255.403 97.6826 252.406 97.5653C245.381 92.6101 238.109 91.9581 230.537 96.2873C225.415 98.6215 222.821 102.938 221.323 108.102C216.631 107.723 211.952 107.345 207.26 106.98C207.26 100.03 207.247 93.0925 207.247 86.1422C214.702 86.1422 222.17 86.1683 229.625 86.1292C231.658 86.1161 234.121 86.729 234.59 83.5864C241.537 83.5733 248.483 83.5733 255.43 83.5603C259.027 87.3289 268.801 87.3158 272.359 83.5473Z" fill="#E9E7EF"/>
<path d="M363.25 93.9792C363.289 99.6255 363.328 105.285 363.38 110.931C361.66 113.97 361.634 116.995 363.406 120.02C363.51 127.401 363.628 134.781 363.732 142.162C361.881 143.831 359.627 143.088 357.528 143.153C350.856 143.336 344.17 143.401 337.484 143.518C336.624 143.336 335.764 143.153 334.917 142.97C333.887 138.889 338.579 136.19 337.51 132.108C339.243 132.069 340.964 132.043 342.697 132.004C343.166 132.643 343.609 132.578 344.026 131.952C346.125 131.873 347.558 129.983 347.65 128.731C348.392 119.12 350.543 109.536 349.096 99.8342C348.588 96.4438 346.255 94.6834 342.958 94.1226C349.174 92.6882 351.507 94.253 351.781 100.356C351.989 104.894 351.82 109.445 351.859 113.983C351.872 115.013 351.69 116.304 353.019 116.708C354.283 117.086 354.987 116.095 355.521 115.156C358.376 110.214 362.468 105.767 361.047 99.2082C360.643 97.3696 360.096 94.6834 363.25 93.9792Z" fill="#F3F1F8"/>
<path d="M363.25 93.9792C360.096 94.6834 360.63 97.3696 361.034 99.2213C362.455 105.767 358.363 110.214 355.508 115.169C354.974 116.095 354.27 117.099 353.006 116.721C351.69 116.317 351.859 115.026 351.846 113.996C351.807 109.458 351.976 104.907 351.768 100.369C351.494 94.2531 349.161 92.7013 342.945 94.1357L342.827 94.1227C339.269 89.7543 335.685 89.8716 332.088 94.0836C330.603 94.0966 329.13 94.0966 327.644 94.1096C327.449 90.5628 327.266 87.0159 327.071 83.469C335.946 83.3647 344.834 83.0387 353.71 83.2212C360.461 83.3386 362.924 87.8635 363.25 93.9792Z" fill="#E9E7EF"/>
<path d="M337.497 143.518C344.183 143.401 350.856 143.336 357.541 143.153C359.627 143.101 361.894 143.831 363.745 142.162C366.951 141.575 366.13 139.019 366.169 136.998C366.247 132.226 366.182 127.453 366.221 122.68C366.234 121.207 366 119.212 368.085 119.159C370.196 119.107 370.014 121.115 370.027 122.589C370.053 131.704 370.027 140.819 370.014 149.921C367.42 149.96 364.827 150.012 362.246 150.051C360.643 147.913 358.31 148.721 356.264 148.695C345.512 148.617 334.747 148.682 323.982 148.604C322.249 148.591 320.216 149.269 317.531 146.1C323.213 146.1 327.54 146.191 331.88 146.061C333.991 145.996 336.871 147.13 337.497 143.518Z" fill="#342E4C"/>
<path d="M327.084 83.4429C327.279 86.9898 327.462 90.5366 327.657 94.0835C315.732 94.6964 303.82 94.5008 291.908 93.901C292.99 90.4975 293.511 87.0289 293.199 83.469C304.498 82.8952 315.785 82.9213 327.084 83.4429ZM313.295 86.4812C313.882 89.2848 315.706 89.9107 317.075 90.6931C318.991 91.7885 321.245 91.7624 323.304 90.8366C324.308 90.3802 323.93 89.3761 323.63 88.5676C322.64 85.9205 320.372 86.103 318.196 86.1682C316.723 86.2074 315.237 86.3508 313.295 86.4812ZM296.874 91.1886C298.49 90.7844 299.52 89.8194 299.507 88.0721C299.507 86.8072 298.555 86.0248 297.513 85.9205C294.906 85.6336 296.131 87.9547 295.61 89.0762C295.101 90.2106 295.336 91.1365 296.874 91.1886Z" fill="#F3F1F8"/>
<path d="M314.064 80.9263C304.785 80.9263 295.505 80.9263 286.213 80.9263C286.2 80.2222 286.174 79.5311 286.161 78.8269C295.167 75.2409 304.772 77.7707 314.064 77.0274C314.064 78.3314 314.064 79.6223 314.064 80.9263Z" fill="#201A39"/>
<path d="M234.59 83.5864C234.121 86.7291 231.658 86.1162 229.625 86.1292C222.17 86.1683 214.702 86.1423 207.247 86.1423C206.609 86.5465 205.983 86.9377 205.344 87.342C205.358 86.1684 205.358 84.9817 205.371 83.8081L205.801 83.769L205.944 83.3647C215.497 83.4299 225.037 83.5082 234.59 83.5864Z" fill="#EDEBF1"/>
<path d="M320.555 77.0272C325.468 77.0272 330.394 77.0142 335.308 77.0533C336.559 77.0664 338.136 77.0012 338.331 78.6703C338.592 80.9001 336.767 80.861 335.295 80.8871C330.381 80.9392 325.455 80.9132 320.542 80.9262C320.555 79.6222 320.555 78.3312 320.555 77.0272Z" fill="#201A39"/>
<path d="M272.359 83.5474C268.788 87.329 259.014 87.329 255.43 83.5604C261.073 83.5474 266.716 83.5474 272.359 83.5474Z" fill="#EDEBF1"/>
<path d="M320.554 77.0273C320.554 78.3313 320.554 79.6223 320.554 80.9133C318.391 80.9133 316.227 80.9133 314.064 80.9133C314.064 79.6223 314.064 78.3183 314.064 77.0273C316.227 77.0273 318.391 77.0273 320.554 77.0273Z" fill="#342E4C"/>
<path d="M363.406 120.02C361.634 116.995 361.647 113.97 363.38 110.931C363.393 113.957 363.393 116.995 363.406 120.02Z" fill="#E9E7EF"/>
<path d="M363.876 316.82C363.876 318.137 363.876 319.441 363.876 320.758C363.876 327.265 363.875 333.772 363.889 340.279C363.889 356.357 363.889 372.435 363.889 388.514C362.729 391.513 365.283 395.581 361.23 397.746C359.835 397.707 358.441 397.668 357.046 397.642C357.724 395.829 358.415 394.017 359.066 392.204C359.627 390.639 359.861 389.205 357.646 388.761C350.491 387.327 344.053 392.739 344.014 400.25C341.681 401.723 339.061 401.58 336.455 401.58C327.345 401.554 318.235 401.528 309.125 401.606C307.144 401.619 304.589 400.615 303.651 403.64C301.031 403.64 298.412 403.64 295.805 403.64C293.642 400.51 291.491 400.524 289.328 403.64C287.151 403.64 284.962 403.64 282.785 403.64C279.54 399.285 274.914 402.649 271.082 401.554C268.906 397.42 266.729 397.42 264.566 401.554C261.099 401.554 257.619 401.554 254.152 401.554C251.963 397.381 247.675 397.263 244.248 397.863C234.655 399.532 225.076 398.867 215.484 398.972C213.542 398.998 211.444 398.75 211.157 401.554C205.162 401.554 199.167 401.502 193.172 401.606C191.204 401.645 188.702 400.641 187.724 403.575C186.838 403.575 185.965 403.575 185.079 403.575C183.358 400.497 181.625 400.51 179.905 403.575C177.285 403.575 174.666 403.575 172.059 403.575C170.756 400.719 169.465 400.758 168.188 403.588C166.012 403.588 163.822 403.588 161.646 403.588C159.039 400.367 156.446 400.419 153.865 403.601C152.992 403.797 152.119 403.992 151.246 404.188C150.763 403.992 150.281 403.783 149.799 403.588C149.63 402.127 148.626 401.671 147.349 401.567C146.932 398.711 148.691 397.146 150.307 395.008C154.256 389.766 161.646 386.923 161.841 378.968C161.88 377.377 163.549 376.373 164.552 376.999C171.029 381.081 173.128 377.038 175.278 371.914C175.917 370.388 178.106 369.293 179.8 368.471C187.972 364.52 196.782 361.756 203.598 355.34C204.38 355.562 205.175 355.796 205.957 356.018C206.244 357.778 206.661 359.265 208.603 357.152C210.323 357.557 212.057 357.948 213.777 358.352C216.318 359.043 218.873 359.721 221.414 360.412C222.365 360.608 223.304 360.817 224.255 361.012L224.112 361.495C226.471 365.185 227.657 365.42 229.403 362.512C230.25 362.577 231.11 362.629 231.958 362.694C233.769 366.737 236.91 370.075 237.679 374.73C238.161 377.651 240.246 379.021 243.609 379.594C251.65 380.99 258.571 384.354 260.825 393.338C261.529 396.155 263.145 396.833 265.504 394.773C267.185 393.312 268.071 391.461 268.945 389.426C269.948 387.079 272.398 386.284 274.849 386.075C276.777 385.919 277.429 387.184 277.651 388.892C277.937 391.148 279.241 392.36 281.56 392.373C283.242 392.373 284.545 391.669 285.092 390.065C285.809 388.005 284.819 386.466 283.646 384.745C279.097 378.108 272.737 375.552 264.957 375.474C260.213 375.422 250.881 367.128 250.256 362.734C251.129 362.681 252.002 362.616 252.862 362.564C254.947 365.25 256.72 364.95 259.366 361.456C270.131 358.743 280.57 355.262 289.51 348.35L289.471 348.377C292.977 346.786 296.014 344.569 298.568 341.674C298.985 341.309 299.415 340.944 299.832 340.592C300.367 340.109 300.914 339.627 301.448 339.144C301.8 338.818 302.139 338.492 302.491 338.166C303.025 337.632 303.573 337.097 304.107 336.549C304.446 336.21 304.772 335.871 305.111 335.532C311.301 330.212 315.407 323.262 319.955 316.637C330.981 314.355 340.416 317.42 348.471 325.661C347.35 320.849 343.61 315.894 344.769 312.777C348.197 303.584 345.994 294.873 345.186 285.954C345.017 284.115 343.466 282.185 346.008 280.868C348.158 279.747 348.914 282.016 350.36 282.668C354.818 284.728 356.903 291.353 363.38 289.488C363.563 291.653 363.732 293.817 363.915 295.995C363.915 297.312 363.902 298.616 363.902 299.933C363.902 301.654 363.915 303.389 363.915 305.11C363.915 306.427 363.902 307.731 363.902 309.048C363.875 311.63 363.876 314.225 363.876 316.82ZM337.21 372.957C336.976 373.074 335.62 373.492 335.646 373.805C335.894 377.195 339.113 378.942 340.299 381.915C341.068 383.845 343.205 383.389 344.874 383.076C345.343 382.998 345.929 382.307 346.034 381.811C346.529 379.477 340.403 372.957 337.21 372.957Z" fill="#EBE9F0"/>
<path d="M203.572 355.301C196.756 361.703 187.946 364.481 179.774 368.432C178.067 369.254 175.891 370.349 175.252 371.875C173.101 377.012 171.003 381.042 164.526 376.96C163.522 376.334 161.854 377.338 161.815 378.929C161.62 386.884 154.23 389.726 150.281 394.968C148.665 397.107 146.906 398.672 147.323 401.528C147.336 402.193 147.336 402.871 147.349 403.536C142.566 403.549 137.77 403.562 132.987 403.575C132.583 397.094 126.431 402.127 124.007 399.05C121.674 396.103 123.681 390.274 117.816 389.818C117.842 385.906 117.869 381.994 117.895 378.069C118.598 377.638 119.289 377.195 119.993 376.765C124.932 379.49 129.598 381.211 132.126 373.805C132.348 373.153 133.456 372.774 134.16 372.305C143.243 366.228 153.5 361.769 158.401 350.554C159.743 347.477 163.809 344.895 166.559 342.039C169.426 339.053 168.775 334.515 172.32 332.376C174.301 333.759 176.295 335.141 178.275 336.523C181.416 340.031 184.883 343.161 189.028 345.456C193.185 349.772 199.115 351.441 203.572 355.301Z" fill="#EDEBF1"/>
<path d="M117.882 378.082C117.855 381.994 117.829 385.906 117.803 389.831C117.673 391.135 117.543 392.439 117.399 393.743C114.728 393.652 114.728 391.748 114.741 389.831C114.741 319.193 114.728 248.569 114.832 177.931C114.832 175.505 113.059 172.024 117.256 170.876C117.321 192.523 117.399 214.169 117.464 235.802C117.595 278.013 117.712 320.223 117.829 362.434C117.829 363.751 117.842 365.068 117.842 366.385C117.868 370.284 117.868 374.183 117.882 378.082Z" fill="#181230"/>
<path d="M211.144 401.541C211.431 398.737 213.516 398.985 215.471 398.959C225.063 398.855 234.642 399.52 244.235 397.85C247.662 397.251 251.95 397.368 254.139 401.541C251.142 402.414 247.284 399.52 245.03 403.627C244.156 403.627 243.283 403.627 242.397 403.627C238.5 400.224 234.603 400.276 230.693 403.601C227.214 403.601 223.734 403.588 220.254 403.588C219.824 403.04 219.394 402.506 218.964 401.958C218.534 402.493 218.104 403.04 217.674 403.575C215.497 403.575 213.321 403.575 211.144 403.562C211.144 402.897 211.144 402.219 211.144 401.541Z" fill="#EDEBF1"/>
<path d="M344 400.237C344.04 392.739 350.478 387.314 357.633 388.748C359.848 389.192 359.614 390.639 359.053 392.191C358.402 394.003 357.711 395.816 357.033 397.629C356.134 399.559 353.984 400.98 354.622 403.536C352.381 403.549 350.152 403.575 347.91 403.588C348.158 400.667 346.412 400.054 344 400.237Z" fill="#EDEBF1"/>
<path d="M344.001 400.237C346.412 400.067 348.145 400.667 347.91 403.588C339.661 403.784 331.411 403.979 323.174 404.175C322.301 404.175 321.441 404.175 320.568 404.188C319.694 404.188 318.834 404.188 317.961 404.188C315.354 404.188 312.748 404.175 310.141 404.175C307.978 403.992 305.814 403.81 303.638 403.627C304.576 400.602 307.131 401.606 309.112 401.593C318.222 401.502 327.332 401.541 336.441 401.567C339.048 401.567 341.668 401.71 344.001 400.237Z" fill="#F3F1F8"/>
<path d="M245.016 403.627C247.271 399.506 251.129 402.414 254.126 401.541C257.593 401.541 261.073 401.541 264.539 401.541C266.716 401.541 268.879 401.541 271.056 401.541C274.887 402.636 279.514 399.259 282.759 403.627C274.51 403.81 266.273 404.005 258.023 404.188C257.15 404.188 256.29 404.188 255.417 404.188C251.963 404.005 248.496 403.81 245.016 403.627Z" fill="#F3F1F8"/>
<path d="M117.399 393.743C117.53 392.439 117.66 391.135 117.803 389.831C123.668 390.287 121.661 396.116 123.994 399.063C126.431 402.141 132.583 397.107 132.974 403.588C130.862 403.64 128.751 403.692 126.64 403.731C124.867 402.962 123.095 402.193 121.322 401.423L121.387 401.489C120.931 401.032 120.475 400.563 120.006 400.106L120.071 400.172C119.589 399.324 119.107 398.489 118.638 397.642C118.507 397.185 118.377 396.729 118.247 396.273C117.999 395.647 117.738 395.021 117.491 394.395L117.673 394.03C117.699 394.03 117.399 393.743 117.399 393.743Z" fill="#F3F1F8"/>
<path d="M211.144 401.541C211.144 402.219 211.144 402.897 211.144 403.588C203.338 403.575 195.531 403.575 187.724 403.562C188.702 400.628 191.204 401.632 193.172 401.593C199.154 401.476 205.149 401.541 211.144 401.541Z" fill="#F3F1F8"/>
<path d="M230.693 403.601C234.603 400.276 238.5 400.224 242.397 403.627C238.5 403.614 234.59 403.614 230.693 403.601Z" fill="#F3F1F8"/>
<path d="M354.622 403.536C353.983 400.98 356.134 399.559 357.033 397.629C358.428 397.668 359.822 397.707 361.217 397.733C360.304 401.136 358.388 403.379 354.622 403.536Z" fill="#F3F1F8"/>
<path d="M153.839 403.575C156.433 400.393 159.026 400.341 161.62 403.562C159.886 403.758 158.166 403.94 156.433 404.136C155.572 403.94 154.712 403.758 153.839 403.575Z" fill="#F3F1F8"/>
<path d="M310.141 404.175C312.748 404.175 315.354 404.188 317.961 404.188C315.341 408.178 312.735 408.191 310.141 404.175Z" fill="#201A39"/>
<path d="M289.315 403.627C291.478 400.51 293.629 400.497 295.792 403.627C293.642 403.627 291.478 403.627 289.315 403.627Z" fill="#F3F1F8"/>
<path d="M121.335 401.423C123.108 402.193 124.88 402.962 126.653 403.731C123.525 406.079 122.039 404.67 121.335 401.423Z" fill="#201A39"/>
<path d="M179.905 403.549C181.625 400.484 183.358 400.458 185.079 403.549C183.345 403.549 181.625 403.549 179.905 403.549Z" fill="#F3F1F8"/>
<path d="M153.839 403.575C154.699 403.758 155.572 403.94 156.433 404.136C156.302 405.948 155.338 406.796 153.513 406.678C151.923 406.574 151.363 405.557 151.219 404.162C152.093 403.966 152.966 403.771 153.839 403.575Z" fill="#201A39"/>
<path d="M168.175 403.562C169.452 400.732 170.743 400.706 172.046 403.549C170.756 403.549 169.465 403.549 168.175 403.562Z" fill="#F3F1F8"/>
<path d="M118.65 397.642C119.133 398.489 119.615 399.324 120.084 400.172C118.455 399.989 116.696 399.885 118.65 397.642Z" fill="#201A39"/>
<path d="M217.674 403.588C218.104 403.053 218.534 402.506 218.964 401.971C219.394 402.519 219.824 403.054 220.254 403.601C219.394 403.588 218.534 403.588 217.674 403.588Z" fill="#F3F1F8"/>
<path d="M255.43 404.188C256.303 404.188 257.163 404.188 258.036 404.188C257.854 405.14 257.854 406.418 256.459 406.105C256.003 406.013 255.769 404.853 255.43 404.188Z" fill="#201A39"/>
<path d="M320.567 404.188C321.441 404.188 322.301 404.188 323.174 404.175C322.991 405.127 322.991 406.405 321.597 406.105C321.128 406.013 320.893 404.853 320.567 404.188Z" fill="#201A39"/>
<path d="M147.336 403.549C147.323 402.884 147.323 402.206 147.31 401.541C148.6 401.645 149.59 402.102 149.76 403.562C148.965 403.549 148.157 403.549 147.336 403.549Z" fill="#F3F1F8"/>
<path d="M363.341 289.462C356.851 291.34 354.778 284.702 350.321 282.642C348.888 281.977 348.132 279.721 345.968 280.842C343.427 282.16 344.978 284.103 345.147 285.928C345.955 294.847 348.158 303.558 344.73 312.751C343.57 315.868 347.311 320.81 348.432 325.635C340.377 317.394 330.942 314.316 319.916 316.611C321.766 311.604 325.09 307.196 325.989 301.798C326.263 301.159 326.523 300.52 326.797 299.881C331.124 288.132 332.479 276.07 331.58 263.538C330.785 252.507 325.833 242.687 323.578 232.125C336.22 238.423 339.752 237.002 344.522 223.766C344.73 223.206 345.238 222.671 345.734 222.293C352.081 217.533 357.111 211.717 359.705 204.102C360.383 202.133 361.79 202.211 363.289 202.133C363.471 206.032 363.654 209.944 363.836 213.843C363.68 215.59 363.523 217.338 363.367 219.072C362.246 219.933 362.246 220.806 363.367 221.68C363.367 224.718 363.367 227.77 363.367 230.808C361.96 232.112 361.973 233.416 363.38 234.707C363.55 252.089 363.719 269.472 363.888 286.854C363.706 287.741 363.523 288.601 363.341 289.462Z" fill="#EDEBF1"/>
<path d="M337.497 143.518C336.884 147.13 334.004 145.996 331.854 146.074C327.527 146.217 323.187 146.113 317.505 146.113C320.202 149.282 322.236 148.617 323.956 148.617C334.708 148.695 345.473 148.63 356.238 148.708C358.284 148.721 360.617 147.913 362.22 150.064C362.207 150.482 362.22 150.886 362.246 151.303C359.64 151.355 357.033 151.407 354.427 151.46C352.263 151.46 350.087 151.46 347.923 151.46C345.747 151.46 343.583 151.46 341.407 151.46C340.547 151.46 339.673 151.46 338.813 151.46C335.777 151.46 332.727 151.46 329.69 151.46C326.654 151.46 323.617 151.473 320.58 151.473C315.367 151.486 310.154 151.486 304.954 151.499C290.188 151.486 275.422 151.473 260.656 151.46C242.423 150.886 224.19 150.86 205.957 151.407C193.797 151.407 181.638 151.407 169.478 151.394C163.405 151.368 157.319 151.342 151.245 151.316C139.998 151.016 128.738 150.455 117.504 151.629C117.451 150.638 117.399 149.647 117.347 148.656C126.887 148.643 136.427 148.63 145.967 148.617C183.554 148.643 221.153 148.617 258.74 148.734C262.545 148.747 265.23 148.265 264.566 143.57C267.172 143.362 269.779 143.14 272.385 142.931C275.852 142.931 279.306 142.918 282.772 142.918C284.962 142.918 287.138 142.905 289.328 142.905C290.618 142.892 291.908 142.892 293.199 142.879C297.995 143.375 302.778 143.388 307.574 142.84C315.38 142.866 323.174 142.905 330.981 142.931C332.297 142.931 333.613 142.944 334.93 142.944C335.777 143.153 336.637 143.336 337.497 143.518Z" fill="#181230"/>
<path d="M363.849 213.856C363.667 209.957 363.484 206.045 363.302 202.146C363.302 201.272 363.302 200.399 363.289 199.525C363.289 198.664 363.289 197.791 363.289 196.93C363.289 195.183 363.289 193.448 363.289 191.701C363.289 191.271 363.289 190.84 363.289 190.41C363.289 186.498 363.276 182.573 363.276 178.661C363.276 176.496 363.276 174.332 363.276 172.167C363.289 170.42 363.289 168.685 363.302 166.938C363.315 164.76 363.328 162.596 363.341 160.418C363.354 158.684 363.367 156.949 363.367 155.215C363.55 154.785 363.719 154.354 363.901 153.924C366.638 154.524 366.156 156.715 366.156 158.592C366.169 175.466 366.169 192.353 366.156 209.227C366.143 211.118 366.599 213.308 363.849 213.856Z" fill="#181230"/>
<path d="M363.875 340.279C363.875 333.772 363.875 327.265 363.862 320.758C367.16 324.657 367.173 336.354 363.875 340.279Z" fill="#181230"/>
<path d="M363.888 153.924C363.706 154.354 363.537 154.785 363.354 155.215C359.966 154.941 356.186 155.58 354.414 151.447C357.02 151.394 359.627 151.342 362.233 151.29C362.794 152.177 363.341 153.05 363.888 153.924Z" fill="#EDEBF1"/>
<path d="M363.341 289.462C363.524 288.601 363.706 287.741 363.888 286.867C367.499 289.905 367.538 292.931 363.875 295.956C363.706 293.804 363.524 291.627 363.341 289.462Z" fill="#181230"/>
<path d="M363.875 316.82C363.875 314.225 363.875 311.63 363.875 309.035C367.512 311.63 367.512 314.225 363.875 316.82Z" fill="#181230"/>
<path d="M363.888 305.084C363.888 303.363 363.875 301.628 363.875 299.907C367.446 301.628 367.459 303.35 363.888 305.084Z" fill="#181230"/>
<path d="M363.38 234.72C361.973 233.429 361.959 232.125 363.367 230.821C363.38 232.125 363.38 233.429 363.38 234.72Z" fill="#D2CFD6"/>
<path d="M363.367 221.693C362.246 220.819 362.246 219.959 363.367 219.085C363.38 219.959 363.367 220.819 363.367 221.693Z" fill="#D2CFD6"/>
<path d="M117.49 151.629C128.725 150.455 139.985 151.029 151.232 151.316C150.763 154.524 148.261 153.885 146.202 153.898C139.503 153.95 132.778 154.198 126.092 153.82C121.192 153.546 119.823 155.267 119.862 160.092C120.084 185.403 119.967 210.713 119.967 236.024C119.967 236.885 119.967 237.758 119.967 238.619C119.967 279.03 119.967 319.428 119.98 359.839C119.941 361.26 119.393 362.264 117.829 362.421C117.712 320.21 117.582 278 117.464 235.789C117.399 214.143 117.321 192.496 117.256 170.863C117.334 164.46 117.412 158.045 117.49 151.629Z" fill="#F3F1F8"/>
<path d="M125.141 83.769C125.597 83.769 126.04 83.7821 126.496 83.7821C127.005 86.5596 129.181 86.1162 131.071 86.1293C135.619 86.1684 140.168 86.1554 144.703 86.1554C146.619 92.1538 150.164 96.2092 156.863 96.9264C162.389 97.5132 167.862 98.5955 173.375 99.1171C176.321 99.404 178.771 100.056 178.484 103.459C177.637 113.239 186.499 117.882 189.901 125.393C190.578 126.892 192.273 127.896 194.202 127.857C195.01 127.857 195.818 127.844 196.639 127.844C196.639 129.592 196.639 131.339 196.626 133.073C192.051 135.46 195.752 139.854 194.228 142.984C189.862 142.853 185.496 142.266 181.143 143.153C171.173 142.905 161.203 142.645 151.232 142.397C149.929 138.354 142.748 137.989 144.69 131.913C155.507 131.821 166.324 131.73 177.142 131.639C179.07 131.626 181.26 131.926 182.159 129.644C183.111 127.231 182.107 125.458 179.735 124.454C179.448 123.202 179.018 123.228 178.484 124.323C163.822 124.402 149.16 124.467 134.498 124.545C134.42 122.446 133.026 121.103 131.918 119.499C126.666 111.935 118.299 105.911 119.537 95.0095C119.563 94.7226 118.546 94.3314 118.012 93.9794C117.79 92.5971 117.491 91.1888 118.703 90.0543C120.462 89.9761 121.257 89.0111 121.218 87.2898C121.218 86.8726 121.309 86.4814 121.479 86.1032C121.83 85.7511 122.182 85.399 122.547 85.047C122.912 84.8644 123.303 84.7731 123.707 84.7862C124.189 84.4471 124.659 84.1081 125.141 83.769Z" fill="#E9E7EF"/>
<path d="M207.26 106.98C211.952 107.358 216.631 107.736 221.323 108.102C220.319 119.055 223.903 127.453 234.59 131.873C234.929 132.538 235.333 132.695 235.867 132.069C238.93 132.108 241.98 132.134 245.042 132.173C245.564 132.747 245.968 132.578 246.307 131.965C248.705 130.752 251.494 130.178 253.214 127.831C253.553 127.479 253.879 127.127 254.217 126.788L254.4 126.631C254.778 126.24 255.143 125.862 255.521 125.471L255.651 125.34C258.153 125.04 258.075 123.176 258.062 121.35C261.529 114.908 260.604 108.519 257.893 102.142C259.079 100.251 260.551 100.59 261.333 102.22C265.53 111.075 273.793 111.335 281.821 112.196C281.99 117.36 282.16 122.537 282.316 127.701C275.682 127.414 269.505 129.226 263.784 132.304C258.14 135.355 258.206 136.516 263.262 140.871C264.644 142.618 262.05 142.032 262.037 142.957C243.817 142.97 225.597 142.984 207.365 142.984C207.404 142.618 207.365 142.266 207.234 141.914C206.895 141.575 206.57 141.236 206.231 140.897C205.879 140.754 205.514 140.715 205.136 140.767C205.162 138.615 205.175 136.477 205.201 134.325C208.107 133.034 208.081 131.743 205.201 130.465C204.68 123.932 204.706 117.399 205.24 110.866C207.56 110.449 207.182 108.597 207.26 106.98Z" fill="#F3F1F8"/>
<path d="M207.352 142.997C225.571 142.984 243.791 142.971 262.024 142.971C262.871 143.179 263.718 143.388 264.565 143.596C265.23 148.278 262.532 148.76 258.74 148.76C221.153 148.643 183.554 148.669 145.967 148.643C145.967 147.404 145.954 146.165 145.954 144.927C155.794 144.9 165.647 144.927 175.486 144.796C177.454 144.77 179.905 145.839 181.169 143.153C185.522 142.266 189.888 142.853 194.254 142.984C194.658 143.088 195.049 143.179 195.453 143.284C196.821 145.2 198.646 144.431 198.789 142.905C199.336 136.894 201.317 130.687 197.551 124.962C197.668 118.99 197.786 113.031 197.903 107.058C198.945 106.576 198.932 106.106 197.89 105.637C197.616 102.925 197.342 100.212 197.069 97.5001C197.03 96.496 196.991 95.4919 196.964 94.4748L196.951 94.4487L197.329 94.0184C202.269 93.1186 203.559 95.3354 203.442 100.082C203.142 111.883 203.298 123.684 203.39 135.499C203.403 137.755 202.542 140.271 204.628 142.188C205.24 143.375 206.205 143.505 207.352 142.997Z" fill="#251F40"/>
<path d="M196.938 94.4749C196.978 95.479 197.017 96.4831 197.043 97.5002C191.712 101.412 187.92 109.993 191.009 113.983C194.449 118.455 194.149 123.006 194.215 127.844C192.286 127.87 190.591 126.879 189.914 125.38C186.512 117.869 177.65 113.239 178.497 103.446C178.784 100.043 176.334 99.391 173.388 99.1041C167.862 98.5695 162.389 97.5002 156.876 96.9134C150.177 96.1962 146.645 92.1407 144.716 86.1423C150.855 85.5686 157.188 87.4463 163.17 84.7471C166.963 83.9777 171.107 86.3119 174.665 83.4822C175.109 83.5474 175.552 83.5995 175.982 83.6647C177.402 88.2027 181.208 85.2687 183.788 86.1554C184.544 97.0699 186.734 98.4521 196.938 94.4749Z" fill="#EDEBF1"/>
<path d="M118.012 93.9792C118.546 94.3313 119.576 94.7225 119.537 95.0094C118.299 105.898 126.666 111.935 131.918 119.499C133.039 121.102 134.433 122.446 134.498 124.545C132.179 125.054 130.302 126.071 130.654 128.835C131.032 131.847 133.456 131.547 135.619 131.6C138.643 131.678 141.679 131.795 144.703 131.9C142.748 137.976 149.942 138.341 151.246 142.384C140.35 142.527 129.468 142.671 118.572 142.827C118.82 142.645 118.846 142.436 118.664 142.188C118.286 140.01 119.602 137.52 117.451 135.681C117.425 134.807 117.399 133.934 117.373 133.06C117.386 124.375 117.386 115.691 117.399 106.993C117.399 106.55 117.412 106.119 117.412 105.676C117.425 104.385 117.425 103.081 117.438 101.79C117.608 99.1952 117.816 96.5872 118.012 93.9792Z" fill="#F3F1F8"/>
<path d="M196.938 94.4748C186.734 98.452 184.544 97.0697 183.788 86.1422C187.711 85.8293 191.803 87.0029 195.518 84.8252C195.883 84.8252 196.261 84.8252 196.626 84.8252C196.626 87.0029 196.613 89.1675 196.613 91.3452C193.003 92.7535 196.169 93.4707 196.925 94.4357L196.938 94.4748Z" fill="#EBE9F0"/>
<path d="M163.158 84.76C157.176 87.4593 150.842 85.5816 144.703 86.1553C140.155 86.1553 135.606 86.1684 131.071 86.1292C129.181 86.1162 126.992 86.5596 126.496 83.782C138.656 83.6908 150.802 83.6125 162.962 83.5212C162.923 83.9516 162.988 84.3688 163.158 84.76Z" fill="#F3F1F8"/>
<path d="M207.26 106.98C207.182 108.597 207.56 110.449 205.227 110.879C205.266 103.029 205.305 95.1921 205.345 87.342C205.983 86.9378 206.609 86.5466 207.247 86.1423C207.247 93.0927 207.247 100.03 207.26 106.98Z" fill="#FDFDFD"/>
<path d="M195.518 84.8381C191.804 87.0028 187.711 85.8422 183.788 86.1552C181.195 85.2815 177.402 88.2155 175.982 83.6646C182.485 83.6776 189.001 83.6776 195.505 83.6906C195.505 84.0688 195.518 84.46 195.518 84.8381Z" fill="#F3F1F8"/>
<path d="M163.157 84.76C162.988 84.3688 162.923 83.9515 162.949 83.5212C166.846 81.4087 170.743 81.4218 174.652 83.4951C171.094 86.3248 166.95 83.9906 163.157 84.76Z" fill="#342E4C"/>
<path d="M205.188 130.478C208.082 131.756 208.108 133.047 205.188 134.338C205.188 133.06 205.188 131.769 205.188 130.478Z" fill="#FDFDFD"/>
<path d="M121.218 87.3029C121.257 89.0242 120.462 89.9891 118.703 90.0674C118.351 88.0592 119.302 87.2507 121.218 87.3029Z" fill="#F3F1F8"/>
<path d="M207.352 142.997C206.205 143.505 205.24 143.375 204.589 142.188C204.758 141.719 204.941 141.249 205.11 140.793C205.488 140.728 205.853 140.78 206.205 140.923C206.544 141.262 206.869 141.601 207.208 141.94C207.352 142.279 207.404 142.632 207.352 142.997Z" fill="#C7C3CD"/>
<path d="M196.925 94.4618C196.17 93.4969 193.003 92.7797 196.613 91.3713C196.847 92.2581 197.069 93.1448 197.303 94.0315L196.925 94.4618Z" fill="#F3F1F8"/>
<path d="M195.518 84.8381C195.518 84.46 195.518 84.0688 195.505 83.6906C196.508 83.4689 196.782 83.9384 196.626 84.8512C196.248 84.8381 195.883 84.8381 195.518 84.8381Z" fill="#E9E7EF"/>
<path d="M122.534 85.0469C122.182 85.399 121.831 85.7511 121.466 86.1031C121.283 85.2034 121.674 84.8904 122.534 85.0469Z" fill="#F3F1F8"/>
<path d="M125.141 83.7689C124.659 84.1079 124.189 84.447 123.707 84.7991C123.942 84.121 124.242 83.5211 125.141 83.7689Z" fill="#F3F1F8"/>
<path d="M118.572 142.827C129.468 142.684 140.35 142.54 151.245 142.384C161.216 142.632 171.186 142.892 181.156 143.14C179.892 145.826 177.441 144.757 175.473 144.783C165.634 144.914 155.781 144.874 145.941 144.914C138.656 144.901 131.357 144.914 124.072 144.835C122.052 144.796 119.628 145.618 118.572 142.827Z" fill="#181230"/>
<path d="M117.438 135.681C119.589 137.52 118.272 140.011 118.65 142.188C115.496 140.936 116.148 138.263 116.252 135.799L116.839 135.668L117.438 135.681Z" fill="#C7C3CD"/>
<path d="M117.438 135.681L116.839 135.655L116.252 135.786C114.024 133.816 115.379 133.308 117.36 133.047C117.386 133.934 117.412 134.808 117.438 135.681Z" fill="#181230"/>
<path d="M117.399 105.689C117.399 106.133 117.386 106.563 117.386 107.006C116.852 106.863 115.874 106.745 115.861 106.563C115.77 105.389 116.761 105.794 117.399 105.689Z" fill="#181230"/>
<path d="M282.29 127.688C282.121 122.524 281.951 117.347 281.795 112.183C281.925 109.432 282.095 106.68 282.16 103.929C282.381 94.827 282.746 94.4358 291.908 93.9011C303.82 94.501 315.732 94.6966 327.657 94.0837C329.143 94.0706 330.616 94.0706 332.101 94.0576C335.686 94.0706 339.256 94.0837 342.84 94.0967L342.958 94.1098C346.255 94.6705 348.588 96.4309 349.096 99.8213C350.543 109.536 348.379 119.107 347.65 128.718C347.558 129.97 346.125 131.861 344.026 131.939C343.583 131.952 343.14 131.978 342.697 131.991C340.964 132.03 339.243 132.056 337.51 132.095C335.764 132.095 334.017 132.108 332.271 132.108C331.841 132.108 331.424 132.108 330.994 132.108C321.441 132.108 311.888 132.108 302.335 132.108C300.588 132.108 298.855 132.095 297.108 132.095C294.945 132.082 292.769 132.082 290.605 132.069C289.732 132.043 288.859 132.017 287.985 131.991C286.76 131.639 285.548 131.287 284.323 130.935C282.785 130.413 282.903 128.835 282.29 127.688ZM289.263 106.98C285.809 110.305 282.981 114.583 284.48 119.081C285.574 122.367 285.001 128.053 291.609 127.949C308.082 127.675 324.556 127.792 341.029 127.896C345.317 127.922 346.763 125.993 346.646 121.95C346.477 116.095 346.633 110.24 346.594 104.385C346.555 98.1261 341.902 95.153 336.155 98.0218C333.327 99.4301 330.824 99.8213 328.387 97.8522C326.862 96.6134 325.22 96.6134 323.5 96.6134C316.345 96.5874 309.19 96.5222 302.048 96.6265C297.89 96.6786 294.372 98.2434 291.895 101.751C288.572 102.26 289.575 104.946 289.263 106.98Z" fill="#201A39"/>
<path d="M257.867 102.129C260.577 108.506 261.503 114.909 258.036 121.337C256.42 122.172 256.472 124.024 255.625 125.328L255.495 125.458C254.687 125.419 254.283 125.784 254.374 126.618L254.191 126.775C253.422 126.71 252.901 126.879 253.188 127.818C251.468 130.165 248.692 130.752 246.28 131.952C245.863 132.017 245.433 132.095 245.016 132.16C241.954 132.121 238.904 132.095 235.841 132.056C235.411 131.991 234.994 131.926 234.564 131.861C223.864 127.44 220.293 119.042 221.297 108.089C222.795 102.925 225.389 98.6086 230.511 96.2744C231.54 98.1783 232.948 97.2003 234.356 96.8351C237.522 96.0136 238.643 97.5784 238.461 100.538C230.381 103.538 227.057 111.779 231.045 119.186C233.026 122.876 236.154 125.015 240.429 125.223C244.169 125.406 247.727 124.167 249.408 120.985C254.674 111.062 251.832 103.003 242.371 100.447C242.214 97.3046 243.622 95.9354 246.698 96.9003C248.587 97.5002 250.399 98.0348 252.38 97.5263C255.403 97.6827 255.834 100.864 257.867 102.129Z" fill="#251F40"/>
<path d="M238.487 100.564C238.669 97.6043 237.549 96.0395 234.382 96.8611C232.974 97.2262 231.579 98.2042 230.537 96.3003C238.096 91.9711 245.381 92.61 252.406 97.5783C250.438 98.0868 248.613 97.5522 246.737 96.9523C243.661 95.9743 242.253 97.3435 242.41 100.499C241.093 100.512 239.79 100.538 238.487 100.564Z" fill="#181230"/>
<path d="M332.271 132.121C334.017 132.121 335.764 132.108 337.51 132.108C338.579 136.19 333.887 138.902 334.917 142.97C333.6 142.97 332.284 142.957 330.968 142.957C330.173 139.919 327.657 141.184 325.768 140.871C327.618 136.19 326.771 133.725 320.998 134.286C316.775 134.69 312.461 134.481 308.199 134.312C306.088 134.234 303.273 135.499 302.322 132.121C311.875 132.121 321.428 132.121 330.981 132.121C331.189 132.604 331.411 133.099 331.619 133.582C331.854 133.099 332.062 132.617 332.271 132.121Z" fill="#EBE9F0"/>
<path d="M342.697 132.004C343.14 131.991 343.583 131.965 344.027 131.952C343.61 132.591 343.166 132.643 342.697 132.004Z" fill="#D2CFD6"/>
<path d="M342.841 94.1098C339.257 94.0968 335.686 94.0837 332.102 94.0707C335.699 89.8588 339.283 89.7414 342.841 94.1098Z" fill="#F3F1F8"/>
<path d="M313.295 86.4813C315.237 86.3509 316.723 86.2075 318.209 86.1684C320.385 86.1032 322.653 85.9206 323.643 88.5677C323.943 89.3762 324.321 90.3803 323.317 90.8367C321.258 91.7625 318.99 91.7886 317.088 90.6932C315.706 89.8978 313.882 89.2849 313.295 86.4813Z" fill="#EDEBF1"/>
<path d="M296.874 91.1887C295.349 91.1366 295.101 90.2107 295.623 89.0763C296.131 87.9548 294.919 85.6337 297.526 85.9206C298.568 86.0379 299.52 86.8073 299.52 88.0722C299.52 89.8326 298.49 90.7845 296.874 91.1887Z" fill="#EDEBF1"/>
<path d="M325.989 301.798C325.09 307.196 321.766 311.604 319.916 316.611C315.38 323.236 311.262 330.186 305.071 335.506C305.358 332.142 303.273 330.629 300.497 329.69C302.934 326.313 305.371 322.923 307.795 319.545C314.155 311.93 317.896 302.919 320.437 293.557C327.814 266.329 322.079 241.527 305.658 218.916C302.738 214.182 298.816 210.374 294.528 206.906C295.818 204.428 297.982 202.25 297.082 199.056C302.608 203.776 307.86 208.77 312.578 214.312C312.813 214.665 313.047 215.03 313.282 215.382C313.908 216.203 314.546 217.025 315.172 217.846C317.961 222.606 320.763 227.366 323.552 232.125C325.82 242.688 330.772 252.507 331.554 263.538C332.453 276.057 331.098 288.119 326.771 299.881C326.432 299.881 326.093 299.881 325.754 299.881C325.259 298.29 326.914 295.76 323.917 295.317C323.422 295.252 322.392 296.295 322.236 296.96C321.532 300.037 323.852 299.764 325.741 299.881C325.846 300.533 325.924 301.159 325.989 301.798Z" fill="#201A39"/>
<path d="M250.217 362.695C250.842 367.089 260.174 375.396 264.917 375.435C272.698 375.513 279.071 378.069 283.606 384.706C284.779 386.427 285.77 387.966 285.053 390.026C284.493 391.63 283.202 392.334 281.521 392.334C279.201 392.321 277.898 391.109 277.611 388.853C277.39 387.145 276.738 385.867 274.809 386.036C272.359 386.245 269.909 387.04 268.906 389.387C268.032 391.422 267.146 393.273 265.465 394.734C263.106 396.794 261.49 396.129 260.786 393.299C258.531 384.302 251.611 380.938 243.57 379.555C240.207 378.969 238.122 377.612 237.64 374.691C236.871 370.036 233.73 366.711 231.918 362.655C234.968 362.577 238.031 362.499 241.081 362.408C244.143 362.512 247.18 362.603 250.217 362.695Z" fill="#EDEBF1"/>
<path d="M250.216 362.694C247.18 362.603 244.143 362.512 241.094 362.408C240.911 361.312 240.429 359.93 239.36 360.086C234.33 360.765 229.09 357.752 224.229 360.973C223.278 360.778 222.339 360.569 221.388 360.373C222.405 357.544 218.351 357.713 218.351 355.327C220.02 354.362 221.766 354.388 223.382 355.014C230.876 357.922 238.682 357.205 246.437 357.205C248.47 357.205 251.011 357.896 251.507 354.675C252.784 354.597 254.061 354.518 255.338 354.44C257.385 356.631 257.736 355.014 258.023 353.24C258.805 353.084 259.587 352.927 260.369 352.758C262.559 355.366 263.94 355.118 264.409 351.623C266.677 350.202 268.932 348.781 271.199 347.359C276.908 346.786 281.391 343.121 286.591 341.244C285.301 344.517 281.665 348.742 289.471 348.272C280.531 355.183 270.091 358.665 259.326 361.377C257.163 361.743 254.986 362.121 252.823 362.486C251.963 362.577 251.09 362.642 250.216 362.694Z" fill="#201A39"/>
<path d="M203.572 355.301C199.115 351.441 193.185 349.759 189.014 345.482C190.748 343.604 194.814 344.412 194.736 340.474C201.213 344.191 207.43 348.442 214.898 350.098C214.937 350.32 214.989 350.554 215.054 350.776C215.51 353.449 214.285 355.822 213.777 358.326C212.056 357.922 210.323 357.531 208.603 357.126C207.716 356.748 206.843 356.37 205.957 355.992C205.149 355.757 204.367 355.536 203.572 355.301Z" fill="#201A39"/>
<path d="M289.484 348.311C281.664 348.781 285.301 344.543 286.604 341.283C288.82 339.653 291.035 338.023 293.238 336.406C295.518 336.471 297.278 335.976 296.939 333.107C298.125 331.972 299.311 330.838 300.497 329.703C303.286 330.655 305.371 332.155 305.071 335.519C304.733 335.858 304.407 336.197 304.068 336.536C303.534 337.071 302.986 337.606 302.452 338.153C302.1 338.479 301.761 338.805 301.409 339.131C300.875 339.614 300.327 340.096 299.793 340.579C299.376 340.944 298.946 341.309 298.529 341.661C294.202 342.131 290.488 343.448 289.432 348.364L289.484 348.311Z" fill="#251F40"/>
<path d="M213.764 358.313C214.272 355.809 215.497 353.423 215.041 350.763C216.201 350.867 217.348 350.972 218.508 351.076H218.638C219.615 351.741 220.606 352.419 221.583 353.084C222.913 353.006 224.242 352.928 225.558 352.862C234.082 355.405 242.866 354.153 251.52 354.688C251.024 357.909 248.483 357.218 246.45 357.218C238.708 357.218 230.889 357.935 223.395 355.027C221.792 354.401 220.045 354.362 218.364 355.34C218.364 357.713 222.404 357.557 221.401 360.386C218.859 359.695 216.305 359.004 213.764 358.313Z" fill="#181230"/>
<path d="M337.21 372.957C340.403 372.957 346.529 379.477 346.047 381.811C345.942 382.307 345.343 382.998 344.887 383.076C343.206 383.376 341.081 383.845 340.312 381.916C339.126 378.942 335.907 377.195 335.66 373.805C335.62 373.492 336.976 373.074 337.21 372.957Z" fill="#EDEBF1"/>
<path d="M224.229 360.986C229.077 357.752 234.329 360.778 239.36 360.1C240.442 359.956 240.911 361.338 241.093 362.421C238.044 362.499 234.981 362.577 231.931 362.669C231.084 362.603 230.224 362.551 229.377 362.486C227.618 362.147 225.845 361.808 224.086 361.469L224.229 360.986Z" fill="#181230"/>
<path d="M289.445 348.338C290.501 343.422 294.215 342.104 298.542 341.635C295.988 344.53 292.951 346.747 289.445 348.338Z" fill="#201A39"/>
<path d="M271.069 401.541C268.892 401.541 266.729 401.541 264.552 401.541C266.716 397.407 268.892 397.407 271.069 401.541Z" fill="#EDEBF1"/>
<path d="M252.823 362.525C254.986 362.16 257.163 361.782 259.326 361.417C256.694 364.911 254.908 365.211 252.823 362.525Z" fill="#EDEBF1"/>
<path d="M224.086 361.469C225.845 361.808 227.618 362.147 229.377 362.486C227.631 365.381 226.445 365.159 224.086 361.469Z" fill="#EDEBF1"/>
<path d="M205.931 355.979C206.817 356.357 207.691 356.735 208.577 357.113C206.635 359.226 206.231 357.739 205.931 355.979Z" fill="#EDEBF1"/>
<path d="M117.829 362.421C119.393 362.264 119.941 361.273 119.98 359.839C122.104 359.735 123.355 358.118 123.381 356.488C123.577 344.647 126.822 332.768 124.737 321.097C123.199 312.478 124.333 303.989 123.355 295.513C122.195 285.315 129.429 274.988 122.873 264.842C122.521 264.295 123.016 263.186 123.095 262.339C123.668 256.666 122.508 250.981 123.616 245.243C124.046 243 123.603 239.467 119.967 238.606C119.967 237.745 119.967 236.872 119.967 236.011C122.99 235.972 123.772 233.573 124.789 231.421C125.388 230.156 125.297 227.978 127.5 228.565C129.689 229.152 128.621 230.86 128.399 232.308C127.578 237.706 131.384 241.566 133.247 246.039C134.564 249.181 138.174 246.717 140.207 247.943C143.504 249.951 149.981 252.076 147.987 255.767C144.807 261.661 147.661 268.129 144.012 273.814C142.357 276.383 141.288 281.899 146.723 284.35C149.708 285.693 149.147 288.601 147.805 290.44C143.869 295.852 142.67 303.31 135.319 306.271C132.335 307.47 130.693 310.939 129.533 313.886C128.334 316.95 128.334 320.693 131.501 322.688C133.612 324.018 138.148 324.253 138.63 322.375C140.102 316.689 146.866 315.725 148.157 310.143C148.756 307.588 151.61 304.445 153.604 307.522C156.406 311.865 162.376 315.842 158.453 322.688C156.784 325.609 159.196 327.148 161.346 328.126C163.926 329.286 166.416 328.086 168.801 326.978C170.365 328.504 172.189 329.873 172.267 332.351C168.722 334.502 169.387 339.04 166.507 342.013C163.757 344.869 159.704 347.451 158.348 350.528C153.448 361.743 143.191 366.202 134.107 372.279C133.391 372.748 132.296 373.127 132.074 373.779C129.546 381.185 124.88 379.477 119.941 376.739C119.041 373.309 121.922 369.11 117.816 366.333C117.842 365.055 117.842 363.738 117.829 362.421Z" fill="#EBE9F0"/>
<path d="M172.307 332.39C172.228 329.899 170.404 328.543 168.84 327.017C162.206 317.472 156.25 307.601 153.904 295.982C157.553 297.051 158.831 294.156 160.538 291.979C160.786 292.096 161.059 292.161 161.333 292.174C161.45 294.43 161.946 296.595 163.079 298.577C165.947 307.94 170.365 316.429 177.142 323.601C179.11 326.065 181.078 328.517 183.046 330.981C179.892 331.49 180.504 335.245 178.263 336.549C176.269 335.154 174.288 333.772 172.307 332.39Z" fill="#201A39"/>
<path d="M178.262 336.536C180.491 335.232 179.892 331.49 183.045 330.968C186.942 334.137 190.839 337.293 194.736 340.461C194.827 344.399 190.748 343.604 189.015 345.469C184.87 343.187 181.403 340.057 178.262 336.536Z" fill="#251F40"/>
<path d="M117.855 366.372C121.961 369.149 119.081 373.348 119.98 376.778C119.276 377.208 118.585 377.651 117.882 378.082C117.868 374.183 117.869 370.284 117.855 366.372Z" fill="#F3F1F8"/>
<path d="M323.578 232.138C320.789 227.378 317.987 222.619 315.198 217.859C317.531 214.756 314.742 215.59 313.308 215.395C313.074 215.043 312.839 214.678 312.604 214.325C311.744 203.567 315.81 197.647 325.872 193.957C328.504 192.992 331.528 191.675 332.414 188.206C332.988 185.95 334.591 183.916 336.871 184.125C344.561 184.816 347.024 178.674 349.409 173.849C352.576 167.421 356.069 164.017 363.315 166.964C363.302 168.712 363.302 170.446 363.289 172.193C359.77 174.358 359.77 176.522 363.289 178.687C363.289 182.599 363.302 186.524 363.302 190.436C362.794 190.645 362.285 190.866 361.777 191.075C362.285 191.284 362.794 191.505 363.302 191.714C363.302 193.461 363.302 195.196 363.302 196.943C362.194 197.165 360.343 196.5 360.343 198.247C360.343 199.981 362.194 199.329 363.302 199.538C363.302 200.412 363.302 201.285 363.315 202.159C361.803 202.237 360.396 202.159 359.731 204.128C357.137 211.744 352.107 217.546 345.76 222.319C345.265 222.697 344.756 223.219 344.548 223.792C339.752 237.015 336.22 238.436 323.578 232.138Z" fill="#E9E7EF"/>
<path d="M325.989 301.798C325.911 301.172 325.833 300.533 325.754 299.907L325.767 299.894C326.106 299.894 326.445 299.894 326.784 299.894C326.536 300.52 326.263 301.159 325.989 301.798Z" fill="#251F40"/>
<path d="M363.302 166.951C356.043 164.004 352.563 167.407 349.396 173.836C347.024 178.661 344.548 184.803 336.858 184.112C334.565 183.903 332.975 185.95 332.401 188.193C331.528 191.662 328.491 192.979 325.859 193.944C315.797 197.634 311.731 203.554 312.591 214.312C307.873 208.77 302.608 203.776 297.095 199.056C292.886 194.961 288.103 191.701 282.759 189.276C279.71 186.707 275.969 185.416 272.346 184.164C244.756 174.632 218.312 176.196 193.576 192.848C175.812 203.724 163.757 219.294 156.159 238.515C154.517 239.493 155.259 241.136 155.038 242.518C154.712 243.405 154.373 244.278 154.047 245.165C153.8 246.039 153.565 246.899 153.318 247.773C153.083 248.647 152.861 249.52 152.627 250.394C149.382 262.013 149.004 273.736 151.389 285.563C151.206 286.958 151.258 288.314 152.223 289.462C152.392 290.336 152.562 291.209 152.731 292.07C153.122 293.374 153.513 294.678 153.891 295.995C156.237 307.6 162.206 317.472 168.827 327.03C166.442 328.138 163.952 329.351 161.372 328.178C159.221 327.2 156.81 325.661 158.479 322.74C162.401 315.894 156.432 311.917 153.63 307.574C151.636 304.484 148.782 307.627 148.183 310.195C146.892 315.777 140.115 316.742 138.656 322.427C138.174 324.305 133.638 324.083 131.527 322.74C128.36 320.732 128.36 316.989 129.559 313.938C130.706 310.978 132.361 307.509 135.345 306.323C142.696 303.376 143.882 295.904 147.831 290.492C149.173 288.653 149.734 285.745 146.749 284.402C141.327 281.951 142.396 276.435 144.038 273.866C147.687 268.181 144.833 261.713 148.013 255.819C150.007 252.128 143.53 250.003 140.233 247.995C138.2 246.756 134.59 249.233 133.273 246.091C131.41 241.618 127.591 237.758 128.425 232.36C128.647 230.912 129.715 229.204 127.526 228.617C125.31 228.03 125.401 230.208 124.815 231.473C123.798 233.638 123.016 236.024 119.993 236.063C119.993 210.752 120.097 185.442 119.889 160.131C119.849 155.319 121.205 153.585 126.118 153.859C132.804 154.237 139.516 153.989 146.228 153.937C148.287 153.924 150.789 154.563 151.258 151.355C157.332 151.381 163.418 151.407 169.491 151.433C166.715 161.683 172.867 170.537 183.241 172.363C188.206 173.236 195.4 174.28 197.186 177.618C200.131 183.108 202.803 183.264 207.286 181.504C210.818 180.108 216.813 181.83 217.283 176.588C217.674 172.219 212.513 170.628 209.111 168.529C206.948 167.186 203.95 166.103 205.553 162.726C207.365 158.931 206.661 155.228 205.97 151.446C224.203 150.899 242.436 150.925 260.669 151.499C261.868 160.196 262.441 168.529 250.816 170.72C249.408 170.98 247.818 171.971 248.196 173.875C248.548 175.662 250.164 175.896 251.715 176.157C256.798 177.031 261.868 177.97 266.937 178.896C274.848 180.317 275.995 179.378 276.334 171.554C276.425 169.572 275.278 166.703 278.211 166.012C281.951 165.138 285.887 164.343 289.68 164.578C297.356 165.06 304.237 159.531 304.954 151.538C310.167 151.525 315.38 151.525 320.58 151.512C320.802 157.067 325.324 156.48 328.556 156.35C332.636 156.193 329.195 153.142 329.69 151.499C332.727 151.499 335.777 151.499 338.813 151.499C338.396 154.915 339.478 156.676 343.349 156.741C350.178 156.871 357.229 156.336 363.341 160.47C363.315 162.596 363.302 164.773 363.302 166.951Z" fill="#EDEBF1"/>
<path d="M205.931 151.407C206.609 155.189 207.313 158.892 205.514 162.687C203.911 166.051 206.896 167.147 209.072 168.49C212.474 170.589 217.635 172.18 217.244 176.548C216.774 181.791 210.779 180.069 207.247 181.465C202.777 183.225 200.105 183.068 197.147 177.579C195.362 174.253 188.18 173.197 183.202 172.323C172.828 170.511 166.689 161.644 169.452 151.394C181.612 151.394 193.771 151.407 205.931 151.407Z" fill="#E9E7EF"/>
<path d="M304.941 151.499C304.211 159.492 297.343 165.021 289.667 164.539C285.874 164.304 281.938 165.112 278.198 165.973C275.266 166.651 276.412 169.52 276.321 171.515C275.982 179.339 274.836 180.278 266.925 178.857C261.855 177.944 256.785 177.005 251.702 176.118C250.164 175.857 248.535 175.623 248.183 173.836C247.806 171.919 249.396 170.941 250.803 170.68C262.415 168.49 261.855 160.157 260.656 151.459C275.409 151.473 290.175 151.486 304.941 151.499Z" fill="#E9E7EF"/>
<path d="M302.334 132.121C303.286 135.512 306.101 134.234 308.212 134.312C312.474 134.482 316.775 134.69 321.01 134.286C326.784 133.725 327.631 136.19 325.78 140.871C323.018 140.871 320.189 140.532 317.492 140.975C314.181 141.51 310.206 138.863 307.574 142.866C302.791 143.414 297.995 143.401 293.198 142.905C291.895 140.037 290.605 140.076 289.328 142.931C287.138 142.931 284.962 142.944 282.772 142.944C279.957 138.967 275.813 141.745 272.372 140.897C270.652 135.681 268.645 135.681 263.249 140.884C258.192 136.516 258.114 135.355 263.77 132.317C269.492 129.239 275.669 127.427 282.303 127.714C282.903 128.848 282.785 130.439 284.349 130.974C284.467 132.46 283.215 134.651 285.613 135.042C287.308 135.316 287.816 133.543 288.011 132.03C288.885 132.056 289.758 132.082 290.631 132.108C292.781 135.564 294.958 135.525 297.134 132.134C298.855 132.121 300.588 132.121 302.334 132.121Z" fill="#E9E7EF"/>
<path d="M363.328 160.431C357.203 156.297 350.165 156.819 343.336 156.702C339.465 156.623 338.383 154.876 338.8 151.459C339.661 151.459 340.534 151.459 341.394 151.459C343.57 155.411 345.734 155.398 347.91 151.459C350.074 151.459 352.25 151.459 354.414 151.459C356.173 155.606 359.953 154.954 363.354 155.228C363.354 156.962 363.341 158.697 363.328 160.431Z" fill="#F3F1F8"/>
<path d="M307.561 142.866C310.193 138.863 314.168 141.51 317.479 140.975C320.177 140.532 323.005 140.884 325.768 140.871C327.657 141.184 330.173 139.919 330.968 142.958C323.161 142.931 315.354 142.892 307.561 142.866Z" fill="#F3F1F8"/>
<path d="M263.249 140.871C268.645 135.668 270.652 135.668 272.372 140.884C272.372 141.575 272.372 142.253 272.385 142.944C269.779 143.153 267.172 143.375 264.566 143.583C263.718 143.375 262.871 143.166 262.024 142.957C262.037 142.032 264.631 142.618 263.249 140.871Z" fill="#EBE9F0"/>
<path d="M329.677 151.447C329.169 153.09 332.623 156.154 328.543 156.297C325.311 156.415 320.789 157.015 320.567 151.46C323.604 151.46 326.641 151.46 329.677 151.447Z" fill="#F3F1F8"/>
<path d="M272.372 142.944C272.372 142.253 272.372 141.575 272.359 140.884C275.787 141.732 279.931 138.967 282.759 142.931C279.306 142.944 275.839 142.944 272.372 142.944Z" fill="#F3F1F8"/>
<path d="M347.923 151.447C345.747 155.385 343.57 155.385 341.407 151.447C343.57 151.447 345.747 151.447 347.923 151.447Z" fill="#EDEBF1"/>
<path d="M289.315 142.932C290.592 140.076 291.869 140.037 293.186 142.905C291.895 142.905 290.605 142.919 289.315 142.932Z" fill="#F3F1F8"/>
<path d="M363.276 178.674C359.757 176.509 359.757 174.345 363.276 172.18C363.276 174.345 363.276 176.509 363.276 178.674Z" fill="#EDEBF1"/>
<path d="M363.289 199.525C362.181 199.303 360.331 199.968 360.331 198.234C360.331 196.5 362.181 197.152 363.289 196.93C363.289 197.804 363.289 198.664 363.289 199.525Z" fill="#EDEBF1"/>
<path d="M363.289 191.701C362.781 191.492 362.272 191.271 361.764 191.062C362.272 190.853 362.781 190.632 363.289 190.423C363.289 190.853 363.289 191.284 363.289 191.701Z" fill="#EDEBF1"/>
<path d="M119.98 238.632C123.616 239.493 124.072 243.027 123.629 245.269C122.521 251.007 123.668 256.692 123.108 262.365C123.016 263.212 122.521 264.308 122.886 264.869C129.455 275.001 122.208 285.328 123.368 295.539C124.333 304.015 123.212 312.504 124.75 321.123C126.835 332.794 123.59 344.686 123.394 356.514C123.368 358.144 122.13 359.761 119.993 359.865C119.98 319.441 119.98 279.043 119.98 238.632Z" fill="#EDEBF1"/>
<path d="M144.703 131.899C141.679 131.795 138.643 131.665 135.619 131.6C133.456 131.547 131.045 131.847 130.654 128.835C130.302 126.071 132.179 125.053 134.498 124.545C149.16 124.467 163.822 124.401 178.484 124.323C178.901 124.362 179.318 124.415 179.735 124.454C182.107 125.445 183.111 127.218 182.159 129.644C181.26 131.913 179.07 131.613 177.142 131.639C166.337 131.73 155.52 131.808 144.703 131.899ZM141.301 127.635C138.76 126.67 136.219 125.849 132.843 127.961C136.284 129.644 138.799 129.448 141.301 127.635Z" fill="#342E4C"/>
<path d="M194.202 127.857C194.136 123.019 194.449 118.468 190.995 113.996C187.92 109.992 191.699 101.425 197.03 97.5132C197.303 100.226 197.577 102.938 197.851 105.65C197.851 106.12 197.851 106.602 197.864 107.072C197.746 113.044 197.629 119.003 197.512 124.975C197.212 125.94 196.925 126.905 196.626 127.857C195.831 127.844 195.023 127.844 194.202 127.857Z" fill="#F3F1F8"/>
<path d="M196.639 127.844C196.939 126.879 197.225 125.914 197.525 124.962C201.292 130.7 199.311 136.894 198.763 142.905C198.62 144.431 196.795 145.2 195.427 143.284C197.916 140.128 196.548 136.516 196.626 133.086C196.626 131.326 196.639 129.592 196.639 127.844Z" fill="#181230"/>
<path d="M196.626 133.073C196.547 136.516 197.903 140.115 195.427 143.271C195.023 143.166 194.632 143.075 194.228 142.971C195.752 139.854 192.064 135.46 196.626 133.073Z" fill="#F3F1F8"/>
<path d="M179.735 124.454C179.318 124.415 178.901 124.363 178.484 124.323C179.018 123.241 179.449 123.202 179.735 124.454Z" fill="#F3F1F8"/>
<path d="M255.638 125.327C256.485 124.023 256.42 122.172 258.049 121.337C258.049 123.163 258.14 125.027 255.638 125.327Z" fill="#E9E7EF"/>
<path d="M234.59 131.874C235.02 131.939 235.437 132.004 235.867 132.069C235.346 132.695 234.929 132.539 234.59 131.874Z" fill="#E9E7EF"/>
<path d="M253.214 127.831C252.927 126.892 253.436 126.71 254.218 126.788C253.879 127.127 253.54 127.479 253.214 127.831Z" fill="#E9E7EF"/>
<path d="M254.387 126.631C254.296 125.797 254.687 125.432 255.508 125.471C255.13 125.849 254.765 126.24 254.387 126.631Z" fill="#E9E7EF"/>
<path d="M245.042 132.173C245.46 132.108 245.89 132.03 246.307 131.965C245.981 132.591 245.564 132.76 245.042 132.173Z" fill="#E9E7EF"/>
<path d="M197.877 107.058C197.877 106.589 197.877 106.106 197.864 105.637C198.906 106.106 198.919 106.576 197.877 107.058Z" fill="#181230"/>
<path d="M289.263 106.98C289.575 104.959 288.585 102.26 291.895 101.738C298.399 101.751 304.902 101.738 311.405 101.777C318.99 101.816 326.615 101.477 334.161 102.051C341.277 102.599 343.583 107.371 342.593 118.364C342.072 124.18 337.38 123.893 333.261 123.919C323.07 124.01 312.878 123.984 302.686 123.945C287.92 123.893 289.302 125.549 289.302 110.879C289.315 109.588 289.276 108.284 289.263 106.98ZM316.814 104.516C309.503 104.516 303.117 104.229 296.796 104.659C294.228 104.829 292.065 107.084 292.039 109.966C292.026 113.109 290.605 116.799 293.068 119.29C294.658 120.894 298.594 120.998 299.702 119.459C304.042 113.474 311.822 111.622 316.814 104.516Z" fill="#1C4377"/>
<path d="M289.263 106.98C289.276 108.284 289.315 109.588 289.315 110.879C289.315 125.549 287.946 123.893 302.699 123.945C312.891 123.984 323.083 124.01 333.274 123.919C337.38 123.88 342.071 124.18 342.606 118.364C343.596 107.371 341.276 102.599 334.174 102.051C326.628 101.477 319.003 101.816 311.418 101.777C304.915 101.751 298.412 101.751 291.908 101.738C294.385 98.2304 297.903 96.6656 302.061 96.6135C309.216 96.5222 316.371 96.5874 323.513 96.6004C325.233 96.6004 326.862 96.6004 328.4 97.8392C330.837 99.8083 333.34 99.4301 336.168 98.0087C341.915 95.1399 346.581 98.1131 346.607 104.372C346.633 110.227 346.49 116.082 346.659 121.937C346.776 125.993 345.33 127.909 341.042 127.883C324.568 127.779 308.095 127.662 291.622 127.936C285.014 128.04 285.574 122.354 284.493 119.068C282.981 114.583 285.809 110.305 289.263 106.98Z" fill="#1A224B"/>
<path d="M297.108 132.108C294.932 135.499 292.755 135.538 290.605 132.082C292.781 132.095 294.945 132.108 297.108 132.108Z" fill="#EBE9F0"/>
<path d="M287.998 132.004C287.803 133.517 287.295 135.29 285.6 135.016C283.202 134.625 284.454 132.434 284.336 130.948C285.561 131.313 286.773 131.665 287.998 132.004Z" fill="#EBE9F0"/>
<path d="M332.271 132.121C332.062 132.604 331.841 133.099 331.632 133.582C331.424 133.099 331.202 132.604 330.994 132.121C331.424 132.121 331.841 132.121 332.271 132.121Z" fill="#F3F1F8"/>
<path d="M238.487 100.565C239.79 100.538 241.093 100.512 242.41 100.486C251.872 103.042 254.713 111.101 249.447 121.024C247.753 124.206 244.208 125.445 240.468 125.262C236.193 125.054 233.065 122.915 231.084 119.225C227.096 111.805 230.407 103.564 238.487 100.565Z" fill="#C7C3CD"/>
<path d="M305.671 218.916C322.092 241.514 327.827 266.329 320.45 293.556C317.909 302.919 314.168 311.93 307.808 319.545C303.182 321.423 299.793 320.354 297.578 315.62C296.77 313.886 294.984 312.882 292.899 312.804C293.342 309.935 295.662 308.253 297.108 306.01C301.318 299.516 301.018 298.042 294.606 293.165C289.966 281.912 285.014 270.684 290.462 258.231C290.879 256.914 291.296 255.584 291.713 254.267C291.921 253.667 292.13 253.054 292.338 252.454C293.524 250.198 294.332 247.63 295.962 245.752C299.519 241.644 299.976 237.706 296.522 233.429C296.665 232.581 297.069 231.669 296.9 230.873C295.062 222.306 297.187 219.372 305.671 218.916Z" fill="#C7C3CD"/>
<path d="M305.671 218.915C297.187 219.372 295.062 222.306 296.9 230.86C297.069 231.642 296.665 232.555 296.522 233.416C291.752 228.461 288.09 222.449 282.29 218.472L282.043 218.289C281.078 217.559 280.127 216.829 279.162 216.112L279.201 216.19C278.615 214.847 277.338 215.277 276.308 215.056C272.62 211.691 267.746 210.687 263.419 208.601C242.475 199.042 222.952 202.537 204.406 215.016L204.471 214.951C202.269 215.747 200.588 217.207 199.167 219.02C198.776 219.359 198.385 219.685 197.994 220.024C196.534 221.406 195.075 222.775 193.615 224.157C193.328 224.483 193.055 224.809 192.768 225.122C192.26 225.696 191.764 226.257 191.256 226.831C190.917 227.248 190.592 227.665 190.253 228.083C187.829 230.26 186.043 232.881 184.87 235.92L184.948 235.854C183.41 237.25 182.615 239.062 182.133 241.031L182.251 240.979C178.132 246.039 178.393 252.976 174.848 258.27C174.535 257.983 173.91 257.644 173.949 257.423C175.017 251.907 171.29 250.863 167.263 250.511C162.271 250.081 163.588 254.775 162.115 257.253C160.72 259.613 163.614 263.734 159.026 264.712C159.287 261.282 159.547 257.866 159.808 254.436C160.538 250.655 160.603 246.586 162.102 243.131C171.055 222.462 184.284 205.432 204.615 194.713C207.221 193.787 209.828 192.848 212.434 191.923C212.5 193.5 211.874 194.7 210.936 196.017C209.046 198.69 209.072 201.963 210.805 204.532C212.63 207.245 215.237 204.871 217.257 204.219C229.143 200.373 241.354 200.229 253.579 201.129C257.215 201.403 260.995 203.424 263.823 200.007C266.481 196.8 264.5 193.253 263.354 189.927C267.667 191.362 271.968 192.809 276.282 194.244C282.707 197.973 289.302 201.468 294.554 206.919C298.829 210.374 302.752 214.182 305.671 218.915Z" fill="#D2CFD6"/>
<path d="M292.899 312.777C294.971 312.856 296.757 313.86 297.578 315.594C299.793 320.341 303.182 321.397 307.808 319.519C305.371 322.896 302.934 326.287 300.51 329.664C299.324 330.799 298.138 331.933 296.952 333.068C295.714 334.163 294.489 335.271 293.251 336.367C291.035 337.997 288.82 339.627 286.617 341.244C281.43 343.121 276.947 346.786 271.225 347.359C269.896 339.64 267.355 337.501 259.431 337.175C258.948 337.149 258.518 335.962 258.062 335.323C268.984 331.79 278.602 326.039 287.047 318.267C287.412 317.902 287.777 317.55 288.142 317.185C288.95 316.611 289.745 316.05 290.553 315.477C290.983 314.994 291.413 314.512 291.843 314.029C291.895 313.677 291.921 313.312 291.934 312.96C292.247 312.908 292.573 312.83 292.899 312.777Z" fill="#D2CFD6"/>
<path d="M294.541 206.906C289.302 201.468 282.707 197.96 276.269 194.231C276.204 189.654 280.844 191.258 282.759 189.276C288.116 191.701 292.886 194.961 297.095 199.056C297.995 202.25 295.831 204.428 294.541 206.906Z" fill="#251F40"/>
<path d="M325.768 299.907C323.878 299.777 321.558 300.05 322.262 296.986C322.418 296.308 323.448 295.265 323.943 295.343C326.941 295.773 325.285 298.303 325.781 299.907C325.781 299.881 325.768 299.907 325.768 299.907Z" fill="#251F40"/>
<path d="M313.295 215.395C314.742 215.59 317.518 214.756 315.185 217.859C314.559 217.025 313.934 216.216 313.295 215.395Z" fill="#EDEBF1"/>
<path d="M258.062 335.35C258.518 335.989 258.949 337.188 259.431 337.201C267.342 337.527 269.896 339.679 271.225 347.386C268.958 348.807 266.703 350.228 264.435 351.65C263.093 352.028 261.738 352.406 260.395 352.784C259.613 352.941 258.831 353.097 258.049 353.267C256.928 353.149 255.821 353.097 255.365 354.466C254.087 354.544 252.81 354.623 251.533 354.701C242.879 354.166 234.095 355.418 225.572 352.875C225.806 352.08 228.087 351.676 226.536 350.724C223.982 349.159 221.062 348.324 218.521 351.089C217.361 350.985 216.214 350.88 215.054 350.776C215.002 350.554 214.95 350.333 214.898 350.098C214.715 349.276 214.806 348.038 214.298 347.725C211.809 346.134 208.173 345.051 210.897 341.113C212.982 338.101 215.38 335.832 220.02 337.293C230.42 340.579 241.237 339.053 251.911 339.001C253.905 338.988 255.286 338.401 255.365 336.145C256.264 335.871 257.163 335.61 258.062 335.35Z" fill="#C7C3CD"/>
<path d="M260.382 352.784C261.724 352.406 263.08 352.028 264.422 351.65C263.953 355.144 262.572 355.392 260.382 352.784Z" fill="#181230"/>
<path d="M255.351 354.466C255.82 353.097 256.915 353.149 258.036 353.267C257.762 355.027 257.397 356.644 255.351 354.466Z" fill="#181230"/>
<path d="M255.364 336.132C255.273 338.375 253.905 338.975 251.911 338.988C241.237 339.04 230.42 340.566 220.019 337.28C215.38 335.819 212.982 338.088 210.897 341.1C208.16 345.038 211.796 346.121 214.298 347.712C214.793 348.038 214.715 349.276 214.898 350.085C207.43 348.442 201.213 344.178 194.736 340.461C190.839 337.293 186.942 334.137 183.045 330.968C181.078 328.504 179.11 326.052 177.142 323.588C178.015 322.153 178.953 322.297 180.296 323.131C184.075 325.505 188.154 323.64 188.936 319.18C189.223 317.511 189.041 315.764 189.067 314.055C190.357 314.929 191.66 315.816 192.95 316.69C193.42 317.159 193.876 317.615 194.345 318.085C195.544 319.18 196.743 320.262 197.942 321.358C206.14 327.774 214.507 333.537 225.18 335.558C235.307 337.501 245.277 337.462 255.364 336.132Z" fill="#D2CFD6"/>
<path d="M293.238 336.393C294.476 335.298 295.701 334.189 296.939 333.094C297.278 335.963 295.519 336.471 293.238 336.393Z" fill="#201A39"/>
<path d="M218.508 351.076C221.049 348.311 223.969 349.146 226.523 350.711C228.074 351.663 225.793 352.067 225.559 352.862C224.229 352.941 222.9 353.019 221.584 353.084C221.362 351.298 220.411 350.567 218.638 351.076H218.508Z" fill="#D2CFD6"/>
<path d="M218.625 351.089C220.41 350.593 221.349 351.311 221.57 353.097C220.593 352.419 219.615 351.754 218.625 351.089Z" fill="#C7C3CD"/>
<path d="M189.054 314.068C189.028 315.777 189.21 317.524 188.923 319.193C188.141 323.653 184.062 325.504 180.283 323.144C178.94 322.31 178.002 322.166 177.129 323.601C170.352 316.429 165.934 307.939 163.066 298.577C165.712 296.008 165.217 294.221 161.32 292.174C161.046 292.161 160.773 292.096 160.525 291.979C160.486 290.701 160.447 289.41 160.395 288.132C161.711 283.594 164.044 278.939 158.935 275.118C158.205 271.636 158.244 268.168 159.013 264.699C163.614 263.721 160.707 259.6 162.102 257.24C163.575 254.762 162.258 250.081 167.25 250.498C171.277 250.85 175.004 251.894 173.936 257.409C173.897 257.618 174.522 257.97 174.835 258.257C174.809 259.965 174.783 261.674 174.757 263.395C170.951 266.759 170.886 272.823 174.613 276.435C176.021 279.017 174.6 281.755 175.343 284.611C178.119 295.343 183.489 304.719 189.054 314.068Z" fill="#C7C3CD"/>
<path d="M160.407 288.132C160.447 289.41 160.486 290.701 160.538 291.979C158.831 294.156 157.566 297.038 153.904 295.982C153.513 294.678 153.122 293.374 152.744 292.057C153.37 291.64 154.517 291.235 154.517 290.818C154.517 289.423 153.213 289.592 152.236 289.436C151.271 288.275 151.219 286.932 151.402 285.537C155.911 285.133 152.04 279.591 155.403 278.43C157.697 280.477 154.543 285.094 159.274 285.55C159.639 286.424 160.03 287.271 160.407 288.132Z" fill="#251F40"/>
<path d="M161.32 292.174C165.23 294.222 165.712 296.008 163.066 298.577C161.945 296.595 161.45 294.443 161.32 292.174Z" fill="#D2CFD6"/>
<path d="M204.615 194.7C184.27 205.419 171.055 222.463 162.102 243.118C160.603 246.573 160.538 250.642 159.808 254.424C155.312 256.432 156.823 260.539 156.393 264.008C156.055 266.668 157.618 269.667 155.129 271.936C154.842 272.197 153.604 272.041 153.422 271.715C151.806 268.885 152.353 265.821 152.953 262.9C153.826 258.662 154.829 254.502 152.614 250.381C152.848 249.507 153.07 248.634 153.305 247.76C154.295 247.604 155.65 247.891 155.807 246.482C155.911 245.491 154.869 245.296 154.034 245.152C154.36 244.265 154.699 243.392 155.025 242.505C156.615 241.514 158.935 240.719 156.146 238.502C163.744 219.281 175.799 203.711 193.563 192.836C196.013 193.305 198.137 192.392 200.249 191.323C203.989 189.458 204.719 191.545 204.615 194.7Z" fill="#251F40"/>
<path d="M204.615 194.7C204.719 191.545 203.976 189.458 200.249 191.336C198.137 192.405 196.013 193.318 193.563 192.849C218.299 176.196 244.743 174.632 272.333 184.164C275.956 185.416 279.697 186.707 282.746 189.276C280.831 191.258 276.191 189.654 276.256 194.231C271.942 192.796 267.641 191.349 263.327 189.915C262.155 188.963 260.773 188.897 259.352 188.976C258.18 188.102 256.85 187.867 255.43 188.05C253.357 187.75 251.285 187.45 249.213 187.15C243.348 186.185 237.497 186.146 231.632 187.189C230.876 187.333 230.12 187.476 229.364 187.619C228.061 187.776 226.757 187.919 225.454 188.076C220.867 188.545 216.501 189.784 212.395 191.897C209.828 192.835 207.221 193.774 204.615 194.7Z" fill="#201A39"/>
<path d="M152.627 250.381C154.829 254.502 153.826 258.662 152.966 262.9C152.366 265.82 151.819 268.885 153.435 271.715C153.617 272.028 154.843 272.197 155.142 271.936C157.632 269.68 156.068 266.668 156.406 264.008C156.85 260.539 155.325 256.432 159.821 254.424C159.56 257.853 159.3 261.27 159.039 264.699C158.283 268.168 158.231 271.636 158.961 275.118C159.065 278.6 159.169 282.081 159.274 285.563C154.543 285.107 157.697 280.49 155.403 278.443C152.04 279.604 155.911 285.146 151.402 285.55C149.004 273.723 149.382 262 152.627 250.381Z" fill="#201A39"/>
<path d="M156.159 238.515C158.948 240.731 156.628 241.527 155.038 242.518C155.247 241.136 154.504 239.493 156.159 238.515Z" fill="#201A39"/>
<path d="M154.035 245.165C154.869 245.308 155.911 245.504 155.807 246.495C155.664 247.903 154.295 247.63 153.305 247.773C153.552 246.899 153.8 246.026 154.035 245.165Z" fill="#201A39"/>
<path d="M152.223 289.449C153.187 289.605 154.504 289.436 154.504 290.831C154.504 291.248 153.357 291.653 152.731 292.07C152.562 291.196 152.392 290.323 152.223 289.449Z" fill="#201A39"/>
<path d="M141.302 127.635C138.799 129.448 136.284 129.657 132.843 127.961C136.219 125.836 138.76 126.67 141.302 127.635Z" fill="#251F40"/>
<path d="M316.814 104.516C311.822 111.622 304.042 113.474 299.702 119.459C298.594 120.985 294.658 120.881 293.068 119.29C290.605 116.812 292.026 113.122 292.039 109.966C292.052 107.071 294.228 104.829 296.796 104.659C303.117 104.229 309.49 104.516 316.814 104.516Z" fill="#154B86"/>
<path d="M288.129 317.211C287.764 317.576 287.399 317.928 287.034 318.293C285.822 317.993 283.815 317.107 283.541 317.485C281.417 320.406 277.911 321.175 275.161 323.001C268.045 327.734 260.265 330.577 251.52 327.395C252.693 325.648 254.583 326.274 256.212 325.922C263.823 324.279 271.069 321.853 276.308 315.581L276.334 315.568C282.447 313.351 285.509 308.057 288.82 303.05C289.693 301.72 289.341 300.168 288.598 298.72C279.032 280.321 278.68 261.556 287.49 242.948C289.993 237.68 288.051 235.555 284.18 233.286C278.524 223.871 269.635 219.176 259.457 216.373C258.297 214.951 256.681 214.312 254.974 213.973C237.379 210.453 221.062 213.739 206.465 224.079C199.089 229.308 192.208 235.359 190.07 244.917C186.356 250.003 184.153 255.727 183.893 261.961C183.528 270.697 183.476 279.473 185.092 288.145C182.329 287.819 182.629 285.732 182.459 283.776C181.599 274.27 184.623 264.438 180.009 255.219C179.618 254.45 179.944 252.872 180.517 252.141C183.267 248.686 182.459 244.787 182.238 240.927C182.238 240.927 182.12 240.979 182.133 240.979C186.252 240.979 184.779 237.941 184.948 235.802L184.87 235.868C189.77 235.385 189.966 231.682 190.253 228.03C190.592 227.613 190.917 227.196 191.256 226.779C191.765 226.205 192.26 225.644 192.768 225.07C193.055 224.744 193.328 224.418 193.615 224.105C196.873 224.64 198.515 223.453 197.994 219.972C198.385 219.633 198.776 219.307 199.167 218.968C202.126 219.176 204.589 218.72 204.471 214.899L204.406 214.964C216.045 214.886 226.132 207.219 238.096 208.171C240.116 208.327 242.605 204.767 245.095 206.384C250.972 210.192 257.306 208.014 263.419 208.549C267.746 210.635 272.62 211.639 276.308 215.004C276.908 216.308 277.989 216.399 279.201 216.138L279.162 216.06C278.993 218.277 279.749 219.268 282.043 218.237L282.29 218.42C280.857 221.563 283.971 222.41 285.262 224.092C290.371 230.704 297.03 236.741 292 246.469C291.465 247.486 291.908 249.012 291.895 250.303C290.605 250.485 289.393 250.811 289.497 252.494C289.589 253.837 290.657 254.032 291.7 254.202C291.283 255.519 290.866 256.849 290.449 258.166C285.835 257.866 285.275 261.921 285.783 264.308C287.295 271.454 286.383 278.574 286.63 285.693C286.826 291.131 288.924 294.795 294.489 295.969C295.193 300.624 293.876 304.862 291.856 308.97C285.744 309.517 286.787 313.299 288.129 317.211Z" fill="#1A224B"/>
<path d="M291.908 250.342C291.921 249.051 291.478 247.525 292.013 246.508C297.043 236.793 290.383 230.743 285.275 224.132C283.971 222.449 280.87 221.602 282.303 218.459C288.103 222.436 291.765 228.448 296.535 233.403C299.976 237.68 299.519 241.618 295.975 245.726C294.358 247.604 293.537 250.173 292.351 252.428C292.195 251.737 292.052 251.033 291.908 250.342Z" fill="#201A39"/>
<path d="M294.502 296.021C288.937 294.847 286.839 291.17 286.643 285.746C286.396 278.626 287.308 271.506 285.796 264.36C285.288 261.974 285.848 257.918 290.462 258.218C285.027 270.671 289.967 281.899 294.606 293.152C294.58 294.104 294.541 295.056 294.502 296.021Z" fill="#181230"/>
<path d="M294.502 296.021C294.541 295.069 294.567 294.104 294.606 293.152C301.018 298.029 301.318 299.49 297.108 305.997C295.662 308.24 293.342 309.922 292.899 312.791C292.573 312.843 292.247 312.908 291.921 312.999C291.908 311.682 291.882 310.352 291.869 309.035C293.889 304.914 295.206 300.676 294.502 296.021Z" fill="#201A39"/>
<path d="M291.908 250.342C292.052 251.033 292.195 251.737 292.338 252.428C292.13 253.028 291.921 253.641 291.713 254.241C290.67 254.071 289.602 253.876 289.51 252.533C289.393 250.85 290.605 250.524 291.908 250.342Z" fill="#181230"/>
<path d="M259.379 188.989C260.799 188.898 262.181 188.976 263.354 189.928C264.501 193.253 266.481 196.8 263.823 200.008C260.995 203.411 257.215 201.39 253.579 201.129C241.354 200.216 229.143 200.36 217.257 204.22C215.237 204.872 212.63 207.245 210.805 204.533C209.085 201.977 209.046 198.691 210.936 196.017C211.874 194.687 212.5 193.488 212.435 191.923C216.54 189.823 220.906 188.572 225.493 188.102C225.715 189.158 225.963 190.215 227.331 190.215C229.038 190.215 229.247 188.95 229.403 187.646C230.159 187.502 230.915 187.359 231.671 187.215C237.536 190.293 243.4 190.371 249.252 187.176C251.324 187.476 253.397 187.776 255.469 188.076C256.16 190.932 257.502 191.088 259.379 188.989Z" fill="#C7C3CD"/>
<path d="M182.237 240.953C182.472 244.8 183.267 248.699 180.517 252.168C179.931 252.898 179.618 254.476 180.009 255.245C184.622 264.464 181.599 274.296 182.459 283.803C182.641 285.772 182.342 287.845 185.092 288.171C185.131 288.992 185.157 289.827 185.196 290.649C184.583 295.343 185.483 299.333 188.741 303.18C190.943 305.775 193.576 308.826 192.924 312.934C192.924 314.186 192.924 315.451 192.924 316.702C191.634 315.829 190.331 314.942 189.041 314.068C183.476 304.719 178.106 295.343 175.343 284.598C174.6 281.742 176.021 279.004 174.613 276.422C174.665 272.08 174.705 267.724 174.757 263.382C174.783 261.674 174.809 259.965 174.835 258.244C178.393 252.95 178.132 246.013 182.237 240.953Z" fill="#201A39"/>
<path d="M263.419 208.588C257.306 208.053 250.959 210.231 245.095 206.423C242.605 204.806 240.116 208.366 238.096 208.21C226.132 207.258 216.045 214.925 204.406 215.004C222.952 202.524 242.475 199.03 263.419 208.588Z" fill="#201A39"/>
<path d="M190.253 228.057C189.966 231.708 189.77 235.411 184.87 235.894C186.043 232.855 187.829 230.234 190.253 228.057Z" fill="#201A39"/>
<path d="M204.471 214.925C204.576 218.733 202.125 219.189 199.167 218.994C200.575 217.181 202.269 215.721 204.471 214.925Z" fill="#201A39"/>
<path d="M197.981 219.998C198.502 223.466 196.86 224.653 193.602 224.131C195.062 222.749 196.521 221.367 197.981 219.998Z" fill="#201A39"/>
<path d="M184.948 235.828C184.779 237.967 186.252 241.018 182.133 241.005C182.616 239.023 183.397 237.224 184.948 235.828Z" fill="#201A39"/>
<path d="M282.042 218.277C279.762 219.307 278.993 218.316 279.162 216.099C280.127 216.829 281.091 217.546 282.042 218.277Z" fill="#201A39"/>
<path d="M279.201 216.177C277.989 216.438 276.908 216.347 276.308 215.043C277.338 215.251 278.615 214.834 279.201 216.177Z" fill="#201A39"/>
<path d="M192.768 225.096C192.26 225.67 191.764 226.231 191.256 226.805C191.751 226.231 192.26 225.67 192.768 225.096Z" fill="#201A39"/>
<path d="M251.52 327.408C260.252 330.59 268.032 327.747 275.161 323.014C277.911 321.188 281.417 320.419 283.541 317.498C283.815 317.12 285.835 318.006 287.034 318.306C278.602 326.078 268.984 331.829 258.049 335.363C257.15 335.623 256.264 335.884 255.364 336.145C245.277 337.488 235.307 337.514 225.167 335.584C214.494 333.563 206.127 327.799 197.929 321.384C197.994 320.314 198.046 319.232 198.111 318.163C200.992 318.815 202.516 321.345 204.732 322.909C211.418 327.617 218.482 330.447 226.744 327.356C230.654 327.773 234.577 328.191 238.487 328.608C239.79 330.251 241.094 330.251 242.397 328.621C245.447 328.204 248.483 327.799 251.52 327.408Z" fill="#251F40"/>
<path d="M291.869 309.022C291.882 310.339 291.908 311.669 291.922 312.986C291.908 313.351 291.882 313.703 291.83 314.055C291.4 314.538 290.97 315.02 290.54 315.503C289.732 316.077 288.937 316.637 288.129 317.211C286.787 313.299 285.744 309.517 291.869 309.022Z" fill="#251F40"/>
<path d="M192.937 316.716C192.937 315.464 192.937 314.199 192.937 312.947C196.391 313.39 195.257 316.116 195.518 318.15C195.127 318.163 194.723 318.15 194.332 318.111C193.863 317.641 193.406 317.172 192.937 316.716Z" fill="#251F40"/>
<path d="M194.332 318.098C194.723 318.124 195.127 318.137 195.518 318.137C196.378 318.137 197.251 318.15 198.111 318.15C198.046 319.219 197.994 320.301 197.929 321.371C196.73 320.288 195.531 319.193 194.332 318.098Z" fill="#201A39"/>
<path d="M159.261 285.563C159.156 282.081 159.052 278.6 158.948 275.118C164.044 278.939 161.724 283.594 160.407 288.132C160.029 287.271 159.638 286.424 159.261 285.563Z" fill="#D2CFD6"/>
<path d="M174.77 263.382C174.718 267.724 174.678 272.08 174.626 276.422C170.899 272.81 170.964 266.759 174.77 263.382Z" fill="#D2CFD6"/>
<path d="M249.239 187.163C243.387 190.358 237.536 190.28 231.658 187.202C237.522 186.146 243.374 186.185 249.239 187.163Z" fill="#D2CFD6"/>
<path d="M229.403 187.633C229.26 188.924 229.038 190.201 227.331 190.201C225.962 190.201 225.715 189.145 225.493 188.089C226.796 187.932 228.1 187.789 229.403 187.633Z" fill="#D2CFD6"/>
<path d="M259.378 188.989C257.502 191.088 256.159 190.932 255.456 188.063C256.876 187.88 258.205 188.115 259.378 188.989Z" fill="#D2CFD6"/>
<path d="M259.444 216.399C269.622 219.202 278.511 223.897 284.167 233.312C283.58 236.598 284.297 239.792 282.473 243.248C278.367 251.02 278.81 260.2 276.36 268.559C276.1 269.472 276.334 270.997 276.947 271.61C279.475 274.114 278.732 277.204 278.876 280.164C279.006 282.955 278.459 286.019 279.41 288.497C282.473 296.556 283.554 304.184 277.351 311.291C276.256 312.543 276.256 314.055 276.334 315.581L276.308 315.594C270.808 314.655 267.537 319.649 262.806 320.719C250.855 323.431 238.695 324.083 226.549 323.17C222.092 322.831 217.191 321.918 213.751 318.163C220.684 318.15 227.396 316.52 234.186 315.464C239.999 314.551 245.864 314.251 251.611 316.181C259.848 318.945 265.739 317.576 270.86 310.926C272.763 308.461 273.793 305.827 272.072 301.654C269.023 294.261 263.184 290.453 257.593 285.811C253.814 282.668 247.206 279.46 248.131 274.792C249.526 267.763 254.178 261.387 257.528 254.775C257.71 254.41 258.753 254.528 259.352 254.306C267.446 251.229 273.702 246.039 277.742 238.293C278.498 236.845 278.98 235.424 277.572 234.172C270.443 227.809 264.279 219.489 252.836 221.693C253.123 217.533 255.547 216.047 259.444 216.399Z" fill="#154B86"/>
<path d="M213.738 318.163C217.178 321.932 222.079 322.844 226.536 323.17C238.682 324.083 250.842 323.418 262.793 320.719C267.537 319.65 270.795 314.655 276.295 315.594C271.056 321.879 263.81 324.292 256.198 325.935C254.582 326.287 252.693 325.648 251.507 327.408C248.47 327.813 245.433 328.204 242.397 328.608C241.093 326.965 239.79 326.965 238.487 328.595C234.577 328.178 230.654 327.761 226.744 327.343C226.445 327.043 226.184 326.548 225.832 326.483C213.49 324.148 203.976 317.615 196.013 307.914C191.595 302.541 189.314 296.06 185.196 290.649C185.157 289.827 185.131 288.993 185.092 288.171C183.475 279.5 183.515 270.737 183.893 261.987C184.153 255.754 186.356 250.029 190.07 244.957L190.331 245.191C190.174 247.082 190.396 249.09 189.809 250.851C187.307 258.401 187.216 258.375 194.84 256.979C194.215 258.779 193.42 260.526 193.002 262.378C191.751 267.79 194.149 271.428 199.402 272.327C199.714 275.94 199.271 278.743 195.257 280.647C190.305 283.007 189.366 287.989 190.578 292.892C192.247 299.659 198.58 303.597 201.682 309.596C202.086 310.365 204.445 310.117 205.892 310.339C206.791 314.668 210.323 316.364 213.738 318.163Z" fill="#1C4377"/>
<path d="M259.444 216.399C255.547 216.047 253.123 217.546 252.823 221.693C250.555 222.202 250.516 225.553 247.857 225.566C244.899 220.493 240.116 221.563 235.672 222.202C221.596 224.197 211.014 232.073 202.008 242.544C201.695 242.036 201.044 241.449 201.135 241.018C201.539 239.01 202.999 236.559 200.262 235.503C197.342 234.381 196.782 237.641 195.166 239.075C193.159 240.875 193.81 244.683 190.331 245.191L190.07 244.957C192.207 235.398 199.076 229.348 206.465 224.119C221.062 213.765 237.366 210.479 254.973 214.013C256.668 214.339 258.284 214.978 259.444 216.399Z" fill="#1C4377"/>
<path d="M276.334 315.581C276.256 314.055 276.256 312.53 277.351 311.291C283.567 304.184 282.486 296.556 279.41 288.497C278.459 286.006 279.006 282.955 278.876 280.164C278.732 277.217 279.488 274.127 276.947 271.61C276.321 270.997 276.087 269.472 276.36 268.559C278.81 260.187 278.367 251.02 282.473 243.248C284.297 239.793 283.58 236.598 284.167 233.312C288.038 235.581 289.98 237.706 287.477 242.974C278.654 261.582 279.019 280.347 288.585 298.746C289.341 300.194 289.693 301.746 288.807 303.076C285.509 308.07 282.447 313.351 276.334 315.581Z" fill="#1C4377"/>
<path d="M185.196 290.648C189.314 296.073 191.608 302.541 196.013 307.913C203.976 317.615 213.49 324.135 225.832 326.482C226.184 326.548 226.445 327.043 226.744 327.343C218.482 330.447 211.418 327.617 204.732 322.896C202.517 321.332 200.992 318.789 198.111 318.15C197.251 318.15 196.378 318.137 195.518 318.137C195.257 316.103 196.391 313.377 192.937 312.934C193.589 308.826 190.943 305.775 188.754 303.18C185.496 299.333 184.583 295.33 185.196 290.648Z" fill="#1A224B"/>
<path d="M238.5 328.595C239.803 326.952 241.107 326.965 242.41 328.608C241.094 330.238 239.79 330.238 238.5 328.595Z" fill="#1A224B"/>
<path d="M247.858 225.566C250.503 225.553 250.555 222.202 252.823 221.693C264.266 219.489 270.43 227.809 277.559 234.172C278.967 235.424 278.485 236.846 277.729 238.293C273.689 246.039 267.433 251.229 259.339 254.306C258.74 254.528 257.71 254.41 257.515 254.776C254.165 261.387 249.513 267.763 248.118 274.792C247.193 279.46 253.787 282.668 257.58 285.811C263.171 290.453 269.01 294.248 272.059 301.654C273.78 305.827 272.75 308.461 270.847 310.926C265.726 317.576 259.835 318.945 251.598 316.181C245.851 314.251 239.986 314.551 234.173 315.464C227.383 316.533 220.671 318.163 213.738 318.163C210.323 316.363 206.791 314.681 205.918 310.339C206.648 304.262 207.3 298.316 215.25 297.129C218.925 296.582 217.96 293.491 216.644 291.653C211.874 284.976 207.821 277.961 204.784 270.345C204.497 269.615 203.663 269.106 203.077 268.507C203.181 267.242 203.298 265.977 203.403 264.712C205.775 264.516 205.41 262.586 206.048 261.035C208.016 256.301 209.333 251.307 217.009 252.624C221.284 253.354 225.975 255.115 230.798 253.041C238.695 249.664 242.28 242.479 246.802 236.115C248.118 234.251 248.118 232.008 245.824 230.469C247.336 229.165 247.845 227.47 247.858 225.566Z" fill="#144E8C"/>
<path d="M247.857 225.566C247.844 227.47 247.336 229.165 245.837 230.456C241.367 231.043 236.793 231.225 232.44 232.269C217.269 235.907 203.885 251.046 203.403 264.699C203.298 265.964 203.181 267.229 203.077 268.494C202.021 269.915 201.252 271.623 199.428 272.314C194.175 271.415 191.777 267.789 193.028 262.365C193.459 260.526 194.241 258.766 194.866 256.966C197.251 252.155 199.636 247.343 202.034 242.531C211.027 232.06 221.622 224.184 235.698 222.189C240.129 221.563 244.899 220.493 247.857 225.566Z" fill="#6DA7E2"/>
<path d="M199.428 272.314C201.252 271.623 202.021 269.915 203.077 268.494C203.663 269.107 204.498 269.615 204.784 270.332C207.821 277.948 211.887 284.976 216.644 291.64C217.96 293.478 218.925 296.569 215.25 297.116C207.3 298.303 206.648 304.262 205.918 310.326C204.458 310.104 202.1 310.352 201.709 309.583C198.607 303.571 192.273 299.646 190.605 292.878C189.393 287.988 190.344 283.007 195.283 280.634C199.284 278.717 199.741 275.926 199.428 272.314Z" fill="#154B86"/>
<path d="M202.021 242.531C199.636 247.343 197.238 252.154 194.853 256.966C187.229 258.361 187.32 258.387 189.823 250.837C190.409 249.09 190.188 247.069 190.344 245.178C193.824 244.669 193.172 240.862 195.179 239.062C196.782 237.628 197.356 234.368 200.275 235.489C203.012 236.545 201.552 238.997 201.148 241.005C201.057 241.449 201.709 242.022 202.021 242.531Z" fill="#154B86"/>
<path d="M203.403 264.699C203.885 251.046 217.27 235.907 232.44 232.268C236.806 231.225 241.367 231.043 245.838 230.456C248.131 231.995 248.131 234.237 246.815 236.102C242.293 242.466 238.709 249.651 230.811 253.028C225.989 255.088 221.284 253.341 217.022 252.611C209.346 251.294 208.029 256.288 206.062 261.022C205.41 262.573 205.775 264.503 203.403 264.699Z" fill="#154B86"/>
</g>
<defs>
<clipPath id="clip0_5_916">
<rect width="477" height="489" fill="white"/>
</clipPath>
</defs>
</svg>
