<svg version="1.2" xmlns="http://www.w3.org/2000/svg" viewBox="0 0 477 489" width="477" height="489">
	<defs>
		<clipPath clipPathUnits="userSpaceOnUse" id="cp1">
			<path d="m0 0h477v489h-477z"/>
		</clipPath>
	</defs>
	<style>
		.s0 { fill: #181230 } 
		.s1 { fill: #251f40 } 
		.s2 { fill: #201a39 } 
		.s3 { fill: #342e4c } 
		.s4 { fill: #e9e7ef } 
		.s5 { fill: #f3f1f8 } 
		.s6 { fill: #edebf1 } 
		.s7 { fill: #ebe9f0 } 
		.s8 { fill: #d2cfd6 } 
		.s9 { fill: #fdfdfd } 
		.s10 { fill: #c7c3cd } 
		.s11 { fill: #1c4377 } 
		.s12 { fill: #1a224b } 
		.s13 { fill: #154b86 } 
		.s14 { fill: #144e8c } 
		.s15 { fill: #6da7e2 } 
	</style>
	<g id="Clip-Path" clip-path="url(#cp1)">
		<g>
			<path class="s0" d="m215 75.61q50.4-0.16 100.8-0.3c12.8-0.04 25.58-0.23 38.38-0.02 10.75 0.17 17.35 6.26 17.46 16.88 0.25 23.63-0.05 47.27-0.11 70.91-3-4.1-0.72-8.8-1.52-13.16q0.03-13.67 0.02-27.33c0-1.47 0.17-3.47-1.95-3.43-2.07 0.05-1.85 2.05-1.86 3.52-0.04 4.77 0.03 9.55-0.05 14.32-0.04 2.02 0.78 4.57-2.42 5.16q-0.17-11.07-0.33-22.14-0.01-4.53-0.03-9.09-0.05-8.47-0.13-16.95c-0.32-6.13-2.79-10.64-9.52-10.78-8.88-0.19-17.77 0.14-26.64 0.24-11.3-0.52-22.59-0.54-33.89 0.03-6.95-0.52-13.89-0.44-20.84 0.08q-8.46 0-16.93 0.01-10.42 0.01-20.84 0.03-14.32-0.12-28.64-0.23 0.15-2.42 2.58-2.45 1.3 0 2.63 0c4.94 0 9.88 0 15.52 0-3.06-6.07-8.82-1.89-11.69-5.3zm105.54 5.32c4.91 0 9.84 0.02 14.75-0.03 1.48-0.01 3.3 0.01 3.04-2.22-0.19-1.67-1.77-1.6-3.02-1.61-4.92-0.04-9.84-0.03-14.76-0.03q-3.24 0-6.49 0c-9.29 0.73-18.89-1.79-27.9 1.79q0.03 1.05 0.05 2.1 13.92 0 27.84 0 3.27 0 6.49 0z"/>
			<path class="s1" d="m120.5 409.65l-0.35 0.03-0.18-0.31c-0.17-3.45-3.51-4.63-5.02-7.09-2.48-4.02-5.73-8.22-0.21-12.45-0.01 1.92-0.01 3.82 2.66 3.91l0.29 0.29-0.19 0.37q0.38 0.93 0.76 1.87 0.19 0.69 0.39 1.37c-1.97 2.23-0.2 2.35 1.43 2.53l-0.06-0.06q0.68 0.69 1.38 1.38l-0.07-0.07c0.7 3.25 2.2 4.66 5.32 2.31q3.17-0.08 6.34-0.14 7.18-0.02 14.36-0.04 1.22 0 2.44 0.01 0.72 0.3 1.44 0.6c0.16 1.4 0.71 2.43 2.3 2.52q2.73 0.17 2.92-2.54 2.59-0.29 5.18-0.58 3.27 0 6.55 0 1.93 0 3.87-0.01 3.93 0 7.84 0 2.59 0 5.18 0 1.32 0 2.64 0 11.71 0.01 23.42 0.03 3.27-0.01 6.53 0.01 1.29 0 2.58 0 5.22 0 10.44 0.01 5.84 0.01 11.7 0.03 1.31 0 2.64 0 5.2 0.28 10.41 0.56c0.34 0.66 0.56 1.82 1.02 1.92 1.39 0.29 1.39-0.98 1.57-1.92q12.37-0.28 24.74-0.56 3.27 0 6.54 0 3.24 0 6.48 0 3.93 0 7.85 0 3.24 0.27 6.5 0.55 3.89 6.01 7.82 0.01 1.3 0 2.6 0c0.34 0.66 0.57 1.82 1.03 1.93 1.4 0.3 1.4-0.98 1.58-1.93q12.38-0.3 24.74-0.59 3.35-0.02 6.71-0.05c3.77-0.16 5.68-2.4 6.59-5.79 4.06-2.16 1.5-6.23 2.66-9.23q3.09 0.01 6.17 0.02c0.99 2.17-2.51 4.52 0.26 6.61-0.58 5.96-1.38 11.79-8 14.39-3.5-1.91-7.04 0.04-10.55 0.02-66.48-0.18-132.96-0.14-199.44-0.11-10.58-0.02-21.19 0.11-31.8 0.19z"/>
			<path class="s2" d="m370.04 388.54q-3.08-0.01-6.17-0.03 0-24.11 0-48.23c3.3-3.93 3.29-15.64-0.01-19.52q0-1.97 0-3.94 5.46-3.89 0-7.78 0.01-1.97 0.01-3.94 5.36-2.61-0.01-5.18 0.01-1.97 0.01-3.94c3.65-3.02 3.62-6.05 0.02-9.09q-0.26-26.07-0.51-52.14-0.01-1.95-0.01-3.9 0-4.57 0-9.13 0-1.3 0-2.61 0.23-2.62 0.47-5.23c2.75-0.55 2.29-2.74 2.29-4.63q0.03-25.31 0-50.63c0-1.88 0.48-4.07-2.26-4.67q-0.82-1.31-1.64-2.62-0.04-0.62-0.02-1.24 3.89-0.07 7.77-0.14c0.79 4.35-1.49 9.06 1.51 13.15 0.62 5.19 0.57 10.37 0.01 15.56q-3.24 3.3 0 6.6 0.87 5.83-0.01 11.66c-2.17 1.59-1.42 3.93-1.44 6.01q-0.06 49.4 0 98.8c0 2.08-0.73 4.41 1.37 6.04q0 1.28 0 2.57-3.28 4.58 0 9.17c0.54 2.15 0.56 4.31 0.01 6.46-1.69 1.2-1.38 3.03-1.39 4.71q-0.02 16.82 0 33.63c0 1.7-0.31 3.51 1.38 4.71q0.86 5.83 0.03 11.68c-2.54 2.21-0.93 5.22-1.41 7.84z"/>
			<path class="s2" d="m114.74 389.83c-5.54 4.24-2.27 8.43 0.21 12.45 1.51 2.46 4.85 3.64 5.02 7.09-8.12-3.51-10.5-10.35-10.51-18.46q-0.12-56.65-0.17-113.3-0.02-53.73 0.03-107.45c0-1.94 0.18-3.89 0.29-5.83 2.06-0.01 5.69 2.66 5.04-2.32-0.47-3.57 3.23-9.87-5.03-9.4q-0.01-9.14-0.01-18.26c4.43 1.2 2.45 4.85 2.46 7.37 0.03 3.94 0.91 6.6 5.28 6.94q0.08 1.48 0.15 2.97-0.11 9.62-0.22 19.23c-4.21 1.16-2.42 4.63-2.42 7.06-0.13 70.64-0.11 141.27-0.12 211.91z"/>
			<path class="s3" d="m120.5 409.65c10.61-0.08 21.22-0.21 31.83-0.22 66.48-0.03 132.96-0.06 199.44 0.12 3.5 0.01 7.05-1.93 10.54-0.03-2.93 2.39-6.46 2.11-9.89 2.11q-110.64 0.04-221.28 0.03c-3.67 0-7.39 0.22-10.64-2.01z"/>
			<path class="s0" d="m109.81 92.65c1.25-11.83 6.72-16.98 18.29-17.1 4.77-0.05 9.53 0.15 14.3 0.23-1.78 3.49-6.4 1.35-8.89 4.01 2.32 1.76 4.56 1.08 6.62 1.1 16.47 0.06 32.97 0.53 49.41-0.24 5.87-0.27 10.04 5 15.83 3.16q-0.01 1.76-0.02 3.53-0.06 11.77-0.12 23.54-0.81 9.8-0.04 19.6 0 1.93 0 3.86-0.03 3.22-0.07 6.44-0.26 0.71-0.52 1.4c-2.08-1.91-1.22-4.44-1.24-6.69-0.09-11.81-0.24-23.62 0.06-35.42 0.11-4.75-1.18-6.95-6.12-6.06q-0.34-1.33-0.69-2.66 0.01-3.26 0.02-6.52c0.16-0.9-0.12-1.39-1.13-1.17q-9.76-0.01-19.52-0.02-0.67-0.09-1.32-0.18c-3.9-2.08-7.8-2.09-11.7 0.02q-18.23 0.13-36.46 0.26-0.68 0-1.36-0.01c-0.9-0.25-1.2 0.35-1.43 1.03q-0.61-0.02-1.16 0.26c-0.86-0.16-1.25 0.16-1.07 1.06q-0.26 0.56-0.26 1.18c-1.91-0.05-2.87 0.76-2.52 2.77-1.21 1.13-0.91 2.53-0.69 3.92q-0.29 3.91-0.59 7.81c-3.21-0.26-2.59-2.73-2.69-4.76-0.11-1.87 0.31-4-2.48-4.3q-1.23-0.01-2.44-0.05z"/>
			<path class="s3" d="m112.24 92.74c2.79 0.31 2.38 2.44 2.48 4.3 0.1 2.02-0.53 4.5 2.69 4.76q-0.01 1.95-0.02 3.89c-0.64 0.1-1.63-0.3-1.54 0.87 0.01 0.19 0.99 0.3 1.52 0.45q-0.01 13.02-0.02 26.06c-1.98 0.26-3.34 0.77-1.11 2.74-0.1 2.47-0.76 5.15 2.4 6.39q0.27 0.36-0.09 0.64c1.05 2.79 3.49 1.97 5.5 2 7.28 0.07 14.58 0.06 21.86 0.07q0.01 1.86 0.02 3.72-14.31 0.02-28.62 0.04c-4.37-0.35-5.25-3-5.28-6.94-0.01-2.5 1.97-6.17-2.46-7.37q-0.78-5.19 0.05-10.39c1.38-0.25 2.44-0.9 2.44-2.45q0.04-9.92 0.01-19.85c0-1.55-1-2.23-2.41-2.46q0-1.98 0-3.95c1.69-0.03 2.49-0.92 2.58-2.52z"/>
			<path class="s1" d="m205.37 83.81c-5.79 1.84-9.96-3.43-15.83-3.16-16.44 0.77-32.94 0.3-49.41 0.24-2.07-0.02-4.3 0.66-6.62-1.1 2.5-2.66 7.11-0.51 8.89-4.01q33.07-0.11 66.14-0.19 0 2.66 0 5.32-2.43 0.03-2.58 2.45l-0.15 0.41z"/>
			<path class="s0" d="m371.45 307.73c-2.1-1.63-1.37-3.96-1.37-6.04q-0.06-49.4 0-98.8c0-2.07-0.73-4.41 1.43-6.01q-0.03 55.43-0.06 110.85z"/>
			<path class="s0" d="m109.61 152.62c8.26-0.46 4.56 5.83 5.03 9.4 0.65 4.98-2.97 2.31-5.05 2.32q0.02-5.86 0.02-11.72z"/>
			<path class="s1" d="m215 75.61c2.87 3.41 8.64-0.77 11.69 5.3-5.64 0-10.58 0-15.52 0q0-2.66 0-5.32 1.9 0 3.83 0.02z"/>
			<path class="s2" d="m109.7 99.2c1.41 0.22 2.39 0.91 2.41 2.46q0.02 9.92-0.02 19.85c-0.01 1.55-1.05 2.2-2.43 2.45q0-12.38 0.04-24.76z"/>
			<path class="s0" d="m371.46 368.99c-1.71-1.2-1.38-3.02-1.38-4.7q-0.02-16.82 0-33.64c0-1.69-0.31-3.5 1.39-4.7q-0.01 21.5-0.01 43.04z"/>
			<path class="s0" d="m370.04 388.54c0.5-2.62-1.13-5.63 1.45-7.86-0.04 4.85 1.56 9.84-1.18 14.47-2.77-2.1 0.71-4.45-0.27-6.61z"/>
			<path class="s2" d="m211.16 75.59q0 2.66 0 5.32-1.31 0-2.63 0 0-2.66 0-5.32 1.32 0 2.63 0z"/>
			<path class="s0" d="m371.45 319.45q-3.29-4.58 0-9.16 0 4.59 0 9.16z"/>
			<path class="s0" d="m371.53 185.23q-3.24-3.3 0-6.59 0 3.29 0 6.59z"/>
			<path class="s2" d="m112.24 92.74c-0.09 1.6-0.89 2.49-2.54 2.52q0.06-1.3 0.11-2.6 1.22 0.02 2.43 0.08z"/>
			<path class="s4" d="m272.36 83.55c6.95-0.52 13.89-0.6 20.84-0.08 0.31 3.57-0.21 7.04-1.29 10.43-9.16 0.54-9.53 0.94-9.75 10.03-0.06 2.75-0.25 5.5-0.36 8.25-8.03-0.86-16.3-1.12-20.49-9.97-0.77-1.63-2.24-1.97-3.44-0.08-2.04-1.27-2.47-4.45-5.46-4.56-7.03-4.96-14.3-5.61-21.87-1.28-5.13 2.33-7.72 6.65-9.22 11.81q-7.03-0.57-14.06-1.12-0.01-10.42-0.01-20.84c7.45 0 14.92 0.03 22.37-0.01 2.04-0.01 4.5 0.6 4.97-2.54q10.42-0.02 20.84-0.03c3.6 3.77 13.37 3.76 16.93-0.01z"/>
			<path class="s5" d="m363.25 93.98q0.06 8.48 0.13 16.95c-1.72 3.04-1.75 6.07 0.03 9.09q0.16 11.07 0.32 22.14c-1.85 1.67-4.1 0.93-6.2 0.99-6.67 0.19-13.36 0.25-20.05 0.37q-1.29-0.28-2.56-0.55c-1.03-4.08 3.66-6.78 2.59-10.86q2.59-0.05 5.19-0.11c0.47 0.64 0.91 0.58 1.33-0.05 2.1-0.08 3.53-1.97 3.62-3.22 0.74-9.61 2.89-19.19 1.45-28.9-0.51-3.39-2.85-5.15-6.14-5.71 6.21-1.43 8.55 0.13 8.82 6.24 0.21 4.53 0.04 9.08 0.08 13.62 0.01 1.03-0.17 2.32 1.16 2.73 1.26 0.38 1.97-0.62 2.5-1.55 2.86-4.95 6.95-9.39 5.53-15.95-0.41-1.84-0.95-4.53 2.2-5.23z"/>
			<path class="s4" d="m363.25 93.98c-3.15 0.7-2.62 3.39-2.22 5.24 1.42 6.55-2.67 10.99-5.52 15.95-0.54 0.92-1.24 1.93-2.5 1.55-1.32-0.4-1.15-1.69-1.16-2.72-0.04-4.54 0.13-9.09-0.08-13.63-0.28-6.12-2.61-7.67-8.83-6.23l-0.11-0.02c-3.56-4.37-7.14-4.25-10.74-0.04q-2.22 0.02-4.45 0.03-0.28-5.32-0.57-10.64c8.88-0.11 17.76-0.43 26.64-0.25 6.75 0.12 9.21 4.64 9.54 10.76z"/>
			<path class="s3" d="m337.5 143.52c6.68-0.12 13.36-0.18 20.04-0.37 2.09-0.05 4.35 0.68 6.21-0.99 3.2-0.59 2.38-3.14 2.42-5.16 0.08-4.77 0.01-9.55 0.05-14.32 0.01-1.47-0.22-3.47 1.86-3.52 2.12-0.05 1.93 1.95 1.95 3.43 0.02 9.11 0 18.23-0.02 27.33q-3.89 0.07-7.76 0.13c-1.61-2.14-3.94-1.33-5.99-1.36-10.75-0.07-21.51-0.01-32.28-0.09-1.73-0.01-3.76 0.67-6.45-2.5 5.68 0 10.01 0.09 14.35-0.04 2.11-0.06 4.99 1.07 5.62-2.54z"/>
			<path class="s5" d="m327.08 83.44q0.29 5.32 0.58 10.64c-11.93 0.62-23.84 0.42-35.75-0.18 1.08-3.4 1.6-6.87 1.29-10.43 11.3-0.57 22.59-0.55 33.88-0.03zm-13.78 3.04c0.58 2.8 2.41 3.43 3.78 4.21 1.91 1.1 4.17 1.07 6.22 0.15 1.01-0.46 0.63-1.46 0.33-2.27-0.99-2.65-3.26-2.47-5.43-2.4-1.48 0.04-2.96 0.18-4.9 0.31zm-16.43 4.71c1.62-0.41 2.65-1.37 2.64-3.12 0-1.26-0.95-2.05-2-2.15-2.6-0.29-1.38 2.03-1.9 3.16-0.51 1.13-0.27 2.06 1.26 2.11z"/>
			<path class="s2" d="m314.06 80.93q-13.91 0-27.85 0-0.02-1.05-0.05-2.1c9.01-3.59 18.61-1.06 27.9-1.8q0 1.95 0 3.9z"/>
			<path class="s6" d="m234.59 83.59c-0.47 3.14-2.93 2.53-4.97 2.54-7.45 0.04-14.92 0.01-22.37 0.01q-0.95 0.6-1.91 1.2 0.02-1.76 0.03-3.53l0.43-0.04 0.14-0.41q14.33 0.11 28.65 0.23z"/>
			<path class="s2" d="m320.56 77.03c4.91 0 9.83-0.02 14.75 0.02 1.25 0.02 2.83-0.05 3.02 1.62 0.26 2.23-1.56 2.19-3.03 2.22-4.92 0.05-9.85 0.02-14.76 0.04q0.02-1.95 0.02-3.9z"/>
			<path class="s6" d="m272.36 83.55c-3.57 3.78-13.35 3.78-16.93 0.01q8.46-0.02 16.93-0.01z"/>
			<path class="s3" d="m320.55 77.03q0 1.95 0 3.88-3.24 0-6.49 0 0-1.94 0-3.88 3.25 0 6.49 0z"/>
			<path class="s4" d="m363.41 120.02c-1.78-3.02-1.76-6.05-0.03-9.09q0.01 4.55 0.03 9.09z"/>
			<path class="s7" d="m363.88 316.82q0 1.97 0 3.94-0.01 9.76 0.01 19.52 0 24.12 0 48.23c-1.16 3 1.39 7.07-2.66 9.24q-2.09-0.07-4.18-0.11 1.03-2.72 2.02-5.44c0.56-1.56 0.79-3-1.42-3.44-7.16-1.43-13.6 3.98-13.64 11.49-2.33 1.47-4.95 1.33-7.56 1.33-9.1-0.03-18.21-0.05-27.32 0.03-1.99 0.01-4.54-0.99-5.48 2.03q-3.93 0-7.84 0-3.24-4.68-6.48 0-3.27 0-6.54 0c-3.25-4.35-7.88-0.99-11.71-2.09q-3.27-6.2-6.51 0-5.21 0-10.42 0c-2.19-4.17-6.47-4.29-9.9-3.69-9.59 1.67-19.17 1.01-28.77 1.11-1.94 0.03-4.04-0.22-4.32 2.58-6 0-11.99-0.05-17.99 0.06-1.97 0.03-4.47-0.97-5.45 1.96q-1.32 0-2.64 0-2.59-4.6-5.17 0-3.94 0-7.85 0c-1.3-2.85-2.59-2.81-3.87 0.02q-3.27 0-6.54 0c-2.61-3.22-5.2-3.17-7.78 0.01q-1.31 0.29-2.62 0.59-0.73-0.3-1.45-0.6c-0.17-1.46-1.17-1.92-2.45-2.02-0.42-2.86 1.34-4.42 2.96-6.56 3.95-5.24 11.34-8.09 11.53-16.04 0.04-1.59 1.71-2.6 2.71-1.97 6.48 4.08 8.58 0.04 10.73-5.09 0.64-1.52 2.83-2.62 4.52-3.44 8.17-3.95 16.98-6.71 23.8-13.13q1.18 0.34 2.36 0.68c0.28 1.76 0.7 3.24 2.64 1.13q2.59 0.6 5.18 1.2 3.82 1.03 7.63 2.06 1.42 0.3 2.85 0.6l-0.15 0.49c2.36 3.69 3.55 3.92 5.29 1.01q1.28 0.09 2.56 0.18c1.81 4.05 4.95 7.38 5.72 12.04 0.48 2.92 2.57 4.29 5.93 4.86 8.04 1.4 14.96 4.76 17.21 13.75 0.71 2.81 2.32 3.49 4.68 1.43 1.69-1.46 2.57-3.31 3.44-5.34 1.01-2.35 3.46-3.15 5.91-3.36 1.93-0.15 2.58 1.11 2.8 2.82 0.29 2.26 1.59 3.47 3.91 3.48 1.68 0 2.99-0.7 3.53-2.3 0.72-2.06-0.27-3.6-1.44-5.32-4.55-6.64-10.91-9.2-18.69-9.28-4.75-0.05-14.08-8.34-14.7-12.74q1.31-0.08 2.6-0.17c2.09 2.69 3.86 2.39 6.51-1.1 10.76-2.72 21.2-6.2 30.14-13.11l-0.04 0.03q5.26-2.38 9.1-6.71 0.63-0.55 1.26-1.08 0.81-0.72 1.62-1.45 0.52-0.48 1.04-0.97 0.81-0.8 1.62-1.62 0.5-0.51 1-1.02c6.19-5.32 10.3-12.27 14.84-18.89 11.03-2.28 20.47 0.78 28.52 9.02-1.12-4.81-4.86-9.77-3.7-12.88 3.43-9.2 1.22-17.91 0.42-26.83-0.17-1.83-1.72-3.76 0.82-5.08 2.15-1.12 2.9 1.15 4.35 1.8 4.46 2.06 6.54 8.68 13.02 6.82q0.27 3.24 0.54 6.51-0.01 1.96-0.02 3.93 0.01 2.59 0.02 5.18-0.01 1.97-0.02 3.94-0.03 3.87-0.02 7.77zm-26.67 56.14c-0.23 0.11-1.59 0.53-1.56 0.85 0.24 3.39 3.46 5.13 4.65 8.11 0.77 1.93 2.9 1.47 4.57 1.16 0.47-0.08 1.06-0.77 1.16-1.27 0.5-2.33-5.63-8.85-8.82-8.85z"/>
			<path class="s6" d="m203.57 355.3c-6.81 6.4-15.62 9.18-23.8 13.13-1.7 0.82-3.88 1.92-4.52 3.44-2.15 5.14-4.25 9.17-10.72 5.09-1.01-0.63-2.68 0.38-2.71 1.97-0.2 7.95-7.59 10.8-11.54 16.04-1.62 2.14-3.37 3.7-2.96 6.56q0.02 1 0.03 2.01-7.18 0.02-14.36 0.03c-0.41-6.48-6.56-1.44-8.98-4.52-2.34-2.95-0.33-8.78-6.19-9.23q0.04-5.87 0.08-11.75 1.04-0.65 2.09-1.31c4.94 2.73 9.61 4.45 12.14-2.96 0.22-0.65 1.33-1.03 2.03-1.5 9.08-6.07 19.34-10.53 24.24-21.75 1.34-3.07 5.41-5.66 8.16-8.51 2.87-2.99 2.22-7.53 5.76-9.66q2.98 2.07 5.96 4.14c3.14 3.51 6.6 6.64 10.75 8.94 4.16 4.31 10.09 5.98 14.54 9.84z"/>
			<path class="s0" d="m117.88 378.08q-0.04 5.87-0.08 11.75-0.19 1.96-0.4 3.91c-2.67-0.09-2.67-1.99-2.66-3.91 0-70.64-0.01-141.26 0.09-211.9 0-2.42-1.77-5.91 2.43-7.05q0.1 32.47 0.2 64.92 0.2 63.32 0.37 126.63 0.01 1.98 0.01 3.96 0.03 5.84 0.04 11.69z"/>
			<path class="s6" d="m211.14 401.54c0.29-2.8 2.38-2.56 4.33-2.58 9.59-0.11 19.17 0.56 28.77-1.11 3.42-0.6 7.71-0.48 9.9 3.69-3 0.87-6.86-2.02-9.11 2.09q-1.31 0-2.63 0c-3.9-3.41-7.8-3.35-11.71-0.03q-5.22-0.01-10.44-0.01-0.64-0.82-1.29-1.63-0.64 0.81-1.29 1.61-3.26 0.01-6.53-0.01 0-1 0-2.02z"/>
			<path class="s6" d="m344 400.24c0.04-7.5 6.48-12.93 13.63-11.49 2.22 0.44 1.98 1.89 1.42 3.44q-0.99 2.72-2.02 5.44c-0.9 1.93-3.05 3.35-2.41 5.91q-3.35 0.02-6.71 0.05c0.25-2.92-1.5-3.54-3.91-3.35z"/>
			<path class="s5" d="m344 400.24c2.41-0.17 4.14 0.43 3.91 3.35q-12.38 0.29-24.74 0.59-1.3-0.01-2.6 0.01-1.31 0-2.61 0-3.91-0.01-7.82-0.01-3.24-0.28-6.5-0.55c0.94-3.03 3.49-2.02 5.47-2.04 9.11-0.09 18.22-0.05 27.33-0.02 2.61 0 5.23 0.14 7.56-1.33z"/>
			<path class="s5" d="m245.02 403.63c2.25-4.12 6.11-1.22 9.11-2.09q5.2 0 10.41 0 3.26 0 6.52 0c3.83 1.1 8.45-2.28 11.7 2.09q-12.37 0.28-24.74 0.56-1.3 0-2.6 0-5.18-0.28-10.4-0.56z"/>
			<path class="s5" d="m117.4 393.74q0.19-1.95 0.4-3.91c5.87 0.46 3.86 6.29 6.19 9.23 2.44 3.08 8.59-1.95 8.98 4.53q-3.16 0.08-6.33 0.14-2.66-1.15-5.32-2.31l0.07 0.07q-0.68-0.69-1.38-1.38l0.06 0.06q-0.73-1.26-1.43-2.53-0.2-0.68-0.39-1.37-0.38-0.94-0.76-1.88l0.18-0.36c0.03 0-0.27-0.29-0.27-0.29z"/>
			<path class="s5" d="m211.14 401.54q0 1.01 0 2.05-11.71-0.02-23.42-0.03c0.98-2.93 3.48-1.93 5.45-1.97 5.98-0.11 11.98-0.05 17.97-0.05z"/>
			<path class="s5" d="m230.69 403.6c3.91-3.32 7.81-3.38 11.71 0.03q-5.85-0.02-11.71-0.03z"/>
			<path class="s5" d="m354.62 403.54c-0.64-2.56 1.51-3.98 2.41-5.91q2.09 0.06 4.19 0.1c-0.92 3.41-2.83 5.65-6.6 5.81z"/>
			<path class="s5" d="m153.84 403.57c2.59-3.18 5.19-3.23 7.78-0.01q-2.59 0.29-5.19 0.58-1.29-0.29-2.59-0.57z"/>
			<path class="s2" d="m310.14 404.18q3.91 0 7.82 0.01-3.93 6-7.82-0.01z"/>
			<path class="s5" d="m289.31 403.63q3.24-4.69 6.48 0-3.23 0-6.48 0z"/>
			<path class="s2" d="m121.33 401.42q2.66 1.16 5.32 2.31c-3.12 2.35-4.61 0.94-5.32-2.31z"/>
			<path class="s5" d="m179.91 403.55c1.72-3.07 3.45-3.09 5.17 0q-2.6 0-5.17 0z"/>
			<path class="s2" d="m153.84 403.57q1.3 0.28 2.59 0.57-0.19 2.71-2.92 2.54c-1.59-0.11-2.15-1.12-2.29-2.52q1.31-0.29 2.62-0.59z"/>
			<path class="s5" d="m168.18 403.56c1.27-2.83 2.56-2.85 3.87-0.01q-1.94 0-3.87 0.01z"/>
			<path class="s2" d="m118.65 397.64q0.73 1.27 1.43 2.53c-1.63-0.18-3.38-0.28-1.43-2.53z"/>
			<path class="s5" d="m217.67 403.59q0.65-0.81 1.29-1.62 0.65 0.82 1.29 1.63-1.29-0.02-2.58-0.01z"/>
			<path class="s2" d="m255.43 404.19q1.3 0 2.61 0c-0.19 0.95-0.19 2.23-1.58 1.92-0.46-0.1-0.69-1.26-1.03-1.92z"/>
			<path class="s2" d="m320.57 404.19q1.3 0 2.6-0.01c-0.18 0.95-0.18 2.22-1.57 1.93-0.47-0.1-0.71-1.26-1.03-1.92z"/>
			<path class="s5" d="m147.34 403.55q-0.02-1-0.03-2.01c1.29 0.1 2.28 0.56 2.45 2.02q-1.19-0.01-2.42-0.01z"/>
			<path class="s6" d="m363.34 289.46c-6.49 1.88-8.56-4.76-13.02-6.82-1.43-0.66-2.19-2.92-4.35-1.8-2.54 1.32-0.99 3.26-0.82 5.09 0.81 8.92 3.01 17.63-0.42 26.82-1.16 3.12 2.58 8.06 3.7 12.89-8.05-8.25-17.49-11.32-28.51-9.03 1.85-5.01 5.17-9.41 6.07-14.81q0.4-0.96 0.81-1.92c4.32-11.75 5.68-23.81 4.78-36.34-0.79-11.03-5.75-20.85-8-31.41 12.64 6.29 16.17 4.87 20.94-8.36 0.21-0.56 0.72-1.1 1.21-1.48 6.35-4.76 11.38-10.57 13.98-18.19 0.67-1.97 2.08-1.89 3.58-1.97q0.27 5.86 0.55 11.71-0.24 2.63-0.47 5.23-1.68 1.3 0 2.61 0 4.56 0 9.13-2.11 1.96 0.01 3.9 0.25 26.07 0.51 52.14-0.28 1.33-0.55 2.61z"/>
			<path class="s0" d="m337.5 143.52c-0.62 3.61-3.5 2.48-5.65 2.55-4.32 0.15-8.66 0.04-14.35 0.04 2.7 3.17 4.74 2.51 6.46 2.51 10.75 0.07 21.51 0.01 32.28 0.09 2.04 0.01 4.38-0.8 5.98 1.35q-0.02 0.62 0.03 1.24-3.91 0.08-7.82 0.16-3.26 0-6.51 0-3.25 0-6.51 0-1.3 0-2.6 0-4.56 0-9.12 0-4.55 0.01-9.11 0.01-7.82 0.02-15.63 0.03-22.14-0.02-44.29-0.04-27.35-0.87-54.7-0.05-18.24 0-36.48-0.02-9.12-0.03-18.23-0.07c-11.25-0.3-22.51-0.86-33.75 0.31q-0.08-1.49-0.15-2.97 14.31-0.02 28.62-0.04c37.58 0.02 75.18 0 112.77 0.11 3.81 0.02 6.49-0.47 5.83-5.16q3.91-0.32 7.81-0.64 5.2-0.01 10.39-0.01 3.28-0.01 6.56-0.02 1.93-0.01 3.87-0.02c4.8 0.49 9.58 0.51 14.37-0.04q11.71 0.05 23.41 0.09 1.97 0.01 3.95 0.01 1.27 0.31 2.57 0.58z"/>
			<path class="s0" d="m363.85 213.86q-0.27-5.86-0.55-11.71 0.01-1.31-0.01-2.63 0-1.29 0-2.59 0-2.61 0-5.23 0-0.64 0-1.29-0.01-5.87-0.01-11.75 0-3.25 0-6.49 0.01-2.62 0.02-5.23 0.02-3.26 0.04-6.52 0.02-2.6 0.03-5.21 0.26-0.64 0.53-1.29c2.74 0.6 2.26 2.79 2.26 4.67q0.02 25.32 0 50.64c-0.02 1.89 0.44 4.08-2.31 4.63z"/>
			<path class="s0" d="m363.88 340.28q0-9.76-0.02-19.52c3.3 3.9 3.31 15.59 0.02 19.52z"/>
			<path class="s6" d="m363.89 153.92q-0.27 0.65-0.54 1.3c-3.38-0.28-7.16 0.36-8.94-3.77q3.91-0.08 7.82-0.16 0.84 1.33 1.66 2.63z"/>
			<path class="s0" d="m363.34 289.46q0.28-1.29 0.55-2.59c3.61 3.03 3.65 6.06-0.01 9.09q-0.26-3.24-0.54-6.5z"/>
			<path class="s0" d="m363.88 316.82q0-3.89 0-7.78 5.45 3.89 0 7.78z"/>
			<path class="s0" d="m363.89 305.08q-0.01-2.58-0.01-5.17 5.36 2.58 0.01 5.17z"/>
			<path class="s8" d="m363.38 234.72q-2.12-1.94-0.01-3.9 0.01 1.96 0.01 3.9z"/>
			<path class="s8" d="m363.37 221.69q-1.68-1.3 0-2.6 0.01 1.3 0 2.6z"/>
			<path class="s5" d="m117.49 151.63c11.23-1.17 22.5-0.6 33.74-0.31-0.47 3.2-2.97 2.56-5.03 2.58-6.7 0.05-13.42 0.3-20.11-0.08-4.9-0.27-6.27 1.45-6.23 6.27 0.22 25.31 0.11 50.62 0.11 75.93q0 1.3 0 2.6-0.01 60.61 0.01 121.22c-0.04 1.42-0.59 2.42-2.15 2.58q-0.18-63.32-0.37-126.63-0.1-32.47-0.2-64.93 0.11-9.6 0.23-19.23z"/>
			<path class="s4" d="m125.14 83.77q0.68 0.01 1.36 0.01c0.5 2.78 2.68 2.34 4.57 2.35 4.55 0.04 9.1 0.03 13.63 0.03 1.92 5.99 5.46 10.05 12.16 10.77 5.53 0.58 11 1.67 16.51 2.19 2.95 0.28 5.4 0.94 5.11 4.34-0.84 9.78 8.02 14.42 11.42 21.93 0.68 1.5 2.37 2.51 4.3 2.47q1.21-0.01 2.44-0.02 0 2.63-0.01 5.23c-4.58 2.39-0.88 6.78-2.4 9.91-4.37-0.13-8.73-0.71-13.09 0.17q-14.95-0.37-29.91-0.75c-1.3-4.05-8.48-4.41-6.54-10.49q16.23-0.13 32.45-0.27c1.93-0.01 4.12 0.29 5.02-2 0.95-2.41-0.05-4.18-2.42-5.19-0.29-1.25-0.72-1.22-1.26-0.13q-21.99 0.11-43.98 0.23c-0.08-2.1-1.47-3.45-2.58-5.05-5.25-7.56-13.62-13.59-12.38-24.49 0.02-0.29-0.99-0.68-1.53-1.03-0.22-1.38-0.52-2.79 0.69-3.93 1.76-0.07 2.56-1.04 2.52-2.76q0-0.62 0.26-1.19 0.52-0.52 1.07-1.05 0.55-0.28 1.16-0.26 0.71-0.51 1.43-1.02z"/>
			<path class="s5" d="m207.26 106.98q7.03 0.57 14.06 1.12c-1 10.96 2.58 19.35 13.27 23.77 0.34 0.67 0.74 0.82 1.28 0.2q4.59 0.05 9.17 0.1c0.52 0.58 0.93 0.41 1.27-0.21 2.4-1.21 5.18-1.78 6.9-4.13q0.51-0.53 1.01-1.04l0.18-0.16q0.56-0.58 1.12-1.16l0.13-0.13c2.5-0.3 2.42-2.16 2.41-3.99 3.47-6.44 2.54-12.83-0.17-19.21 1.19-1.89 2.66-1.55 3.44 0.08 4.2 8.86 12.46 9.11 20.49 9.98q0.26 7.75 0.5 15.5c-6.64-0.29-12.81 1.53-18.54 4.6-5.64 3.05-5.57 4.22-0.52 8.57 1.38 1.75-1.21 1.16-1.22 2.09q-27.33 0.02-54.67 0.02 0.06-0.54-0.14-1.07-0.5-0.5-1-1.01-0.53-0.21-1.09-0.13 0.03-3.22 0.06-6.45c2.91-1.29 2.88-2.58 0-3.85q-0.77-9.8 0.04-19.6c2.32-0.42 1.94-2.27 2.02-3.89z"/>
			<path class="s1" d="m207.35 143q27.33-0.03 54.67-0.03 1.27 0.31 2.55 0.63c0.66 4.68-2.04 5.16-5.83 5.16-37.59-0.12-75.19-0.09-112.77-0.12q-0.01-1.86-0.02-3.71c9.84-0.03 19.7 0 29.54-0.13 1.96-0.03 4.42 1.04 5.68-1.65 4.35-0.88 8.72-0.3 13.08-0.17q0.6 0.15 1.2 0.3c1.37 1.92 3.2 1.15 3.34-0.37 0.55-6.02 2.53-12.22-1.24-17.95q0.18-8.95 0.35-17.9 1.56-0.72-0.01-1.42-0.41-4.07-0.82-8.14-0.06-1.5-0.11-3.03l-0.01-0.02 0.38-0.43c4.94-0.9 6.23 1.32 6.11 6.06-0.3 11.8-0.14 23.6-0.05 35.42 0.01 2.25-0.85 4.77 1.24 6.69 0.61 1.18 1.58 1.31 2.72 0.81z"/>
			<path class="s6" d="m196.94 94.47q0.06 1.51 0.1 3.03c-5.33 3.91-9.12 12.49-6.03 16.48 3.44 4.47 3.14 9.03 3.21 13.86-1.93 0.03-3.63-0.96-4.31-2.46-3.4-7.51-12.26-12.14-11.41-21.93 0.28-3.41-2.17-4.06-5.11-4.35-5.53-0.53-11-1.6-16.51-2.19-6.7-0.71-10.23-4.77-12.16-10.77 6.13-0.57 12.47 1.31 18.45-1.39 3.79-0.77 7.94 1.56 11.49-1.27q0.67 0.09 1.32 0.18c1.42 4.54 5.23 1.61 7.81 2.5 0.75 10.91 2.94 12.29 13.15 8.31z"/>
			<path class="s5" d="m118.01 93.98c0.54 0.35 1.57 0.74 1.53 1.03-1.24 10.89 7.13 16.92 12.38 24.49 1.12 1.6 2.51 2.95 2.58 5.04-2.32 0.51-4.2 1.53-3.85 4.3 0.38 3.01 2.81 2.71 4.97 2.76q4.54 0.13 9.08 0.3c-1.95 6.08 5.24 6.44 6.55 10.48q-16.34 0.22-32.68 0.45 0.37-0.27 0.09-0.64c-0.37-2.18 0.94-4.67-1.21-6.51q-0.04-1.31-0.08-2.62 0.02-13.02 0.03-26.07 0.01-0.66 0.01-1.31 0.01-1.95 0.03-3.89 0.27-3.9 0.57-7.81z"/>
			<path class="s7" d="m196.94 94.47c-10.21 3.98-12.4 2.6-13.15-8.33 3.92-0.31 8.01 0.86 11.73-1.31q0.55 0 1.11 0-0.01 3.26-0.02 6.52c-3.61 1.4-0.44 2.12 0.32 3.09z"/>
			<path class="s5" d="m163.16 84.76c-5.98 2.7-12.32 0.82-18.46 1.4-4.54 0-9.09 0.01-13.63-0.03-1.89-0.01-4.08 0.43-4.57-2.35q18.23-0.13 36.46-0.26-0.06 0.65 0.2 1.24z"/>
			<path class="s9" d="m207.26 106.98c-0.08 1.62 0.3 3.47-2.03 3.9q0.06-11.77 0.12-23.54 0.95-0.6 1.9-1.2-0.01 10.42 0.01 20.84z"/>
			<path class="s5" d="m195.52 84.84c-3.72 2.16-7.81 1-11.73 1.32-2.6-0.88-6.39 2.06-7.81-2.5q9.76 0.02 19.52 0.03 0.01 0.57 0.02 1.15z"/>
			<path class="s3" d="m163.16 84.76q-0.25-0.59-0.21-1.24c3.9-2.11 7.79-2.1 11.7-0.02-3.56 2.82-7.7 0.49-11.49 1.26z"/>
			<path class="s9" d="m205.19 130.48c2.89 1.28 2.92 2.57 0 3.86q0-1.92 0-3.86z"/>
			<path class="s5" d="m121.22 87.3c0.04 1.72-0.76 2.69-2.52 2.77-0.35-2.01 0.6-2.82 2.52-2.77z"/>
			<path class="s10" d="m207.35 143c-1.14 0.5-2.11 0.38-2.76-0.81q0.26-0.71 0.52-1.4 0.57-0.09 1.1 0.13 0.5 0.51 1 1.02 0.22 0.51 0.14 1.06z"/>
			<path class="s5" d="m196.93 94.46c-0.76-0.96-3.93-1.68-0.32-3.09q0.35 1.33 0.69 2.66z"/>
			<path class="s4" d="m195.52 84.84q0-0.58-0.02-1.15c1.01-0.22 1.28 0.25 1.13 1.16q-0.57-0.02-1.11-0.01z"/>
			<path class="s5" d="m122.53 85.05q-0.52 0.53-1.06 1.05c-0.19-0.9 0.2-1.21 1.06-1.05z"/>
			<path class="s5" d="m125.14 83.77q-0.72 0.5-1.43 1.03c0.23-0.68 0.53-1.28 1.43-1.03z"/>
			<path class="s0" d="m118.57 142.83q16.34-0.21 32.68-0.45 14.95 0.38 29.91 0.76c-1.27 2.69-3.72 1.62-5.69 1.64-9.84 0.13-19.69 0.09-29.53 0.13-7.28-0.01-14.58 0-21.87-0.08-2.02-0.03-4.44 0.79-5.5-2z"/>
			<path class="s10" d="m117.44 135.68c2.15 1.84 0.83 4.33 1.21 6.51-3.15-1.25-2.5-3.93-2.4-6.39l0.59-0.13z"/>
			<path class="s0" d="m117.44 135.68l-0.6-0.03-0.59 0.14c-2.23-1.97-0.87-2.48 1.11-2.74q0.04 1.32 0.08 2.63z"/>
			<path class="s0" d="m117.4 105.69q-0.01 0.66-0.01 1.32c-0.54-0.15-1.52-0.26-1.53-0.45-0.09-1.17 0.9-0.77 1.54-0.87z"/>
			<path class="s2" d="m282.29 127.69q-0.26-7.75-0.5-15.51c0.13-2.75 0.31-5.5 0.37-8.25 0.22-9.1 0.59-9.49 9.75-10.03 11.91 0.6 23.82 0.8 35.75 0.18q2.22-0.01 4.44-0.02 5.37 0.02 10.74 0.04l0.12 0.01c3.29 0.56 5.63 2.32 6.14 5.71 1.44 9.72-0.72 19.29-1.45 28.9-0.09 1.25-1.53 3.14-3.62 3.22q-0.67 0.03-1.33 0.05-2.6 0.05-5.19 0.11-2.62 0-5.24 0.01-0.64 0-1.28 0-14.33 0-28.66 0-2.61-0.01-5.22-0.01-3.25-0.02-6.51-0.03-1.3-0.04-2.62-0.08-1.83-0.53-3.66-1.05c-1.53-0.53-1.42-2.1-2.03-3.25zm6.97-20.71c-3.45 3.33-6.28 7.6-4.78 12.1 1.09 3.29 0.52 8.97 7.13 8.87 16.47-0.27 32.95-0.16 49.42-0.05 4.29 0.02 5.73-1.91 5.62-5.95-0.17-5.85-0.02-11.71-0.06-17.56-0.04-6.26-4.69-9.24-10.44-6.37-2.82 1.41-5.33 1.8-7.76-0.17-1.53-1.24-3.17-1.24-4.89-1.24-7.15-0.02-14.31-0.09-21.45 0.02-4.16 0.05-7.68 1.61-10.16 5.12-3.32 0.51-2.32 3.2-2.63 5.23z"/>
			<path class="s1" d="m257.87 102.13c2.71 6.38 3.63 12.78 0.17 19.21-1.62 0.83-1.57 2.68-2.42 3.99l-0.13 0.13c-0.8-0.04-1.21 0.32-1.12 1.16l-0.18 0.16c-0.77-0.07-1.29 0.1-1 1.04-1.72 2.34-4.5 2.93-6.91 4.13q-0.63 0.11-1.26 0.21-4.59-0.05-9.18-0.1-0.64-0.1-1.28-0.2c-10.7-4.42-14.27-12.82-13.26-23.77 1.49-5.17 4.09-9.48 9.21-11.82 1.03 1.91 2.44 0.93 3.85 0.57 3.16-0.83 4.28 0.74 4.1 3.7-8.08 3-11.4 11.24-7.42 18.65 1.99 3.69 5.11 5.83 9.39 6.03 3.74 0.19 7.3-1.05 8.98-4.23 5.26-9.93 2.42-17.99-7.04-20.54-0.16-3.15 1.25-4.51 4.33-3.55 1.89 0.6 3.7 1.13 5.68 0.63 3.02 0.15 3.45 3.33 5.49 4.6z"/>
			<path class="s0" d="m238.49 100.56c0.18-2.96-0.94-4.52-4.11-3.7-1.41 0.37-2.8 1.34-3.84-0.56 7.56-4.33 14.84-3.69 21.87 1.28-1.97 0.51-3.8-0.03-5.67-0.63-3.08-0.98-4.49 0.39-4.33 3.55q-1.97 0.02-3.92 0.06z"/>
			<path class="s7" d="m332.27 132.12q2.62-0.01 5.24-0.01c1.07 4.08-3.62 6.79-2.59 10.86q-1.98-0.01-3.95-0.01c-0.8-3.04-3.31-1.78-5.2-2.09 1.85-4.68 1-7.15-4.77-6.58-4.23 0.4-8.54 0.19-12.8 0.02-2.11-0.08-4.93 1.19-5.88-2.19q14.33 0 28.66 0 0.32 0.73 0.64 1.46 0.34-0.72 0.65-1.46z"/>
			<path class="s8" d="m342.7 132q0.66-0.02 1.33-0.05c-0.42 0.64-0.86 0.69-1.33 0.05z"/>
			<path class="s5" d="m342.84 94.11q-5.37-0.02-10.74-0.04c3.6-4.21 7.18-4.33 10.74 0.04z"/>
			<path class="s6" d="m313.3 86.48c1.94-0.13 3.42-0.27 4.91-0.31 2.17-0.07 4.44-0.25 5.43 2.4 0.3 0.81 0.68 1.81-0.32 2.27-2.06 0.92-4.33 0.95-6.23-0.15-1.38-0.79-3.21-1.41-3.79-4.21z"/>
			<path class="s6" d="m296.87 91.19c-1.52-0.05-1.77-0.98-1.25-2.11 0.51-1.13-0.7-3.45 1.91-3.16 1.04 0.12 1.99 0.89 1.99 2.15 0 1.76-1.03 2.71-2.65 3.12z"/>
			<path class="s2" d="m325.99 301.8c-0.9 5.4-4.22 9.8-6.07 14.81-4.54 6.63-8.66 13.58-14.85 18.9 0.29-3.37-1.8-4.88-4.57-5.82q3.66-5.07 7.3-10.14c6.35-7.62 10.1-16.63 12.64-25.99 7.37-27.23 1.64-52.03-14.78-74.64-2.92-4.74-6.84-8.55-11.13-12.01 1.29-2.48 3.45-4.66 2.55-7.85 5.53 4.72 10.78 9.71 15.5 15.25q0.35 0.54 0.7 1.07 0.95 1.23 1.89 2.47 4.19 7.14 8.38 14.27c2.27 10.57 7.22 20.39 8 31.42 0.9 12.52-0.45 24.58-4.78 36.34q-0.51 0-1.02 0c-0.49-1.59 1.16-4.12-1.83-4.56-0.5-0.07-1.53 0.97-1.68 1.64-0.71 3.08 1.61 2.8 3.5 2.92q0.15 0.97 0.25 1.92z"/>
			<path class="s6" d="m250.22 362.69c0.62 4.4 9.95 12.71 14.7 12.75 7.78 0.07 14.15 2.63 18.69 9.27 1.17 1.72 2.16 3.26 1.44 5.32-0.56 1.6-1.85 2.3-3.53 2.3-2.32-0.01-3.62-1.22-3.91-3.48-0.22-1.71-0.87-2.98-2.8-2.81-2.45 0.21-4.9 1-5.9 3.35-0.88 2.03-1.76 3.88-3.45 5.34-2.35 2.06-3.97 1.4-4.67-1.43-2.26-9-9.18-12.36-17.22-13.74-3.36-0.59-5.45-1.95-5.93-4.87-0.77-4.65-3.91-7.98-5.72-12.04q4.58-0.11 9.16-0.24 4.59 0.15 9.14 0.28z"/>
			<path class="s2" d="m250.22 362.69q-4.56-0.13-9.13-0.28c-0.18-1.1-0.66-2.48-1.73-2.32-5.03 0.67-10.27-2.34-15.13 0.88q-1.42-0.3-2.84-0.6c1.02-2.83-3.04-2.66-3.04-5.04 1.67-0.97 3.42-0.94 5.03-0.32 7.5 2.91 15.3 2.19 23.06 2.19 2.03 0 4.57 0.7 5.07-2.52q1.91-0.12 3.83-0.24c2.04 2.19 2.4 0.57 2.68-1.2q1.18-0.23 2.35-0.48c2.19 2.61 3.57 2.36 4.04-1.14q3.39-2.13 6.79-4.26c5.71-0.57 10.19-4.24 15.39-6.12-1.29 3.28-4.92 7.5 2.88 7.03-8.94 6.91-19.38 10.4-30.14 13.11q-3.26 0.55-6.51 1.11-1.29 0.13-2.6 0.2z"/>
			<path class="s2" d="m203.57 355.3c-4.45-3.86-10.38-5.54-14.56-9.82 1.74-1.88 5.8-1.07 5.73-5.01 6.47 3.72 12.69 7.97 20.16 9.63q0.06 0.34 0.15 0.68c0.46 2.67-0.76 5.04-1.27 7.55q-2.59-0.6-5.18-1.2-1.32-0.57-2.64-1.14-1.21-0.34-2.39-0.69z"/>
			<path class="s1" d="m289.48 348.31c-7.82 0.47-4.18-3.77-2.88-7.03q3.33-2.45 6.64-4.87c2.28 0.06 4.04-0.43 3.7-3.3q1.78-1.7 3.56-3.41c2.79 0.95 4.87 2.45 4.57 5.82q-0.5 0.51-1 1.02-0.81 0.8-1.62 1.61-0.52 0.49-1.04 0.98-0.81 0.73-1.62 1.45-0.63 0.55-1.26 1.08c-4.33 0.47-8.04 1.79-9.1 6.7z"/>
			<path class="s0" d="m213.76 358.31c0.51-2.5 1.74-4.89 1.28-7.55q1.73 0.16 3.47 0.32h0.13q1.47 1 2.94 2 2-0.12 3.98-0.22c8.52 2.54 17.31 1.29 25.96 1.83-0.5 3.22-3.04 2.53-5.07 2.53-7.74 0-15.56 0.71-23.05-2.19-1.61-0.63-3.36-0.67-5.04 0.31 0 2.37 4.04 2.22 3.04 5.05q-3.82-1.04-7.64-2.08z"/>
			<path class="s6" d="m337.21 372.96c3.19 0 9.32 6.52 8.84 8.85-0.11 0.5-0.71 1.19-1.16 1.27-1.68 0.3-3.81 0.77-4.58-1.16-1.18-2.98-4.4-4.72-4.65-8.11-0.04-0.32 1.32-0.74 1.55-0.85z"/>
			<path class="s0" d="m224.23 360.99c4.85-3.24 10.1-0.21 15.13-0.89 1.08-0.14 1.55 1.24 1.73 2.32q-4.58 0.11-9.16 0.25-1.28-0.09-2.55-0.18-2.65-0.51-5.29-1.02z"/>
			<path class="s2" d="m289.44 348.34c1.06-4.92 4.77-6.24 9.1-6.7q-3.83 4.32-9.1 6.7z"/>
			<path class="s6" d="m271.07 401.54q-3.26 0-6.52 0 3.25-6.2 6.52 0z"/>
			<path class="s6" d="m252.82 362.52q3.25-0.55 6.51-1.1c-2.64 3.49-4.42 3.79-6.51 1.1z"/>
			<path class="s6" d="m224.09 361.47q2.64 0.51 5.29 1.02c-1.75 2.89-2.94 2.67-5.29-1.02z"/>
			<path class="s6" d="m205.93 355.98q1.32 0.57 2.65 1.13c-1.95 2.12-2.35 0.63-2.65-1.13z"/>
			<path class="s7" d="m117.83 362.42c1.56-0.16 2.11-1.15 2.15-2.58 2.12-0.11 3.38-1.72 3.4-3.35 0.2-11.84 3.44-23.72 1.36-35.39-1.54-8.62-0.41-17.11-1.38-25.59-1.17-10.2 6.07-20.52-0.49-30.67-0.35-0.54 0.15-1.65 0.23-2.5 0.57-5.67-0.59-11.36 0.52-17.1 0.43-2.24-0.02-5.77-3.65-6.63q0-1.3 0-2.6c3.02-0.04 3.8-2.44 4.82-4.59 0.6-1.26 0.51-3.44 2.71-2.86 2.19 0.59 1.12 2.3 0.9 3.75-0.82 5.4 2.98 9.26 4.85 13.73 1.31 3.14 4.92 0.68 6.96 1.9 3.29 2.01 9.77 4.14 7.78 7.83-3.18 5.89-0.33 12.36-3.98 18.04-1.65 2.57-2.72 8.09 2.71 10.54 2.99 1.34 2.43 4.25 1.09 6.09-3.94 5.41-5.14 12.87-12.49 15.83-2.98 1.2-4.63 4.67-5.79 7.62-1.2 3.06-1.2 6.8 1.97 8.8 2.11 1.33 6.65 1.56 7.13-0.32 1.47-5.68 8.24-6.64 9.53-12.23 0.6-2.55 3.45-5.7 5.44-2.62 2.81 4.34 8.78 8.32 4.85 15.17-1.67 2.92 0.75 4.46 2.9 5.44 2.58 1.16 5.07-0.04 7.45-1.15 1.57 1.52 3.39 2.89 3.47 5.37-3.55 2.15-2.88 6.69-5.76 9.66-2.75 2.86-6.81 5.44-8.16 8.52-4.9 11.21-15.16 15.67-24.24 21.75-0.72 0.47-1.81 0.85-2.04 1.5-2.52 7.4-7.19 5.7-12.13 2.96-0.9-3.43 1.98-7.63-2.12-10.41q0.03-1.92 0.01-3.91z"/>
			<path class="s2" d="m172.31 332.39c-0.08-2.49-1.91-3.85-3.47-5.37-6.63-9.55-12.59-19.42-14.94-31.04 3.65 1.07 4.93-1.82 6.64-4q0.38 0.17 0.79 0.19c0.12 2.26 0.62 4.43 1.75 6.41 2.87 9.36 7.29 17.85 14.06 25.02q2.95 3.69 5.91 7.38c-3.16 0.51-2.55 4.27-4.79 5.57q-2.98-2.09-5.95-4.16z"/>
			<path class="s1" d="m178.26 336.54c2.23-1.31 1.63-5.05 4.78-5.57q5.85 4.75 11.7 9.49c0.09 3.94-3.99 3.14-5.73 5.01-4.14-2.28-7.61-5.41-10.75-8.93z"/>
			<path class="s5" d="m117.86 366.37c4.1 2.78 1.22 6.98 2.12 10.41q-1.05 0.65-2.1 1.3-0.01-5.84-0.02-11.71z"/>
			<path class="s4" d="m323.58 232.14q-4.19-7.14-8.38-14.28c2.33-3.1-0.46-2.27-1.89-2.46q-0.35-0.54-0.71-1.07c-0.86-10.76 3.21-16.68 13.27-20.37 2.63-0.97 5.66-2.28 6.54-5.75 0.58-2.26 2.18-4.29 4.46-4.08 7.69 0.69 10.15-5.46 12.54-10.28 3.17-6.43 6.66-9.83 13.91-6.89q-0.02 2.62-0.03 5.23-5.28 3.25 0 6.5 0.01 5.87 0.01 11.75-0.76 0.32-1.52 0.64 0.76 0.31 1.52 0.63 0 2.62 0 5.23c-1.11 0.23-2.96-0.44-2.96 1.31 0 1.73 1.85 1.08 2.96 1.29q0 1.31 0.02 2.62c-1.52 0.08-2.92 0-3.59 1.97-2.59 7.61-7.62 13.42-13.97 18.19-0.49 0.38-1 0.9-1.21 1.47-4.8 13.22-8.33 14.65-20.97 8.35z"/>
			<path class="s1" d="m325.99 301.8q-0.12-0.95-0.24-1.89l0.02-0.02q0.51 0 1.01 0-0.37 0.95-0.79 1.91z"/>
			<path class="s6" d="m363.3 166.95c-7.26-2.95-10.74 0.46-13.9 6.89-2.38 4.82-4.85 10.96-12.54 10.27-2.3-0.21-3.88 1.84-4.46 4.08-0.87 3.47-3.91 4.79-6.54 5.75-10.06 3.69-14.13 9.61-13.27 20.37-4.72-5.54-9.98-10.53-15.49-15.25q-6.32-6.15-14.34-9.78c-3.05-2.57-6.79-3.86-10.41-5.12-27.59-9.53-54.04-7.96-78.77 8.69-17.77 10.87-29.82 26.44-37.42 45.66-1.64 0.98-0.9 2.63-1.12 4.01q-0.5 1.32-0.99 2.65-0.37 1.3-0.73 2.6-0.35 1.31-0.69 2.62c-3.25 11.62-3.63 23.35-1.24 35.17-0.18 1.4-0.13 2.75 0.83 3.9q0.26 1.32 0.51 2.61 0.59 1.95 1.16 3.93c2.35 11.6 8.32 21.47 14.94 31.03-2.39 1.11-4.88 2.32-7.46 1.15-2.15-0.98-4.56-2.52-2.89-5.44 3.92-6.85-2.05-10.82-4.85-15.17-1.99-3.09-4.85 0.06-5.45 2.63-1.29 5.58-8.07 6.54-9.52 12.23-0.49 1.88-5.02 1.65-7.13 0.31-3.17-2.01-3.17-5.75-1.97-8.8 1.15-2.96 2.8-6.43 5.78-7.62 7.36-2.94 8.54-10.42 12.49-15.83 1.34-1.84 1.9-4.74-1.08-6.09-5.42-2.45-4.35-7.96-2.71-10.53 3.65-5.69 0.79-12.16 3.97-18.05 2-3.69-4.48-5.82-7.78-7.82-2.03-1.24-5.64 1.23-6.96-1.91-1.86-4.47-5.68-8.33-4.85-13.73 0.23-1.45 1.29-3.16-0.89-3.74-2.22-0.59-2.13 1.59-2.72 2.85-1.01 2.17-1.79 4.55-4.82 4.59 0-25.31 0.11-50.62-0.1-75.93-0.04-4.81 1.31-6.54 6.23-6.27 6.68 0.38 13.4 0.13 20.11 0.08 2.06-0.02 4.56 0.62 5.03-2.58q9.12 0.03 18.23 0.07c-2.78 10.25 3.38 19.11 13.75 20.93 4.97 0.88 12.16 1.92 13.95 5.26 2.94 5.49 5.61 5.64 10.1 3.88 3.53-1.39 9.52 0.33 9.99-4.91 0.39-4.37-4.77-5.96-8.17-8.06-2.16-1.34-5.16-2.43-3.56-5.8 1.81-3.8 1.11-7.5 0.42-11.28q27.35-0.82 54.7 0.05c1.2 8.7 1.77 17.03-9.85 19.22-1.41 0.26-3 1.25-2.62 3.16 0.35 1.78 1.96 2.02 3.51 2.28 5.09 0.87 10.16 1.81 15.23 2.74 7.91 1.42 9.05 0.48 9.39-7.35 0.09-1.98-1.05-4.85 1.88-5.54 3.74-0.87 7.68-1.67 11.47-1.43 7.68 0.48 14.56-5.05 15.27-13.04q7.83-0.01 15.63-0.03c0.22 5.56 4.74 4.97 7.98 4.84 4.08-0.16 0.63-3.21 1.13-4.85q4.56 0 9.12 0c-0.41 3.42 0.67 5.18 4.54 5.24 6.83 0.13 13.88-0.4 19.99 3.73q-0.04 3.2-0.04 6.48z"/>
			<path class="s4" d="m205.93 151.41c0.68 3.78 1.38 7.48-0.42 11.28-1.6 3.36 1.39 4.46 3.56 5.8 3.4 2.1 8.56 3.69 8.17 8.06-0.47 5.24-6.46 3.52-9.99 4.92-4.47 1.75-7.15 1.6-10.1-3.89-1.79-3.33-8.97-4.38-13.95-5.26-10.37-1.81-16.51-10.68-13.75-20.93q18.24 0.01 36.48 0.02z"/>
			<path class="s4" d="m304.94 151.5c-0.73 7.99-7.6 13.52-15.27 13.04-3.8-0.24-7.73 0.57-11.47 1.43-2.93 0.68-1.79 3.55-1.88 5.54-0.34 7.83-1.48 8.77-9.39 7.35-5.07-0.92-10.14-1.86-15.23-2.74-1.54-0.26-3.17-0.5-3.52-2.28-0.37-1.92 1.22-2.9 2.62-3.16 11.62-2.19 11.06-10.52 9.86-19.22q22.13 0.02 44.28 0.04z"/>
			<path class="s4" d="m302.33 132.12c0.96 3.39 3.77 2.11 5.88 2.19 4.26 0.17 8.56 0.38 12.8-0.02 5.77-0.57 6.62 1.9 4.77 6.58-2.76 0-5.59-0.34-8.29 0.1-3.31 0.54-7.28-2.11-9.92 1.9-4.78 0.54-9.57 0.53-14.37 0.03-1.31-2.86-2.59-2.82-3.87 0.03q-3.28 0.01-6.56 0.01c-2.81-3.97-6.96-1.19-10.4-2.04-1.72-5.22-3.73-5.22-9.12-0.02-5.06-4.36-5.14-5.53 0.52-8.56 5.72-3.08 11.9-4.89 18.53-4.61 0.6 1.14 0.49 2.73 2.05 3.26 0.12 1.49-1.14 3.68 1.26 4.07 1.7 0.28 2.21-1.5 2.4-3.01q1.31 0.04 2.62 0.08c2.15 3.45 4.33 3.42 6.5 0.02q2.59-0.01 5.2-0.01z"/>
			<path class="s5" d="m363.33 160.43c-6.13-4.13-13.16-3.61-19.99-3.73-3.88-0.08-4.96-1.82-4.54-5.24q1.3 0 2.59 0 3.26 5.92 6.52 0 3.25 0 6.5 0c1.76 4.15 5.54 3.49 8.94 3.77q0 2.6-0.02 5.2z"/>
			<path class="s5" d="m307.56 142.87c2.63-4.01 6.61-1.36 9.92-1.9 2.7-0.44 5.52-0.09 8.29-0.1 1.89 0.31 4.4-0.95 5.2 2.09q-11.72-0.05-23.41-0.09z"/>
			<path class="s7" d="m263.25 140.87c5.39-5.2 7.4-5.2 9.12 0.01q0 1.03 0.01 2.06-3.9 0.32-7.81 0.64-1.28-0.31-2.55-0.62c0.02-0.93 2.61-0.34 1.23-2.09z"/>
			<path class="s5" d="m329.68 151.45c-0.51 1.64 2.94 4.7-1.14 4.85-3.23 0.12-7.75 0.71-7.97-4.84q4.55 0 9.11-0.01z"/>
			<path class="s5" d="m272.37 142.94q0.01-1.03-0.01-2.06c3.43 0.85 7.57-1.91 10.4 2.05q-5.18 0.02-10.39 0.01z"/>
			<path class="s6" d="m347.92 151.45q-3.26 5.9-6.51 0 3.25 0 6.51 0z"/>
			<path class="s5" d="m289.31 142.93c1.28-2.85 2.56-2.89 3.88-0.03q-1.94 0.01-3.88 0.03z"/>
			<path class="s6" d="m363.28 178.67q-5.28-3.24 0-6.49 0 3.25 0 6.49z"/>
			<path class="s6" d="m363.29 199.53c-1.11-0.23-2.96 0.44-2.96-1.3 0-1.73 1.85-1.08 2.96-1.3q0 1.31 0 2.6z"/>
			<path class="s6" d="m363.29 191.7q-0.76-0.32-1.53-0.64 0.77-0.32 1.53-0.64 0 0.65 0 1.28z"/>
			<path class="s6" d="m119.98 238.63c3.64 0.86 4.09 4.4 3.65 6.64-1.11 5.74 0.04 11.42-0.52 17.1-0.09 0.84-0.59 1.94-0.22 2.5 6.57 10.13-0.68 20.46 0.48 30.67 0.96 8.47-0.16 16.96 1.38 25.58 2.08 11.67-1.16 23.57-1.36 35.39-0.02 1.63-1.26 3.25-3.4 3.36q-0.01-60.63-0.01-121.24z"/>
			<path class="s3" d="m144.7 131.9c-3.02-0.11-6.06-0.24-9.08-0.3-2.16-0.05-4.58 0.25-4.97-2.76-0.35-2.77 1.53-3.79 3.85-4.3q21.99-0.11 43.98-0.22 0.63 0.07 1.26 0.13c2.37 0.99 3.37 2.77 2.42 5.19-0.9 2.27-3.09 1.97-5.02 2q-16.21 0.13-32.44 0.26zm-3.4-4.27c-2.54-0.96-5.08-1.78-8.46 0.33 3.44 1.68 5.96 1.49 8.46-0.33z"/>
			<path class="s5" d="m194.2 127.86c-0.06-4.84 0.25-9.39-3.2-13.86-3.08-4.01 0.7-12.58 6.03-16.49q0.41 4.07 0.82 8.14 0 0.71 0.01 1.42-0.17 8.95-0.35 17.9-0.44 1.46-0.88 2.89-1.2-0.02-2.43 0z"/>
			<path class="s0" d="m196.64 127.84q0.44-1.45 0.89-2.88c3.76 5.74 1.78 11.93 1.23 17.94-0.14 1.53-1.96 2.3-3.33 0.38 2.49-3.15 1.12-6.76 1.2-10.19q0-2.63 0.01-5.25z"/>
			<path class="s5" d="m196.63 133.07c-0.08 3.45 1.27 7.05-1.2 10.2q-0.6-0.15-1.2-0.3c1.52-3.12-2.17-7.51 2.4-9.9z"/>
			<path class="s5" d="m179.74 124.45q-0.63-0.06-1.26-0.13c0.54-1.08 0.97-1.12 1.26 0.13z"/>
			<path class="s4" d="m255.64 125.33c0.85-1.31 0.78-3.16 2.41-3.99 0 1.82 0.09 3.69-2.41 3.99z"/>
			<path class="s4" d="m234.59 131.87q0.64 0.1 1.28 0.2c-0.52 0.62-0.94 0.47-1.28-0.2z"/>
			<path class="s4" d="m253.21 127.83c-0.28-0.94 0.23-1.12 1.01-1.04q-0.51 0.51-1.01 1.04z"/>
			<path class="s4" d="m254.39 126.63c-0.09-0.83 0.3-1.2 1.12-1.16q-0.56 0.57-1.12 1.16z"/>
			<path class="s4" d="m245.04 132.17q0.64-0.1 1.27-0.2c-0.33 0.62-0.75 0.79-1.27 0.2z"/>
			<path class="s0" d="m197.88 107.06q0-0.71-0.02-1.42 1.57 0.7 0.02 1.42z"/>
			<path class="s11" d="m289.26 106.98c0.31-2.02-0.68-4.72 2.63-5.24 6.51 0.01 13.01 0 19.51 0.04 7.59 0.04 15.22-0.3 22.76 0.27 7.12 0.55 9.42 5.32 8.43 16.31-0.52 5.82-5.21 5.53-9.33 5.56-10.19 0.09-20.38 0.06-30.57 0.02-14.77-0.05-13.39 1.61-13.39-13.06 0.02-1.29-0.02-2.6-0.04-3.9zm27.55-2.46c-7.31 0-13.69-0.29-20.01 0.14-2.57 0.17-4.73 2.42-4.76 5.31-0.01 3.14-1.43 6.83 1.03 9.32 1.59 1.6 5.52 1.71 6.63 0.17 4.34-5.99 12.12-7.84 17.11-14.94z"/>
			<path class="s12" d="m289.26 106.98c0.02 1.3 0.06 2.61 0.06 3.9 0 14.67-1.37 13.01 13.38 13.06 10.19 0.04 20.38 0.07 30.57-0.02 4.11-0.04 8.8 0.26 9.34-5.56 0.99-10.99-1.33-15.76-8.44-16.31-7.54-0.57-15.17-0.23-22.75-0.27q-9.76-0.03-19.51-0.04c2.48-3.51 5.99-5.07 10.15-5.13 7.16-0.09 14.31-0.02 21.45-0.01 1.72 0 3.35 0 4.89 1.24 2.44 1.97 4.94 1.59 7.77 0.17 5.75-2.87 10.41 0.1 10.44 6.36 0.02 5.86-0.12 11.71 0.05 17.57 0.12 4.05-1.33 5.97-5.62 5.94-16.47-0.1-32.94-0.22-49.42 0.06-6.61 0.1-6.05-5.59-7.13-8.87-1.51-4.49 1.32-8.77 4.77-12.09z"/>
			<path class="s7" d="m297.11 132.11c-2.18 3.39-4.36 3.43-6.5-0.03q3.26 0.02 6.5 0.03z"/>
			<path class="s7" d="m288 132c-0.2 1.52-0.7 3.29-2.4 3.02-2.4-0.4-1.15-2.59-1.26-4.07q1.83 0.55 3.66 1.05z"/>
			<path class="s5" d="m332.27 132.12q-0.32 0.73-0.64 1.46-0.32-0.73-0.64-1.46 0.64 0 1.28 0z"/>
			<path class="s10" d="m238.49 100.56q1.95-0.04 3.92-0.07c9.46 2.55 12.3 10.61 7.04 20.53-1.7 3.19-5.24 4.42-8.98 4.24-4.28-0.21-7.41-2.34-9.39-6.04-3.98-7.41-0.67-15.66 7.41-18.66z"/>
			<path class="s10" d="m305.67 218.92c16.42 22.59 22.16 47.41 14.78 74.64-2.54 9.36-6.28 18.37-12.64 25.99-4.63 1.87-8.02 0.8-10.23-3.93-0.81-1.73-2.6-2.74-4.68-2.82 0.44-2.86 2.76-4.55 4.21-6.79 4.21-6.49 3.91-7.97-2.5-12.84-4.64-11.26-9.6-22.49-4.15-34.94q0.63-1.98 1.25-3.96 0.32-0.91 0.63-1.82c1.18-2.25 1.99-4.82 3.62-6.7 3.56-4.11 4.02-8.04 0.56-12.32 0.15-0.85 0.55-1.76 0.38-2.56-1.84-8.56 0.29-11.5 8.77-11.95z"/>
			<path class="s8" d="m305.67 218.91c-8.48 0.46-10.61 3.4-8.77 11.95 0.17 0.78-0.23 1.7-0.38 2.56-4.77-4.96-8.43-10.97-14.23-14.95l-0.25-0.18q-1.44-1.1-2.88-2.18l0.04 0.08c-0.59-1.34-1.86-0.91-2.89-1.13-3.69-3.37-8.56-4.37-12.89-6.46-20.95-9.56-40.47-6.06-59.01 6.42l0.06-0.07c-2.2 0.8-3.88 2.26-5.3 4.07q-0.59 0.5-1.18 1-2.19 2.07-4.38 4.14-0.42 0.49-0.84 0.96-0.76 0.86-1.51 1.71-0.51 0.63-1.01 1.25-3.63 3.28-5.38 7.84l0.08-0.07c-1.54 1.4-2.34 3.21-2.82 5.18l0.12-0.05c-4.12 5.06-3.86 12-7.4 17.29-0.32-0.29-0.94-0.63-0.9-0.85 1.07-5.51-2.66-6.56-6.69-6.91-4.99-0.43-3.67 4.27-5.15 6.74-1.39 2.36 1.5 6.48-3.08 7.46q0.39-5.14 0.78-10.27c0.73-3.78 0.79-7.85 2.29-11.31 8.95-20.67 22.18-37.7 42.51-48.42q3.91-1.39 7.82-2.79c0.07 1.58-0.56 2.78-1.49 4.1-1.89 2.67-1.87 5.94-0.14 8.51 1.83 2.72 4.44 0.34 6.46-0.31 11.88-3.85 24.09-3.99 36.32-3.09 3.63 0.27 7.41 2.29 10.24-1.12 2.66-3.21 0.68-6.76-0.47-10.08q6.47 2.16 12.93 4.31c6.43 3.73 13.02 7.23 18.27 12.68 4.28 3.45 8.2 7.26 11.12 11.99z"/>
			<path class="s8" d="m292.9 312.78c2.07 0.08 3.86 1.08 4.68 2.81 2.21 4.75 5.6 5.81 10.23 3.93q-3.66 5.07-7.3 10.14-1.78 1.71-3.56 3.41-1.85 1.65-3.7 3.3-3.33 2.45-6.63 4.87c-5.19 1.88-9.67 5.55-15.39 6.12-1.33-7.72-3.87-9.86-11.8-10.18-0.48-0.03-0.91-1.22-1.37-1.86 10.92-3.53 20.54-9.28 28.99-17.05q0.54-0.54 1.09-1.08 1.21-0.86 2.41-1.71 0.65-0.73 1.29-1.45 0.08-0.54 0.09-1.07 0.48-0.09 0.97-0.18z"/>
			<path class="s1" d="m294.54 206.91c-5.24-5.44-11.83-8.95-18.27-12.68-0.07-4.58 4.57-2.97 6.49-4.95q8.03 3.63 14.34 9.78c0.89 3.19-1.27 5.37-2.56 7.85z"/>
			<path class="s1" d="m325.77 299.91c-1.89-0.13-4.21 0.14-3.51-2.92 0.16-0.68 1.19-1.73 1.68-1.65 3 0.43 1.35 2.96 1.84 4.57 0-0.03-0.01 0-0.01 0z"/>
			<path class="s6" d="m313.3 215.4c1.44 0.19 4.22-0.64 1.88 2.46q-0.93-1.24-1.88-2.46z"/>
			<path class="s10" d="m258.06 335.35c0.46 0.64 0.89 1.84 1.37 1.85 7.91 0.33 10.47 2.48 11.8 10.19q-3.4 2.13-6.8 4.26-2.01 0.57-4.04 1.13-1.17 0.24-2.34 0.49c-1.12-0.12-2.23-0.17-2.68 1.2q-1.92 0.11-3.84 0.23c-8.65-0.53-17.44 0.72-25.96-1.83 0.24-0.79 2.52-1.19 0.97-2.15-2.56-1.56-5.48-2.4-8.02 0.37q-1.73-0.16-3.47-0.31-0.07-0.33-0.15-0.68c-0.18-0.82-0.09-2.06-0.6-2.37-2.49-1.6-6.13-2.68-3.4-6.62 2.08-3.01 4.48-5.28 9.12-3.82 10.4 3.29 21.22 1.76 31.89 1.71 1.99-0.01 3.38-0.6 3.46-2.86q1.34-0.4 2.69-0.79z"/>
			<path class="s0" d="m260.38 352.78q2.02-0.56 4.04-1.13c-0.47 3.49-1.85 3.74-4.04 1.13z"/>
			<path class="s0" d="m255.35 354.47c0.47-1.37 1.57-1.32 2.69-1.2-0.28 1.76-0.64 3.37-2.69 1.2z"/>
			<path class="s8" d="m255.36 336.13c-0.09 2.25-1.46 2.85-3.45 2.86-10.67 0.05-21.49 1.58-31.89-1.71-4.64-1.46-7.04 0.81-9.12 3.82-2.74 3.94 0.9 5.02 3.4 6.61 0.49 0.33 0.41 1.57 0.6 2.37-7.47-1.64-13.69-5.9-20.16-9.62q-5.85-4.74-11.7-9.49-2.95-3.69-5.9-7.38c0.87-1.44 1.81-1.29 3.16-0.46 3.77 2.37 7.85 0.51 8.64-3.95 0.28-1.67 0.1-3.42 0.13-5.12q1.94 1.31 3.88 2.63 0.7 0.7 1.39 1.39 1.8 1.64 3.6 3.28c8.2 6.41 16.57 12.18 27.24 14.2 10.13 1.94 20.1 1.9 30.18 0.57z"/>
			<path class="s2" d="m293.24 336.39q1.85-1.65 3.7-3.3c0.34 2.87-1.42 3.38-3.7 3.3z"/>
			<path class="s8" d="m218.51 351.08c2.54-2.77 5.46-1.93 8.01-0.37 1.55 0.95-0.73 1.36-0.96 2.15q-2 0.12-3.98 0.22c-0.22-1.78-1.17-2.51-2.94-2z"/>
			<path class="s10" d="m218.63 351.09c1.78-0.5 2.72 0.22 2.94 2.01q-1.46-1.02-2.94-2.01z"/>
			<path class="s10" d="m189.05 314.07c-0.02 1.71 0.16 3.45-0.13 5.12-0.78 4.46-4.86 6.31-8.64 3.95-1.34-0.83-2.28-0.97-3.15 0.46-6.78-7.17-11.2-15.66-14.06-25.02 2.64-2.57 2.15-4.36-1.75-6.41q-0.42-0.02-0.8-0.19-0.05-1.92-0.13-3.85c1.32-4.54 3.65-9.19-1.46-13.01q-1.08-5.22 0.08-10.42c4.6-0.98 1.7-5.1 3.09-7.46 1.47-2.48 0.16-7.16 5.15-6.74 4.03 0.35 7.75 1.39 6.69 6.91-0.04 0.21 0.58 0.56 0.89 0.85q-0.03 2.56-0.07 5.13c-3.81 3.37-3.87 9.43-0.15 13.05 1.41 2.58-0.01 5.32 0.73 8.17 2.78 10.73 8.15 20.11 13.71 29.46z"/>
			<path class="s1" d="m160.41 288.13q0.05 1.93 0.13 3.85c-1.71 2.18-2.97 5.06-6.64 4q-0.59-1.95-1.16-3.92c0.63-0.42 1.78-0.82 1.78-1.24 0-1.4-1.31-1.23-2.28-1.38-0.97-1.17-1.02-2.51-0.84-3.9 4.51-0.41 0.64-5.95 4-7.11 2.3 2.05-0.86 6.66 3.87 7.12q0.56 1.3 1.14 2.58z"/>
			<path class="s8" d="m161.32 292.17c3.91 2.05 4.39 3.84 1.75 6.41-1.13-1.98-1.62-4.14-1.75-6.41z"/>
			<path class="s1" d="m204.62 194.7c-20.35 10.72-33.56 27.76-42.52 48.42-1.5 3.45-1.56 7.52-2.29 11.3-4.5 2.01-2.99 6.12-3.42 9.59-0.33 2.66 1.23 5.66-1.26 7.93-0.29 0.26-1.53 0.1-1.71-0.23-1.61-2.82-1.07-5.89-0.47-8.81 0.88-4.24 1.88-8.4-0.34-12.52q0.35-1.31 0.7-2.62c0.98-0.16 2.34 0.13 2.5-1.28 0.1-0.99-0.94-1.18-1.78-1.33q0.5-1.32 1-2.64c1.59-1 3.91-1.79 1.12-4.01 7.59-19.22 19.65-34.79 37.41-45.66 2.45 0.47 4.58-0.45 6.69-1.52 3.74-1.86 4.47 0.22 4.37 3.38z"/>
			<path class="s2" d="m204.62 194.7c0.1-3.16-0.64-5.24-4.37-3.36-2.11 1.07-4.24 1.98-6.69 1.51 24.74-16.65 51.18-18.22 78.77-8.69 3.63 1.26 7.37 2.55 10.42 5.12-1.92 1.98-6.56 0.37-6.49 4.95q-6.47-2.16-12.93-4.31c-1.18-0.96-2.56-1.02-3.98-0.94-1.17-0.88-2.5-1.11-3.92-0.93q-3.11-0.45-6.22-0.9c-5.86-0.96-11.71-1-17.58 0.04q-1.13 0.21-2.27 0.43-1.95 0.23-3.91 0.46c-4.58 0.46-8.95 1.7-13.05 3.82q-3.87 1.41-7.78 2.8z"/>
			<path class="s2" d="m152.63 250.38c2.2 4.12 1.2 8.28 0.34 12.52-0.6 2.92-1.15 5.98 0.47 8.81 0.18 0.32 1.4 0.49 1.7 0.23 2.49-2.26 0.93-5.27 1.27-7.93 0.44-3.47-1.09-7.58 3.41-9.59q-0.39 5.14-0.78 10.28c-0.76 3.47-0.81 6.94-0.08 10.42q0.16 5.22 0.31 10.44c-4.73-0.45-1.57-5.07-3.87-7.12-3.36 1.16 0.51 6.71-4 7.11-2.4-11.83-2.02-23.55 1.23-35.17z"/>
			<path class="s2" d="m156.16 238.51c2.79 2.22 0.47 3.02-1.12 4.01 0.21-1.38-0.54-3.03 1.12-4.01z"/>
			<path class="s2" d="m154.03 245.16c0.84 0.15 1.88 0.34 1.78 1.34-0.15 1.4-1.52 1.13-2.5 1.27q0.37-1.31 0.72-2.61z"/>
			<path class="s2" d="m152.22 289.45c0.97 0.16 2.28-0.01 2.28 1.38 0 0.42-1.14 0.82-1.77 1.24q-0.25-1.31-0.51-2.62z"/>
			<path class="s1" d="m141.3 127.64c-2.5 1.81-5.02 2.02-8.46 0.32 3.38-2.12 5.92-1.29 8.46-0.32z"/>
			<path class="s13" d="m316.81 104.52c-4.99 7.1-12.77 8.95-17.11 14.94-1.11 1.53-5.04 1.42-6.63-0.17-2.46-2.48-1.04-6.17-1.03-9.32 0.01-2.9 2.19-5.14 4.76-5.31 6.32-0.43 12.69-0.14 20.01-0.14z"/>
			<path class="s12" d="m288.13 317.21q-0.55 0.54-1.1 1.08c-1.21-0.3-3.21-1.18-3.49-0.8-2.12 2.92-5.63 3.69-8.38 5.51-7.11 4.73-14.9 7.58-23.64 4.4 1.17-1.75 3.06-1.13 4.69-1.48 7.61-1.64 14.86-4.07 20.1-10.34l0.02-0.01c6.12-2.22 9.18-7.51 12.49-12.52 0.87-1.33 0.52-2.88-0.22-4.33-9.57-18.4-9.92-37.16-1.11-55.77 2.5-5.27 0.56-7.39-3.31-9.66-5.66-9.42-14.55-14.11-24.72-16.92-1.16-1.42-2.78-2.06-4.49-2.4-17.59-3.52-33.91-0.23-48.5 10.11-7.38 5.23-14.26 11.28-16.4 20.84-3.71 5.08-5.92 10.81-6.18 17.04-0.36 8.74-0.41 17.51 1.2 26.19-2.76-0.33-2.46-2.42-2.63-4.37-0.86-9.51 2.16-19.34-2.45-28.56-0.39-0.77-0.07-2.35 0.51-3.08 2.75-3.45 1.94-7.35 1.72-11.21 0 0-0.12 0.05-0.11 0.05 4.12 0 2.65-3.04 2.82-5.18l-0.08 0.07c4.9-0.48 5.1-4.19 5.38-7.84q0.5-0.63 1.01-1.25 0.75-0.86 1.51-1.71 0.42-0.49 0.85-0.96c3.25 0.53 4.89-0.66 4.37-4.14q0.59-0.5 1.18-1c2.96 0.21 5.42-0.25 5.3-4.07l-0.06 0.06c11.63-0.07 21.72-7.74 33.69-6.79 2.02 0.16 4.5-3.4 7-1.79 5.87 3.81 12.21 1.63 18.32 2.17 4.33 2.09 9.2 3.09 12.89 6.45 0.6 1.31 1.68 1.4 2.89 1.14l-0.04-0.08c-0.17 2.22 0.59 3.21 2.88 2.18l0.25 0.18c-1.43 3.14 1.68 3.99 2.97 5.67 5.11 6.61 11.77 12.65 6.74 22.38-0.54 1.02-0.09 2.54-0.11 3.83-1.28 0.19-2.5 0.51-2.39 2.19 0.09 1.35 1.16 1.54 2.2 1.71q-0.63 1.98-1.25 3.97c-4.62-0.3-5.18 3.75-4.67 6.14 1.52 7.14 0.6 14.26 0.85 21.38 0.2 5.44 2.29 9.11 7.86 10.28 0.7 4.65-0.61 8.89-2.63 13-6.12 0.55-5.07 4.33-3.73 8.24z"/>
			<path class="s2" d="m291.91 250.34c0.01-1.29-0.43-2.81 0.1-3.83 5.03-9.72-1.63-15.77-6.74-22.38-1.3-1.68-4.4-2.53-2.97-5.67 5.8 3.98 9.46 9.99 14.24 14.94 3.44 4.28 2.98 8.22-0.57 12.33-1.61 1.87-2.43 4.44-3.62 6.7q-0.23-1.05-0.44-2.09z"/>
			<path class="s0" d="m294.5 296.02c-5.56-1.17-7.66-4.85-7.86-10.27-0.24-7.12 0.67-14.24-0.84-21.39-0.51-2.39 0.05-6.44 4.66-6.14-5.43 12.45-0.49 23.68 4.15 34.93q-0.05 1.43-0.11 2.87z"/>
			<path class="s2" d="m294.5 296.02q0.05-1.43 0.11-2.87c6.41 4.88 6.71 6.34 2.5 12.85-1.45 2.24-3.77 3.92-4.21 6.79q-0.49 0.08-0.98 0.21-0.03-1.98-0.05-3.96c2.02-4.13 3.34-8.36 2.63-13.02z"/>
			<path class="s0" d="m291.91 250.34q0.21 1.04 0.43 2.09-0.31 0.9-0.63 1.81c-1.04-0.17-2.11-0.36-2.2-1.71-0.12-1.68 1.09-2.01 2.4-2.19z"/>
			<path class="s10" d="m259.38 188.99c1.42-0.09 2.8-0.01 3.97 0.94 1.15 3.32 3.13 6.87 0.47 10.08-2.82 3.4-6.61 1.38-10.24 1.12-12.23-0.91-24.44-0.77-36.32 3.09-2.02 0.65-4.63 3.02-6.45 0.31-1.72-2.55-1.76-5.84 0.13-8.51 0.93-1.33 1.56-2.53 1.5-4.1 4.1-2.1 8.47-3.35 13.05-3.82 0.23 1.06 0.47 2.11 1.84 2.11 1.71 0 1.92-1.26 2.07-2.56q1.14-0.22 2.27-0.44c5.87 3.08 11.73 3.16 17.58-0.03q3.11 0.45 6.22 0.9c0.69 2.85 2.03 3.01 3.91 0.91z"/>
			<path class="s2" d="m182.24 240.95c0.23 3.85 1.03 7.75-1.72 11.22-0.59 0.73-0.9 2.31-0.51 3.08 4.61 9.21 1.59 19.05 2.45 28.55 0.18 1.97-0.12 4.05 2.63 4.37q0.05 1.24 0.11 2.48c-0.62 4.69 0.28 8.68 3.54 12.53 2.2 2.59 4.84 5.65 4.18 9.75q0 1.89 0 3.77-1.94-1.31-3.88-2.63c-5.56-9.35-10.93-18.73-13.7-29.47-0.74-2.86 0.68-5.6-0.73-8.18q0.07-6.52 0.15-13.04 0.04-2.56 0.07-5.14c3.56-5.29 3.3-12.23 7.41-17.29z"/>
			<path class="s2" d="m263.42 208.59c-6.11-0.54-12.46 1.64-18.33-2.17-2.49-1.61-4.97 1.95-6.99 1.79-11.97-0.95-22.06 6.72-33.69 6.79 18.54-12.48 38.06-15.97 59.01-6.41z"/>
			<path class="s2" d="m190.25 228.06c-0.28 3.65-0.48 7.35-5.38 7.83q1.75-4.56 5.38-7.83z"/>
			<path class="s2" d="m204.47 214.93c0.11 3.8-2.34 4.26-5.3 4.06 1.4-1.81 3.1-3.27 5.3-4.06z"/>
			<path class="s2" d="m197.98 220c0.52 3.47-1.12 4.65-4.38 4.13q2.19-2.08 4.38-4.13z"/>
			<path class="s2" d="m184.95 235.83c-0.17 2.14 1.3 5.19-2.82 5.17 0.49-1.98 1.27-3.78 2.82-5.17z"/>
			<path class="s2" d="m282.04 218.28c-2.28 1.03-3.05 0.04-2.88-2.18q1.45 1.09 2.88 2.18z"/>
			<path class="s2" d="m279.2 216.18c-1.21 0.26-2.29 0.17-2.89-1.14 1.03 0.21 2.31-0.21 2.89 1.14z"/>
			<path class="s2" d="m192.77 225.1q-0.76 0.85-1.51 1.71 0.74-0.86 1.51-1.71z"/>
			<path class="s1" d="m251.52 327.41c8.73 3.18 16.51 0.34 23.64-4.4 2.75-1.82 6.26-2.59 8.38-5.51 0.27-0.38 2.29 0.51 3.49 0.81-8.43 7.77-18.05 13.52-28.98 17.05q-1.34 0.39-2.69 0.78c-10.08 1.35-20.05 1.37-30.19-0.56-10.68-2.02-19.04-7.78-27.24-14.2q0.09-1.61 0.18-3.22c2.88 0.65 4.41 3.19 6.62 4.75 6.69 4.71 13.75 7.54 22.01 4.45q5.88 0.62 11.75 1.25 1.95 2.46 3.91 0.01 4.57-0.63 9.12-1.21z"/>
			<path class="s1" d="m291.87 309.02q0.02 1.98 0.05 3.97-0.02 0.54-0.09 1.07-0.65 0.72-1.29 1.44-1.21 0.86-2.41 1.71c-1.34-3.91-2.39-7.69 3.74-8.19z"/>
			<path class="s1" d="m192.94 316.72q0-1.89 0-3.77c3.45 0.44 2.32 3.17 2.58 5.2q-0.59 0.02-1.19-0.04-0.7-0.71-1.39-1.39z"/>
			<path class="s2" d="m194.33 318.1q0.6 0.04 1.19 0.04 1.29 0 2.59 0.01-0.09 1.61-0.18 3.22-1.8-1.63-3.6-3.27z"/>
			<path class="s8" d="m159.26 285.56q-0.16-5.22-0.31-10.44c5.09 3.82 2.77 8.47 1.46 13.01q-0.58-1.28-1.15-2.57z"/>
			<path class="s8" d="m174.77 263.38q-0.07 6.52-0.14 13.04c-3.73-3.61-3.67-9.66 0.14-13.04z"/>
			<path class="s8" d="m249.24 187.16c-5.85 3.2-11.7 3.12-17.58 0.04 5.86-1.05 11.71-1.01 17.58-0.04z"/>
			<path class="s8" d="m229.4 187.63c-0.14 1.29-0.36 2.57-2.07 2.57-1.37 0-1.62-1.05-1.84-2.11q1.96-0.23 3.91-0.46z"/>
			<path class="s8" d="m259.38 188.99c-1.88 2.1-3.22 1.94-3.92-0.93 1.42-0.18 2.74 0.06 3.92 0.93z"/>
			<path class="s13" d="m259.44 216.4c10.18 2.8 19.07 7.5 24.73 16.91-0.59 3.29 0.13 6.48-1.7 9.94-4.1 7.77-3.66 16.95-6.11 25.31-0.26 0.91-0.03 2.44 0.59 3.05 2.53 2.5 1.78 5.59 1.93 8.55 0.13 2.79-0.42 5.86 0.53 8.34 3.06 8.06 4.14 15.68-2.06 22.79-1.09 1.25-1.09 2.77-1.02 4.29l-0.02 0.01c-5.5-0.94-8.77 4.06-13.5 5.13-11.96 2.71-24.12 3.36-36.26 2.45-4.46-0.34-9.36-1.25-12.8-5.01 6.93-0.01 13.65-1.64 20.44-2.7 5.81-0.91 11.67-1.21 17.42 0.72 8.24 2.76 14.13 1.4 19.25-5.25 1.9-2.47 2.93-5.1 1.21-9.28-3.05-7.39-8.89-11.2-14.48-15.84-3.78-3.14-10.38-6.35-9.46-11.02 1.4-7.03 6.05-13.4 9.4-20.02 0.18-0.36 1.22-0.24 1.82-0.46 8.1-3.08 14.35-8.27 18.39-16.02 0.76-1.45 1.24-2.87-0.17-4.12-7.13-6.36-13.29-14.68-24.73-12.48 0.28-4.16 2.71-5.64 6.6-5.29z"/>
			<path class="s11" d="m213.74 318.16c3.44 3.77 8.34 4.68 12.8 5.01 12.14 0.91 24.3 0.25 36.25-2.45 4.75-1.07 8.01-6.07 13.51-5.13-5.24 6.29-12.49 8.7-20.1 10.34-1.62 0.36-3.51-0.28-4.69 1.48q-4.56 0.6-9.11 1.2-1.96-2.46-3.91-0.01-5.87-0.63-11.75-1.26c-0.3-0.3-0.56-0.79-0.91-0.86-12.34-2.33-21.85-8.87-29.82-18.57-4.42-5.37-6.7-11.85-10.81-17.26q-0.06-1.24-0.11-2.48c-1.62-8.67-1.58-17.43-1.2-26.18 0.26-6.24 2.47-11.96 6.18-17.03l0.26 0.23c-0.16 1.89 0.07 3.9-0.52 5.66-2.5 7.55-2.59 7.52 5.03 6.13-0.63 1.8-1.42 3.55-1.84 5.4-1.25 5.41 1.15 9.05 6.4 9.95 0.31 3.61-0.13 6.41-4.14 8.32-4.96 2.36-5.89 7.34-4.68 12.24 1.67 6.77 8 10.71 11.1 16.71 0.41 0.76 2.76 0.52 4.21 0.74 0.9 4.33 4.43 6.02 7.85 7.82z"/>
			<path class="s11" d="m259.44 216.4c-3.89-0.35-6.32 1.15-6.62 5.29-2.26 0.51-2.3 3.86-4.96 3.88-2.96-5.08-7.74-4.01-12.19-3.37-14.07 2-24.66 9.87-33.66 20.34-0.32-0.5-0.97-1.09-0.88-1.52 0.41-2.01 1.87-4.46-0.87-5.52-2.92-1.12-3.48 2.14-5.09 3.57-2.01 1.8-1.36 5.61-4.84 6.12l-0.26-0.23c2.14-9.56 9.01-15.61 16.4-20.84 14.59-10.36 30.9-13.64 48.5-10.11 1.7 0.33 3.31 0.97 4.47 2.39z"/>
			<path class="s11" d="m276.33 315.58c-0.07-1.52-0.07-3.05 1.02-4.29 6.22-7.11 5.14-14.73 2.06-22.79-0.95-2.49-0.4-5.55-0.53-8.34-0.15-2.94 0.61-6.03-1.93-8.55-0.63-0.61-0.86-2.14-0.59-3.05 2.45-8.37 2.01-17.54 6.11-25.31 1.83-3.46 1.11-6.65 1.7-9.94 3.87 2.27 5.81 4.4 3.31 9.66-8.83 18.61-8.46 37.38 1.1 55.78 0.76 1.44 1.11 3 0.23 4.33-3.3 4.99-6.36 10.27-12.48 12.5z"/>
			<path class="s12" d="m185.2 290.65c4.11 5.42 6.41 11.89 10.81 17.26 7.97 9.71 17.48 16.23 29.82 18.57 0.35 0.07 0.62 0.56 0.91 0.86-8.26 3.11-15.32 0.28-22.01-4.44-2.21-1.57-3.74-4.11-6.62-4.75q-1.3-0.01-2.59-0.01c-0.26-2.04 0.87-4.76-2.58-5.21 0.65-4.1-2-7.16-4.19-9.75-3.25-3.85-4.17-7.85-3.55-12.53z"/>
			<path class="s12" d="m238.5 328.6q1.96-2.46 3.91 0.01-1.97 2.45-3.91-0.01z"/>
			<path class="s14" d="m247.86 225.57c2.64-0.02 2.69-3.37 4.96-3.88 11.45-2.2 17.61 6.12 24.74 12.48 1.41 1.25 0.93 2.68 0.17 4.12-4.04 7.75-10.3 12.94-18.39 16.02-0.6 0.22-1.63 0.1-1.83 0.47-3.35 6.61-8 12.98-9.39 20.01-0.93 4.67 5.67 7.88 9.46 11.02 5.59 4.64 11.43 8.44 14.48 15.84 1.72 4.18 0.69 6.81-1.21 9.28-5.12 6.65-11.02 8.01-19.25 5.25-5.75-1.93-11.61-1.63-17.43-0.72-6.79 1.07-13.5 2.7-20.43 2.7-3.42-1.8-6.95-3.48-7.82-7.82 0.73-6.08 1.38-12.02 9.33-13.21 3.67-0.55 2.71-3.64 1.39-5.48-4.77-6.67-8.82-13.69-11.86-21.3-0.28-0.73-1.12-1.24-1.7-1.84q0.16-1.9 0.32-3.8c2.37-0.19 2.01-2.12 2.65-3.67 1.97-4.74 3.28-9.73 10.96-8.42 4.27 0.73 8.96 2.5 13.79 0.42 7.89-3.38 11.48-10.56 16-16.92 1.32-1.87 1.32-4.11-0.98-5.65 1.52-1.3 2.02-3 2.04-4.9z"/>
			<path class="s15" d="m247.86 225.57c-0.02 1.9-0.52 3.59-2.02 4.89-4.47 0.58-9.05 0.77-13.4 1.81-15.17 3.64-28.56 18.78-29.04 32.43q-0.16 1.9-0.32 3.79c-1.06 1.43-1.83 3.13-3.65 3.82-5.26-0.89-7.65-4.52-6.4-9.94 0.43-1.84 1.21-3.6 1.84-5.4q3.57-7.22 7.16-14.44c9-10.47 19.59-18.35 33.67-20.34 4.43-0.63 9.2-1.7 12.16 3.38z"/>
			<path class="s13" d="m199.43 272.31c1.82-0.69 2.59-2.39 3.65-3.82 0.58 0.62 1.42 1.13 1.7 1.84 3.04 7.62 7.11 14.65 11.86 21.31 1.32 1.84 2.29 4.93-1.39 5.48-7.95 1.18-8.6 7.14-9.33 13.21-1.46-0.23-3.82 0.02-4.21-0.75-3.1-6.01-9.44-9.93-11.11-16.7-1.21-4.89-0.26-9.87 4.68-12.25 4-1.91 4.46-4.7 4.15-8.32z"/>
			<path class="s13" d="m202.02 242.53q-3.58 7.22-7.17 14.44c-7.62 1.39-7.53 1.42-5.03-6.13 0.59-1.75 0.37-3.77 0.52-5.66 3.48-0.51 2.83-4.32 4.84-6.12 1.6-1.43 2.18-4.69 5.09-3.57 2.74 1.05 1.28 3.51 0.88 5.51-0.09 0.45 0.56 1.02 0.87 1.53z"/>
			<path class="s13" d="m203.4 264.7c0.48-13.65 13.87-28.79 29.04-32.43 4.37-1.04 8.93-1.23 13.4-1.81 2.29 1.54 2.29 3.78 0.97 5.64-4.52 6.37-8.1 13.55-16 16.93-4.82 2.06-9.53 0.31-13.79-0.42-7.67-1.32-8.99 3.68-10.96 8.41-0.65 1.55-0.28 3.48-2.66 3.68z"/>
		</g>
	</g>
</svg>