<svg xmlns="http://www.w3.org/2000/svg" width="862" height="354" fill="none" viewBox="0 0 862 354"><path fill="#164e8c" stroke="#141738" stroke-linejoin="round" stroke-width="15" d="m324.87 231.133 50.185 55.736a54 54 0 0 0 80.26-72.266l-50.185-55.736Z"/><path fill="#ecae3c" stroke="#141738" stroke-linejoin="round" stroke-width="15" d="m324.87 231.133-50.185-55.736a54 54 0 0 1 80.26-72.266l50.185 55.736Z"/><path stroke="#141738" stroke-linecap="round" stroke-width="14" d="m324.87 231.133 80.26-72.266"/><path stroke="#fff" stroke-linecap="round" stroke-width="10" d="m324.864 204.226-30.11-33.442a36 36 0 0 1 14.48-60.135m42.396 123.303 30.11 33.441a36 36 0 0 0 39.396 4.897" opacity=".85"/><path fill="#d39226" stroke="#141738" stroke-linejoin="round" stroke-width="15" d="M480 235v35a105 48 0 0 0 210 0v-35Z"/><ellipse cx="585" cy="235" fill="#ecae3c" stroke="#141738" stroke-width="15" rx="105" ry="48"/><path stroke="#141738" stroke-linecap="round" stroke-width="14" d="m518 262 134-54"/></svg>