<svg xmlns="http://www.w3.org/2000/svg" viewBox="0 0 100 100" width="100%" height="100%">
  <!-- Hanger Hook and Collar -->
  <path d="M 50,15 C 47,11 53,8 55,12 C 55,15 50,16 50,18" fill="none" stroke="#ECAE3C" stroke-width="3" stroke-linecap="round" />
  
  <!-- Dress Shirt V-Neck & Collar -->
  <polygon points="44,21 56,21 50,42" fill="#FFFFFF" stroke="#121838" stroke-width="2" />
  
  <!-- Golden Necktie -->
  <polygon points="48,22 52,22 51,26 49,26" fill="#ECAE3C" stroke="#121838" stroke-width="1.8" />
  <polygon points="49,26 51,26 53,52 50,56 47,52" fill="#ECAE3C" stroke="#121838" stroke-width="2" />
  
  <!-- Suit Blazer Jacket Body -->
  <path d="M 36,22 L 18,32 L 23,76 C 23,80 77,80 77,76 L 82,32 L 64,22 Z" fill="#164E8C" stroke="#121838" stroke-width="4" stroke-linejoin="round" />
  
  <!-- Left Lapel -->
  <path d="M 36,22 L 44,36 L 36,40 L 49,58 L 49,80 L 23,76 L 36,22 Z" fill="#1E3A8A" stroke="#121838" stroke-width="3" stroke-linejoin="round" />
  
  <!-- Right Lapel -->
  <path d="M 64,22 L 56,36 L 64,40 L 51,58 L 51,80 L 77,76 L 64,22 Z" fill="#1E3A8A" stroke="#121838" stroke-width="3" stroke-linejoin="round" />
  
  <!-- Pocket Square (Left Chest) -->
  <line x1="28" y1="46" x2="35" y2="44" stroke="#121838" stroke-width="2.5" />
  <polygon points="29,45 32,40 35,43" fill="#FFFFFF" />
  
  <!-- Gold Buttons -->
  <circle cx="50" cy="64" r="2.2" fill="#ECAE3C" />
  <circle cx="50" cy="72" r="2.2" fill="#ECAE3C" />
</svg>