<svg width="457" height="451" viewBox="0 0 457 451" fill="none" xmlns="http://www.w3.org/2000/svg">
<g clip-path="url(#clip0_6_1650)">
<path d="M0.142444 225.5C0.142444 152.046 0.199391 78.5921 7.6605e-05 5.13813C-0.0141602 0.841699 0.95394 0 5.82291 0C154.27 0.150752 302.716 0.150752 451.163 0C456.032 0 457 0.841699 456.986 5.13813C456.829 152.046 456.829 298.954 456.986 445.849C456.986 450.146 456.032 451 451.163 450.987C302.716 450.837 154.27 450.837 5.82291 450.987C0.95394 450.987 -0.0141602 450.146 -0.0141602 445.849C0.199391 372.408 0.142444 298.954 0.142444 225.5ZM330.421 382.169C331.047 381.503 331.688 380.85 332.315 380.184C342.38 372.282 349.812 361.88 360.29 354.695C376.42 343.639 376.548 330.348 371.451 315.285C371.366 314.444 371.281 313.602 371.195 312.76C370.256 305.172 369.501 297.547 367.337 290.122C365.871 280.424 364.518 270.701 362.924 261.015C359.649 241.015 356.261 221.015 352.929 201.028C352.83 200.186 352.73 199.345 352.63 198.515C352.289 196.832 351.933 195.161 351.591 193.478C351.548 193.063 351.506 192.636 351.463 192.221C351.306 191.003 351.15 189.784 351.007 188.566C351.677 184.973 349.085 181.97 348.601 178.465C347.662 171.619 346.395 164.722 345.327 157.9C344.373 151.883 340.956 145.714 344.117 139.358C347.818 131.921 350.637 124.056 355.207 117.084C360.845 108.491 357.969 102.373 350.409 96.6698C350.167 95.7904 350.424 94.6974 349.157 94.2201C347.605 91.0794 345.128 89.2327 341.013 89.2578C327.987 89.3206 314.96 89.3206 301.933 89.2955C299.1 89.2955 297.136 90.3382 295.256 92.1975C286.458 100.954 281.575 110.074 290.729 120.991C291.284 121.657 291.654 122.448 292.11 123.177C293.904 126.971 295.698 130.752 297.491 134.546C299.755 139.986 299.356 145.501 298.403 151.116C294.231 175.714 290.103 200.324 286.116 224.947C280.293 260.914 274.599 296.906 268.861 332.886C267.124 334.531 267.11 336.19 268.79 337.873C269.089 338.652 269.374 339.431 269.673 340.222C266.441 342.546 266.598 346.014 268.833 347.898C274.656 352.798 280.037 358.689 289.106 359.205C289.519 359.255 289.932 359.343 290.33 359.443C290.729 359.82 291.128 360.197 291.54 360.574C299.072 368.174 306.518 375.838 314.177 383.337C315.771 384.895 317.024 387.357 320.256 386.918C322.235 388.124 323.687 387.747 324.612 385.787C325.196 385.347 325.78 384.895 326.364 384.456L326.905 384.531L327.403 384.33C329.325 384.518 329.852 383.162 330.606 382.069L330.421 382.169ZM173.375 185.94C173.56 185.262 173.746 184.596 173.931 183.918C174.742 182.083 175.539 180.249 176.351 178.415C176.564 177.887 176.778 177.347 177.006 176.82C177.817 175.262 178.629 173.704 179.44 172.159C179.967 171.342 180.494 170.526 181.035 169.709C192.894 168.001 198.133 160.325 202.134 151.506C202.475 150.752 203.073 150.099 203.543 149.395C208.198 148.378 212.882 149.471 217.552 149.333C223.489 149.157 227.988 147.059 230.778 142.348C234.337 140.426 233.711 137.411 233.426 134.483C233.398 132.398 233.369 130.3 233.341 128.215C233.383 123.428 233.526 118.629 233.426 113.843C233.255 105.225 227.432 99.4713 217.709 99.421C175.411 99.2451 133.1 99.2828 90.7879 99.4084C84.1678 99.4336 78.9856 102.021 76.9498 108.114C73.6326 116.016 75.5688 124.207 75.4834 132.247C75.3695 143.441 81.5625 148.403 94.3756 148.629C98.5327 148.704 102.832 147.523 106.804 149.571C109.068 153.88 111.403 158.177 113.567 162.523C114.763 164.935 116.329 167.209 119.461 167.285C126.181 167.448 129.313 171.217 131.733 175.94C136.346 184.433 137.399 193.415 136.716 202.711C135.733 215.965 134.922 229.219 134.039 242.472C133.213 251.844 132.231 261.191 131.605 270.575C129.711 298.891 124.657 327.107 127.989 355.599C128.715 361.868 130.366 367.823 133.698 373.426C138.253 381.089 145.4 385.41 155.138 385.498C164.406 385.574 170.386 380.574 174.557 373.752C175.781 371.742 176.878 369.606 177.561 367.421C183.213 349.167 181.946 330.612 180.494 312.057C180.48 311.793 179.81 311.567 179.454 311.316C179.511 310.951 179.426 310.612 179.198 310.298C181.049 301.479 178.486 292.723 178.073 283.979C177.048 261.743 174.258 239.57 172.179 217.372C172.051 214.47 171.923 211.568 171.795 208.666C171.767 203.591 171.738 198.515 171.695 193.44C172.293 190.915 172.834 188.428 173.375 185.94Z" fill="#FDFDFE"/>
<path d="M76.9783 108.102C79.0142 102.009 84.1964 99.4209 90.8165 99.3958C133.128 99.2702 175.426 99.2325 217.737 99.4084C227.461 99.446 233.284 105.212 233.455 113.83C233.54 118.617 233.398 123.416 233.369 128.202C228.187 130.011 230.266 136.431 225.14 138.265C225.069 130.526 225.055 122.8 224.898 115.061C224.827 111.418 224.457 107.8 219.26 106.833C218.776 104.421 222.535 104.81 222.891 101.82C212.982 101.82 203.244 101.946 193.52 101.77C188.751 101.682 185.05 102.989 182.288 106.406C181.334 106.406 180.38 106.393 179.426 106.393C179.255 105.652 179.099 104.798 178.017 104.798C176.949 104.798 176.778 105.639 176.593 106.381C174.685 106.368 172.777 106.356 170.884 106.356C170.414 105.828 170.016 104.936 169.46 104.848C168.464 104.685 168.25 105.627 168.065 106.356C167.111 106.356 166.157 106.356 165.189 106.343C164.719 105.815 164.25 105.288 163.78 104.76C163.31 105.288 162.84 105.803 162.356 106.33C160.448 106.33 158.541 106.318 156.647 106.318C156.505 105.954 156.448 105.313 156.206 105.263C155.224 105.049 155.423 105.853 155.238 106.318C153.33 106.305 151.422 106.305 149.529 106.293C146.212 103.227 142.909 103.227 139.592 106.293C137.214 106.293 134.837 106.305 132.459 106.305C131.761 103.278 130.053 101.657 126.181 101.783C119.375 101.996 112.542 101.959 105.722 101.795C100.953 101.682 101.409 103.73 102.861 106.418C95.9132 107.247 97.2372 110.614 99.7429 114.345C99.8425 116.569 99.7287 118.755 98.3477 120.74C98.3335 121.971 98.3335 123.215 98.3192 124.446C97.3511 124.86 97.3369 125.287 98.3192 125.702L98.8602 125.614C98.5328 126.406 98.7036 126.808 99.7571 126.481C100.683 126.481 101.594 126.468 102.519 126.468C111.588 126.443 120.657 126.431 129.726 126.406C145.97 126.418 162.214 126.443 178.458 126.456C187.655 126.481 196.852 126.506 206.049 126.531C206.661 126.682 207.273 126.833 207.885 126.983C207.117 131.179 210.775 133.956 211.729 137.888C214.463 136.179 213.922 133.968 213.452 132.498C211.302 125.903 213.979 119.433 213.623 112.901C213.509 110.928 212.954 108.529 216.442 108.114C216.442 117.298 216.726 126.481 216.342 135.652C216.143 140.463 217.552 142.838 223.346 141.946C224.884 143.152 224.585 143.767 222.692 144.471C216.484 146.77 211.857 144.521 207.7 140.689C208.711 136.38 208.142 133.466 201.721 134.383C198.987 134.772 196.083 134.094 193.264 134.094C161.644 134.207 130.024 134.345 98.3904 134.483C96.44 135.689 97.0094 137.297 97.3369 138.968C98.4189 144.508 95.7139 146.556 89.5067 145.023C83.214 143.466 78.7722 140.953 77.8468 134.257C77.2061 129.684 77.6474 125.137 76.9071 120.652C76.2095 116.431 79.0142 112.285 76.9783 108.102ZM89.8056 123.353C89.7914 123.353 89.7914 123.353 89.7772 123.353C89.7772 119.81 89.9765 116.267 89.706 112.737C89.5494 110.765 91.329 107.398 87.3712 107.26C83.9686 107.147 82.9862 110.325 82.8723 112.75C82.5876 118.981 82.7015 125.237 82.9151 131.468C82.972 133.064 83.8404 134.684 84.595 136.204C85.2641 137.549 86.4458 139.031 88.1826 138.817C90.4178 138.541 89.7629 136.556 89.7914 135.212C89.8626 131.267 89.8056 127.31 89.8056 123.353Z" fill="#1C1A3C"/>
<path d="M269.659 340.197C269.36 339.418 269.075 338.639 268.776 337.848C268.804 336.19 268.819 334.519 268.847 332.861C274.599 296.881 280.279 260.902 286.102 224.922C290.088 200.299 294.217 175.689 298.388 151.091C299.342 145.476 299.741 139.961 297.477 134.521C297.563 133.491 297.762 132.498 298.929 131.933C299.869 132.775 300.823 133.617 301.762 134.458C302.247 137.536 303.571 140.74 303.03 143.667C301.421 152.272 301.933 161.028 299.869 169.646C298.516 175.287 295.769 180.764 296.082 186.694C296.523 194.809 293.534 202.573 292.195 210.45C291.156 216.568 290.928 222.799 289.661 228.917C287.597 238.804 286.301 248.804 284.678 258.766C279.083 261.63 283.098 266.366 281.859 270.072C281.845 272.999 281.831 275.926 281.831 278.854C277.318 279.72 279.61 282.924 279.041 285.147C279.026 289.745 279.012 294.343 278.998 298.954C275.069 299.582 276.378 302.358 276.207 304.444C275.681 310.637 277.503 317.006 275.211 323.037C270.342 335.813 275.937 347.157 290.387 352.948C290.387 353.79 290.402 354.619 290.402 355.461C290.416 356.302 290.43 357.157 290.444 357.998C290.402 358.476 290.359 358.953 290.316 359.431C289.917 359.318 289.505 359.242 289.078 359.179C282.614 352.848 276.136 346.529 269.659 340.197Z" fill="#1C1A3C"/>
<path d="M179.497 311.278C179.853 311.529 180.508 311.755 180.536 312.019C181.989 330.574 183.256 349.129 177.604 367.383C176.92 369.581 175.838 371.717 174.6 373.715C170.414 380.536 164.449 385.536 155.181 385.461C145.457 385.373 138.31 381.051 133.74 373.388C130.409 367.785 128.757 361.83 128.031 355.561C124.7 327.069 129.754 298.854 131.647 270.537C132.274 261.166 133.256 251.806 134.082 242.435C134.979 242.435 135.861 242.447 136.758 242.447C137.726 253.377 135.093 264.181 135.349 275.085C133 276.932 134.053 279.381 133.939 281.58C133.669 286.969 134.566 292.434 132.502 297.698C132.502 298.941 132.502 300.198 132.502 301.441C132.032 302.359 131.163 303.263 131.149 304.18C131.064 321.529 130.622 338.903 131.391 356.227C131.605 360.951 132.188 366.566 136.73 370.511C138.766 378.451 146.212 380.988 153.657 382.848C158.711 384.104 167.624 378.099 170.841 372.596C177.945 360.461 178.515 347.245 179.269 334.042C179.269 332.408 179.269 330.763 179.269 329.13C179.255 325.323 179.255 321.517 179.241 317.723C179.269 317.371 179.298 317.019 179.355 316.655C179.369 315.323 179.369 313.992 179.383 312.66C179.412 312.208 179.454 311.743 179.497 311.278Z" fill="#1C1A3C"/>
<path d="M327.389 384.317L326.89 384.518L326.349 384.443C325.766 384.883 325.182 385.335 324.598 385.775C323.673 387.734 322.221 388.111 320.242 386.905C320.299 384.028 317.409 382.873 315.8 380.963C312.127 376.616 306.93 373.287 304.624 368.011C306.518 367.961 307.429 367.056 307.5 365.423C310.703 365.662 311.742 368.312 313.849 369.77C318.149 372.734 321.851 379.016 328.741 372.986C329.88 372.822 331.375 373.011 332.101 372.433C343.861 363.011 355.563 353.514 367.18 343.953C369.501 342.044 370.554 339.506 370.056 336.617C370.056 334.933 370.07 333.263 370.07 331.579C371.95 331.328 373.658 331.001 371.48 329.016C371.693 327.22 371.039 325.612 370.07 324.079C370.64 321.152 368.832 317.936 371.466 315.26C376.562 330.323 376.434 343.602 360.304 354.669C349.826 361.855 342.394 372.257 332.329 380.172C331.702 380.837 331.062 381.491 330.435 382.144L330.606 382.031C328.599 381.792 327.503 382.508 327.389 384.317Z" fill="#1F1F43"/>
<path d="M371.466 315.285C368.832 317.961 370.64 321.177 370.07 324.104C369.287 323.715 367.892 323.413 367.793 322.911C365.614 311.805 361.998 300.688 361.941 289.544C361.856 275.725 360.247 262.082 358.254 248.54C356.602 237.347 352.488 226.417 352.944 214.91C352.616 212.322 354.168 209.47 351.534 207.221C351.064 205.161 350.595 203.101 350.125 201.04C351.064 201.04 351.99 201.028 352.929 201.028C356.275 221.028 359.649 241.015 362.924 261.015C364.504 270.7 365.871 280.411 367.337 290.122C366.54 296.693 366.967 303.213 368.533 309.682C368.903 311.177 369.117 312.522 371.195 312.76C371.281 313.602 371.38 314.444 371.466 315.285Z" fill="#1C1A3C"/>
<path d="M203.557 149.383C203.073 150.086 202.489 150.752 202.148 151.493C198.147 160.3 192.908 167.988 181.049 169.697C178.216 168.177 175.383 167.875 172.55 169.684C172.507 169.106 172.464 168.528 172.407 167.95C172.322 167.661 172.308 167.373 172.35 167.084C172.806 166.682 173.276 166.28 173.731 165.878C173.959 164.069 173.333 162.448 172.322 160.915C175.582 160.853 178.871 160.94 182.117 160.689C188.965 160.162 194.389 154.169 193.606 148.202C185.22 145.539 176.536 147.75 168.036 147.008C167.666 144.119 172.863 144.86 172.322 141.87C179.896 141.292 187.484 141.38 195.058 141.895C195.157 144.106 196.809 144.534 198.902 144.534C202.575 144.534 203.785 146.431 203.557 149.383Z" fill="#1F1F43"/>
<path d="M171.752 193.402C171.781 198.478 171.809 203.553 171.852 208.628C170.457 211.58 170.115 214.495 172.236 217.334C174.315 239.532 177.105 261.706 178.13 283.941C178.529 292.685 181.092 301.441 179.255 310.26C173.931 307.321 177.789 302.672 176.564 298.966C173.731 270.927 170.884 242.887 168.051 214.834C168.051 208.465 168.022 202.096 168.079 195.726C168.093 193.754 167.453 191.392 170.898 190.965C171.154 191.782 171.453 192.598 171.752 193.402Z" fill="#161436"/>
<path d="M352.929 201.028C351.99 201.028 351.064 201.04 350.125 201.04C348.189 200.777 347.092 199.747 347.377 198.063C349.256 187.121 344.345 176.669 344.444 165.865C344.658 163.918 343.704 162.26 342.907 160.526C339.604 153.34 337.639 146.003 340.188 138.24C344.658 129.471 349.74 120.928 353.214 111.783C354.709 107.851 355.193 104.182 350.182 101.795C349.399 100.049 347.434 98.2652 350.41 96.6572C357.969 102.373 360.845 108.479 355.207 117.072C350.637 124.044 347.818 131.921 344.117 139.345C340.956 145.689 344.373 151.858 345.327 157.888C346.409 164.709 347.676 171.619 348.601 178.453C349.086 181.958 351.677 184.96 351.007 188.553C349.826 189.897 349.854 191.129 351.463 192.209C351.506 192.623 351.548 193.051 351.591 193.465C349.669 195.513 349.071 197.347 352.63 198.503C352.73 199.357 352.83 200.199 352.929 201.028Z" fill="#161436"/>
<path d="M136.744 242.46C135.847 242.46 134.964 242.447 134.068 242.447C134.95 229.193 135.762 215.94 136.744 202.686C137.427 193.402 136.388 184.407 131.761 175.915C134.438 175.84 136.459 176.669 136.63 179.269C136.958 184.407 140.545 189.005 139.648 194.37C139.406 195.827 139.065 198.226 141.855 198.05C144.46 197.887 143.535 195.576 143.834 194.056C144.446 190.927 142.325 187.435 145.457 184.646C146.895 187.824 146.283 191.166 146.283 194.432C146.297 208.226 146.24 208.226 162.128 207.962C158.313 211.719 153.116 210.161 149.102 209.47C142.909 208.39 142.097 210.575 142.425 214.834C140.56 214.884 139.606 215.714 139.62 217.372C139.819 224.193 136.374 230.613 136.844 237.46C136.815 239.13 136.773 240.789 136.744 242.46ZM141.357 202.56C140.73 203.063 140.075 203.364 139.976 203.766C139.862 204.231 140.075 205.073 140.46 205.261C141.428 205.739 142.126 205.211 142.14 204.307C142.14 203.804 141.713 203.314 141.357 202.56Z" fill="#161436"/>
<path d="M176.55 298.954C177.775 302.66 173.931 307.308 179.241 310.248C179.469 310.562 179.554 310.901 179.497 311.265C179.454 311.73 179.412 312.195 179.369 312.66C177.561 313.979 177.661 315.323 179.341 316.655C179.298 317.006 179.255 317.358 179.241 317.723C174.998 321.529 174.984 325.335 179.269 329.129C179.269 330.763 179.269 332.408 179.269 334.041C175.981 334.556 176.522 336.855 176.607 338.765C176.721 341.391 175.924 343.112 172.507 342.923C172.365 334.984 172.578 327.019 172.023 319.092C170.998 304.394 169.546 289.708 168.264 275.022C169.46 275.261 170.67 275.713 170.699 276.894C170.827 283.175 175.312 288.866 173.788 295.386C173.361 297.17 174.101 298.703 176.55 298.954Z" fill="#192659"/>
<path d="M145.457 184.646C142.339 187.435 144.446 190.927 143.834 194.056C143.535 195.563 144.461 197.887 141.855 198.051C139.065 198.214 139.406 195.814 139.648 194.37C140.545 189.005 136.958 184.407 136.63 179.269C136.459 176.669 134.438 175.852 131.761 175.915C129.341 171.192 126.209 167.435 119.489 167.259C116.357 167.184 114.791 164.91 113.595 162.498C111.431 158.139 109.096 153.855 106.833 149.546C106.847 149.119 106.847 148.692 106.861 148.265C109.751 148.415 110.42 150.074 111.26 152.297C115.887 164.521 119.703 166.719 134.609 166.292C136.26 166.242 136.488 167.197 136.73 168.227C134.822 170.073 136.701 170.35 138.111 170.827C143.023 174.408 145.4 179.043 145.457 184.646Z" fill="#1C1A3C"/>
<path d="M292.096 123.164C291.64 122.436 291.27 121.644 290.715 120.978C281.561 110.061 286.43 100.941 295.242 92.1848C297.121 90.3129 299.086 89.2702 301.919 89.2828C314.946 89.3079 327.972 89.3079 340.999 89.2451C345.113 89.22 347.591 91.0793 349.142 94.2074C340.259 91.1421 330.948 91.7828 321.708 91.8205C319.131 91.8079 316.483 92.1094 313.978 91.7325C304.467 90.3004 298.702 94.1194 293.163 100.753C288.593 106.217 288.679 110.828 291.768 116.041C292.936 118.014 293.178 119.911 293.334 121.958C293.32 122.36 293.292 122.762 293.277 123.164C292.893 123.152 292.494 123.152 292.096 123.164Z" fill="#1C1A3C"/>
<path d="M203.557 149.383C203.785 146.431 202.575 144.534 198.902 144.534C196.809 144.534 195.158 144.106 195.058 141.895C199.201 140.953 203.657 142.561 207.686 140.689C211.843 144.521 216.47 146.757 222.677 144.471C224.571 143.767 224.87 143.152 223.332 141.946C223.93 140.715 224.528 139.483 225.126 138.265C230.251 136.431 228.173 130.011 233.355 128.202C233.383 130.288 233.412 132.386 233.44 134.471C228.301 135.978 231.575 139.684 230.792 142.335C228.002 147.046 223.503 149.144 217.566 149.32C212.897 149.458 208.213 148.365 203.557 149.383Z" fill="#161436"/>
<path d="M106.861 148.265C106.847 148.692 106.847 149.119 106.833 149.546C102.861 147.498 98.547 148.679 94.4041 148.604C81.5911 148.378 75.3981 143.416 75.512 132.222C75.5974 124.182 73.6469 115.991 76.9783 108.089C79.0284 112.273 76.2096 116.418 76.8929 120.652C77.619 125.137 77.1919 129.685 77.8326 134.257C78.7722 140.953 83.2141 143.466 89.4925 145.024C95.6997 146.556 98.4047 144.509 97.3227 138.968C96.9952 137.285 96.4258 135.69 98.3762 134.484C98.4047 139.458 101.594 141.581 106.876 141.782C106.876 143.956 106.876 146.117 106.861 148.265Z" fill="#161436"/>
<path d="M321.722 91.8205C330.962 91.7828 340.259 91.1421 349.157 94.2074C350.424 94.6848 350.153 95.7778 350.409 96.6572C347.434 98.2777 349.413 100.062 350.182 101.795C349.199 104.308 352.388 108.001 347.42 109.383C346.509 100.815 341.725 96.8582 332.129 96.7954C326.762 96.7577 321.381 96.7828 316.013 96.7828C315.757 93.1899 321.936 95.3758 321.722 91.8205Z" fill="#192659"/>
<path d="M172.535 169.684C175.369 167.875 178.216 168.189 181.035 169.697C180.508 170.513 179.981 171.33 179.44 172.146C176.023 172.636 176.636 174.772 177.006 176.807C176.792 177.335 176.579 177.875 176.351 178.403C172.592 179.232 174.016 181.82 173.931 183.905C173.746 184.583 173.56 185.249 173.375 185.928C172.55 185.953 171.724 185.978 170.912 186.003C169.133 185.073 167.254 184.495 165.147 184.671C164.791 184.269 164.449 183.855 164.093 183.453C164.364 181.191 164.862 178.98 166.414 177.083C167.766 176.556 167.994 175.551 167.908 174.408C168.777 172.322 170.286 170.727 172.535 169.684Z" fill="#161436"/>
<path d="M307.5 365.423C307.443 367.056 306.518 367.961 304.624 368.011C299.784 366.164 298.203 359.87 291.526 360.549C291.128 360.172 290.729 359.795 290.316 359.418C290.359 358.941 290.402 358.463 290.444 357.986C291.17 357.647 292.409 357.408 292.523 356.968C292.836 355.624 291.441 355.637 290.402 355.448C290.402 354.607 290.387 353.777 290.387 352.936C290.387 351.679 290.387 350.411 290.402 349.154C291.825 349.167 293.249 349.167 294.673 349.179C296.68 352.722 296.95 357.22 301.777 359.217C302.702 361.993 307.044 362.307 307.5 365.423Z" fill="#171E4E"/>
<path d="M269.659 340.197C276.136 346.516 282.614 352.848 289.092 359.167C280.023 358.664 274.642 352.76 268.819 347.861C266.584 345.989 266.441 342.521 269.659 340.197Z" fill="#F0EDF9"/>
<path d="M291.526 360.549C298.217 359.87 299.783 366.164 304.624 368.011C306.916 373.287 312.112 376.616 315.8 380.963C317.409 382.873 320.299 384.028 320.242 386.905C316.996 387.345 315.757 384.883 314.163 383.325C306.503 375.825 299.057 368.162 291.526 360.549Z" fill="#161436"/>
<path d="M371.195 312.773C369.131 312.534 368.903 311.19 368.533 309.695C366.952 303.225 366.525 296.718 367.337 290.135C369.501 297.56 370.255 305.173 371.195 312.773Z" fill="#1F1F43"/>
<path d="M292.096 123.164C292.494 123.152 292.879 123.152 293.277 123.152C297.064 125.124 299.598 127.737 298.929 131.946C297.762 132.511 297.563 133.491 297.477 134.534C295.683 130.74 293.89 126.958 292.096 123.164Z" fill="#1F1F43"/>
<path d="M230.792 142.335C231.575 139.684 228.301 135.978 233.44 134.471C233.725 137.398 234.351 140.413 230.792 142.335Z" fill="#1C1A3C"/>
<path d="M170.912 186.016C171.738 185.99 172.564 185.965 173.375 185.94C172.834 188.428 172.293 190.928 171.738 193.415C171.439 192.598 171.154 191.794 170.855 190.978C170.884 189.32 170.898 187.661 170.912 186.016Z" fill="#1F1F43"/>
<path d="M352.63 198.515C349.071 197.347 349.669 195.525 351.591 193.478C351.947 195.161 352.289 196.832 352.63 198.515Z" fill="#1C1A3C"/>
<path d="M172.222 217.334C170.101 214.508 170.443 211.581 171.838 208.628C171.966 211.53 172.094 214.432 172.222 217.334Z" fill="#1F1F43"/>
<path d="M173.945 183.917C174.016 181.832 172.592 179.232 176.365 178.415C175.554 180.249 174.742 182.083 173.945 183.917Z" fill="#1F1F43"/>
<path d="M177.006 176.807C176.636 174.772 176.023 172.636 179.44 172.146C178.629 173.704 177.817 175.249 177.006 176.807Z" fill="#1F1F43"/>
<path d="M268.861 332.861C268.833 334.519 268.819 336.19 268.79 337.848C267.096 336.177 267.11 334.506 268.861 332.861Z" fill="#F0EDF9"/>
<path d="M327.389 384.317C327.503 382.508 328.599 381.792 330.592 382.056C329.837 383.149 329.296 384.506 327.389 384.317Z" fill="#161436"/>
<path d="M351.463 192.221C349.854 191.141 349.811 189.922 351.007 188.566C351.15 189.784 351.306 191.003 351.463 192.221Z" fill="#1C1A3C"/>
<path d="M330.421 382.169C331.047 381.516 331.688 380.863 332.314 380.197C331.688 380.837 331.062 381.503 330.421 382.169Z" fill="#161436"/>
<path d="M324.612 385.775C325.196 385.335 325.78 384.883 326.363 384.443C325.765 384.883 325.196 385.322 324.612 385.775Z" fill="#161436"/>
<path d="M98.3335 120.715C99.7145 118.742 99.8141 116.544 99.7287 114.32C101.608 114.207 103.487 114.006 105.366 114.006C137.513 114.031 169.66 114.144 201.806 114.019C204.454 114.006 209.295 116.657 209.366 110.715C209.437 104.634 204.511 106.946 201.379 106.77C195.03 106.406 188.637 106.494 182.273 106.393C185.021 102.976 188.737 101.67 193.506 101.758C203.23 101.946 212.968 101.808 222.877 101.808C222.535 104.798 218.776 104.408 219.246 106.82C218.107 106.908 217.04 107.109 216.427 108.102C212.939 108.516 213.495 110.916 213.609 112.888C213.964 119.408 211.302 125.89 213.438 132.486C213.922 133.956 214.449 136.167 211.715 137.875C210.761 133.943 207.102 131.167 207.871 126.971C210.177 122.649 209.935 121.368 206.576 120.124C197.008 119.597 187.441 119.446 177.874 120.174C161.744 119.697 145.614 119.609 129.484 120.262C120.486 119.672 111.502 119.37 102.533 120.576C101.095 119.76 99.6718 119.245 98.3335 120.715Z" fill="#161436"/>
<path d="M182.273 106.393C188.651 106.494 195.03 106.406 201.379 106.77C204.497 106.946 209.437 104.634 209.366 110.715C209.295 116.657 204.454 114.006 201.806 114.019C169.66 114.144 137.513 114.031 105.366 114.006C103.487 114.006 101.608 114.207 99.7287 114.32C97.223 110.589 95.899 107.222 102.847 106.393C110.335 106.368 117.838 106.356 125.326 106.33C125.81 106.33 126.294 106.33 126.793 106.33C128.686 106.318 130.566 106.293 132.459 106.28C134.837 106.28 137.214 106.268 139.592 106.268C142.909 106.268 146.212 106.268 149.529 106.268C151.437 106.28 153.344 106.28 155.238 106.293C155.708 106.293 156.177 106.293 156.633 106.293C158.541 106.293 160.448 106.305 162.342 106.305C163.282 106.305 164.221 106.318 165.161 106.318C166.115 106.318 167.069 106.318 168.037 106.33C168.976 106.33 169.916 106.33 170.856 106.343C172.763 106.356 174.671 106.368 176.564 106.368C177.504 106.368 178.444 106.381 179.383 106.381C180.351 106.381 181.32 106.393 182.273 106.393Z" fill="#F0EDF9"/>
<path d="M106.875 141.795C101.579 141.581 98.4045 139.471 98.376 134.496C129.996 134.358 161.616 134.207 193.25 134.107C196.069 134.094 198.973 134.785 201.706 134.396C208.127 133.478 208.697 136.393 207.686 140.702C203.657 142.574 199.201 140.966 195.058 141.908C187.484 141.393 179.91 141.305 172.322 141.883C161.402 141.33 150.483 141.355 139.563 141.883C128.672 141.318 117.766 141.23 106.875 141.795Z" fill="#F0EDF9"/>
<path d="M129.483 120.25C145.614 119.609 161.744 119.685 177.874 120.162C178.073 122.247 178.259 124.345 178.458 126.431C162.214 126.418 145.97 126.393 129.725 126.38C129.64 124.345 129.555 122.298 129.483 120.25Z" fill="#F0EDF9"/>
<path d="M216.427 108.102C217.04 107.109 218.122 106.921 219.246 106.82C224.443 107.788 224.813 111.406 224.884 115.049C225.041 122.775 225.055 130.514 225.126 138.252C224.528 139.483 223.93 140.714 223.332 141.933C217.524 142.825 216.114 140.438 216.328 135.639C216.712 126.468 216.427 117.285 216.427 108.102Z" fill="#284074"/>
<path d="M89.8055 123.353C89.8055 127.31 89.8625 131.267 89.777 135.225C89.7486 136.569 90.4035 138.554 88.1683 138.83C86.4314 139.044 85.2497 137.561 84.5806 136.217C83.8261 134.71 82.9576 133.076 82.9007 131.481C82.6871 125.237 82.5732 118.994 82.858 112.763C82.9719 110.351 83.9542 107.16 87.3568 107.273C91.3146 107.411 89.535 110.765 89.6916 112.75C89.9621 116.268 89.7628 119.823 89.7628 123.365C89.7913 123.353 89.7913 123.353 89.8055 123.353Z" fill="#284074"/>
<path d="M178.444 126.443C178.244 124.358 178.059 122.26 177.86 120.175C187.427 119.459 196.994 119.609 206.561 120.124C207.487 122.323 206.419 124.396 206.034 126.519C196.837 126.494 187.641 126.468 178.444 126.443Z" fill="#D4D2DC"/>
<path d="M129.483 120.25C129.569 122.298 129.64 124.333 129.725 126.38C120.657 126.406 111.588 126.418 102.519 126.443C102.533 124.483 102.533 122.524 102.548 120.564C111.502 119.358 120.486 119.659 129.483 120.25Z" fill="#D4D2DC"/>
<path d="M132.445 106.28C130.551 106.293 128.672 106.318 126.778 106.33C126.636 105.954 126.565 105.3 126.323 105.25C125.326 105.024 125.454 105.815 125.312 106.343C117.823 106.368 110.321 106.381 102.832 106.406C101.38 103.705 100.924 101.67 105.694 101.783C112.513 101.946 119.333 101.984 126.152 101.77C130.039 101.645 131.761 103.265 132.445 106.28Z" fill="#161436"/>
<path d="M149.529 106.268C146.212 106.268 142.909 106.268 139.592 106.268C142.894 103.202 146.212 103.202 149.529 106.268Z" fill="#161436"/>
<path d="M102.533 120.576C102.519 122.536 102.519 124.496 102.505 126.456C101.579 126.456 100.668 126.468 99.7428 126.468C99.6432 126.029 99.3442 125.74 98.8459 125.602L98.3049 125.689C98.3049 125.275 98.3049 124.848 98.3049 124.433C98.3192 123.202 98.3192 121.958 98.3334 120.727C99.6717 119.245 101.095 119.76 102.533 120.576Z" fill="#F0EDF9"/>
<path d="M206.034 126.519C206.419 124.396 207.487 122.323 206.561 120.124C209.935 121.368 210.177 122.649 207.857 126.971C207.259 126.82 206.647 126.669 206.034 126.519Z" fill="#F0EDF9"/>
<path d="M170.87 106.343C169.93 106.343 168.99 106.343 168.051 106.33C168.236 105.602 168.449 104.672 169.446 104.823C170.001 104.911 170.4 105.803 170.87 106.343Z" fill="#161436"/>
<path d="M179.397 106.381C178.458 106.381 177.518 106.368 176.579 106.368C176.749 105.627 176.92 104.773 178.002 104.785C179.07 104.785 179.227 105.64 179.397 106.381Z" fill="#161436"/>
<path d="M165.175 106.318C164.235 106.318 163.296 106.305 162.356 106.305C162.826 105.778 163.296 105.263 163.78 104.735C164.235 105.275 164.705 105.803 165.175 106.318Z" fill="#161436"/>
<path d="M156.633 106.293C156.163 106.293 155.693 106.293 155.238 106.293C155.423 105.828 155.224 105.011 156.206 105.238C156.434 105.288 156.491 105.928 156.633 106.293Z" fill="#161436"/>
<path d="M98.3191 124.421C98.3191 124.835 98.3191 125.262 98.3191 125.677C97.3367 125.262 97.351 124.835 98.3191 124.421Z" fill="#161436"/>
<path d="M98.8602 125.602C99.3585 125.74 99.6574 126.029 99.7571 126.468C98.6893 126.782 98.5185 126.393 98.8602 125.602Z" fill="#D4D2DC"/>
<path d="M278.998 298.954C279.012 294.356 279.026 289.758 279.041 285.148C283.554 284.281 281.261 281.077 281.831 278.854C281.845 275.927 281.859 272.999 281.859 270.072C287.469 267.208 283.454 262.472 284.678 258.766C286.301 248.816 287.597 238.804 289.661 228.917C290.942 222.799 291.156 216.568 292.195 210.45C293.534 202.586 296.523 194.822 296.082 186.694C295.769 180.764 298.516 175.287 299.869 169.646C301.919 161.028 301.421 152.272 303.029 143.667C303.57 140.74 302.232 137.536 301.762 134.458C307.528 135.476 307.286 139.546 307.557 143.353C307.244 146.832 306.902 150.363 306.774 153.792C306.361 165.124 301.705 175.89 301.762 187.221C303.442 192.623 298.73 197.096 298.958 202.284C298.516 204.37 298.075 206.455 297.634 208.553C297.605 209.382 297.577 210.224 297.548 211.053C295.555 223.628 291.896 236.015 291.782 248.829C295.114 253.691 291.27 257.987 290.387 262.522C287.554 269.432 287.056 276.693 286.173 283.904C286.145 284.72 286.116 285.55 286.088 286.366C283.895 291.215 284.322 296.466 283.126 301.466C281.062 301.504 279.112 301.404 278.998 298.954Z" fill="#171E4E"/>
<path d="M307.571 143.365C307.286 139.559 307.528 135.488 301.777 134.471C300.837 133.629 299.883 132.787 298.943 131.946C299.598 127.737 297.078 125.124 293.292 123.152C293.32 122.75 293.334 122.348 293.348 121.946C297.79 121.004 295.427 117.725 296.182 115.514C300.268 117.298 300.581 121.041 301.648 124.207C304.795 133.529 307.713 135.677 318.362 135.727C323.274 135.752 328.186 135.765 333.097 135.79C333.083 138.29 333.069 140.777 333.069 143.277C329.752 143.29 326.42 143.302 323.103 143.302C320.74 143.302 318.377 143.29 316.013 143.29C313.209 143.315 310.39 143.34 307.571 143.365Z" fill="#192659"/>
<path d="M278.998 298.954C279.112 301.404 281.062 301.517 283.126 301.479C283.098 302.333 283.084 303.175 283.055 304.017C282.657 304.406 282.258 304.796 281.859 305.198C281.845 306.466 281.831 307.735 281.817 309.017C281.845 314.192 280.094 319.117 279.04 324.129C277.332 333.677 279.638 341.868 289.22 347.622C289.761 347.948 290.003 348.639 290.387 349.167C290.387 350.423 290.387 351.692 290.373 352.948C275.923 347.144 270.328 335.813 275.197 323.037C277.489 317.006 275.666 310.637 276.193 304.444C276.378 302.346 275.068 299.582 278.998 298.954Z" fill="#1F1F43"/>
<path d="M284.693 258.766C283.454 262.484 287.483 267.208 281.874 270.072C283.112 266.366 279.083 261.63 284.693 258.766Z" fill="#1F1F43"/>
<path d="M281.831 278.854C281.262 281.077 283.554 284.293 279.041 285.148C279.61 282.924 277.318 279.708 281.831 278.854Z" fill="#1F1F43"/>
<path d="M290.401 355.448C291.426 355.637 292.836 355.624 292.523 356.968C292.423 357.421 291.17 357.659 290.444 357.986C290.43 357.144 290.416 356.303 290.401 355.448Z" fill="#1F1F43"/>
<path d="M172.507 342.936C175.924 343.124 176.721 341.403 176.607 338.778C176.522 336.868 175.981 334.569 179.269 334.054C178.515 347.258 177.945 360.474 170.841 372.609C167.624 378.111 158.712 384.116 153.657 382.86C146.212 381.001 138.78 378.463 136.73 370.524L136.758 370.511C139.449 370.637 140.731 373.853 143.848 373.036C154.497 380.699 162.897 378.74 168.022 367.345C171.539 359.506 172.621 351.303 172.507 342.936Z" fill="#171E4E"/>
<path d="M136.73 370.523C132.174 366.591 131.591 360.963 131.391 356.24C130.622 338.916 131.064 321.542 131.149 304.193C131.149 303.275 132.032 302.371 132.502 301.454C133.94 301.454 135.392 301.454 136.83 301.466C136.645 308.351 136.645 315.235 136.246 322.107C135.406 336.202 133.27 350.335 138.225 364.217C135.776 365.951 137.1 368.375 136.758 370.498L136.73 370.523Z" fill="#171E4E"/>
<path d="M136.744 242.46C136.773 240.801 136.815 239.13 136.844 237.472C139.734 237.133 139.663 235.186 139.563 233.364C139.421 230.688 140.987 229.759 143.749 229.884C143.791 231.141 143.82 232.409 143.863 233.666C143.45 234.935 143.037 236.216 142.624 237.485C142.596 238.301 142.581 239.105 142.553 239.922C142.396 255.387 139.207 270.688 139.449 286.178C139.463 287.082 138.609 287.999 138.168 288.916C134.367 284.771 139.079 279.256 135.335 275.11C135.079 264.193 137.712 253.389 136.744 242.46Z" fill="#192659"/>
<path d="M135.335 275.097C139.079 279.256 134.367 284.758 138.168 288.904C138.125 291.818 138.068 294.745 138.025 297.66C136.175 297.673 134.338 297.685 132.487 297.71C134.552 292.446 133.655 286.982 133.925 281.592C134.025 279.394 132.986 276.932 135.335 275.097Z" fill="#171E4E"/>
<path d="M179.255 329.142C174.97 325.348 174.984 321.542 179.227 317.735C179.241 321.529 179.255 325.336 179.255 329.142Z" fill="#171E4E"/>
<path d="M132.487 297.71C134.338 297.698 136.175 297.685 138.025 297.66C138.125 299.054 138.396 300.487 136.815 301.466C135.377 301.466 133.925 301.466 132.487 301.454C132.487 300.21 132.487 298.966 132.487 297.71Z" fill="#192659"/>
<path d="M179.341 316.667C177.661 315.323 177.561 313.991 179.369 312.672C179.355 314.004 179.355 315.336 179.341 316.667Z" fill="#161436"/>
<path d="M344.444 165.865C344.345 176.669 349.256 187.121 347.377 198.063C347.092 199.747 348.188 200.777 350.125 201.041C350.594 203.101 351.064 205.161 351.534 207.221C350.011 210.073 348.146 212.962 352.944 214.91C352.474 226.417 356.602 237.334 358.254 248.54C360.247 262.083 361.856 275.726 361.941 289.545C362.012 300.675 365.628 311.806 367.792 322.911C367.892 323.414 369.287 323.715 370.07 324.104C371.038 325.637 371.708 327.245 371.48 329.042C370.369 329.619 370.099 330.562 370.07 331.604C370.07 333.288 370.056 334.959 370.056 336.642C368.661 336.629 367.266 336.617 365.87 336.617C365.828 334.946 365.799 333.288 365.757 331.617C368.02 329.657 367.536 328.401 364.49 327.823C362.012 319.557 363.137 310.65 358.681 302.735C357.528 299.431 354.837 296.454 355.834 292.673C359.364 282.685 355.378 273.037 353.897 263.301C353.641 261.605 353.598 258.841 350.167 258.741C349.285 254.558 353.954 250.412 350.239 246.216C349.655 235.136 349.199 224.03 344.473 213.515C343.875 209.784 345.854 205.802 343.077 202.272C343.305 191.216 340.686 180.463 338.749 169.634C337.81 166.694 336.884 163.754 335.945 160.827C340.301 160.513 340.586 165.526 344.444 165.865Z" fill="#171E4E"/>
<path d="M307.5 365.423C307.044 362.308 302.702 361.981 301.762 359.217C301.691 353.941 306.717 352.019 310.276 349.117C311.372 353.124 308.639 357.308 312.91 361.365C318.975 367.119 325.21 368.564 333.126 365.536C333.268 368.752 328.67 369.795 328.741 372.973C321.851 379.003 318.149 372.722 313.849 369.757C311.742 368.325 310.717 365.674 307.5 365.423Z" fill="#284074"/>
<path d="M328.741 372.986C328.684 369.807 333.268 368.765 333.126 365.549V365.536C334.962 365.486 335.902 364.644 335.973 363.036C337.796 362.973 338.735 362.144 338.821 360.536L338.835 360.524C340.885 360.486 342.28 359.644 343.035 357.948C343.505 357.521 343.989 357.094 344.458 356.667C347.163 355.197 349.669 353.564 350.295 350.549C352.018 350.398 352.958 349.556 353.157 348.049C359.621 346.152 361.827 340.574 365.885 336.604C367.28 336.617 368.675 336.629 370.07 336.629C370.569 339.519 369.515 342.056 367.195 343.966C355.577 353.526 343.875 363.011 332.115 372.446C331.375 373.011 329.88 372.822 328.741 372.986Z" fill="#192659"/>
<path d="M370.07 331.604C370.085 330.562 370.355 329.619 371.48 329.042C373.658 331.014 371.964 331.353 370.07 331.604Z" fill="#1C1A3C"/>
<path d="M352.944 214.922C348.146 212.975 350.011 210.086 351.534 207.234C354.168 209.483 352.616 212.334 352.944 214.922Z" fill="#161436"/>
<path d="M193.606 148.189C194.375 154.157 188.95 160.149 182.117 160.677C178.871 160.928 175.582 160.84 172.322 160.903C159.523 160.878 146.71 160.865 133.911 160.84C130.708 160.375 127.319 160.337 124.33 159.358C117.083 156.958 114.663 153.001 116.855 148.152L117.553 148.227L118.236 148.114C120.628 148.101 123.034 148.076 125.426 148.064C129.184 148.076 132.943 148.089 136.701 148.101C137.684 148.064 138.666 148.014 139.648 147.976C144.859 148.026 150.056 148.076 155.266 148.127C157.629 148.127 159.993 148.127 162.356 148.127C163.31 148.127 164.25 148.114 165.203 148.114C174.657 148.139 184.124 148.164 193.606 148.189Z" fill="#566EA4"/>
<path d="M166.428 177.096C164.862 178.993 164.378 181.204 164.107 183.465C164.05 183.88 163.979 184.282 163.922 184.696C163.822 185.513 163.723 186.342 163.609 187.159C162.043 190.425 162.342 193.842 162.584 197.259C162.441 200.827 162.299 204.407 162.157 207.975C146.268 208.239 146.325 208.239 146.311 194.445C146.311 191.179 146.923 187.837 145.485 184.659C145.414 179.068 143.051 174.42 138.125 170.852C138.509 169.483 140.075 169.86 141.029 169.332C144.418 169.295 147.849 169.96 151.166 168.842C153.002 168.679 154.839 168.528 156.661 168.365C160.932 168.227 165.203 168.101 169.489 167.963C170.457 167.963 171.439 167.963 172.407 167.963C172.45 168.541 172.493 169.119 172.549 169.697C170.3 170.739 168.791 172.347 167.937 174.433C166.769 175.036 166.413 175.99 166.428 177.096Z" fill="#D4D2DC"/>
<path d="M156.647 168.352C154.811 168.516 152.974 168.667 151.138 168.83C149.116 166.154 145.97 167.548 143.322 167.121C141.884 166.895 138.922 167.825 139.364 165.903C140.446 161.292 135.292 162.825 133.883 160.853C146.681 160.878 159.494 160.89 172.293 160.915C173.304 162.448 173.916 164.069 173.703 165.878C173.247 166.28 172.777 166.682 172.322 167.084C172.265 167.373 172.293 167.662 172.379 167.95C171.411 167.95 170.428 167.95 169.46 167.95C166.314 163.93 161.388 166.506 157.444 165.425C157.188 166.393 156.918 167.373 156.647 168.352Z" fill="#161436"/>
<path d="M165.175 148.114C164.221 148.114 163.281 148.127 162.328 148.127C159.964 146.493 157.601 146.506 155.238 148.127C150.027 148.076 144.831 148.026 139.62 147.976C139.606 145.941 139.577 143.893 139.563 141.858C150.483 141.33 161.402 141.292 172.322 141.858C172.863 144.848 167.652 144.119 168.037 146.996C167.083 147.373 166.129 147.75 165.175 148.114Z" fill="#161436"/>
<path d="M165.175 148.114C166.129 147.75 167.083 147.373 168.022 147.008C176.522 147.75 185.206 145.538 193.592 148.202C184.124 148.164 174.657 148.139 165.175 148.114Z" fill="#192659"/>
<path d="M172.336 167.083C172.792 166.681 173.262 166.279 173.717 165.877C173.262 166.279 172.806 166.681 172.336 167.083Z" fill="#1C1A3C"/>
<path d="M176.55 298.954C174.101 298.703 173.375 297.157 173.788 295.411C175.326 288.891 170.827 283.2 170.699 276.919C170.67 275.738 169.46 275.286 168.264 275.047C168.193 273.389 168.136 271.718 168.065 270.06C170.129 267.937 170.158 265.851 167.965 263.778C167.538 261.68 167.111 259.583 166.698 257.485C168.051 252.748 170.357 247.937 165.36 243.666C165.303 242.836 165.246 242.007 165.189 241.178C165.189 240.764 165.189 240.336 165.189 239.922C165.146 239.507 165.118 239.08 165.075 238.666C165.004 237.045 164.933 235.424 164.862 233.791C164.876 232.497 164.876 231.203 164.876 229.922C165.104 228.842 164.862 227.937 163.666 227.397C163.637 226.153 163.609 224.91 163.58 223.666C164.719 217.987 162.328 215.4 155.551 216.015C153.102 216.241 150.312 216.844 148.105 214.985C149.998 212.761 152.76 213.54 155.124 213.641C159.437 213.817 163.723 214.407 168.022 214.834C170.87 242.874 173.703 270.914 176.55 298.954Z" fill="#171E4E"/>
<path d="M168.022 214.834C163.723 214.42 159.437 213.829 155.124 213.641C152.746 213.54 149.984 212.761 148.105 214.985C146.325 215.023 144.546 215.073 142.766 215.123L142.439 214.834C142.111 210.576 142.923 208.39 149.116 209.47C153.131 210.161 158.327 211.719 162.142 207.963C162.285 204.395 162.427 200.814 162.57 197.247C167.353 194.232 165.531 190.701 163.595 187.146C163.694 186.33 163.794 185.5 163.908 184.684C164.321 184.684 164.734 184.671 165.161 184.671C167.268 184.495 169.147 185.073 170.927 186.003C170.912 187.661 170.898 189.307 170.884 190.965C167.439 191.392 168.079 193.754 168.065 195.726C168.008 202.096 168.022 208.465 168.022 214.834Z" fill="#1C1A3C"/>
<path d="M333.069 143.277C333.083 140.777 333.098 138.29 333.098 135.79C336.4 135.325 338.266 133.604 338.792 130.715C343.305 129.873 341.013 126.644 341.611 124.433C344.587 124.257 344.487 122.411 344.33 120.526C344.387 119.32 344.459 118.114 344.515 116.921C346.409 116.82 347.292 115.941 347.192 114.27C347.263 112.649 347.32 111.016 347.391 109.396C352.374 108.014 349.185 104.32 350.153 101.808C355.165 104.182 354.681 107.863 353.186 111.795C349.712 120.953 344.629 129.483 340.159 138.252C336.045 138.968 336.158 141.92 335.817 144.634C334.92 144.182 333.994 143.73 333.069 143.277Z" fill="#171E4E"/>
<path d="M335.845 144.634C336.187 141.92 336.073 138.968 340.187 138.252C337.639 146.003 339.604 153.353 342.907 160.538C343.704 162.272 344.644 163.93 344.444 165.878C340.586 165.538 340.287 160.526 335.945 160.84C335.874 159.973 335.817 159.106 335.746 158.239C335.774 153.692 335.817 149.157 335.845 144.634Z" fill="#1C1A3C"/>
<path d="M143.749 229.872C140.987 229.746 139.421 230.663 139.563 233.352C139.663 235.173 139.734 237.121 136.844 237.46C136.374 230.613 139.819 224.181 139.62 217.372C140.659 217.334 141.713 217.284 142.752 217.246C146.34 217.912 144.859 220.488 145.244 222.372C144.745 224.872 144.247 227.372 143.749 229.872Z" fill="#171E4E"/>
<path d="M141.357 202.561C141.727 203.327 142.154 203.817 142.14 204.294C142.126 205.211 141.414 205.726 140.46 205.249C140.076 205.061 139.862 204.219 139.976 203.754C140.061 203.365 140.73 203.063 141.357 202.561Z" fill="#1C1A3C"/>
<path d="M142.752 217.246C141.713 217.284 140.659 217.334 139.62 217.372C139.606 215.714 140.56 214.872 142.425 214.834L142.752 215.123C142.752 215.827 142.752 216.53 142.752 217.246Z" fill="#1C1A3C"/>
<path d="M168.065 270.06C168.122 271.718 168.193 273.389 168.25 275.047C169.532 289.733 170.998 304.406 172.009 319.117C172.564 327.044 172.35 334.996 172.493 342.948C172.607 351.315 171.539 359.519 168.008 367.345C162.883 378.739 154.483 380.699 143.834 373.036C141.955 370.096 140.076 367.169 138.196 364.23C133.242 350.348 135.378 336.215 136.218 322.119C136.63 315.248 136.616 308.351 136.801 301.479C138.381 300.499 138.111 299.067 138.011 297.672C138.054 294.758 138.097 291.831 138.154 288.916C138.609 287.999 139.449 287.082 139.435 286.178C139.193 270.688 142.382 255.387 142.539 239.922C144.546 240.198 145.329 241.341 145.215 243.012C143.962 261.278 147.949 279.72 142.61 297.886C141.784 300.7 141.414 304.167 143.735 306.969C144.959 308.439 145.614 309.921 144.318 311.542C141.115 315.562 142.211 319.896 143.179 324.167C144.176 328.526 144.304 332.911 143.307 337.195C141.428 345.285 142.482 353.426 142.596 361.516C142.653 365.637 146.226 368.765 150.497 370.31C153.814 371.503 156.761 369.481 158.171 367.044C163.097 358.451 168.435 350.021 168.094 339.795C167.695 327.898 168.022 315.989 167.965 304.092C167.951 302.245 167.923 300.286 167.254 298.577C163.538 289.117 164.591 279.607 166.556 270.06C167.083 270.06 167.581 270.06 168.065 270.06Z" fill="#23467E"/>
<path d="M139.563 141.87C139.577 143.905 139.606 145.953 139.62 147.988C138.638 148.026 137.655 148.076 136.673 148.114C132.914 146.368 129.156 146.405 125.397 148.076C123.006 148.089 120.6 148.114 118.208 148.127C117.724 147.486 117.268 147.511 116.827 148.164C114.649 153.013 117.069 156.971 124.301 159.37C127.291 160.363 130.679 160.388 133.883 160.853C135.292 162.812 140.446 161.28 139.364 165.903C138.908 167.812 141.884 166.883 143.321 167.121C145.97 167.548 149.116 166.154 151.137 168.83C147.82 169.948 144.389 169.295 141.001 169.32C139.577 168.955 138.139 168.604 136.716 168.239C136.474 167.209 136.246 166.254 134.594 166.305C119.703 166.719 115.873 164.533 111.246 152.31C110.406 150.099 109.737 148.428 106.847 148.277C106.847 146.117 106.861 143.956 106.861 141.795C117.767 141.23 128.672 141.318 139.563 141.87Z" fill="#1F1F43"/>
<path d="M136.73 168.239C138.154 168.604 139.592 168.955 141.015 169.32C140.061 169.847 138.495 169.47 138.111 170.84C136.687 170.362 134.822 170.073 136.73 168.239Z" fill="#566EA4"/>
<path d="M296.182 115.514C295.427 117.725 297.776 121.004 293.334 121.946C293.178 119.898 292.936 118.001 291.768 116.029C288.679 110.815 288.594 106.205 293.164 100.74C298.702 94.107 304.467 90.2879 313.978 91.7201C316.483 92.097 319.131 91.7955 321.708 91.808C321.922 95.3633 315.743 93.1899 315.985 96.7828C315.045 96.7954 314.092 96.7954 313.152 96.808C311.216 95.0241 309.308 95.0115 307.429 96.8708C303.684 97.2979 300.794 98.8934 298.901 101.808C296.993 101.883 296.068 102.75 296.167 104.446C296.182 108.139 296.182 111.833 296.182 115.514Z" fill="#171E4E"/>
<path d="M298.915 101.82C300.809 98.9058 303.699 97.3104 307.443 96.8833C309.379 98.5164 311.287 98.5667 313.166 96.8204C314.106 96.8079 315.06 96.8079 315.999 96.7953C321.366 96.7953 326.748 96.7702 332.115 96.8079C341.711 96.8707 346.494 100.828 347.405 109.396C347.348 111.016 347.277 112.649 347.206 114.27C345.412 114.446 344.458 115.275 344.53 116.921C344.473 118.127 344.401 119.333 344.345 120.526C341.625 120.853 341.568 122.612 341.625 124.433C339.703 126.179 339.347 128.478 338.806 130.715C338.28 133.617 336.415 135.338 333.112 135.79C328.2 135.765 323.288 135.752 318.377 135.727C307.713 135.689 304.809 133.529 301.663 124.207C300.595 121.041 300.282 117.285 296.196 115.514C296.196 111.82 296.196 108.139 296.196 104.446C297.947 104.27 298.901 103.428 298.915 101.82ZM326.107 101.82C324.442 101.82 322.762 101.971 321.124 101.795C313.038 100.916 303.442 107.247 301.962 111.142C300.396 115.262 304.368 126.682 309.593 130.124C314.86 133.617 320.569 131.556 326.022 131.858C333.055 132.235 337.81 128.215 338.749 122.046C338.963 120.614 338.849 119.056 339.461 117.775C344.971 106.067 342.024 101.833 328.243 101.833C327.531 101.82 326.819 101.82 326.107 101.82Z" fill="#23467E"/>
<path d="M166.428 177.096C166.428 175.991 166.784 175.036 167.923 174.42C168.008 175.563 167.766 176.568 166.428 177.096Z" fill="#1F1F43"/>
<path d="M165.146 184.684C164.734 184.684 164.321 184.696 163.894 184.696C163.951 184.282 164.022 183.88 164.079 183.465C164.449 183.867 164.805 184.269 165.146 184.684Z" fill="#1F1F43"/>
<path d="M290.387 349.167C290.003 348.639 289.761 347.948 289.22 347.622C279.638 341.868 277.332 333.677 279.041 324.129C280.934 322.434 282.813 320.75 284.707 319.054C285.661 318.64 286.614 318.225 287.568 317.823C287.64 320.964 287.013 323.991 286.372 327.082C284.009 338.564 289.419 343.099 301.834 340.461C301.25 344.531 296.281 345.788 294.644 349.179C293.235 349.179 291.811 349.167 290.387 349.167Z" fill="#284074"/>
<path d="M294.658 349.179C296.295 345.788 301.264 344.531 301.848 340.461V340.436C303.642 340.348 304.581 339.519 304.681 337.936L304.695 337.923C306.688 337.848 308.098 337.019 308.838 335.348C309.322 334.921 309.82 334.506 310.304 334.079C311.6 336.981 315.942 338.087 316.042 341.692C314.12 344.167 312.198 346.629 310.276 349.104C306.731 352.006 301.705 353.928 301.762 359.204C296.936 357.232 296.666 352.735 294.658 349.179Z" fill="#192659"/>
<path d="M125.326 106.343C125.469 105.828 125.326 105.037 126.337 105.25C126.579 105.3 126.636 105.954 126.793 106.331C126.309 106.343 125.81 106.343 125.326 106.343Z" fill="#1C1A3C"/>
<path d="M343.077 202.271C345.854 205.789 343.86 209.771 344.473 213.515C341.597 216.442 338.721 219.382 335.845 222.309C330.706 226.153 325.837 230.236 321.736 234.972C316.042 240.399 310.347 245.839 304.652 251.266C302.759 251.944 301.805 253.188 301.748 254.972C299.926 255.035 298.972 255.864 298.901 257.484C297.078 257.547 296.125 258.389 296.053 259.997H296.039C293.576 259.846 292.38 261.869 290.401 262.547C291.284 258.012 295.142 253.728 291.797 248.854C295.569 246.567 298.602 243.741 300.367 239.947C307.856 233.904 315.059 227.636 320.37 219.897C321.309 219.08 322.249 218.251 323.189 217.435C325.196 217.347 326.634 216.518 327.431 214.872H327.445C331.788 212.02 335.56 208.653 338.806 204.822C340.216 203.967 341.639 203.113 343.077 202.271Z" fill="#152B62"/>
<path d="M338.778 204.809C335.546 208.641 331.774 212.008 327.417 214.859C327.987 209.671 331.987 205.927 334.436 201.518C336.885 197.121 338.038 191.531 333.881 188.189C330.407 185.4 324.854 186.882 320.882 189.86C318.718 191.48 316.412 193 314.576 194.885C307.671 201.958 301.606 209.256 305.692 219.545C308.568 226.781 309.308 227.108 315.515 222.146C316.939 221.015 318.22 219.771 320.356 219.897C315.045 227.636 307.842 233.892 300.353 239.947C295.256 239.168 295.413 236.241 296.922 233.025C300.367 225.751 299.542 218.44 297.548 211.078C297.577 210.249 297.605 209.407 297.634 208.578C304.112 207.498 302.061 201.769 304.638 198.566C306.817 197.699 308.226 196.066 309.934 194.671C316.654 189.194 321.167 181.87 328.784 177.171C332.614 177.021 334.279 178.88 336.059 181.807C340.6 189.257 338.024 197.146 338.778 204.809Z" fill="#1D4984"/>
<path d="M328.784 177.146C321.167 181.845 316.668 189.169 309.934 194.646C308.226 196.04 306.817 197.674 304.638 198.54C302.745 199.797 300.851 201.04 298.972 202.297C298.744 197.108 303.457 192.636 301.777 187.234C306.404 186.417 307.514 182.975 308.966 179.772C312.098 179.47 313.636 177.284 315.487 175.45C320.398 170.563 325.324 165.689 330.25 160.815C332.215 160.161 333.397 158.214 335.76 158.202C335.831 159.068 335.888 159.935 335.959 160.815C336.899 163.754 337.824 166.694 338.764 169.621C333.866 170.526 331.617 174.144 328.784 177.146Z" fill="#152B62"/>
<path d="M286.088 286.379C286.116 285.562 286.145 284.733 286.173 283.916C290.373 284.193 290.387 281.743 290.43 279.067C290.501 273.854 291.996 269.042 296.096 265.06C299.015 266.027 299.556 268.602 299.727 270.613C300.239 276.592 303.599 281.856 304.638 287.66C301.962 291.982 296.723 294.054 293.306 297.71C289.149 298.15 287.17 296.806 287.483 292.836C287.625 290.688 288.48 288.188 286.088 286.379Z" fill="#1C4E8F"/>
<path d="M308.952 179.772C307.5 182.963 306.375 186.417 301.762 187.234C301.72 175.902 306.375 165.124 306.774 153.805C306.902 150.375 307.244 146.845 307.557 143.365C310.376 143.34 313.195 143.315 316.013 143.29C315.757 144.27 315.7 146.028 315.23 146.116C308.881 147.322 310.504 151.657 310.276 155.337C310.006 159.835 311.856 164.747 309.379 168.729C306.93 172.699 307.059 176.041 308.952 179.772Z" fill="#284074"/>
<path d="M297.563 211.065C299.556 218.427 300.367 225.739 296.936 233.012C295.427 236.216 295.27 239.156 300.367 239.934C298.602 243.716 295.569 246.555 291.797 248.841C291.911 236.04 295.555 223.653 297.563 211.065Z" fill="#23467E"/>
<path d="M296.082 265.047C291.982 269.017 290.487 273.841 290.416 279.055C290.387 281.743 290.373 284.18 286.159 283.904C287.056 276.693 287.54 269.432 290.373 262.522C292.352 261.844 293.548 259.821 296.011 259.972C296.053 261.68 296.068 263.364 296.082 265.047Z" fill="#23467E"/>
<path d="M286.088 286.379C288.494 288.2 287.64 290.688 287.469 292.836C287.156 296.806 289.134 298.15 293.292 297.71C290.273 303.389 287.54 305.411 283.141 305.198C283.198 304.808 283.169 304.419 283.055 304.029C283.084 303.175 283.112 302.333 283.127 301.479C284.308 296.479 283.881 291.228 286.088 286.379Z" fill="#23467E"/>
<path d="M298.972 202.297C300.866 201.041 302.759 199.797 304.638 198.541C302.061 201.757 304.112 207.473 297.634 208.553C298.075 206.48 298.531 204.395 298.972 202.297Z" fill="#23467E"/>
<path d="M308.952 179.772C307.059 176.028 306.93 172.699 309.379 168.742C311.856 164.76 310.006 159.848 310.276 155.35C310.504 151.657 308.867 147.323 315.231 146.129C315.7 146.041 315.757 144.282 316.014 143.302C318.377 143.302 320.74 143.315 323.103 143.315C323.246 144.697 322.89 146.493 324.997 146.795C330.008 147.511 330.193 150.74 330.222 154.119C330.236 156.355 330.222 158.604 330.222 160.84C325.296 165.714 320.37 170.589 315.458 175.475C313.636 177.297 312.098 179.47 308.952 179.772Z" fill="#23467E"/>
<path d="M330.222 160.827C330.222 158.591 330.25 156.343 330.222 154.106C330.193 150.727 330.008 147.511 324.997 146.782C322.89 146.481 323.231 144.684 323.103 143.302C326.42 143.29 329.752 143.277 333.069 143.277C333.994 143.73 334.92 144.182 335.845 144.634C335.817 149.169 335.774 153.692 335.746 158.227C333.382 158.227 332.201 160.174 330.222 160.827Z" fill="#284074"/>
<path d="M283.126 305.198C287.526 305.411 290.259 303.389 293.277 297.71C296.694 294.042 301.948 291.982 304.61 287.66C305.977 287.208 307.343 286.768 308.71 286.316C311.771 287.635 313.465 289.683 313.195 292.786C313.294 294.921 311.045 295.951 310.276 297.673C306.93 299.733 304.04 302.22 301.762 305.223C296.452 308.916 291.711 313.112 287.554 317.811C286.6 318.225 285.646 318.64 284.693 319.042C283.924 315.65 286.728 311.454 281.802 308.992C281.817 307.723 281.831 306.454 281.845 305.185H282.486L283.126 305.198Z" fill="#152B62"/>
<path d="M281.817 309.004C286.728 311.466 283.938 315.662 284.707 319.054C282.813 320.75 280.934 322.434 279.041 324.13C280.094 319.105 281.845 314.18 281.817 309.004Z" fill="#171E4E"/>
<path d="M283.127 305.198L282.486 305.21H281.845C282.244 304.821 282.642 304.431 283.041 304.029C283.169 304.406 283.183 304.796 283.127 305.198Z" fill="#171E4E"/>
<path d="M138.211 364.229C140.09 367.169 141.969 370.096 143.848 373.036C140.73 373.853 139.449 370.636 136.758 370.511C137.086 368.388 135.762 365.963 138.211 364.229Z" fill="#192659"/>
<path d="M166.584 270.06C164.62 279.607 163.566 289.105 167.282 298.577C167.951 300.286 167.98 302.245 167.994 304.092C168.051 315.989 167.723 327.898 168.122 339.795C168.464 350.021 163.125 358.463 158.199 367.044C156.79 369.493 153.843 371.503 150.525 370.31C146.254 368.777 142.681 365.649 142.624 361.516C142.51 353.426 141.457 345.285 143.336 337.195C144.332 332.911 144.204 328.514 143.208 324.167C142.24 319.896 141.143 315.562 144.347 311.542C145.642 309.909 144.987 308.439 143.763 306.969C141.442 304.167 141.812 300.7 142.638 297.886C147.977 279.72 144.005 261.278 145.243 243.012C145.357 241.329 144.574 240.198 142.567 239.922C142.595 239.105 142.61 238.301 142.638 237.485C145.642 237.535 147.948 236.794 148.119 233.666C147.963 230.902 148.931 228.339 152.191 227.937C155.152 227.573 155.266 230.626 156.562 232.234C157.658 233.59 158.469 235.186 159.822 236.291C161.715 237.837 162 236.153 162.356 234.947C163.196 234.57 164.022 234.193 164.862 233.804C164.933 235.424 165.004 237.045 165.09 238.678C164.648 239.093 164.207 239.52 163.78 239.934C163.78 240.349 163.78 240.776 163.78 241.191C160.762 249.105 162.712 257.196 162.783 265.211C162.797 266.793 164.734 267.422 166.499 267.597C166.527 268.427 166.556 269.243 166.584 270.06Z" fill="#184C8C"/>
<path d="M162.356 234.947C162 236.141 161.73 237.837 159.822 236.291C158.47 235.186 157.658 233.59 156.562 232.234C155.266 230.626 155.138 227.573 152.191 227.937C148.917 228.339 147.963 230.902 148.119 233.666C146.71 233.666 145.286 233.653 143.877 233.653C143.834 232.397 143.806 231.128 143.763 229.872C144.261 227.372 144.76 224.872 145.258 222.359C149.871 219.633 154.341 218.452 158.968 222.56C159.936 223.427 162.029 223.314 163.595 223.666C163.623 224.91 163.652 226.153 163.68 227.397C162.57 227.962 162.37 228.892 162.342 229.897C162.342 231.58 162.342 233.264 162.356 234.947Z" fill="#1D4984"/>
<path d="M143.863 233.653C145.272 233.653 146.696 233.666 148.105 233.666C147.934 236.781 145.628 237.522 142.624 237.485C143.037 236.203 143.45 234.934 143.863 233.653Z" fill="#23467E"/>
<path d="M316.042 341.705C315.956 338.099 311.6 336.994 310.304 334.092C311.144 332.785 313.38 332.333 313.223 330.411V330.398C315.031 330.323 315.942 329.456 316.127 327.898C323.488 322.672 329.524 316.303 335.931 310.235C341.768 307.044 344.7 301.278 350.125 297.71C351.093 296.467 352.075 295.223 353.043 293.979C353.983 293.539 354.922 293.112 355.848 292.673C354.851 296.454 357.542 299.419 358.695 302.735C354.424 306.919 350.167 311.102 345.896 315.285C337.838 322.823 329.78 330.361 321.722 337.911C319.815 339.167 317.935 340.436 316.042 341.705Z" fill="#152B62"/>
<path d="M345.882 315.273C350.153 311.089 354.41 306.906 358.681 302.723C363.123 310.637 362.012 319.544 364.475 327.81C364.418 329.205 364.134 330.649 365.742 331.604C365.785 333.275 365.814 334.933 365.856 336.604C361.799 340.574 359.592 346.152 353.129 348.049L352.972 347.911C357.001 339.82 360.503 332.258 356.403 322.635C354.054 317.069 351.691 315.235 345.882 315.273Z" fill="#23467E"/>
<path d="M350.238 246.216C353.954 250.412 349.285 254.557 350.167 258.741C348.744 260.424 347.32 262.108 345.911 263.791C344.003 265.613 341.141 266.919 341.568 270.01L341.554 270.022C339.732 270.085 338.792 270.914 338.721 272.522L338.707 272.535C335.418 272.484 334.265 275.449 331.688 276.404C331.218 272.585 325.851 274.067 324.47 271.228C324.612 268.653 326.99 267.434 328.698 265.826C333.439 261.354 338.251 256.932 343.02 252.497C346.323 251.203 347.733 248.213 350.238 246.216Z" fill="#152B62"/>
<path d="M350.239 246.216C347.733 248.213 346.324 251.203 343.021 252.497C341.369 251.593 341.668 250.11 341.611 248.741C344.587 247.548 344.174 245.173 344.53 242.887C345.37 237.347 342.423 232.397 341.839 227.158C341.398 223.226 339.889 221.97 335.831 222.322C338.707 219.395 341.583 216.455 344.459 213.528C349.199 224.03 349.655 235.123 350.239 246.216Z" fill="#23467E"/>
<path d="M328.784 177.146C331.617 174.144 333.866 170.526 338.749 169.634C340.686 180.463 343.305 191.216 343.077 202.272C341.654 203.113 340.216 203.968 338.792 204.809C338.023 197.133 340.6 189.257 336.073 181.782C334.279 178.855 332.613 177.008 328.784 177.146Z" fill="#23467E"/>
<path d="M345.896 263.791C347.32 262.108 348.744 260.424 350.153 258.741C353.584 258.829 353.627 261.605 353.883 263.301C355.364 273.037 359.35 282.673 355.819 292.673C354.88 293.112 353.94 293.539 353.015 293.979C353.001 287.961 353.513 281.906 352.83 275.964C352.303 271.366 352.203 266.052 345.896 263.791Z" fill="#284074"/>
<path d="M365.757 331.604C364.148 330.65 364.433 329.192 364.49 327.811C367.55 328.388 368.02 329.645 365.757 331.604Z" fill="#192659"/>
<path d="M316.042 341.705C317.935 340.436 319.815 339.167 321.708 337.898C321.922 348.087 322.776 348.526 334.137 350.775C337.91 351.529 341.027 350.298 344.458 350.448C344.458 352.521 344.444 354.607 344.444 356.679C343.974 357.107 343.49 357.534 343.021 357.961C340.956 357.973 338.835 357.911 338.821 360.536C338.821 360.536 338.806 360.549 338.806 360.536C336.884 360.511 335.945 361.353 335.959 363.036C334.051 363.011 333.097 363.853 333.112 365.536V365.549C325.196 368.576 318.96 367.132 312.896 361.378C308.625 357.32 311.358 353.124 310.262 349.129C312.198 346.654 314.12 344.18 316.042 341.705Z" fill="#1D4984"/>
<path d="M344.458 356.679C344.458 354.607 344.473 352.521 344.473 350.436C346.366 350.423 348.26 350.423 350.139 350.411L350.296 350.549C349.669 353.576 347.163 355.21 344.458 356.679Z" fill="#23467E"/>
<path d="M338.835 360.524C338.849 357.911 340.97 357.961 343.035 357.948C342.28 359.644 340.885 360.486 338.835 360.524Z" fill="#284074"/>
<path d="M335.973 363.036C335.959 361.353 336.899 360.511 338.821 360.536C338.749 362.132 337.796 362.973 335.973 363.036Z" fill="#284074"/>
<path d="M353.143 348.049C352.958 349.556 352.004 350.398 350.281 350.549L350.125 350.411C350.182 348.79 351.136 347.961 352.972 347.898L353.143 348.049Z" fill="#23467E"/>
<path d="M333.126 365.536C333.112 363.853 334.066 363.011 335.973 363.036C335.902 364.657 334.963 365.486 333.126 365.536Z" fill="#284074"/>
<path d="M125.397 148.089C129.17 146.405 132.929 146.38 136.673 148.126C132.914 148.114 129.156 148.101 125.397 148.089Z" fill="#192659"/>
<path d="M155.238 148.139C157.601 146.506 159.964 146.506 162.328 148.139C159.964 148.126 157.601 148.139 155.238 148.139Z" fill="#192659"/>
<path d="M116.841 148.164C117.282 147.511 117.738 147.486 118.222 148.127L117.539 148.24L116.841 148.164Z" fill="#192659"/>
<path d="M156.647 168.352C156.918 167.373 157.188 166.405 157.459 165.425C161.402 166.518 166.328 163.943 169.475 167.95C165.189 168.076 160.918 168.214 156.647 168.352Z" fill="#1C1A3C"/>
<path d="M163.595 187.159C165.531 190.701 167.339 194.244 162.57 197.259C162.328 193.842 162.029 190.425 163.595 187.159Z" fill="#1F1F43"/>
<path d="M163.58 223.666C162.014 223.327 159.921 223.427 158.953 222.56C154.326 218.452 149.856 219.633 145.243 222.359C144.859 220.475 146.34 217.9 142.752 217.234C142.752 216.53 142.752 215.814 142.752 215.111C144.532 215.073 146.325 215.023 148.105 214.985C150.297 216.844 153.102 216.241 155.551 216.015C162.328 215.4 164.719 217.988 163.58 223.666Z" fill="#284074"/>
<path d="M166.485 267.597C164.719 267.422 162.783 266.793 162.769 265.211C162.684 257.196 160.733 249.105 163.766 241.191C164.235 241.191 164.719 241.191 165.189 241.191C165.246 242.02 165.303 242.849 165.36 243.678C165.915 248.276 163.538 253.088 166.698 257.497C167.125 259.595 167.553 261.693 167.965 263.791C166.286 264.695 166.698 266.241 166.485 267.597Z" fill="#23467E"/>
<path d="M166.698 257.497C163.538 253.1 165.915 248.276 165.36 243.678C170.357 247.937 168.051 252.748 166.698 257.497Z" fill="#192659"/>
<path d="M166.485 267.598C166.698 266.241 166.286 264.696 167.965 263.779C170.158 265.851 170.129 267.937 168.065 270.06C167.567 270.06 167.083 270.06 166.585 270.06C166.556 269.243 166.528 268.427 166.485 267.598Z" fill="#192659"/>
<path d="M162.356 234.947C162.356 233.264 162.342 231.58 162.342 229.909C163.196 229.922 164.036 229.935 164.89 229.935C164.89 231.229 164.876 232.51 164.876 233.804C164.022 234.193 163.182 234.57 162.356 234.947Z" fill="#23467E"/>
<path d="M164.876 229.935C164.022 229.922 163.182 229.909 162.328 229.909C162.356 228.904 162.555 227.962 163.666 227.409C164.862 227.95 165.104 228.854 164.876 229.935Z" fill="#284074"/>
<path d="M163.766 239.934C164.207 239.52 164.648 239.093 165.075 238.678C165.104 239.093 165.147 239.52 165.175 239.934C164.705 239.934 164.235 239.934 163.766 239.934Z" fill="#23467E"/>
<path d="M163.766 239.935C164.235 239.935 164.719 239.935 165.189 239.935C165.189 240.349 165.189 240.776 165.189 241.191C164.719 241.191 164.235 241.191 163.766 241.191C163.766 240.776 163.766 240.362 163.766 239.935Z" fill="#192659"/>
<path d="M338.792 130.715C339.347 128.491 339.703 126.192 341.611 124.433C341.027 126.644 343.305 129.873 338.792 130.715Z" fill="#192659"/>
<path d="M341.625 124.433C341.568 122.612 341.64 120.853 344.345 120.526C344.515 122.398 344.601 124.245 341.625 124.433Z" fill="#192659"/>
<path d="M344.544 116.908C344.473 115.263 345.441 114.433 347.22 114.258C347.32 115.928 346.423 116.808 344.544 116.908Z" fill="#192659"/>
<path d="M313.166 96.808C311.287 98.5542 309.379 98.504 307.443 96.8708C309.322 95.0115 311.23 95.0241 313.166 96.808Z" fill="#192659"/>
<path d="M298.915 101.821C298.915 103.429 297.947 104.27 296.182 104.459C296.082 102.763 297.007 101.896 298.915 101.821Z" fill="#192659"/>
<path d="M326.107 101.82C326.819 101.82 327.531 101.82 328.243 101.82C342.038 101.833 344.971 106.054 339.461 117.762C338.849 119.056 338.963 120.602 338.75 122.034C337.824 128.215 333.069 132.222 326.022 131.845C320.555 131.556 314.86 133.604 309.593 130.112C304.382 126.657 300.396 115.25 301.962 111.129C303.442 107.235 313.038 100.903 321.124 101.783C322.762 101.971 324.442 101.82 326.107 101.82Z" fill="#1C4E8F"/>
<path d="M313.223 330.411C313.38 332.333 311.145 332.785 310.305 334.092C309.821 334.519 309.322 334.933 308.838 335.361C306.788 335.373 304.695 335.335 304.695 337.936L304.681 337.948C302.759 337.911 301.819 338.752 301.848 340.448V340.474C289.433 343.112 284.024 338.577 286.387 327.094C287.027 324.004 287.654 320.976 287.583 317.836C291.74 313.137 296.481 308.941 301.791 305.248C302.36 307.974 300.638 309.833 298.929 311.881C294.16 317.584 297.449 323.074 300.681 327.949C303.386 332.031 308.582 331.253 313.223 330.411Z" fill="#1D4984"/>
<path d="M304.695 337.923C304.695 335.336 306.774 335.361 308.838 335.348C308.112 337.032 306.703 337.848 304.695 337.923Z" fill="#284074"/>
<path d="M301.848 340.436C301.805 338.74 302.759 337.911 304.681 337.936C304.581 339.519 303.642 340.36 301.848 340.436Z" fill="#284074"/>
<path d="M341.625 248.741C341.682 250.11 341.369 251.593 343.035 252.497C338.251 256.932 333.454 261.366 328.713 265.826C327.004 267.434 324.627 268.665 324.484 271.228C317.266 274.658 313.095 280.562 308.738 286.316C307.372 286.768 306.005 287.208 304.638 287.66C303.599 281.856 300.239 276.592 299.727 270.612C299.556 268.602 299.015 266.027 296.096 265.06C296.082 263.376 296.054 261.68 296.039 259.997H296.054C297.961 259.997 298.901 259.168 298.901 257.484C300.809 257.497 301.748 256.655 301.748 254.972C304.667 254.922 304.653 253.088 304.653 251.266C310.347 245.839 316.042 240.399 321.737 234.972C323.958 244.595 326.99 246.693 341.625 248.741Z" fill="#1D4984"/>
<path d="M320.37 219.897C318.234 219.784 316.939 221.015 315.529 222.146C309.322 227.108 308.582 226.781 305.706 219.545C301.62 209.256 307.685 201.958 314.59 194.885C316.426 193 318.733 191.48 320.897 189.86C324.869 186.882 330.421 185.4 333.895 188.189C338.066 191.531 336.899 197.121 334.45 201.518C332.001 205.927 328.001 209.671 327.431 214.859H327.417C325.296 214.809 323.203 214.784 323.174 217.422C322.235 218.251 321.309 219.068 320.37 219.897Z" fill="#1C4E8F"/>
<path d="M341.625 248.741C326.99 246.706 323.958 244.595 321.722 234.972C325.837 230.236 330.692 226.153 335.831 222.309C339.889 221.957 341.398 223.214 341.839 227.146C342.423 232.384 345.384 237.334 344.53 242.874C344.188 245.161 344.587 247.547 341.625 248.741Z" fill="#1C4E8F"/>
<path d="M304.638 251.266C304.638 253.088 304.667 254.934 301.734 254.972C301.791 253.176 302.745 251.944 304.638 251.266Z" fill="#23467E"/>
<path d="M323.175 217.422C323.189 214.772 325.296 214.797 327.417 214.859C326.634 216.518 325.196 217.334 323.175 217.422Z" fill="#1D4984"/>
<path d="M301.734 254.972C301.734 256.643 300.78 257.485 298.887 257.485C298.958 255.864 299.912 255.035 301.734 254.972Z" fill="#23467E"/>
<path d="M298.887 257.472C298.901 259.155 297.947 259.984 296.039 259.984C296.11 258.376 297.064 257.535 298.887 257.472Z" fill="#23467E"/>
<path d="M313.223 330.411C308.582 331.253 303.385 332.031 300.652 327.923C297.42 323.049 294.146 317.559 298.901 311.856C300.609 309.808 302.332 307.961 301.762 305.223C304.04 302.22 306.916 299.745 310.276 297.673C311.429 297.547 312.696 297.66 313.721 297.271C330.307 290.939 335.931 294.054 335.902 309.595C335.902 309.796 335.902 310.009 335.902 310.21C329.51 316.278 323.473 322.647 316.099 327.873C314.163 327.823 313.18 328.64 313.194 330.373L313.223 330.411Z" fill="#1C4E8F"/>
<path d="M335.916 310.235C335.916 310.034 335.916 309.821 335.916 309.62C335.945 294.08 330.307 290.964 313.736 297.296C312.711 297.685 311.443 297.572 310.29 297.698C311.059 295.977 313.323 294.934 313.209 292.811C314.576 292.334 315.957 291.869 317.323 291.391C328.229 288.452 334.806 281.693 338.693 272.547L338.707 272.535C340.629 272.56 341.568 271.731 341.54 270.035L341.554 270.022C348.63 270.927 345.569 277.899 349.655 280.575C344.53 285.261 350.979 290.989 347.918 295.952C347.206 297.095 348.943 297.497 350.096 297.71C344.686 301.266 341.768 307.032 335.916 310.235Z" fill="#1D4984"/>
<path d="M317.323 291.379C315.956 291.856 314.575 292.321 313.209 292.798C313.479 289.695 311.785 287.635 308.724 286.328C313.081 280.575 317.252 274.67 324.47 271.241C325.837 274.08 331.218 272.597 331.674 276.417C326.904 281.391 322.107 286.379 317.323 291.379Z" fill="#192659"/>
<path d="M352.986 347.911C351.15 347.961 350.196 348.803 350.139 350.423C348.246 350.436 346.352 350.436 344.473 350.448C341.042 350.298 337.924 351.529 334.151 350.775C322.776 348.526 321.936 348.086 321.722 337.898C329.78 330.361 337.838 322.823 345.896 315.273C351.705 315.235 354.068 317.057 356.432 322.635C360.518 332.258 357.015 339.82 352.986 347.911Z" fill="#1C4E8F"/>
<path d="M350.111 297.698C348.957 297.484 347.22 297.082 347.932 295.939C350.993 290.977 344.544 285.261 349.669 280.562C345.569 277.874 348.644 270.901 341.568 270.01C341.156 266.919 344.017 265.613 345.911 263.791C352.218 266.04 352.317 271.366 352.844 275.952C353.527 281.906 353.029 287.962 353.029 293.967C352.047 295.21 351.079 296.454 350.111 297.698Z" fill="#23467E"/>
<path d="M313.223 330.386C313.209 328.665 314.177 327.848 316.127 327.886C315.942 329.444 315.031 330.323 313.223 330.386Z" fill="#1D4984"/>
<path d="M317.323 291.379C322.107 286.391 326.89 281.404 331.674 276.417C334.251 275.462 335.404 272.497 338.693 272.547C334.806 281.668 328.229 288.426 317.323 291.379Z" fill="#23467E"/>
<path d="M341.54 270.022C341.568 271.718 340.629 272.547 338.707 272.522C338.778 270.914 339.718 270.085 341.54 270.022Z" fill="#23467E"/>
</g>
<defs>
<clipPath id="clip0_6_1650">
<rect width="457" height="451" fill="white"/>
</clipPath>
</defs>
</svg>
