<svg version="1.2" xmlns="http://www.w3.org/2000/svg" viewBox="0 0 457 451" width="457" height="451">
	<defs>
		<clipPath clipPathUnits="userSpaceOnUse" id="cp1">
			<path d="m0 0h457v451h-457z"/>
		</clipPath>
	</defs>
	<style>
		.s0 { fill: #1c1a3c } 
		.s1 { fill: #1f1f43 } 
		.s2 { fill: #161436 } 
		.s3 { fill: #192659 } 
		.s4 { fill: #171e4e } 
		.s5 { fill: #f0edf9 } 
		.s6 { fill: #284074 } 
		.s7 { fill: #d4d2dc } 
		.s8 { fill: #566ea4 } 
		.s9 { fill: #23467e } 
		.s10 { fill: #152b62 } 
		.s11 { fill: #1d4984 } 
		.s12 { fill: #1c4e8f } 
		.s13 { fill: #184c8c } 
	</style>
	<g id="Clip-Path" clip-path="url(#cp1)">
		<g>
			<path class="s0" d="m76.98 108.1c2.03-6.09 7.22-8.68 13.84-8.7 42.31-0.13 84.61-0.17 126.92 0.01 9.72 0.04 15.54 5.8 15.72 14.42 0.08 4.79-0.06 9.59-0.09 14.37-5.18 1.81-3.1 8.23-8.23 10.06-0.07-7.73-0.08-15.46-0.24-23.2-0.07-3.64-0.44-7.26-5.64-8.23-0.48-2.41 3.27-2.02 3.63-5.01-9.91 0-19.65 0.13-29.37-0.05-4.77-0.09-8.47 1.22-11.23 4.64q-1.43-0.01-2.86-0.02c-0.18-0.74-0.33-1.59-1.41-1.59-1.07 0-1.24 0.84-1.43 1.58q-2.86-0.02-5.71-0.02c-0.47-0.53-0.86-1.42-1.42-1.51-1-0.16-1.21 0.78-1.4 1.51q-1.42 0-2.87-0.02-0.71-0.79-1.41-1.58-0.7 0.79-1.42 1.57-2.87-0.01-5.71-0.01c-0.15-0.37-0.2-1.01-0.44-1.06-0.99-0.21-0.79 0.59-0.97 1.06q-2.87-0.02-5.71-0.03-4.97-4.6-9.94 0-3.56 0.01-7.13 0.02c-0.7-3.03-2.41-4.65-6.28-4.53-6.81 0.22-13.64 0.18-20.46 0.02-4.77-0.12-4.31 1.93-2.86 4.62-6.95 0.83-5.62 4.19-3.12 7.93 0.1 2.22-0.01 4.41-1.39 6.39q-0.02 1.85-0.03 3.71-1.46 0.62 0 1.25l0.54-0.09c-0.33 0.8-0.16 1.2 0.9 0.87q1.38-0.01 2.76-0.01 13.6-0.03 27.21-0.06 24.36 0.02 48.73 0.05 13.79 0.03 27.59 0.07 0.92 0.23 1.83 0.45c-0.76 4.2 2.9 6.98 3.85 10.91 2.73-1.71 2.19-3.92 1.72-5.39-2.15-6.6 0.53-13.07 0.17-19.6-0.11-1.97-0.67-4.37 2.82-4.79 0 9.19 0.29 18.37-0.1 27.54-0.2 4.81 1.21 7.19 7.01 6.3 1.53 1.2 1.24 1.82-0.66 2.52-6.21 2.3-10.83 0.05-14.99-3.78 1.01-4.31 0.44-7.22-5.98-6.31-2.73 0.39-5.64-0.29-8.46-0.29q-47.42 0.18-94.87 0.39c-1.95 1.21-1.38 2.82-1.05 4.49 1.08 5.54-1.63 7.59-7.83 6.05-6.3-1.55-10.74-4.07-11.66-10.76-0.64-4.58-0.2-9.12-0.94-13.61-0.7-4.22 2.1-8.36 0.07-12.55zm12.83 15.25q-0.02 0-0.03 0c0-3.54 0.2-7.08-0.07-10.61-0.16-1.97 1.62-5.34-2.34-5.48-3.4-0.11-4.38 3.07-4.5 5.49-0.28 6.23-0.17 12.49 0.05 18.72 0.05 1.59 0.92 3.21 1.68 4.73 0.66 1.35 1.85 2.83 3.58 2.62 2.24-0.28 1.58-2.26 1.61-3.61 0.07-3.94 0.02-7.9 0.02-11.86z"/>
			<path class="s0" d="m269.66 340.2q-0.44-1.17-0.88-2.35 0.03-2.5 0.07-4.99c5.75-35.98 11.43-71.96 17.25-107.94 3.99-24.62 8.12-49.23 12.29-73.83 0.95-5.61 1.35-11.13-0.91-16.57 0.08-1.03 0.28-2.02 1.45-2.59q1.42 1.27 2.83 2.53c0.49 3.08 1.81 6.28 1.27 9.21-1.61 8.6-1.1 17.36-3.16 25.98-1.35 5.64-4.1 11.11-3.79 17.04 0.44 8.12-2.55 15.88-3.89 23.76-1.03 6.12-1.26 12.35-2.53 18.47-2.06 9.88-3.36 19.88-4.98 29.85-5.6 2.86-1.58 7.6-2.82 11.3q-0.03 4.39-0.03 8.78c-4.51 0.87-2.22 4.07-2.79 6.3q-0.02 6.89-0.04 13.8c-3.93 0.63-2.62 3.41-2.79 5.49-0.53 6.2 1.29 12.57-1 18.6-4.87 12.77 0.73 24.12 15.18 29.91q0 1.25 0.01 2.51 0.02 1.27 0.04 2.54-0.06 0.71-0.12 1.43-0.6-0.16-1.24-0.25-9.7-9.49-19.42-18.98z"/>
			<path class="s0" d="m179.5 311.28c0.35 0.25 1.01 0.48 1.04 0.74 1.45 18.55 2.72 37.11-2.94 55.36-0.68 2.2-1.76 4.34-3 6.34-4.19 6.82-10.15 11.82-19.42 11.74-9.72-0.09-16.87-4.41-21.44-12.07-3.33-5.6-4.98-11.56-5.71-17.83-3.33-28.49 1.72-56.71 3.62-85.02 0.62-9.37 1.61-18.73 2.43-28.1q1.34 0 2.68 0.01c0.97 10.93-1.67 21.73-1.41 32.64-2.35 1.84-1.3 4.29-1.41 6.49-0.27 5.39 0.63 10.85-1.44 16.12q0 1.87 0 3.74c-0.47 0.92-1.34 1.82-1.35 2.74-0.09 17.35-0.53 34.72 0.24 52.05 0.21 4.72 0.8 10.34 5.34 14.28 2.04 7.94 9.48 10.48 16.93 12.34 5.05 1.25 13.96-4.75 17.18-10.25 7.1-12.14 7.67-25.35 8.43-38.56q0-2.45 0-4.91-0.02-5.71-0.03-11.41 0.04-0.52 0.11-1.06 0.02-2 0.03-4 0.05-0.68 0.12-1.38z"/>
			<path class="s1" d="m327.39 384.32l-0.5 0.2-0.54-0.08q-0.88 0.67-1.75 1.33-1.39 2.94-4.36 1.13c0.06-2.87-2.83-4.03-4.44-5.94-3.67-4.34-8.87-7.67-11.18-12.95 1.9-0.05 2.81-0.95 2.88-2.59 3.2 0.24 4.24 2.89 6.35 4.35 4.3 2.96 8 9.25 14.89 3.22 1.14-0.17 2.64 0.02 3.36-0.56q17.65-14.13 35.08-28.48c2.32-1.91 3.37-4.44 2.88-7.33q0-2.52 0.01-5.04c1.88-0.25 3.59-0.58 1.41-2.56 0.21-1.8-0.44-3.41-1.41-4.94 0.57-2.93-1.24-6.14 1.4-8.82 5.09 15.06 4.96 28.34-11.17 39.41-10.47 7.19-17.91 17.59-27.97 25.5q-0.95 1-1.89 1.97l0.17-0.11c-2.01-0.24-3.11 0.48-3.22 2.29z"/>
			<path class="s0" d="m371.47 315.29c-2.64 2.67-0.83 5.89-1.4 8.81-0.78-0.39-2.18-0.69-2.28-1.19-2.18-11.11-5.79-22.22-5.85-33.37-0.08-13.82-1.69-27.46-3.69-41-1.65-11.19-5.76-22.12-5.31-33.63-0.32-2.59 1.23-5.44-1.41-7.69q-0.7-3.09-1.41-6.18 1.41-0.01 2.81-0.01c3.34 20 6.72 39.98 9.99 59.98 1.58 9.69 2.95 19.4 4.42 29.11-0.8 6.57-0.37 13.09 1.19 19.56 0.37 1.5 0.59 2.84 2.66 3.08q0.14 1.26 0.28 2.53z"/>
			<path class="s1" d="m203.56 149.38c-0.49 0.71-1.07 1.37-1.41 2.11-4 8.81-9.24 16.5-21.1 18.21-2.83-1.52-5.67-1.82-8.5-0.02q-0.06-0.86-0.14-1.73-0.13-0.43-0.06-0.87 0.69-0.6 1.38-1.2c0.23-1.81-0.4-3.43-1.41-4.97 3.26-0.06 6.55 0.03 9.8-0.22 6.85-0.53 12.27-6.52 11.49-12.49-8.39-2.66-17.07-0.45-25.57-1.19-0.37-2.89 4.82-2.15 4.28-5.14 7.58-0.58 15.16-0.49 22.74 0.03 0.1 2.21 1.75 2.63 3.84 2.63 3.67 0 4.88 1.9 4.66 4.85z"/>
			<path class="s2" d="m171.75 193.4q0.04 7.62 0.1 15.23c-1.39 2.95-1.73 5.86 0.39 8.7 2.07 22.2 4.86 44.38 5.89 66.61 0.4 8.74 2.96 17.5 1.12 26.32-5.32-2.94-1.46-7.59-2.69-11.29q-4.25-42.06-8.51-84.14c0-6.37-0.03-12.73 0.03-19.1 0.01-1.98-0.63-4.34 2.82-4.77q0.39 1.23 0.85 2.44z"/>
			<path class="s2" d="m352.93 201.03q-1.4 0-2.81 0.01c-1.93-0.26-3.03-1.29-2.74-2.98 1.88-10.94-3.03-21.39-2.94-32.19 0.22-1.95-0.74-3.61-1.53-5.34-3.31-7.19-5.27-14.53-2.72-22.29 4.47-8.77 9.55-17.31 13.02-26.46 1.5-3.93 1.98-7.6-3.03-9.99-0.78-1.74-2.75-3.52 0.23-5.13 7.56 5.71 10.44 11.82 4.8 20.41-4.57 6.97-7.39 14.85-11.09 22.27-3.16 6.35 0.25 12.52 1.21 18.55 1.08 6.82 2.35 13.73 3.27 20.56 0.49 3.51 3.08 6.51 2.41 10.1-1.18 1.35-1.16 2.58 0.45 3.66q0.07 0.63 0.13 1.26c-1.92 2.04-2.52 3.88 1.04 5.03q0.15 1.28 0.3 2.53z"/>
			<path class="s2" d="m136.74 242.46q-1.33-0.01-2.67-0.01c0.88-13.26 1.69-26.51 2.67-39.76 0.69-9.29-0.35-18.28-4.98-26.78 2.68-0.07 4.7 0.76 4.87 3.36 0.33 5.14 3.91 9.73 3.02 15.1-0.24 1.46-0.59 3.86 2.2 3.68 2.61-0.16 1.68-2.47 1.98-3.99 0.62-3.13-1.51-6.63 1.63-9.41 1.44 3.17 0.82 6.52 0.82 9.78 0.02 13.8-0.04 13.8 15.85 13.53-3.82 3.76-9.01 2.2-13.03 1.51-6.19-1.08-7 1.1-6.67 5.36-1.87 0.05-2.82 0.88-2.81 2.54 0.2 6.82-3.25 13.24-2.78 20.09q-0.05 2.5-0.1 5zm4.62-39.9c-0.63 0.5-1.29 0.8-1.38 1.21-0.12 0.46 0.09 1.3 0.48 1.49 0.97 0.48 1.67-0.05 1.68-0.95 0-0.51-0.43-1-0.78-1.75z"/>
			<path class="s3" d="m176.55 298.95c1.22 3.71-2.62 8.36 2.69 11.3q0.34 0.47 0.26 1.01-0.07 0.7-0.13 1.4c-1.81 1.32-1.71 2.66-0.03 3.99q-0.07 0.53-0.1 1.07c-4.24 3.81-4.26 7.61 0.03 11.41q0 2.46 0 4.91c-3.29 0.52-2.75 2.82-2.66 4.72 0.11 2.63-0.69 4.35-4.1 4.16-0.15-7.94 0.07-15.9-0.49-23.83-1.02-14.7-2.47-29.38-3.76-44.07 1.2 0.24 2.41 0.69 2.44 1.87 0.13 6.29 4.61 11.98 3.09 18.5-0.43 1.78 0.31 3.31 2.76 3.56z"/>
			<path class="s0" d="m145.46 184.65c-3.12 2.78-1.01 6.28-1.63 9.41-0.3 1.5 0.63 3.83-1.98 3.99-2.79 0.16-2.44-2.24-2.2-3.68 0.89-5.37-2.69-9.96-3.02-15.1-0.17-2.6-2.19-3.42-4.87-3.36-2.42-4.72-5.55-8.48-12.27-8.65-3.13-0.08-4.7-2.35-5.9-4.76-2.16-4.36-4.49-8.65-6.76-12.95q0.02-0.64 0.03-1.29c2.89 0.15 3.56 1.81 4.4 4.04 4.63 12.22 8.44 14.42 23.35 13.99 1.65-0.05 1.88 0.91 2.12 1.94-1.91 1.84-0.03 2.12 1.38 2.6 4.91 3.58 7.29 8.21 7.35 13.82z"/>
			<path class="s0" d="m292.1 123.16c-0.46-0.72-0.83-1.52-1.39-2.18-9.15-10.92-4.28-20.04 4.53-28.8 1.88-1.87 3.85-2.91 6.68-2.9q19.54 0.05 39.08-0.03c4.11-0.03 6.59 1.83 8.14 4.96-8.88-3.07-18.19-2.43-27.43-2.39-2.58-0.01-5.23 0.29-7.73-0.09-9.51-1.43-15.28 2.39-20.82 9.02-4.57 5.47-4.48 10.08-1.39 15.29 1.17 1.97 1.41 3.87 1.56 5.92q-0.02 0.6-0.05 1.2-0.58-0.01-1.18 0z"/>
			<path class="s2" d="m203.56 149.38c0.22-2.95-0.99-4.85-4.66-4.85-2.09 0-3.74-0.42-3.84-2.63 4.14-0.95 8.6 0.66 12.63-1.21 4.15 3.83 8.78 6.07 14.99 3.78 1.89-0.7 2.19-1.32 0.65-2.52q0.9-1.85 1.8-3.69c5.12-1.83 3.04-8.25 8.22-10.06q0.05 3.14 0.09 6.27c-5.14 1.51-1.87 5.21-2.65 7.87-2.79 4.71-7.29 6.8-13.22 6.98-4.67 0.14-9.36-0.95-14.01 0.06z"/>
			<path class="s2" d="m106.86 148.26q-0.01 0.65-0.03 1.29c-3.97-2.05-8.28-0.87-12.43-0.95-12.81-0.22-19-5.18-18.89-16.38 0.09-8.04-1.86-16.23 1.47-24.13 2.05 4.18-0.77 8.33-0.09 12.56 0.73 4.49 0.3 9.04 0.94 13.61 0.94 6.69 5.38 9.21 11.66 10.76 6.21 1.54 8.91-0.51 7.83-6.05-0.32-1.68-0.89-3.28 1.06-4.49 0.02 4.98 3.21 7.1 8.5 7.3q0 3.26-0.02 6.48z"/>
			<path class="s3" d="m321.72 91.82c9.24-0.04 18.54-0.68 27.44 2.39 1.26 0.47 0.99 1.57 1.25 2.45-2.98 1.62-1 3.4-0.23 5.14-0.98 2.51 2.21 6.2-2.76 7.58-0.91-8.56-5.7-12.52-15.29-12.58-5.37-0.04-10.75-0.02-16.12-0.02-0.25-3.59 5.93-1.4 5.71-4.96z"/>
			<path class="s2" d="m172.53 169.68c2.84-1.81 5.69-1.49 8.5 0.02q-0.78 1.22-1.59 2.45c-3.42 0.49-2.8 2.62-2.43 4.66q-0.32 0.79-0.66 1.59c-3.76 0.83-2.33 3.42-2.42 5.5q-0.28 1.02-0.56 2.03-1.24 0.04-2.46 0.07c-1.78-0.93-3.66-1.51-5.76-1.33q-0.53-0.61-1.06-1.22c0.27-2.26 0.77-4.47 2.32-6.37 1.36-0.52 1.58-1.53 1.5-2.67 0.87-2.09 2.38-3.68 4.62-4.73z"/>
			<path class="s4" d="m307.5 365.42c-0.06 1.64-0.98 2.54-2.88 2.59-4.84-1.85-6.42-8.14-13.09-7.46q-0.6-0.57-1.21-1.13 0.06-0.72 0.12-1.43c0.73-0.34 1.97-0.58 2.08-1.02 0.32-1.35-1.08-1.33-2.12-1.52q-0.01-1.26-0.01-2.51-0.01-1.9 0.01-3.79 2.14 0.02 4.27 0.03c2.01 3.54 2.28 8.04 7.11 10.04 0.92 2.77 5.26 3.09 5.72 6.2z"/>
			<path class="s5" d="m269.66 340.2q9.71 9.48 19.43 18.97c-9.07-0.51-14.45-6.41-20.27-11.31-2.24-1.87-2.38-5.34 0.84-7.66z"/>
			<path class="s2" d="m291.53 360.55c6.69-0.68 8.25 5.61 13.09 7.46 2.3 5.28 7.49 8.61 11.18 12.95 1.61 1.91 4.5 3.07 4.44 5.94-3.24 0.45-4.48-2.02-6.08-3.58-7.66-7.5-15.1-15.16-22.63-22.77z"/>
			<path class="s1" d="m371.19 312.77c-2.06-0.24-2.29-1.58-2.66-3.07-1.58-6.47-2.01-12.98-1.19-19.56 2.16 7.42 2.91 15.03 3.85 22.63z"/>
			<path class="s1" d="m292.1 123.16q0.59-0.01 1.18-0.01c3.78 1.97 6.32 4.59 5.65 8.8-1.17 0.56-1.37 1.54-1.45 2.58q-2.69-5.68-5.38-11.37z"/>
			<path class="s0" d="m230.79 142.34c0.78-2.66-2.49-6.36 2.65-7.87 0.29 2.93 0.91 5.94-2.65 7.87z"/>
			<path class="s1" d="m170.91 186.02q1.24-0.04 2.47-0.08-0.81 3.74-1.64 7.47-0.44-1.21-0.89-2.43 0.04-2.49 0.06-4.96z"/>
			<path class="s0" d="m352.63 198.51c-3.56-1.16-2.96-2.98-1.04-5.03q0.53 2.52 1.04 5.03z"/>
			<path class="s1" d="m172.22 217.33c-2.12-2.82-1.78-5.75-0.38-8.7q0.19 4.35 0.38 8.7z"/>
			<path class="s1" d="m173.94 183.92c0.08-2.09-1.35-4.69 2.43-5.5q-1.23 2.75-2.43 5.5z"/>
			<path class="s1" d="m177.01 176.81c-0.37-2.04-0.99-4.17 2.43-4.66q-1.22 2.33-2.43 4.66z"/>
			<path class="s5" d="m268.86 332.86q-0.03 2.49-0.07 4.99-2.55-2.52 0.07-4.99z"/>
			<path class="s2" d="m327.39 384.32c0.11-1.81 1.21-2.53 3.2-2.26-0.75 1.09-1.29 2.45-3.2 2.26z"/>
			<path class="s0" d="m351.46 192.22c-1.61-1.08-1.65-2.3-0.45-3.65q0.21 1.82 0.45 3.65z"/>
			<path class="s2" d="m330.42 382.17q0.95-0.98 1.89-1.97-0.93 0.96-1.89 1.97z"/>
			<path class="s2" d="m324.61 385.77q0.88-0.66 1.75-1.33-0.88 0.66-1.75 1.33z"/>
			<path class="s2" d="m98.33 120.72c1.38-1.98 1.48-4.18 1.4-6.4 1.88-0.11 3.76-0.31 5.64-0.31 32.14 0.02 64.29 0.13 96.44 0.01 2.64-0.01 7.48 2.64 7.56-3.3 0.07-6.09-4.86-3.77-7.99-3.95-6.35-0.36-12.74-0.28-19.11-0.38 2.75-3.41 6.47-4.72 11.24-4.63 9.72 0.19 19.46 0.05 29.37 0.05-0.35 2.99-4.1 2.6-3.63 5.01-1.14 0.09-2.21 0.29-2.82 1.28-3.49 0.42-2.93 2.82-2.82 4.79 0.35 6.52-2.31 13-0.17 19.6 0.48 1.47 1.01 3.68-1.72 5.38-0.96-3.93-4.62-6.7-3.85-10.9 2.31-4.32 2.07-5.6-1.29-6.85-9.57-0.52-19.14-0.67-28.71 0.05-16.13-0.47-32.26-0.56-48.39 0.09-8.99-0.59-17.98-0.89-26.95 0.32-1.43-0.82-2.86-1.33-4.2 0.14z"/>
			<path class="s5" d="m182.27 106.39c6.38 0.1 12.76 0.02 19.11 0.38 3.12 0.18 8.06-2.14 7.99 3.95-0.08 5.94-4.92 3.29-7.56 3.3-32.15 0.12-64.3 0.01-96.44-0.01-1.88 0-3.76 0.2-5.64 0.31-2.51-3.73-3.83-7.1 3.12-7.93q11.24-0.03 22.48-0.06 0.72 0 1.46 0 2.84-0.02 5.67-0.05 3.57-0.01 7.13-0.01 4.97 0 9.94 0 2.86 0.01 5.71 0.02 0.71 0 1.39 0 2.87 0.01 5.71 0.02 1.41 0 2.82 0.01 1.43 0 2.88 0.01 1.41 0 2.82 0.01 2.86 0.03 5.7 0.03 1.41 0 2.82 0.01 1.46 0.01 2.89 0.01z"/>
			<path class="s5" d="m106.88 141.79c-5.3-0.21-8.48-2.32-8.5-7.29 31.62-0.14 63.24-0.29 94.87-0.39 2.82-0.02 5.72 0.68 8.46 0.29 6.42-0.92 6.99 1.99 5.98 6.3-4.03 1.87-8.49 0.27-12.63 1.21-7.58-0.52-15.15-0.6-22.74-0.03-10.92-0.55-21.84-0.53-32.76 0-10.89-0.56-21.79-0.65-32.69-0.09z"/>
			<path class="s5" d="m129.48 120.25c16.13-0.64 32.26-0.56 48.39-0.09q0.3 3.14 0.59 6.27-24.37-0.02-48.73-0.05-0.14-3.06-0.25-6.13z"/>
			<path class="s6" d="m216.43 108.1c0.61-0.99 1.69-1.18 2.82-1.28 5.19 0.97 5.56 4.59 5.63 8.23 0.16 7.73 0.18 15.46 0.25 23.2q-0.9 1.85-1.8 3.68c-5.81 0.89-7.22-1.49-7-6.29 0.38-9.17 0.1-18.35 0.1-27.54z"/>
			<path class="s6" d="m89.81 123.35c0 3.96 0.05 7.92-0.03 11.88-0.03 1.34 0.62 3.32-1.61 3.6-1.74 0.21-2.92-1.27-3.59-2.61-0.75-1.51-1.62-3.14-1.68-4.74-0.21-6.24-0.33-12.49-0.04-18.72 0.11-2.41 1.09-5.6 4.5-5.49 3.95 0.14 2.17 3.5 2.33 5.48 0.27 3.52 0.07 7.07 0.07 10.61q0.03-0.01 0.05-0.01z"/>
			<path class="s7" d="m178.44 126.44q-0.29-3.13-0.58-6.27c9.57-0.71 19.13-0.56 28.7-0.05 0.93 2.2-0.14 4.28-0.53 6.4q-13.79-0.04-27.59-0.08z"/>
			<path class="s7" d="m129.48 120.25q0.12 3.07 0.25 6.13-13.61 0.03-27.21 0.06 0.01-2.94 0.03-5.88c8.95-1.2 17.94-0.9 26.93-0.31z"/>
			<path class="s2" d="m132.44 106.28q-2.83 0.03-5.66 0.05c-0.14-0.38-0.21-1.03-0.46-1.08-0.99-0.23-0.87 0.56-1.01 1.09q-11.24 0.03-22.48 0.07c-1.45-2.71-1.91-4.74 2.86-4.63 6.82 0.17 13.64 0.2 20.46-0.01 3.89-0.13 5.61 1.49 6.29 4.51z"/>
			<path class="s2" d="m149.53 106.27q-4.97 0-9.94 0 4.96-4.6 9.94 0z"/>
			<path class="s5" d="m102.53 120.58q-0.01 2.94-0.03 5.88-1.38 0-2.76 0.01-0.15-0.66-0.89-0.87l-0.55 0.09q0-0.63 0-1.26 0.02-1.85 0.03-3.7c1.34-1.48 2.76-0.97 4.2-0.15z"/>
			<path class="s5" d="m206.03 126.52c0.39-2.12 1.46-4.2 0.53-6.4 3.38 1.25 3.62 2.53 1.3 6.85q-0.9-0.23-1.83-0.45z"/>
			<path class="s2" d="m170.87 106.34q-1.41 0.01-2.82-0.01c0.19-0.73 0.4-1.66 1.4-1.51 0.55 0.09 0.95 0.98 1.42 1.52z"/>
			<path class="s2" d="m179.4 106.38q-1.41-0.01-2.82-0.01c0.17-0.74 0.34-1.6 1.42-1.58 1.07 0 1.23 0.85 1.4 1.59z"/>
			<path class="s2" d="m165.18 106.32q-1.41-0.01-2.82-0.01 0.7-0.79 1.42-1.57 0.69 0.81 1.4 1.58z"/>
			<path class="s2" d="m156.63 106.29q-0.71 0-1.39 0c0.18-0.46-0.02-1.28 0.97-1.05 0.22 0.05 0.28 0.69 0.42 1.05z"/>
			<path class="s2" d="m98.32 124.42q0 0.63 0 1.26-1.46-0.63 0-1.26z"/>
			<path class="s7" d="m98.86 125.6q0.75 0.21 0.9 0.87c-1.07 0.31-1.24-0.08-0.9-0.87z"/>
			<path class="s4" d="m279 298.95q0.02-6.89 0.04-13.8c4.51-0.87 2.22-4.07 2.79-6.3q0.03-4.39 0.03-8.78c5.61-2.86 1.59-7.6 2.82-11.3 1.62-9.95 2.92-19.97 4.98-29.85 1.28-6.12 1.5-12.35 2.53-18.47 1.34-7.86 4.33-15.63 3.89-23.76-0.31-5.93 2.44-11.4 3.79-17.04 2.05-8.62 1.55-17.38 3.16-25.98 0.54-2.93-0.8-6.13-1.27-9.21 5.77 1.02 5.53 5.09 5.8 8.89-0.32 3.48-0.66 7.01-0.79 10.44-0.41 11.33-5.07 22.1-5.01 33.43 1.68 5.4-3.03 9.88-2.8 15.06q-0.66 3.13-1.33 6.27-0.04 1.25-0.08 2.5c-1.99 12.58-5.65 24.96-5.77 37.78 3.33 4.86-0.51 9.16-1.39 13.69-2.84 6.91-3.33 14.17-4.22 21.38q-0.04 1.24-0.08 2.47c-2.2 4.84-1.77 10.1-2.96 15.1-2.07 0.03-4.02-0.07-4.13-2.52z"/>
			<path class="s3" d="m307.57 143.37c-0.28-3.81-0.04-7.88-5.79-8.9q-1.42-1.26-2.84-2.52c0.66-4.21-1.86-6.83-5.65-8.8q0.04-0.6 0.06-1.2c4.44-0.95 2.08-4.23 2.83-6.44 4.09 1.79 4.4 5.53 5.47 8.7 3.15 9.32 6.06 11.47 16.71 11.52q7.37 0.03 14.74 0.06-0.03 3.74-0.03 7.49-4.98 0.02-9.97 0.02-3.54 0-7.09-0.01-4.21 0.04-8.44 0.08z"/>
			<path class="s1" d="m279 298.95c0.11 2.45 2.06 2.57 4.13 2.53q-0.04 1.28-0.07 2.54-0.6 0.58-1.2 1.18-0.02 1.9-0.04 3.82c0.03 5.17-1.73 10.1-2.78 15.11-1.71 9.55 0.6 17.74 10.18 23.49 0.54 0.33 0.78 1.02 1.17 1.55q0 1.89-0.02 3.78c-14.45-5.81-20.04-17.14-15.17-29.91 2.29-6.03 0.47-12.4 0.99-18.6 0.19-2.09-1.12-4.86 2.81-5.49z"/>
			<path class="s1" d="m284.69 258.77c-1.24 3.71 2.79 8.44-2.82 11.3 1.24-3.7-2.79-8.44 2.82-11.3z"/>
			<path class="s1" d="m281.83 278.85c-0.57 2.23 1.72 5.44-2.79 6.3 0.57-2.23-1.72-5.44 2.79-6.3z"/>
			<path class="s1" d="m290.4 355.45c1.03 0.19 2.44 0.17 2.12 1.52-0.1 0.45-1.35 0.69-2.08 1.02q-0.02-1.26-0.04-2.54z"/>
			<path class="s4" d="m172.51 342.94c3.41 0.18 4.21-1.54 4.1-4.16-0.09-1.91-0.63-4.21 2.66-4.73-0.76 13.21-1.32 26.42-8.43 38.56-3.22 5.5-12.13 11.51-17.18 10.25-7.45-1.86-14.88-4.4-16.93-12.34l0.03-0.01c2.69 0.13 3.97 3.34 7.09 2.53 10.65 7.66 19.05 5.7 24.17-5.69 3.52-7.84 4.6-16.05 4.49-24.41z"/>
			<path class="s4" d="m136.73 370.52c-4.56-3.93-5.14-9.56-5.34-14.28-0.77-17.32-0.33-34.7-0.24-52.05 0-0.92 0.88-1.82 1.35-2.74q2.17 0 4.33 0.02c-0.18 6.88-0.18 13.77-0.58 20.64-0.84 14.09-2.98 28.22 1.98 42.11-2.45 1.73-1.13 4.16-1.47 6.28z"/>
			<path class="s3" d="m136.74 242.46q0.05-2.49 0.1-4.99c2.89-0.34 2.82-2.28 2.72-4.11-0.14-2.67 1.43-3.6 4.19-3.48q0.06 1.89 0.11 3.79-0.62 1.91-1.24 3.82-0.03 1.21-0.07 2.43c-0.15 15.47-3.34 30.77-3.1 46.26 0.01 0.9-0.84 1.82-1.28 2.74-3.8-4.15 0.91-9.66-2.84-13.81-0.25-10.92 2.38-21.72 1.41-32.65z"/>
			<path class="s4" d="m135.34 275.1c3.74 4.16-0.97 9.66 2.83 13.8q-0.07 4.38-0.14 8.76-2.77 0.02-5.54 0.05c2.06-5.26 1.16-10.73 1.44-16.12 0.1-2.2-0.94-4.66 1.41-6.49z"/>
			<path class="s4" d="m179.25 329.14c-4.28-3.79-4.27-7.6-0.02-11.4q0.02 5.69 0.02 11.4z"/>
			<path class="s3" d="m132.49 297.71q2.77-0.02 5.53-0.05c0.1 1.39 0.38 2.83-1.21 3.81q-2.16 0-4.32-0.02 0-1.86 0-3.74z"/>
			<path class="s2" d="m179.34 316.67c-1.68-1.35-1.78-2.68 0.03-4q-0.02 2-0.03 4z"/>
			<path class="s4" d="m344.44 165.87c-0.09 10.8 4.82 21.25 2.94 32.19-0.29 1.69 0.81 2.72 2.75 2.98q0.7 3.09 1.4 6.18c-1.52 2.85-3.38 5.74 1.41 7.69-0.47 11.51 3.66 22.42 5.31 33.63 2 13.54 3.61 27.19 3.69 41.01 0.07 11.13 3.69 22.26 5.85 33.36 0.1 0.5 1.5 0.8 2.28 1.19 0.97 1.54 1.64 3.15 1.41 4.94-1.11 0.58-1.38 1.52-1.41 2.56q-0.01 2.52-0.01 5.04-2.1-0.02-4.19-0.02-0.06-2.5-0.11-5c2.26-1.96 1.78-3.22-1.27-3.8-2.48-8.26-1.35-17.17-5.81-25.08-1.15-3.31-3.84-6.29-2.85-10.07 3.53-9.99-0.45-19.63-1.93-29.37-0.26-1.69-0.3-4.46-3.73-4.56-0.88-4.18 3.78-8.33 0.07-12.52-0.59-11.08-1.04-22.19-5.77-32.71-0.59-3.73 1.38-7.71-1.39-11.24 0.23-11.05-2.39-21.81-4.33-32.64q-1.4-4.41-2.81-8.8c4.36-0.32 4.65 4.7 8.5 5.04z"/>
			<path class="s6" d="m307.5 365.42c-0.46-3.11-4.8-3.44-5.74-6.2-0.07-5.28 4.96-7.2 8.52-10.1 1.09 4-1.64 8.19 2.63 12.24 6.07 5.76 12.3 7.2 20.22 4.18 0.14 3.21-4.46 4.25-4.39 7.43-6.89 6.03-10.59-0.25-14.89-3.21-2.11-1.44-3.13-4.09-6.35-4.34z"/>
			<path class="s3" d="m328.74 372.99c-0.06-3.18 4.53-4.23 4.39-7.44v-0.01q2.74-0.09 2.84-2.5 2.73-0.1 2.85-2.5l0.01-0.02q3.08-0.04 4.21-2.57 0.71-0.64 1.42-1.28c2.7-1.47 5.21-3.11 5.84-6.12q2.57-0.23 2.86-2.5c6.46-1.9 8.67-7.48 12.72-11.45q2.1 0.03 4.19 0.03c0.5 2.89-0.56 5.43-2.88 7.34q-17.43 14.33-35.08 28.48c-0.74 0.56-2.23 0.37-3.37 0.54z"/>
			<path class="s0" d="m370.07 331.6c0.01-1.04 0.29-1.98 1.41-2.56 2.18 1.97 0.48 2.31-1.41 2.56z"/>
			<path class="s2" d="m352.94 214.92c-4.79-1.94-2.93-4.83-1.41-7.69 2.64 2.25 1.09 5.1 1.41 7.69z"/>
			<path class="s8" d="m193.61 148.19c0.76 5.97-4.66 11.96-11.49 12.49-3.25 0.25-6.54 0.16-9.8 0.22q-19.2-0.03-38.41-0.06c-3.2-0.46-6.59-0.5-9.58-1.48-7.25-2.4-9.67-6.36-7.48-11.21l0.7 0.08 0.69-0.12q3.59-0.02 7.19-0.05 5.63 0.02 11.27 0.04 1.48-0.06 2.95-0.12 7.81 0.07 15.62 0.15 3.54 0 7.09 0 1.42-0.01 2.84-0.02 14.18 0.04 28.41 0.08z"/>
			<path class="s7" d="m166.43 177.1c-1.57 1.89-2.05 4.1-2.32 6.37q-0.1 0.61-0.19 1.23-0.14 1.23-0.31 2.46c-1.57 3.27-1.27 6.68-1.03 10.1q-0.21 5.36-0.42 10.71c-15.89 0.27-15.84 0.27-15.85-13.53 0-3.26 0.61-6.6-0.82-9.78-0.08-5.59-2.44-10.24-7.37-13.81 0.39-1.37 1.95-0.99 2.91-1.52 3.39-0.04 6.82 0.63 10.14-0.49q2.75-0.24 5.49-0.47 6.4-0.21 12.83-0.41 1.46 0 2.92 0 0.06 0.87 0.14 1.74c-2.25 1.04-3.76 2.65-4.61 4.73-1.17 0.61-1.53 1.56-1.51 2.67z"/>
			<path class="s2" d="m156.65 168.35q-2.76 0.24-5.51 0.48c-2.02-2.68-5.17-1.28-7.82-1.71-1.44-0.22-4.4 0.7-3.96-1.22 1.09-4.61-4.07-3.08-5.48-5.05q19.21 0.03 38.41 0.06c1.01 1.54 1.63 3.16 1.41 4.97q-0.69 0.6-1.38 1.2-0.08 0.44 0.06 0.87-1.46 0-2.92 0c-3.15-4.02-8.07-1.44-12.02-2.52q-0.38 1.45-0.79 2.92z"/>
			<path class="s2" d="m165.18 148.11q-1.43 0.01-2.85 0.02-3.55-2.44-7.09 0-7.81-0.08-15.62-0.15-0.03-3.06-0.06-6.12c10.92-0.53 21.84-0.57 32.76 0 0.54 2.99-4.67 2.26-4.28 5.14q-1.43 0.56-2.86 1.11z"/>
			<path class="s3" d="m165.18 148.11q1.43-0.55 2.84-1.1c8.5 0.74 17.19-1.47 25.57 1.19q-14.2-0.05-28.41-0.09z"/>
			<path class="s0" d="m172.34 167.08q0.69-0.6 1.38-1.2-0.68 0.6-1.38 1.2z"/>
			<path class="s4" d="m176.55 298.95c-2.45-0.25-3.18-1.79-2.76-3.54 1.54-6.52-2.96-12.21-3.09-18.49-0.03-1.18-1.24-1.63-2.44-1.87q-0.1-2.5-0.2-4.99c2.07-2.12 2.1-4.21-0.1-6.28q-0.64-3.15-1.26-6.29c1.35-4.74 3.66-9.55-1.34-13.82q-0.09-1.25-0.17-2.49 0-0.63 0-1.26-0.06-0.63-0.12-1.25-0.1-2.43-0.21-4.88 0.02-1.94 0.02-3.87c0.22-1.08-0.02-1.98-1.21-2.52q-0.05-1.87-0.09-3.73c1.14-5.68-1.25-8.27-8.03-7.66-2.45 0.23-5.24 0.83-7.45-1.02 1.9-2.23 4.66-1.45 7.02-1.35 4.32 0.18 8.6 0.77 12.9 1.19q4.27 42.06 8.53 84.12z"/>
			<path class="s0" d="m168.02 214.83c-4.3-0.41-8.58-1-12.9-1.19-2.37-0.1-5.14-0.88-7.02 1.35q-2.66 0.06-5.33 0.13l-0.33-0.29c-0.33-4.25 0.48-6.44 6.68-5.36 4.01 0.69 9.21 2.25 13.02-1.51q0.22-5.36 0.43-10.71c4.78-3.02 2.96-6.55 1.02-10.1q0.15-1.23 0.32-2.47 0.61 0 1.25-0.01c2.11-0.18 3.99 0.4 5.77 1.33q-0.03 2.48-0.05 4.96c-3.44 0.43-2.8 2.79-2.82 4.77-0.05 6.37-0.04 12.73-0.04 19.1z"/>
			<path class="s4" d="m333.07 143.28q0.02-3.75 0.03-7.49c3.3-0.47 5.17-2.19 5.69-5.07 4.52-0.85 2.22-4.08 2.82-6.29 2.98-0.17 2.88-2.02 2.72-3.9q0.09-1.82 0.18-3.61 2.84-0.15 2.68-2.65 0.1-2.44 0.2-4.87c4.98-1.39 1.8-5.08 2.76-7.59 5.02 2.37 4.53 6.05 3.04 9.99-3.48 9.15-8.56 17.68-13.03 26.45-4.11 0.72-4 3.67-4.34 6.38q-1.36-0.67-2.75-1.35z"/>
			<path class="s0" d="m335.85 144.63c0.34-2.71 0.22-5.66 4.34-6.38-2.55 7.75-0.59 15.1 2.72 22.29 0.79 1.73 1.73 3.39 1.53 5.34-3.85-0.34-4.15-5.35-8.5-5.04q-0.09-1.3-0.19-2.6 0.05-6.82 0.1-13.61z"/>
			<path class="s4" d="m143.75 229.87c-2.76-0.12-4.33 0.79-4.19 3.48 0.1 1.82 0.17 3.77-2.72 4.11-0.47-6.85 2.98-13.28 2.78-20.09q1.57-0.06 3.13-0.12c3.59 0.66 2.11 3.24 2.49 5.12q-0.74 3.75-1.49 7.5z"/>
			<path class="s0" d="m141.36 202.56c0.37 0.77 0.79 1.26 0.78 1.73-0.01 0.92-0.73 1.44-1.68 0.96-0.38-0.19-0.6-1.03-0.48-1.5 0.08-0.38 0.75-0.69 1.38-1.19z"/>
			<path class="s0" d="m142.75 217.25q-1.56 0.06-3.13 0.12-0.01-2.48 2.81-2.54l0.32 0.29q0 1.06 0 2.13z"/>
			<path class="s9" d="m168.06 270.06q0.1 2.49 0.19 4.99c1.28 14.68 2.75 29.36 3.76 44.07 0.55 7.92 0.34 15.88 0.48 23.83 0.12 8.36-0.95 16.57-4.48 24.4-5.13 11.39-13.53 13.35-24.18 5.69q-2.81-4.41-5.63-8.81c-4.96-13.88-2.82-28.02-1.98-42.11 0.41-6.87 0.4-13.77 0.58-20.64 1.58-0.98 1.31-2.41 1.21-3.81q0.06-4.38 0.14-8.75c0.46-0.92 1.3-1.84 1.29-2.74-0.25-15.49 2.94-30.79 3.1-46.26 2.01 0.28 2.79 1.42 2.68 3.09-1.26 18.27 2.73 36.71-2.61 54.88-0.83 2.81-1.2 6.28 1.13 9.08 1.22 1.47 1.87 2.95 0.58 4.57-3.2 4.02-2.11 8.36-1.14 12.63 1 4.36 1.12 8.74 0.13 13.02-1.88 8.1-0.83 16.24-0.71 24.33 0.05 4.12 3.63 7.24 7.9 8.79 3.31 1.19 6.26-0.83 7.67-3.27 4.93-8.59 10.26-17.02 9.92-27.24-0.4-11.9-0.07-23.81-0.12-35.71-0.02-1.84-0.05-3.8-0.72-5.51-3.71-9.46-2.66-18.97-0.69-28.52q0.78 0 1.5 0z"/>
			<path class="s1" d="m139.56 141.87q0.03 3.06 0.06 6.12-1.47 0.06-2.95 0.12c-3.76-1.74-7.51-1.71-11.27-0.03q-3.6 0.02-7.19 0.05-0.72-0.95-1.38 0.03c-2.18 4.85 0.24 8.81 7.47 11.21 2.99 0.99 6.38 1.02 9.58 1.48 1.41 1.96 6.57 0.43 5.48 5.05-0.45 1.91 2.52 0.98 3.96 1.22 2.65 0.43 5.8-0.97 7.82 1.71-3.32 1.12-6.75 0.46-10.14 0.49q-2.14-0.54-4.28-1.08c-0.25-1.03-0.47-1.99-2.13-1.93-14.89 0.41-18.72-1.78-23.34-14-0.84-2.21-1.51-3.88-4.4-4.03q0-3.24 0.01-6.49c10.91-0.56 21.81-0.47 32.7 0.08z"/>
			<path class="s8" d="m136.73 168.24q2.14 0.54 4.28 1.08c-0.95 0.53-2.51 0.15-2.9 1.52-1.42-0.48-3.29-0.77-1.38-2.6z"/>
			<path class="s4" d="m296.18 115.51c-0.75 2.21 1.6 5.49-2.85 6.44-0.15-2.05-0.39-3.95-1.56-5.92-3.09-5.22-3.18-9.83 1.39-15.29 5.54-6.63 11.31-10.45 20.82-9.02 2.5 0.38 5.15 0.08 7.73 0.09 0.21 3.55-5.97 1.38-5.72 4.97q-1.42 0.02-2.84 0.03c-1.93-1.79-3.84-1.8-5.72 0.06-3.75 0.43-6.64 2.02-8.53 4.94q-2.87 0.1-2.73 2.64 0.02 5.54 0.01 11.06z"/>
			<path class="s9" d="m298.92 101.82c1.89-2.91 4.78-4.51 8.52-4.94 1.94 1.64 3.85 1.69 5.73-0.06q1.41-0.01 2.83-0.02c5.37 0 10.75-0.03 16.11 0.01 9.6 0.06 14.38 4.02 15.29 12.59q-0.08 2.43-0.19 4.87c-1.8 0.18-2.75 1.01-2.68 2.65q-0.09 1.81-0.18 3.61c-2.73 0.32-2.78 2.08-2.73 3.9-1.92 1.75-2.27 4.05-2.81 6.29-0.53 2.9-2.39 4.62-5.7 5.07q-7.37-0.03-14.73-0.06c-10.67-0.04-13.57-2.2-16.72-11.52-1.06-3.17-1.38-6.92-5.46-8.7q0-5.53 0-11.06c1.75-0.18 2.7-1.02 2.72-2.63zm27.19 0c-1.67 0-3.35 0.15-4.99-0.02-8.08-0.88-17.68 5.45-19.16 9.34-1.56 4.12 2.41 15.54 7.63 18.98 5.27 3.5 10.98 1.44 16.43 1.74 7.03 0.38 11.79-3.64 12.73-9.81 0.21-1.44 0.1-2.99 0.71-4.27 5.51-11.71 2.56-15.95-11.22-15.95q-1.06-0.01-2.13-0.01z"/>
			<path class="s1" d="m166.43 177.1c0-1.11 0.35-2.06 1.49-2.68 0.09 1.14-0.15 2.15-1.49 2.68z"/>
			<path class="s1" d="m165.15 184.68q-0.62 0.01-1.26 0.02 0.1-0.62 0.19-1.24 0.55 0.6 1.07 1.22z"/>
			<path class="s6" d="m290.39 349.17c-0.39-0.53-0.63-1.22-1.17-1.55-9.58-5.75-11.89-13.94-10.18-23.49q2.83-2.54 5.67-5.08 1.43-0.62 2.86-1.23c0.07 3.14-0.56 6.17-1.2 9.26-2.36 11.48 3.05 16.02 15.46 13.38-0.58 4.07-5.55 5.33-7.19 8.72q-2.11-0.01-4.25-0.01z"/>
			<path class="s3" d="m294.66 349.18c1.63-3.39 6.6-4.65 7.19-8.72v-0.02q2.68-0.13 2.83-2.5l0.01-0.02c2-0.07 3.41-0.9 4.15-2.57q0.73-0.64 1.46-1.27c1.3 2.9 5.64 4.01 5.74 7.61q-2.88 3.71-5.76 7.41c-3.55 2.91-8.58 4.83-8.52 10.1-4.82-1.97-5.09-6.46-7.1-10.02z"/>
			<path class="s0" d="m125.33 106.34c0.14-0.51 0-1.3 1.01-1.09 0.24 0.05 0.3 0.7 0.45 1.08q-0.73 0.02-1.46 0.01z"/>
			<path class="s10" d="m343.08 202.27c2.77 3.52 0.78 7.5 1.39 11.24q-4.31 4.4-8.62 8.8c-5.14 3.84-10.01 7.93-14.11 12.66q-8.55 8.15-17.09 16.3-2.83 1.02-2.9 3.7-2.74 0.09-2.85 2.51-2.74 0.1-2.85 2.52h-0.01c-2.46-0.15-3.66 1.87-5.64 2.55 0.88-4.54 4.74-8.82 1.4-13.7 3.77-2.28 6.8-5.11 8.57-8.9 7.49-6.05 14.69-12.31 20-20.05q1.41-1.23 2.82-2.47c2.01-0.08 3.44-0.91 4.24-2.56h0.02c4.34-2.85 8.11-6.22 11.36-10.05q2.11-1.28 4.27-2.55z"/>
			<path class="s11" d="m338.78 204.81c-3.23 3.83-7.01 7.2-11.36 10.05 0.57-5.19 4.57-8.93 7.02-13.34 2.45-4.4 3.6-9.99-0.56-13.33-3.47-2.79-9.03-1.31-13 1.67-2.16 1.62-4.47 3.14-6.3 5.02-6.91 7.08-12.97 14.38-8.89 24.66 2.88 7.24 3.62 7.57 9.83 2.61 1.42-1.14 2.7-2.38 4.84-2.25-5.31 7.74-12.52 13.99-20.01 20.05-5.09-0.78-4.94-3.71-3.43-6.92 3.45-7.28 2.62-14.59 0.63-21.95q0.04-1.25 0.08-2.5c6.48-1.08 4.43-6.81 7.01-10.01 2.18-0.87 3.59-2.5 5.29-3.9 6.72-5.48 11.24-12.8 18.85-17.5 3.83-0.15 5.5 1.71 7.28 4.64 4.54 7.45 1.96 15.34 2.72 23z"/>
			<path class="s10" d="m328.78 177.15c-7.61 4.69-12.11 12.02-18.85 17.5-1.7 1.39-3.11 3.02-5.29 3.89q-2.85 1.88-5.67 3.76c-0.23-5.19 4.49-9.66 2.81-15.07 4.62-0.81 5.73-4.26 7.19-7.46 3.13-0.3 4.67-2.49 6.52-4.32q7.37-7.33 14.76-14.64c1.97-0.65 3.15-2.6 5.51-2.61q0.1 1.3 0.2 2.61 1.4 4.42 2.8 8.81c-4.89 0.91-7.14 4.52-9.98 7.53z"/>
			<path class="s12" d="m286.09 286.38q0.04-1.23 0.08-2.46c4.2 0.27 4.22-2.18 4.26-4.85 0.07-5.22 1.57-10.03 5.67-14.01 2.92 0.97 3.46 3.54 3.63 5.55 0.51 5.98 3.87 11.25 4.91 17.05-2.68 4.32-7.92 6.39-11.33 10.05-4.16 0.44-6.14-0.9-5.83-4.87 0.15-2.15 1-4.65-1.39-6.46z"/>
			<path class="s6" d="m308.95 179.77c-1.45 3.19-2.57 6.65-7.19 7.46-0.04-11.33 4.62-22.11 5.01-33.43 0.13-3.43 0.47-6.96 0.79-10.44q4.23-0.03 8.45-0.07c-0.25 0.98-0.31 2.74-0.78 2.83-6.35 1.2-4.73 5.54-4.95 9.22-0.27 4.49 1.58 9.41-0.9 13.39-2.45 3.97-2.32 7.31-0.43 11.04z"/>
			<path class="s9" d="m297.56 211.06c2 7.37 2.81 14.68-0.62 21.95-1.51 3.21-1.67 6.15 3.43 6.92-1.77 3.79-4.8 6.63-8.57 8.91 0.11-12.8 3.76-25.19 5.76-37.78z"/>
			<path class="s9" d="m296.08 265.05c-4.1 3.97-5.59 8.79-5.66 14-0.03 2.69-0.05 5.13-4.26 4.85 0.9-7.21 1.38-14.47 4.21-21.38 1.98-0.68 3.18-2.7 5.64-2.55q0.06 2.56 0.07 5.08z"/>
			<path class="s9" d="m286.09 286.38c2.4 1.82 1.55 4.31 1.38 6.46-0.31 3.97 1.66 5.31 5.82 4.87-3.02 5.68-5.75 7.7-10.15 7.49q0.09-0.59-0.08-1.17 0.04-1.28 0.07-2.55c1.18-5 0.75-10.25 2.96-15.1z"/>
			<path class="s9" d="m298.97 202.3q2.85-1.88 5.67-3.76c-2.58 3.22-0.53 8.93-7.01 10.01q0.67-3.11 1.34-6.25z"/>
			<path class="s9" d="m308.95 179.77c-1.89-3.74-2.02-7.07 0.43-11.03 2.48-3.98 0.63-8.89 0.9-13.39 0.22-3.69-1.41-8.03 4.95-9.22 0.47-0.09 0.53-1.85 0.78-2.83q3.55 0.01 7.09 0.01c0.15 1.39-0.21 3.18 1.9 3.48 5.01 0.72 5.19 3.95 5.22 7.33q0.01 3.36 0 6.72-7.39 7.31-14.76 14.63c-1.82 1.83-3.36 4-6.51 4.3z"/>
			<path class="s6" d="m330.22 160.83c0-2.24 0.03-4.49 0-6.72-0.03-3.38-0.21-6.6-5.22-7.33-2.11-0.3-1.77-2.1-1.9-3.48q4.99-0.02 9.97-0.02 1.39 0.68 2.77 1.35-0.04 6.8-0.09 13.6c-2.37 0-3.55 1.94-5.53 2.6z"/>
			<path class="s10" d="m283.13 305.2c4.4 0.21 7.13-1.81 10.15-7.49 3.41-3.67 8.67-5.73 11.33-10.05q2.05-0.67 4.1-1.34c3.06 1.32 4.75 3.36 4.48 6.47 0.1 2.13-2.14 3.16-2.91 4.88-3.35 2.06-6.24 4.55-8.52 7.55q-7.97 5.54-14.21 12.59-1.43 0.63-2.86 1.23c-0.77-3.39 2.04-7.59-2.89-10.05q0.02-1.9 0.05-3.8h0.64z"/>
			<path class="s4" d="m281.82 309c4.91 2.47 2.12 6.66 2.89 10.05q-2.84 2.54-5.67 5.08c1.05-5.02 2.81-9.95 2.78-15.13z"/>
			<path class="s4" d="m283.13 305.2l-0.64 0.01h-0.64q0.59-0.58 1.19-1.18 0.18 0.56 0.09 1.17z"/>
			<path class="s3" d="m138.21 364.23q2.82 4.4 5.64 8.81c-3.12 0.81-4.4-2.4-7.09-2.53 0.33-2.12-1-4.55 1.45-6.28z"/>
			<path class="s13" d="m166.58 270.06c-1.96 9.55-3.01 19.05 0.7 28.52 0.67 1.71 0.7 3.67 0.71 5.51 0.06 11.9-0.27 23.81 0.13 35.71 0.34 10.22-5 18.66-9.92 27.24-1.41 2.45-4.36 4.46-7.68 3.27-4.27-1.53-7.84-4.66-7.9-8.79-0.11-8.09-1.16-16.23 0.72-24.33 0.99-4.28 0.86-8.68-0.13-13.02-0.97-4.27-2.07-8.61 1.14-12.63 1.29-1.63 0.64-3.1-0.59-4.57-2.32-2.8-1.95-6.27-1.12-9.08 5.34-18.17 1.36-36.61 2.6-54.88 0.12-1.68-0.67-2.81-2.67-3.09q0.03-1.22 0.07-2.43c3 0.04 5.31-0.7 5.48-3.82-0.16-2.77 0.81-5.33 4.07-5.73 2.96-0.37 3.08 2.69 4.37 4.29 1.1 1.36 1.91 2.96 3.26 4.06 1.89 1.55 2.18-0.14 2.54-1.34q1.25-0.57 2.5-1.15 0.1 2.43 0.23 4.88-0.67 0.63-1.31 1.25 0 0.63 0 1.26c-3.02 7.91-1.07 16.01-1 24.02 0.02 1.58 1.95 2.21 3.72 2.39q0.04 1.24 0.08 2.46z"/>
			<path class="s11" d="m162.36 234.95c-0.36 1.19-0.63 2.89-2.54 1.34-1.35-1.1-2.16-2.7-3.26-4.06-1.29-1.6-1.42-4.66-4.37-4.29-3.27 0.4-4.23 2.96-4.07 5.73q-2.12-0.01-4.24-0.02-0.06-1.89-0.12-3.78 0.75-3.74 1.5-7.51c4.61-2.73 9.08-3.91 13.71 0.2 0.97 0.87 3.06 0.75 4.62 1.11q0.05 1.86 0.09 3.73c-1.11 0.56-1.31 1.49-1.34 2.5q0 2.52 0.02 5.05z"/>
			<path class="s9" d="m143.86 233.65q2.12 0.01 4.24 0.02c-0.17 3.11-2.47 3.85-5.48 3.82q0.62-1.92 1.24-3.84z"/>
			<path class="s10" d="m316.04 341.7c-0.08-3.6-4.44-4.71-5.74-7.61 0.84-1.3 3.08-1.76 2.92-3.68v-0.01c1.81-0.08 2.72-0.94 2.91-2.5 7.36-5.23 13.39-11.6 19.8-17.66 5.84-3.2 8.77-8.96 14.19-12.53q1.46-1.86 2.92-3.73 1.42-0.65 2.81-1.31c-1 3.78 1.69 6.75 2.84 10.07q-6.39 6.27-12.79 12.55-12.09 11.3-24.18 22.62-2.85 1.89-5.68 3.79z"/>
			<path class="s9" d="m345.88 315.27q6.4-6.27 12.8-12.55c4.44 7.92 3.33 16.82 5.8 25.09-0.06 1.4-0.35 2.84 1.26 3.79q0.06 2.5 0.12 5c-4.06 3.97-6.27 9.55-12.73 11.45l-0.16-0.14c4.03-8.09 7.53-15.65 3.43-25.27-2.35-5.57-4.71-7.4-10.52-7.37z"/>
			<path class="s10" d="m350.24 246.22c3.71 4.19-0.95 8.34-0.07 12.52q-2.14 2.53-4.26 5.05c-1.91 1.82-4.77 3.13-4.34 6.22l-0.02 0.01q-2.73 0.09-2.83 2.5l-0.01 0.02c-3.29-0.06-4.45 2.91-7.02 3.86-0.47-3.82-5.84-2.33-7.22-5.17 0.14-2.58 2.52-3.8 4.23-5.4 4.74-4.48 9.55-8.9 14.32-13.33 3.3-1.3 4.71-4.29 7.22-6.28z"/>
			<path class="s9" d="m350.24 246.22c-2.51 1.99-3.92 4.98-7.22 6.28-1.65-0.91-1.35-2.39-1.41-3.76 2.98-1.19 2.56-3.57 2.92-5.85 0.84-5.54-2.11-10.49-2.69-15.73-0.44-3.93-1.95-5.19-6.01-4.84q4.31-4.39 8.63-8.79c4.74 10.5 5.19 21.59 5.78 32.69z"/>
			<path class="s9" d="m328.78 177.15c2.84-3.01 5.09-6.62 9.97-7.52 1.94 10.83 4.56 21.59 4.33 32.64q-2.14 1.27-4.29 2.54c-0.77-7.68 1.81-15.55-2.72-23.03-1.79-2.93-3.46-4.77-7.29-4.63z"/>
			<path class="s6" d="m345.9 263.79q2.14-2.52 4.25-5.05c3.43 0.09 3.48 2.86 3.73 4.56 1.48 9.74 5.47 19.37 1.94 29.37q-1.41 0.66-2.8 1.31c-0.02-6.02 0.49-12.07-0.19-18.02-0.53-4.59-0.63-9.91-6.93-12.17z"/>
			<path class="s3" d="m365.76 331.6c-1.61-0.95-1.33-2.41-1.27-3.79 3.06 0.58 3.53 1.83 1.27 3.79z"/>
			<path class="s11" d="m316.04 341.7q2.83-1.9 5.67-3.8c0.21 10.19 1.07 10.63 12.43 12.87 3.77 0.76 6.89-0.47 10.32-0.32q-0.01 3.11-0.02 6.23-0.71 0.64-1.42 1.28c-2.06 0.01-4.19-0.05-4.2 2.58q-0.01 0.01-0.01 0-2.88-0.03-2.85 2.5-2.87-0.03-2.85 2.5v0.01c-7.91 3.03-14.15 1.58-20.21-4.17-4.28-4.06-1.54-8.26-2.64-12.25q2.9-3.71 5.78-7.43z"/>
			<path class="s9" d="m344.46 356.68q0.01-3.11 0.01-6.24 2.85-0.02 5.67-0.03l0.16 0.14c-0.63 3.03-3.14 4.66-5.84 6.13z"/>
			<path class="s6" d="m338.83 360.52c0.02-2.61 2.14-2.56 4.21-2.57q-1.13 2.53-4.21 2.57z"/>
			<path class="s6" d="m335.97 363.04q-0.03-2.54 2.85-2.5-0.11 2.4-2.85 2.5z"/>
			<path class="s9" d="m353.14 348.05q-0.27 2.27-2.86 2.5l-0.15-0.14q0.08-2.42 2.84-2.51z"/>
			<path class="s6" d="m333.13 365.54q-0.02-2.54 2.84-2.5-0.1 2.42-2.84 2.5z"/>
			<path class="s3" d="m125.4 148.09c3.77-1.69 7.53-1.71 11.27 0.04q-5.64-0.02-11.27-0.04z"/>
			<path class="s3" d="m155.24 148.14q3.54-2.45 7.09 0-3.55-0.01-7.09 0z"/>
			<path class="s3" d="m116.84 148.16q0.66-0.98 1.38-0.03l-0.68 0.11z"/>
			<path class="s0" d="m156.65 168.35q0.4-1.46 0.81-2.92c3.94 1.09 8.87-1.49 12.01 2.52q-6.42 0.19-12.82 0.4z"/>
			<path class="s1" d="m163.59 187.16c1.94 3.54 3.75 7.08-1.02 10.1-0.24-3.42-0.54-6.83 1.02-10.1z"/>
			<path class="s6" d="m163.58 223.67c-1.57-0.34-3.66-0.24-4.63-1.11-4.62-4.11-9.09-2.93-13.71-0.2-0.38-1.88 1.1-4.46-2.49-5.13q0-1.06 0-2.12 2.68-0.06 5.35-0.12c2.2 1.85 5 1.25 7.45 1.02 6.78-0.61 9.17 1.98 8.03 7.66z"/>
			<path class="s9" d="m166.49 267.6c-1.77-0.18-3.71-0.81-3.72-2.39-0.09-8.01-2.04-16.11 1-24.02q0.71 0 1.42 0 0.08 1.24 0.17 2.49c0.55 4.6-1.82 9.41 1.34 13.82q0.64 3.14 1.26 6.29c-1.67 0.9-1.26 2.45-1.47 3.81z"/>
			<path class="s3" d="m166.7 257.5c-3.16-4.4-0.78-9.22-1.34-13.82 5 4.26 2.69 9.07 1.34 13.82z"/>
			<path class="s3" d="m166.49 267.6c0.21-1.36-0.2-2.9 1.47-3.82 2.2 2.07 2.17 4.16 0.1 6.28q-0.74 0-1.48 0-0.03-1.22-0.09-2.46z"/>
			<path class="s9" d="m162.36 234.95q-0.01-2.53-0.02-5.04 1.28 0.02 2.55 0.03-0.01 1.93-0.01 3.86-1.29 0.58-2.52 1.15z"/>
			<path class="s6" d="m164.88 229.94q-1.28-0.03-2.55-0.03c0.03-1.01 0.23-1.95 1.34-2.5 1.19 0.54 1.43 1.44 1.21 2.53z"/>
			<path class="s9" d="m163.77 239.93q0.66-0.62 1.3-1.25 0.06 0.63 0.11 1.25-0.71 0-1.41 0z"/>
			<path class="s3" d="m163.77 239.94q0.71 0 1.42 0 0 0.62 0 1.25-0.71 0-1.42 0 0-0.62 0-1.25z"/>
			<path class="s3" d="m338.79 130.72c0.56-2.23 0.91-4.53 2.82-6.29-0.58 2.21 1.69 5.44-2.82 6.29z"/>
			<path class="s3" d="m341.63 124.43c-0.06-1.82 0.01-3.58 2.72-3.9 0.16 1.87 0.25 3.71-2.72 3.9z"/>
			<path class="s3" d="m344.54 116.91c-0.07-1.65 0.9-2.48 2.68-2.65q0.15 2.5-2.68 2.65z"/>
			<path class="s3" d="m313.17 96.81c-1.88 1.74-3.79 1.69-5.73 0.06 1.88-1.86 3.79-1.85 5.73-0.06z"/>
			<path class="s3" d="m298.92 101.82c0 1.61-0.97 2.45-2.74 2.64q-0.14-2.54 2.74-2.64z"/>
			<path class="s12" d="m326.11 101.82q1.07 0 2.13 0c13.8 0.01 16.73 4.23 11.22 15.94-0.61 1.3-0.5 2.84-0.71 4.27-0.93 6.19-5.68 10.19-12.73 9.82-5.47-0.29-11.16 1.75-16.43-1.74-5.21-3.45-9.19-14.86-7.63-18.98 1.48-3.89 11.08-10.23 19.16-9.35 1.64 0.19 3.32 0.04 4.99 0.04z"/>
			<path class="s11" d="m313.22 330.41c0.16 1.92-2.08 2.38-2.92 3.68q-0.73 0.64-1.46 1.27c-2.05 0.01-4.15-0.03-4.15 2.58l-0.01 0.01q-2.88-0.05-2.83 2.5v0.02c-12.42 2.64-17.83-1.89-15.46-13.38 0.64-3.09 1.26-6.11 1.19-9.25q6.24-7.05 14.21-12.59c0.57 2.72-1.15 4.58-2.86 6.63-4.77 5.7-1.48 11.19 1.75 16.07 2.71 4.08 7.9 3.3 12.54 2.46z"/>
			<path class="s6" d="m304.69 337.92c0-2.58 2.08-2.56 4.15-2.57-0.73 1.68-2.14 2.5-4.15 2.57z"/>
			<path class="s6" d="m301.85 340.44q-0.06-2.54 2.83-2.5-0.14 2.38-2.83 2.5z"/>
			<path class="s11" d="m341.63 248.74c0.05 1.37-0.26 2.85 1.41 3.76-4.79 4.43-9.59 8.87-14.33 13.33-1.71 1.6-4.08 2.84-4.23 5.4-7.21 3.43-11.38 9.33-15.74 15.09q-2.05 0.67-4.1 1.34c-1.04-5.8-4.4-11.07-4.91-17.05-0.17-2.01-0.72-4.58-3.63-5.55q-0.03-2.53-0.06-5.06h0.01q2.86 0 2.85-2.52 2.86 0.02 2.85-2.51c2.92-0.05 2.9-1.88 2.9-3.7q8.54-8.15 17.09-16.3c2.22 9.62 5.25 11.72 19.89 13.77z"/>
			<path class="s12" d="m320.37 219.9c-2.14-0.12-3.43 1.11-4.84 2.25-6.21 4.96-6.95 4.63-9.82-2.61-4.09-10.28 1.97-17.58 8.88-24.66 1.84-1.88 4.14-3.4 6.31-5.02 3.97-2.98 9.52-4.46 12.99-1.67 4.18 3.34 3.01 8.93 0.56 13.33-2.45 4.41-6.45 8.15-7.02 13.34h-0.01c-2.12-0.05-4.22-0.08-4.25 2.56q-1.4 1.24-2.8 2.48z"/>
			<path class="s12" d="m341.63 248.74c-14.64-2.03-17.67-4.15-19.91-13.77 4.12-4.73 8.97-8.82 14.11-12.66 4.06-0.35 5.57 0.9 6.01 4.84 0.58 5.23 3.54 10.18 2.69 15.72-0.34 2.29 0.06 4.68-2.9 5.87z"/>
			<path class="s9" d="m304.64 251.27c0 1.82 0.03 3.66-2.91 3.7q0.08-2.69 2.91-3.7z"/>
			<path class="s11" d="m323.18 217.42c0.01-2.65 2.12-2.62 4.24-2.56-0.79 1.66-2.22 2.47-4.24 2.56z"/>
			<path class="s9" d="m301.73 254.97q0 2.51-2.84 2.52 0.11-2.43 2.84-2.52z"/>
			<path class="s9" d="m298.89 257.47q0.01 2.52-2.85 2.51 0.11-2.41 2.85-2.51z"/>
			<path class="s12" d="m313.22 330.41c-4.64 0.84-9.84 1.62-12.57-2.49-3.23-4.87-6.5-10.36-1.75-16.06 1.71-2.05 3.43-3.9 2.86-6.64 2.28-3 5.16-5.48 8.52-7.55 1.15-0.12 2.42-0.01 3.44-0.4 16.59-6.33 22.21-3.22 22.18 12.33q0 0.3 0 0.61c-6.39 6.07-12.43 12.44-19.8 17.66-1.94-0.05-2.92 0.77-2.91 2.5z"/>
			<path class="s11" d="m335.92 310.24q0-0.31 0-0.62c0.02-15.54-5.61-18.66-22.18-12.32-1.03 0.38-2.3 0.27-3.45 0.4 0.77-1.72 3.03-2.77 2.92-4.89q2.06-0.71 4.11-1.42c10.91-2.94 17.49-9.7 21.37-18.84l0.02-0.01q2.88 0.04 2.83-2.5l0.01-0.02c7.08 0.91 4.02 7.88 8.1 10.55-5.12 4.69 1.33 10.42-1.73 15.38-0.71 1.15 1.02 1.55 2.18 1.76-5.41 3.56-8.33 9.32-14.18 12.53z"/>
			<path class="s3" d="m317.32 291.38q-2.05 0.71-4.11 1.42c0.27-3.11-1.42-5.17-4.49-6.47 4.36-5.76 8.53-11.66 15.75-15.09 1.37 2.84 6.75 1.36 7.2 5.18q-7.16 7.46-14.35 14.96z"/>
			<path class="s12" d="m352.99 347.91q-2.76 0.08-2.85 2.51-2.84 0.02-5.67 0.03c-3.43-0.15-6.55 1.08-10.32 0.32-11.37-2.24-12.21-2.68-12.43-12.87q12.09-11.3 24.18-22.63c5.8-0.04 8.17 1.79 10.53 7.36 4.09 9.63 0.58 17.19-3.44 25.28z"/>
			<path class="s9" d="m350.11 297.7c-1.15-0.22-2.89-0.62-2.18-1.76 3.06-4.96-3.39-10.68 1.74-15.38-4.1-2.69-1.03-9.66-8.1-10.55-0.41-3.09 2.45-4.4 4.34-6.22 6.31 2.25 6.41 7.58 6.93 12.16 0.69 5.96 0.19 12.01 0.19 18.02q-1.47 1.86-2.92 3.73z"/>
			<path class="s11" d="m313.22 330.39q-0.02-2.57 2.91-2.5c-0.19 1.55-1.1 2.43-2.91 2.5z"/>
			<path class="s9" d="m317.32 291.38q7.18-7.48 14.35-14.96c2.58-0.96 3.73-3.92 7.02-3.87-3.88 9.12-10.46 15.88-21.37 18.83z"/>
			<path class="s9" d="m341.54 270.02q0.05 2.54-2.83 2.5 0.1-2.41 2.83-2.5z"/>
		</g>
	</g>
</svg>