<svg width="457" height="491" viewBox="0 0 457 491" fill="none" xmlns="http://www.w3.org/2000/svg">
<path d="M0.144324 244.841C0.144324 165.042 0.187575 85.242 0.000155598 5.4424C-0.0142613 0.891542 0.966084 0 5.89665 0C154.304 0.159679 302.711 0.159679 451.103 0C456.034 0 457.014 0.891542 457 5.4424C456.841 165.481 456.841 325.519 457 485.557C457 490.108 456.034 491.013 451.103 491C302.696 490.84 154.289 490.84 5.89665 491C0.966084 491 -0.0142613 490.108 0.000155598 485.557C0.187575 405.319 0.144324 325.08 0.144324 244.841ZM298.588 255.473C298.588 270.975 298.602 286.478 298.602 301.98C298.602 309.551 298.588 317.109 298.588 324.681C298.559 333.969 298.53 343.243 298.515 352.531C298.515 357.867 298.515 363.217 298.515 368.553C298.515 370.309 298.515 372.052 298.515 373.809C298.515 376.044 298.515 378.266 298.515 380.502C298.458 384.427 298.169 388.379 298.415 392.292C298.717 397.321 301.255 400.954 307.05 401.952C309.588 403.589 312.572 404.001 315.513 404.48C315.859 406.21 316.306 407.927 316.551 409.67C317.791 418.572 321.683 422.245 331.429 423.03C341.42 423.828 351.44 424.187 361.459 423.056C375.083 421.526 377.505 419.237 378.356 406.729C378.414 405.864 378.76 405.026 378.961 404.174C397.386 400.049 397.444 400.049 397.444 382.604C397.444 289.285 397.401 195.966 397.357 102.66C397.357 93.1062 396.305 92.2147 385.954 88.7416C383.301 87.8501 380.605 87.0251 377.952 86.067C377.866 84.3105 377.462 82.5009 377.765 80.7976C378.918 74.2508 375.92 70.485 369.057 69.0878C366.923 65.6946 363.406 66.839 360.248 66.8257C349.652 65.8809 339.128 66.2269 328.675 68.1563C323.356 69.2209 316.796 70.2588 317.301 76.4863C317.964 84.763 313.797 87.1715 306.156 88.2626C301.903 88.8747 298.141 90.6977 298.169 96.0337C298.371 132.773 298.386 169.513 298.458 206.252C298.472 209.818 298.472 213.371 298.487 216.937C298.53 229.778 298.559 242.632 298.588 255.473ZM129.766 422.91C135.057 422.271 140.492 421.979 144.298 417.76C148.133 413.835 145.091 408.685 147.11 404.44C147.975 404.174 148.825 403.908 149.69 403.655C156.899 402.99 162.824 399.584 168.735 396.111C187.938 396.071 207.141 396.044 226.345 396.004C237.748 396.164 249.167 396.137 260.57 396.563C266.726 396.802 268.312 395.485 266.424 390.149C265.112 386.45 263.555 382.817 262.098 379.158C261.925 375.525 262.589 371.52 264.809 369.058C270.23 363.044 268.759 357.375 264.78 352.066C260.325 346.131 261.248 341.128 265.559 335.792C269.884 330.429 269.855 324.801 266.164 319.079C264.333 316.258 262.185 313.53 262.084 310.03C263.237 307.835 264.376 305.639 265.53 303.457C267.144 301.953 267.692 300.077 267.75 298.028C267.793 297.602 267.836 297.163 267.865 296.737C267.88 295.805 267.894 294.874 267.908 293.929C268.125 292.851 268.197 291.787 267.173 290.975C267.937 290.084 267.116 289.578 266.611 288.979C266.135 288.008 265.905 286.784 265.126 286.118C259.143 281.022 259.777 276.072 265.198 271.042C265.804 270.483 265.991 269.512 266.366 268.74C266.481 268.314 266.582 267.875 266.697 267.449C266.943 266.598 267.188 265.746 267.433 264.894C267.476 264.482 267.519 264.056 267.548 263.643C268.24 259.585 266.798 255.793 264.65 252.546C261.81 248.221 261.435 244.216 263.973 239.851C268.716 234.369 268.384 228.714 265.386 222.526C263.31 218.241 259.201 213.185 263.064 208.86C270.388 200.677 268.615 193.012 263.713 184.988C261.796 181.848 261.839 179.293 263.742 175.873C268.024 168.169 269.119 160.158 262.517 152.733C261.003 149.779 260.815 147.264 263.555 144.456C267.663 140.238 269.134 134.689 266.669 129.593C262.617 121.21 261.695 113.372 267.476 105.481C267.606 105.308 267.663 105.069 267.721 104.856C269.581 97.9099 268.629 96.7256 260.873 96.699C232.14 96.6191 203.422 96.6058 174.689 96.4861C171.964 96.4728 168.836 97.4042 166.731 94.7296C161.901 88.5953 154.419 87.6771 147.182 86.3198C146.62 85.5081 146.043 84.6964 145.481 83.8847C145.481 82.115 145.481 80.3585 145.466 78.5887C147.153 74.5834 145.149 71.7491 141.833 69.5269C133.37 63.8583 96.3768 65.6281 88.2601 72.002C85.6795 73.6653 85.4344 76.3266 86.0111 78.5754C87.4528 84.2573 84.8001 86.3065 79.1342 87.5973C67.6008 90.2453 66.5916 91.7888 66.606 102.74C66.6348 193.81 66.6493 284.881 66.7646 375.951C66.779 382.777 66.1014 389.67 67.9179 396.417C71.032 402.737 77.9088 402.631 83.7332 404.294C86.3138 406.317 85.3623 409.218 85.6939 411.719C86.4147 417.162 89.1395 420.714 95.2234 421.659C106.642 424.786 118.175 424.533 129.766 422.91Z" fill="#FDFDFD"/>
<path d="M147.182 86.3464C154.419 87.717 161.901 88.6219 166.731 94.7562C168.836 97.4308 171.964 96.4994 174.689 96.5127C203.422 96.6324 232.14 96.6457 260.873 96.7256C268.629 96.7522 269.595 97.9365 267.721 104.883C267.663 105.095 267.606 105.322 267.476 105.508C261.695 113.399 262.603 121.236 266.669 129.619C269.134 134.716 267.663 140.265 263.555 144.483C260.815 147.291 261.003 149.806 262.517 152.76C261.075 155.062 258.61 154.223 256.476 154.45C255.654 153.412 254.832 152.374 254.011 151.336C253.463 147.783 255.726 145.068 257.254 142.168C260.008 136.965 260.657 131.762 257.716 126.439C257.471 126.053 257.226 125.681 256.995 125.295C256.461 121.636 254.371 118.256 255.351 114.317C256.231 110.737 261.767 107.038 258.206 104.137C255.784 102.155 250.017 103.632 245.735 103.645C243.602 103.658 241.468 103.858 239.334 103.978C219.151 102.727 198.953 103.392 178.755 103.831C177.818 103.831 176.866 103.818 175.929 103.818C172.7 105.002 166.313 99.7196 166.198 106.759C165.837 128.861 166.212 150.963 166.313 173.065C165.996 189.512 165.16 205.946 166.832 222.38C165.88 240.038 166.241 257.695 166.5 275.353C166.356 277.762 166.082 280.184 166.082 282.592C166.053 317.881 166.068 353.17 166.053 388.459C164.568 389.457 165.592 389.55 166.558 389.67C168.749 389.59 170.926 389.51 173.118 389.431C174.516 389.55 175.914 389.67 177.313 389.803C177.818 390.761 178.308 390.735 178.769 389.777C183.57 389.75 188.356 389.723 193.157 389.697C198.462 392.731 204.33 390.508 209.881 391.174C212.158 391.453 215.013 390.309 216.902 393.809C202.571 393.809 188.933 393.755 175.295 393.862C172.93 393.875 169.759 392.598 168.692 396.124C162.781 399.584 156.855 403.003 149.647 403.669C148.58 403.376 147.73 403.655 147.081 404.454C144.457 403.123 141.905 401.739 142.006 398.439C143.232 397.88 144.457 397.335 145.682 396.776C149.892 395.392 155.399 396.47 157.706 391.427C159.869 390.602 160.056 388.872 160.056 387.049C160.056 374.274 160.056 361.5 160.056 348.726C160.056 346.929 160.157 345.093 157.591 344.627C157.605 324.215 157.62 303.816 157.634 283.404C160.647 282.752 160.027 280.49 160.027 278.6C160.056 260.969 160.056 243.351 160.027 225.72C160.027 223.83 160.618 221.568 157.605 220.943C157.418 220.49 157.23 220.038 157.028 219.585C157.028 183.245 157.014 146.905 157.014 110.564C157.014 109.66 157.014 108.741 157.014 107.837C157.749 96.3264 157.749 96.3264 145.581 93.2792C145.12 93.1594 144.673 93.0263 144.212 92.8933C143.621 90.0723 146.144 88.4888 147.182 86.3464Z" fill="#1F1934"/>
<path d="M377.952 86.0669C380.591 87.025 383.301 87.85 385.954 88.7415C396.305 92.2145 397.357 93.0928 397.357 102.66C397.401 195.979 397.429 289.298 397.444 382.604C397.444 400.049 397.386 400.049 378.961 404.174C374.362 404.587 376.626 407.913 376.208 409.989C375.862 411.692 376.02 413.476 374.117 414.474C371.436 415.871 370.6 413.223 368.927 412.384C368.812 409.909 368.783 407.408 366.073 405.904C366.087 405.412 366.102 404.906 366.116 404.414C366.116 403.536 366.116 402.657 366.116 401.792C369.187 399.81 374.521 402.524 376.208 397.654C376.698 397.268 377.188 396.882 377.678 396.496C380.807 396.563 383.647 395.605 386.415 394.407C390.192 392.957 388.707 389.87 388.722 387.474C388.851 347.395 388.909 307.329 388.909 267.249C388.909 211.016 388.851 154.782 388.808 98.5485C389.096 97.6303 388.65 97.3243 387.712 97.444C384.151 93.9311 378.947 94.1839 374.564 92.5871C375.689 90.4182 376.828 88.2492 377.952 86.0669ZM394.315 127.424C393.825 127.424 393.335 127.424 392.845 127.424C392.845 209.259 392.845 291.082 392.845 372.917C393.335 372.917 393.825 372.917 394.315 372.917C394.315 291.082 394.315 209.259 394.315 127.424Z" fill="#2A253E"/>
<path d="M67.9323 396.443C66.1158 389.697 66.7934 382.804 66.7789 375.978C66.6636 284.907 66.6492 193.837 66.6204 102.767C66.6204 91.8154 67.6151 90.2718 79.1486 87.6238C84.8144 86.3197 87.4671 84.2705 86.0254 78.6019C85.4488 76.3398 85.6939 73.6785 88.2745 72.0285C91.0137 72.441 93.551 73.4656 96.593 72.2813C98.7988 71.4164 102.028 71.0571 102.504 74.8362C92.686 77.218 91.7201 78.7616 96.6218 84.2705C96.6651 87.9299 101.509 88.2625 102.403 91.3496C97.4868 92.1747 92.3689 92.0948 87.7699 94.2638C75.2416 95.3283 75.2849 95.3283 75.2849 106.852C75.2849 199.546 75.2561 292.226 75.2561 384.92C75.2561 387.781 74.8091 390.681 76.0201 393.462C72.9349 393.542 69.1721 392.092 67.9323 396.443ZM69.72 359.105C70.2967 359.012 70.8877 358.905 71.4644 358.812C71.4644 276.364 71.4644 193.917 71.4644 111.469C70.8877 111.469 70.2967 111.469 69.72 111.469C69.72 194.023 69.72 276.564 69.72 359.105ZM70.2678 102.86C70.4408 102.088 70.6571 101.503 70.6571 100.904C70.6571 100.531 70.2246 99.8259 70.1813 99.8526C69.0136 100.172 69.3884 101.077 69.4461 101.809C69.4749 102.101 69.8786 102.381 70.2678 102.86Z" fill="#18122A"/>
<path d="M377.952 86.067C376.827 88.236 375.688 90.405 374.564 92.5873C358.201 90.4316 341.809 89.6332 325.403 92.2679C321.553 92.5473 317.805 93.2659 314.244 94.6897C306.704 94.3837 305.796 98.3623 307.295 103.871C307.093 107.437 306.891 111.004 306.689 114.57C300.793 115.688 301.687 110.857 299.841 106.306C299.841 138.349 299.87 168.528 299.784 198.694C299.784 201.222 300.865 204.017 298.457 206.239C298.385 169.499 298.371 132.76 298.169 96.0204C298.14 90.6844 301.903 88.8481 306.156 88.2493C313.797 87.1582 317.963 84.7497 317.3 76.473C316.796 70.2455 323.341 69.2076 328.675 68.1431C331.068 72.6806 335.711 71.483 339.776 72.002C342.804 72.3879 346.595 70.1657 348.772 73.9714C342.818 74.3972 336.835 74.7165 330.895 75.2887C327.608 75.6081 325.013 76.5927 325.258 80.638C325.532 85.2553 329.108 83.3658 331.515 83.8581C332.625 85.5481 333.591 85.2287 334.485 83.6852C341.16 82.5408 347.821 82.5807 354.51 83.6186C356.298 85.9473 358.259 85.8142 360.32 83.938C361.517 83.9114 362.728 84.0178 363.896 83.8448C366.13 83.4989 369.576 85.9207 370.325 82.0351C371.003 78.5222 369.46 76.0738 365.135 75.5948C362.555 75.3153 360.017 74.6234 357.466 74.1044C357.249 71.1237 359.138 70.5782 361.892 70.5383C364.342 70.5116 367.139 71.4564 369.057 69.0612C375.905 70.4584 378.903 74.2242 377.765 80.771C377.462 82.5009 377.88 84.3106 377.952 86.067Z" fill="#18122A"/>
<path d="M298.472 206.252C300.88 204.043 299.784 201.236 299.799 198.707C299.885 168.541 299.856 138.362 299.856 106.32C301.702 110.857 300.808 115.701 306.704 114.583L307.007 114.397L307.367 114.45C307.382 126.413 307.396 138.389 307.411 150.351C307.194 157.031 306.978 163.711 306.762 170.391C302.869 169.939 301.183 171.203 301.211 175.128C301.356 199.466 301.384 223.804 301.183 248.141C301.139 252.852 303.345 252.626 306.791 251.468C306.791 252.812 306.791 254.156 306.791 255.5C298.487 254.861 301.687 260.663 301.413 264.123C301.038 268.98 304.715 265.999 306.776 266.092C307.021 269.658 307.252 273.211 307.497 276.777C307.497 282.526 307.497 288.274 307.497 294.023C307.497 295.367 307.497 296.711 307.497 298.054C307.497 301.142 307.497 304.242 307.497 307.329C307.252 308.673 307.007 310.017 306.776 311.361C303.878 311.507 303.273 308.833 301.456 306.93C301.168 317.535 301.168 317.535 306.791 316.63C307.036 318.414 307.281 320.21 307.526 321.993C307.526 323.31 307.526 324.628 307.512 325.945C307.512 328.181 307.512 330.403 307.512 332.638C307.281 333.077 307.036 333.53 306.805 333.969C300.072 334.288 304.455 328.207 301.255 325.666C301.255 342.166 301.312 358.054 301.183 373.942C301.168 376.271 302.797 379.517 298.515 380.515C298.515 378.28 298.515 376.058 298.515 373.822C300.404 372.066 300.39 370.323 298.515 368.566C298.515 363.23 298.515 357.881 298.515 352.545C300.779 343.27 300.534 333.982 298.588 324.694C298.588 317.123 298.602 309.565 298.602 301.993C300.519 300.144 299.77 297.828 299.784 295.713C299.842 282.299 299.799 268.886 299.784 255.487C299.799 247.356 300.058 239.213 299.726 231.096C299.539 226.385 301.341 221.475 298.487 216.964C298.501 213.371 298.487 209.818 298.472 206.252ZM302.004 271.867C301.211 274.622 300.865 276.338 302.076 278.427C302.999 276.298 302.898 274.622 302.004 271.867ZM302.177 292.333C302.033 292.359 301.802 292.346 301.745 292.426C301.644 292.546 301.658 292.745 301.629 292.918C301.875 292.878 302.12 292.825 302.365 292.785C302.293 292.639 302.235 292.479 302.177 292.333ZM302.394 156.978C302.278 156.845 302.177 156.699 302.062 156.566C301.932 156.685 301.788 156.792 301.658 156.911C301.846 157.084 302.019 157.271 302.206 157.444C302.264 157.284 302.321 157.124 302.394 156.978Z" fill="#2A253E"/>
<path d="M102.504 74.8231C102.028 71.044 98.7987 71.4033 96.5929 72.2682C93.551 73.4658 91.028 72.4279 88.2744 72.0154C96.3911 65.6415 133.385 63.8717 141.847 69.5403C145.163 71.7625 147.167 74.5968 145.48 78.6021C143.923 78.7086 141.876 78.2961 141.631 80.3453C141.343 82.7538 143.159 83.6719 145.495 83.8981C146.057 84.7098 146.634 85.5215 147.196 86.3333C146.158 88.4889 143.635 90.0724 144.255 92.8535C131.784 91.3764 119.328 89.7131 106.742 91.7757C105.301 91.616 103.859 91.4696 102.417 91.3099C101.524 88.2361 96.6794 87.9034 96.6362 84.2308C108.429 82.0885 120.337 82.2747 132.145 83.6453C138.402 84.3772 139.959 82.5276 138.301 77.3247C139.151 76.7924 139.728 76.034 139.094 75.1823C135.994 70.9775 126.09 70.4319 121.246 74.1311C115.003 74.3839 108.761 74.5968 102.504 74.8231Z" fill="#2A253E"/>
<path d="M67.9321 396.443C69.172 392.092 72.9348 393.542 76.02 393.449C80.1288 395.951 84.8863 396.656 89.5718 397.588C94.7763 398.386 99.9231 399.557 105.272 399.025C117.382 400.834 129.42 400.741 141.357 397.8C141.472 398.12 141.703 398.319 142.049 398.426C141.948 401.726 144.5 403.11 147.124 404.44C145.106 408.685 148.147 413.848 144.313 417.76C141.386 417.707 138.258 418.093 136.902 414.74C137.695 406.25 137.695 406.263 128.339 406.769C124.518 406.982 120.698 407.128 116.877 407.301C110 407.208 103.124 407.115 96.2324 407.035C94.6898 407.408 93.969 408.273 93.7671 409.79C93.5509 411.36 94.7475 413.968 92.311 414.221C89.37 414.527 89.0961 411.533 88.332 409.617C87.7841 408.233 88.1157 406.53 87.5246 405.172C86.8759 403.695 85.5784 402.551 83.7762 404.294C77.923 402.657 71.0462 402.764 67.9321 396.443Z" fill="#2A253E"/>
<path d="M256.49 154.436C258.609 154.21 261.089 155.048 262.531 152.746C269.134 160.171 268.038 168.182 263.756 175.886C261.853 179.306 261.824 181.861 263.727 185.002C268.615 193.025 270.402 200.69 263.078 208.874C259.215 213.185 263.324 218.255 265.4 222.539C268.398 228.714 268.73 234.382 263.987 239.865C262.531 237.589 260.065 238.401 257.946 238.188C261.132 233.318 262.459 228.261 258.191 223.484C253.217 217.909 253.664 212.2 256.865 206.265C260.541 199.439 260.873 192.799 256.158 186.226C253.837 182.979 253.693 179.36 256 176.232C261.377 168.94 260.786 161.768 256.49 154.436Z" fill="#18122A"/>
<path d="M298.501 380.515C302.783 379.517 301.154 376.27 301.168 373.942C301.298 358.054 301.24 342.179 301.24 325.666C304.426 328.207 300.058 334.275 306.791 333.969C307.007 337.947 307.223 341.926 307.439 345.905C307.252 358.666 307.137 371.427 306.877 384.175C306.646 395.166 306.574 395.166 318.555 396.457C319.031 396.576 319.492 396.696 319.968 396.816C326.023 399.011 332.323 399.371 338.724 399.105C345.442 400.142 352.16 400.329 358.879 399.251C360.32 399.171 361.762 399.091 363.204 399.011C367.226 399.69 370.888 398.053 374.694 397.401C375.199 397.481 375.689 397.574 376.193 397.654C374.507 402.524 369.187 399.81 366.102 401.793C347.677 400.981 328.949 404.108 310.885 398.04C307.612 396.936 306.935 399.477 307.021 401.965C301.226 400.967 298.688 397.335 298.386 392.305C298.155 388.393 298.458 384.441 298.501 380.515Z" fill="#18122A"/>
<path d="M257.932 238.161C260.066 238.374 262.516 237.576 263.973 239.838C261.435 244.202 261.81 248.208 264.65 252.532C266.784 255.779 268.226 259.571 267.548 263.63C267.144 263.803 266.741 263.976 266.337 264.149C266.697 264.388 267.072 264.641 267.433 264.881C267.188 265.732 266.942 266.584 266.697 267.436C266.51 267.529 266.15 267.635 266.15 267.728C266.164 268.061 266.294 268.394 266.38 268.726C266.005 269.498 265.818 270.456 265.212 271.028C259.792 276.058 259.157 281.008 265.14 286.105C265.919 286.77 266.15 287.994 266.625 288.966C266.813 289.631 267 290.296 267.188 290.962C268.211 291.787 268.139 292.838 267.923 293.916C267.231 294.381 266.539 294.847 265.847 295.3C266.524 295.765 267.216 296.244 267.894 296.71C267.851 297.136 267.807 297.575 267.779 298.001C266.049 298.294 263.684 297.296 262.834 299.478C262.026 301.58 263.8 302.592 265.544 303.43C264.391 305.626 263.252 307.821 262.098 310.003C257.917 310.017 261.853 313.836 258.999 314.98C257.716 311.946 256.447 308.992 255.193 306.025C254.63 303.39 257.413 302.379 258.422 300.489C260.44 296.71 260.686 293.011 258.249 289.604C255.121 285.227 253.679 280.583 254.025 275.406C254.414 275.047 254.789 274.688 255.178 274.328C257.903 270.616 258.811 266.251 260.325 262.1C260.758 261.834 261.19 261.567 261.623 261.301C261.277 261.142 260.916 260.969 260.57 260.809C259.676 258.547 259.042 256.152 257.831 254.049C255.697 250.323 253.189 246.784 254.731 242.273C255.784 240.916 256.851 239.545 257.932 238.161Z" fill="#1F1934"/>
<path d="M255.164 306.038C256.418 309.005 257.687 311.973 258.97 314.993C261.81 313.849 257.889 310.03 262.069 310.017C262.17 313.516 264.333 316.244 266.149 319.065C269.84 324.774 269.869 330.416 265.544 335.778C261.233 341.128 260.311 346.118 264.765 352.052C268.744 357.362 270.215 363.03 264.794 369.045C262.574 371.506 261.911 375.525 262.084 379.144C257.081 377.787 260.541 374.926 261.104 372.97C261.94 370.069 262.978 367.528 258.782 366.29C261.954 362.112 262.502 358.173 257.586 354.7L257.341 354.195C256.807 352.505 255.193 351.866 253.765 351.041C253.765 350.216 253.78 349.391 253.78 348.566C253.347 343.816 255.193 339.544 257.37 335.432C260.945 328.646 260.685 322.325 255.294 316.431L255.423 316.59C255.236 315.499 255.38 314.222 253.794 313.822L253.751 313.956C253.664 313.091 253.592 312.212 253.506 311.347C253.679 309.604 253.837 307.861 254.01 306.118C254.4 306.118 254.775 306.078 255.164 306.038Z" fill="#18122A"/>
<path d="M368.927 412.398C370.585 413.236 371.421 415.884 374.117 414.487C376.02 413.489 375.862 411.706 376.208 410.002C376.626 407.927 374.377 404.6 378.961 404.188C378.745 405.039 378.413 405.877 378.356 406.742C377.505 419.251 375.083 421.539 361.459 423.07C351.439 424.201 341.434 423.841 331.429 423.043C321.683 422.258 317.791 418.585 316.551 409.683C316.306 407.94 315.859 406.223 315.513 404.494C318.641 404.573 317.877 407.048 318.814 408.632C320.501 411.493 321.15 416.376 327.032 414.274C339.459 418.998 352.261 416.789 364.962 415.964C366.938 415.831 367.774 413.755 368.927 412.398Z" fill="#18122A"/>
<path d="M258.782 366.317C262.978 367.555 261.94 370.083 261.103 372.997C260.541 374.94 257.096 377.801 262.084 379.171C263.54 382.831 265.097 386.463 266.409 390.163C268.297 395.498 266.712 396.803 260.556 396.576C249.166 396.137 237.748 396.177 226.33 396.017C226.344 395.272 226.359 394.54 226.359 393.795C237.604 393.023 249.195 395.459 260.123 391.347C253.232 391.892 246.369 390.748 239.55 391.214C234.677 391.546 229.574 389.83 224.932 392.465C222.351 392.318 219.006 393.316 219.122 389.138C230.122 388.938 241.122 388.632 252.136 388.592C255.899 388.579 257.47 388.047 255.87 384.108C253.78 378.972 254.486 373.702 256.634 368.619C256.923 368.513 257.211 368.446 257.528 368.42C258.465 368.233 259.056 367.754 259.071 366.796L258.782 366.317Z" fill="#1F1934"/>
<path d="M327.032 414.274C321.15 416.376 320.501 411.493 318.814 408.632C317.877 407.049 318.641 404.574 315.513 404.494C312.557 404.015 309.587 403.602 307.05 401.965C306.964 399.477 307.641 396.949 310.914 398.04C328.978 404.121 347.691 400.981 366.13 401.792C366.13 402.671 366.13 403.549 366.13 404.414C365.64 404.893 365.15 405.359 364.66 405.838C363.276 405.917 361.892 405.984 360.522 406.064C358.403 404.001 356.384 403.323 354.654 406.45C352.708 406.503 350.762 406.543 348.816 406.596C347.417 403.562 346.004 403.549 344.563 406.57C340.757 406.583 336.936 406.782 333.13 406.583C325.359 406.184 324.624 407.035 327.032 414.274Z" fill="#1F1934"/>
<path d="M219.136 389.124C219.021 393.289 222.366 392.305 224.946 392.451C225.422 392.89 225.898 393.343 226.373 393.782C226.359 394.527 226.345 395.259 226.345 396.004C207.141 396.044 187.938 396.07 168.735 396.11C169.802 392.584 172.988 393.862 175.338 393.848C188.976 393.742 202.614 393.795 216.945 393.795C215.056 390.295 212.202 391.44 209.924 391.16C204.373 390.482 198.506 392.717 193.2 389.683C198.448 388.752 203.883 390.122 209.059 388.499C212.418 388.699 215.777 388.912 219.136 389.124Z" fill="#18122A"/>
<path d="M83.762 404.321C85.5641 402.578 86.8616 403.709 87.5103 405.199C88.1014 406.556 87.7698 408.26 88.3177 409.644C89.0818 411.56 89.3557 414.54 92.2967 414.248C94.7476 413.995 93.551 411.387 93.7528 409.817C93.9547 408.3 94.6755 407.421 96.2181 407.062C96.2181 411.387 95.4684 416.124 102.403 416.643C101.235 420.914 104.926 418.692 106.353 418.958C110.923 419.77 115.94 417.774 121.404 420.861C115.364 422.444 110.361 421.686 105.43 421.726C102.043 421.753 98.6546 418.838 95.2378 421.699C89.1539 420.755 86.4291 417.202 85.7082 411.759C85.3911 409.244 86.3282 406.344 83.762 404.321Z" fill="#1F1934"/>
<path d="M95.2522 421.686C98.669 418.825 102.057 421.739 105.445 421.712C110.361 421.659 115.364 422.431 121.419 420.847C115.955 417.76 110.938 419.756 106.368 418.945C104.94 418.692 101.25 420.914 102.417 416.629C108.645 416.616 114.888 416.616 121.116 416.603C123.062 416.696 125.009 416.789 126.955 416.882C124.922 420.062 126.695 421.739 129.752 422.91C118.175 424.533 106.642 424.786 95.2522 421.686Z" fill="#2A253E"/>
<path d="M348.787 73.9714C346.624 70.179 342.833 72.3879 339.791 72.002C335.725 71.483 331.083 72.6939 328.69 68.1431C339.142 66.2269 349.666 65.881 360.263 66.8124C359.225 67.9967 357.754 67.8237 356.327 67.9834C354.352 68.2096 351.497 66.9854 350.719 69.5669C349.883 72.348 353.948 71.5895 354.784 73.3726L354.64 73.998C352.694 73.998 350.733 73.9847 348.787 73.9714Z" fill="#2A253E"/>
<path d="M129.766 422.91C126.71 421.739 124.936 420.076 126.969 416.882C130.285 416.164 133.587 415.458 136.902 414.74C138.258 418.08 141.386 417.707 144.313 417.76C140.492 421.979 135.057 422.271 129.766 422.91Z" fill="#1F1934"/>
<path d="M354.784 73.3858C353.948 71.5894 349.882 72.3612 350.719 69.5801C351.497 66.9986 354.337 68.2228 356.327 67.9966C357.754 67.8369 359.225 68.0099 360.263 66.8256C363.42 66.8389 366.923 65.6946 369.071 69.0877C367.154 71.4829 364.357 70.5248 361.906 70.5648C359.152 70.6047 357.278 71.1503 357.48 74.1309C356.947 74.091 356.413 74.0644 355.88 74.0245C355.592 73.6918 355.231 73.4789 354.784 73.3858Z" fill="#1F1934"/>
<path d="M299.784 255.46C299.798 268.873 299.842 282.286 299.784 295.686C299.77 297.815 300.519 300.13 298.602 301.966C298.602 286.464 298.587 270.962 298.587 255.46C298.991 255.473 299.395 255.473 299.784 255.46Z" fill="#1F1934"/>
<path d="M299.784 255.46C299.38 255.473 298.991 255.473 298.587 255.473C298.559 242.633 298.53 229.778 298.501 216.938C301.356 221.462 299.539 226.359 299.741 231.069C300.058 239.186 299.798 247.33 299.784 255.46Z" fill="#18122A"/>
<path d="M298.587 324.681C300.534 333.969 300.779 343.257 298.515 352.531C298.544 343.243 298.573 333.969 298.587 324.681Z" fill="#18122A"/>
<path d="M265.515 303.443C263.756 302.618 261.983 301.594 262.805 299.491C263.655 297.309 266.005 298.307 267.75 298.014C267.678 300.064 267.13 301.94 265.515 303.443Z" fill="#2A253E"/>
<path d="M145.495 83.9113C143.159 83.685 141.343 82.7669 141.631 80.3584C141.876 78.2959 143.924 78.7084 145.481 78.6152C145.481 80.3717 145.481 82.1415 145.495 83.9113Z" fill="#1F1934"/>
<path d="M298.515 368.552C300.389 370.309 300.404 372.065 298.515 373.809C298.515 372.065 298.515 370.309 298.515 368.552Z" fill="#18122A"/>
<path d="M267.865 296.724C267.187 296.258 266.495 295.779 265.818 295.313C266.51 294.847 267.202 294.382 267.894 293.929C267.894 294.861 267.879 295.792 267.865 296.724Z" fill="#2A253E"/>
<path d="M267.433 264.894C267.072 264.655 266.697 264.402 266.337 264.163C266.741 263.99 267.144 263.817 267.548 263.644C267.505 264.056 267.476 264.482 267.433 264.894Z" fill="#18122A"/>
<path d="M147.11 404.44C147.773 403.629 148.623 403.349 149.676 403.655C148.825 403.908 147.96 404.174 147.11 404.44Z" fill="#2A253E"/>
<path d="M267.158 290.962C266.971 290.296 266.784 289.631 266.596 288.966C267.115 289.565 267.923 290.07 267.158 290.962Z" fill="#2A253E"/>
<path d="M266.366 268.74C266.279 268.407 266.15 268.075 266.135 267.742C266.135 267.649 266.496 267.542 266.683 267.449C266.582 267.875 266.467 268.314 266.366 268.74Z" fill="#18122A"/>
<path d="M142.035 398.426C141.689 398.32 141.458 398.107 141.343 397.801C133.125 395.871 131.712 390.575 132.534 383.629C133.068 379.118 132.462 374.487 132.376 369.91C132.404 347.715 132.433 325.519 132.462 303.324C132.462 293.158 132.448 282.978 132.448 272.812C132.448 271.015 132.448 269.219 132.433 267.409C132.433 259.452 132.448 251.508 132.448 243.551C132.433 213.371 132.404 183.205 132.39 153.026C132.39 150.391 132.376 147.77 132.376 145.135C132.361 138.894 132.361 132.653 132.347 126.413C132.361 122.9 132.361 119.387 132.376 115.874C132.376 114.956 132.39 114.038 132.39 113.119C132.347 109.567 132.304 106 132.26 102.448C133.76 95.4083 136.21 94.5833 142.006 99.1209C143.058 99.9459 144.269 100.598 145.423 101.33C145.639 108.848 145.855 116.366 146.072 123.884C146.1 154.423 146.115 184.962 146.144 215.5C146.115 235.061 146.086 254.622 146.057 274.169C146.086 297.176 146.115 320.17 146.144 343.177C146.115 356.084 146.1 368.992 146.072 381.899C145.956 386.849 145.841 391.813 145.711 396.763C144.486 397.322 143.26 397.867 142.035 398.426Z" fill="#8B8386"/>
<path d="M146.144 215.5C146.115 184.962 146.1 154.423 146.072 123.884C153.266 124.949 155.861 121.529 155.774 115.435C155.745 113.732 155.342 111.895 157.057 110.551C157.057 146.892 157.072 183.232 157.072 219.572C153.381 218.308 150.786 214.542 146.144 215.5Z" fill="#BCB8C0"/>
<path d="M146.129 343.177C146.1 320.17 146.072 297.176 146.043 274.169C149.705 273.783 153.395 275.899 157.057 274.103C157.259 277.19 157.461 280.29 157.663 283.377C157.648 303.79 157.634 324.189 157.619 344.601C157.418 348.58 157.216 352.558 157.028 356.537C152.833 356.138 154.722 352.718 154.866 351.374C155.601 345 153.064 342.285 146.129 343.177Z" fill="#BCB8C0"/>
<path d="M209.059 388.499C203.883 390.109 198.434 388.752 193.2 389.684C188.399 389.71 183.613 389.737 178.812 389.764C178.322 389.777 177.832 389.777 177.356 389.79C175.958 389.67 174.559 389.551 173.161 389.418C173.089 388.659 173.002 387.887 172.93 387.129C176.736 381.274 179.706 375.06 182.143 368.606C185.704 366.237 185.747 361.766 188.818 359.092C189.452 360.329 190.375 361.66 191.816 361.62C199.356 361.407 202.11 366.437 204.042 371.6C205.527 375.579 208.208 377.734 212.058 379.211C212.317 382.245 210.198 384.521 209.088 387.129C209.073 387.581 209.059 388.034 209.059 388.499Z" fill="#DCD3D4"/>
<path d="M257.009 125.268C257.254 125.654 257.499 126.027 257.73 126.413C256.043 126.679 255.308 127.69 255.222 129.194C251.819 134.929 248.417 140.664 245.029 146.399C243.789 146.905 243.659 147.996 243.4 149.034C239.608 147.876 238.296 144.669 236.854 141.808C234.332 136.765 231.333 132.188 226.215 129.047C226.273 128.222 226.345 127.397 226.402 126.559C231.232 120.664 233.279 113.159 239.104 107.85C240.041 107.85 241.007 107.943 241.929 107.85C248.907 107.065 253.146 108.515 252.641 116.406C252.482 119.214 252.511 123.618 257.009 125.268Z" fill="#E3DDE0"/>
<path d="M157.057 274.102C153.395 275.899 149.705 273.783 146.043 274.169C146.072 254.608 146.1 235.061 146.144 215.5C150.8 214.542 153.381 218.308 157.072 219.572C157.259 220.024 157.446 220.477 157.648 220.929C157.446 238.654 157.245 256.378 157.057 274.102Z" fill="#BAB1B0"/>
<path d="M166.327 173.039C166.226 150.937 165.851 128.834 166.212 106.732C166.327 99.693 172.714 104.989 175.943 103.791C173.42 106.439 172.757 109.527 172.988 113C174.357 133.904 170.22 154.809 173.045 175.7C173.031 176.592 173.002 177.483 172.988 178.362C168.893 178.574 171.33 171.855 166.327 173.039Z" fill="#B3ABA9"/>
<path d="M172.916 387.115C172.988 387.874 173.074 388.646 173.146 389.404C170.955 389.484 168.778 389.564 166.587 389.644C166.515 389.204 166.342 388.805 166.082 388.433C166.082 353.144 166.082 317.855 166.111 282.565C166.111 280.157 166.385 277.735 166.529 275.327C167.207 275.313 167.87 275.287 168.547 275.273C169.268 286.677 169.528 298.134 170.84 309.485C172.094 320.29 173.089 331.347 170.984 341.766C168.216 355.446 169.355 368.978 168.735 382.578C168.576 385.332 169.138 387.461 172.916 387.115Z" fill="#B3ABA9"/>
<path d="M145.408 101.343C144.27 100.611 143.059 99.9591 141.992 99.1341C136.196 94.6099 133.745 95.4349 132.246 102.461C124.216 105.628 116.733 104.364 109.568 100.119C108.862 99.7063 107.694 99.9458 106.742 99.8793C106.728 97.1914 106.728 94.4901 106.714 91.8022C119.3 89.7397 131.756 91.403 144.226 92.88C144.688 93.0131 145.135 93.1595 145.596 93.2659C157.764 96.3131 157.764 96.3131 157.028 107.823C155.63 101.889 151.319 100.385 145.408 101.343Z" fill="#BCB8C0"/>
<path d="M173.031 175.7C170.205 154.796 174.343 133.891 172.973 113C172.743 109.527 173.406 106.44 175.929 103.792C176.866 103.792 177.817 103.805 178.755 103.805C178.798 104.257 178.841 104.723 178.884 105.175C178.899 106.054 178.913 106.932 178.928 107.81C178.899 129.114 178.855 150.404 178.827 171.708C178.812 173.039 178.783 174.356 178.769 175.687C176.88 175.687 174.963 175.7 173.031 175.7Z" fill="#9B979E"/>
<path d="M257.932 238.161C256.851 239.532 255.769 240.903 254.703 242.273C253.895 242.247 253.102 242.233 252.295 242.207C253.03 239.958 253.333 237.456 254.602 235.5C256.836 232.027 256.663 229.1 253.722 226.212C253.737 224.003 253.578 221.967 252.165 219.918C249.83 216.538 250.176 212.653 251.704 209.126C255.049 201.422 254.731 193.678 252.035 186.066C250.824 182.633 251.459 179.865 252.309 176.552C254.198 169.153 257.456 161.396 250.853 154.37C250.853 153.931 250.868 153.478 250.868 153.039C252.281 152.999 253.42 152.547 254.039 151.283C254.861 152.321 255.683 153.359 256.505 154.396C260.801 161.742 261.392 168.914 256.015 176.166C253.708 179.28 253.852 182.912 256.173 186.159C260.873 192.733 260.541 199.373 256.88 206.199C253.679 212.147 253.232 217.842 258.206 223.418C262.444 228.248 261.118 233.305 257.932 238.161Z" fill="#BAB1B0"/>
<path d="M166.327 173.039C171.33 171.855 168.908 178.575 172.988 178.375C173.016 190.817 173.045 203.272 173.074 215.713C171.041 217.962 171.503 222.207 166.846 222.353C165.159 205.92 165.995 189.473 166.327 173.039Z" fill="#BAB1B0"/>
<path d="M166.832 222.34C171.503 222.193 171.027 217.949 173.06 215.7C173.997 215.54 174.934 215.394 175.871 215.234C175.871 215.793 175.885 216.339 175.885 216.897C167.927 232.014 171.849 247.822 172.714 263.457C171.315 267.396 169.917 271.321 168.504 275.26C167.826 275.273 167.163 275.3 166.486 275.313C166.241 257.656 165.88 239.998 166.832 222.34Z" fill="#D7D6DC"/>
<path d="M145.408 101.343C151.319 100.398 155.63 101.888 157.043 107.823C157.043 108.728 157.043 109.646 157.043 110.551C155.327 111.882 155.731 113.731 155.76 115.434C155.846 121.542 153.251 124.949 146.057 123.884C145.841 116.366 145.624 108.848 145.408 101.343Z" fill="#BAB1B0"/>
<path d="M145.711 396.763C145.827 391.813 145.942 386.849 146.057 381.899C153.424 384.427 155.284 381.447 154.39 375.113C153.958 372.066 154.332 368.938 154.318 365.838C154.304 363.975 154.448 362.232 157.014 361.886C157.259 371.733 157.49 381.566 157.735 391.413C155.414 396.457 149.921 395.379 145.711 396.763Z" fill="#BCB8C0"/>
<path d="M157.057 274.102C157.245 256.378 157.446 238.654 157.634 220.916C160.661 221.541 160.056 223.804 160.056 225.693C160.085 243.324 160.085 260.942 160.056 278.573C160.056 280.463 160.676 282.725 157.663 283.377C157.461 280.29 157.259 277.203 157.057 274.102Z" fill="#18122A"/>
<path d="M257.009 125.268C252.511 123.618 252.482 119.214 252.67 116.393C253.16 108.502 248.936 107.052 241.958 107.837C241.035 107.943 240.069 107.85 239.132 107.837C239.219 106.958 239.305 106.08 239.377 105.189C239.449 104.776 239.45 104.364 239.349 103.951C241.482 103.831 243.616 103.632 245.75 103.618C250.031 103.605 255.798 102.128 258.22 104.111C261.781 107.012 256.245 110.711 255.366 114.29C254.385 118.229 256.476 121.622 257.009 125.268Z" fill="#ECEAEF"/>
<path d="M157.72 391.413C157.475 381.566 157.245 371.733 157 361.886C157 360.103 157.014 358.333 157.014 356.55C157.216 352.571 157.418 348.593 157.605 344.614C160.171 345.093 160.07 346.929 160.07 348.712C160.07 361.487 160.07 374.261 160.07 387.035C160.085 388.858 159.897 390.588 157.72 391.413Z" fill="#18122A"/>
<path d="M254.025 151.309C253.405 152.56 252.266 153.026 250.853 153.066C250.752 149.393 251.214 146.08 253.189 142.553C255.395 138.628 256.923 133.944 255.222 129.194C255.308 127.69 256.029 126.679 257.73 126.413C260.671 131.735 260.022 136.951 257.269 142.141C255.741 145.055 253.477 147.77 254.025 151.309Z" fill="#BCB8C0"/>
<path d="M239.349 103.964C239.435 104.377 239.45 104.789 239.377 105.202C222.063 105.215 204.748 105.229 187.448 105.242C186.496 105.242 185.531 105.242 184.579 105.229C182.69 105.215 180.802 105.202 178.913 105.189C178.87 104.736 178.827 104.27 178.769 103.818C198.967 103.379 219.151 102.714 239.349 103.964Z" fill="#BCB8C0"/>
<path d="M177.356 389.777C177.846 389.763 178.336 389.763 178.812 389.75C178.336 390.695 177.861 390.735 177.356 389.777Z" fill="#18122A"/>
<path d="M166.082 388.419C166.342 388.792 166.515 389.191 166.587 389.63C165.621 389.524 164.597 389.417 166.082 388.419Z" fill="#18122A"/>
<path d="M376.208 397.654C375.703 397.574 375.213 397.481 374.709 397.401C373.916 394.221 371.753 395.445 369.691 396.004C367.039 396.723 364.617 396.523 364.732 393.263C365.121 382.431 362.944 371.626 363.579 360.901C364.069 352.651 364.357 344.348 364.429 336.138C364.588 314.714 363.723 293.277 363.233 271.854C362.815 254.143 363.968 236.458 363.521 218.72C362.584 180.89 363.218 143.033 363.204 105.189C364.386 101.024 365.727 96.5393 371.782 97.524C377.577 98.4688 377.693 102.993 377.65 107.371C377.592 115.501 377.678 123.632 377.707 131.775C377.678 208.927 377.664 286.065 377.635 363.217C377.635 371.64 377.635 380.063 377.621 388.486C377.635 391.161 377.65 393.835 377.664 396.51C377.188 396.896 376.698 397.268 376.208 397.654Z" fill="#D7D6DC"/>
<path d="M377.721 131.762C377.692 123.631 377.606 115.501 377.664 107.357C377.692 102.98 377.592 98.4554 371.796 97.5106C365.741 96.5259 364.415 101.01 363.218 105.175C357.177 104.936 353.977 101.436 353.876 96.4594C353.818 93.3856 352.694 93.0928 350.358 93.2392C346.725 93.4654 341.42 91.3097 342.198 98.1493C342.328 99.3203 340.209 99.7727 338.724 99.8659C334.168 97.4973 328.07 97.4441 325.417 92.2545C341.823 89.6198 358.201 90.4182 374.578 92.5739C378.976 94.1707 384.166 93.9178 387.727 97.4308C388.087 97.8034 388.462 98.1626 388.822 98.5352C388.851 154.769 388.923 211.003 388.923 267.236C388.923 307.316 388.866 347.382 388.736 387.461C388.721 389.856 390.206 392.957 386.429 394.394C386.357 391.959 386.299 389.524 386.227 387.075C386.227 381.34 386.227 375.618 386.227 369.883C387.77 357.615 385.261 345.412 385.968 333.064C387.121 313.171 386.141 293.184 386.4 273.251C386.443 269.764 383.142 267.156 384.194 263.776C387.063 254.648 383.589 245.147 386.17 236.006C386.371 235.274 385.953 234.183 385.42 233.531C377.404 223.484 382.565 212.36 383.474 202.021C383.949 196.698 386.314 191.109 386.285 185.347C386.227 172.932 385.968 160.517 386.386 148.116C386.631 141.01 380.821 137.111 377.721 131.762Z" fill="#F5F4F8"/>
<path d="M393.565 423.748C394.139 423.748 394.603 346.032 394.603 250.164C394.603 154.296 394.139 76.5793 393.565 76.5793C392.992 76.5793 392.527 154.296 392.527 250.164C392.527 346.032 392.992 423.748 393.565 423.748Z" fill="#1F1934"/>
<path d="M327.032 414.274C324.624 407.022 325.374 406.184 333.101 406.583C336.893 406.782 340.713 406.583 344.534 406.57C345.947 406.583 347.374 406.583 348.787 406.596C350.733 406.543 352.679 406.503 354.625 406.45C356.629 406.876 358.576 406.756 360.493 406.064C361.877 405.984 363.261 405.917 364.631 405.838C365.107 405.864 365.582 405.891 366.058 405.904C368.768 407.408 368.783 409.909 368.913 412.385C367.759 413.755 366.923 415.831 364.948 415.951C352.261 416.789 339.445 418.998 327.032 414.274Z" fill="#9B979E"/>
<path d="M386.213 387.102C386.285 389.537 386.343 391.972 386.415 394.421C383.647 395.618 380.806 396.576 377.678 396.51C377.664 393.835 377.649 391.161 377.635 388.486C380.504 388.02 383.358 387.554 386.213 387.102Z" fill="#ECEAEF"/>
<path d="M388.808 98.5486C388.448 98.1761 388.073 97.8168 387.712 97.4442C388.664 97.3244 389.096 97.6305 388.808 98.5486Z" fill="#E3DDE0"/>
<path d="M366.073 405.918C365.597 405.891 365.121 405.864 364.646 405.851C365.136 405.372 365.626 404.906 366.116 404.427C366.102 404.92 366.087 405.412 366.073 405.918Z" fill="#18122A"/>
<path d="M89.572 397.588C84.9009 396.656 80.1434 395.964 76.0202 393.449C74.8236 390.681 75.2561 387.767 75.2561 384.906C75.2561 292.213 75.2849 199.532 75.2849 106.839C75.2849 95.315 75.2272 95.315 87.7699 94.2505C89.4999 96.8054 89.4134 99.6929 89.4855 102.54C89.4278 106.08 89.3125 109.633 89.3125 113.172C89.2981 199.12 89.2837 285.08 89.2981 371.028C89.2981 379.876 89.4711 388.725 89.572 397.588Z" fill="#BCB8C0"/>
<path d="M69.72 359.105C69.72 276.564 69.72 194.01 69.72 111.469C70.2966 111.469 70.8877 111.469 71.4644 111.469C71.4644 193.917 71.4644 276.365 71.4644 358.812C70.8877 358.905 70.3111 359.012 69.72 359.105Z" fill="#1F1934"/>
<path d="M138.301 77.3512C139.959 82.5407 138.387 84.3904 132.145 83.6718C120.337 82.2879 108.429 82.1149 96.636 84.2573C91.7343 78.7617 92.7002 77.2048 102.518 74.8229C108.761 74.61 115.003 74.3838 121.26 74.1709C127.012 74.8761 133.212 73.5588 138.301 77.3512Z" fill="#9B979E"/>
<path d="M89.4854 102.541C89.4133 99.693 89.5142 96.8054 87.7698 94.2506C92.3688 92.0816 97.5011 92.1614 102.403 91.3364C103.845 91.4961 105.286 91.6425 106.728 91.8022C106.742 94.4901 106.742 97.1913 106.757 99.8793C106.137 100.345 105.517 100.811 104.897 101.276C99.8943 103.046 94.661 102.447 89.4854 102.541Z" fill="#ECEAEF"/>
<path d="M70.2678 102.86C69.8785 102.381 69.4748 102.102 69.446 101.809C69.3883 101.09 69.0135 100.172 70.1813 99.8527C70.2389 99.8394 70.657 100.545 70.657 100.904C70.657 101.503 70.4264 102.088 70.2678 102.86Z" fill="#1F1934"/>
<path d="M325.403 92.2678C328.055 97.4574 334.168 97.5106 338.709 99.8792C338.695 196.512 338.68 293.144 338.666 389.777C332.697 391.999 327.017 396.004 320.068 392.425C322.98 295.792 319.65 199.186 318.526 102.554C318.526 192.972 318.526 283.404 318.526 373.822C312.283 373.968 312.283 370.442 313.321 366.277C315.253 358.519 312.615 351.893 307.439 345.878C307.223 341.899 307.007 337.921 306.79 333.942C307.021 333.503 307.266 333.051 307.497 332.611C311.115 330.376 311.115 328.154 307.497 325.918C307.497 324.601 307.497 323.284 307.511 321.966C313.076 317.163 313.062 312.053 307.482 307.302C307.482 304.215 307.482 301.115 307.482 298.028C310.914 296.684 310.899 295.34 307.482 293.996C307.482 288.247 307.482 282.499 307.482 276.75C311.88 276.058 311.577 272.878 311.303 270.07C310.049 256.697 309.515 242.898 310.87 229.964C312.514 214.223 308.982 199.093 309.847 183.684C309.933 182.154 308.996 181.236 307.367 180.943C307.165 177.417 306.949 173.877 306.747 170.351C306.963 163.671 307.18 156.991 307.396 150.311C309.14 138.335 309.212 126.373 307.353 114.41L306.992 114.357L306.689 114.543C306.891 110.977 307.093 107.411 307.295 103.845C312.528 102.66 312.672 98.1893 314.244 94.663C317.805 93.2658 321.553 92.5473 325.403 92.2678Z" fill="#FDFDFD"/>
<path d="M355.866 74.0247C356.399 74.0646 356.932 74.0912 357.466 74.1311C360.018 74.6368 362.555 75.3287 365.136 75.6215C369.461 76.1005 371.003 78.5489 370.326 82.0618C369.576 85.9474 366.145 83.5256 363.896 83.8715C362.728 84.0578 361.517 83.9514 360.32 83.9647C358.461 82.6739 356.5 82.7937 354.51 83.6453C347.835 82.6074 341.16 82.5675 334.5 83.7119C333.462 83.0332 332.467 83.0998 331.53 83.8848C329.122 83.3792 325.547 85.282 325.273 80.6646C325.042 76.6194 327.637 75.6348 330.91 75.3154C336.85 74.7432 342.833 74.4239 348.787 73.998C350.748 74.0114 352.694 74.0247 354.655 74.038L355.26 74.1843L355.866 74.0247Z" fill="#ADA4A3"/>
<path d="M314.244 94.6896C312.658 98.2292 312.514 102.687 307.295 103.871C305.796 98.3622 306.704 94.3836 314.244 94.6896Z" fill="#F5F4F8"/>
<path d="M354.51 83.6318C356.514 82.7802 358.46 82.6604 360.32 83.9511C358.259 85.8274 356.298 85.9604 354.51 83.6318Z" fill="#2A253E"/>
<path d="M331.516 83.8715C332.453 83.0864 333.447 83.0199 334.485 83.6985C333.606 85.2421 332.626 85.5481 331.516 83.8715Z" fill="#2A253E"/>
<path d="M306.762 170.391C306.963 173.917 307.18 177.457 307.382 180.983C307.266 183.391 307.064 185.8 307.05 188.195C306.949 209.286 306.863 230.377 306.79 251.455C303.345 252.612 301.139 252.839 301.182 248.128C301.399 223.79 301.355 199.452 301.211 175.115C301.182 171.203 302.869 169.938 306.762 170.391Z" fill="#18122A"/>
<path d="M306.776 251.468C306.863 230.377 306.935 209.286 307.036 188.208C307.05 185.8 307.252 183.391 307.367 180.996C308.996 181.289 309.933 182.207 309.847 183.737C308.982 199.146 312.514 214.276 310.871 230.018C309.515 242.952 310.049 256.751 311.303 270.124C311.563 272.931 311.865 276.112 307.483 276.804C307.237 273.237 307.007 269.685 306.762 266.118C306.762 262.592 306.776 259.053 306.776 255.526C306.776 254.156 306.776 252.812 306.776 251.468Z" fill="#F5F4F8"/>
<path d="M306.776 255.513C306.776 259.039 306.761 262.579 306.761 266.105C304.7 266.012 301.024 268.993 301.398 264.136C301.672 260.663 298.472 254.874 306.776 255.513Z" fill="#18122A"/>
<path d="M307.483 307.329C313.062 312.08 313.062 317.203 307.512 321.993C307.267 320.21 307.021 318.413 306.776 316.63C306.762 314.874 306.762 313.117 306.748 311.361C306.993 310.017 307.238 308.673 307.483 307.329Z" fill="#F5F4F8"/>
<path d="M307.367 114.45C309.227 126.413 309.155 138.389 307.41 150.351C307.396 138.389 307.382 126.413 307.367 114.45Z" fill="#F5F4F8"/>
<path d="M306.747 311.361C306.762 313.117 306.762 314.874 306.776 316.63C301.154 317.549 301.154 317.549 301.442 306.93C303.244 308.833 303.864 311.507 306.747 311.361Z" fill="#18122A"/>
<path d="M307.497 325.945C311.116 328.167 311.13 330.403 307.497 332.638C307.497 330.416 307.497 328.18 307.497 325.945Z" fill="#F5F4F8"/>
<path d="M302.004 271.867C302.898 274.621 303.013 276.285 302.076 278.427C300.865 276.351 301.211 274.635 302.004 271.867Z" fill="#18122A"/>
<path d="M307.482 294.036C310.899 295.38 310.914 296.71 307.482 298.068C307.482 296.71 307.482 295.38 307.482 294.036Z" fill="#F5F4F8"/>
<path d="M302.177 292.333C302.235 292.479 302.307 292.639 302.365 292.785C302.12 292.825 301.874 292.878 301.629 292.918C301.658 292.758 301.644 292.559 301.745 292.426C301.802 292.346 302.019 292.359 302.177 292.333Z" fill="#18122A"/>
<path d="M302.393 156.978C302.336 157.138 302.264 157.284 302.206 157.444C302.019 157.271 301.846 157.084 301.658 156.911C301.788 156.792 301.932 156.685 302.062 156.565C302.163 156.698 302.278 156.832 302.393 156.978Z" fill="#18122A"/>
<path d="M138.301 77.3512C133.212 73.5455 127.012 74.8629 121.246 74.1576C126.09 70.4451 135.994 71.004 139.094 75.2089C139.728 76.0738 139.151 76.819 138.301 77.3512Z" fill="#18122A"/>
<path d="M89.4854 102.541C94.661 102.447 99.8943 103.06 104.911 101.263C104.998 105.468 105.128 109.673 105.142 113.878C105.214 148.661 105.272 183.445 105.329 218.228C105.329 220.45 105.329 222.659 105.329 224.881C105.373 255.912 105.43 286.957 105.474 317.988C105.474 325.958 105.474 333.929 105.488 341.913C105.416 360.941 105.344 379.983 105.272 399.011C99.9376 399.53 94.7764 398.359 89.5719 397.574C89.4854 388.725 89.3124 379.863 89.3124 371.014C89.298 285.067 89.3124 199.107 89.3268 113.159C89.3124 109.62 89.4277 106.08 89.4854 102.541Z" fill="#FDFDFD"/>
<path d="M105.257 399.025C105.329 379.996 105.401 360.954 105.474 341.926C109.265 342.458 110.13 344.374 108.818 347.581C107.232 351.48 108.876 353.742 112.653 356.204C118.276 359.863 125.672 361.819 128.569 368.579C129.189 370.003 130.948 369.803 132.347 369.91C132.448 374.487 133.053 379.118 132.52 383.629C131.698 390.575 133.096 395.871 141.328 397.8C129.42 400.741 117.367 400.834 105.257 399.025Z" fill="#BAB1B0"/>
<path d="M121.116 416.603C114.888 416.616 108.645 416.616 102.417 416.629C95.4828 416.11 96.2324 411.373 96.2324 407.049C103.109 407.142 109.986 407.235 116.877 407.315C116.157 411.24 123.379 412.078 121.116 416.603Z" fill="#9B979E"/>
<path d="M121.116 416.603C123.379 412.079 116.157 411.24 116.863 407.315C120.684 407.142 124.504 406.995 128.324 406.783C137.681 406.264 137.681 406.264 136.888 414.753C133.572 415.472 130.271 416.177 126.955 416.895C125.009 416.789 123.062 416.696 121.116 416.603Z" fill="#ADA4A3"/>
<path d="M338.681 389.777C338.695 293.144 338.709 196.512 338.724 99.8793C340.194 99.7994 342.328 99.3337 342.198 98.1627C341.42 91.3231 346.725 93.4788 350.358 93.2526C352.694 93.1062 353.818 93.4123 353.876 96.4728C353.977 101.449 357.192 104.949 363.218 105.189C363.233 143.033 362.584 180.89 363.535 218.72C363.982 236.471 362.829 254.143 363.247 271.854C363.752 293.277 364.617 314.714 364.444 336.138C364.386 344.348 364.083 352.651 363.593 360.901C362.959 371.626 365.136 382.431 364.746 393.263C364.631 396.523 367.053 396.723 369.706 396.004C371.767 395.445 373.93 394.221 374.723 397.401C370.917 398.053 367.255 399.677 363.233 399.011C363.016 397.934 362.829 396.789 361.301 396.696C359.369 396.59 359.081 397.907 358.908 399.251C352.175 400.329 345.457 400.142 338.753 399.105C338.71 395.991 338.695 392.89 338.681 389.777Z" fill="#ECEAEF"/>
<path d="M318.541 373.835C318.541 283.417 318.541 192.985 318.541 102.567C319.665 199.186 322.995 295.805 320.083 392.438C320.04 393.902 320.011 395.365 319.968 396.829C319.492 396.709 319.031 396.59 318.555 396.47C318.555 388.925 318.541 381.38 318.541 373.835Z" fill="#ECEAEF"/>
<path d="M318.54 373.835C318.54 381.38 318.555 388.925 318.555 396.457C306.574 395.166 306.646 395.166 306.877 384.175C307.137 371.413 307.252 358.652 307.439 345.905C312.615 351.906 315.253 358.546 313.321 366.304C312.298 370.455 312.283 373.982 318.54 373.835Z" fill="#F5F4F8"/>
<path d="M319.968 396.816C320.011 395.352 320.04 393.888 320.083 392.425C327.032 396.004 332.698 391.999 338.681 389.777C338.695 392.89 338.724 396.004 338.739 399.105C332.323 399.371 326.023 399.011 319.968 396.816Z" fill="#F5F4F8"/>
<path d="M358.893 399.251C359.066 397.894 359.354 396.59 361.286 396.696C362.814 396.776 363.002 397.92 363.218 399.011C361.776 399.091 360.335 399.171 358.893 399.251Z" fill="#F5F4F8"/>
<path d="M252.295 242.22C253.088 242.247 253.895 242.26 254.702 242.287C253.16 246.797 255.668 250.337 257.802 254.063C259.013 256.165 259.647 258.56 260.541 260.823C260.455 261.248 260.383 261.688 260.296 262.113C258.782 266.265 257.874 270.63 255.149 274.342C254.241 274.222 253.837 274.582 253.996 275.42C253.65 280.596 255.092 285.24 258.22 289.618C260.656 293.025 260.411 296.737 258.393 300.503C257.384 302.392 254.587 303.404 255.164 306.038C254.774 306.078 254.385 306.118 253.996 306.158C245.187 301.235 236.379 296.298 227.57 291.375C228.146 289.645 228.709 287.901 229.285 286.172C234.331 277.762 239.233 269.286 244.452 260.969C248.157 255.074 251.934 249.272 252.295 242.22Z" fill="#E3DDE0"/>
<path d="M260.296 262.113C260.383 261.687 260.455 261.248 260.541 260.823C260.887 260.982 261.248 261.155 261.594 261.315C261.161 261.581 260.729 261.847 260.296 262.113Z" fill="#18122A"/>
<path d="M253.996 275.42C253.838 274.568 254.241 274.222 255.149 274.342C254.775 274.701 254.385 275.06 253.996 275.42Z" fill="#2A253E"/>
<path d="M227.584 291.374C236.393 296.298 245.202 301.234 254.01 306.158C253.837 307.901 253.679 309.644 253.506 311.387C253.117 312.172 252.727 312.958 252.338 313.743C250.608 316.085 248.763 318.347 247.191 320.769C241.742 329.165 236.393 337.615 231.001 346.051C228.493 345.04 227.051 342.951 225.191 341.261C219.41 336.031 216.181 328.287 207.574 325.825C214.177 314.302 219.511 302.166 227.584 291.374Z" fill="#DCD3D4"/>
<path d="M231.001 346.038C236.393 337.601 241.742 329.152 247.191 320.755C248.763 318.334 250.622 316.071 252.338 313.729C252.814 313.769 253.289 313.849 253.751 313.982L253.794 313.849C253.78 315.047 253.981 316.138 255.423 316.617L255.293 316.457C256.807 325.878 255.149 334.9 251.43 343.709C250.521 345.852 250.219 348.114 253.794 348.606C253.794 349.431 253.78 350.256 253.78 351.081C253.981 353.09 253.217 356.018 257.355 354.235C257.355 354.235 257.6 354.74 257.586 354.74C255.784 358.706 257.283 363.23 255.106 367.129C254.169 368.047 253.232 368.965 252.295 369.87C244.61 370.455 238.988 368.02 236.537 360.795C235.182 356.83 232.515 354.448 227.627 355.206C228.752 352.159 229.876 349.098 231.001 346.038Z" fill="#ADA4A3"/>
<path d="M253.794 348.593C250.219 348.114 250.521 345.851 251.43 343.696C255.149 334.887 256.807 325.865 255.293 316.444C260.685 322.339 260.959 328.659 257.369 335.446C255.207 339.571 253.362 343.842 253.794 348.593Z" fill="#BCB8C0"/>
<path d="M255.106 367.116C257.283 363.217 255.784 358.692 257.586 354.727C262.516 358.187 261.968 362.139 258.782 366.317L259.071 366.783C258.552 367.328 258.033 367.861 257.528 368.393C257.225 368.42 256.922 368.486 256.634 368.593C256.13 368.113 255.611 367.608 255.106 367.116Z" fill="#BAB1B0"/>
<path d="M257.355 354.221C253.232 356.004 253.982 353.077 253.78 351.068C255.207 351.893 256.822 352.531 257.355 354.221Z" fill="#BAB1B0"/>
<path d="M253.751 313.996C253.289 313.862 252.814 313.783 252.338 313.743C252.727 312.958 253.116 312.173 253.506 311.387C253.592 312.252 253.664 313.131 253.751 313.996Z" fill="#E3DDE0"/>
<path d="M255.423 316.617C253.982 316.151 253.78 315.06 253.794 313.849C255.394 314.248 255.236 315.526 255.423 316.617Z" fill="#BCB8C0"/>
<path d="M255.106 367.115C255.625 367.608 256.13 368.1 256.649 368.592C254.515 373.676 253.794 378.945 255.885 384.081C257.485 388.007 255.913 388.552 252.151 388.566C241.151 388.606 230.15 388.912 219.136 389.111C215.777 388.898 212.418 388.699 209.059 388.486C209.059 388.033 209.073 387.581 209.073 387.129C220.967 387.754 232.688 384.999 244.611 385.705C247.48 385.878 250.363 385.026 250.795 381.553C251.271 377.654 251.805 373.769 252.309 369.87C253.232 368.952 254.169 368.034 255.106 367.115Z" fill="#BCB8C0"/>
<path d="M226.374 393.782C225.898 393.343 225.422 392.89 224.946 392.451C229.589 389.816 234.692 391.533 239.565 391.2C246.37 390.735 253.247 391.879 260.138 391.333C249.21 395.445 237.619 392.997 226.374 393.782Z" fill="#2A253E"/>
<path d="M257.528 368.393C258.047 367.861 258.566 367.315 259.071 366.783C259.071 367.727 258.48 368.207 257.528 368.393Z" fill="#18122A"/>
<path d="M360.493 406.064C358.576 406.756 356.615 406.875 354.625 406.45C356.356 403.323 358.374 404.001 360.493 406.064Z" fill="#18122A"/>
<path d="M348.787 406.596C347.374 406.583 345.947 406.583 344.534 406.57C345.961 403.549 347.388 403.562 348.787 406.596Z" fill="#18122A"/>
<path d="M355.866 74.0245L355.246 74.1575L354.64 74.0111L354.784 73.3857C355.231 73.4789 355.592 73.6918 355.866 74.0245Z" fill="#18122A"/>
<path d="M105.459 318.001C105.416 286.97 105.358 255.925 105.315 224.895C107.809 224.988 109.179 226.212 109.712 228.421C110.102 230.031 111.14 231.548 113.086 231.042C122.601 228.607 125.657 234.715 128.267 240.956C129.175 243.125 130.458 243.497 132.433 243.55C132.433 251.508 132.419 259.452 132.419 267.409C130.458 267.502 128.469 267.555 128.469 270.11C128.469 272.665 130.458 272.718 132.419 272.812C132.419 282.978 132.433 293.157 132.433 303.324C129.91 303.23 128.714 304.135 128.18 306.637C127.258 310.908 124.893 314.9 125.427 319.464C125.571 320.715 125.657 322.206 123.971 322.858C122.702 323.35 121.621 322.858 120.784 322.006C119.703 320.915 119.631 319.624 120.381 318.347C120.712 317.775 121.376 317.322 121.592 316.723C122.356 314.608 116.935 307.874 114.037 307.622C109.813 307.249 109.611 310.11 109.626 312.891C109.669 315.645 108.876 317.708 105.459 318.001Z" fill="#BAB1B0"/>
<path d="M105.315 218.241C105.257 183.458 105.2 148.675 105.128 113.891C105.113 109.686 104.983 105.481 104.897 101.277C105.517 100.811 106.137 100.345 106.757 99.8794C107.708 99.9459 108.876 99.7064 109.582 100.119C116.748 104.35 124.23 105.628 132.26 102.461C132.303 106.014 132.347 109.58 132.39 113.133C131.179 113.386 129.175 112.76 129.161 114.503C129.146 116.26 131.164 115.634 132.375 115.887C132.361 119.4 132.361 122.913 132.347 126.426C127.719 126.226 125.181 129.526 125.917 132.481C127.012 136.912 124.879 143.352 132.375 145.148C132.375 147.783 132.39 150.404 132.404 153.039C129.463 152.813 127.459 154.41 127.431 156.738C127.373 161.768 124.936 166.665 126.292 171.668C127.402 175.767 125.369 177.124 121.592 176.951C117.353 176.752 114.787 178.907 112.913 181.821C107.997 189.419 108.588 197.922 109.049 206.226C109.28 210.83 110.765 215.314 105.315 218.241Z" fill="#BAB1B0"/>
<path d="M105.315 218.241C110.75 215.314 109.265 210.816 109.02 206.212C108.559 197.909 107.968 189.406 112.884 181.808C114.773 178.894 117.324 176.738 121.563 176.938C125.34 177.111 127.387 175.754 126.263 171.655C124.908 166.652 127.344 161.755 127.402 156.725C127.431 154.383 129.435 152.8 132.376 153.026C132.39 183.205 132.419 213.371 132.433 243.551C130.444 243.497 129.175 243.138 128.267 240.956C125.657 234.715 122.615 228.607 113.086 231.042C111.125 231.548 110.102 230.031 109.712 228.421C109.164 226.212 107.795 224.988 105.315 224.895C105.33 222.673 105.33 220.464 105.315 218.241Z" fill="#B3ABA9"/>
<path d="M105.459 318.001C108.862 317.708 109.669 315.646 109.655 312.904C109.64 310.123 109.842 307.262 114.066 307.635C116.964 307.888 122.37 314.621 121.621 316.737C121.404 317.336 120.741 317.775 120.409 318.36C119.66 319.638 119.732 320.928 120.813 322.019C121.649 322.871 122.731 323.363 123.999 322.871C125.686 322.219 125.6 320.729 125.455 319.478C124.922 314.9 127.272 310.922 128.209 306.65C128.757 304.149 129.953 303.244 132.462 303.337C132.433 325.532 132.404 347.728 132.375 369.923C130.963 369.817 129.204 370.016 128.584 368.593C125.672 361.833 118.29 359.877 112.668 356.217C108.876 353.756 107.247 351.494 108.833 347.595C110.13 344.388 109.28 342.472 105.488 341.939C105.474 333.942 105.474 325.972 105.459 318.001Z" fill="#B3ABA9"/>
<path d="M157.014 356.55C157.014 358.333 157 360.103 157 361.886C154.433 362.245 154.289 363.975 154.304 365.838C154.332 368.925 153.943 372.065 154.376 375.113C155.27 381.447 153.41 384.427 146.043 381.899C146.072 368.992 146.086 356.084 146.115 343.177C153.049 342.272 155.601 345 154.851 351.387C154.707 352.731 152.819 356.151 157.014 356.55Z" fill="#BAB1B0"/>
<path d="M132.376 145.135C124.864 143.339 127.013 136.898 125.917 132.467C125.182 129.513 127.719 126.213 132.347 126.413C132.347 132.667 132.361 138.908 132.376 145.135Z" fill="#B3ABA9"/>
<path d="M132.433 272.812C130.472 272.719 128.483 272.665 128.483 270.11C128.483 267.556 130.458 267.502 132.433 267.409C132.433 269.206 132.433 271.015 132.433 272.812Z" fill="#B3ABA9"/>
<path d="M132.361 115.887C131.15 115.634 129.132 116.246 129.146 114.503C129.16 112.773 131.164 113.385 132.375 113.133C132.375 114.051 132.375 114.969 132.361 115.887Z" fill="#B3ABA9"/>
<path d="M231.001 346.038C229.877 349.098 228.752 352.146 227.628 355.206C226.835 356.284 226.085 357.375 225.249 358.426C220.03 364.92 218.329 373.316 212.043 379.224C208.194 377.747 205.512 375.592 204.027 371.613C202.096 366.45 199.342 361.42 191.802 361.633C190.36 361.673 189.438 360.329 188.803 359.105C189.351 357.375 189.913 355.632 190.461 353.902C195.81 345.772 200.366 337.282 204.575 328.619C205.57 327.688 206.565 326.757 207.574 325.838C216.181 328.313 219.41 336.045 225.191 341.274C227.051 342.951 228.493 345.026 231.001 346.038Z" fill="#E3DDE0"/>
<path d="M168.533 275.26C169.932 271.321 171.33 267.396 172.743 263.457C175.482 261.953 175.77 258.986 177.371 256.804C179.75 258.746 178.769 261.341 178.784 263.657C178.87 277.336 178.841 291.015 178.841 304.694C178.841 321.088 178.856 337.482 178.856 353.875C178.856 357.175 178.856 360.489 178.827 363.789C178.812 366.051 178.697 368.366 182.143 368.579C179.706 375.019 176.736 381.234 172.93 387.102C169.153 387.461 168.591 385.332 168.721 382.551C169.341 368.952 168.202 355.419 170.97 341.74C173.075 331.321 172.08 320.276 170.825 309.458C169.499 298.121 169.24 286.664 168.533 275.26Z" fill="#9B979E"/>
<path d="M212.043 379.211C218.329 373.303 220.03 364.907 225.249 358.413C226.085 357.375 226.835 356.271 227.628 355.193C232.529 354.434 235.196 356.816 236.537 360.782C239.002 368.007 244.611 370.442 252.295 369.857C251.79 373.755 251.271 377.641 250.781 381.54C250.348 385.013 247.48 385.864 244.596 385.691C232.688 384.986 220.952 387.741 209.059 387.115C210.169 384.521 212.302 382.245 212.043 379.211Z" fill="#B3ABA9"/>
<path d="M182.128 368.592C178.683 368.366 178.798 366.064 178.812 363.802C178.841 360.502 178.827 357.189 178.841 353.889C182.719 353.889 186.583 353.889 190.461 353.889C189.913 355.619 189.351 357.362 188.803 359.092C185.732 361.753 185.689 366.224 182.128 368.592Z" fill="#ADA4A3"/>
<path d="M184.565 105.229C185.516 105.229 186.482 105.229 187.433 105.229C192.696 109.26 196.199 115.767 203.782 116.552C212.721 117.471 218.978 123.019 226.417 126.546C226.359 127.371 226.287 128.196 226.229 129.034C219.093 141.489 211.942 153.944 204.806 166.399C200.207 171.389 199.111 178.428 193.445 182.779C193.042 180.717 193.748 179.027 194.901 177.217C197.453 173.238 195.608 171.588 190.994 171.682C186.958 171.761 182.907 171.708 178.855 171.708C178.884 150.404 178.928 129.114 178.956 107.81C181.191 107.637 184.089 108.675 184.565 105.229Z" fill="#B3ABA9"/>
<path d="M250.839 154.396C257.442 161.422 254.184 169.167 252.295 176.578C251.444 179.892 250.796 182.646 252.021 186.093C254.717 193.704 255.034 201.448 251.689 209.153C250.161 212.679 249.815 216.551 252.151 219.945C253.564 221.994 253.722 224.03 253.708 226.239C247.494 226.851 243.212 224.522 240.502 219.279C238.657 215.713 236.148 212.44 234.288 208.873C232.919 206.252 230.872 204.389 227.988 203.937C222.467 203.085 218.675 199.812 214.667 196.751C217.651 191.109 220.621 185.467 223.605 179.825C230.208 169.553 236.797 159.293 243.4 149.02C243.645 147.996 243.789 146.905 245.029 146.386C247.855 148.501 245.533 153.811 250.839 154.396Z" fill="#ADA4A3"/>
<path d="M243.4 149.021C236.797 159.293 230.208 169.553 223.605 179.825C221.587 177.736 217.19 177.949 216.685 174.636C215.676 168.009 210.241 167.304 204.792 166.386C211.928 153.931 219.079 141.476 226.215 129.021C231.333 132.161 234.332 136.739 236.855 141.782C238.296 144.656 239.608 147.863 243.4 149.021Z" fill="#DCD3D4"/>
<path d="M226.417 126.546C218.978 123.033 212.721 117.47 203.782 116.552C196.199 115.767 192.696 109.274 187.434 105.228C204.748 105.215 222.048 105.202 239.363 105.188C239.277 106.067 239.205 106.945 239.118 107.836C233.294 113.146 231.246 120.651 226.417 126.546Z" fill="#BAB1B0"/>
<path d="M250.839 154.396C245.519 153.811 247.855 148.502 245.029 146.386C248.431 140.651 251.834 134.916 255.222 129.18C256.923 133.931 255.395 138.615 253.189 142.54C251.214 146.066 250.752 149.38 250.853 153.052C250.853 153.505 250.853 153.957 250.839 154.396Z" fill="#B3ABA9"/>
<path d="M175.886 215.234C174.948 215.394 174.011 215.54 173.074 215.7C173.045 203.258 173.017 190.803 172.988 178.362C173.002 177.47 173.031 176.579 173.045 175.7C174.963 175.7 176.88 175.687 178.812 175.687C179.605 185.454 177.154 195.367 180.312 205.028C179.634 206.731 178.956 208.435 178.293 210.124C175.179 210.923 175.943 213.238 175.886 215.234Z" fill="#ADA4A3"/>
<path d="M180.297 205.028C177.14 195.367 179.591 185.454 178.798 175.687C178.812 174.356 178.841 173.039 178.855 171.708C182.907 171.708 186.943 171.762 190.994 171.682C195.622 171.589 197.468 173.239 194.901 177.217C193.734 179.027 193.042 180.717 193.431 182.779C191.456 191.389 185.747 198.149 180.297 205.028Z" fill="#BAB1B0"/>
<path d="M184.564 105.229C184.089 108.675 181.191 107.637 178.956 107.81C178.942 106.932 178.928 106.054 178.913 105.175C180.787 105.202 182.676 105.215 184.564 105.229Z" fill="#BAB1B0"/>
<path d="M214.681 196.751C218.689 199.812 222.481 203.085 228.002 203.937C230.9 204.389 232.947 206.239 234.303 208.874C236.162 212.44 238.671 215.713 240.516 219.279C243.227 224.522 247.508 226.851 253.722 226.239C256.663 229.126 256.836 232.054 254.602 235.527C253.333 237.483 253.03 239.984 252.295 242.233C251.934 249.286 248.157 255.087 244.452 260.982C239.233 269.299 234.317 277.775 229.286 286.185C218.949 279.545 210.284 271.574 205.397 260.596C204.95 259.598 203.97 258.787 203.58 257.775C200.654 250.137 195.103 243.777 191.557 236.445C198.722 222.925 206.046 209.512 214.681 196.751Z" fill="#B3ABA9"/>
<path d="M177.356 256.804C175.756 258.986 175.467 261.954 172.728 263.457C171.863 247.822 167.942 232.014 175.9 216.897C176.779 216.924 177.673 216.937 178.553 216.951C178.336 228.873 180.11 240.849 177.428 252.706C177.414 253.65 177.385 254.595 177.37 255.526C177.37 255.966 177.356 256.378 177.356 256.804Z" fill="#BAB1B0"/>
<path d="M178.553 216.964C177.673 216.951 176.779 216.924 175.9 216.911C175.9 216.365 175.885 215.806 175.885 215.248C175.943 213.252 175.179 210.923 178.279 210.125C178.365 212.4 178.466 214.689 178.553 216.964Z" fill="#BCB8C0"/>
<path d="M377.721 131.762C380.835 137.111 386.631 141.01 386.4 148.142C385.982 160.544 386.242 172.959 386.299 185.374C386.328 191.136 383.949 196.725 383.488 202.047C382.58 212.387 377.419 223.511 385.434 233.557C385.953 234.209 386.386 235.301 386.184 236.032C383.603 245.174 387.078 254.675 384.209 263.803C383.142 267.196 386.458 269.791 386.415 273.278C386.141 293.224 387.136 313.211 385.982 333.091C385.261 345.439 387.784 357.641 386.242 369.91C381.138 370.123 382.292 363.51 377.678 363.204C377.664 286.052 377.693 208.914 377.721 131.762Z" fill="#ECEAEF"/>
<path d="M377.649 363.203C382.277 363.509 381.109 370.123 386.213 369.91C386.213 375.645 386.213 381.367 386.213 387.102C383.344 387.554 380.489 388.02 377.635 388.473C377.635 380.049 377.635 371.626 377.649 363.203Z" fill="#E3DDE0"/>
<path d="M177.356 256.804C177.356 256.378 177.37 255.966 177.37 255.54C178.466 255.021 178.826 254.103 178.927 253.052C183.93 248.022 185.444 240.73 191.557 236.432C195.103 243.764 200.654 250.124 203.58 257.762C203.969 258.773 204.95 259.585 205.397 260.583C210.298 271.561 218.949 279.532 229.285 286.172C228.723 287.902 228.147 289.645 227.57 291.375C219.496 302.166 214.162 314.315 207.559 325.825C206.565 326.757 205.555 327.675 204.561 328.606C203.479 328.207 201.951 328.101 201.403 327.369C197.136 321.581 190.922 317.269 187.188 311.055C185.372 308.034 183.339 304.854 178.812 304.694C178.812 291.015 178.855 277.336 178.754 263.657C178.754 261.342 179.749 258.747 177.356 256.804Z" fill="#ADA4A3"/>
<path d="M178.827 304.708C183.354 304.867 185.401 308.047 187.203 311.068C190.937 317.282 197.15 321.594 201.418 327.382C201.966 328.114 203.494 328.22 204.575 328.619C200.365 337.282 195.795 345.772 190.461 353.902C186.583 353.902 182.719 353.902 178.841 353.902C178.841 337.495 178.827 321.101 178.827 304.708Z" fill="#B3ABA9"/>
<path d="M191.557 236.418C185.43 240.716 183.916 248.008 178.928 253.038C178.423 252.932 177.933 252.812 177.428 252.705C180.11 240.849 178.336 228.873 178.553 216.951C178.466 214.675 178.365 212.4 178.279 210.111C178.942 208.408 179.62 206.705 180.297 205.015C185.747 198.135 191.456 191.375 193.445 182.753C199.111 178.401 200.207 171.362 204.806 166.372C210.255 167.29 215.676 167.982 216.7 174.622C217.204 177.936 221.601 177.71 223.62 179.812C220.65 185.454 217.666 191.096 214.681 196.738C206.046 209.512 198.722 222.925 191.557 236.418Z" fill="#E3DDE0"/>
<path d="M177.428 252.719C177.933 252.825 178.423 252.932 178.928 253.051C178.827 254.103 178.466 255.021 177.371 255.54C177.385 254.595 177.399 253.65 177.428 252.719Z" fill="#BCB8C0"/>
</svg>
