<svg version="1.2" xmlns="http://www.w3.org/2000/svg" viewBox="0 0 457 491" width="457" height="491">
	<style>
		.s0 { fill: #1f1934 } 
		.s1 { fill: #2a253e } 
		.s2 { fill: #18122a } 
		.s3 { fill: #8b8386 } 
		.s4 { fill: #bcb8c0 } 
		.s5 { fill: #dcd3d4 } 
		.s6 { fill: #e3dde0 } 
		.s7 { fill: #bab1b0 } 
		.s8 { fill: #b3aba9 } 
		.s9 { fill: #9b979e } 
		.s10 { fill: #d7d6dc } 
		.s11 { fill: #eceaef } 
		.s12 { fill: #f5f4f8 } 
		.s13 { fill: #fdfdfd } 
		.s14 { fill: #ada4a3 } 
	</style>
	<path class="s0" d="m147.18 86.35c7.24 1.37 14.72 2.27 19.55 8.41 2.11 2.67 5.23 1.74 7.96 1.75 28.73 0.12 57.45 0.14 86.18 0.22 7.76 0.02 8.73 1.21 6.85 8.15-0.06 0.22-0.11 0.44-0.24 0.63-5.79 7.89-4.88 15.73-0.81 24.11 2.46 5.1 0.99 10.64-3.12 14.86-2.74 2.81-2.55 5.33-1.03 8.28-1.45 2.3-3.91 1.46-6.04 1.69q-1.24-1.56-2.47-3.11c-0.55-3.56 1.72-6.27 3.24-9.17 2.76-5.2 3.41-10.41 0.47-15.73q-0.37-0.57-0.73-1.14c-0.53-3.66-2.62-7.04-1.64-10.98 0.88-3.58 6.42-7.28 2.86-10.18-2.43-1.98-8.19-0.51-12.47-0.49-2.14 0.01-4.27 0.21-6.41 0.33-20.18-1.25-40.38-0.59-60.58-0.15q-1.41-0.01-2.82-0.01c-3.23 1.18-9.62-4.1-9.73 2.94-0.36 22.1 0.01 44.2 0.11 66.31-0.31 16.44-1.15 32.88 0.52 49.31-0.95 17.66-0.59 35.31-0.33 52.97-0.14 2.41-0.42 4.83-0.42 7.24-0.03 35.29-0.01 70.58-0.03 105.87-1.48 1-0.46 1.09 0.51 1.21q3.28-0.12 6.56-0.24 2.09 0.18 4.19 0.37 0.76 1.43 1.46-0.02 7.19-0.04 14.39-0.08c5.3 3.03 11.17 0.81 16.72 1.47 2.28 0.28 5.13-0.86 7.02 2.64-14.33 0-27.97-0.06-41.61 0.05-2.36 0.01-5.53-1.26-6.6 2.26-5.91 3.46-11.84 6.88-19.04 7.55q-1.6-0.43-2.57 0.78c-2.62-1.33-5.18-2.71-5.07-6.01q1.83-0.83 3.67-1.66c4.21-1.39 9.72-0.31 12.03-5.35 2.16-0.83 2.35-2.56 2.35-4.38q0-19.16 0-38.32c0-1.8 0.1-3.64-2.47-4.1q0.02-30.61 0.04-61.23c3.02-0.65 2.4-2.91 2.4-4.8q0.04-26.44 0-52.88c0-1.89 0.59-4.15-2.43-4.78q-0.27-0.68-0.57-1.35-0.01-54.51-0.02-109.03 0-1.36 0-2.72c0.74-11.51 0.74-11.51-11.43-14.56q-0.68-0.18-1.37-0.39c-0.59-2.82 1.93-4.4 2.97-6.54z"/>
	<path class="s1" d="m377.95 86.07c2.64 0.96 5.35 1.78 8 2.67 10.36 3.47 11.41 4.35 11.41 13.92q0.06 139.98 0.08 279.94c0 17.45-0.05 17.45-18.48 21.57-4.6 0.42-2.33 3.74-2.75 5.82-0.35 1.7-0.19 3.49-2.09 4.48-2.68 1.4-3.52-1.25-5.19-2.09-0.12-2.47-0.15-4.97-2.86-6.48q0.02-0.74 0.05-1.49 0-1.32 0-2.62c3.07-1.98 8.4 0.73 10.09-4.14q0.73-0.58 1.47-1.15c3.13 0.06 5.97-0.9 8.74-2.09 3.77-1.45 2.29-4.54 2.3-6.94q0.19-60.11 0.19-120.22c0-56.23-0.06-112.47-0.1-168.7 0.29-0.92-0.16-1.23-1.1-1.11-3.56-3.51-8.76-3.26-13.15-4.85q1.7-3.25 3.39-6.52zm16.37 41.35q-0.74 0-1.47 0 0 122.75 0 245.5 0.73 0 1.47 0-0.01-122.75 0-245.5z"/>
	<path class="s2" d="m67.93 396.44c-1.81-6.74-1.14-13.64-1.15-20.46-0.12-91.07-0.13-182.14-0.16-273.21 0-10.95 1-12.5 12.53-15.15 5.66-1.3 8.32-3.35 6.88-9.02-0.58-2.26-0.34-4.92 2.24-6.57 2.74 0.41 5.28 1.44 8.32 0.25 2.21-0.86 5.44-1.22 5.91 2.56-9.81 2.38-10.78 3.92-5.88 9.43 0.05 3.66 4.89 3.99 5.78 7.08-4.91 0.82-10.03 0.74-14.63 2.91-12.53 1.07-12.49 1.07-12.49 12.59 0 92.7-0.02 185.38-0.02 278.07 0 2.86-0.45 5.76 0.76 8.54-3.09 0.08-6.85-1.37-8.09 2.98zm1.79-37.34q0.87-0.14 1.74-0.29 0-123.67 0-247.34-0.87 0-1.74 0 0 123.83 0 247.63zm0.55-256.24c0.17-0.77 0.39-1.36 0.39-1.96 0-0.37-0.44-1.07-0.48-1.05-1.17 0.32-0.79 1.23-0.73 1.96 0.02 0.29 0.43 0.57 0.82 1.05z"/>
	<path class="s2" d="m377.95 86.07q-1.69 3.25-3.39 6.52c-16.36-2.16-32.75-2.96-49.16-0.32-3.85 0.28-7.59 1-11.16 2.42-7.54-0.31-8.44 3.67-6.94 9.18q-0.31 5.35-0.61 10.7c-5.9 1.12-5-3.71-6.85-8.26 0 32.04 0.03 62.22-0.06 92.38 0 2.53 1.09 5.33-1.32 7.55-0.08-36.74-0.09-73.48-0.29-110.22-0.03-5.34 3.73-7.17 7.99-7.77 7.64-1.09 11.8-3.5 11.14-11.78-0.5-6.22 6.04-7.26 11.38-8.33 2.39 4.54 7.03 3.34 11.1 3.86 3.02 0.39 6.82-1.83 8.99 1.97-5.95 0.43-11.94 0.75-17.88 1.32-3.28 0.32-5.88 1.3-5.63 5.35 0.27 4.62 3.85 2.73 6.25 3.22 1.12 1.69 2.08 1.37 2.98-0.17 6.67-1.15 13.33-1.11 20.02-0.07 1.79 2.33 3.75 2.19 5.81 0.32 1.2-0.03 2.41 0.08 3.58-0.1 2.23-0.34 5.68 2.08 6.42-1.8 0.68-3.52-0.86-5.97-5.19-6.45-2.57-0.27-5.11-0.97-7.66-1.49-0.22-2.98 1.67-3.52 4.42-3.56 2.45-0.03 5.25 0.92 7.17-1.48 6.84 1.4 9.84 5.16 8.7 11.71-0.3 1.73 0.12 3.54 0.19 5.3z"/>
	<path class="s1" d="m298.47 206.25c2.41-2.21 1.31-5.01 1.33-7.54 0.08-30.17 0.06-60.35 0.06-92.39 1.84 4.54 0.95 9.38 6.84 8.26l0.31-0.18 0.36 0.05q0.02 17.95 0.04 35.9-0.32 10.02-0.65 20.04c-3.89-0.45-5.58 0.81-5.55 4.74 0.15 24.34 0.17 48.67-0.03 73.01-0.04 4.71 2.17 4.49 5.61 3.33q0 2.01 0 4.03c-8.3-0.64-5.1 5.16-5.38 8.62-0.37 4.86 3.3 1.88 5.37 1.97q0.36 5.34 0.72 10.69 0 8.62 0 17.24 0 2.02 0 4.03 0 4.64 0 9.28-0.37 2.02-0.72 4.03c-2.9 0.15-3.51-2.53-5.32-4.43-0.29 10.61-0.29 10.61 5.33 9.7q0.37 2.68 0.74 5.36 0 1.98-0.02 3.95 0 3.35 0 6.7-0.35 0.66-0.71 1.33c-6.73 0.32-2.35-5.76-5.55-8.3 0 16.5 0.06 32.38-0.07 48.27-0.01 2.33 1.62 5.58-2.67 6.57q0-3.34 0-6.69 2.83-2.63 0-5.25 0-8.01 0-16.02c2.27-9.28 2.02-18.57 0.08-27.86q0-11.35 0.01-22.7c1.92-1.85 1.17-4.16 1.18-6.28 0.06-13.41 0.02-26.82 0-40.22 0.02-8.13 0.28-16.28-0.05-24.39-0.19-4.72 1.61-9.63-1.24-14.14q0.01-5.37-0.02-10.71zm3.53 65.62c-0.79 2.75-1.14 4.47 0.08 6.56 0.92-2.13 0.82-3.81-0.08-6.56zm0.18 20.46c-0.15 0.03-0.38 0.02-0.44 0.1-0.1 0.12-0.08 0.31-0.11 0.49q0.37-0.07 0.73-0.13-0.1-0.23-0.18-0.46zm0.21-135.35q-0.16-0.21-0.33-0.41-0.2 0.17-0.4 0.34 0.27 0.27 0.55 0.53 0.08-0.24 0.18-0.46z"/>
	<path class="s1" d="m102.5 74.82c-0.47-3.78-3.7-3.42-5.91-2.55-3.04 1.2-5.56 0.16-8.32-0.25 8.12-6.38 45.11-8.15 53.58-2.48 3.31 2.22 5.32 5.06 3.63 9.06-1.56 0.11-3.6-0.3-3.85 1.75-0.29 2.4 1.53 3.32 3.87 3.55q0.85 1.22 1.7 2.43c-1.04 2.16-3.57 3.74-2.95 6.52-12.47-1.47-24.92-3.14-37.51-1.07q-2.16-0.24-4.32-0.47c-0.9-3.07-5.74-3.41-5.78-7.08 11.79-2.14 23.7-1.96 35.51-0.58 6.25 0.73 7.81-1.12 6.15-6.33 0.85-0.53 1.43-1.29 0.79-2.14-3.1-4.2-13-4.75-17.84-1.05q-9.36 0.37-18.75 0.69z"/>
	<path class="s1" d="m67.93 396.44c1.24-4.35 5-2.9 8.09-2.99 4.11 2.5 8.87 3.21 13.55 4.14 5.21 0.8 10.35 1.97 15.7 1.43 12.11 1.81 24.15 1.72 36.09-1.22q0.17 0.47 0.69 0.63c-0.1 3.3 2.45 4.68 5.07 6.01-2.01 4.25 1.03 9.41-2.81 13.32-2.92-0.05-6.05 0.33-7.41-3.02 0.79-8.49 0.79-8.48-8.56-7.97-3.82 0.21-7.64 0.36-11.46 0.53q-10.31-0.14-20.65-0.26c-1.54 0.37-2.26 1.23-2.46 2.75-0.22 1.57 0.98 4.18-1.46 4.43-2.94 0.31-3.21-2.69-3.98-4.6-0.55-1.39-0.21-3.09-0.81-4.45-0.64-1.48-1.94-2.62-3.74-0.88-5.86-1.63-12.73-1.53-15.85-7.85z"/>
	<path class="s2" d="m256.49 154.44c2.12-0.23 4.6 0.61 6.04-1.69 6.6 7.42 5.51 15.43 1.23 23.14-1.91 3.42-1.94 5.97-0.03 9.11 4.88 8.03 6.67 15.69-0.65 23.87-3.87 4.32 0.24 9.38 2.32 13.67 3 6.17 3.33 11.84-1.41 17.33-1.46-2.28-3.93-1.47-6.04-1.68 3.18-4.87 4.51-9.93 0.24-14.71-4.97-5.57-4.53-11.28-1.32-17.22 3.67-6.82 4-13.46-0.71-20.03-2.32-3.25-2.47-6.87-0.16-10 5.38-7.29 4.79-14.46 0.49-21.79z"/>
	<path class="s2" d="m298.5 380.51c4.28-0.99 2.65-4.24 2.67-6.57 0.13-15.89 0.07-31.76 0.07-48.27 3.19 2.54-1.18 8.6 5.55 8.3q0.33 5.97 0.65 11.93c-0.19 12.77-0.3 25.53-0.56 38.28-0.23 10.99-0.31 10.99 11.68 12.28q0.7 0.18 1.41 0.36c6.05 2.19 12.35 2.55 18.75 2.29 6.72 1.03 13.44 1.22 20.16 0.14q2.16-0.12 4.32-0.24c4.03 0.68 7.69-0.96 11.49-1.61q0.75 0.13 1.5 0.25c-1.68 4.87-7 2.16-10.09 4.14-18.42-0.81-37.15 2.32-55.22-3.75-3.27-1.1-3.94 1.44-3.86 3.92-5.79-0.99-8.33-4.63-8.63-9.65-0.24-3.92 0.07-7.87 0.11-11.8z"/>
	<path class="s0" d="m257.93 238.16c2.14 0.21 4.59-0.58 6.04 1.68-2.54 4.36-2.16 8.37 0.68 12.69 2.13 3.25 3.58 7.04 2.9 11.1q-0.61 0.26-1.21 0.52 0.54 0.36 1.09 0.73-0.37 1.28-0.73 2.56c-0.19 0.09-0.55 0.19-0.55 0.29 0.01 0.33 0.14 0.66 0.23 1-0.38 0.77-0.56 1.73-1.17 2.3-5.42 5.03-6.05 9.98-0.07 15.08 0.78 0.66 1.01 1.88 1.48 2.86q0.29 0.99 0.57 1.99c1.02 0.83 0.95 1.88 0.73 2.96q-1.04 0.7-2.07 1.38 1.02 0.7 2.04 1.41-0.06 0.65-0.11 1.29c-1.73 0.29-4.1-0.7-4.95 1.48-0.8 2.1 0.97 3.11 2.71 3.95q-1.72 3.3-3.44 6.57c-4.18 0.02-0.25 3.84-3.1 4.98-1.28-3.03-2.55-5.99-3.81-8.96-0.56-2.63 2.22-3.64 3.23-5.53 2.02-3.78 2.27-7.48-0.17-10.89-3.13-4.37-4.57-9.02-4.23-14.19q0.58-0.54 1.16-1.08c2.72-3.71 3.63-8.08 5.14-12.23q0.65-0.4 1.3-0.8-0.52-0.24-1.05-0.49c-0.89-2.26-1.53-4.66-2.74-6.76-2.13-3.73-4.64-7.27-3.1-11.78q1.58-2.03 3.2-4.11z"/>
	<path class="s2" d="m255.16 306.04q1.89 4.44 3.81 8.95c2.84-1.14-1.08-4.96 3.1-4.97 0.1 3.5 2.26 6.22 4.08 9.04 3.69 5.71 3.72 11.36-0.61 16.72-4.31 5.35-5.23 10.34-0.78 16.27 3.98 5.31 5.45 10.98 0.03 16.99-2.22 2.47-2.88 6.48-2.71 10.1-5-1.35-1.54-4.21-0.98-6.17 0.84-2.9 1.88-5.44-2.32-6.68 3.17-4.18 3.72-8.12-1.19-11.59l-0.25-0.51c-0.53-1.69-2.15-2.32-3.58-3.15q0.01-1.24 0.02-2.47c-0.43-4.75 1.41-9.03 3.59-13.14 3.57-6.78 3.32-13.11-2.08-19l0.13 0.16c-0.18-1.09-0.04-2.37-1.63-2.77l-0.04 0.14q-0.12-1.31-0.24-2.61 0.25-2.62 0.5-5.23 0.58-0.01 1.15-0.08z"/>
	<path class="s2" d="m368.93 412.4c1.65 0.84 2.49 3.48 5.19 2.09 1.9-1 1.74-2.78 2.09-4.49 0.42-2.07-1.83-5.4 2.75-5.81-0.22 0.85-0.55 1.69-0.6 2.55-0.86 12.51-3.28 14.8-16.9 16.33-10.02 1.13-20.03 0.77-30.03-0.03-9.75-0.78-13.64-4.45-14.88-13.36-0.24-1.74-0.69-3.46-1.04-5.19 3.13 0.08 2.37 2.56 3.3 4.14 1.69 2.86 2.34 7.75 8.22 5.64 12.43 4.73 25.23 2.52 37.93 1.69 1.98-0.13 2.81-2.2 3.97-3.56z"/>
	<path class="s0" d="m258.78 366.32c4.2 1.24 3.16 3.76 2.32 6.68-0.56 1.94-4 4.8 0.98 6.17 1.46 3.66 3.02 7.29 4.33 10.99 1.89 5.34 0.3 6.64-5.85 6.42-11.39-0.44-22.81-0.4-34.23-0.56q0.02-1.11 0.03-2.22c11.24-0.78 22.84 1.66 33.76-2.45-6.89 0.54-13.75-0.6-20.57-0.14-4.87 0.34-9.98-1.38-14.62 1.25-2.58-0.14-5.92 0.86-5.81-3.32 11-0.2 22-0.51 33.02-0.55 3.76-0.01 5.33-0.54 3.73-4.48-2.09-5.14-1.38-10.41 0.76-15.49q0.43-0.16 0.9-0.2c0.93-0.19 1.53-0.67 1.54-1.62z"/>
	<path class="s0" d="m327.03 414.27c-5.88 2.11-6.53-2.78-8.22-5.64-0.93-1.58-0.17-4.06-3.3-4.14-2.95-0.47-5.92-0.89-8.46-2.53-0.09-2.48 0.59-5.01 3.86-3.92 18.07 6.08 36.78 2.94 55.22 3.75q0 1.32 0 2.62-0.73 0.72-1.47 1.43-2.08 0.11-4.14 0.22c-2.12-2.06-4.14-2.74-5.87 0.39q-2.91 0.07-5.83 0.15-2.1-4.56-4.26-0.03c-3.8 0.01-7.62 0.21-11.43 0.01-7.77-0.4-8.51 0.46-6.1 7.69z"/>
	<path class="s2" d="m219.14 389.12c-0.12 4.17 3.23 3.19 5.81 3.33q0.71 0.67 1.42 1.33-0.02 1.11-0.02 2.22-28.81 0.06-57.61 0.11c1.06-3.53 4.25-2.25 6.6-2.26 13.64-0.11 27.27-0.05 41.61-0.05-1.89-3.5-4.75-2.36-7.03-2.64-5.55-0.68-11.41 1.56-16.72-1.48 5.25-0.93 10.68 0.44 15.86-1.18q5.04 0.3 10.08 0.62z"/>
	<path class="s0" d="m83.76 404.32c1.8-1.74 3.1-0.61 3.75 0.88 0.59 1.36 0.26 3.06 0.81 4.44 0.76 1.92 1.04 4.9 3.98 4.61 2.45-0.25 1.25-2.86 1.45-4.43 0.2-1.52 0.93-2.4 2.47-2.76 0 4.33-0.75 9.06 6.18 9.58-1.17 4.27 2.53 2.05 3.95 2.32 4.57 0.81 9.59-1.19 15.05 1.9-6.04 1.58-11.04 0.83-15.97 0.87-3.39 0.02-6.78-2.89-10.19-0.03-6.09-0.94-8.81-4.5-9.53-9.94-0.32-2.52 0.62-5.42-1.95-7.44z"/>
	<path class="s1" d="m95.25 421.69c3.42-2.87 6.81 0.05 10.19 0.02 4.92-0.05 9.92 0.72 15.98-0.86-5.47-3.09-10.48-1.09-15.05-1.91-1.43-0.25-5.12 1.97-3.95-2.31q9.35-0.01 18.7-0.03 2.92 0.14 5.83 0.28c-2.03 3.18-0.26 4.86 2.8 6.03-11.58 1.62-23.11 1.88-34.5-1.22z"/>
	<path class="s1" d="m348.79 73.97c-2.17-3.79-5.96-1.58-9-1.97-4.06-0.52-8.71 0.69-11.1-3.86 10.45-1.91 20.98-2.26 31.57-1.33-1.03 1.19-2.51 1.01-3.93 1.17-1.98 0.23-4.83-0.99-5.61 1.59-0.84 2.78 3.23 2.02 4.06 3.8l-0.14 0.63q-2.93-0.01-5.85-0.03z"/>
	<path class="s0" d="m129.77 422.91c-3.06-1.17-4.83-2.83-2.8-6.03q4.97-1.07 9.93-2.14c1.36 3.34 4.49 2.97 7.41 3.02-3.82 4.22-9.25 4.51-14.54 5.15z"/>
	<path class="s0" d="m354.78 73.39c-0.83-1.8-4.9-1.03-4.06-3.81 0.78-2.58 3.62-1.36 5.61-1.58 1.42-0.16 2.9 0.01 3.93-1.17 3.16 0.01 6.66-1.14 8.81 2.26-1.92 2.39-4.71 1.43-7.16 1.47-2.76 0.04-4.63 0.59-4.43 3.57q-0.8-0.05-1.6-0.11-0.43-0.49-1.1-0.63z"/>
	<path class="s0" d="m299.78 255.46c0.02 13.41 0.06 26.83 0 40.23-0.01 2.12 0.74 4.44-1.18 6.28q-0.01-23.26-0.01-46.51 0.61 0.02 1.19 0z"/>
	<path class="s2" d="m299.78 255.46q-0.59 0.02-1.19 0.01-0.05-19.26-0.09-38.53c2.86 4.52 1.04 9.42 1.24 14.13 0.32 8.12 0.06 16.26 0.04 24.39z"/>
	<path class="s2" d="m298.59 324.68c1.94 9.29 2.19 18.58-0.07 27.85q0.04-13.92 0.07-27.85z"/>
	<path class="s1" d="m265.51 303.44c-1.75-0.82-3.53-1.85-2.7-3.95 0.84-2.18 3.2-1.18 4.94-1.48-0.07 2.05-0.62 3.93-2.24 5.43z"/>
	<path class="s0" d="m145.5 83.91c-2.34-0.22-4.16-1.14-3.87-3.55 0.25-2.06 2.29-1.65 3.85-1.74q0 2.63 0.02 5.29z"/>
	<path class="s2" d="m298.51 368.55q2.83 2.64 0 5.26 0-2.62 0-5.26z"/>
	<path class="s1" d="m267.87 296.72q-1.03-0.7-2.05-1.41 1.04-0.7 2.07-1.38 0 1.4-0.02 2.79z"/>
	<path class="s2" d="m267.43 264.89q-0.55-0.36-1.09-0.73 0.6-0.26 1.21-0.52-0.06 0.63-0.12 1.25z"/>
	<path class="s1" d="m147.11 404.44q0.99-1.23 2.57-0.79-1.29 0.39-2.57 0.79z"/>
	<path class="s1" d="m267.16 290.96q-0.28-1-0.56-1.99c0.51 0.6 1.32 1.1 0.56 1.99z"/>
	<path class="s2" d="m266.37 268.74c-0.09-0.33-0.22-0.67-0.24-1 0-0.09 0.37-0.2 0.55-0.29q-0.16 0.64-0.31 1.29z"/>
	<path class="s3" d="m142.03 398.43q-0.51-0.17-0.69-0.63c-8.22-1.93-9.63-7.23-8.81-14.17 0.54-4.51-0.07-9.14-0.15-13.72q0.04-33.29 0.08-66.59 0-15.25-0.01-30.51 0-2.69-0.02-5.4 0.01-11.93 0.02-23.86-0.03-45.26-0.06-90.52-0.01-3.95-0.01-7.9-0.02-9.36-0.03-18.72 0.01-5.27 0.03-10.54 0-1.37 0.01-2.75-0.06-5.34-0.13-10.67c1.5-7.04 3.95-7.87 9.75-3.33 1.05 0.83 2.26 1.48 3.41 2.21q0.33 11.28 0.65 22.55 0.04 45.81 0.07 91.62-0.04 29.34-0.08 58.67 0.04 34.5 0.08 69.01-0.03 19.36-0.07 38.72-0.17 7.43-0.36 14.86-1.84 0.83-3.68 1.67z"/>
	<path class="s4" d="m146.14 215.5q-0.03-45.81-0.07-91.62c7.2 1.07 9.79-2.35 9.7-8.44-0.02-1.71-0.43-3.54 1.29-4.89q0 54.51 0.01 109.02c-3.69-1.26-6.28-5.03-10.93-4.07z"/>
	<path class="s4" d="m146.13 343.18q-0.04-34.51-0.09-69.01c3.67-0.39 7.36 1.73 11.02-0.07q0.3 4.64 0.6 9.28-0.02 30.61-0.04 61.22-0.31 5.97-0.59 11.94c-4.2-0.4-2.31-3.82-2.16-5.17 0.73-6.37-1.81-9.08-8.74-8.19z"/>
	<path class="s5" d="m209.06 388.5c-5.18 1.61-10.63 0.25-15.86 1.18q-7.19 0.04-14.39 0.08-0.74 0.02-1.45 0.03-2.1-0.18-4.2-0.37-0.11-1.15-0.23-2.29c3.81-5.86 6.78-12.07 9.21-18.52 3.56-2.37 3.61-6.84 6.68-9.52 0.63 1.24 1.55 2.57 3 2.53 7.54-0.21 10.29 4.82 12.22 9.98 1.49 3.98 4.17 6.13 8.02 7.61 0.26 3.04-1.86 5.31-2.97 7.92q-0.03 0.67-0.03 1.37z"/>
	<path class="s6" d="m257.01 125.27q0.37 0.57 0.72 1.14c-1.69 0.27-2.42 1.28-2.51 2.78q-5.11 8.61-10.19 17.21c-1.24 0.51-1.37 1.6-1.63 2.63-3.79-1.15-5.1-4.36-6.55-7.22-2.52-5.05-5.52-9.62-10.63-12.76q0.09-1.24 0.18-2.49c4.83-5.9 6.88-13.4 12.7-18.71 0.94 0 1.91 0.09 2.83 0 6.98-0.78 11.22 0.67 10.71 8.56-0.16 2.8-0.13 7.21 4.37 8.86z"/>
	<path class="s7" d="m157.06 274.1c-3.66 1.8-7.35-0.32-11.02 0.07q0.04-29.34 0.1-58.67c4.66-0.96 7.24 2.81 10.93 4.07q0.28 0.68 0.58 1.36-0.31 26.59-0.59 53.17z"/>
	<path class="s8" d="m166.33 173.04c-0.1-22.1-0.48-44.21-0.12-66.31 0.12-7.04 6.5-1.74 9.73-2.94-2.52 2.65-3.18 5.74-2.95 9.21 1.37 20.9-2.77 41.81 0.05 62.7q-0.02 1.34-0.05 2.66c-4.1 0.21-1.66-6.51-6.66-5.32z"/>
	<path class="s8" d="m172.92 387.12q0.11 1.14 0.23 2.28-3.28 0.12-6.56 0.24-0.11-0.65-0.51-1.21-0.01-52.93 0.03-105.87c0-2.4 0.28-4.82 0.42-7.23q1.01-0.03 2.02-0.06c0.72 11.41 0.98 22.86 2.29 34.22 1.25 10.8 2.25 21.86 0.14 32.28-2.76 13.68-1.62 27.21-2.24 40.81-0.16 2.75 0.4 4.88 4.18 4.54z"/>
	<path class="s4" d="m145.41 101.34c-1.14-0.73-2.35-1.38-3.42-2.21-5.79-4.52-8.24-3.7-9.74 3.33-8.03 3.17-15.52 1.9-22.68-2.34-0.71-0.41-1.88-0.17-2.83-0.24q-0.01-4.04-0.03-8.08c12.59-2.06 25.05-0.4 37.52 1.08q0.68 0.21 1.37 0.39c12.16 3.04 12.16 3.04 11.43 14.55-1.4-5.93-5.71-7.43-11.62-6.48z"/>
	<path class="s9" d="m173.03 175.7c-2.82-20.9 1.31-41.81-0.06-62.7-0.23-3.47 0.44-6.56 2.96-9.21q1.41 0.01 2.82 0.02 0.07 0.68 0.13 1.37 0.03 1.31 0.05 2.63-0.05 31.95-0.1 63.9-0.03 1.99-0.06 3.98-2.84 0-5.74 0.01z"/>
	<path class="s7" d="m257.93 238.16q-1.62 2.06-3.23 4.11-1.2-0.03-2.41-0.06c0.74-2.25 1.04-4.75 2.31-6.71 2.24-3.47 2.06-6.4-0.88-9.29 0.02-2.21-0.14-4.24-1.56-6.29-2.33-3.38-1.98-7.27-0.46-10.79 3.35-7.71 3.03-15.45 0.33-23.06-1.21-3.44-0.57-6.2 0.28-9.52 1.89-7.4 5.15-15.15-1.46-22.18q0.01-0.67 0.02-1.33c1.41-0.04 2.55-0.49 3.17-1.76q1.23 1.56 2.46 3.12c4.3 7.34 4.89 14.51-0.49 21.77-2.3 3.11-2.16 6.74 0.16 9.99 4.7 6.57 4.37 13.21 0.71 20.04-3.2 5.95-3.65 11.64 1.33 17.22 4.23 4.83 2.91 9.89-0.28 14.74z"/>
	<path class="s7" d="m166.33 173.04c5-1.19 2.58 5.53 6.66 5.34q0.04 18.66 0.08 37.33c-2.03 2.25-1.57 6.5-6.22 6.64-1.69-16.43-0.86-32.88-0.52-49.31z"/>
	<path class="s10" d="m166.83 222.34c4.67-0.15 4.2-4.39 6.23-6.64q1.41-0.23 2.81-0.47 0.01 0.84 0.01 1.67c-7.95 15.11-4.03 30.92-3.17 46.56q-2.09 5.9-4.21 11.8-1.01 0.03-2.01 0.05c-0.25-17.65-0.61-35.31 0.34-52.97z"/>
	<path class="s7" d="m145.41 101.34c5.91-0.94 10.22 0.55 11.63 6.48q0 1.37 0 2.73c-1.71 1.33-1.31 3.18-1.28 4.88 0.09 6.11-2.51 9.52-9.7 8.45q-0.33-11.28-0.65-22.54z"/>
	<path class="s4" d="m145.71 396.76q0.17-7.43 0.35-14.86c7.36 2.53 9.22-0.45 8.33-6.79-0.43-3.04-0.06-6.17-0.07-9.27-0.02-1.86 0.13-3.61 2.69-3.95q0.36 14.76 0.73 29.52c-2.33 5.05-7.82 3.97-12.03 5.35z"/>
	<path class="s2" d="m157.06 274.1q0.29-26.58 0.57-53.18c3.03 0.62 2.43 2.88 2.43 4.77q0.04 26.44 0 52.88c0 1.89 0.62 4.15-2.4 4.81q-0.3-4.63-0.6-9.28z"/>
	<path class="s11" d="m257.01 125.27c-4.5-1.65-4.53-6.06-4.34-8.88 0.49-7.89-3.73-9.34-10.71-8.55-0.92 0.1-1.89 0.01-2.83 0q0.14-1.32 0.25-2.65 0.11-0.62-0.03-1.24c2.13-0.12 4.27-0.32 6.4-0.33 4.28-0.01 10.05-1.49 12.47 0.49 3.56 2.9-1.97 6.6-2.85 10.18-0.99 3.94 1.11 7.33 1.64 10.98z"/>
	<path class="s2" d="m157.72 391.41q-0.36-14.76-0.72-29.52 0.01-2.67 0.01-5.34 0.31-5.97 0.59-11.94c2.57 0.48 2.47 2.32 2.47 4.1q0 19.16 0 38.33c0.02 1.82-0.17 3.55-2.35 4.37z"/>
	<path class="s4" d="m254.03 151.31c-0.63 1.25-1.76 1.72-3.18 1.76-0.1-3.68 0.36-6.99 2.34-10.52 2.21-3.92 3.73-8.61 2.03-13.36 0.09-1.5 0.81-2.51 2.51-2.78 2.94 5.33 2.29 10.54-0.46 15.73-1.53 2.92-3.79 5.63-3.24 9.17z"/>
	<path class="s4" d="m239.35 103.96q0.13 0.62 0.03 1.24-25.98 0.02-51.93 0.04-1.44 0.01-2.87-0.01-2.83-0.02-5.67-0.04-0.06-0.69-0.14-1.37c20.2-0.44 40.38-1.11 60.58 0.14z"/>
	<path class="s2" d="m177.36 389.78q0.73-0.02 1.45-0.03c-0.47 0.95-0.95 0.99-1.45 0.03z"/>
	<path class="s2" d="m166.08 388.42q0.4 0.55 0.51 1.21c-0.97-0.11-1.99-0.21-0.51-1.21z"/>
	<path class="s10" d="m376.21 397.65q-0.75-0.12-1.5-0.25c-0.79-3.18-2.96-1.95-5.02-1.4-2.65 0.72-5.07 0.52-4.96-2.74 0.39-10.83-1.79-21.63-1.15-32.36 0.49-8.25 0.78-16.55 0.85-24.76 0.16-21.43-0.71-42.86-1.2-64.29-0.41-17.71 0.74-35.39 0.29-53.13-0.94-37.83-0.3-75.69-0.32-113.53 1.19-4.17 2.53-8.65 8.58-7.67 5.8 0.95 5.91 5.47 5.87 9.85-0.06 8.13 0.03 16.26 0.06 24.41q-0.04 115.72-0.07 231.44 0 12.63-0.02 25.27 0.02 4.01 0.04 8.02-0.71 0.57-1.45 1.14z"/>
	<path class="s12" d="m377.72 131.76c-0.03-8.13-0.11-16.26-0.06-24.4 0.03-4.38-0.07-8.9-5.86-9.85-6.06-0.98-7.39 3.5-8.58 7.67-6.04-0.24-9.24-3.74-9.34-8.72-0.06-3.07-1.19-3.37-3.52-3.22-3.64 0.23-8.94-1.93-8.16 4.91 0.13 1.17-1.99 1.62-3.48 1.72-4.55-2.37-10.65-2.43-13.3-7.62 16.4-2.63 32.78-1.83 49.16 0.32 4.4 1.6 9.59 1.35 13.15 4.86q0.54 0.55 1.09 1.11c0.03 56.23 0.1 112.46 0.1 168.7q0.01 60.11-0.18 120.22c-0.02 2.4 1.47 5.5-2.31 6.93q-0.1-3.64-0.2-7.31 0-8.6 0-17.2c1.54-12.26-0.97-24.47-0.26-36.82 1.15-19.89 0.17-39.88 0.43-59.81 0.04-3.49-3.26-6.09-2.21-9.47 2.87-9.13-0.6-18.63 1.98-27.77 0.2-0.74-0.22-1.83-0.75-2.48-8.02-10.05-2.86-21.17-1.95-31.51 0.48-5.32 2.84-10.91 2.82-16.67-0.06-12.42-0.32-24.83 0.1-37.23 0.24-7.11-5.57-11.01-8.67-16.36z"/>
	<path class="s0" d="m393.56 423.75c0.58 0 1.04-77.72 1.04-173.59 0-95.86-0.46-173.58-1.04-173.58-0.57 0-1.03 77.72-1.03 173.58 0 95.87 0.46 173.59 1.03 173.59z"/>
	<path class="s9" d="m327.03 414.27c-2.41-7.25-1.66-8.09 6.07-7.69 3.79 0.2 7.61 0 11.43-0.01q2.13 0.01 4.26 0.03 2.92-0.08 5.84-0.15 2.99 0.65 5.86-0.39 2.08-0.11 4.14-0.22 0.71 0.04 1.43 0.06c2.71 1.51 2.72 4.01 2.85 6.49-1.15 1.37-1.99 3.44-3.96 3.56-12.69 0.84-25.5 3.05-37.92-1.68z"/>
	<path class="s11" d="m386.21 387.1q0.1 3.65 0.21 7.32c-2.77 1.2-5.61 2.16-8.74 2.09q-0.02-4.01-0.04-8.02 4.29-0.71 8.57-1.39z"/>
	<path class="s6" d="m388.81 98.55q-0.55-0.55-1.1-1.11c0.95-0.12 1.39 0.19 1.1 1.11z"/>
	<path class="s2" d="m366.07 405.92q-0.71-0.05-1.42-0.07 0.73-0.71 1.47-1.42-0.03 0.73-0.05 1.49z"/>
	<path class="s4" d="m89.57 397.59c-4.67-0.93-9.43-1.63-13.55-4.14-1.2-2.77-0.76-5.68-0.76-8.54q0.01-139.04 0.02-278.07c0-11.52-0.05-11.52 12.49-12.59 1.73 2.56 1.64 5.44 1.72 8.29-0.06 3.54-0.18 7.09-0.18 10.63q-0.03 128.93-0.01 257.86c0 8.85 0.17 17.69 0.27 26.56z"/>
	<path class="s0" d="m69.72 359.11q0-123.82 0-247.64 0.87 0 1.74 0 0 123.67 0 247.34-0.86 0.15-1.74 0.29z"/>
	<path class="s9" d="m138.3 77.35c1.66 5.19 0.09 7.04-6.16 6.32-11.8-1.38-23.71-1.56-35.5 0.59-4.91-5.5-3.94-7.06 5.88-9.44q9.36-0.32 18.74-0.65c5.75 0.71 11.95-0.61 17.04 3.18z"/>
	<path class="s11" d="m89.49 102.54c-0.08-2.85 0.02-5.73-1.72-8.29 4.6-2.17 9.73-2.09 14.63-2.91q2.17 0.23 4.33 0.46 0.01 4.04 0.03 8.08-0.93 0.7-1.86 1.4c-5.01 1.77-10.24 1.17-15.41 1.26z"/>
	<path class="s0" d="m70.27 102.86c-0.39-0.48-0.8-0.76-0.82-1.05-0.06-0.72-0.44-1.64 0.73-1.96 0.06-0.01 0.48 0.7 0.48 1.05 0 0.6-0.23 1.19-0.39 1.96z"/>
	<path class="s13" d="m325.4 92.27c2.66 5.19 8.77 5.24 13.31 7.61q-0.02 144.95-0.04 289.9c-5.97 2.22-11.65 6.22-18.6 2.65 2.91-96.64-0.42-193.24-1.54-289.88q0 135.64 0 271.27c-6.25 0.15-6.25-3.38-5.21-7.54 1.93-7.76-0.7-14.39-5.88-20.4q-0.32-5.97-0.65-11.94 0.35-0.66 0.71-1.33 5.42-3.34 0-6.69-0.01-1.98 0.01-3.95c5.57-4.81 5.55-9.92-0.03-14.67q0-4.63 0-9.27 5.14-2.02 0-4.03 0-8.63 0-17.25c4.4-0.69 4.1-3.87 3.82-6.68-1.25-13.37-1.78-27.17-0.43-40.11 1.64-15.74-1.89-30.87-1.02-46.28 0.08-1.53-0.85-2.44-2.48-2.74q-0.31-5.29-0.62-10.59 0.32-10.02 0.65-20.04c1.74-11.97 1.81-23.94-0.05-35.9l-0.36-0.05-0.3 0.18q0.3-5.35 0.61-10.69c5.23-1.19 5.37-5.66 6.94-9.19 3.57-1.39 7.31-2.11 11.16-2.39z"/>
	<path class="s14" d="m355.87 74.02q0.8 0.06 1.6 0.11c2.55 0.51 5.09 1.2 7.67 1.49 4.32 0.48 5.86 2.93 5.19 6.44-0.75 3.89-4.19 1.47-6.43 1.81-1.17 0.19-2.38 0.08-3.58 0.09-1.86-1.29-3.82-1.17-5.81-0.31-6.68-1.04-13.35-1.08-20.01 0.06q-1.56-1.01-2.97 0.17c-2.41-0.5-5.98 1.4-6.26-3.22-0.23-4.04 2.37-5.03 5.64-5.34 5.94-0.58 11.92-0.9 17.88-1.32q2.93 0.02 5.86 0.04l0.61 0.14z"/>
	<path class="s12" d="m314.24 94.69c-1.58 3.54-1.73 8-6.94 9.18-1.5-5.51-0.6-9.49 6.94-9.18z"/>
	<path class="s1" d="m354.51 83.63c2-0.85 3.95-0.97 5.81 0.32-2.06 1.88-4.02 2.01-5.81-0.32z"/>
	<path class="s1" d="m331.52 83.87q1.4-1.18 2.97-0.17c-0.88 1.54-1.86 1.85-2.97 0.17z"/>
	<path class="s2" d="m306.76 170.39q0.31 5.3 0.62 10.59c-0.11 2.41-0.32 4.82-0.33 7.22q-0.15 31.63-0.26 63.26c-3.44 1.15-5.65 1.38-5.61-3.33 0.22-24.34 0.18-48.68 0.03-73.01-0.03-3.92 1.66-5.18 5.55-4.73z"/>
	<path class="s12" d="m306.78 251.47q0.12-31.64 0.26-63.26c0.01-2.41 0.21-4.82 0.33-7.21 1.63 0.29 2.56 1.21 2.48 2.74-0.87 15.41 2.66 30.54 1.02 46.28-1.35 12.93-0.82 26.73 0.43 40.1 0.26 2.81 0.57 5.99-3.82 6.68q-0.36-5.34-0.72-10.68 0.01-5.3 0.02-10.59 0-2.05 0-4.06z"/>
	<path class="s2" d="m306.78 255.51q-0.01 5.3-0.02 10.6c-2.06-0.1-5.74 2.88-5.36-1.97 0.27-3.48-2.93-9.27 5.38-8.63z"/>
	<path class="s12" d="m307.48 307.33c5.58 4.75 5.58 9.87 0.03 14.66q-0.37-2.68-0.73-5.36-0.02-2.63-0.03-5.27 0.37-2.01 0.73-4.03z"/>
	<path class="s12" d="m307.37 114.45c1.86 11.96 1.78 23.94 0.04 35.9q-0.02-17.95-0.04-35.9z"/>
	<path class="s2" d="m306.75 311.36q0.01 2.64 0.03 5.27c-5.63 0.92-5.63 0.92-5.34-9.7 1.8 1.9 2.42 4.58 5.31 4.43z"/>
	<path class="s12" d="m307.5 325.94q5.44 3.34 0 6.7 0-3.34 0-6.7z"/>
	<path class="s2" d="m302 271.87c0.9 2.75 1.01 4.42 0.08 6.56-1.21-2.08-0.87-3.8-0.08-6.56z"/>
	<path class="s12" d="m307.48 294.04q5.14 2 0 4.03 0-2.03 0-4.03z"/>
	<path class="s2" d="m302.18 292.33q0.09 0.23 0.19 0.46-0.37 0.06-0.74 0.13c0.03-0.16 0.01-0.36 0.11-0.49 0.06-0.08 0.28-0.07 0.44-0.1z"/>
	<path class="s2" d="m302.39 156.98q-0.09 0.23-0.18 0.46-0.28-0.26-0.55-0.53 0.2-0.17 0.4-0.34 0.16 0.19 0.33 0.41z"/>
	<path class="s2" d="m138.3 77.35c-5.09-3.8-11.29-2.49-17.05-3.19 4.84-3.71 14.74-3.16 17.84 1.05 0.64 0.86 0.06 1.61-0.79 2.14z"/>
	<path class="s13" d="m89.49 102.54c5.17-0.09 10.4 0.52 15.42-1.28 0.09 4.21 0.22 8.41 0.23 12.62q0.11 52.17 0.19 104.35 0 3.32 0 6.65 0.07 46.55 0.14 93.11 0 11.95 0.02 23.92-0.11 28.55-0.22 57.1c-5.33 0.52-10.49-0.65-15.7-1.44-0.08-8.84-0.26-17.71-0.26-26.56q-0.01-128.92 0.02-257.85c-0.02-3.54 0.1-7.08 0.16-10.62z"/>
	<path class="s7" d="m105.26 399.02q0.1-28.55 0.21-57.09c3.79 0.53 4.66 2.44 3.35 5.65-1.59 3.9 0.06 6.16 3.83 8.62 5.63 3.66 13.02 5.62 15.92 12.38 0.62 1.42 2.38 1.22 3.78 1.33 0.1 4.58 0.7 9.21 0.17 13.72-0.82 6.95 0.58 12.24 8.81 14.17-11.91 2.94-23.96 3.03-36.07 1.22z"/>
	<path class="s9" d="m121.12 416.6q-9.35 0.02-18.7 0.03c-6.94-0.52-6.19-5.26-6.19-9.58q10.31 0.14 20.65 0.26c-0.72 3.93 6.5 4.77 4.24 9.29z"/>
	<path class="s14" d="m121.12 416.6c2.26-4.52-4.96-5.36-4.26-9.29 3.82-0.17 7.64-0.32 11.46-0.53 9.36-0.52 9.36-0.52 8.57 7.97q-4.97 1.07-9.94 2.14-2.91-0.15-5.83-0.29z"/>
	<path class="s11" d="m338.68 389.78q0.02-144.95 0.04-289.9c1.47-0.08 3.61-0.55 3.48-1.72-0.78-6.84 4.53-4.68 8.16-4.91 2.33-0.14 3.46 0.16 3.52 3.22 0.1 4.98 3.31 8.48 9.34 8.72 0.01 37.84-0.64 75.7 0.32 113.53 0.44 17.75-0.71 35.42-0.29 53.13 0.5 21.43 1.37 42.86 1.19 64.29-0.05 8.21-0.36 16.51-0.85 24.76-0.63 10.73 1.55 21.53 1.16 32.36-0.12 3.26 2.3 3.46 4.96 2.74 2.06-0.56 4.22-1.78 5.01 1.4-3.8 0.65-7.47 2.28-11.49 1.61-0.21-1.08-0.4-2.22-1.93-2.31-1.93-0.11-2.22 1.21-2.39 2.55-6.73 1.08-13.45 0.89-20.16-0.14q-0.05-4.67-0.07-9.33z"/>
	<path class="s11" d="m318.54 373.83q0-135.63 0-271.26c1.13 96.62 4.45 193.24 1.54 289.87q-0.05 2.19-0.11 4.39-0.71-0.18-1.42-0.36 0-11.32-0.01-22.64z"/>
	<path class="s12" d="m318.54 373.83q0.01 11.33 0.01 22.63c-11.98-1.29-11.9-1.29-11.67-12.28 0.26-12.77 0.37-25.53 0.56-38.28 5.17 6.01 7.81 12.65 5.88 20.4-1.02 4.16-1.04 7.68 5.22 7.53z"/>
	<path class="s12" d="m319.97 396.82q0.06-2.2 0.11-4.39c6.95 3.57 12.62-0.43 18.6-2.65q0.03 4.67 0.06 9.33c-6.42 0.26-12.72-0.1-18.77-2.29z"/>
	<path class="s12" d="m358.89 399.25c0.18-1.36 0.46-2.66 2.4-2.55 1.52 0.08 1.71 1.22 1.93 2.31q-2.16 0.12-4.33 0.24z"/>
	<path class="s6" d="m252.29 242.22q1.2 0.03 2.41 0.07c-1.54 4.51 0.97 8.05 3.1 11.77 1.21 2.11 1.85 4.5 2.74 6.76q-0.12 0.65-0.24 1.29c-1.52 4.15-2.43 8.52-5.15 12.23q-1.38-0.18-1.15 1.08c-0.35 5.18 1.09 9.82 4.22 14.2 2.44 3.4 2.19 7.12 0.17 10.88-1.01 1.89-3.8 2.9-3.23 5.54q-0.58 0.06-1.16 0.12-13.22-7.39-26.43-14.78 0.86-2.61 1.72-5.21c5.04-8.41 9.94-16.88 15.16-25.2 3.71-5.9 7.48-11.7 7.84-18.75z"/>
	<path class="s2" d="m260.3 262.11q0.12-0.64 0.24-1.29 0.53 0.25 1.05 0.49-0.65 0.4-1.29 0.8z"/>
	<path class="s1" d="m254 275.42c-0.16-0.85 0.24-1.2 1.15-1.08q-0.57 0.54-1.15 1.08z"/>
	<path class="s5" d="m227.58 291.37q13.22 7.4 26.43 14.79-0.25 2.61-0.5 5.23-0.59 1.18-1.17 2.35c-1.73 2.34-3.58 4.61-5.15 7.03-5.45 8.4-10.8 16.85-16.19 25.28-2.51-1.01-3.95-3.1-5.81-4.79-5.78-5.23-9.01-12.97-17.62-15.44 6.61-11.52 11.94-23.65 20.01-34.45z"/>
	<path class="s14" d="m231 346.04c5.39-8.44 10.74-16.89 16.19-25.29 1.57-2.42 3.43-4.68 5.15-7.02q0.72 0.06 1.41 0.25l0.04-0.13c-0.01 1.2 0.19 2.29 1.63 2.77l-0.13-0.16c1.52 9.42-0.14 18.44-3.86 27.25-0.91 2.14-1.21 4.4 2.36 4.9q0 1.23-0.01 2.47c0.2 2.01-0.56 4.94 3.58 3.15 0 0 0.24 0.51 0.23 0.51-1.81 3.97-0.31 8.49-2.48 12.39q-1.41 1.38-2.82 2.74c-7.68 0.58-13.3-1.85-15.75-9.08-1.36-3.96-4.03-6.34-8.91-5.58q1.68-4.58 3.37-9.17z"/>
	<path class="s4" d="m253.79 348.59c-3.57-0.48-3.27-2.74-2.36-4.89 3.72-8.81 5.38-17.83 3.86-27.26 5.4 5.9 5.67 12.22 2.08 19.01-2.16 4.12-4.01 8.39-3.58 13.14z"/>
	<path class="s7" d="m255.11 367.12c2.17-3.9 0.67-8.43 2.48-12.39 4.93 3.46 4.38 7.41 1.19 11.59l0.29 0.46q-0.78 0.82-1.54 1.61-0.46 0.04-0.9 0.2-0.76-0.73-1.52-1.47z"/>
	<path class="s7" d="m257.36 354.22c-4.13 1.78-3.38-1.14-3.58-3.15 1.43 0.82 3.04 1.46 3.58 3.15z"/>
	<path class="s6" d="m253.75 314q-0.69-0.2-1.41-0.26 0.58-1.17 1.17-2.35 0.12 1.3 0.24 2.61z"/>
	<path class="s4" d="m255.42 316.62c-1.44-0.47-1.64-1.56-1.63-2.77 1.6 0.4 1.45 1.68 1.63 2.77z"/>
	<path class="s4" d="m255.11 367.12q0.77 0.73 1.54 1.47c-2.14 5.09-2.86 10.35-0.77 15.49 1.6 3.93 0.03 4.47-3.73 4.49-11 0.04-22 0.34-33.01 0.54q-5.04-0.31-10.08-0.62 0.01-0.68 0.01-1.36c11.9 0.62 23.62-2.13 35.54-1.43 2.87 0.18 5.75-0.67 6.18-4.15 0.48-3.9 1.01-7.78 1.52-11.68q1.39-1.38 2.8-2.75z"/>
	<path class="s1" d="m226.37 393.78q-0.71-0.66-1.42-1.33c4.64-2.63 9.74-0.92 14.61-1.25 6.81-0.46 13.69 0.68 20.58 0.13-10.93 4.12-22.52 1.67-33.77 2.45z"/>
	<path class="s2" d="m257.53 368.39q0.78-0.8 1.54-1.61c0 0.95-0.59 1.43-1.54 1.61z"/>
	<path class="s2" d="m360.49 406.06q-2.88 1.03-5.87 0.39c1.74-3.13 3.75-2.45 5.87-0.39z"/>
	<path class="s2" d="m348.79 406.6q-2.13-0.02-4.26-0.03 2.15-4.53 4.26 0.03z"/>
	<path class="s2" d="m355.87 74.02l-0.62 0.14-0.61-0.15 0.14-0.62q0.67 0.14 1.09 0.63z"/>
	<path class="s7" d="m105.46 318q-0.07-46.55-0.14-93.1c2.49 0.09 3.86 1.31 4.39 3.52 0.39 1.61 1.43 3.13 3.38 2.62 9.51-2.43 12.57 3.67 15.18 9.92 0.91 2.16 2.19 2.54 4.16 2.59q0 11.93-0.01 23.86c-1.96 0.09-3.95 0.15-3.95 2.7 0 2.56 1.99 2.61 3.95 2.7q0.01 15.26 0.01 30.51c-2.52-0.09-3.72 0.81-4.25 3.32-0.92 4.27-3.29 8.26-2.75 12.82 0.14 1.25 0.23 2.75-1.46 3.4-1.27 0.49-2.35 0-3.19-0.85-1.08-1.09-1.15-2.39-0.4-3.66 0.33-0.58 1-1.03 1.21-1.63 0.77-2.11-4.65-8.85-7.55-9.1-4.23-0.37-4.43 2.49-4.41 5.27 0.04 2.75-0.75 4.82-4.17 5.11z"/>
	<path class="s7" d="m105.31 218.24q-0.08-52.17-0.18-104.35c-0.02-4.2-0.15-8.41-0.23-12.61q0.93-0.7 1.86-1.4c0.95 0.07 2.12-0.17 2.82 0.24 7.17 4.23 14.65 5.51 22.68 2.34q0.07 5.34 0.13 10.67c-1.21 0.26-3.21-0.37-3.23 1.37-0.01 1.76 2 1.13 3.21 1.39q-0.01 5.27-0.02 10.54c-4.63-0.2-7.17 3.1-6.43 6.05 1.09 4.43-1.04 10.87 6.45 12.67q0.01 3.94 0.03 7.89c-2.94-0.23-4.94 1.37-4.97 3.7-0.06 5.03-2.49 9.92-1.14 14.93 1.11 4.1-0.92 5.45-4.7 5.28-4.24-0.2-6.8 1.96-8.68 4.87-4.91 7.6-4.32 16.1-3.86 24.41 0.23 4.6 1.71 9.08-3.74 12.01z"/>
	<path class="s8" d="m105.31 218.24c5.44-2.93 3.95-7.42 3.71-12.03-0.46-8.3-1.05-16.8 3.86-24.4 1.89-2.92 4.44-5.07 8.68-4.87 3.78 0.17 5.83-1.19 4.7-5.29-1.35-5 1.08-9.9 1.14-14.93 0.03-2.34 2.04-3.92 4.98-3.69q0.02 45.26 0.05 90.52c-1.99-0.05-3.25-0.41-4.16-2.59-2.61-6.25-5.66-12.35-15.18-9.92-1.97 0.51-2.99-1.01-3.38-2.62-0.55-2.21-1.92-3.43-4.4-3.52q0.03-3.33 0-6.66z"/>
	<path class="s8" d="m105.46 318c3.4-0.29 4.21-2.35 4.2-5.1-0.02-2.78 0.18-5.64 4.41-5.27 2.89 0.26 8.3 6.99 7.55 9.11-0.22 0.6-0.88 1.03-1.21 1.62-0.75 1.28-0.68 2.57 0.4 3.66 0.84 0.85 1.92 1.34 3.19 0.85 1.69-0.65 1.6-2.14 1.46-3.39-0.54-4.58 1.81-8.56 2.75-12.83 0.55-2.5 1.74-3.41 4.25-3.31q-0.04 33.29-0.08 66.58c-1.42-0.1-3.18 0.1-3.8-1.33-2.91-6.76-10.29-8.71-15.91-12.37-3.79-2.46-5.42-4.73-3.84-8.62 1.3-3.21 0.45-5.13-3.34-5.66q-0.02-11.99-0.03-23.94z"/>
	<path class="s7" d="m157.01 356.55q0 2.67-0.01 5.34c-2.57 0.35-2.71 2.09-2.7 3.95 0.03 3.08-0.36 6.22 0.08 9.27 0.89 6.34-0.97 9.32-8.34 6.79q0.04-19.36 0.08-38.72c6.93-0.91 9.48 1.82 8.73 8.21-0.14 1.34-2.03 4.76 2.16 5.16z"/>
	<path class="s8" d="m132.38 145.13c-7.52-1.79-5.37-8.23-6.46-12.66-0.74-2.96 1.8-6.26 6.43-6.06q0 9.38 0.03 18.72z"/>
	<path class="s8" d="m132.43 272.81c-1.96-0.09-3.95-0.14-3.95-2.7 0-2.55 1.98-2.61 3.95-2.7q0 2.7 0 5.4z"/>
	<path class="s8" d="m132.36 115.89c-1.21-0.26-3.23 0.36-3.21-1.39 0.01-1.73 2.01-1.11 3.22-1.37q0.01 1.38-0.01 2.76z"/>
	<path class="s6" d="m231 346.04q-1.69 4.58-3.37 9.17c-0.79 1.07-1.54 2.16-2.38 3.22-5.22 6.49-6.92 14.89-13.21 20.79-3.85-1.47-6.53-3.63-8.01-7.61-1.93-5.16-4.69-10.19-12.23-9.98-1.44 0.04-2.36-1.3-3-2.53q0.83-2.6 1.66-5.2c5.35-8.13 9.91-16.62 14.11-25.28q1.49-1.4 3-2.78c8.61 2.47 11.84 10.2 17.62 15.43 1.86 1.68 3.3 3.76 5.81 4.77z"/>
	<path class="s9" d="m168.53 275.26q2.1-5.9 4.21-11.8c2.74-1.51 3.03-4.47 4.63-6.66 2.38 1.95 1.4 4.54 1.41 6.86 0.09 13.68 0.06 27.35 0.06 41.03q0.01 24.6 0.02 49.19 0 4.95-0.03 9.91c-0.02 2.26-0.13 4.58 3.31 4.79-2.43 6.44-5.4 12.65-9.21 18.52-3.78 0.36-4.34-1.77-4.21-4.55 0.62-13.6-0.52-27.13 2.25-40.81 2.1-10.42 1.11-21.46-0.15-32.28-1.32-11.34-1.58-22.8-2.29-34.2z"/>
	<path class="s8" d="m212.04 379.21c6.29-5.91 7.99-14.3 13.21-20.8 0.84-1.03 1.59-2.14 2.38-3.22 4.9-0.76 7.57 1.63 8.91 5.59 2.46 7.23 8.07 9.66 15.75 9.08q-0.76 5.84-1.51 11.68c-0.43 3.47-3.3 4.32-6.18 4.15-11.91-0.7-23.65 2.05-35.54 1.43 1.11-2.6 3.24-4.87 2.98-7.91z"/>
	<path class="s14" d="m182.13 368.59c-3.45-0.22-3.33-2.53-3.32-4.79 0.03-3.3 0.02-6.61 0.03-9.91q5.81 0 11.62 0-0.83 2.6-1.66 5.2c-3.07 2.66-3.11 7.13-6.67 9.5z"/>
	<path class="s8" d="m184.56 105.23q1.44 0 2.87 0c5.27 4.03 8.77 10.54 16.35 11.32 8.94 0.92 15.2 6.47 22.64 10q-0.1 1.23-0.19 2.48-10.71 18.69-21.42 37.37c-4.6 4.99-5.7 12.03-11.37 16.38-0.4-2.06 0.31-3.75 1.46-5.56 2.55-3.98 0.71-5.63-3.91-5.54-4.03 0.08-8.08 0.03-12.14 0.03q0.06-31.95 0.11-63.9c2.23-0.17 5.13 0.86 5.6-2.58z"/>
	<path class="s14" d="m250.84 154.4c6.6 7.02 3.34 14.77 1.45 22.18-0.85 3.31-1.49 6.07-0.27 9.51 2.7 7.61 3.01 15.36-0.33 23.06-1.53 3.53-1.88 7.4 0.46 10.79 1.41 2.05 1.57 4.09 1.56 6.3-6.22 0.61-10.5-1.72-13.21-6.96-1.84-3.57-4.35-6.84-6.21-10.41-1.37-2.62-3.42-4.48-6.3-4.93-5.52-0.85-9.31-4.13-13.32-7.19q4.47-8.46 8.93-16.93 9.9-15.4 19.8-30.8c0.25-1.02 0.39-2.12 1.63-2.63 2.82 2.11 0.5 7.42 5.81 8.01z"/>
	<path class="s5" d="m243.4 149.02q-9.9 15.4-19.8 30.8c-2.01-2.08-6.41-1.87-6.92-5.18-1-6.63-6.44-7.34-11.89-8.25q10.71-18.69 21.42-37.37c5.12 3.14 8.12 7.72 10.64 12.76 1.45 2.88 2.76 6.08 6.55 7.24z"/>
	<path class="s7" d="m226.42 126.55c-7.44-3.52-13.7-9.08-22.64-10-7.58-0.78-11.08-7.28-16.35-11.32q25.97-0.02 51.93-0.04-0.12 1.31-0.24 2.65c-5.83 5.31-7.87 12.81-12.7 18.71z"/>
	<path class="s8" d="m250.84 154.4c-5.32-0.59-2.99-5.9-5.81-8.01q5.11-8.61 10.19-17.21c1.7 4.75 0.18 9.44-2.03 13.36-1.98 3.53-2.44 6.84-2.34 10.51q0.01 0.68-0.01 1.35z"/>
	<path class="s14" d="m175.89 215.23q-1.41 0.24-2.82 0.47-0.04-18.67-0.08-37.34 0.03-1.34 0.06-2.66 2.87-0.01 5.76-0.01c0.8 9.76-1.66 19.68 1.5 29.34q-1.02 2.56-2.02 5.09c-3.11 0.8-2.35 3.12-2.4 5.11z"/>
	<path class="s7" d="m180.3 205.03c-3.16-9.66-0.71-19.58-1.5-29.34q0.03-1.99 0.05-3.98c4.06 0 8.09 0.05 12.14-0.03 4.63-0.09 6.48 1.56 3.91 5.54-1.17 1.81-1.86 3.5-1.47 5.56-1.97 8.61-7.68 15.37-13.13 22.25z"/>
	<path class="s7" d="m184.56 105.23c-0.47 3.44-3.37 2.41-5.6 2.58q-0.02-1.32-0.05-2.64 2.82 0.04 5.65 0.06z"/>
	<path class="s8" d="m214.68 196.75c4.01 3.06 7.8 6.34 13.32 7.19 2.9 0.45 4.95 2.3 6.3 4.93 1.86 3.57 4.37 6.84 6.22 10.41 2.71 5.24 6.99 7.57 13.2 6.96 2.94 2.89 3.12 5.81 0.88 9.29-1.27 1.95-1.57 4.45-2.31 6.7-0.36 7.06-4.13 12.86-7.84 18.75-5.22 8.32-10.13 16.79-15.16 25.21-10.34-6.64-19.01-14.62-23.89-25.59-0.45-1-1.43-1.81-1.82-2.83-2.93-7.63-8.48-13.99-12.02-21.33 7.16-13.51 14.49-26.93 23.12-39.69z"/>
	<path class="s7" d="m177.36 256.8c-1.6 2.19-1.89 5.15-4.63 6.66-0.87-15.64-4.79-31.45 3.17-46.56q1.33 0.03 2.65 0.05c-0.21 11.92 1.56 23.9-1.12 35.76q-0.03 1.42-0.06 2.82-0.01 0.65-0.01 1.27z"/>
	<path class="s4" d="m178.55 216.96q-1.32-0.02-2.65-0.05-0.01-0.82-0.02-1.66c0.06-2-0.7-4.33 2.4-5.13q0.14 3.42 0.27 6.84z"/>
	<path class="s11" d="m377.72 131.76c3.11 5.35 8.91 9.25 8.68 16.38-0.42 12.4-0.16 24.82-0.1 37.23 0.03 5.77-2.35 11.36-2.81 16.68-0.91 10.34-6.07 21.46 1.94 31.51 0.52 0.65 0.96 1.74 0.75 2.47-2.58 9.14 0.9 18.65-1.97 27.77-1.07 3.4 2.25 5.99 2.2 9.48-0.27 19.94 0.73 39.93-0.43 59.81-0.72 12.35 1.8 24.55 0.26 36.82-5.1 0.21-3.95-6.4-8.56-6.71q-0.01-115.72 0.04-231.44z"/>
	<path class="s6" d="m377.65 363.2c4.63 0.31 3.46 6.92 8.56 6.71q0 8.6 0 17.19-4.3 0.69-8.57 1.37-0.01-12.63 0.01-25.27z"/>
	<path class="s14" d="m177.36 256.8q0-0.63 0.01-1.26c1.1-0.52 1.46-1.44 1.56-2.49 5-5.03 6.51-12.32 12.63-16.62 3.54 7.33 9.09 13.69 12.02 21.33 0.39 1.01 1.37 1.82 1.82 2.82 4.9 10.98 13.55 18.95 23.88 25.59q-0.84 2.6-1.71 5.2c-8.07 10.8-13.41 22.94-20.01 34.45q-1.5 1.4-3 2.79c-1.08-0.4-2.61-0.51-3.16-1.24-4.26-5.79-10.48-10.1-14.21-16.32-1.82-3.02-3.85-6.2-8.38-6.36 0-13.68 0.04-27.35-0.06-41.03 0-2.32 1-4.91-1.39-6.86z"/>
	<path class="s8" d="m178.83 304.71c4.52 0.16 6.57 3.34 8.37 6.36 3.74 6.21 9.95 10.52 14.22 16.31 0.55 0.73 2.07 0.84 3.15 1.24-4.21 8.66-8.78 17.15-14.11 25.28q-5.81 0-11.62 0-0.01-24.61-0.01-49.19z"/>
	<path class="s6" d="m191.56 236.42c-6.13 4.3-7.64 11.59-12.63 16.62q-0.75-0.17-1.5-0.33c2.68-11.86 0.91-23.84 1.12-35.76q-0.13-3.41-0.27-6.84 1-2.56 2.02-5.1c5.45-6.88 11.16-13.63 13.14-22.26 5.67-4.35 6.77-11.39 11.37-16.38 5.44 0.92 10.87 1.61 11.89 8.25 0.5 3.32 4.9 3.09 6.92 5.19q-4.46 8.47-8.94 16.93c-8.63 12.77-15.96 26.19-23.12 39.68z"/>
	<path class="s4" d="m177.43 252.72q0.75 0.16 1.5 0.33c-0.1 1.05-0.46 1.97-1.56 2.49q0.02-1.42 0.06-2.82z"/>
</svg>