<svg version="1.2" xmlns="http://www.w3.org/2000/svg" viewBox="0 0 459 448" width="459" height="448">
	<defs>
		<clipPath clipPathUnits="userSpaceOnUse" id="cp1">
			<path d="m0 0h459v448h-459z"/>
		</clipPath>
	</defs>
	<style>
		.s0 { fill: #fcfcfd } 
		.s1 { fill: #261522 } 
		.s2 { fill: #20193d } 
		.s3 { fill: #34202f } 
		.s4 { fill: #3f2938 } 
		.s5 { fill: #a58577 } 
		.s6 { fill: #ba957b } 
		.s7 { fill: #af9488 } 
		.s8 { fill: #c4aaa0 } 
		.s9 { fill: #c0966f } 
		.s10 { fill: #5b827a } 
		.s11 { fill: #1e5175 } 
		.s12 { fill: #ebb04f } 
		.s13 { fill: #cbdaeb } 
	</style>
	<g id="Clip-Path" clip-path="url(#cp1)">
		<g>
			<path class="s0" d="m0.21 286.15c1.99 0.25 4.13-0.53 6.72 1.02-2.59 1.54-4.73 0.76-6.72 1.01q0-1.01 0-2.03z"/>
			<path class="s1" d="m102.67 154.9q3.4-11.24 6.81-22.49l0.32 0.13c4.47-1.95 9.16-0.81 13.74-1.13 6.58-0.47 13.24 1.08 19.77-0.88 3.37 1.08 2.8 4.84 4.23 7.24 0.2 3.64 1.99 6.7 3.07 10.03q0.38 1.53 0.77 3.07c2.41 8.82 4.74 17.66 7.27 26.44 0.99 3.42-0.06 4.71-3.18 4.68-2.95-0.03-5.9 0.21-8.83 0-2.55-0.18-3.52 0.58-3.42 3.53 0.15 4.83-0.15 9.7-0.26 14.54q-1.63 0.18-3.25 0.37c-2.09-3.01-0.89-6.44-0.95-9.65-0.17-8.92-0.05-8.92-8.31-8.54 0-2.17 1.43-2.42 2.86-2.17 5.86 1.01 11.13-3.26 17-2.19 0.82 0.16 1.34-0.65 1.59-1.5q0.35-0.29 0.78-0.46c1.46-1.04 0.91-2.67 1.05-4.1 0.57-6.19-2.91-11.29-4.02-17.05-1.23-6.29-3.44-12.38-5.4-18.49-1.04-3.24-3.4-3.4-5.5-0.6q-11.21 0.23-22.43 0.45-0.92-0.19-1.85-0.38c-0.31-1.03-0.64-2.92-1.78-0.82-6.12 11.23-8.66 23.81-11.32 36.32-0.34 1.57-0.81 3.79 1.32 4.86q0.33-0.04 0.33 0.32c1.67 2 3.93 3.28 6.21 3.43 7.11 0.47 14.33-0.55 21.22 2.32q-0.05 17.08-0.09 34.17c-4.58 0.1-8.75 2.4-13.4 2.66-2.25 0.13-6.1 2.2-5.17 6.42 0.78 3.58 3.19 5.31 6.91 5.21 8.53-0.2 17.08-0.07 25.62-0.07q-0.01 0.84-0.02 1.67-16.35 0.27-32.71 0.54c-6.01 0.04-12.08-1.25-18.02 0.68l-0.22 0.3 0.17 0.33c-0.63 0.73-0.61 1.56-0.35 2.43q-0.01 1.09-0.03 2.18c-0.19 0.76-0.33 1.5 0.64 1.75q10.28 0.23 20.55 0.46c-0.23 2.7 0.7 3.88 3.41 3.83q12.06-0.23 24.11 0c2.69 0.05 3.68-1.08 3.43-3.8q7-0.23 13.99-0.46 20.59 0.22 41.19 0.44c-0.23 2.71 0.73 3.92 3.44 3.82 4.79-0.18 9.59-0.08 14.39-0.03 1.46 0.01 3.24-0.57 3.77 1.81q-2.35 0.14-4.69 0.27c-14.77-0.04-29.52-0.12-44.28-0.12q-31.24 0-62.48 0.03-0.92 0.01-1.86 0.02-0.94 0.01-1.87 0.02c-2.67-0.59-4.01 0.14-3.89 3.52 0.19 5.03 0.04 10.07-0.17 15.09-0.11 2.77 0.68 3.84 3.39 3.83 25.16-0.07 50.33-0.02 75.49-0.01 0.63 0.5 1.28 0.49 1.93 0.07q0.94 0.01 1.88 0.02c9.37 0.76 18.75 0.85 28.12-0.06q2.81 0.28 5.63 0.55c-1.24 1.92-3.11 1.2-4.73 1.21-10.92 0.06-21.83 0.13-32.73-0.01-2.79-0.03-4.15 0.84-3.8 3.98-19.59 0.02-39.19 0.08-58.78 0-2.59-0.01-3.86 0.28-3.83 3.7 0.21 20.99 0.17 41.99 0.23 62.97q-0.62 0.58-1.23 1.14-0.96 0.01-1.91 0c-0.54-0.91-1.41-1.03-2.3-1.11 0.11-4.64 0.46-9.28-0.31-13.9 0.71-13.9 0.63-27.79 0.11-41.69q0.02-0.48 0.04-0.97 0.43-0.42 0.03-0.88c0.11-1.64 0.11-3.29 0.33-4.9 0.46-3.4-0.71-4.45-3.96-4.53-5.42-0.15-3.07 3.78-3.37 6.39-0.42 10.44-0.23 20.88 0.15 31.33q-0.2 0.48 0 0.96-0.01 3.06-0.01 6.12 0 0.98-0.01 1.97-0.03 2.03-0.05 4.06-0.01 0.52-0.02 1.02-0.03 2-0.05 4c-0.17 4.04-0.57 8.1 0.13 12.13-3.31 0.36-6.62 1.04-9.91 0.98-3.18-0.06-3.15 1.44-2.35 3.85q-0.45 0.18-0.91 0.35c-1.61-0.67-3.41-1.27-3.04-3.73 0.39-2.53 2.3-2.32 4.01-2.33 1.09-0.01 2.19-0.12 3.27 0.02 2.31 0.28 3.27-0.44 3.22-3.25-0.19-11.75-0.16-23.51-0.2-35.27q0.02-22.74 0.05-45.48 0.09-1.51 0.16-3.02c0.22-4.79 0.78-9.41-6.27-8.56-3.34 0.4-4-3.53-3.71-6.38 0.43-4.21-2.27-9.26 2.37-12.43 0.8-0.56 2.13-0.27 3.22-0.29q5.84-0.1 11.7-0.17c1.43-0.02 2.7-0.12 3.25-2.06 1.98-7.02 6.93-9.15 13.11-8.59 3.17 0.3 3.53-1.19 3.47-4.06q-0.29-13.14-0.1-26.27c0.04-3.04-0.71-4.12-3.65-4.04-6.86 0.19-13.72-0.06-20.59-0.03-3.44 0.02-4.4-1.67-3.48-5.08 1.96-7.34 3.87-14.67 5.8-22z"/>
			<path class="s1" d="m343.19 218.23q-0.92 3.03-1.83 6.07-0.64 0.68-1.29 1.35-0.55-0.58-1.09-1.16c-1-4.02 1.89-7.24 1.92-11.04 0.03-5.03-0.15-10.08 0.08-15.11 0.16-3.43-1.15-4.29-4.09-4.23-7.62 0.17-15.24-0.04-22.86 0.13-3.52 0.08-7.13-0.9-10.57 0.68-1.07 0.22-2.04 0.55-1.75 2.1-0.02 2.83-0.18 5.66-0.03 8.48 0.16 3.37-1.08 7.09 1.83 9.87q0.01 0.51 0.02 1.03c0.37 1.78-1.19 4.39 1.85 5.03q0.02 0.51 0.03 1.02c-0.07 1.09 0.15 2.29-0.91 3.03-3.66-4.66-3.56-10.83-5.57-16.15q-0.6-4.99-1.18-9.98c-0.95-8.55-0.95-8.55 7.07-9.84-3.64-5.26-6.25-10.91-8.8-16.57-0.31-3.42-1.94-6.57-1.75-10.09 3.24-0.88 2.46 4.57 5.47 4.04 0.5 1.23 1.05 2.44 1.51 3.68 2.12 5.77 4.42 11.43 7.61 16.63 1.88 3.06 4.69 3.47 7.41 2.54 2.81-0.97 1.77-3.73 1.35-6.03-1.7-9.13-6.16-16.52-12.23-22.94 0.74-1.16 1.89-0.94 2.95-1.04q1.35 0.77 2.7 1.54c2.64 0.67 3.55-0.77 3.75-3.39 0.15-2.06-0.78-4.35 0.9-6.16-0.3 6.62-0.11 13.14 2.98 19.14 0.03 2.23 1.05 3.92 2.56 6.02 1.24-3.12 3.28-5.08 3.71-7.99 3.43-4.08 4.23-8.91 3.54-14.19q1.93 0.02 3.87 0.05c1.49 0.86-1.99 4.51 1.93 3.99q3.03-0.41 6.05-0.83c-7.48 7.21-12.84 15.76-14.39 26.69-0.25 1.7-1.89 3.94 0 5.02 2.07 1.18 4.39 0.49 6.35-1.47 3.23-3.24 5.24-7.35 7.63-11.21 1.13 1.08 2.11 2.48 3.92 2.06 0.23 1.6-1.86 2.16-1.45 3.83-1.73 1.95-2.95 4.19-3.62 6.88 6.96 0.66 7.36 1.11 6.89 8.22-0.27 4.14-0.67 8.27-1.02 12.4q-0.23 0.94-0.46 1.89-0.49 3.02-0.99 6.01z"/>
			<path class="s2" d="m112.53 342.75q0.96 0 1.91 0c0.97 1.49 2.43 0.87 3.71 0.99q108.61 0.01 217.23 0.03c-0.28 2.38-1.99 1.97-3.44 2.03-1.32 0.05-2.83-0.27-3.14 1.82q-37.76 0.1-75.53 0.21-19.81 0.07-39.62 0.17-1.4 0-2.81 0-43.09-0.09-86.18-0.21c-2.17-0.01-4.34-0.12-6.51-0.18-0.3-2.09-1.82-1.85-3.13-1.8-2.06 0.07-2.57-1.17-2.49-3.06z"/>
			<path class="s3" d="m338.99 224.47q0.54 0.59 1.09 1.17c0.35 1.94 1.56 1.52 2.75 1.16 5.22 0.14 10.44 0.39 15.67 0.38 2.55-0.02 4.53 0.61 5.49 3.4 0.06 3.02 0.17 6.03 0.18 9.04 0 4.61-1.65 7.46-6.42 6.73-3.46-0.53-4 1.4-3.37 4.43q-0.21 5.05-0.41 10.11c-1.94 0.3-1.77 1.89-1.78 3.37-0.01 2.3-0.14 4.61 0.02 6.9 0.22 3.04-0.92 4.28-3.69 3.81q-0.03-2.98-0.06-5.97c0.94-7.48 1.17-14.97 0.02-22.46q-0.18-0.59-0.35-1.19-0.29 0.47-0.57 0.94-1.45-0.03-2.9-0.05c-0.34-1.48-1.4-1.54-2.53-1.54q-12.7 0.01-25.39 0c-1.25 0-2.55-0.11-2.88 1.7q-0.96 0-1.95-0.01c-0.21-1.14-0.89-1.67-1.95-1.67q-6.91 0-13.82 0c-1.07 0-1.72 0.54-1.94 1.69q-0.97 0.01-1.93 0.01 0.05-2.64 0.1-5.29c1.54-0.14 3.08-0.39 4.62-0.39 19.31-0.04 38.61-0.07 57.92-0.02 2.54 0.01 4.06-0.36 3.96-3.79-0.08-3.09-0.63-4.63-3.88-4.49-4.65 0.21-9.33-0.05-14-0.11-0.2-0.86-0.58-1.46-1.47-1.71-1.46-0.39-3.94 0.87-3.98-2.04-0.06-2.14 1.52-3.47 3.45-4.11z"/>
			<path class="s1" d="m158.39 227.33q2.34-0.34 4.68-0.67 26.21-0.03 52.44-0.05c12.5 0.46 25 0.63 37.49 0.03 13.1 0.47 26.19 0.61 39.3 0.21q0.95 0.29 1.9 0.57 0.01 0.54 0.02 1.08c-2.09 0.55-3.87 1.55-4.77 3.82q-17.79 0.24-35.59 0.5-2.34-0.27-4.69-0.54c1.14-2.75 0.46-3.82-2.46-3.78-8.66 0.14-17.31 0.18-25.96-0.01-3.12-0.07-3.33 1.29-2.45 3.83q-6.99 0.27-13.97 0.53-22.97-0.05-45.94-0.09-2.81-0.23-5.62-0.45c0.41-2.04 1.93-1.78 3.25-1.75 2.17 0.04 2.45-1.41 2.37-3.23z"/>
			<path class="s3" d="m171.17 185.07q0.17-3.03 0.34-6.06c1.03-0.09 1.76-0.55 1.82-1.79 0.08-1.42-0.51-2.2-1.84-2.27q-0.01-1.5-0.02-3 2.19-2.04-0.01-4.09 0-2 0-4c1.66-1.4 0.99-3.38 1-5.12 0.06-10.32 0-20.66 0.06-30.98 0.01-1.39-0.68-3.23 1-4.01 1.46-0.68 1.88 1.46 3.05 1.75q0.32 0.97 0.61 1.93 0 1.02 0 2.04c-0.79 2.07-0.62 4.15-0.01 6.23q-0.04 26.19-0.08 52.37c-1.63 4.22 1.54 3.62 3.43 3.66 9.79 0.21 19.59 0.22 29.37 0.31 0.16 2.12 1.59 2.2 3.02 2.11 2.07-0.12 2.73 1.06 2.61 3.06q-13.57 0.2-27.15 0.39c-4.04-0.1-8.1-0.42-12.12-0.22-3.7 0.19-5.11-1.36-4.86-5.28 0.15-2.31-0.14-4.68-0.22-7.03z"/>
			<path class="s2" d="m242.6 100.33c2.88 2.7 5.81 5.33 8.61 8.12 2.77 2.75 6.21 0.9 9.24 1.81 1 3.66-3.74 2.23-3.77 4.98q-1.85-0.02-3.7-0.04c-0.3-2.04-1.75-1.89-3.11-1.89q-4.07-0.01-8.13-0.01-0.01-1.5-0.02-3c0.82-0.23 1.67-0.68 0.71-1.58-4.64-4.27-9.3-8.55-14.49-12.03-1.87-1.25-3.84-1.19-5.63 0.32q-6.56 5.58-13.09 11.2c-1.56 1.34-0.59 1.76 0.67 2.04-0.03 1.11 0.16 2.32-0.94 3.05-4.17 0.36-8.1-0.15-11.26-3.52q2.44-0.29 3.68-2.57 4.94-4.42 9.87-8.83c3.82-2.84 7.65-5.53 10.02-10.2 2.31-4.56 6.65-4.38 9.16 0.25 2.94 5.4 7.68 8.47 12.18 11.9z"/>
			<path class="s1" d="m348.51 274.97c2.78 0.47 3.92-0.77 3.69-3.81-0.17-2.29-0.02-4.6-0.02-6.9 0.01-1.48-0.17-3.08 1.78-3.37q0.16 2.52 0.31 5.05-0.01 2.53-0.02 5.05 0 1.01 0 2.02 0 20.72-0.01 41.45-0.02 5.05-0.03 10.1-0.17 8.09-0.35 16.17c-2.51-0.69-1.54-2.91-1.66-4.57-0.32-4.32 0.55-8.74-0.66-13.35-2.57 2.39 0.52 6.24-2.73 7.8q-0.19-3.53-0.38-7.06 0.01-24.26 0.03-48.53z"/>
			<path class="s4" d="m270.74 197.68q-12.19 0.01-24.38 0.04l0.02-0.47c-0.86-2.91 3.02-2.82 2.88-5.28 6.66-0.05 13.34-0.53 19.97-0.02 4.76 0.38 5.64-1.66 5.57-6.12-0.14-10.36 0.07-20.73 0.14-31.1 1.51 0.54 2.24-1.48 3.71-1.38 1.39 2.69-0.7 6.02 1.43 8.48q0 3.54 0 7.08-2.12 2.52 0 5.04 0 5.06-0.01 10.11c-2.31 0.32-1.84 2.26-1.83 3.82 0.03 3.14 0.01 6.26-0.93 9.28q-3.29 0.26-6.57 0.52z"/>
			<path class="s1" d="m280.08 161.82c-2.12-2.45-0.04-5.79-1.43-8.48-1.47-0.1-2.2 1.92-3.71 1.38q-0.21-16.67-0.43-33.33 0.26-1.56 0.51-3.11 0.12-0.61 0.24-1.21c-0.98-2.71-2.95-1.39-4.61-1.32q-7-0.25-13.98-0.52c0.02-2.74 4.77-1.32 3.77-4.98q2.81-0.24 5.62-0.48c3.1 0.04 6.2 0.28 9.28 0.07 3.62-0.25 4.97 1.26 4.95 5.2-0.08 12.9 0.07 25.79 0.14 38.69q-0.17 4.06-0.35 8.09z"/>
			<path class="s2" d="m332.35 154.76q-1.94-0.03-3.88-0.05c-2.29-6.58-2.88-13.87-6.95-20.23-3.25 5.62-3.84 11.72-5.83 17.24-1.69 1.81-0.75 4.1-0.9 6.16-0.19 2.62-1.1 4.06-3.75 3.39q-0.08-2.76-0.18-5.51c1.1-8.81 2.8-17.45 7.07-25.19 2.91-5.28 4.85-5.22 7.79 0.1 3.13 5.65 4.47 12.03 6.21 18.24q0.21 2.92 0.42 5.85z"/>
			<path class="s2" d="m144.36 230.57c-8.54 0-17.09-0.14-25.62 0.07-3.72 0.1-6.13-1.63-6.91-5.21-0.93-4.22 2.92-6.29 5.17-6.42 4.65-0.25 8.83-2.56 13.4-2.66q1.83-0.04 3.66-0.08c4.44 0.45 9.02 0.53 11.74 5.35q0.29 1.3 0.57 2.57c0.49 2.55-1.31 4.27-2.01 6.38zm-13.68-2.1c2.4 0 4.45 0.23 6.44-0.07 1.56-0.24 3.99-0.1 4.21-2.27 0.28-2.56-1.99-3.86-3.94-4.23-6.5-1.23-12.93 1-19.43 0.91-1.1-0.02-2.33 1.26-2.21 2.81 0.14 1.74 1.55 1.98 2.81 1.92 4.21-0.22 8.26 1.76 12.12 0.93z"/>
			<path class="s3" d="m348.82 330.61c3.25-1.56 0.16-5.41 2.73-7.8 1.21 4.61 0.33 9.04 0.66 13.35 0.12 1.66-0.85 3.89 1.66 4.57 3.18 2.65 7.29-0.43 10.5 1.98q0.2 1.54 0.39 3.08c-1.39 2.69-3.97 1.61-6.02 2.18q-14.97-0.18-29.95-0.35c0.31-2.09 1.82-1.77 3.14-1.82 1.46-0.06 3.16 0.35 3.44-2.03 0.77-0.48 0.86-1.28 0.86-2.13q0.09-0.96 0.17-1.93c2.75-0.74 1.4-3.18 1.75-4.92 0.38-1.83-0.88-4.13 1.86-6.25 0 2.91-0.19 5.05 0.05 7.13 0.25 2.08-1.28 4.77 1.53 6.13q0.62-0.05 1.24-0.1c4.39 1 6.62-0.4 5.79-5.72-0.27-1.73 0.12-3.58 0.2-5.37z"/>
			<path class="s1" d="m171.03 124.43c0.05-0.34 0.13-0.67 0.13-0.99 0.21-13.6 0.21-13.58 12.62-13.6 3.71-0.01 7.43-0.2 11.14-0.3q0.45 0 0.9-0.01 0.94 0.12 1.88 0.24c3.15 3.38 7.09 3.89 11.26 3.52q-0.47 0.94-0.93 1.9-11.44 0.4-22.88 0.79c-1.3-0.69-2.6-0.59-3.91-0.05q-1.32-0.01-2.63-0.03c-0.66-0.48-1.24-0.71-1.51 0.42q0 2.53 0 5.06-0.27 2.07-0.54 4.13c-1.18-0.3-1.6-2.43-3.06-1.75-1.68 0.78-1 2.62-1 4.01-0.06 10.32 0 20.66-0.06 30.98-0.01 1.74 0.67 3.72-1 5.12q-0.2-4.06-0.39-8.11 0-15.67-0.02-31.33z"/>
			<path class="s2" d="m343.85 179.01c-1.81 0.42-2.79-0.98-3.92-2.06 2.6-6.67 4.57-13.46 4.53-21.31-1.73 0.96-2.93 1.62-4.13 2.28q-3.02 0.42-6.05 0.83c2.18-3.27 5.16-5.61 8.16-7.87 4.41-3.3 5.51-2.87 7.61 2.58-1.3 8.74-1.67 17.74-6.2 25.55z"/>
			<path class="s2" d="m299.74 166.89c-3.01 0.53-2.23-4.92-5.47-4.04-0.33-3.71-1.89-7.4-0.23-11.17q0.48-0.61 0.96-1.22c2.41-2.05 4.26-0.14 6.02 1.19 2.09 1.58 3.96 3.48 5.93 5.25q0.69 1.42 1.38 2.84c-1.06 0.1-2.21-0.12-2.95 1.04-2.26-1.22-3.36-4.28-6.21-4.89-1.22 3.92 0.98 7.39 0.57 11z"/>
			<path class="s3" d="m112.53 342.75c-0.09 1.89 0.43 3.13 2.49 3.07 1.31-0.04 2.83-0.29 3.13 1.8q-13.57-0.04-27.15-0.07c-0.8-2.41-0.83-3.91 2.35-3.85 3.29 0.06 6.6-0.62 9.91-0.97 2.32-0.44 4.89 1.01 6.98-1.1 0.88 0.08 1.76 0.2 2.29 1.12z"/>
			<path class="s3" d="m289.44 232.32c0.9-2.27 2.68-3.27 4.77-3.82 3.4-0.71 7.34 2.07 10.23-1.87q0.03-0.58 0.06-1.15c1.06-0.74 0.84-1.94 0.91-3.03 3.03 2.59 4.42 5.71 2.76 9.83q-7.94 0.23-15.87 0.47-1.42-0.22-2.86-0.43z"/>
			<path class="s4" d="m109.8 132.54c0.79-3.01 3.09-2.82 5.22-2.8q14.09 0.15 28.17 0.33l0.12 0.46c-6.53 1.96-13.19 0.4-19.77 0.88-4.58 0.33-9.27-0.82-13.74 1.13z"/>
			<path class="s3" d="m144.36 230.57c0.7-2.11 2.5-3.83 2.02-6.38 1.03 1.08 1.12 3.7 3.53 2.55q0 0.33 0.12 0.64c1.88 1.81 3.75 1.75 5.63-0.02q1.37-0.02 2.74-0.03c0.08 1.81-0.2 3.27-2.38 3.22-1.32-0.03-2.85-0.29-3.25 1.75q-0.27 0.55-0.53 1.11l-0.04-0.18c-2.52-1.19-5.26-0.31-7.84-1q-0.01-0.82 0-1.66z"/>
			<path class="s1" d="m280.4 186.09c-0.06 2.62-0.18 5.23-0.18 7.85 0 2.17-0.63 3.53-2.91 3.23 0.95-3.02 0.96-6.14 0.93-9.28-0.01-1.56-0.47-3.5 1.83-3.82q0.16 1 0.33 2.02z"/>
			<path class="s5" d="m304.45 226.64c-2.89 3.94-6.83 1.16-10.23 1.87q-0.01-0.54-0.02-1.08c3.32-1.66 6.85-0.28 10.25-0.79z"/>
			<path class="s0" d="m343.19 218.23q0.5-3 0.99-5.99c1.63 0.13 2.62 0.95 2.26 2.82-0.35 1.85-1.01 3.5-3.25 3.17z"/>
			<path class="s0" d="m354.25 270.99q0.01-2.53 0.02-5.05c1.21 0.05 2.47 0.02 2.54 1.86q0.1 2.87-2.56 3.19z"/>
			<path class="s0" d="m308.33 159.73q-0.68-1.42-1.37-2.84 1.95-0.57 3.91-1.13 0.08 2.76 0.17 5.51-1.36-0.76-2.71-1.54z"/>
			<path class="s0" d="m149.91 226.74c-2.41 1.15-2.49-1.48-3.53-2.55q-0.28-1.29-0.57-2.57c2.96 0.23 3.64 2.58 4.1 5.12z"/>
			<path class="s0" d="m197.71 109.78q-0.94-0.13-1.88-0.25c0.65-4.11 3.41-2.35 5.55-2.32q-1.24 2.28-3.67 2.57z"/>
			<path class="s0" d="m150.75 103.67c-0.09 0.69-0.35 1.29-1.09 1.32-0.92 0.04-1.4-0.48-1.34-1.49 0.06-0.82 0.63-1.12 1.27-1.1 0.7 0.01 1.07 0.54 1.16 1.27z"/>
			<path class="s0" d="m43.72 232.97c0.25 0.29 0.8 0.68 0.97 1.19 0.23 0.69-0.15 1.26-0.91 1.26-0.64 0-1.2-0.29-1.24-1.08-0.05-0.67 0.07-1.31 1.18-1.37z"/>
			<path class="s0" d="m152.51 112.29c-0.46-0.31-1.02-0.47-1.1-0.78-0.19-0.79 0.42-1.12 1.02-1.03 0.31 0.04 0.76 0.49 0.8 0.8 0.04 0.28-0.42 0.63-0.72 1.01z"/>
			<path class="s0" d="m210.83 348.01q1.41 0 2.81 0c-0.15 1-0.47 1.82-1.61 1.67-0.9-0.11-1.06-0.89-1.2-1.67z"/>
			<path class="s1" d="m155.65 227.36c-1.88 1.77-3.75 1.84-5.63 0.02q2.82 0 5.63-0.02z"/>
			<path class="s1" d="m280.08 173.95q-2.11-2.52 0-5.03 0 2.51 0 5.03z"/>
			<path class="s0" d="m342.82 226.81c-1.19 0.35-2.4 0.77-2.75-1.16q0.64-0.67 1.29-1.35c1.08 0.43 1.43 1.36 1.46 2.51z"/>
			<path class="s0" d="m14.85 287.92c-0.12 0.29-0.17 0.72-0.36 0.8-0.19 0.08-0.5-0.19-0.76-0.31 0.11-0.28 0.17-0.72 0.36-0.8 0.19-0.08 0.49 0.19 0.76 0.31z"/>
			<path class="s0" d="m23.26 269.71c-0.11 0.28-0.17 0.72-0.36 0.8-0.18 0.08-0.49-0.2-0.76-0.32 0.12-0.29 0.17-0.72 0.36-0.8 0.18-0.08 0.5 0.2 0.76 0.32z"/>
			<path class="s1" d="m295 150.46q-0.48 0.61-0.96 1.22 0.04-1.02 0.96-1.22z"/>
			<path class="s6" d="m213.69 269.2c-9.38 0.9-18.75 0.82-28.12 0.06-0.6-1.51-1.23-1.55-1.88-0.02q-0.98 0.66-1.93-0.07c-0.73-4.03-3.72-1.47-5.58-2.24q0.01-1 0.01-2c11.36 0 22.72 0.12 34.08-0.1 2.92-0.07 6.49-0.81 6.96-4.73 0.38-3.18 1.6-7.67-2.75-9.06-4.05-1.28-8.1-2.63-12.6-2.42-10.09 0.44-20.22 0.13-30.34 0.13q-9.84 0-19.68 0c-13.11 0.11-26.26-0.78-39.28 1.97-3.42 0.72-5.15 4.55-2.95 7.9 2.51 3.83 5.88 6.3 10.45 6.3q7.94 0 15.88 0.01 0 1 0.01 2.01c-3.88 0-7.79-0.3-11.63 0.07-6.2 0.62-11.7-1.5-17.21-4.06-1.08-0.5-2.07-0.79-2.02-2.24 0.15-4.72-1.02-9.66 1.83-13.98q0.94-0.01 1.87-0.02c0.25 0.53 0.41 1.44 0.73 1.51 1.02 0.22 1-0.78 1.13-1.53 20.82-0.01 41.64-0.05 62.47-0.03 14.76 0.01 29.51 0.08 44.28 0.12 4.31 2.77 4 7.23 3.73 11.71-0.09 1.65-0.11 3.33 0 4.98 0.17 2.61-0.9 3.51-3.26 3.52-1.58 0.04-4-1.13-4.2 2.21z"/>
			<path class="s5" d="m152.19 233.24l0.04 0.17c2.12 0.45 4.44 3.17 6.15-0.65q22.97 0.04 45.94 0.09c2.29 2.29 2.27 2.29 1.85 6.67-0.03 0.31 0.59 0.67 0.9 1.01q-3.28 0.2-6.57 0.4-20.6-0.22-41.19-0.44c-0.88-3.16-3.32-1.39-5.04-1.84-1.39-0.35-3.26 0.75-4.05-1.33-0.77-2.04 1.19-2.77 1.97-4.08z"/>
			<path class="s7" d="m110.04 286.04c0.52 13.9 0.6 27.79-0.11 41.69-0.33 0.33-0.88 0.62-0.94 1.01-0.38 2.07 0.16 4.9-2.21 5.6-2.38 0.7-1.5-3.49-3.66-3.74q0.03-2 0.06-3.99c0.12-0.11 0.37-0.24 0.35-0.29-0.08-0.26-0.22-0.49-0.33-0.74q0.02-2.03 0.05-4.06 1.31-0.99 0.01-1.97 0-3.06 0-6.12c0.12-0.09 0.32-0.22 0.31-0.28-0.06-0.24-0.19-0.45-0.31-0.68-0.38-10.44-0.58-20.89-0.14-31.33 0.79-0.12 1.59-0.35 1.77-1.31 0.31-1.57 0.66-3.1 2.62-2.54 1.65 0.46 1.09 2.1 1.33 3.34 0.33 1.81-1.06 4.1 1.2 5.41z"/>
			<path class="s7" d="m152.19 233.24c-0.78 1.31-2.74 2.04-1.97 4.09 0.8 2.07 2.66 0.97 4.05 1.33 1.73 0.45 4.17-1.32 5.04 1.84q-6.99 0.23-13.99 0.46-15.46-0.02-30.94-0.03-10.28-0.23-20.56-0.46-0.32-0.87-0.64-1.75 0.01-1.09 0.03-2.18c0.68-0.72 0.57-1.57 0.35-2.43l-0.17-0.33 0.22-0.3c0.89 0.24 2.08 0.37 1.69 1.76-0.73 2.7 0.67 3.36 2.64 3.38 5.89 0.06 11.78 0.03 17.66 0.01 1.09 0 2.34 0 2.32-1.67-0.01-1.41-0.96-1.94-2.11-2.26-1.47-0.42-3.64 0.89-4.19-1.9q16.36-0.27 32.71-0.54c2.6 0.67 5.34-0.21 7.86 0.98z"/>
			<path class="s3" d="m200.51 240.93q3.29-0.2 6.57-0.4 19.68 0.21 39.35 0.41-0.47 2.75-0.94 5.48c-4.48 0.06-8.95 0.28-13.42 0.14-2.75-0.09-3.82 0.76-3.8 3.92 0.02 5.82-0.39 11.65-0.62 17.48q-2.37 0.01-4.72 0.01c-0.78-7.12 0.38-14.33-0.82-21.43-0.53-2.38-2.32-1.79-3.77-1.81-4.79-0.05-9.6-0.16-14.39 0.03-2.71 0.09-3.67-1.11-3.44-3.83z"/>
			<path class="s4" d="m222.92 267.97q2.37 0 4.72-0.01c0.6 1.29 1.85 1.17 2.87 1.54 0.72 2.19 2.49 1.56 3.85 1.45 2.81-0.24 3.86 1.12 3.68 3.96q-30 0.01-59.99 0.02c-0.36-3.14 1.01-4.01 3.79-3.98 10.91 0.14 21.83 0.08 32.73 0.01 1.62-0.01 3.49 0.71 4.73-1.21 1.24-0.56 2.91-0.04 3.62-1.78z"/>
			<path class="s8" d="m114.52 135.75q0.92 0.19 1.84 0.38c8.1 1.12 16.24 0.39 24.35 0.38 1.66 1.21 1.74 3.14 1.96 5q-0.97 0.1-1.94 0.19l-0.17-0.19c0.04-1.27-0.56-1.88-1.72-1.89l-0.12-0.12c-2.5-3.93-6.21-1.13-9.27-1.94q-2.09 0-4.2 0c-7.46 0.05-9.17 1.97-11.03 9.62-1.7 7.05-4.11 13.93-6.51 20.74-1.63 4.59-1.01 6.05 3.63 6.06 12.27 0.03 24.53-0.02 36.81-0.05q-0.05 1.02-0.1 2.04-22.49 0.23-44.99 0.45 0-0.35-0.33-0.32 5.56-19.74 11.12-39.47 0.37-0.07 0.58-0.4 0.18-0.2 0.09-0.48z"/>
			<path class="s7" d="m176.17 266.94c1.86 0.77 4.85-1.79 5.58 2.24-25.16-0.01-50.33-0.06-75.49 0.01-2.7 0.01-3.5-1.06-3.39-3.83 0.21-5.03 0.35-10.07 0.17-15.09-0.12-3.37 1.21-4.11 3.89-3.52-2.84 4.32-1.68 9.25-1.83 13.98-0.04 1.46 0.95 1.74 2.03 2.25 5.5 2.55 11 4.67 17.2 4.05 3.85-0.38 7.75-0.07 11.63-0.07q20.12-0.03 40.21-0.02z"/>
			<path class="s3" d="m103.06 176.43q22.5-0.22 44.99-0.45 1.92 0.2 3.84 0.39c-0.26 0.84-0.77 1.66-1.59 1.5-5.87-1.07-11.14 3.19-17 2.19-1.43-0.24-2.86 0.01-2.86 2.17l0.06-0.06c-6.89-2.87-14.12-1.85-21.22-2.32-2.28-0.14-4.55-1.41-6.22-3.42z"/>
			<path class="s3" d="m142.67 141.51c-0.23-1.86-0.3-3.79-1.96-5q-0.96-0.4-1.91-0.83c2.09-2.81 4.46-2.64 5.5 0.6 1.95 6.11 4.16 12.19 5.39 18.49 1.12 5.76 4.59 10.86 4.02 17.05-0.13 1.43 0.42 3.07-1.05 4.1q-4.99-17.2-9.99-34.41z"/>
			<path class="s3" d="m113.85 136.65q-5.56 19.73-11.12 39.47c-2.12-1.08-1.66-3.3-1.32-4.86 2.66-12.51 5.2-25.09 11.32-36.32 1.14-2.1 1.47-0.21 1.79 0.82q0.09 0.28-0.09 0.5c-0.49-0.4-0.61-0.12-0.58 0.39z"/>
			<path class="s5" d="m111.63 232.78c0.54 2.79 2.71 1.48 4.19 1.9 1.14 0.32 2.1 0.85 2.11 2.25 0.01 1.69-1.23 1.68-2.32 1.68-5.89 0.02-11.78 0.05-17.67-0.01-1.95-0.02-3.35-0.69-2.63-3.38 0.39-1.4-0.81-1.52-1.69-1.76 5.95-1.93 12-0.64 18.01-0.68z"/>
			<path class="s3" d="m114.39 240.92q15.47 0.01 30.95 0.03c0.25 2.73-0.74 3.85-3.43 3.8q-12.05-0.23-24.11 0c-2.72 0.05-3.64-1.13-3.41-3.83z"/>
			<path class="s9" d="m142.67 141.51q5 17.21 10 34.41-0.43 0.17-0.78 0.46-1.92-0.2-3.84-0.39 0.05-1.02 0.09-2.04c0.49-5.23-1.55-9.78-3.05-14.55-1.81-5.76-2.94-11.78-4.37-17.69q0.98-0.11 1.95-0.2z"/>
			<path class="s8" d="m103.12 330.59c2.15 0.26 1.27 4.44 3.65 3.74 2.37-0.7 1.83-3.53 2.21-5.6 0.08-0.38 0.62-0.68 0.94-1.01 0.76 4.62 0.42 9.26 0.31 13.9-2.09 2.11-4.66 0.67-6.98 1.09-0.7-4.02-0.29-8.07-0.13-12.12z"/>
			<path class="s8" d="m222.92 267.97c-0.71 1.74-2.38 1.23-3.6 1.78q-2.82-0.27-5.63-0.55c0.2-3.34 2.62-2.17 4.2-2.18 2.36-0.02 3.43-0.92 3.26-3.52q-0.15-2.49 0-4.99c0.27-4.48 0.58-8.94-3.73-11.7q2.34-0.13 4.69-0.27c1.19 7.1 0.03 14.31 0.81 21.43z"/>
			<path class="s8" d="m110.04 286.04c-2.26-1.31-0.87-3.6-1.22-5.42-0.23-1.24 0.32-2.88-1.33-3.35-1.96-0.55-2.3 0.98-2.61 2.55-0.19 0.96-1 1.19-1.78 1.31 0.3-2.61-2.04-6.55 3.37-6.39 3.25 0.09 4.42 1.13 3.96 4.53-0.21 1.61-0.22 3.27-0.33 4.9-0.06 0.09-0.18 0.18-0.17 0.26 0.01 0.22 0.09 0.42 0.15 0.62q-0.02 0.51-0.04 0.99z"/>
			<path class="s5" d="m138.8 135.68q0.95 0.41 1.91 0.83c-8.13 0.01-16.25 0.74-24.35-0.38q11.21-0.22 22.44-0.45z"/>
			<path class="s3" d="m115.67 341.6q1.25 0.16 2.5 0.33-0.02 0.91-0.02 1.81c-1.28-0.13-2.73 0.5-3.71-1q0.61-0.56 1.23-1.14z"/>
			<path class="s7" d="m110.67 246.71c-0.14 0.74-0.11 1.75-1.13 1.53-0.33-0.07-0.5-0.98-0.73-1.51q0.93-0.01 1.86-0.02z"/>
			<path class="s7" d="m183.69 269.25c0.65-1.53 1.28-1.49 1.88 0.02q-0.95-0.01-1.88-0.02z"/>
			<path class="s8" d="m103.24 319.54q1.31 0.98-0.01 1.97 0.01-0.99 0.01-1.97z"/>
			<path class="s5" d="m93.19 238.71q0.32 0.88 0.64 1.75c-0.97-0.25-0.83-0.99-0.64-1.75z"/>
			<path class="s5" d="m93.57 234.1c0.22 0.87 0.32 1.71-0.35 2.43-0.26-0.87-0.28-1.71 0.35-2.43z"/>
			<path class="s8" d="m103.19 325.57c0.11 0.25 0.26 0.48 0.33 0.74 0.02 0.05-0.23 0.19-0.35 0.29q0.01-0.51 0.02-1.03z"/>
			<path class="s7" d="m110.08 285.07c-0.06-0.2-0.14-0.4-0.15-0.62-0.01-0.08 0.11-0.17 0.17-0.26q0.4 0.46-0.02 0.88z"/>
			<path class="s8" d="m103.25 312.47c0.11 0.22 0.24 0.44 0.31 0.68 0.02 0.06-0.2 0.19-0.31 0.28q-0.19-0.49 0-0.96z"/>
			<path class="s10" d="m315.69 151.72c2-5.52 2.59-11.62 5.83-17.24 4.07 6.36 4.66 13.65 6.96 20.23 0.7 5.26-0.11 10.11-3.54 14.19-2.49-0.82-4.09 1.64-6.28 1.97-3.09-6-3.27-12.53-2.97-19.15z"/>
			<path class="s10" d="m299.74 166.89c0.41-3.62-1.8-7.08-0.57-11.01 2.85 0.61 3.95 3.67 6.21 4.89 6.06 6.42 10.53 13.81 12.23 22.94 0.42 2.29 1.46 5.05-1.35 6.03-2.72 0.94-5.52 0.53-7.41-2.54-3.19-5.2-5.49-10.86-7.61-16.63-0.45-1.24-1-2.45-1.5-3.68z"/>
			<path class="s10" d="m340.33 157.92c1.2-0.66 2.4-1.32 4.13-2.28 0.04 7.85-1.94 14.65-4.53 21.31-2.39 3.86-4.4 7.97-7.63 11.21-1.96 1.96-4.28 2.65-6.35 1.47-1.89-1.08-0.25-3.31 0-5.02 1.53-10.93 6.9-19.48 14.38-26.69z"/>
			<path class="s4" d="m308.18 232.29c1.67-4.12 0.28-7.24-2.76-9.83q-0.01-0.51-0.03-1.02c-0.37-1.78 1.11-4.36-1.85-5.03q-0.01-0.52-0.02-1.03 0.02-4.05 0.04-8.11c1.42 2.48 1.4 5.39 2.12 8.08 1.26 4.69 2.37 9.45 6.89 11.93 6.13 2.36 12.36 1.46 18.58 0.55 0.16-0.02 0.26-0.57 0.38-0.88 5.32-1.81 5.26-7 6.24-11.55 0.94-4.52 1.53-9.08 1.57-13.71 1.21-6.68 1.21-6.64-5.01-6.65-10.28-0.01-20.57-0.08-30.85-0.12 3.45-1.59 7.06-0.6 10.57-0.68 7.62-0.17 15.24 0.04 22.86-0.13 2.94-0.06 4.24 0.79 4.09 4.23-0.24 5.03-0.04 10.08-0.08 15.11-0.03 3.8-2.92 7.02-1.92 11.04-1.93 0.62-3.5 1.95-3.47 4.11 0.05 2.91 2.52 1.65 3.98 2.04 0.89 0.25 1.27 0.85 1.47 1.71q-16.41-0.03-32.8-0.06z"/>
			<path class="s7" d="m303.47 194.92c10.29 0.04 20.57 0.12 30.85 0.12 6.23 0 6.23-0.04 5.01 6.64-0.45-3.73-2.27-5.59-5.9-5.54-8.11 0.11-16.22 0.02-24.34 0.05-1.47 0.01-3.27-0.54-3.75 1.88-0.96 0.07-1.63 0.61-2.11 1.48-0.64-0.76-0.32-2.17-1.52-2.54-0.28-1.54 0.69-1.86 1.76-2.09z"/>
			<path class="s3" d="m301.72 197.03c1.19 0.36 0.88 1.78 1.52 2.54q0.16 3.85 0.32 7.7-0.02 4.06-0.04 8.11c-2.91-2.78-1.67-6.5-1.84-9.87-0.14-2.82 0.01-5.66 0.04-8.48z"/>
			<path class="s11" d="m318.67 170.87c2.18-0.33 3.79-2.79 6.28-1.97-0.43 2.91-2.47 4.87-3.71 7.99-1.52-2.1-2.54-3.79-2.57-6.02z"/>
			<path class="s3" d="m303.54 216.4c2.96 0.67 1.47 3.25 1.85 5.03-3.04-0.64-1.48-3.25-1.85-5.03z"/>
			<path class="s1" d="m118.15 343.74q0.02-0.92 0.02-1.81c19.65-0.05 39.3-0.16 58.96-0.16 51.63 0 103.27 0.04 154.91 0.05 1.39 0 2.8-0.11 4.19-0.17 0 0.84-0.09 1.64-0.86 2.13q-108.6-0.03-217.22-0.04z"/>
			<path class="s6" d="m292.25 246.43q0.97 0 1.93-0.01 8.86-0.01 17.71-0.02 0.97 0 1.95 0.01 13.56 0.13 27.12 0.25c0.16 2.19 1.67 2.07 3.08 2.12 1.15 0.04 2.01 0.27 2.47 1.74 2.85 9.16-1.9 16.42-10.86 16.42-21.37 0.01-42.74-0.02-64.11 0.05-1.65 0.01-3.96-1.1-4.54 2q-9.82 0.02-19.65 0.02c-2.35-4.25-6.07-1.62-9.13-1.96-4.85-0.55-7.77-3.76-7.73-9.55 0.06-6.65 1.87-8.75 7.57-8.76q4.64 0 9.28 0c-0.59 3.1-2.9 1.81-4.55 1.99-5.65 0.64-8.56 3.46-8.57 8.22-0.01 5.33 4.05 5.69 7.02 5.79 11.67 0.38 23.36 0.14 35.04 0.17 2.5 0.01 4.59-1.02 4.61-3.81 0.02-3.44 1.89-8.36-2.38-9.78-3.52-1.16-6.98-3.1-11.07-2.73-5.73 0.52-11.52 0.14-17.29 0.14q-0.86-0.93-1.73-1.86c1.71-0.07 3.41-0.19 5.12-0.21q19.36-0.1 38.71-0.23zm25.87 18.27c6.52 2.37 12.33-2.77 18.72-1.85 1.24 0.19 1.79-0.65 2.27-1.96 2.26-6.17 0.11-9.96-6.05-10.08-7.39-0.14-14.74-0.02-22.09 1.37-4.47 0.85-9.14 0.54-13.72 0.58-1.98 0.02-4.08 0.88-3.55 2.8 0.78 2.78 1.22 6.21 4.76 7.39 2.91 0.98 6.38-0.05 8.35 0.67 3.91 1.42 7.61 0.76 11.31 1.08zm-28.62-6.93c0.13-2.72-1.07-4.14-3.57-3.97-2.31 0.16-3.79 1.64-3.81 4.15-0.03 2.45 1.21 4.32 3.58 4.32 2.51 0 3.99-1.58 3.8-4.5z"/>
			<path class="s7" d="m308.18 232.29q16.4 0.03 32.8 0.06c4.67 0.06 9.34 0.32 14.01 0.11 3.24-0.14 3.8 1.4 3.87 4.5 0.1 3.42-1.42 3.79-3.96 3.78-19.3-0.05-38.61-0.02-57.92 0.02-1.53 0-3.08 0.25-4.62 0.39q-1.42-0.3-2.85-0.61c0.93-2.59 3.56-4.47 2.81-7.78q7.91-0.24 15.86-0.47z"/>
			<path class="s1" d="m336.4 339.72c-0.07-20.15-0.2-40.32-0.15-60.47 0.01-3.07-0.54-4.82-3.7-4.41 0.39-2.09-0.66-3.59-1.75-5.08q8.83-0.38 17.66-0.76 0.03 2.99 0.06 5.97l-0.06 0.05q-2.83 0.11-5.67 0.22c-1.74 0.57-1.14 2.18-1.14 3.36q-0.05 31.59-0.05 63.2c-2.81-1.35-1.28-4.04-1.53-6.12-0.24-2.09-0.05-4.22-0.05-7.13-2.75 2.12-1.49 4.42-1.86 6.25-0.36 1.74 1 4.18-1.76 4.92z"/>
			<path class="s1" d="m289.5 240.54q1.43 0.31 2.86 0.61-0.06 2.64-0.11 5.28-19.35 0.12-38.7 0.26c-1.71 0.01-3.41 0.15-5.12 0.22q-1.46-0.25-2.94-0.49 0.47-2.75 0.94-5.48 2.32-0.2 4.63-0.4 19.22 0.01 38.44 0z"/>
			<path class="s7" d="m348.45 269q-8.83 0.38-17.66 0.76-2.02-0.96-4.03 0.02c-1.85-0.13-3.71-0.37-5.55-0.38q-27.11-0.22-54.21-0.4c0.57-3.1 2.89-2 4.54-2 21.37-0.07 42.74-0.04 64.11-0.05 8.96 0 13.71-7.27 10.86-16.42-0.46-1.47-1.32-1.7-2.47-1.74-1.42-0.05-2.92 0.07-3.08-2.12q1.84-0.21 3.69-0.41 1.45 0.02 2.9 0.05 0.46 0.13 0.93 0.25c1.14 7.47 0.92 14.96-0.03 22.44z"/>
			<path class="s1" d="m344.65 246.24q-1.83 0.21-3.69 0.42-13.56-0.12-27.12-0.25c0.33-1.81 1.63-1.7 2.88-1.7q12.7 0.01 25.39 0c1.14-0.01 2.2 0.05 2.54 1.53z"/>
			<path class="s1" d="m311.9 246.4q-8.85 0.01-17.71 0.02c0.21-1.14 0.87-1.69 1.94-1.69q6.91 0 13.83 0c1.06 0 1.72 0.52 1.94 1.67z"/>
			<path class="s1" d="m348.48 246.54q-0.46-0.12-0.93-0.25 0.28-0.47 0.57-0.94 0.18 0.6 0.36 1.19z"/>
			<path class="s7" d="m251.06 240.56q-2.31 0.19-4.63 0.39-19.67-0.2-39.35-0.41c-0.31-0.34-0.93-0.7-0.9-1.01 0.41-4.39 0.43-4.38-1.85-6.67q6.98-0.26 13.97-0.53c10.29 0.37 20.58 0.51 30.87-0.04q2.35 0.27 4.7 0.54c-2.68 1.83-4.42 4.07-2.81 7.73z"/>
			<path class="s5" d="m251.06 240.56c-1.62-3.66 0.13-5.89 2.79-7.74q17.8-0.24 35.59-0.5 1.43 0.21 2.86 0.44c0.75 3.3-1.87 5.2-2.81 7.78q-19.21 0-38.43 0.02z"/>
			<path class="s3" d="m249.16 232.28c-10.29 0.55-20.58 0.41-30.87 0.04-0.87-2.54-0.67-3.9 2.45-3.83 8.65 0.19 17.3 0.16 25.96 0.01 2.93-0.05 3.61 1.02 2.46 3.78z"/>
			<path class="s7" d="m158.38 232.75c-1.71 3.82-4.03 1.11-6.15 0.66q0.26-0.56 0.53-1.11 2.83 0.23 5.62 0.45z"/>
			<path class="s1" d="m171.48 174.96c1.34 0.07 1.93 0.84 1.84 2.27-0.06 1.24-0.79 1.69-1.82 1.79q-0.01-2.04-0.02-4.06z"/>
			<path class="s1" d="m171.45 167.87q2.2 2.04 0.01 4.09-0.01-2.05-0.01-4.09z"/>
			<path class="s7" d="m209.88 192.06c-9.79-0.08-19.58-0.1-29.37-0.31-1.89-0.04-5.06 0.56-3.43-3.66 4.03 3.5 5.82 3.03 7.55-1.97q15.42-0.14 30.84-0.27 15.01 0.19 30.02 0.38c0.19 2.22 3.78 2.26 2.86 5.21-1.69 0.14-3.37 0.38-5.05 0.4-11.14 0.1-22.28 0.15-33.42 0.22z"/>
			<path class="s8" d="m184.63 186.12c-1.73 5-3.52 5.47-7.55 1.97q0.04-26.18 0.07-52.37c1.57 0.65 2.78 2.39 4.75 1.82 0.01 14.42 0.01 28.82 0.07 43.23 0.01 2.2-0.64 4.96 2.66 5.35z"/>
			<path class="s7" d="m181.9 137.53c-1.97 0.57-3.18-1.17-4.75-1.81-0.6-2.09-0.78-4.16 0.01-6.25 0.68-0.14 1.6-0.16 1.37-1.23-0.07-0.35-0.89-0.54-1.37-0.8q-0.31-0.97-0.6-1.93 0.27-2.06 0.54-4.12c0.91-2.24 2.03-4.28 4.14-5.47 1.31-0.54 2.61-0.64 3.91 0.05 1.24 1.72 3.01 1.34 4.66 1.36 2.9 0.04 5.82 0.08 8.72 0.02 2.61-0.06 3.2 1.34 2.56 3.78-4.37 0.08-8.76 0.56-13.08 0.12-4.66-0.47-6.04 1.6-5.85 6.19 0.12 3.37-0.16 6.74-0.26 10.09z"/>
			<path class="s1" d="m209.88 192.06c11.14-0.07 22.28-0.12 33.42-0.22 1.68-0.02 3.36-0.26 5.05-0.4q0.46 0.27 0.91 0.52c0.15 2.46-3.73 2.37-2.87 5.28q-15.44-0.01-30.88-0.03c0.12-2-0.54-3.18-2.61-3.06-1.43 0.1-2.86 0.03-3.02-2.09z"/>
			<path class="s8" d="m177.17 127.45c0.48 0.27 1.3 0.45 1.37 0.8 0.22 1.07-0.69 1.08-1.37 1.24q0-1.02 0-2.04z"/>
			<path class="s8" d="m201.09 121.14c0.63-2.42 0.04-3.83-2.56-3.78-2.9 0.06-5.82 0.02-8.72-0.02-1.65-0.02-3.42 0.36-4.66-1.36q11.44-0.4 22.89-0.79 16.86-0.03 33.71-0.07 5.62 0.04 11.23 0.08 1.85 0.02 3.69 0.04 7 0.25 13.99 0.52c-2.18 3.68-6.32-0.13-8.83 2.53 0.88 2.05 3.97-0.03 4.2 2.87-21.65 0.33-43.29 0.56-64.94-0.02z"/>
			<path class="s3" d="m229.56 110.24q6.09-0.59 12.16 0.06 0.01 1.5 0.02 2.99 0 0.92 0.01 1.84-16.85 0.03-33.71 0.06 0.46-0.94 0.93-1.9c1.1-0.72 0.9-1.93 0.94-3.04q7.02 0 14.03-0.01 2.81 2.41 5.62 0z"/>
			<path class="s1" d="m241.74 115.13q0.01-0.92-0.01-1.84 4.06 0.01 8.12 0.02c1.37 0 2.82-0.15 3.12 1.89q-5.6-0.05-11.23-0.07z"/>
			<path class="s5" d="m342.78 275.24q2.84-0.11 5.68-0.22-0.02 24.27-0.03 48.53c-1.6 0.15-1.97 1.34-1.85 2.76 0.27 3.12-1.46 3.51-3.69 3.27q-0.05-27.17-0.11-54.34z"/>
			<path class="s7" d="m342.89 329.58c2.24 0.23 3.96-0.16 3.69-3.27-0.12-1.42 0.25-2.61 1.85-2.76q0.19 3.53 0.38 7.06c-0.08 1.79-0.47 3.64-0.19 5.37 0.83 5.32-1.4 6.72-5.79 5.72q0.04-6.05 0.06-12.12z"/>
			<path class="s8" d="m249.26 191.96q-0.46-0.26-0.91-0.52c0.92-2.95-2.67-2.99-2.86-5.21q9.84-0.33 19.67-0.67c3.64 1.02 4.59-0.73 4.57-4.47-0.09-15.31 0.1-30.62 0.05-45.92-0.01-4.52 0.49-9.07-0.51-13.56q2.63-0.11 5.26-0.23 0.21 16.67 0.43 33.34c-0.07 10.36-0.28 20.74-0.14 31.1 0.06 4.46-0.81 6.5-5.57 6.12-6.64-0.5-13.32-0.03-19.99 0.02z"/>
			<path class="s7" d="m274.52 121.39q-2.63 0.11-5.26 0.22-1.61-0.23-3.23-0.46c-0.23-2.9-3.32-0.81-4.2-2.87 2.51-2.67 6.64 1.14 8.83-2.53 1.66-0.07 3.63-1.39 4.61 1.32q-0.12 0.6-0.23 1.21-0.26 1.56-0.52 3.11z"/>
			<path class="s4" d="m275.04 118.29q0.11-0.61 0.23-1.21-0.11 0.6-0.23 1.21z"/>
			<path class="s11" d="m130.68 228.47c-3.87 0.84-7.91-1.14-12.13-0.94-1.26 0.06-2.68-0.18-2.81-1.92-0.12-1.56 1.11-2.83 2.21-2.81 6.51 0.1 12.94-2.14 19.43-0.91 1.95 0.36 4.22 1.67 3.94 4.23-0.22 2.17-2.65 2.03-4.21 2.27-1.97 0.31-4.03 0.08-6.43 0.08z"/>
			<path class="s8" d="m342.89 329.58q-0.03 6.06-0.05 12.12-0.62 0.05-1.24 0.1 0-31.6 0.05-63.21c0-1.18-0.6-2.78 1.14-3.36q0.04 27.18 0.1 54.35z"/>
			<path class="s8" d="m181.24 115.93c-2.11 1.18-3.23 3.22-4.14 5.46q0-2.53 0-5.06 0.75-0.21 1.51-0.42 1.32 0.01 2.63 0.02z"/>
			<path class="s7" d="m178.61 115.9q-0.76 0.21-1.51 0.42c0.27-1.13 0.86-0.9 1.51-0.42z"/>
			<path class="s1" d="m267 269q27.1 0.18 54.21 0.4c1.85 0.02 3.71 0.25 5.56 0.38-0.64 1.72-2.05 1.17-3.2 1.19-3.4 0.07-6.81 0.18-10.2-0.02-2.81-0.16-3.56 1.29-3.31 3.92q-36 0.02-72 0.04c0.18-2.84-0.87-4.19-3.68-3.96-1.36 0.11-3.14 0.74-3.85-1.45q8.41-0.24 16.84-0.47 9.8-0.02 19.63-0.03z"/>
			<path class="s3" d="m310.05 274.86c-0.24-2.63 0.51-4.08 3.31-3.92 3.39 0.2 6.8 0.08 10.2 0.02 1.15-0.02 2.55 0.53 3.2-1.19q2.01-0.97 4.03-0.02c1.1 1.49 2.14 2.99 1.75 5.08q-2.83 0-5.64 0c-0.1-0.63-0.16-1.4-0.92-1.4-0.75 0-0.82 0.77-0.92 1.4q-7.51 0.01-15.01 0.03z"/>
			<path class="s1" d="m325.06 274.83c0.1-0.63 0.17-1.4 0.92-1.4 0.76 0 0.82 0.77 0.92 1.4q-0.92 0-1.84 0z"/>
			<path class="s9" d="m135.96 264.94q-7.94-0.01-15.88-0.01c-4.57 0-7.94-2.47-10.45-6.3-2.21-3.35-0.47-7.18 2.95-7.9 13.02-2.75 26.17-1.86 39.28-1.97q4.49 3.59 8.97 7.19c-0.63 1.61-0.64 3.21 0.03 4.82-1.92 4.35-5.43 4.37-9.2 4.22-5.24-0.2-10.48-0.05-15.7-0.05z"/>
			<path class="s9" d="m171.53 248.76c10.12 0 20.25 0.31 30.35-0.13 4.49-0.21 8.54 1.14 12.59 2.42 4.35 1.38 3.13 5.88 2.75 9.06-0.47 3.91-4.04 4.66-6.96 4.73-11.35 0.22-22.72 0.1-34.08 0.1-1.08-1.11-2.05-2.29-3.8-2.05-2.38 0.33-3.57-1.15-4.04-3.5q-0.05-0.35 0.19-0.59c0.53-0.23 1.47-0.39 1.52-0.71 0.19-1.21-0.8-1.08-1.52-1.17q-0.24-0.25-0.18-0.6c-0.36-3.22 1.98-5.12 3.18-7.56z"/>
			<path class="s5" d="m168.34 259.38c0.47 2.36 1.66 3.83 4.04 3.5 1.76-0.24 2.73 0.94 3.8 2.05q0 1-0.01 2-20.11 0-40.21 0.01 0-1-0.01-2.01c5.23 0 10.46-0.16 15.69 0.05 3.77 0.14 7.29 0.13 9.21-4.22 2.9 2.1 5.39 1.61 7.49-1.38z"/>
			<path class="s5" d="m171.53 248.76c-1.21 2.44-3.54 4.34-3.19 7.56-2.38-3.16-4.9-3.04-7.52-0.37q-4.48-3.6-8.97-7.19 9.84 0 19.68 0z"/>
			<path class="s7" d="m247.35 269.02q-8.41 0.23-16.84 0.47c-1.03-0.37-2.27-0.24-2.87-1.54 0.23-5.82 0.64-11.65 0.62-17.48-0.01-3.16 1.05-4.01 3.8-3.92 4.47 0.15 8.94-0.07 13.42-0.14q1.47 0.24 2.94 0.49 0.86 0.92 1.73 1.85-1.41 0-2.81 0-4.65-0.01-9.29 0c-5.69 0.01-7.51 2.11-7.57 8.76-0.04 5.78 2.88 9.01 7.73 9.55 3.07 0.34 6.8-2.27 9.14 1.96z"/>
			<path class="s12" d="m140.72 141.7c1.43 5.91 2.56 11.93 4.38 17.69 1.5 4.77 3.54 9.32 3.05 14.55-12.27 0.02-24.53 0.07-36.8 0.05-4.64-0.01-5.26-1.46-3.63-6.06 2.41-6.81 4.81-13.69 6.51-20.74 1.86-7.65 3.57-9.57 11.03-9.61q2.09-0.01 4.2 0c2.45 4.22 6.23 0.99 9.27 1.93l0.12 0.12c-0.04 1.28 0.51 1.94 1.72 1.89z"/>
			<path class="s9" d="m138.72 139.51c-3.03-0.93-6.82 2.29-9.27-1.93 3.06 0.79 6.76-2.01 9.27 1.93z"/>
			<path class="s9" d="m140.56 141.51c-1.22 0.05-1.76-0.61-1.72-1.89 1.16 0.01 1.75 0.62 1.72 1.89z"/>
			<path class="s5" d="m113.85 136.65c-0.02-0.51 0.09-0.79 0.58-0.4q-0.21 0.32-0.58 0.4z"/>
			<path class="s8" d="m303.56 207.26q-0.16-3.85-0.32-7.7c0.48-0.87 1.15-1.41 2.11-1.48 0.53 1.75-1.14 4.38 1.78 5.16 0.63 3.6 0.97 7.3 1.98 10.77 2.07 7.11 5.46 10.63 13.03 10.68 4.52 0.03 7.8-2.51 11.52-4.27 2.32-0.4 1.51-2.39 1.68-3.88l0.1-0.16q1.17-0.49 2.33-0.98c-0.99 4.55-0.92 9.74-6.24 11.55q-9.49 0.16-18.96 0.32c-4.52-2.48-5.63-7.24-6.88-11.93-0.73-2.69-0.71-5.6-2.13-8.08z"/>
			<path class="s9" d="m337.77 215.41q-1.16 0.49-2.33 0.97c-0.02-4.01-0.11-8.01-0.04-12.03 0.04-2.44-0.31-3.72-3.07-4.35-5.63-1.27-11.23-1.93-16.97-1.86-3.76 0.04-6.35 1.77-8.23 5.1-2.92-0.79-1.25-3.42-1.78-5.16 0.48-2.42 2.28-1.87 3.75-1.88 8.12-0.04 16.23 0.06 24.34-0.05 3.64-0.05 5.45 1.81 5.9 5.54-0.04 4.64-0.63 9.2-1.57 13.72z"/>
			<path class="s1" d="m312.56 227.28q9.49-0.16 18.96-0.32c-0.12 0.31-0.22 0.86-0.38 0.88-6.21 0.9-12.44 1.79-18.58-0.56z"/>
			<path class="s9" d="m247.34 248.76q1.41 0 2.81 0c5.77 0 11.56 0.39 17.29-0.13 4.09-0.38 7.56 1.56 11.07 2.72 4.27 1.42 2.4 6.33 2.38 9.78-0.02 2.81-2.11 3.82-4.61 3.81-11.68-0.03-23.37 0.21-35.04-0.18-2.97-0.1-7.03-0.46-7.02-5.78 0.01-4.76 2.92-7.58 8.57-8.22 1.65-0.19 3.96 1.1 4.55-2z"/>
			<path class="s9" d="m318.12 264.7c-3.7-0.31-7.4 0.34-11.31-1.08-1.98-0.72-5.44 0.31-8.35-0.67-3.53-1.18-3.98-4.61-4.76-7.39-0.53-1.91 1.57-2.78 3.55-2.8 4.58-0.04 9.25 0.27 13.72-0.57 7.35-1.4 14.7-1.53 22.09-1.38 6.16 0.12 8.31 3.91 6.05 10.08-0.48 1.31-1.04 2.15-2.27 1.96-6.39-0.93-12.2 4.22-18.72 1.85z"/>
			<path class="s3" d="m289.5 257.76c0.19 2.93-1.29 4.5-3.79 4.5-2.38 0-3.62-1.87-3.58-4.32 0.02-2.51 1.49-3.99 3.81-4.15 2.49-0.16 3.69 1.26 3.56 3.97z"/>
			<path class="s2" d="m265.16 185.56q-9.83 0.33-19.67 0.67-15.01-0.19-30.02-0.38c-0.49-2.5-2.36-1.73-3.78-1.75-6.85-0.07-13.7-0.04-20.55-0.04q0-1.01-0.01-2.02c12.16 0.61 24.25-0.95 36.39-1.11 10.91-0.14 21.74 1.83 32.65 1.05 1.69-0.12 4.22 1.09 4.76-1.69 0.44-2.29 0.57-4.63-1.34-6.98-4.21-5.18-8.73-9.99-13.14-14.96-2.32-2.63-3.66-1.97-5.49 0.34-3.54 4.46-7.2 8.8-10.84 13.17-4.28 5.14-5.94 5.05-10.03 0.21-4.3-5.1-8.88-9.91-13.23-14.96-1.53-1.77-2.76-2.28-4.63-0.5-5.07 4.82-10.64 9.01-15.36 14.29-1.42 1.59-2.02-0.21-2.71-1.2 6-7.92 13.41-14.38 19.84-21.84 1.71-1.98 2.73 0 3.7 1.16 4.99 6 10.02 11.95 14.86 18.08 1.69 2.16 2.59 1.97 4.21-0.07 4.58-5.71 9.45-11.15 14.04-16.84 1.66-2.05 2.84-2.22 4.31 0.05 2.4 3.7 5.64 6.61 8.06 10.35 1.95 3.02 4.81 5.34 8.09 8.87 0-5.97 0-10.32 0-14.68 2.94-0.21 2.64 2.03 2.64 4.06 0 6.55-0.19 13.1 0.1 19.63 0.16 3.1-0.71 5.27-2.85 7.09z"/>
			<path class="s1" d="m191.14 184.05c6.85 0.01 13.71-0.02 20.55 0.04 1.42 0.01 3.29-0.75 3.78 1.75q-15.42 0.14-30.84 0.27c-3.3-0.39-2.65-3.16-2.66-5.36-0.06-14.41-0.06-28.81-0.07-43.23 0.1-3.35 0.38-6.73 0.25-10.08-0.18-4.59 1.2-6.66 5.85-6.19 4.32 0.44 8.71-0.04 13.08-0.12 21.65 0.58 43.3 0.35 64.94 0.01q1.62 0.23 3.24 0.46c0.99 4.48 0.48 9.04 0.5 13.56 0.05 15.31-0.13 30.62-0.05 45.92 0.02 3.74-0.93 5.48-4.57 4.47 2.14-1.82 3.01-3.99 2.87-7.11-0.29-6.53-0.09-13.09-0.09-19.63 0-2.03 0.29-4.27-2.65-4.06-0.06-8.06-0.26-16.12-0.15-24.18 0.04-2.99-0.59-4.07-3.58-4.05-23.96 0.15-47.94 0.15-71.9 0.07-2.5-0.01-3.2 0.82-3.15 3.44 0.12 5.53-0.05 11.08-0.11 16.63-2.83-0.21-2.72 1.87-2.72 3.97 0.02 8.51-0.04 17 0 25.51 0.07 9.1-0.89 7.79 7.48 7.91z"/>
			<path class="s1" d="m229.56 110.24q-2.81 2.41-5.62 0.01 2.81-0.01 5.62-0.01z"/>
			<path class="s1" d="m160.82 255.94c2.63-2.67 5.15-2.79 7.52 0.37q-0.06 0.35 0.18 0.6 0 0.94 0 1.88-0.24 0.24-0.19 0.59c-2.1 2.99-4.59 3.48-7.48 1.38q-0.99-2.4-0.03-4.82z"/>
			<path class="s5" d="m168.53 258.79q0-0.94 0-1.88c0.72 0.1 1.71-0.04 1.51 1.17-0.04 0.32-0.98 0.49-1.51 0.71z"/>
			<path class="s12" d="m307.13 203.24c1.88-3.33 4.47-5.06 8.23-5.1 5.74-0.07 11.33 0.59 16.96 1.86 2.77 0.63 3.12 1.92 3.08 4.35-0.07 4 0.02 8.02 0.04 12.03 0 0-0.1 0.17-0.1 0.16-2.58 0.27-1.67 2.31-1.69 3.88-3.71 1.76-6.98 4.3-11.51 4.27-7.56-0.05-10.95-3.57-13.03-10.68-1.01-3.47-1.35-7.17-1.98-10.77z"/>
			<path class="s9" d="m333.65 220.42c0.02-1.57-0.89-3.61 1.68-3.88-0.17 1.49 0.64 3.47-1.68 3.88z"/>
			<path class="s13" d="m186.41 146.66c0.06-5.54 0.22-11.09 0.11-16.63-0.05-2.62 0.65-3.45 3.15-3.44 23.96 0.08 47.93 0.08 71.89-0.07 2.99-0.02 3.63 1.06 3.59 4.05-0.11 8.06 0.08 16.12 0.15 24.18 0 4.36 0 8.7 0 14.68-3.29-3.53-6.14-5.85-8.09-8.87-2.42-3.74-5.66-6.66-8.06-10.35-1.47-2.27-2.65-2.1-4.31-0.05-4.6 5.69-9.47 11.13-14.04 16.84-1.63 2.04-2.52 2.23-4.21 0.07-4.84-6.13-9.87-12.09-14.86-18.08-0.97-1.16-1.99-3.14-3.7-1.16-6.43 7.47-13.84 13.92-19.84 21.84q-0.78 0.55-1.56 1.09-0.12-12.04-0.22-24.1zm43.47-10.03c-3.95-0.14-7.66 3.78-7.77 8.19-0.1 4.3 3.1 7.77 7.3 7.87 3.88 0.09 8.25-3.93 8.43-7.76 0.17-3.77-4.07-8.18-7.96-8.3z"/>
			<path class="s11" d="m186.62 170.78q0.78-0.55 1.56-1.09c0.69 0.99 1.28 2.78 2.71 1.2 4.72-5.28 10.29-9.47 15.36-14.29 1.87-1.78 3.1-1.27 4.63 0.5 4.35 5.05 8.93 9.86 13.23 14.96 4.09 4.84 5.74 4.93 10.03-0.21 3.64-4.37 7.3-8.71 10.84-13.17 1.83-2.31 3.17-2.97 5.49-0.34 4.4 4.96 8.93 9.78 13.14 14.96 1.91 2.36 1.78 4.69 1.34 6.98-0.54 2.78-3.08 1.57-4.76 1.69-10.91 0.78-21.74-1.19-32.65-1.05-12.14 0.15-24.23 1.71-36.39 1.11-5.41-0.5-6.1-1.33-5.47-6.97 0.15-1.44 0.62-2.86 0.94-4.28z"/>
			<path class="s4" d="m186.62 170.78c-0.33 1.42-0.79 2.84-0.95 4.28-0.63 5.65 0.06 6.47 5.47 6.97q0 1.01 0 2.02c-8.37-0.12-7.41 1.19-7.45-7.91-0.03-8.51 0.02-17 0-25.51-0.01-2.1-0.11-4.19 2.73-3.97q0.09 12.06 0.2 24.12z"/>
			<path class="s8" d="m229.88 136.63c3.89 0.12 8.13 4.55 7.96 8.3-0.18 3.83-4.55 7.86-8.43 7.76-4.2-0.1-7.41-3.57-7.3-7.87 0.11-4.42 3.82-8.33 7.77-8.19z"/>
		</g>
	</g>
</svg>