<svg width="457" height="470" viewBox="0 0 457 470" fill="none" xmlns="http://www.w3.org/2000/svg">
<g clip-path="url(#clip0_6_2131)">
<path d="M456.869 235.544C456.869 312.213 456.83 388.882 457 465.55C457.013 469.271 456.125 470.011 451.66 470C302.887 469.88 154.113 469.88 5.35343 470C0.887886 470 0 469.271 0.0130571 465.55C0.143629 311.854 0.143629 158.146 0 4.44977C0 0.728935 0.874829 0 5.34037 0C154.113 0.130556 302.887 0.130556 451.647 0C456.112 0 457 0.728935 456.987 4.44977C456.83 81.4884 456.869 158.516 456.869 235.544ZM198.273 87.0153L198.364 86.9282C197.071 87.3417 195.335 86.4604 194.408 87.8965C193.154 88.3861 191.888 88.8648 190.634 89.3544C189.759 89.2456 189.25 89.6046 188.95 90.2574C188.206 90.6273 187.448 90.9972 186.704 91.3671C185.999 91.7153 185.294 92.0634 184.589 92.4116C171.989 98.5042 162.418 107.077 155.067 117.467C152.795 119.741 151.123 122.298 150.157 125.159C138.445 145.613 136.682 166.632 144.882 188.239C145.822 194.582 150.431 199.761 152.873 205.625C150.222 207.931 149.073 211.228 145.457 212.98C144.347 213.513 142.845 215.21 145.104 216.559C140.077 222.684 139.542 229.582 139.855 236.708C140.064 241.582 139.829 246.456 139.79 251.341C124.265 251.385 108.74 251.406 93.215 251.504C90.5121 251.526 87.4959 250.982 85.5504 253.354C82.9259 259.501 84.767 265.8 84.6625 272.034C84.6233 274.254 87.1956 275.124 89.3109 275.026C94.6774 274.776 95.0691 277.322 95.056 280.803C95.0168 291.269 95.2519 301.747 95.3694 312.213C94.7949 334.331 94.8863 356.438 95.3955 378.557C94.5598 381.233 96.3878 382.234 99.1168 382.267C105.528 382.332 111.939 382.267 118.35 382.201C121.275 382.169 122.763 381.081 121.901 378.481C122.737 372.301 122.489 366.11 122.084 359.92C122.084 359.278 122.084 358.625 122.071 357.983C122.071 357.2 122.071 356.417 122.071 355.644C122.306 340.445 122.541 325.247 122.776 310.059C127.999 309.972 133.222 309.884 138.458 309.797C158.018 310.233 177.59 310.243 197.15 309.787C214.986 309.787 232.822 309.776 250.658 309.776C252.839 309.776 255.032 309.787 257.213 309.787C278.496 309.852 299.766 309.939 321.049 309.972C330.137 309.993 330.15 309.95 330.163 317.261C330.202 336.986 330.254 356.71 330.294 376.435C328.805 380.907 331.051 382.713 336.391 382.593C341.51 382.473 346.628 382.626 351.746 382.539C353.509 382.506 355.755 383.094 356.473 380.874C357.792 362.357 357.243 343.84 356.721 325.312C356.891 323.158 357.178 321.014 357.191 318.86C357.257 305.663 357.23 292.466 357.335 279.269C357.348 277.55 356.212 274.798 360.299 275.102C367.062 275.614 368.42 272.502 368.029 267.759C367.767 264.516 367.937 261.253 368.003 258C368.081 254.442 366.645 251.994 361.866 251.831C346.563 251.026 331.247 251.254 315.931 251.635C315.069 251.504 314.22 251.385 313.358 251.254C313.006 243.682 312.392 236.11 312.366 228.548C312.34 221.063 308.227 216.2 299.949 213.785C295.3 212.425 294.634 210.902 297.533 207.29C301.881 201.85 306.425 196.279 306.778 189.338C306.934 189.066 306.973 188.783 306.882 188.479C308.579 188.131 308.932 187.315 308.057 186.085C308.201 185.802 308.24 185.498 308.175 185.193C308.945 184.986 309.624 184.693 309.533 183.877C314.951 167.807 314.625 151.88 307.979 136.082C308.096 135.19 307.887 134.396 306.96 133.83C306.49 133.417 306.02 132.993 305.55 132.579C305.616 132.264 305.55 131.959 305.38 131.676C305.733 130.632 305.655 129.707 304.31 129.174C304.506 128.902 304.453 128.652 304.179 128.434C300.824 120.884 296.384 113.921 288.759 108.688L288.785 108.709C288.563 107.915 288.811 106.925 287.518 106.566C284.633 103.117 281.003 100.299 276.798 97.9819C273.417 94.8704 269.134 92.7271 264.786 90.8123C257.082 87.4069 249.561 83.3815 240.238 83.8819C239.442 83.8493 238.645 83.8167 237.849 83.7949C235.969 81.7713 233.54 82.2609 231.098 82.794C227.612 82.794 224.126 82.794 220.653 82.794C213.706 82.1521 207.334 83.8819 201.093 86.1014C200.649 86.1014 200.205 86.0905 199.761 86.0905C198.886 85.96 198.534 86.4387 198.273 87.0153Z" fill="#FEFEFE"/>
<path d="M356.747 325.301C357.256 343.818 357.805 362.346 356.499 380.863C351.759 380.907 346.902 381.549 342.332 380.841C338.115 380.178 332.814 380.667 330.293 376.435C330.254 356.71 330.215 336.986 330.163 317.261C330.15 309.95 330.137 309.993 321.049 309.971C299.766 309.928 278.496 309.852 257.213 309.786C257.474 306.305 263.728 309.46 263.728 305.696C279.057 305.696 294.386 305.739 309.715 305.652C312.013 305.641 315.212 306.762 315.944 303.433C320.67 302.508 325.697 304.466 330.32 302.421C334.955 301.877 335.582 304.02 335.555 307.262C335.438 328.053 335.451 348.855 335.569 369.646C335.582 371.55 334.002 374.15 337.619 375.249C341.797 376 346.719 379.514 348.939 373.095C352.373 372.257 351.093 369.864 351.107 368.101C351.198 354.186 351.159 340.271 351.159 326.356C351.159 325.997 351.172 325.627 351.172 325.268C353.026 325.268 354.893 325.29 356.747 325.301Z" fill="#23162B"/>
<path d="M122.097 359.909C122.502 366.099 122.737 372.29 121.914 378.47C120.661 378.687 119.342 378.774 118.154 379.155C110.45 381.614 102.864 381.94 95.4084 378.546C94.8992 356.427 94.8078 334.32 95.3823 312.202C99.5214 315.444 100.579 311.201 102.916 310.048C102.916 324.898 102.903 339.749 102.903 354.6C99.2864 356.786 99.2734 358.973 102.916 361.149C103.021 364.37 103.021 367.59 103.282 370.799C103.465 372.965 101.976 375.967 105.28 376.936C108.204 377.784 111.691 377.719 114.106 375.26C116.822 374.716 116.235 372.867 116.261 371.333C116.326 367.916 116.313 364.5 116.326 361.084C118.245 360.692 120.178 360.301 122.097 359.909Z" fill="#23162B"/>
<path d="M356.747 325.301C354.893 325.279 353.039 325.268 351.172 325.246C351.172 310.352 351.211 295.458 351.094 280.564C351.08 278.671 352.53 276.027 348.678 275.233C347.751 275.091 346.824 274.939 345.884 274.798C345.061 272.6 344.304 270.544 348.743 270.827C350.702 270.957 353.274 271.49 353.757 268.803C355.833 267.933 359.672 269.956 360.103 266.953C360.534 264.005 361.696 260.687 358.993 257.891C358.458 254.877 355.611 255.693 353.444 255.671C344.421 255.595 335.412 255.628 326.389 255.617C326.402 254.921 326.402 254.224 326.416 253.517C336.13 253.506 345.831 253.528 355.546 253.463C357.805 253.452 360.429 254.094 361.879 251.82C366.671 251.983 368.094 254.431 368.016 257.989C367.95 261.242 367.781 264.505 368.042 267.748C368.433 272.491 367.075 275.603 360.312 275.091C356.225 274.787 357.361 277.528 357.348 279.258C357.23 292.455 357.27 305.652 357.204 318.849C357.204 321.003 356.917 323.158 356.747 325.301Z" fill="#2C1F31"/>
<path d="M263.741 305.685C263.741 309.46 257.487 306.305 257.226 309.776C255.045 309.776 252.851 309.765 250.671 309.765C249.718 306.882 246.832 307.915 244.704 307.904C228.866 307.828 213.014 307.861 197.176 307.861C195.87 307.861 194.577 307.861 193.272 307.861C193.272 306.381 193.272 304.912 193.285 303.433C201.406 303.378 209.528 303.291 217.649 303.291C220.274 303.291 222.572 303.194 221.619 300.147C221.436 291.737 223.29 283.273 220.639 274.928C220.496 272.491 221.031 270.565 224.792 270.892C227.547 271.131 231.359 269.902 231.111 274.156C231.098 274.504 231.098 274.852 231.098 275.2C230.85 283.893 230.615 292.586 230.367 301.279C229.884 302.193 229.858 302.943 231.32 303.172C241.244 303.281 251.167 303.378 261.104 303.487C261.156 304.902 262.031 305.652 263.741 305.685Z" fill="#2C1F31"/>
<path d="M306.804 189.327C306.438 196.279 301.907 201.839 297.559 207.279C294.673 210.902 295.339 212.425 299.975 213.774C308.253 216.189 312.366 221.052 312.392 228.537C312.418 236.11 313.032 243.682 313.384 251.243L313.267 251.33C310.107 250.884 310.747 248.817 310.721 247.087C310.655 243.475 310.708 239.874 310.642 236.262C310.616 234.956 310.251 233.401 308.436 233.433C306.229 233.477 306.999 235.283 306.83 236.414C306.138 240.973 308.214 245.716 305.55 250.155C305.106 241.821 305.942 233.379 302.534 225.295C300.863 220.617 297.899 216.069 291.879 215.841C287.414 215.667 283.575 218.931 281.969 222.978C281.616 223.043 281.277 223.087 280.924 223.119C277.621 221.999 278.182 219.518 277.947 217.31C278.026 217.038 278.078 216.766 278.13 216.494C284.933 211.413 290.169 205.396 293.916 198.455C297.651 194.277 298.773 189.131 301.385 184.529C302.116 187.358 300.693 190.437 302.534 193.32C304.741 192.286 304.362 189.784 306.804 189.327Z" fill="#261320"/>
<path d="M102.903 310.048C100.579 311.212 99.5217 315.444 95.3695 312.202C95.2389 301.736 95.0169 291.259 95.0561 280.792C95.0692 277.311 94.6775 274.765 89.311 275.015C87.1957 275.113 84.6235 274.243 84.6626 272.023C84.7671 265.8 82.926 259.49 85.5505 253.343C91.1259 254.018 96.9233 252.625 102.695 254.246C100.84 256.933 95.8265 253.996 95.3826 257.88C90.5253 259.806 89.8985 265.778 94.1291 269.891C96.0615 271.556 98.6077 271.012 100.788 270.816C105.437 270.402 105.724 272.219 104.549 275.124C102.277 276.68 103.295 278.834 103.256 280.705C103.047 290.486 103.008 300.267 102.903 310.048Z" fill="#2C1F31"/>
<path d="M144.895 188.229C136.708 166.622 138.471 145.591 150.17 125.148C151.724 127.857 150.066 130.099 148.76 132.46C146.148 137.192 144.686 142.088 146.044 147.31C148.708 143.579 148.107 138.737 152.912 136.028C152.089 139.901 149.635 143.622 149.256 147.299C147.415 165.185 148.003 182.919 159.088 199.163C158.736 199.511 158.37 199.848 158.017 200.196C153.121 199.141 151.071 195.735 149.073 192.428C148.029 190.709 147.99 188.457 144.895 188.229Z" fill="#2C1F31"/>
<path d="M139.777 251.33C139.816 246.456 140.064 241.571 139.842 236.697C139.529 229.582 140.064 222.673 145.091 216.548C149.569 215.341 154.061 214.133 158.54 212.925C160.668 213.567 163.136 215.46 164.951 213.567C166.348 212.109 163.906 210.347 163.123 208.758C162.065 206.637 160.25 204.722 160.681 202.22C161.465 202.688 162.248 203.155 163.018 203.623L163.031 203.558C163.436 204.983 164.428 206.082 165.734 207.007C165.969 207.301 166.191 207.594 166.426 207.888C167.092 208.595 167.758 209.313 168.424 210.02L168.398 209.999C169.234 210.88 170.082 211.761 170.918 212.642C171.022 213.045 171.14 213.437 171.244 213.839C171.231 214.884 170.97 216.069 172.968 216.004L173.242 216.037C172.276 217.908 171.845 220.269 168.32 219.845L168.372 219.856C167.889 219.475 167.406 219.094 166.922 218.724C163.945 216.178 160.838 215.993 157.365 218.137C154.113 220.138 150.653 221.923 149.126 225.285C145.744 233.825 147.807 242.561 147.794 251.232C145.117 251.276 142.427 251.309 139.75 251.352L139.777 251.33ZM142.362 240.625C142.623 240.973 142.91 241.832 143.472 241.985C144.647 242.3 144.856 241.31 144.804 240.668C144.751 240.07 144.373 239.123 143.877 238.982C142.688 238.645 142.701 239.646 142.362 240.625Z" fill="#261320"/>
<path d="M122.097 359.909C120.165 360.301 118.245 360.692 116.313 361.084C116.313 342.262 116.326 323.44 116.326 304.619C118.219 304.205 120.1 303.792 121.993 303.378L122.424 303.357L122.829 303.476C123.233 303.825 123.651 304.173 124.056 304.51C126.263 306.392 127.49 305.772 128.038 303.422C131.054 303.4 134.071 303.378 137.087 303.357C137.753 306.958 135.729 307.872 131.629 307.97C128.678 308.035 124.539 305.935 122.789 310.015C122.554 325.214 122.319 340.413 122.084 355.601C121.144 355.829 119.656 355.546 119.656 356.776C119.656 357.994 121.144 357.722 122.084 357.94C122.097 358.614 122.097 359.267 122.097 359.909Z" fill="#38273D"/>
<path d="M155.08 117.467C162.431 107.077 171.989 98.5041 184.602 92.4115C185.307 92.0634 186.012 91.7152 186.717 91.3671C187.461 90.9972 188.219 90.6273 188.963 90.2574C189.524 89.9527 190.086 89.659 190.647 89.3544C191.901 88.8648 193.167 88.3861 194.421 87.8965C194.917 88.3643 195.413 88.843 195.909 89.3108C195.7 91.1168 197.541 92.0416 198.455 93.3581C194.878 95.3164 190.438 96.0997 187.474 98.8958C187.148 98.8849 186.9 99.0046 186.73 99.2439C185.725 99.875 184.719 100.506 183.714 101.137C182.97 101.594 182.212 102.04 181.468 102.497C181.037 102.802 180.619 103.106 180.188 103.411C179.745 103.715 179.301 104.009 178.857 104.314C178.308 104.716 177.76 105.119 177.225 105.511C176.885 105.761 176.532 106.011 176.193 106.261C175.605 106.729 175.018 107.208 174.417 107.676C174.117 107.926 173.817 108.165 173.516 108.415C168.098 112.093 164.729 117.152 160.59 121.699C161.373 117.924 159.963 116.118 155.08 117.467Z" fill="#2C1F31"/>
<path d="M306.804 189.327C304.362 189.784 304.741 192.287 302.521 193.353C300.68 190.459 302.116 187.38 301.372 184.562C301.254 184.29 301.333 184.062 301.607 183.877C304.388 183.637 304.362 181.886 304.14 180.286C303.84 178.089 304.897 176.522 306.791 175.184C310.159 172.497 312.092 162.781 309.65 159.952C309.128 159.343 307.783 159.223 306.817 158.875C306.66 158.092 306.503 157.309 306.347 156.536C305.733 156.917 305.119 157.298 304.519 157.679C302.847 157.265 302.887 156.025 303.069 155.057C304.153 149.595 301.542 144.536 300.797 139.281C301.019 139.27 301.241 139.259 301.45 139.27C305.994 143.35 303.579 149.856 308.632 154.154C310.525 149.747 308.71 145.95 307.692 142.153C307.13 140.064 305.785 138.041 307.992 136.083C314.638 151.869 314.964 167.808 309.546 183.877C309.089 184.312 308.645 184.758 308.188 185.193C308.253 185.498 308.214 185.802 308.07 186.085C306.895 186.618 306.817 187.521 306.895 188.479C307 188.773 306.96 189.055 306.804 189.327Z" fill="#2C1F31"/>
<path d="M95.3823 257.891C95.8263 254.007 100.84 256.944 102.694 254.257C96.9231 252.636 91.1257 254.018 85.5503 253.354C87.4958 250.982 90.512 251.526 93.2148 251.504C108.74 251.407 124.265 251.385 139.79 251.341L139.816 251.374C139.724 252.854 137.374 253.245 137.217 253.844C136.369 257.086 139.75 254.986 141.056 255.661C141.487 256.368 141.918 257.075 142.349 257.771C126.693 257.804 111.038 257.847 95.3823 257.891Z" fill="#261320"/>
<path d="M237.862 83.773C238.658 83.8057 239.455 83.8383 240.251 83.8601C244.808 86.6126 250.358 87.5156 255.45 89.1476C259.837 90.551 258.923 92.1068 257.226 94.3916C256.325 94.1957 255.411 93.9999 254.51 93.8041C254 93.4341 253.491 93.0642 252.982 92.7052C253.805 92.2265 254.836 91.4649 253.57 90.921C252.408 90.4205 252.159 91.6281 251.99 92.4223C249.365 91.6934 246.754 90.9645 244.129 90.2355C243.45 87.9617 242.301 87.298 240.304 89.4522C239.403 89.3652 238.489 89.2781 237.588 89.1802C230.772 86.9825 223.682 88.6906 216.748 88.201C214.503 88.658 211.317 86.8955 210.233 90.1159C209.789 90.2029 209.332 90.2791 208.888 90.3661C207.478 90.3443 206.029 90.1811 205.01 91.3017C204.174 91.5411 203.339 91.7804 202.503 92.0198C202.438 90.3987 202.386 88.7668 202.32 87.1457C205.023 86.7541 207.909 86.7432 210.364 85.8728C213.732 84.6869 218.302 86.2101 220.626 82.7612C224.113 82.7612 227.599 82.7612 231.072 82.7612C233.044 84.589 235.577 83.599 237.862 83.773Z" fill="#2C1F31"/>
<path d="M193.272 307.861C194.578 307.861 195.87 307.861 197.176 307.861C197.176 308.492 197.176 309.134 197.176 309.765C177.616 310.222 158.044 310.2 138.484 309.776C139.398 306.882 142.258 308.111 144.386 307.872C147.35 307.545 150.549 308.459 153.905 306.936C151.058 304.945 148.408 305.924 145.979 305.707C143.903 305.522 141.435 306.087 141.043 303.433C157.156 303.444 173.255 303.444 189.368 303.455C189.054 305.75 187.018 305.707 185.007 305.674C179.366 305.598 173.712 305.424 168.072 305.478C164.52 305.511 160.747 304.956 157.652 307.861C169.521 307.861 181.39 307.861 193.272 307.861Z" fill="#261320"/>
<path d="M288.759 108.688C296.384 113.921 300.824 120.884 304.179 128.434C298.356 126.117 299.387 130.632 298.003 132.742C294.674 126.041 290.078 119.937 285.39 113.855C288.628 113.083 288.55 110.82 288.759 108.688Z" fill="#23162B"/>
<path d="M257.239 94.3918C258.923 92.1179 259.85 90.5513 255.463 89.1478C250.358 87.5158 244.821 86.6128 240.264 83.8603C249.587 83.3598 257.108 87.3853 264.812 90.7906C269.16 92.7163 273.443 94.8487 276.824 97.9603C274.161 98.254 269.33 95.3274 270.257 101.007C268.638 100.267 267.032 99.5161 265.412 98.7763L265.282 98.8633C264.407 97.5142 262.866 96.992 261.234 96.6003C259.889 95.8714 258.571 95.1316 257.239 94.3918Z" fill="#23162B"/>
<path d="M160.694 202.22C160.25 204.722 162.078 206.637 163.136 208.758C163.932 210.358 166.374 212.109 164.964 213.567C163.149 215.46 160.681 213.567 158.553 212.925C157.378 210.097 155.367 207.725 152.873 205.614C150.444 199.75 145.822 194.571 144.882 188.229C147.99 188.457 148.016 190.698 149.06 192.417C151.071 195.735 153.108 199.141 158.005 200.185C158.579 200.512 159.167 200.838 159.741 201.164C160.068 201.523 160.381 201.872 160.694 202.22Z" fill="#23162B"/>
<path d="M155.08 117.467C159.976 116.118 161.373 117.924 160.603 121.7C160.289 122.146 159.963 122.592 159.65 123.038C158.292 123.375 158.096 124.267 158.109 125.268L158.187 125.225C153.317 127.553 152.664 131.372 152.925 135.528L153.108 135.778L152.925 136.028C148.133 138.737 148.721 143.579 146.057 147.31C144.699 142.088 146.162 137.192 148.773 132.46C150.079 130.099 151.737 127.857 150.183 125.148C151.136 122.298 152.795 119.741 155.08 117.467Z" fill="#38273D"/>
<path d="M298.016 132.731C299.4 130.621 298.369 126.106 304.192 128.423C304.466 128.641 304.506 128.891 304.323 129.163C304.257 130.12 304.179 131.089 305.393 131.665C305.563 131.948 305.628 132.253 305.563 132.568C306.033 132.982 306.503 133.406 306.973 133.819C307.9 134.385 308.109 135.179 307.992 136.071C305.772 138.03 307.117 140.053 307.691 142.142C308.71 145.95 310.525 149.736 308.632 154.142C303.565 149.845 305.994 143.339 301.45 139.259C301.607 137.867 301.907 136.409 299.518 136.104C299.008 134.983 298.512 133.863 298.016 132.731Z" fill="#38273D"/>
<path d="M270.257 101.017C269.33 95.3381 274.148 98.2648 276.825 97.971C281.016 100.288 284.646 103.106 287.545 106.555C285.103 108.437 286.918 108.59 288.811 108.698L288.785 108.677C288.576 110.809 288.641 113.072 285.429 113.844L285.677 113.518C285.664 112.506 284.842 112.234 283.836 112.136C279.292 108.437 274.775 104.727 270.257 101.017Z" fill="#2C1F31"/>
<path d="M197.163 309.776C197.163 309.145 197.163 308.503 197.163 307.872C213.001 307.872 228.853 307.839 244.691 307.915C246.819 307.926 249.705 306.882 250.658 309.776C232.835 309.765 214.999 309.765 197.163 309.776Z" fill="#23162B"/>
<path d="M361.879 251.831C360.43 254.115 357.805 253.463 355.546 253.474C345.845 253.539 336.13 253.517 326.416 253.528C322.982 252.668 318.647 255.247 315.944 251.624C331.26 251.243 346.576 251.015 361.879 251.831Z" fill="#261320"/>
<path d="M152.873 205.614C155.367 207.725 157.391 210.096 158.553 212.925C154.074 214.133 149.583 215.34 145.104 216.548C142.845 215.199 144.347 213.502 145.457 212.969C149.073 211.217 150.223 207.931 152.873 205.614Z" fill="#FAFCFD"/>
<path d="M141.043 303.433C141.435 306.087 143.903 305.522 145.979 305.707C148.394 305.924 151.058 304.945 153.905 306.936C150.562 308.459 147.35 307.545 144.386 307.872C142.258 308.111 139.398 306.882 138.484 309.776C133.261 309.863 128.038 309.95 122.802 310.037C124.552 305.946 128.691 308.057 131.642 307.991C135.755 307.904 137.766 306.99 137.1 303.378C138.406 303.4 139.725 303.411 141.043 303.433Z" fill="#23162B"/>
<path d="M330.294 376.435C332.814 380.657 338.115 380.178 342.332 380.842C346.889 381.56 351.759 380.918 356.499 380.863C355.781 383.094 353.522 382.506 351.773 382.528C346.654 382.615 341.523 382.463 336.417 382.582C331.051 382.713 328.818 380.907 330.294 376.435Z" fill="#856861"/>
<path d="M95.4086 378.557C102.877 381.951 110.463 381.625 118.154 379.166C119.342 378.785 120.661 378.698 121.915 378.48C122.776 381.081 121.288 382.169 118.363 382.201C111.952 382.267 105.541 382.332 99.1299 382.267C96.401 382.234 94.573 381.233 95.4086 378.557Z" fill="#38273D"/>
<path d="M220.666 82.7613C218.342 86.2102 213.772 84.687 210.403 85.8729C207.948 86.7433 205.063 86.7541 202.36 87.1458C201.942 86.7868 201.524 86.4278 201.106 86.0796C207.348 83.8493 213.719 82.1194 220.666 82.7613Z" fill="#23162B"/>
<path d="M201.106 86.0796C201.524 86.4387 201.942 86.7977 202.36 87.1458C202.425 88.7669 202.477 90.3988 202.542 92.0199C201.185 92.466 199.827 92.912 198.456 93.3581C197.542 92.0417 195.701 91.1278 195.909 89.3109C197.646 89.1803 198.573 88.4623 198.377 86.9282L198.286 87.0153C198.795 86.6998 199.291 86.3734 199.8 86.0579C200.218 86.0687 200.662 86.0687 201.106 86.0796Z" fill="#38273D"/>
<path d="M315.957 251.635C318.673 255.258 322.995 252.669 326.429 253.539C326.416 254.235 326.416 254.942 326.403 255.639C322.916 255.65 319.417 255.661 315.931 255.682C315.487 255.671 315.043 255.661 314.599 255.65C314.155 254.214 313.711 252.788 313.267 251.352L313.385 251.265C314.233 251.385 315.095 251.504 315.957 251.635Z" fill="#23162B"/>
<path d="M237.862 83.7731C235.577 83.599 233.044 84.5891 231.111 82.7722C233.553 82.2391 235.982 81.7495 237.862 83.7731Z" fill="#23162B"/>
<path d="M198.364 86.9282C198.573 88.4514 197.646 89.1803 195.896 89.3109C195.4 88.843 194.904 88.3643 194.408 87.8965C195.335 86.4713 197.084 87.3416 198.364 86.9282Z" fill="#23162B"/>
<path d="M288.798 108.698C286.905 108.59 285.09 108.437 287.531 106.555C288.811 106.914 288.576 107.904 288.798 108.698Z" fill="#23162B"/>
<path d="M122.097 357.972C121.157 357.755 119.669 358.027 119.669 356.808C119.669 355.59 121.157 355.862 122.097 355.633C122.084 356.406 122.084 357.189 122.097 357.972Z" fill="#23162B"/>
<path d="M306.908 188.468C306.83 187.51 306.908 186.607 308.083 186.074C308.958 187.304 308.606 188.12 306.908 188.468Z" fill="#261320"/>
<path d="M305.393 131.676C304.179 131.1 304.257 130.131 304.323 129.174C305.668 129.707 305.746 130.621 305.393 131.676Z" fill="#23162B"/>
<path d="M190.634 89.3652C190.073 89.6698 189.511 89.9636 188.95 90.2682C189.25 89.6154 189.759 89.2564 190.634 89.3652Z" fill="#23162B"/>
<path d="M199.774 86.0579C199.265 86.3735 198.769 86.6998 198.26 87.0154C198.534 86.4387 198.887 85.96 199.774 86.0579Z" fill="#23162B"/>
<path d="M306.973 133.82C306.503 133.406 306.033 132.982 305.563 132.568C306.033 132.993 306.503 133.406 306.973 133.82Z" fill="#23162B"/>
<path d="M308.188 185.182C308.645 184.747 309.089 184.301 309.546 183.866C309.637 184.693 308.971 184.975 308.188 185.182Z" fill="#261320"/>
<path d="M345.897 274.809C346.824 274.95 347.751 275.102 348.691 275.244C348.769 292.281 348.861 309.308 348.939 326.345C348.939 341.925 348.952 357.505 348.952 373.084C346.745 379.503 341.81 375.989 337.632 375.238C337.788 364.37 337.932 353.501 338.089 342.643C341.705 343.154 340.674 345.548 340.7 347.365C340.791 354.774 340.739 362.172 340.765 369.581C340.765 371.224 340.7 373.084 343.638 372.91C346.106 372.769 345.936 371.072 345.936 369.646C345.962 355.557 345.962 341.468 345.923 327.379C345.923 326.237 346.354 324.518 343.938 324.724C342.411 324.855 340.974 325.606 340.883 327.118C340.739 329.457 340.805 331.807 340.726 334.157C340.661 335.887 341.301 337.965 338.089 338.335C338.049 317.294 338.023 296.263 337.984 275.222C340.609 275.081 343.246 274.939 345.897 274.809Z" fill="#B79A8B"/>
<path d="M230.367 301.279C230.615 292.586 230.85 283.893 231.098 275.2C232.822 275.625 234.545 276.038 236.256 276.462C234.193 277.768 233.553 279.465 233.671 281.63C233.867 285.22 233.723 288.832 233.723 292.434C233.736 298.918 236.373 301.203 244.299 301.311C251.65 301.409 259.002 301.333 266.353 301.333C283.314 301.333 300.275 301.322 317.236 301.322C324.836 300.844 325.097 296.274 325.084 291.552C325.084 290.823 325.084 290.105 325.097 289.376C330.202 286.787 327.134 282.729 327.421 279.389C327.643 276.832 324.444 277.605 322.472 277.409C321.167 277.398 319.861 277.387 318.568 277.376C317.719 276.702 316.858 276.027 316.009 275.364C319.9 275.2 323.791 275.026 327.682 274.863C331.86 275.733 329.406 278.758 330.411 280.673C330.411 282.849 330.411 285.025 330.424 287.201C330.437 288.648 330.45 290.095 330.45 291.542C330.424 295.164 330.385 298.787 330.359 302.399C325.737 304.445 320.723 302.486 315.983 303.411C297.703 303.433 279.41 303.455 261.13 303.476C251.206 303.368 241.283 303.27 231.346 303.161C231.007 302.541 230.681 301.91 230.367 301.279Z" fill="#B79A8B"/>
<path d="M330.333 302.41C330.359 298.787 330.398 295.164 330.424 291.552C335.033 291.215 335.321 288.691 335.686 285.481C336.065 282.065 332.996 277.942 337.971 275.222C338.01 296.263 338.036 317.293 338.076 338.335C338.076 339.771 338.076 341.218 338.076 342.654C337.919 353.523 337.775 364.391 337.619 375.249C334.002 374.15 335.582 371.55 335.569 369.646C335.451 348.855 335.438 328.053 335.556 307.262C335.582 304.009 334.955 301.866 330.333 302.41Z" fill="#2B141C"/>
<path d="M348.939 326.345C348.861 309.308 348.769 292.281 348.691 275.244C352.543 276.049 351.093 278.682 351.106 280.575C351.224 295.469 351.185 310.363 351.185 325.257C351.185 325.616 351.172 325.986 351.172 326.345C350.414 326.345 349.683 326.345 348.939 326.345Z" fill="#2B141C"/>
<path d="M348.939 326.345C349.683 326.345 350.427 326.345 351.159 326.345C351.159 340.261 351.211 354.176 351.106 368.091C351.093 369.864 352.373 372.258 348.939 373.084C348.939 357.505 348.939 341.925 348.939 326.345Z" fill="#261320"/>
<path d="M261.104 303.487C279.384 303.465 297.677 303.444 315.957 303.422C315.226 306.751 312.027 305.63 309.729 305.641C294.399 305.728 279.07 305.685 263.741 305.685C262.031 305.652 261.156 304.902 261.104 303.487Z" fill="#261320"/>
<path d="M327.656 274.874C323.765 275.037 319.874 275.211 315.983 275.374C290.717 275.276 265.465 275.178 240.199 275.08C237.379 273.274 234.128 274.515 231.098 274.156C231.347 269.902 227.534 271.131 224.779 270.892C221.005 270.565 220.483 272.491 220.627 274.928C217.584 275.08 214.542 275.233 211.5 275.385C211.069 275.385 210.638 275.396 210.22 275.396C209.789 275.396 209.358 275.396 208.927 275.396C208.497 275.385 208.053 275.374 207.622 275.363C194.134 275.342 180.646 275.32 167.145 275.298C153.043 275.298 138.928 275.309 124.826 275.309C123.756 275.309 122.62 275.222 122.267 276.397C122.019 280.368 121.784 284.328 121.536 288.299C117.358 286.014 115.817 286.798 116.183 291.074C116.574 295.567 116.3 300.093 116.313 304.608C116.313 323.43 116.3 342.251 116.3 361.073C116.287 364.489 116.3 367.905 116.235 371.322C116.209 372.867 116.796 374.705 114.08 375.249C114.041 371.082 113.963 366.926 113.963 362.759C113.911 335.43 113.741 308.089 113.976 280.76C114.015 276.179 112.487 274.482 107.121 275.233C106.285 275.352 105.397 275.157 104.522 275.102C105.698 272.197 105.41 270.38 100.762 270.794C98.5815 270.99 96.0353 271.534 94.1029 269.869L94.0115 269.554C95.0952 269.717 96.1528 269.847 96.649 268.727C128.313 268.672 159.989 268.574 191.653 268.585C238.28 268.596 284.92 268.694 331.547 268.749C330.868 271.697 328.022 270.576 325.906 270.859C323.269 271.207 320.187 269.945 317.798 272.045C320.788 274.536 325.619 271.055 327.656 274.874Z" fill="#2B141C"/>
<path d="M104.549 275.124C105.41 275.179 106.311 275.374 107.147 275.255C112.5 274.504 114.041 276.19 114.002 280.782C113.767 308.111 113.937 335.452 113.989 362.781C114.002 366.948 114.067 371.104 114.106 375.271C111.691 377.719 108.191 377.795 105.28 376.947C101.976 375.978 103.452 372.976 103.282 370.811C103.021 367.601 103.021 364.381 102.916 361.16C102.916 358.974 102.916 356.787 102.903 354.611C102.903 339.76 102.916 324.909 102.916 310.059C103.021 300.278 103.06 290.497 103.269 280.716C103.295 278.834 102.277 276.68 104.549 275.124ZM105.854 344.308C109.784 341.479 111.182 339.499 111.09 336.703C110.92 331.492 111.025 326.28 111.051 321.069C111.051 319.611 110.986 318.175 109.589 317.087C108.831 316.499 108.048 315.564 106.899 316.184C106.337 316.489 105.92 317.348 105.906 317.957C105.841 326.302 105.854 334.658 105.854 344.308Z" fill="#B79A8B"/>
<path d="M102.89 354.611C102.89 356.797 102.903 358.984 102.903 361.16C99.2603 358.984 99.2734 356.797 102.89 354.611Z" fill="#2C1F31"/>
<path d="M331.599 268.781C284.972 268.727 238.332 268.629 191.705 268.618C160.041 268.607 128.365 268.716 96.7011 268.759C94.9384 267.062 94.4292 268.183 94.0636 269.586L94.155 269.902C89.9244 265.789 90.5512 259.816 95.4084 257.891C111.064 257.847 126.719 257.815 142.375 257.771C143.707 257.804 145.026 257.825 146.357 257.858C147.637 257.847 148.904 257.847 150.183 257.836C159.506 257.88 168.816 257.967 178.138 257.967C223.643 257.934 269.16 257.88 314.664 257.836C329.458 257.858 344.238 257.891 359.032 257.912C361.735 260.719 360.573 264.027 360.142 266.975C359.711 269.978 355.859 267.954 353.796 268.825C346.367 268.803 338.989 268.792 331.599 268.781ZM225.849 266.54C236.935 266.54 248.02 266.562 259.106 266.518C261.796 266.507 264.982 267.215 265.073 263.374C265.151 259.642 262.213 260.012 259.354 260.012C238.045 260.012 216.748 260.012 195.439 260.012C193.716 260.012 191.901 259.849 190.438 260.861C188.858 261.96 186.208 262.569 186.978 264.93C187.696 267.127 190.099 266.496 191.914 266.507C203.234 266.562 214.542 266.54 225.849 266.54ZM333.532 266.529C333.532 266.518 333.532 266.507 333.532 266.496C339.381 266.496 345.231 266.54 351.08 266.475C353.679 266.442 354.945 265.18 355.037 263.015C355.115 260.991 354.084 260.023 351.603 260.034C340.556 260.067 329.51 260.045 318.451 260.088C317.641 260.088 316.623 260.306 316.048 260.741C314.573 261.84 311.556 262.145 312.431 264.603C313.123 266.54 315.291 266.529 317.275 266.529C322.707 266.54 328.113 266.529 333.532 266.529ZM115.778 266.507C115.778 266.518 115.778 266.518 115.778 266.529C120.113 266.529 124.461 266.54 128.796 266.529C131.224 266.518 134.149 266.616 134.227 263.918C134.293 261.416 131.916 260.088 128.978 260.067C119.864 259.99 110.751 260.077 101.637 260.023C98.6074 260.001 97.145 261.448 97.0014 263.624C96.8317 266.029 99.1036 266.496 101.454 266.496C106.233 266.529 111.012 266.507 115.778 266.507Z" fill="#B79A8B"/>
<path d="M331.599 268.781C338.989 268.792 346.38 268.803 353.77 268.814C353.287 271.501 350.715 270.957 348.756 270.837C344.33 270.555 345.074 272.6 345.897 274.809C343.259 274.939 340.609 275.081 337.971 275.211C332.996 277.931 336.065 282.044 335.686 285.471C335.333 288.68 335.046 291.204 330.424 291.541C330.411 290.094 330.398 288.647 330.398 287.2C334.276 285.025 334.276 282.849 330.385 280.673C329.392 278.769 331.834 275.733 327.656 274.863C325.606 271.055 320.788 274.526 317.837 272.067C320.226 269.978 323.308 271.24 325.945 270.881C328.074 270.609 330.92 271.73 331.599 268.781Z" fill="#261320"/>
<path d="M359.006 257.902C344.212 257.88 329.432 257.847 314.638 257.825C315.069 257.107 315.5 256.389 315.931 255.671C319.417 255.66 322.916 255.649 326.402 255.628C335.425 255.639 344.434 255.606 353.457 255.682C355.624 255.704 358.471 254.888 359.006 257.902Z" fill="#261320"/>
<path d="M121.549 288.321C121.797 284.35 122.032 280.39 122.28 276.419C124.905 277.159 124.03 279.03 124.069 280.509C124.16 285.144 124.212 289.79 124.082 294.424C123.951 299.005 126.132 301.551 131.955 301.3L132.582 301.311L133.209 301.3C154.087 301.3 174.966 301.3 195.844 301.311C199.252 301.322 202.725 301.638 206.068 301.257C210.69 300.735 216.5 303.618 219.673 298.091C220.026 297.471 220.418 299.766 221.593 300.147C222.546 303.193 220.248 303.291 217.623 303.291C209.502 303.302 201.38 303.378 193.259 303.433C191.953 303.444 190.647 303.444 189.355 303.455C173.242 303.444 157.143 303.444 141.03 303.433C139.711 303.411 138.393 303.4 137.087 303.378C134.071 303.4 131.054 303.422 128.038 303.444C126.706 303.465 125.388 303.476 124.056 303.498C123.651 303.455 123.233 303.455 122.815 303.487L122.411 303.368L121.98 303.389C121.849 298.363 121.706 293.347 121.549 288.321Z" fill="#B79A8B"/>
<path d="M221.606 300.147C220.418 299.767 220.039 297.471 219.686 298.091C216.514 303.618 210.69 300.735 206.081 301.257C202.738 301.638 199.265 301.322 195.857 301.311C195.857 300.593 195.87 299.886 195.87 299.168C201.041 299.168 206.225 299.125 211.395 299.157C215.182 299.179 218.185 297.863 217.898 294.599C217.336 288.071 221.789 280.227 211.656 275.886C211.539 275.831 211.552 275.548 211.513 275.374C214.555 275.222 217.597 275.07 220.64 274.917C223.277 283.262 221.423 291.737 221.606 300.147Z" fill="#B9937C"/>
<path d="M189.368 303.455C190.673 303.444 191.979 303.444 193.272 303.433C193.272 304.912 193.272 306.381 193.259 307.861C181.39 307.861 169.521 307.861 157.639 307.861C160.733 304.967 164.507 305.511 168.059 305.478C173.699 305.424 179.353 305.598 184.994 305.674C187.017 305.707 189.054 305.75 189.368 303.455Z" fill="#23162B"/>
<path d="M231.111 274.156C234.141 274.515 237.405 273.275 240.212 275.081C239.52 276.789 237.575 276.005 236.256 276.462C234.532 276.038 232.809 275.625 231.098 275.2C231.085 274.852 231.098 274.504 231.111 274.156Z" fill="#38273D"/>
<path d="M230.367 301.279C230.681 301.91 231.007 302.541 231.32 303.172C229.845 302.943 229.884 302.193 230.367 301.279Z" fill="#856861"/>
<path d="M270.257 101.017C274.775 104.727 279.292 108.437 283.81 112.147C284.15 112.865 284.567 113.518 285.651 113.529L285.403 113.855C290.078 119.926 294.674 126.04 298.003 132.742C298.499 133.863 299.009 134.994 299.505 136.115C299.244 137.366 300.092 138.302 300.784 139.281C301.529 144.536 304.14 149.595 303.056 155.056C302.861 156.025 302.821 157.265 304.506 157.678C305.433 166.556 303.03 175.184 301.607 183.887C301.346 184.072 301.268 184.301 301.372 184.573C298.774 189.175 297.638 194.321 293.903 198.488C293.25 195.648 294.569 192.569 292.624 189.24C290.286 192.646 286.892 194.647 285.638 197.977C285.194 199.152 284.058 198.814 283.249 197.977C291.514 184.529 295.575 170.386 293.773 155.209C291.919 139.444 285.599 125.409 271.549 114.258C270.022 112.354 268.102 110.787 265.595 109.775C262.788 107.926 259.981 106.087 257.174 104.238C260.307 102.845 266.222 104.336 265.373 98.7761C267.019 99.5268 268.638 100.267 270.257 101.017Z" fill="#B79A8B"/>
<path d="M278.117 216.526C278.065 216.798 278.013 217.07 277.934 217.342C270.205 223.283 261.652 228.2 251.99 231.725C238.659 235.261 225.105 236.186 211.291 234.271C203.874 232.563 196.836 230.104 190.047 227.101C187.031 225.078 184.014 223.054 180.985 221.02C184.014 219.649 191.77 223.979 189.433 216.156C190.23 216.418 191.013 216.679 191.809 216.951C193.807 218.691 196.379 219.627 199.017 220.454C207.295 224.621 216.435 226.231 225.941 226.242C234.728 226.253 243.555 225.959 250.841 220.922C251.219 220.911 251.611 220.878 251.99 220.824C252.943 220.965 253.178 220.367 253.465 219.823C253.844 219.823 254.21 219.79 254.575 219.725C256.873 218.691 259.184 217.647 261.482 216.613C262.187 216.211 262.906 215.797 263.611 215.395C264.107 215.058 264.616 214.731 265.112 214.394L265.086 214.427C268.233 213.067 270.087 210.042 273.965 209.607C272.568 213.056 271.367 216.439 278.117 216.526ZM215.182 230.311C217.858 232.324 219.543 233.542 222.089 233.934C230.08 235.163 237.235 231.29 245.07 231.475C246.663 231.518 247.577 229.93 247.446 228.646C247.289 227.199 245.592 227.46 244.351 227.395C234.728 226.808 225.379 228.048 215.182 230.311Z" fill="#B79A8B"/>
<path d="M278.117 216.526C271.367 216.439 272.568 213.067 273.978 209.596C275.793 205.016 280.298 201.915 283.262 197.977C284.071 198.814 285.207 199.152 285.651 197.977C286.905 194.647 290.286 192.646 292.637 189.24C294.569 192.569 293.263 195.648 293.916 198.488C290.169 205.418 284.92 211.446 278.117 216.526Z" fill="#B9937C"/>
<path d="M302.534 225.328C305.942 233.412 305.106 241.854 305.55 250.188C305.067 250.656 304.584 251.124 304.088 251.592C290.639 251.461 277.203 251.33 263.754 251.2C263.924 249.035 265.844 249.165 267.645 249.133C272.855 249.133 278.222 249.775 283.249 248.97C289.242 248.001 296.097 247.99 300.053 242.768C303.004 238.884 300.876 234.685 301.516 230.659C301.855 228.875 300.837 226.917 302.534 225.328Z" fill="#B79A8B"/>
<path d="M252.003 231.725C261.665 228.211 270.218 223.293 277.947 217.342C278.182 219.551 277.621 222.042 280.924 223.152C273.73 229.255 265.399 233.923 255.802 237.002C253.779 235.62 251.324 234.456 252.003 231.725Z" fill="#2C1F31"/>
<path d="M304.088 251.591C304.571 251.124 305.054 250.656 305.55 250.188C308.227 245.749 306.138 241.006 306.83 236.447C307 235.305 306.229 233.509 308.436 233.466C310.251 233.422 310.617 234.989 310.643 236.295C310.708 239.907 310.656 243.508 310.721 247.12C310.747 248.839 310.107 250.917 313.267 251.363C313.711 252.799 314.155 254.224 314.599 255.66C312.066 255.66 309.52 255.497 307.013 255.704C302.299 256.063 301.555 254.681 304.088 251.591Z" fill="#38273D"/>
<path d="M302.534 225.328C300.824 226.927 301.842 228.875 301.529 230.659C300.928 230.463 299.949 230.409 299.779 230.061C298.225 226.971 299.988 222.619 294.491 221.031C289.072 219.464 287.349 224.425 283.301 225.219C283.288 224.305 283.04 223.489 281.969 223.022C283.575 218.964 287.427 215.711 291.879 215.885C297.899 216.102 300.876 220.65 302.534 225.328Z" fill="#AF8A74"/>
<path d="M281.969 223.011C283.04 223.479 283.288 224.295 283.301 225.208C278.744 226.829 276.198 230.344 272.738 232.998C269.029 235.838 264.995 238.003 259.824 238.286C258.962 238.286 258.087 238.286 257.226 238.286C256.821 237.981 256.429 237.687 256.024 237.383L255.802 237.013C265.399 233.934 273.73 229.267 280.924 223.163C281.264 223.12 281.616 223.076 281.969 223.011Z" fill="#B79A8B"/>
<path d="M159.637 123.038C159.95 122.592 160.277 122.146 160.59 121.7C164.729 117.152 168.085 112.093 173.516 108.415C174.378 110.733 172.263 111.995 170.983 113.583C170.004 114.802 169.234 116.216 170.774 117.5C172.811 119.197 173.817 117.282 174.914 116.445C177.76 114.258 180.45 111.94 183.192 109.667C185.007 108.154 186.652 106.327 189.76 107.262C184.955 110.755 181.599 115.476 176.193 118.468C169.834 125.464 164.115 132.721 162.261 141.598C156.621 155.296 156.999 168.993 162.327 182.68C162.562 183.104 162.797 183.518 163.019 183.942C163.241 189.665 168.046 193.919 170.004 199.086C164.024 196.725 162.392 198.967 163.045 203.645C162.261 203.177 161.478 202.709 160.707 202.241C160.394 201.893 160.081 201.545 159.767 201.197C159.545 200.522 159.323 199.859 159.101 199.184C148.016 182.93 147.415 165.196 149.269 147.321C149.648 143.644 152.116 139.923 152.925 136.05L153.108 135.8L152.925 135.549C154.675 132.111 156.438 128.684 158.187 125.257L158.109 125.301C158.618 124.528 159.128 123.778 159.637 123.038ZM150.34 162.759C150.34 165.294 150.157 167.829 150.405 170.342C150.588 172.29 152.364 173.16 154.584 172.856C156.999 172.529 156.843 170.908 156.386 169.461C154.727 164.293 155.315 159.082 155.902 153.881C155.994 153.011 156.725 152.065 155.315 151.597C153.865 151.107 152.834 151.847 152.024 152.761C149.322 155.829 150.458 159.387 150.34 162.759Z" fill="#B79A8B"/>
<path d="M159.088 199.163C159.31 199.837 159.532 200.501 159.754 201.175C159.18 200.849 158.592 200.523 158.018 200.196C158.37 199.848 158.723 199.511 159.088 199.163Z" fill="#261320"/>
<path d="M163.045 203.623C162.392 198.945 164.024 196.704 170.004 199.065C170.383 199.38 170.761 199.707 171.14 200.022C171.049 201.687 170.931 203.362 173.791 203.438C178.426 208.182 183.662 212.403 189.459 216.146C191.783 223.968 184.04 219.649 181.011 221.009C178.439 219.355 175.867 217.691 173.294 216.037C173.294 216.037 173.02 216.004 173.007 216.015C173.112 214.927 172.198 214.383 171.284 213.839C171.179 213.437 171.062 213.045 170.957 212.642C171.114 211.097 170.513 210.064 168.437 209.999L168.463 210.02C168.411 208.911 167.967 208.051 166.466 207.888C166.23 207.594 166.009 207.301 165.773 207.007C165.865 205.31 166.139 203.525 163.071 203.558L163.045 203.623Z" fill="#B9937C"/>
<path d="M147.859 251.243C147.859 242.583 145.796 233.847 149.191 225.295C149.543 225.992 149.909 226.699 150.261 227.395C150.248 230.278 150.105 233.172 150.235 236.044C150.614 244.433 155.236 249.677 166.074 249.198C175.357 248.795 184.68 249.067 193.977 249.154C196.118 249.176 199.004 248.208 199.8 251.145C183.296 251.298 166.779 251.461 150.275 251.613C149.465 251.504 148.655 251.374 147.859 251.243Z" fill="#B79A8B"/>
<path d="M173.281 216.048C175.854 217.701 178.426 219.366 180.998 221.02C184.014 223.043 187.03 225.067 190.047 227.101C186.312 228.265 189.537 231.17 187.958 232.878C182.709 231.04 178.517 227.896 174.065 225.067C172.158 223.337 170.252 221.596 168.346 219.866C171.884 220.28 172.315 217.919 173.281 216.048Z" fill="#2B141C"/>
<path d="M168.359 219.866C170.265 221.607 172.171 223.337 174.078 225.078C173.059 225.132 172.041 225.187 171.022 225.241C168.79 225.197 167.771 223.609 166.531 222.521C164.233 220.519 161.36 220.182 159.062 221.477C156.503 222.902 151.437 222.978 152.821 227.406C151.972 227.406 151.123 227.406 150.262 227.417C149.909 226.721 149.543 226.013 149.191 225.317C150.719 221.955 154.179 220.171 157.43 218.169C160.903 216.026 164.011 216.211 166.988 218.757C167.471 219.138 167.954 219.518 168.424 219.888L168.359 219.866Z" fill="#AF8A74"/>
<path d="M147.859 251.243C148.669 251.374 149.465 251.504 150.275 251.624C150.235 253.691 150.196 255.758 150.157 257.825C148.877 257.836 147.611 257.836 146.331 257.847C145.9 254.899 143.145 255.834 141.056 255.649C139.751 254.964 136.369 257.075 137.217 253.833C137.374 253.234 139.724 252.842 139.816 251.363C142.493 251.33 145.169 251.287 147.859 251.243Z" fill="#38273D"/>
<path d="M142.362 240.625C142.702 239.646 142.688 238.645 143.864 238.982C144.36 239.123 144.738 240.07 144.791 240.668C144.843 241.31 144.647 242.3 143.459 241.985C142.91 241.833 142.623 240.973 142.362 240.625Z" fill="#38273D"/>
<path d="M163.044 203.569C166.113 203.536 165.852 205.32 165.747 207.018C164.442 206.093 163.449 204.983 163.044 203.569Z" fill="#B79A8B"/>
<path d="M168.424 210.01C170.5 210.075 171.101 211.108 170.944 212.653C170.108 211.772 169.26 210.891 168.424 210.01Z" fill="#B79A8B"/>
<path d="M171.27 213.85C172.171 214.394 173.085 214.938 172.994 216.026C171.009 216.08 171.257 214.895 171.27 213.85Z" fill="#2B141C"/>
<path d="M166.452 207.888C167.954 208.051 168.398 208.911 168.45 210.02C167.784 209.313 167.118 208.606 166.452 207.888Z" fill="#B79A8B"/>
<path d="M121.549 288.321C121.706 293.347 121.849 298.374 122.006 303.4C120.113 303.814 118.233 304.227 116.339 304.641C116.326 300.125 116.6 295.589 116.209 291.106C115.83 286.82 117.371 286.036 121.549 288.321Z" fill="#2C1F31"/>
<path d="M124.069 303.498C125.401 303.476 126.719 303.466 128.051 303.444C127.503 305.794 126.276 306.414 124.069 304.532C124.147 304.195 124.147 303.846 124.069 303.498Z" fill="#23162B"/>
<path d="M124.069 303.498C124.147 303.846 124.147 304.184 124.056 304.532C123.651 304.184 123.233 303.835 122.829 303.498C123.246 303.455 123.651 303.455 124.069 303.498Z" fill="#856861"/>
<path d="M198.456 93.358C199.814 92.912 201.171 92.4659 202.542 92.0198C203.378 91.7805 204.214 91.5411 205.049 91.3018C206.473 91.3888 207.818 91.2256 208.927 90.3661C209.371 90.2791 209.828 90.203 210.272 90.1159C212.427 89.7786 214.581 89.4523 216.736 89.115C223.682 90.9536 230.654 90.0506 237.614 89.1803C238.515 89.2673 239.429 89.3543 240.33 89.4523C241.609 89.7134 242.876 89.9745 244.156 90.2356C246.78 90.9645 249.391 91.6935 252.016 92.4224C252.29 92.6509 252.63 92.7379 253.008 92.7053C253.518 93.0752 254.027 93.4451 254.536 93.8041C250.854 96.2738 248.203 92.8032 244.991 92.6944C242.758 92.6182 239.507 91.4976 238.528 93.5212C237.418 95.8277 240.199 96.709 242.706 97.1442C243.947 97.3617 244.077 98.3953 244.221 99.2983C225.889 95.8712 208.588 98.0798 192.293 105.837C191.627 102.932 196.406 102.421 196.314 99.6356C193.416 98.4715 190.36 99.4071 187.488 98.8849C190.438 96.0997 194.865 95.3164 198.456 93.358Z" fill="#B79A8B"/>
<path d="M187.461 98.8959C190.321 99.4182 193.389 98.4825 196.288 99.6466C196.379 102.432 191.601 102.932 192.266 105.848L192.123 105.728C190.909 105.63 189.838 105.728 189.538 106.958L189.759 107.262C186.652 106.327 185.02 108.155 183.192 109.667C180.45 111.941 177.747 114.258 174.914 116.445C173.817 117.283 172.811 119.197 170.774 117.5C169.234 116.205 169.991 114.802 170.983 113.583C172.263 111.995 174.391 110.722 173.516 108.416C173.817 108.165 174.117 107.926 174.417 107.676C175.384 107.534 175.984 107.067 176.193 106.261C176.533 106.011 176.885 105.761 177.225 105.511C177.773 105.108 178.321 104.706 178.857 104.314C179.301 104.009 179.745 103.716 180.189 103.411C180.619 103.106 181.037 102.802 181.468 102.497C182.212 102.04 182.97 101.594 183.714 101.137C185.411 101.268 186.574 100.811 186.73 99.2441C186.887 99.0047 187.135 98.8851 187.461 98.8959Z" fill="#B9937C"/>
<path d="M186.73 99.2439C186.573 100.821 185.411 101.278 183.714 101.137C184.719 100.506 185.725 99.8749 186.73 99.2439Z" fill="#B79A8B"/>
<path d="M176.193 106.261C175.984 107.066 175.383 107.523 174.417 107.676C175.005 107.208 175.605 106.74 176.193 106.261Z" fill="#B79A8B"/>
<path d="M178.857 104.314C178.308 104.717 177.773 105.119 177.225 105.511C177.76 105.119 178.308 104.717 178.857 104.314Z" fill="#B79A8B"/>
<path d="M181.468 102.497C181.037 102.802 180.619 103.106 180.188 103.411C180.606 103.106 181.037 102.802 181.468 102.497Z" fill="#B79A8B"/>
<path d="M301.607 183.888C303.03 175.184 305.433 166.567 304.506 157.678C305.119 157.298 305.733 156.917 306.334 156.536C306.49 157.319 306.647 158.103 306.804 158.875C306.804 164.315 306.791 169.755 306.791 175.184C304.897 176.522 303.84 178.089 304.14 180.286C304.362 181.886 304.388 183.648 301.607 183.888Z" fill="#261320"/>
<path d="M306.791 175.195C306.791 169.755 306.804 164.315 306.804 158.886C307.77 159.234 309.115 159.354 309.637 159.963C312.092 162.792 310.159 172.507 306.791 175.195Z" fill="#38273D"/>
<path d="M300.784 139.281C300.092 138.302 299.244 137.366 299.505 136.115C301.894 136.42 301.594 137.877 301.437 139.27C301.228 139.259 301.006 139.27 300.784 139.281Z" fill="#23162B"/>
<path d="M141.056 255.649C143.146 255.845 145.901 254.899 146.331 257.847C145 257.814 143.681 257.793 142.349 257.76C141.918 257.064 141.487 256.357 141.056 255.649Z" fill="#2B141C"/>
<path d="M244.195 99.3092C244.064 98.4062 243.933 97.3726 242.68 97.155C240.173 96.7198 237.392 95.8495 238.502 93.5321C239.481 91.4976 242.732 92.6291 244.965 92.7053C248.177 92.8032 250.841 96.2847 254.51 93.815C255.411 94.0108 256.325 94.2066 257.226 94.4025C258.557 95.1423 259.876 95.8821 261.208 96.6219C261.169 99.1025 263.062 99.1895 265.256 98.8849L265.386 98.7978C266.235 104.346 260.333 102.856 257.186 104.259C252.864 102.595 248.53 100.952 244.195 99.3092Z" fill="#B9937C"/>
<path d="M237.601 89.1804C230.641 90.0399 223.669 90.9429 216.722 89.1151C216.735 88.8105 216.749 88.5059 216.762 88.2121C223.708 88.6908 230.785 86.9827 237.601 89.1804Z" fill="#38273D"/>
<path d="M216.775 88.2121C216.762 88.5167 216.749 88.8213 216.736 89.1151C214.581 89.4524 212.427 89.7787 210.272 90.116C211.343 86.9065 214.516 88.6581 216.775 88.2121Z" fill="#23162B"/>
<path d="M244.142 90.2358C242.863 89.9746 241.596 89.7135 240.317 89.4524C242.314 87.2983 243.463 87.9619 244.142 90.2358Z" fill="#23162B"/>
<path d="M253.008 92.7052C252.617 92.7379 252.29 92.6508 252.016 92.4224C252.186 91.6282 252.434 90.4205 253.596 90.921C254.862 91.4541 253.818 92.2265 253.008 92.7052Z" fill="#23162B"/>
<path d="M208.914 90.3663C207.818 91.2257 206.473 91.3889 205.036 91.3019C206.055 90.1704 207.504 90.3445 208.914 90.3663Z" fill="#38273D"/>
<path d="M265.269 98.874C263.062 99.1787 261.182 99.0916 261.221 96.6111C262.867 97.0028 264.394 97.525 265.269 98.874Z" fill="#B79A8B"/>
<path d="M158.174 125.225C156.424 128.652 154.662 132.09 152.912 135.517C152.651 131.382 153.304 127.553 158.174 125.225Z" fill="#2C1F31"/>
<path d="M159.637 123.038C159.127 123.778 158.605 124.517 158.096 125.268C158.096 124.278 158.292 123.375 159.637 123.038Z" fill="#2C1F31"/>
<path d="M285.651 113.529C284.554 113.518 284.15 112.865 283.81 112.147C284.815 112.245 285.638 112.506 285.651 113.529Z" fill="#23162B"/>
<path d="M150.157 257.836C150.196 255.769 150.236 253.702 150.275 251.635C166.779 251.483 183.296 251.32 199.8 251.167C201.093 251.178 202.373 251.178 203.665 251.189C223.695 251.189 243.725 251.189 263.754 251.2C277.203 251.33 290.639 251.461 304.088 251.592C301.555 254.692 302.299 256.063 307 255.682C309.507 255.476 312.066 255.65 314.586 255.639C315.03 255.65 315.474 255.661 315.918 255.671C315.487 256.389 315.056 257.108 314.625 257.826C269.121 257.869 223.604 257.934 178.1 257.956C168.79 257.967 159.48 257.88 150.157 257.836Z" fill="#2B141C"/>
<path d="M338.076 342.643C338.076 341.207 338.076 339.76 338.076 338.324C341.288 337.965 340.661 335.887 340.713 334.146C340.792 331.796 340.726 329.446 340.87 327.107C340.961 325.595 342.398 324.844 343.925 324.713C346.341 324.507 345.91 326.237 345.91 327.368C345.949 341.457 345.936 355.546 345.923 369.635C345.923 371.061 346.093 372.747 343.625 372.899C340.687 373.073 340.765 371.213 340.752 369.57C340.726 362.161 340.779 354.763 340.687 347.354C340.661 345.548 341.706 343.154 338.076 342.643Z" fill="#B9937C"/>
<path d="M325.084 289.387C325.084 290.116 325.084 290.834 325.071 291.563C323.269 291.672 322.498 292.521 322.472 293.989C322.394 296.872 320.266 298.341 317.236 299.168C310.172 299.168 303.082 298.809 296.058 299.266C289.634 299.69 287.518 297.623 288.524 292.629C288.393 289.92 288.576 287.179 288.067 284.524C287.466 281.369 289.895 279.541 292.493 279.802C301.489 280.705 309.676 276.538 318.555 277.387C319.861 277.398 321.167 277.409 322.459 277.42C326.024 280.999 324.875 285.296 325.084 289.387Z" fill="#BD8F63"/>
<path d="M318.555 277.387C309.676 276.538 301.503 280.705 292.493 279.802C289.895 279.541 287.466 281.369 288.067 284.524C288.576 287.179 288.393 289.92 288.524 292.629C288.028 292.172 287.531 291.726 287.035 291.269C286.983 289.866 287.14 288.495 286.422 287.092C285.351 285.003 284.097 283.131 281.12 283.099C277.934 283.066 276.028 284.763 275.206 287.2C274.814 288.365 274.879 289.648 274.735 290.867C274.122 291.454 273.508 292.042 272.881 292.629C273.678 289.877 269.082 288.408 270.701 285.166C272.685 281.217 270.074 279.639 265.295 279.53C260.699 279.422 256.26 279.889 251.546 277.92C247.825 276.364 242.132 278.769 239.612 280.934C233.24 286.406 236.387 294.653 245.683 296.198C252.473 297.329 259.106 299.984 266.34 299.168C266.34 299.886 266.34 300.615 266.34 301.333C258.989 301.333 251.637 301.398 244.286 301.311C236.36 301.213 233.723 298.918 233.71 292.434C233.71 288.832 233.854 285.22 233.658 281.63C233.54 279.476 234.18 277.768 236.243 276.462C237.562 276.005 239.507 276.789 240.199 275.081C265.452 275.178 290.717 275.276 315.97 275.374C316.845 276.038 317.693 276.713 318.555 277.387Z" fill="#B9937C"/>
<path d="M266.34 301.333C266.34 300.615 266.34 299.886 266.34 299.168C271.38 298.972 272.503 296.067 272.881 292.629C273.495 292.042 274.109 291.454 274.735 290.878C279.501 295.904 281.838 295.98 287.048 291.269C287.544 291.726 288.041 292.172 288.537 292.629C287.531 297.623 289.647 299.69 296.071 299.266C303.082 298.809 310.185 299.157 317.249 299.168C317.249 299.886 317.249 300.604 317.249 301.333C300.275 301.333 283.314 301.333 266.34 301.333Z" fill="#AF8A74"/>
<path d="M325.084 289.387C324.875 285.297 326.011 280.999 322.459 277.42C324.431 277.605 327.63 276.832 327.408 279.4C327.121 282.74 330.202 286.798 325.084 289.387Z" fill="#B9937C"/>
<path d="M317.236 301.322C317.236 300.604 317.236 299.886 317.236 299.157C320.266 298.33 322.394 296.861 322.472 293.978C322.511 292.51 323.269 291.661 325.071 291.552C325.097 296.274 324.836 300.843 317.236 301.322Z" fill="#B9937C"/>
<path d="M330.385 280.673C334.276 282.849 334.263 285.014 330.398 287.2C330.385 285.024 330.385 282.849 330.385 280.673Z" fill="#2B141C"/>
<path d="M195.87 299.168C195.87 299.886 195.857 300.593 195.857 301.311C174.979 301.311 154.1 301.3 133.222 301.3C132.804 300.952 132.373 300.604 131.956 300.256C131.956 299.897 131.956 299.527 131.956 299.168C133.692 299.168 135.429 299.157 137.165 299.157C139.738 299.157 142.31 299.244 144.882 299.146C150.627 298.929 157.939 301.126 161.739 298.298C165.969 295.143 162.601 288.832 163.267 283.947C167.536 283.023 168.555 280.738 167.184 277.441C167.184 276.734 167.184 276.027 167.184 275.32C180.672 275.342 194.16 275.363 207.661 275.385C207.23 275.711 206.799 276.038 206.368 276.375C205.937 276.723 205.493 277.082 205.063 277.43C204.188 277.441 203.313 277.452 202.438 277.463C195.23 277.67 188.493 280.183 181.037 279.987C177.329 279.889 177.264 283.338 179.692 285.688C182.434 288.343 182.252 290.704 179.51 293.282C178.53 294.207 176.167 294.968 177.564 296.753C178.765 298.276 180.424 299.309 182.931 299.211C186.378 299.07 189.825 299.179 193.285 299.179C194.121 299.157 194.995 299.168 195.87 299.168ZM171.258 283.849C167.314 283.936 164.977 285.547 164.873 288.8C164.768 291.987 166.936 294.076 170.722 294.24C174.6 294.403 176.885 292.259 177.068 289.213C177.251 286.091 175.122 284.143 171.258 283.849Z" fill="#AF8A74"/>
<path d="M195.87 299.168C194.995 299.168 194.134 299.157 193.259 299.157C195.165 294.925 199.409 294.795 203.887 294.762C206.603 294.751 209.724 295.676 211.904 293.587C215.848 289.823 211.983 280.455 206.146 279.628C204.344 279.367 202.621 279.411 202.399 277.442C203.274 277.431 204.148 277.42 205.023 277.409C205.454 277.061 205.898 276.702 206.329 276.354C206.76 276.027 207.191 275.69 207.622 275.364C208.053 275.374 208.496 275.385 208.927 275.396C209.358 275.929 209.789 275.929 210.22 275.396C210.651 275.396 211.082 275.385 211.5 275.385C211.539 275.559 211.526 275.842 211.643 275.897C221.789 280.238 217.323 288.082 217.885 294.61C218.172 297.873 215.169 299.19 211.382 299.168C206.211 299.136 201.041 299.168 195.87 299.168Z" fill="#C0936B"/>
<path d="M131.943 299.168C131.943 299.527 131.943 299.897 131.943 300.256C131.943 300.604 131.943 300.952 131.956 301.3C126.132 301.551 123.952 299.005 124.082 294.424C124.213 289.79 124.16 285.144 124.069 280.509C124.043 279.03 124.905 277.158 122.28 276.419C122.633 275.244 123.769 275.331 124.839 275.331C138.941 275.32 153.056 275.32 167.158 275.32C167.158 276.027 167.158 276.734 167.158 277.441C159.402 277.441 151.633 277.43 143.877 277.43C126.38 277.43 126.459 277.43 126.654 292.194C126.694 295.61 127.699 298.145 131.943 299.168Z" fill="#B9937C"/>
<path d="M94.0505 269.586C94.4292 268.183 94.9254 267.073 96.6881 268.76C96.1919 269.88 95.1212 269.75 94.0505 269.586Z" fill="#AF8A74"/>
<path d="M210.22 275.396C209.789 275.929 209.358 275.94 208.927 275.396C209.358 275.396 209.789 275.396 210.22 275.396Z" fill="#B9937C"/>
<path d="M105.854 344.308C105.854 334.657 105.828 326.313 105.893 317.957C105.893 317.348 106.311 316.488 106.886 316.184C108.035 315.564 108.818 316.499 109.576 317.087C110.973 318.175 111.051 319.611 111.038 321.069C111.025 326.28 110.907 331.491 111.077 336.703C111.182 339.488 109.784 341.479 105.854 344.308Z" fill="#B9937C"/>
<path d="M225.849 266.54C214.542 266.54 203.234 266.562 191.94 266.507C190.125 266.497 187.722 267.128 187.004 264.93C186.234 262.569 188.871 261.96 190.464 260.861C191.927 259.849 193.729 260.012 195.465 260.012C216.775 260.001 238.071 260.012 259.38 260.012C262.227 260.012 265.177 259.642 265.099 263.374C265.021 267.215 261.822 266.507 259.132 266.518C248.02 266.562 236.935 266.54 225.849 266.54Z" fill="#B9937C"/>
<path d="M333.532 266.529C328.113 266.529 322.694 266.529 317.289 266.529C315.304 266.529 313.136 266.54 312.444 264.603C311.57 262.134 314.586 261.84 316.061 260.741C316.636 260.306 317.654 260.099 318.464 260.088C329.51 260.045 340.556 260.067 351.616 260.034C354.097 260.023 355.141 260.991 355.05 263.015C354.958 265.18 353.692 266.442 351.094 266.475C345.244 266.54 339.394 266.497 333.545 266.497C333.532 266.507 333.532 266.518 333.532 266.529Z" fill="#B9937C"/>
<path d="M115.778 266.507C110.999 266.507 106.233 266.518 101.454 266.507C99.1038 266.496 96.8319 266.04 97.0016 263.635C97.1453 261.459 98.6077 260.012 101.637 260.034C110.751 260.088 119.865 260.001 128.979 260.077C131.916 260.099 134.293 261.416 134.228 263.929C134.162 266.627 131.224 266.529 128.796 266.54C124.461 266.551 120.113 266.54 115.778 266.54C115.778 266.529 115.778 266.518 115.778 266.507Z" fill="#AF8A74"/>
<path d="M131.955 301.301C131.942 300.952 131.942 300.604 131.942 300.256C132.36 300.604 132.791 300.952 133.209 301.301L132.582 301.311L131.955 301.301Z" fill="#C0936B"/>
<path d="M283.262 197.977C280.298 201.915 275.793 205.016 273.978 209.596C270.1 210.031 268.246 213.056 265.099 214.416C265.87 211.598 266.758 208.715 261.104 210.88C260.386 211.152 259.432 211.01 258.584 211.065C263.193 207.279 268.507 204.026 271.693 199.152C273.56 197.759 274.892 196.073 275.623 194.06C276.642 193.385 277.151 192.548 276.942 191.449L277.164 191.166L276.955 190.872C277.739 190.546 278.378 190.154 278.235 189.306L278.47 189.023L278.274 188.718C280.376 187.978 280.232 185.955 281.564 184.769C284.698 188.054 286.526 185.53 287.479 183.452C288.72 180.721 290.979 177.207 284.789 176.163C285.416 171.811 286.056 167.47 286.683 163.118C290.156 163.521 290.783 162.052 291.266 159.408C292.415 153.109 288.354 147.593 287.793 141.544C287.649 140.043 287.087 136.115 282.988 135.277C281.186 138.095 288.263 141.305 282.23 143.611C281.643 142.469 282.7 140.88 280.872 140.075C280.454 135.56 277.556 131.97 274.618 128.401C273.012 125.399 270.844 122.744 267.789 120.622C267.306 119.959 266.823 119.284 266.34 118.621C268.925 117.848 270.662 116.379 271.589 114.236C285.638 125.388 291.945 139.422 293.812 155.187C295.588 170.386 291.527 184.529 283.262 197.977Z" fill="#2C1F31"/>
<path d="M244.195 99.3093C248.53 100.952 252.865 102.595 257.213 104.249C260.02 106.098 262.827 107.937 265.621 109.786C262.449 109.83 259.341 109.939 259.641 113.681C257.539 112.757 255.45 111.832 253.348 110.907C250.88 108.862 247.694 108.046 244.482 107.262C241.688 106.49 238.893 105.717 236.086 104.934C236.896 103.324 238.319 101.725 235.355 100.452C231.555 98.8197 209.88 100.963 206.303 103.422C205.154 103.574 203.691 103.106 203.104 104.379C203.012 104.586 203.691 105.293 204.083 105.348C205.794 105.576 206.107 104.51 206.316 103.433C208.94 103.226 210.494 103.988 210.207 106.425C204.605 108.568 198.73 110.287 194.303 114.106L194.342 114.062C192.802 114.508 191.6 115.313 190.765 116.488C188.976 117.174 187.67 118.283 186.717 119.709C180.724 123.843 177.303 129.544 173.412 134.951C171.244 134.668 171.897 133.602 171.858 132.253C171.727 127.259 177.133 123.571 176.193 118.479C181.599 115.487 184.954 110.766 189.759 107.273C189.759 107.273 189.551 106.969 189.537 106.969C190.726 107.034 191.614 106.675 192.123 105.739L192.266 105.859C208.562 98.0908 225.862 95.8822 244.195 99.3093Z" fill="#2C1F31"/>
<path d="M259.641 113.67C259.341 109.928 262.461 109.819 265.621 109.775C268.128 110.787 270.035 112.343 271.575 114.258C270.648 116.412 268.899 117.87 266.326 118.642C264.094 116.989 261.861 115.335 259.641 113.67Z" fill="#38273D"/>
<path d="M171.14 200.022C170.761 199.707 170.383 199.38 170.004 199.065C168.046 193.897 163.241 189.654 163.019 183.92C164.076 183.996 165.343 184.116 165.526 185.084C166.309 189.229 169.129 188.49 172.263 187.173C172.511 187.456 172.838 187.652 173.242 187.75C175.41 192.428 178.622 196.562 182.617 200.283C183.936 201.513 185.242 202.731 186.561 203.96C188.258 206.017 190.399 207.681 192.972 208.976C195.753 212.055 200.336 213.034 203.692 215.428C202.438 216.896 199.5 217.31 199.801 219.747C199.5 219.953 199.252 220.182 199.03 220.432C196.393 219.605 193.82 218.681 191.823 216.929C187.605 210.662 180.515 206.659 174.561 201.752C174.535 201.73 173.96 202.187 173.647 202.416C172.811 201.632 171.976 200.827 171.14 200.022Z" fill="#2C1F31"/>
<path d="M252.003 231.725C251.324 234.456 253.779 235.62 255.802 237.013L256.024 237.383C255.502 237.579 254.98 237.764 254.444 237.959C253.739 238.297 253.034 238.634 252.329 238.96C250.214 239.33 248.099 239.689 245.996 240.059C232.691 242.387 219.438 243.029 206.303 239.276C208.379 237.894 212.936 238.22 211.304 234.271C225.118 236.186 238.671 235.261 252.003 231.725Z" fill="#2B141C"/>
<path d="M250.867 220.911C243.581 225.948 234.754 226.242 225.967 226.231C216.461 226.22 207.321 224.61 199.043 220.443C199.265 220.193 199.526 219.953 199.813 219.758C204.253 221.357 209.201 220.867 213.863 222.543C216.409 223.457 222.964 226.068 224.609 219.943C230.707 219.834 236.726 219.312 242.615 217.919C243.463 222.543 247.942 220.247 250.867 220.911Z" fill="#2C1F31"/>
<path d="M215.182 230.311C225.366 228.048 234.715 226.818 244.338 227.395C245.592 227.471 247.289 227.199 247.433 228.646C247.563 229.93 246.649 231.518 245.056 231.475C237.222 231.279 230.067 235.163 222.076 233.934C219.556 233.542 217.858 232.324 215.182 230.311Z" fill="#B9937C"/>
<path d="M211.291 234.271C212.923 238.22 208.379 237.894 206.29 239.276C199.578 238.351 193.52 236.11 187.958 232.878C189.524 231.17 186.299 228.265 190.047 227.101C196.836 230.093 203.887 232.563 211.291 234.271Z" fill="#2C1F31"/>
<path d="M250.867 220.911C247.942 220.247 243.463 222.543 242.615 217.919C248.334 216.276 253.426 213.622 258.597 211.076C259.445 211.021 260.399 211.163 261.117 210.891C266.77 208.726 265.883 211.598 265.112 214.427L265.138 214.394C264.577 214.666 262.84 213.719 263.637 215.395C262.932 215.797 262.214 216.211 261.508 216.613C258.727 216.907 254.536 215.036 254.601 219.725C254.236 219.79 253.857 219.823 253.491 219.823C252.995 220.16 252.512 220.487 252.016 220.824C251.624 220.867 251.246 220.9 250.867 220.911Z" fill="#38273D"/>
<path d="M173.66 202.437C173.973 202.209 174.548 201.752 174.574 201.774C180.528 206.68 187.618 210.673 191.835 216.951C191.039 216.69 190.256 216.429 189.459 216.157C183.662 212.414 178.426 208.193 173.79 203.449C173.686 203.112 173.647 202.775 173.66 202.437Z" fill="#261320"/>
<path d="M254.601 219.714C254.536 215.025 258.714 216.896 261.509 216.602C259.211 217.636 256.899 218.68 254.601 219.714Z" fill="#2C1F31"/>
<path d="M263.637 215.384C262.84 213.698 264.577 214.644 265.138 214.383C264.642 214.72 264.133 215.047 263.637 215.384Z" fill="#2C1F31"/>
<path d="M252.003 220.813C252.499 220.476 252.982 220.149 253.478 219.812C253.204 220.356 252.956 220.944 252.003 220.813Z" fill="#2C1F31"/>
<path d="M259.824 238.275C264.995 237.992 269.029 235.827 272.738 232.987C276.198 230.333 278.757 226.818 283.301 225.197C287.348 224.403 289.072 219.442 294.491 221.009C299.988 222.597 298.225 226.949 299.779 230.039C299.949 230.376 300.928 230.441 301.528 230.637C300.889 234.652 303.017 238.862 300.066 242.746C296.11 247.968 289.255 247.979 283.262 248.948C278.235 249.764 272.868 249.111 267.658 249.111C267.358 246.804 265.282 246.881 263.336 246.968C257.735 247.218 255.502 244.879 255.907 240.418C256.338 240.418 256.769 240.418 257.2 240.418C258.884 240.396 259.772 239.689 259.824 238.275Z" fill="#C0936B"/>
<path d="M255.907 240.44C255.489 244.9 257.735 247.229 263.337 246.989C265.282 246.902 267.358 246.826 267.658 249.133C265.857 249.165 263.937 249.035 263.767 251.2C243.738 251.2 223.708 251.2 203.678 251.189C202.151 246.935 209.58 246.5 208.927 242.627C212.596 242.616 216.187 242.822 219.856 243.464C224.413 244.259 229.427 246.25 233.775 244.248C236.922 242.801 239.847 242.431 242.994 242.681C247.159 243.018 250.057 241.658 252.342 238.96C253.048 238.623 253.753 238.286 254.458 237.959C254.588 238.917 254.719 239.896 255.907 240.44Z" fill="#AF8A74"/>
<path d="M255.907 240.44C254.719 239.896 254.588 238.917 254.445 237.948C254.967 237.753 255.489 237.568 256.025 237.372C256.429 237.676 256.821 237.97 257.226 238.275C257.226 238.993 257.213 239.711 257.213 240.429C256.769 240.44 256.338 240.44 255.907 240.44Z" fill="#B9937C"/>
<path d="M257.2 240.429C257.2 239.711 257.213 238.993 257.213 238.275C258.075 238.275 258.949 238.275 259.811 238.275C259.772 239.689 258.884 240.396 257.2 240.429Z" fill="#AF8A74"/>
<path d="M162.326 182.669C156.999 168.982 156.62 155.285 162.261 141.587C164.207 143.807 163.11 146.342 163.201 148.724C163.293 150.987 163.815 152.543 167.001 152.358C167.314 156.025 165.499 159.648 166.727 163.336C166.818 166.197 166.909 169.058 166.988 171.92C163.802 171.735 163.253 173.258 163.188 175.532C163.11 177.904 164.128 180.428 162.326 182.669Z" fill="#2C1F31"/>
<path d="M167.001 152.358C163.802 152.533 163.28 150.988 163.201 148.725C163.11 146.342 164.207 143.807 162.261 141.588C164.115 132.71 169.834 125.453 176.193 118.458C177.133 123.549 171.728 127.237 171.858 132.231C171.897 133.58 171.245 134.646 173.412 134.929C170.761 140.619 168.646 146.429 167.001 152.358Z" fill="#38273D"/>
<path d="M150.34 162.759C150.458 159.387 149.322 155.829 152.024 152.772C152.834 151.858 153.865 151.118 155.315 151.608C156.725 152.076 155.994 153.022 155.902 153.892C155.328 159.093 154.727 164.304 156.386 169.472C156.856 170.919 156.999 172.54 154.584 172.867C152.364 173.171 150.588 172.301 150.405 170.353C150.157 167.829 150.34 165.283 150.34 162.759Z" fill="#B9937C"/>
<path d="M162.326 182.669C164.141 180.428 163.123 177.915 163.188 175.532C163.253 173.269 163.802 171.735 166.988 171.92C167.523 173.367 168.058 174.803 168.594 176.25C169.821 179.895 171.036 183.539 172.263 187.184C169.129 188.5 166.309 189.229 165.525 185.095C165.343 184.127 164.063 184.018 163.018 183.931C162.783 183.507 162.548 183.082 162.326 182.669Z" fill="#38273D"/>
<path d="M173.66 202.437C173.647 202.775 173.699 203.112 173.791 203.449C170.931 203.373 171.062 201.687 171.14 200.033C171.976 200.827 172.811 201.632 173.66 202.437Z" fill="#B79A8B"/>
<path d="M208.914 242.627C209.567 246.5 202.138 246.946 203.665 251.189C202.373 251.178 201.093 251.178 199.801 251.167C199.004 248.219 196.118 249.198 193.977 249.176C184.68 249.089 175.344 248.806 166.074 249.22C155.25 249.698 150.614 244.454 150.236 236.066C150.105 233.183 150.249 230.3 150.262 227.417C151.11 227.417 151.972 227.417 152.821 227.406C152.821 237.241 158.148 242.344 169.821 243.671C171.323 243.845 172.851 243.856 174.326 244.074C179.941 244.89 182.8 242.083 181.024 237.513C180.215 235.435 177.669 234.119 177.59 231.758C178.883 231.78 180.189 231.725 181.233 232.574C188.937 238.84 199.278 240.07 208.914 242.627Z" fill="#C0936B"/>
<path d="M208.914 242.627C199.278 240.07 188.937 238.841 181.233 232.574C180.189 231.725 178.883 231.78 177.59 231.758C176.768 228.625 171.989 228.266 171.022 225.241C172.041 225.187 173.059 225.132 174.078 225.078C178.53 227.907 182.722 231.04 187.971 232.889C193.533 236.121 199.591 238.362 206.303 239.287C219.438 243.04 232.691 242.398 245.997 240.07C248.112 239.7 250.214 239.33 252.329 238.971C250.044 241.658 247.146 243.029 242.98 242.692C239.834 242.442 236.909 242.812 233.762 244.259C229.414 246.261 224.4 244.27 219.843 243.475C216.174 242.823 212.583 242.616 208.914 242.627Z" fill="#B9937C"/>
<path d="M171.022 225.23C172.002 228.255 176.781 228.614 177.59 231.747C177.668 234.097 180.215 235.424 181.024 237.502C182.8 242.061 179.94 244.879 174.326 244.063C172.837 243.845 171.31 243.834 169.821 243.66C158.148 242.344 152.808 237.241 152.821 227.395C151.437 222.967 156.503 222.891 159.062 221.466C161.373 220.182 164.233 220.508 166.531 222.51C167.771 223.598 168.79 225.187 171.022 225.23Z" fill="#BD8F63"/>
<path d="M192.123 105.728C191.614 106.664 190.726 107.023 189.538 106.958C189.838 105.728 190.922 105.63 192.123 105.728Z" fill="#B79A8B"/>
<path d="M272.881 292.629C272.516 296.067 271.38 298.972 266.34 299.168C259.106 299.984 252.473 297.329 245.683 296.198C236.386 294.653 233.24 286.417 239.612 280.934C242.132 278.769 247.825 276.364 251.546 277.92C256.259 279.889 260.699 279.422 265.295 279.53C270.074 279.639 272.685 281.217 270.701 285.166C269.082 288.408 273.678 289.877 272.881 292.629Z" fill="#BD8F63"/>
<path d="M287.048 291.269C281.838 295.98 279.501 295.904 274.735 290.878C274.879 289.648 274.814 288.375 275.205 287.2C276.028 284.763 277.934 283.066 281.12 283.099C284.097 283.131 285.364 285.003 286.421 287.092C287.14 288.495 286.996 289.866 287.048 291.269Z" fill="#2B141C"/>
<path d="M202.399 277.441C202.621 279.411 204.344 279.367 206.146 279.628C211.983 280.466 215.848 289.822 211.904 293.587C209.724 295.676 206.59 294.751 203.887 294.762C199.409 294.784 195.165 294.914 193.259 299.157C189.812 299.157 186.352 299.048 182.905 299.19C180.398 299.288 178.739 298.265 177.538 296.731C176.141 294.947 178.491 294.185 179.484 293.26C182.239 290.682 182.408 288.321 179.666 285.666C177.225 283.316 177.303 279.857 181.011 279.965C188.454 280.161 195.191 277.659 202.399 277.441Z" fill="#BD8F63"/>
<path d="M163.254 283.937C162.601 288.833 165.956 295.132 161.726 298.287C157.926 301.126 150.627 298.929 144.869 299.136C142.297 299.233 139.725 299.146 137.152 299.146C138.576 295.817 134.162 294.403 133.614 291.161C132.008 281.456 131.198 281.521 142.232 281.761C149.322 281.924 156.594 280.825 163.254 283.937Z" fill="#BD8F63"/>
<path d="M163.254 283.937C156.607 280.825 149.322 281.924 142.245 281.771C131.211 281.532 132.034 281.456 133.627 291.171C134.162 294.424 138.576 295.828 137.165 299.157C135.429 299.157 133.692 299.168 131.956 299.168C127.712 298.145 126.707 295.61 126.667 292.194C126.472 277.42 126.393 277.42 143.89 277.43C151.646 277.43 159.415 277.441 167.171 277.441C168.542 280.727 167.523 283.012 163.254 283.937Z" fill="#C0936B"/>
<path d="M171.257 283.85C175.135 284.143 177.264 286.091 177.068 289.202C176.872 292.249 174.587 294.403 170.722 294.229C166.935 294.066 164.781 291.977 164.872 288.789C164.964 285.547 167.314 283.937 171.257 283.85Z" fill="#2B141C"/>
<path d="M206.342 276.354C205.911 276.702 205.467 277.061 205.036 277.409C205.467 277.061 205.898 276.713 206.342 276.354Z" fill="#B9937C"/>
<path d="M182.617 200.294C178.622 196.573 175.41 192.439 173.242 187.761C173.556 185.857 174.927 184.518 176.467 183.191C187.004 174.096 197.489 164.957 207.974 155.818C209.45 154.534 211.382 153.49 211.656 151.488C219.151 145.972 225.667 139.738 231.307 132.862C239.259 125.964 248.177 119.741 253.335 110.896C255.437 111.821 257.526 112.746 259.628 113.67C261.861 115.324 264.081 116.989 266.314 118.642C266.797 119.306 267.28 119.98 267.763 120.644C266.131 124.354 262.122 126.465 259.38 129.413C253.753 135.462 246.075 140.043 241.466 146.799L241.44 146.875C241.022 147.223 240.604 147.571 240.186 147.919L240.134 147.963C239.716 148.311 239.298 148.659 238.88 149.007L238.802 149.029C237.144 149.105 236.36 149.899 236.191 151.205C234.48 152.652 232.77 154.11 231.059 155.557C230.08 156.036 229.714 156.797 229.714 157.7L229.688 157.744C229.27 158.092 228.853 158.44 228.435 158.788L228.383 158.832C227.912 159.169 227.455 159.517 226.985 159.854C225.719 160.942 224.452 162.041 223.173 163.129C222.755 163.499 222.337 163.869 221.919 164.228C220.927 164.718 220.574 165.479 220.587 166.404L220.561 166.437C220.143 166.785 219.726 167.144 219.295 167.492L219.256 167.524C218.825 167.905 218.394 168.286 217.963 168.667C217.832 168.961 217.767 169.265 217.754 169.57C212.649 171.855 208.653 175.053 206.185 179.481C198.051 185.117 191.509 191.927 185.333 199.021C184.432 199.445 183.531 199.87 182.617 200.294Z" fill="#FAFCFD"/>
<path d="M231.072 155.557C232.783 154.11 234.493 152.652 236.204 151.205C236.687 151.227 237.17 151.238 237.64 151.259C240.46 152.641 243.32 153.457 246.689 152.565C248.66 152.043 251.585 152.489 251.415 154.219C250.841 159.941 256.769 161.867 259.693 165.566C264.799 172.05 268.912 179.079 273.43 185.878C274.304 187.195 274.017 189.284 276.772 189.327C276.837 189.85 276.903 190.372 276.981 190.894L277.19 191.188L276.968 191.471C275.636 192.025 275.558 193.026 275.649 194.082C274.905 196.084 273.586 197.77 271.719 199.173C268.494 198.39 266.666 201.262 263.754 201.306C260.412 199.989 257.931 197.955 255.58 195.55C252.825 192.744 250.462 189.839 246.362 187.63C238.554 183.431 231.333 178.187 227.103 170.799C225.667 168.286 226.711 164.903 223.199 163.151C224.465 162.063 225.732 160.964 227.011 159.876C227.481 159.539 227.938 159.191 228.409 158.853L228.461 158.81C228.879 158.462 229.296 158.114 229.714 157.765L229.74 157.722C230.876 157.298 231.072 156.471 231.072 155.557Z" fill="#BFD3E5"/>
<path d="M276.772 189.327C274.017 189.273 274.304 187.184 273.43 185.878C268.912 179.079 264.812 172.05 259.693 165.566C256.782 161.867 250.854 159.941 251.415 154.219C251.585 152.489 248.66 152.054 246.688 152.565C243.32 153.446 240.46 152.641 237.64 151.259C238.698 150.759 238.906 149.954 238.802 149.029L238.88 149.007C239.298 148.659 239.716 148.311 240.134 147.963L240.186 147.919C240.604 147.571 241.022 147.223 241.44 146.875L241.466 146.799C249.914 147.593 254.562 142.969 259.811 138.552C264.263 134.809 265.582 127.574 274.605 128.423C277.543 132.002 280.441 135.593 280.859 140.097C275.506 147.713 274.161 155.97 273.913 164.707C273.782 169.418 273.56 173.769 275.871 178.197C277.582 181.472 278.326 185.084 278.261 188.729L278.457 189.034L278.221 189.316C277.751 189.327 277.268 189.327 276.772 189.327Z" fill="#C5D7E7"/>
<path d="M263.741 201.295C266.653 201.251 268.481 198.39 271.706 199.163C268.52 204.037 263.206 207.29 258.597 211.076C253.426 213.622 248.334 216.287 242.615 217.919C236.726 219.312 230.707 219.834 224.609 219.943C222.455 219.801 220.3 219.66 218.146 219.518C217.623 219.399 217.088 219.279 216.566 219.159C212.283 217.919 207.987 216.69 203.705 215.449C200.336 213.056 195.753 212.066 192.985 208.998C195.426 208.508 197.489 209.857 199.8 209.999C206.877 209.879 213.524 209.281 220.836 211.816C231.621 215.558 242.38 211.087 251.977 206.844C255.868 205.103 261.495 205.505 263.741 201.295Z" fill="#CFD7E7"/>
<path d="M278.274 188.74C278.339 185.095 277.582 181.483 275.884 178.208C273.573 173.78 273.795 169.429 273.926 164.718C274.161 155.992 275.506 147.724 280.872 140.108C282.7 140.913 281.656 142.501 282.23 143.644C284.332 147.463 285.064 151.597 286.213 155.644C286.369 157.526 286.526 159.419 286.683 161.301C286.683 161.922 286.696 162.531 286.696 163.151C286.069 167.503 285.429 171.844 284.802 176.196C283.732 179.068 282.648 181.929 281.577 184.801C280.245 185.976 280.376 188 278.274 188.74Z" fill="#CFD7E7"/>
<path d="M274.605 128.423C265.582 127.575 264.264 134.81 259.811 138.552C254.549 142.969 249.901 147.604 241.466 146.799C246.088 140.043 253.753 135.462 259.38 129.413C262.122 126.465 266.131 124.343 267.763 120.644C270.831 122.766 272.999 125.42 274.605 128.423Z" fill="#CFD7E7"/>
<path d="M286.199 155.633C285.064 151.597 284.332 147.452 282.217 143.633C288.249 141.326 281.172 138.128 282.974 135.299C287.074 136.137 287.649 140.064 287.779 141.566C288.341 147.615 292.402 153.131 291.253 159.43C290.769 162.074 290.143 163.543 286.67 163.14C286.67 162.52 286.656 161.911 286.656 161.291C289.007 159.267 290.012 157.309 286.199 155.633Z" fill="#38273D"/>
<path d="M281.577 184.791C282.648 181.918 283.732 179.057 284.802 176.185C290.991 177.229 288.732 180.743 287.492 183.474C286.539 185.552 284.711 188.076 281.577 184.791Z" fill="#38273D"/>
<path d="M275.636 194.082C275.545 193.026 275.623 192.026 276.955 191.471C277.164 192.57 276.642 193.407 275.636 194.082Z" fill="#CFD7E7"/>
<path d="M276.772 189.327C277.268 189.327 277.752 189.327 278.248 189.327C278.391 190.176 277.751 190.568 276.968 190.894C276.903 190.372 276.838 189.85 276.772 189.327Z" fill="#CFD7E7"/>
<path d="M168.594 176.25C168.058 174.803 167.523 173.367 166.988 171.92C166.896 169.059 166.805 166.197 166.727 163.336C168.071 162.476 169.73 161.824 170.709 160.747C179.483 151.075 190.425 142.904 198.612 132.829C202.098 130.284 206.094 128.129 207.687 124.202C208.17 123.821 208.64 123.451 209.123 123.07C209.515 122.722 209.92 122.374 210.311 122.026C217.192 116.869 223.068 110.972 228.565 104.803C231.072 104.847 233.579 104.88 236.086 104.923C238.88 105.696 241.675 106.468 244.482 107.251C244.142 110.058 241.374 111.44 239.455 113.333C235.028 117.674 228.774 120.666 225.836 126.106C217.414 132.296 209.867 139.118 203.548 146.875C193.024 154.937 184.536 164.522 174.939 173.28C173.125 174.934 171.701 176.707 168.594 176.25Z" fill="#FAFCFD"/>
<path d="M198.612 132.818C190.412 142.893 179.484 151.064 170.709 160.736C169.73 161.824 168.072 162.476 166.727 163.325C165.499 159.648 167.314 156.014 167.001 152.347C168.646 146.418 170.774 140.597 173.412 134.929C177.303 129.511 180.711 123.821 186.717 119.687C185.829 132.536 187.226 134.081 198.612 132.818Z" fill="#CFD7E7"/>
<path d="M198.612 132.819C187.226 134.081 185.829 132.536 186.704 119.687C187.644 118.262 188.963 117.152 190.752 116.466C192.723 116.445 194.669 116.423 194.329 114.04L194.29 114.084C196.432 114.149 198.586 114.258 200.727 114.28C208.771 114.334 209.606 115.009 210.298 122.015C209.907 122.363 209.502 122.711 209.097 123.059C208.614 123.44 208.144 123.81 207.661 124.191C206.094 128.119 202.098 130.284 198.612 132.819Z" fill="#C5D7E7"/>
<path d="M225.823 126.106C228.761 120.666 235.015 117.674 239.442 113.333C241.374 111.44 244.142 110.048 244.469 107.251C247.668 108.046 250.867 108.851 253.335 110.896C248.19 119.741 239.259 125.975 231.307 132.862C228.369 131.241 226.633 128.935 225.823 126.106Z" fill="#CFD7E7"/>
<path d="M210.311 122.015C209.619 114.998 208.784 114.334 200.74 114.28C198.599 114.269 196.445 114.16 194.303 114.084C198.73 110.265 204.618 108.546 210.207 106.403C216.278 105.5 222.246 103.77 228.565 104.793C223.068 110.972 217.192 116.869 210.311 122.015Z" fill="#CFD7E7"/>
<path d="M228.565 104.803C222.246 103.781 216.278 105.511 210.207 106.414C210.494 103.987 208.953 103.215 206.316 103.422L206.303 103.411C209.88 100.952 231.568 98.8087 235.355 100.441C238.306 101.714 236.883 103.313 236.086 104.923C233.579 104.88 231.072 104.847 228.565 104.803Z" fill="#38273D"/>
<path d="M206.316 103.422C206.12 104.51 205.807 105.576 204.083 105.337C203.678 105.282 202.999 104.564 203.104 104.368C203.691 103.095 205.154 103.563 206.303 103.411L206.316 103.422Z" fill="#38273D"/>
<path d="M194.329 114.04C194.669 116.423 192.71 116.456 190.752 116.466C191.587 115.291 192.789 114.497 194.329 114.04Z" fill="#CFD7E7"/>
<path d="M199.787 209.988C197.476 209.857 195.413 208.497 192.971 208.987C190.412 207.692 188.271 206.028 186.56 203.971C186.965 202.187 186.43 200.555 185.333 199.032C191.509 191.949 198.051 185.128 206.185 179.492C206.655 179.503 207.138 179.525 207.608 179.536C208.914 182.201 214.96 182.43 213.758 185.813C211.069 193.429 213.68 203.351 201.446 207.224C200.179 207.649 199.866 208.856 199.787 209.988Z" fill="#BFD3E5"/>
<path d="M168.594 176.25C171.688 176.707 173.112 174.934 174.926 173.28C184.51 164.522 193.011 154.937 203.535 146.875C207.687 146.647 209.802 148.92 211.669 151.488C211.382 153.49 209.45 154.523 207.987 155.818C197.502 164.957 187.004 174.085 176.48 183.191C174.94 184.519 173.555 185.857 173.255 187.761C172.85 187.663 172.524 187.467 172.276 187.184C171.049 183.539 169.821 179.895 168.594 176.25Z" fill="#CFD7E7"/>
<path d="M203.704 215.438C207.987 216.679 212.283 217.908 216.566 219.148C216.892 219.888 217.206 220.661 218.146 219.507C220.3 219.649 222.454 219.79 224.609 219.932C222.977 226.057 216.422 223.446 213.863 222.532C209.201 220.857 204.253 221.357 199.813 219.747C199.513 217.321 202.451 216.907 203.704 215.438Z" fill="#38273D"/>
<path d="M185.346 199.032C186.443 200.566 186.978 202.187 186.574 203.971C185.255 202.742 183.949 201.523 182.63 200.294C183.531 199.87 184.432 199.445 185.346 199.032Z" fill="#CFD7E7"/>
<path d="M199.787 209.988C199.866 208.856 200.179 207.649 201.472 207.235C213.693 203.362 211.082 193.44 213.785 185.824C214.986 182.43 208.94 182.212 207.635 179.547C211.395 178.959 214.072 176.74 216.892 174.912C218.799 173.672 220.835 171.735 217.78 169.581C217.793 169.265 217.872 168.972 217.989 168.667C218.42 168.286 218.851 167.905 219.282 167.525L219.321 167.492C219.739 167.144 220.157 166.785 220.587 166.437L220.614 166.404C221.776 165.98 221.958 165.153 221.945 164.228C222.363 163.858 222.781 163.488 223.199 163.129C226.711 164.881 225.654 168.264 227.103 170.778C231.333 178.165 238.554 183.409 246.362 187.608C250.462 189.817 252.825 192.722 255.581 195.529C257.944 197.933 260.412 199.968 263.754 201.284C261.522 205.505 255.881 205.103 251.977 206.822C242.38 211.065 231.634 215.536 220.835 211.794C213.51 209.27 206.864 209.868 199.787 209.988Z" fill="#C5D7E7"/>
<path d="M211.669 151.488C209.802 148.92 207.7 146.646 203.535 146.875C209.854 139.118 217.401 132.296 225.823 126.106C226.633 128.934 228.369 131.241 231.307 132.862C225.68 139.738 219.177 145.972 211.669 151.488Z" fill="#BFD3E5"/>
<path d="M217.767 169.581C220.822 171.735 218.786 173.672 216.879 174.912C214.059 176.74 211.382 178.948 207.622 179.547C207.152 179.536 206.669 179.514 206.198 179.503C208.666 175.064 212.662 171.866 217.767 169.581Z" fill="#CFD7E7"/>
<path d="M238.815 149.029C238.92 149.954 238.711 150.759 237.653 151.259C237.17 151.238 236.687 151.227 236.217 151.205C236.36 149.889 237.157 149.105 238.815 149.029Z" fill="#CFD7E7"/>
<path d="M221.932 164.239C221.945 165.153 221.763 165.991 220.6 166.415C220.574 165.49 220.94 164.729 221.932 164.239Z" fill="#CFD7E7"/>
<path d="M231.072 155.557C231.072 156.471 230.876 157.298 229.727 157.7C229.727 156.797 230.093 156.036 231.072 155.557Z" fill="#CFD7E7"/>
<path d="M219.282 167.535C218.851 167.916 218.42 168.297 217.989 168.678C218.407 168.297 218.851 167.916 219.282 167.535Z" fill="#CFD7E7"/>
<path d="M220.574 166.448C220.157 166.796 219.739 167.155 219.308 167.503C219.726 167.155 220.157 166.807 220.574 166.448Z" fill="#CFD7E7"/>
<path d="M229.688 157.744C229.27 158.092 228.853 158.44 228.435 158.788C228.866 158.44 229.284 158.092 229.688 157.744Z" fill="#CFD7E7"/>
<path d="M228.396 158.832C227.926 159.169 227.469 159.517 226.999 159.854C227.456 159.517 227.926 159.18 228.396 158.832Z" fill="#CFD7E7"/>
<path d="M218.146 219.518C217.205 220.671 216.892 219.899 216.566 219.159C217.088 219.268 217.61 219.388 218.146 219.518Z" fill="#2C1F31"/>
<path d="M286.199 155.633C290.012 157.309 288.994 159.267 286.67 161.29C286.513 159.408 286.356 157.515 286.199 155.633Z" fill="#2C1F31"/>
<path d="M207.687 124.202C208.17 123.821 208.64 123.451 209.123 123.07C208.64 123.44 208.157 123.821 207.687 124.202Z" fill="#CFD7E7"/>
</g>
<defs>
<clipPath id="clip0_6_2131">
<rect width="457" height="470" fill="white"/>
</clipPath>
</defs>
</svg>
