<svg version="1.2" xmlns="http://www.w3.org/2000/svg" viewBox="0 0 457 470" width="457" height="470">
	<defs>
		<clipPath clipPathUnits="userSpaceOnUse" id="cp1">
			<path d="m0 0h457v470h-457z"/>
		</clipPath>
	</defs>
	<style>
		.s0 { fill: #23162b } 
		.s1 { fill: #2c1f31 } 
		.s2 { fill: #261320 } 
		.s3 { fill: #38273d } 
		.s4 { fill: #fafcfd } 
		.s5 { fill: #856861 } 
		.s6 { fill: #b79a8b } 
		.s7 { fill: #2b141c } 
		.s8 { fill: #b9937c } 
		.s9 { fill: #af8a74 } 
		.s10 { fill: #bd8f63 } 
		.s11 { fill: #c0936b } 
		.s12 { fill: #bfd3e5 } 
		.s13 { fill: #c5d7e7 } 
		.s14 { fill: #cfd7e7 } 
	</style>
	<g id="Clip-Path" clip-path="url(#cp1)">
		<g>
			<path class="s0" d="m356.75 325.3c0.51 18.52 1.06 37.05-0.25 55.56-4.74 0.05-9.6 0.69-14.17-0.02-4.21-0.66-9.52-0.17-12.04-4.41q-0.05-29.58-0.13-59.17c-0.01-7.31-0.02-7.27-9.11-7.29q-31.92-0.07-63.84-0.18c0.26-3.49 6.52-0.33 6.52-4.09 15.33 0 30.66 0.04 45.98-0.05 2.3-0.01 5.5 1.11 6.23-2.22 4.73-0.92 9.76 1.04 14.38-1.01 4.63-0.54 5.26 1.6 5.24 4.84q-0.17 31.19 0.01 62.39c0.01 1.9-1.57 4.5 2.05 5.6 4.18 0.75 9.1 4.26 11.32-2.15 3.43-0.84 2.15-3.24 2.17-5 0.09-13.91 0.05-27.83 0.05-41.74q0.01-0.55 0.01-1.09 2.79 0.01 5.58 0.03z"/>
			<path class="s0" d="m122.1 359.91c0.4 6.19 0.64 12.38-0.19 18.56-1.25 0.22-2.57 0.3-3.76 0.68-7.7 2.46-15.29 2.79-22.74-0.6-0.51-22.12-0.6-44.23-0.03-66.35 4.14 3.24 5.2-1 7.54-2.15q-0.01 22.27-0.02 44.55-5.43 3.28 0.02 6.55c0.1 3.22 0.1 6.44 0.36 9.65 0.19 2.16-1.3 5.17 2 6.14 2.92 0.84 6.41 0.78 8.83-1.68 2.71-0.54 2.13-2.39 2.15-3.93 0.07-3.41 0.05-6.83 0.07-10.25q2.88-0.58 5.77-1.17z"/>
			<path class="s1" d="m356.75 325.3q-2.78-0.03-5.58-0.05c0-14.9 0.04-29.79-0.08-44.69-0.01-1.89 1.44-4.53-2.41-5.33q-1.39-0.22-2.8-0.43c-0.82-2.2-1.58-4.26 2.86-3.97 1.96 0.13 4.53 0.66 5.02-2.03 2.07-0.87 5.91 1.16 6.34-1.85 0.43-2.95 1.6-6.26-1.11-9.06-0.53-3.01-3.38-2.2-5.55-2.22-9.02-0.08-18.03-0.04-27.05-0.05q0.01-1.04 0.03-2.1c9.71-0.01 19.41 0.01 29.13-0.06 2.26-0.01 4.88 0.63 6.33-1.64 4.79 0.16 6.21 2.61 6.14 6.17-0.07 3.25-0.24 6.51 0.02 9.76 0.39 4.74-0.97 7.85-7.73 7.34-4.08-0.3-2.95 2.44-2.96 4.17-0.12 13.19-0.08 26.39-0.15 39.59 0 2.15-0.28 4.31-0.45 6.45z"/>
			<path class="s1" d="m263.74 305.69c0 3.77-6.25 0.62-6.51 4.09q-3.28-0.01-6.56-0.02c-0.95-2.88-3.84-1.84-5.97-1.86-15.83-0.07-31.69-0.04-47.52-0.04q-1.96 0-3.91 0 0-2.21 0.01-4.43c8.13-0.05 16.25-0.14 24.37-0.14 2.62 0 4.92-0.1 3.97-3.14-0.18-8.41 1.67-16.88-0.98-25.22-0.14-2.44 0.39-4.37 4.15-4.04 2.76 0.24 6.57-0.99 6.32 3.27q-0.02 0.52-0.01 1.04-0.37 13.04-0.73 26.08c-0.49 0.91-0.51 1.66 0.95 1.89q14.88 0.16 29.78 0.32 0.08 2.13 2.64 2.2z"/>
			<path class="s2" d="m306.8 189.33c-0.36 6.95-4.89 12.51-9.24 17.95-2.89 3.62-2.22 5.14 2.42 6.49 8.27 2.42 12.39 7.28 12.41 14.77 0.03 7.57 0.64 15.14 0.99 22.7l-0.11 0.09c-3.16-0.45-2.52-2.51-2.55-4.24-0.07-3.62-0.01-7.22-0.08-10.83-0.02-1.3-0.39-2.86-2.2-2.83-2.21 0.05-1.44 1.85-1.61 2.98-0.69 4.56 1.38 9.31-1.28 13.74-0.44-8.33 0.39-16.77-3.02-24.86-1.67-4.67-4.63-9.22-10.65-9.45-4.47-0.17-8.31 3.09-9.91 7.14q-0.52 0.09-1.05 0.14c-3.3-1.12-2.74-3.6-2.97-5.81q0.11-0.41 0.18-0.82c6.8-5.08 12.04-11.09 15.79-18.04 3.73-4.17 4.85-9.32 7.46-13.92 0.74 2.83-0.69 5.91 1.15 8.79 2.21-1.03 1.83-3.54 4.27-3.99z"/>
			<path class="s1" d="m102.9 310.05c-2.32 1.16-3.38 5.39-7.53 2.15-0.13-10.46-0.35-20.94-0.31-31.41 0.01-3.48-0.38-6.03-5.75-5.78-2.11 0.1-4.69-0.77-4.65-2.99 0.11-6.22-1.73-12.53 0.89-18.68 5.58 0.68 11.37-0.72 17.14 0.91-1.85 2.68-6.86-0.25-7.31 3.63-4.85 1.93-5.48 7.9-1.25 12.01 1.93 1.67 4.48 1.12 6.66 0.93 4.65-0.42 4.93 1.4 3.76 4.3-2.27 1.56-1.26 3.71-1.29 5.58-0.21 9.79-0.25 19.57-0.36 29.35z"/>
			<path class="s1" d="m144.9 188.23q-12.28-32.41 5.27-63.08c1.55 2.71-0.1 4.95-1.41 7.31-2.61 4.73-4.07 9.63-2.72 14.85 2.67-3.73 2.07-8.57 6.87-11.28-0.82 3.87-3.28 7.59-3.65 11.27-1.85 17.89-1.26 35.62 9.83 51.86q-0.54 0.52-1.07 1.04c-4.9-1.06-6.95-4.46-8.95-7.77-1.04-1.72-1.08-3.97-4.17-4.2z"/>
			<path class="s2" d="m139.78 251.33c0.04-4.87 0.28-9.76 0.06-14.63-0.31-7.12 0.22-14.03 5.25-20.15q6.72-1.81 13.45-3.63c2.13 0.65 4.6 2.54 6.41 0.65 1.4-1.46-1.04-3.22-1.83-4.81-1.06-2.12-2.87-4.04-2.44-6.54q1.18 0.7 2.34 1.4l0.01-0.06c0.41 1.42 1.4 2.52 2.7 3.45q0.35 0.44 0.7 0.88 1 1.06 1.99 2.13l-0.02-0.02q1.26 1.32 2.52 2.64 0.16 0.6 0.32 1.2c-0.01 1.04-0.27 2.23 1.73 2.16l0.27 0.04c-0.96 1.87-1.4 4.23-4.92 3.8l0.05 0.02q-0.72-0.58-1.45-1.14c-2.98-2.54-6.08-2.73-9.55-0.58-3.26 2-6.72 3.78-8.24 7.14-3.39 8.54-1.32 17.28-1.34 25.95q-4.02 0.06-8.04 0.12zm2.59-10.7c0.26 0.34 0.54 1.2 1.11 1.36 1.17 0.31 1.38-0.68 1.33-1.32-0.06-0.6-0.43-1.55-0.93-1.69-1.19-0.33-1.18 0.67-1.51 1.65z"/>
			<path class="s3" d="m122.1 359.91q-2.89 0.59-5.79 1.17 0.01-28.23 0.02-56.46 2.83-0.62 5.66-1.24l0.43-0.02 0.41 0.12q0.61 0.52 1.23 1.03c2.2 1.88 3.43 1.26 3.98-1.09q4.52-0.03 9.05-0.06c0.66 3.6-1.36 4.51-5.46 4.61-2.95 0.07-7.09-2.04-8.84 2.04q-0.35 22.81-0.71 45.59c-0.94 0.23-2.42-0.05-2.42 1.18 0 1.21 1.48 0.94 2.42 1.16q0.02 1.01 0.02 1.97z"/>
			<path class="s1" d="m155.08 117.47c7.35-10.39 16.91-18.97 29.52-25.06q1.06-0.52 2.12-1.04 1.12-0.56 2.24-1.11 0.84-0.45 1.69-0.91 1.88-0.72 3.77-1.45 0.75 0.7 1.49 1.41c-0.21 1.81 1.63 2.73 2.54 4.05-3.57 1.96-8.01 2.74-10.98 5.54q-0.48-0.02-0.74 0.34-1.51 0.95-3.02 1.9-1.12 0.68-2.24 1.36-0.64 0.45-1.28 0.91-0.67 0.45-1.33 0.9-0.83 0.61-1.64 1.2-0.51 0.38-1.03 0.75-0.88 0.71-1.77 1.42-0.45 0.37-0.9 0.74c-5.42 3.67-8.79 8.73-12.93 13.28 0.78-3.78-0.63-5.58-5.51-4.23z"/>
			<path class="s1" d="m306.8 189.33c-2.44 0.45-2.06 2.96-4.28 4.02-1.84-2.89-0.4-5.97-1.15-8.79q-0.17-0.41 0.24-0.68c2.78-0.24 2.75-1.99 2.53-3.59-0.3-2.2 0.76-3.77 2.65-5.11 3.37-2.68 5.3-12.4 2.86-15.23-0.52-0.61-1.87-0.73-2.83-1.08q-0.24-1.17-0.47-2.33-0.93 0.57-1.83 1.14c-1.67-0.42-1.63-1.66-1.45-2.62 1.08-5.47-1.53-10.52-2.27-15.78q0.33-0.02 0.65-0.01c4.54 4.08 2.13 10.59 7.18 14.88 1.89-4.4 0.08-8.2-0.94-12-0.56-2.09-1.9-4.11 0.3-6.07 6.65 15.79 6.97 31.73 1.56 47.8q-0.68 0.66-1.36 1.31 0.1 0.47-0.12 0.89c-1.18 0.54-1.25 1.44-1.18 2.4q0.16 0.44-0.09 0.85z"/>
			<path class="s2" d="m95.38 257.89c0.45-3.88 5.46-0.95 7.31-3.63-5.77-1.62-11.56-0.24-17.14-0.91 1.95-2.37 4.96-1.82 7.66-1.85 15.53-0.09 31.06-0.11 46.58-0.16l0.03 0.03c-0.1 1.48-2.45 1.88-2.6 2.47-0.85 3.25 2.53 1.15 3.84 1.82q0.64 1.06 1.29 2.11-23.48 0.05-46.97 0.12z"/>
			<path class="s1" d="m237.86 83.77q1.2 0.05 2.39 0.09c4.56 2.75 10.11 3.66 15.2 5.29 4.39 1.4 3.47 2.96 1.78 5.24q-1.36-0.29-2.72-0.59-0.76-0.55-1.53-1.09c0.82-0.48 1.86-1.25 0.59-1.79-1.16-0.5-1.41 0.71-1.58 1.5q-3.93-1.09-7.86-2.18c-0.68-2.28-1.83-2.94-3.83-0.79q-1.35-0.13-2.71-0.27c-6.82-2.2-13.91-0.49-20.84-0.98-2.25 0.46-5.43-1.3-6.52 1.92q-0.67 0.12-1.34 0.25c-1.41-0.03-2.86-0.19-3.88 0.93q-1.25 0.36-2.51 0.72-0.09-2.44-0.18-4.87c2.7-0.4 5.59-0.41 8.04-1.28 3.37-1.18 7.94 0.34 10.27-3.11q5.23 0 10.44 0c1.97 1.83 4.51 0.84 6.79 1.01z"/>
			<path class="s2" d="m193.27 307.86q1.95 0 3.91 0 0 0.95 0 1.9c-19.56 0.46-39.14 0.44-58.7 0.02 0.92-2.9 3.78-1.67 5.91-1.91 2.96-0.32 6.16 0.59 9.51-0.93-2.84-2-5.49-1.02-7.92-1.23-2.08-0.19-4.55 0.38-4.94-2.28q24.17 0.01 48.33 0.02c-0.32 2.3-2.35 2.26-4.36 2.22-5.64-0.07-11.3-0.25-16.94-0.19-3.55 0.03-7.32-0.52-10.42 2.38q17.8 0 35.62 0z"/>
			<path class="s0" d="m288.76 108.69c7.62 5.23 12.06 12.19 15.42 19.74-5.82-2.31-4.79 2.2-6.18 4.31-3.33-6.7-7.92-12.8-12.61-18.88 3.24-0.78 3.16-3.04 3.37-5.17z"/>
			<path class="s0" d="m257.24 94.39c1.68-2.27 2.61-3.84-1.78-5.24-5.1-1.63-10.64-2.54-15.2-5.29 9.33-0.5 16.85 3.53 24.55 6.93 4.35 1.93 8.63 4.06 12.01 7.17-2.66 0.29-7.49-2.63-6.56 3.05q-2.42-1.12-4.85-2.23l-0.13 0.08c-0.87-1.35-2.41-1.87-4.05-2.26q-2-1.1-3.99-2.21z"/>
			<path class="s0" d="m160.69 202.22c-0.44 2.5 1.39 4.42 2.45 6.54 0.79 1.6 3.23 3.35 1.82 4.81-1.81 1.89-4.28 0-6.41-0.64-1.17-2.83-3.18-5.21-5.68-7.32-2.43-5.86-7.05-11.04-7.99-17.38 3.11 0.23 3.14 2.47 4.18 4.19 2.01 3.32 4.05 6.72 8.94 7.77q0.87 0.49 1.74 0.97 0.49 0.54 0.95 1.06z"/>
			<path class="s3" d="m155.08 117.47c4.9-1.35 6.29 0.45 5.52 4.23q-0.47 0.67-0.95 1.34c-1.36 0.34-1.55 1.23-1.54 2.23l0.08-0.05c-4.87 2.33-5.53 6.15-5.27 10.31l0.19 0.25-0.19 0.25c-4.79 2.71-4.2 7.55-6.86 11.28-1.36-5.22 0.1-10.12 2.71-14.85 1.31-2.36 2.97-4.6 1.41-7.31 0.96-2.85 2.61-5.41 4.9-7.68z"/>
			<path class="s3" d="m298.02 132.73c1.38-2.11 0.35-6.62 6.17-4.31q0.41 0.33 0.13 0.74c-0.06 0.96-0.14 1.93 1.07 2.51q0.26 0.42 0.17 0.9 0.71 0.62 1.41 1.25c0.93 0.57 1.14 1.36 1.02 2.25-2.22 1.96-0.87 3.98-0.3 6.07 1.02 3.81 2.83 7.6 0.94 12-5.06-4.29-2.64-10.8-7.18-14.88 0.16-1.39 0.46-2.85-1.93-3.16q-0.76-1.67-1.5-3.37z"/>
			<path class="s1" d="m270.26 101.02c-0.93-5.68 3.89-2.76 6.56-3.05 4.2 2.32 7.83 5.14 10.73 8.59-2.45 1.88-0.63 2.03 1.26 2.14l-0.02-0.02c-0.21 2.13-0.15 4.39-3.36 5.16l0.25-0.32c-0.02-1.01-0.84-1.29-1.84-1.38q-6.81-5.56-13.58-11.12z"/>
			<path class="s0" d="m197.16 309.78q0-0.96 0-1.91c15.84 0 31.69-0.03 47.53 0.05 2.13 0.01 5.02-1.04 5.97 1.86q-26.74-0.02-53.5 0z"/>
			<path class="s2" d="m361.88 251.83c-1.45 2.28-4.07 1.63-6.33 1.64-9.7 0.07-19.42 0.05-29.13 0.06-3.44-0.86-7.77 1.72-10.48-1.91 15.32-0.38 30.64-0.61 45.94 0.21z"/>
			<path class="s4" d="m152.87 205.61c2.5 2.11 4.52 4.49 5.68 7.31q-6.72 1.82-13.45 3.63c-2.26-1.35-0.75-3.05 0.36-3.58 3.61-1.75 4.76-5.04 7.41-7.36z"/>
			<path class="s0" d="m141.04 303.43c0.4 2.66 2.86 2.09 4.94 2.28 2.41 0.21 5.08-0.77 7.93 1.23-3.35 1.52-6.56 0.61-9.52 0.93-2.13 0.24-4.99-0.99-5.91 1.91q-7.83 0.13-15.68 0.26c1.75-4.09 5.89-1.98 8.84-2.05 4.12-0.09 6.13-1 5.46-4.61q1.96 0.03 3.94 0.05z"/>
			<path class="s5" d="m330.29 376.44c2.52 4.22 7.82 3.74 12.04 4.4 4.56 0.72 9.43 0.08 14.17 0.02-0.72 2.23-2.98 1.65-4.73 1.67-5.12 0.09-10.25-0.07-15.35 0.05-5.37 0.13-7.6-1.67-6.13-6.14z"/>
			<path class="s3" d="m95.41 378.56c7.47 3.39 15.05 3.06 22.74 0.61 1.19-0.38 2.51-0.47 3.77-0.69 0.86 2.6-0.63 3.69-3.56 3.72-6.41 0.07-12.82 0.13-19.23 0.07-2.73-0.04-4.56-1.04-3.72-3.71z"/>
			<path class="s0" d="m220.67 82.76c-2.33 3.45-6.9 1.93-10.27 3.11-2.45 0.87-5.34 0.88-8.04 1.28q-0.63-0.55-1.25-1.07c6.24-2.23 12.61-3.96 19.56-3.32z"/>
			<path class="s3" d="m201.11 86.08q0.62 0.54 1.25 1.07 0.09 2.43 0.18 4.87-2.03 0.67-4.08 1.34c-0.92-1.32-2.76-2.23-2.55-4.05 1.74-0.13 2.66-0.85 2.47-2.38l-0.09 0.09q0.75-0.48 1.51-0.96 0.63 0.01 1.31 0.02z"/>
			<path class="s0" d="m315.96 251.63c2.71 3.63 7.04 1.04 10.47 1.91q-0.01 1.05-0.03 2.1-5.23 0.01-10.47 0.04-0.66-0.01-1.33-0.03-0.67-2.15-1.33-4.3l0.12-0.09q1.27 0.18 2.57 0.37z"/>
			<path class="s0" d="m237.86 83.77c-2.28-0.17-4.82 0.82-6.75-1 2.44-0.53 4.87-1.02 6.75 1z"/>
			<path class="s0" d="m198.36 86.93c0.21 1.52-0.71 2.25-2.46 2.38q-0.75-0.71-1.49-1.41c0.92-1.43 2.67-0.56 3.95-0.97z"/>
			<path class="s0" d="m288.8 108.7c-1.9-0.11-3.71-0.26-1.27-2.14 1.28 0.35 1.05 1.34 1.27 2.14z"/>
			<path class="s0" d="m122.1 357.97c-0.94-0.22-2.43 0.06-2.43-1.16 0-1.22 1.49-0.95 2.43-1.18q-0.02 1.16 0 2.34z"/>
			<path class="s2" d="m306.91 188.47c-0.08-0.96 0-1.86 1.17-2.4 0.88 1.23 0.53 2.05-1.17 2.4z"/>
			<path class="s0" d="m305.39 131.68c-1.21-0.58-1.13-1.55-1.07-2.51 1.35 0.54 1.43 1.45 1.07 2.51z"/>
			<path class="s0" d="m190.63 89.37q-0.84 0.45-1.68 0.9c0.3-0.65 0.81-1.01 1.68-0.9z"/>
			<path class="s0" d="m199.77 86.06q-0.75 0.48-1.51 0.96c0.27-0.58 0.63-1.06 1.51-0.96z"/>
			<path class="s0" d="m306.97 133.82q-0.7-0.63-1.41-1.25 0.71 0.63 1.41 1.25z"/>
			<path class="s2" d="m308.19 185.18q0.68-0.66 1.36-1.31c0.09 0.82-0.58 1.1-1.36 1.31z"/>
			<path class="s6" d="m345.9 274.81q1.38 0.22 2.79 0.43 0.13 25.55 0.25 51.11 0.01 23.37 0.01 46.73c-2.2 6.42-7.14 2.91-11.32 2.16q0.23-16.31 0.46-32.6c3.62 0.51 2.58 2.91 2.61 4.73 0.09 7.4 0.04 14.8 0.07 22.21 0 1.64-0.07 3.5 2.87 3.33 2.47-0.14 2.3-1.84 2.3-3.26q0.04-21.14-0.02-42.27c0-1.14 0.43-2.86-1.98-2.66-1.53 0.14-2.97 0.89-3.06 2.4-0.14 2.34-0.07 4.69-0.15 7.04-0.07 1.73 0.57 3.8-2.64 4.17q-0.05-31.55-0.11-63.11 3.94-0.21 7.92-0.41z"/>
			<path class="s6" d="m230.37 301.28q0.36-13.04 0.73-26.08 2.59 0.63 5.16 1.26c-2.07 1.31-2.71 3.01-2.59 5.17 0.2 3.59 0.05 7.2 0.05 10.8 0.02 6.49 2.65 8.77 10.58 8.88 7.35 0.1 14.7 0.02 22.05 0.02q25.44 0 50.89-0.01c7.6-0.48 7.86-5.05 7.84-9.77q0-1.09 0.02-2.17c5.1-2.59 2.03-6.65 2.32-9.99 0.22-2.56-2.98-1.78-4.95-1.98q-1.96-0.02-3.9-0.03-1.28-1.02-2.56-2.02 5.84-0.25 11.67-0.5c4.18 0.87 1.73 3.9 2.73 5.81q0 3.27 0.01 6.53 0.03 2.17 0.03 4.34-0.05 5.44-0.09 10.86c-4.62 2.05-9.64 0.09-14.38 1.01q-27.42 0.03-54.85 0.07-14.88-0.16-29.78-0.32-0.51-0.93-0.98-1.88z"/>
			<path class="s7" d="m330.33 302.41q0.05-5.44 0.09-10.86c4.61-0.34 4.9-2.86 5.27-6.07 0.38-3.42-2.69-7.54 2.28-10.26q0.05 31.56 0.11 63.11 0 2.16 0 4.32-0.23 16.31-0.46 32.6c-3.62-1.1-2.04-3.7-2.05-5.6q-0.18-31.2-0.01-62.39c0.02-3.25-0.6-5.39-5.23-4.85z"/>
			<path class="s7" d="m348.94 326.35q-0.13-25.56-0.25-51.11c3.85 0.81 2.4 3.44 2.42 5.33 0.11 14.9 0.08 29.79 0.08 44.69q-0.01 0.54-0.02 1.09-1.13 0-2.23 0z"/>
			<path class="s2" d="m348.94 326.35q1.12 0 2.22 0c0 13.91 0.05 27.83-0.05 41.74-0.02 1.77 1.26 4.17-2.17 4.99q0-23.36 0-46.73z"/>
			<path class="s2" d="m261.1 303.49q27.43-0.04 54.86-0.07c-0.73 3.33-3.93 2.21-6.23 2.22-15.33 0.09-30.66 0.04-45.99 0.04q-2.56-0.06-2.64-2.19z"/>
			<path class="s7" d="m327.66 274.87q-5.84 0.25-11.68 0.5-37.89-0.14-75.78-0.29c-2.82-1.81-6.07-0.57-9.1-0.92 0.25-4.26-3.57-3.03-6.32-3.27-3.78-0.33-4.3 1.6-4.15 4.04q-4.57 0.23-9.13 0.45-0.65 0.01-1.28 0.02-0.65 0-1.29 0-0.65-0.02-1.31-0.04-20.23-0.03-40.48-0.06-21.15 0-42.31 0.01c-1.07 0-2.21-0.09-2.56 1.09q-0.37 5.95-0.73 11.9c-4.18-2.29-5.72-1.5-5.36 2.77 0.39 4.5 0.12 9.02 0.13 13.54q0 28.23-0.01 56.46c-0.01 3.42 0 6.83-0.07 10.25-0.02 1.55 0.57 3.38-2.15 3.93-0.04-4.17-0.12-8.32-0.12-12.49-0.05-27.33-0.22-54.67 0.02-82 0.03-4.58-1.49-6.28-6.86-5.53-0.84 0.12-1.72-0.07-2.6-0.13 1.18-2.9 0.89-4.72-3.76-4.31-2.18 0.2-4.72 0.74-6.66-0.92l-0.09-0.32c1.09 0.17 2.14 0.3 2.64-0.82 31.66-0.06 63.34-0.16 95-0.15 46.63 0.02 93.27 0.11 139.9 0.17-0.68 2.95-3.53 1.83-5.64 2.11-2.64 0.35-5.72-0.92-8.11 1.19 2.99 2.49 7.82-0.99 9.86 2.82z"/>
			<path class="s6" d="m104.55 275.12c0.86 0.06 1.76 0.25 2.6 0.13 5.35-0.75 6.89 0.94 6.85 5.53-0.23 27.33-0.06 54.67-0.01 82 0.01 4.17 0.08 8.32 0.12 12.49-2.42 2.45-5.92 2.53-8.83 1.68-3.3-0.97-1.83-3.97-2-6.14-0.26-3.21-0.26-6.43-0.36-9.65q0-3.28-0.02-6.55 0.01-22.28 0.02-44.55c0.1-9.78 0.14-19.56 0.35-29.34 0.03-1.89-0.99-4.04 1.28-5.6zm1.3 69.19c3.93-2.83 5.33-4.81 5.24-7.61-0.17-5.21-0.06-10.42-0.04-15.63 0-1.46-0.06-2.89-1.46-3.98-0.76-0.59-1.54-1.53-2.69-0.91-0.56 0.31-0.98 1.17-0.99 1.78-0.07 8.34-0.06 16.7-0.06 26.35z"/>
			<path class="s1" d="m102.89 354.61q0.01 3.28 0.01 6.55-5.45-3.27-0.01-6.55z"/>
			<path class="s6" d="m331.6 268.78c-46.63-0.05-93.27-0.15-139.9-0.16-31.66-0.01-63.34 0.1-95 0.14-1.76-1.7-2.27-0.58-2.64 0.83l0.09 0.31c-4.23-4.11-3.6-10.08 1.26-12.01q23.48-0.06 46.96-0.12 2 0.04 3.99 0.09 1.91-0.01 3.82-0.02c9.33 0.04 18.64 0.13 27.96 0.13q68.26-0.06 136.52-0.13 22.19 0.03 44.37 0.07c2.7 2.81 1.54 6.12 1.11 9.07-0.43 3-4.28 0.97-6.34 1.85-7.43-0.03-14.81-0.04-22.2-0.05zm-105.75-2.24c11.08 0 22.17 0.02 33.26-0.02 2.69-0.01 5.87 0.7 5.96-3.15 0.08-3.73-2.86-3.36-5.72-3.36q-31.95 0-63.91 0c-1.72 0-3.54-0.16-5 0.85-1.58 1.1-4.23 1.71-3.46 4.07 0.72 2.2 3.12 1.57 4.93 1.58 11.32 0.05 22.63 0.03 33.94 0.03zm107.68-0.01q0-0.02 0-0.03c5.85 0 11.7 0.04 17.55-0.02 2.6-0.04 3.86-1.3 3.96-3.46 0.07-2.03-0.96-3-3.44-2.99-11.04 0.04-22.09 0.02-33.15 0.06-0.81 0-1.83 0.22-2.4 0.65-1.48 1.1-4.49 1.41-3.62 3.86 0.69 1.94 2.86 1.93 4.84 1.93q8.14 0.01 16.26 0zm-217.75-0.02q0 0.01 0 0.02 6.51 0.01 13.02 0c2.42-0.01 5.35 0.09 5.43-2.61 0.06-2.5-2.31-3.83-5.25-3.85-9.12-0.08-18.23 0.01-27.34-0.05-3.03-0.02-4.5 1.43-4.64 3.6-0.17 2.41 2.1 2.88 4.45 2.88 4.78 0.03 9.56 0.01 14.33 0.01z"/>
			<path class="s2" d="m331.6 268.78q11.08 0.02 22.17 0.03c-0.48 2.69-3.06 2.15-5.01 2.03-4.43-0.28-3.69 1.76-2.86 3.97q-3.97 0.2-7.93 0.4c-4.97 2.72-1.91 6.83-2.28 10.26-0.36 3.21-0.64 5.73-5.27 6.07q-0.02-2.17-0.02-4.34 5.82-3.26-0.02-6.53c-0.99-1.9 1.45-4.94-2.72-5.81-2.05-3.8-6.87-0.33-9.82-2.79 2.39-2.09 5.47-0.83 8.1-1.19 2.13-0.27 4.98 0.85 5.66-2.1z"/>
			<path class="s2" d="m359.01 257.9q-22.19-0.04-44.37-0.07 0.64-1.08 1.29-2.16 5.24-0.01 10.47-0.04c9.03 0.01 18.03-0.02 27.06 0.05 2.16 0.02 5.01-0.79 5.55 2.22z"/>
			<path class="s6" d="m121.55 288.32q0.36-5.95 0.73-11.9c2.63 0.74 1.75 2.61 1.79 4.09 0.09 4.63 0.14 9.28 0.01 13.91-0.13 4.59 2.05 7.13 7.88 6.88l0.62 0.01 0.63-0.01q31.32 0 62.63 0.01c3.41 0.01 6.88 0.33 10.23-0.05 4.62-0.52 10.43 2.36 13.6-3.17 0.36-0.62 0.75 1.68 1.92 2.06 0.96 3.04-1.34 3.14-3.97 3.14-8.12 0.01-16.24 0.09-24.36 0.14q-1.96 0.01-3.91 0.02-24.16-0.01-48.32-0.02-1.98-0.02-3.94-0.05-4.53 0.03-9.05 0.06-1.99 0.03-3.98 0.06-0.61-0.06-1.25-0.01l-0.4-0.12-0.43 0.02q-0.2-7.54-0.43-15.07z"/>
			<path class="s8" d="m221.61 300.15c-1.19-0.38-1.57-2.68-1.92-2.06-3.18 5.53-9 2.65-13.61 3.17-3.34 0.38-6.82 0.06-10.22 0.05q0-1.07 0.01-2.14c5.17 0 10.35-0.04 15.52-0.01 3.79 0.02 6.79-1.3 6.51-4.56-0.56-6.53 3.89-14.37-6.24-18.71-0.12-0.06-0.11-0.34-0.15-0.52q4.57-0.22 9.13-0.45c2.64 8.34 0.78 16.82 0.97 25.23z"/>
			<path class="s0" d="m189.37 303.45q1.96-0.01 3.9-0.02 0.01 2.22-0.01 4.43-17.8 0-35.62 0c3.09-2.89 6.87-2.35 10.42-2.38 5.64-0.06 11.29 0.12 16.93 0.19 2.03 0.04 4.06 0.08 4.38-2.22z"/>
			<path class="s3" d="m231.11 274.16c3.03 0.35 6.29-0.89 9.1 0.92-0.69 1.71-2.64 0.92-3.95 1.38q-2.59-0.63-5.16-1.26-0.01-0.52 0.01-1.04z"/>
			<path class="s5" d="m230.37 301.28q0.47 0.95 0.95 1.89c-1.48-0.23-1.44-0.98-0.95-1.89z"/>
			<path class="s6" d="m270.26 101.02q6.77 5.56 13.55 11.13c0.34 0.71 0.76 1.37 1.84 1.38l-0.25 0.33c4.68 6.07 9.27 12.18 12.6 18.88q0.75 1.69 1.51 3.38c-0.27 1.25 0.58 2.18 1.27 3.16 0.75 5.26 3.36 10.32 2.28 15.78-0.2 0.97-0.24 2.2 1.45 2.62 0.92 8.88-1.48 17.5-2.9 26.21q-0.39 0.27-0.24 0.68c-2.6 4.61-3.73 9.75-7.47 13.92-0.65-2.84 0.67-5.92-1.28-9.25-2.33 3.41-5.73 5.41-6.98 8.74-0.45 1.17-1.58 0.83-2.39 0 8.26-13.45 12.32-27.59 10.52-42.77-1.85-15.77-8.17-29.8-22.22-40.95-1.53-1.91-3.45-3.47-5.95-4.48q-4.22-2.77-8.43-5.54c3.14-1.39 9.05 0.1 8.2-5.46q2.47 1.12 4.89 2.24z"/>
			<path class="s6" d="m278.12 216.53q-0.07 0.4-0.19 0.81c-7.73 5.94-16.28 10.86-25.94 14.38-13.33 3.54-26.89 4.47-40.7 2.55-7.42-1.71-14.45-4.17-21.24-7.17q-4.52-3.03-9.06-6.08c3.02-1.37 10.78 2.96 8.44-4.86q1.19 0.39 2.38 0.79c2 1.74 4.57 2.68 7.21 3.5 8.27 4.17 17.42 5.78 26.92 5.79 8.79 0.01 17.62-0.28 24.9-5.32q0.57-0.01 1.15-0.1c0.95 0.15 1.19-0.45 1.48-1q0.56 0 1.1-0.1 3.46-1.55 6.91-3.11 1.07-0.61 2.13-1.21 0.75-0.51 1.5-1.01l-0.02 0.04c3.14-1.36 5-4.39 8.87-4.82-1.39 3.45-2.59 6.83 4.16 6.92zm-62.94 13.78c2.68 2.01 4.36 3.23 6.91 3.62 7.99 1.23 15.15-2.64 22.98-2.46 1.59 0.05 2.51-1.54 2.38-2.82-0.16-1.45-1.86-1.19-3.1-1.25-9.62-0.59-18.97 0.65-29.17 2.91z"/>
			<path class="s8" d="m278.12 216.53c-6.75-0.09-5.55-3.46-4.14-6.93 1.81-4.58 6.32-7.69 9.28-11.62 0.81 0.83 1.95 1.17 2.39 0 1.25-3.33 4.64-5.33 6.99-8.74 1.93 3.33 0.62 6.41 1.28 9.25-3.75 6.93-9 12.96-15.8 18.04z"/>
			<path class="s6" d="m302.53 225.33c3.41 8.08 2.58 16.52 3.02 24.86q-0.72 0.7-1.46 1.4-20.17-0.19-40.34-0.39c0.17-2.17 2.09-2.04 3.9-2.07 5.21 0 10.57 0.64 15.6-0.16 5.99-0.97 12.85-0.98 16.8-6.2 2.95-3.89 0.83-8.09 1.47-12.11 0.34-1.79-0.68-3.74 1.01-5.33z"/>
			<path class="s1" d="m252 231.72c9.67-3.51 18.22-8.43 25.95-14.38 0.23 2.21-0.33 4.7 2.97 5.81-7.19 6.1-15.52 10.77-25.12 13.85-2.02-1.38-4.48-2.54-3.8-5.28z"/>
			<path class="s3" d="m304.09 251.59q0.72-0.7 1.46-1.4c2.68-4.44 0.59-9.18 1.28-13.74 0.17-1.14-0.6-2.94 1.61-2.98 1.81-0.05 2.18 1.52 2.2 2.82 0.07 3.62 0.02 7.22 0.08 10.83 0.03 1.72-0.61 3.8 2.55 4.24q0.66 2.15 1.33 4.3c-2.53 0-5.08-0.16-7.59 0.04-4.71 0.36-5.45-1.02-2.92-4.11z"/>
			<path class="s9" d="m302.53 225.33c-1.71 1.6-0.69 3.54-1 5.33-0.6-0.2-1.58-0.25-1.75-0.6-1.55-3.09 0.21-7.44-5.29-9.03-5.42-1.57-7.14 3.39-11.19 4.19-0.01-0.92-0.26-1.73-1.33-2.2 1.61-4.06 5.46-7.31 9.91-7.14 6.02 0.22 9 4.77 10.65 9.45z"/>
			<path class="s6" d="m281.97 223.01c1.07 0.47 1.32 1.28 1.33 2.2-4.56 1.62-7.1 5.13-10.56 7.79-3.71 2.84-7.75 5-12.92 5.29q-1.3 0-2.59 0-0.61-0.46-1.21-0.91l-0.22-0.37c9.6-3.08 17.93-7.74 25.12-13.85q0.52-0.06 1.05-0.15z"/>
			<path class="s6" d="m159.64 123.04q0.47-0.67 0.95-1.34c4.14-4.55 7.5-9.61 12.93-13.29 0.86 2.32-1.26 3.58-2.54 5.17-0.98 1.22-1.75 2.64-0.21 3.92 2.04 1.7 3.05-0.22 4.14-1.06 2.85-2.18 5.54-4.5 8.28-6.77 1.82-1.52 3.46-3.34 6.57-2.41-4.8 3.49-8.16 8.22-13.57 11.21-6.36 6.99-12.07 14.25-13.93 23.13-5.64 13.7-5.26 27.39 0.07 41.08q0.35 0.63 0.69 1.26c0.22 5.72 5.03 9.98 6.98 15.15-5.98-2.37-7.61-0.12-6.95 4.56q-1.18-0.71-2.34-1.41-0.47-0.52-0.94-1.04-0.34-1.01-0.67-2.02c-11.08-16.25-11.68-33.98-9.83-51.86 0.38-3.68 2.85-7.4 3.66-11.27l0.18-0.25-0.18-0.25q2.63-5.16 5.26-10.29l-0.08 0.04q0.76-1.16 1.53-2.26zm-9.3 39.72c0 2.53-0.18 5.07 0.07 7.58 0.18 1.95 1.95 2.82 4.17 2.52 2.42-0.33 2.26-1.95 1.81-3.4-1.66-5.17-1.07-10.38-0.49-15.58 0.09-0.87 0.83-1.82-0.58-2.28-1.45-0.49-2.49 0.25-3.3 1.16-2.7 3.07-1.56 6.63-1.68 10z"/>
			<path class="s2" d="m159.09 199.16q0.33 1.01 0.66 2.02-0.86-0.49-1.73-0.98 0.52-0.52 1.07-1.04z"/>
			<path class="s8" d="m163.04 203.62c-0.65-4.68 0.98-6.92 6.96-4.56q0.57 0.48 1.14 0.96c-0.09 1.67-0.21 3.34 2.65 3.42q6.96 7.1 15.67 12.71c2.32 7.82-5.42 3.5-8.45 4.86q-3.86-2.49-7.72-4.97c0 0-0.27-0.04-0.28-0.03 0.1-1.08-0.81-1.63-1.73-2.17q-0.16-0.6-0.32-1.2c0.15-1.54-0.45-2.58-2.52-2.64l0.02 0.02c-0.05-1.11-0.49-1.97-1.99-2.13q-0.35-0.44-0.7-0.88c0.1-1.7 0.37-3.49-2.7-3.45z"/>
			<path class="s6" d="m147.86 251.24c0-8.66-2.06-17.39 1.33-25.95q0.54 1.06 1.07 2.11c-0.01 2.88-0.16 5.77-0.03 8.64 0.38 8.39 5.01 13.64 15.84 13.16 9.29-0.41 18.61-0.13 27.91-0.05 2.14 0.03 5.02-0.94 5.82 1.99q-24.76 0.24-49.53 0.47-1.21-0.17-2.41-0.37z"/>
			<path class="s7" d="m173.28 216.05q3.86 2.48 7.72 4.97 4.52 3.03 9.05 6.08c-3.74 1.16-0.51 4.07-2.09 5.78-5.25-1.84-9.44-4.98-13.9-7.81q-2.86-2.6-5.71-5.2c3.53 0.41 3.96-1.95 4.93-3.82z"/>
			<path class="s9" d="m168.36 219.87q2.86 2.6 5.72 5.21-1.53 0.08-3.06 0.16c-2.23-0.04-3.25-1.63-4.49-2.72-2.3-2-5.17-2.34-7.47-1.04-2.56 1.42-7.62 1.5-6.24 5.93q-1.27-0.01-2.56 0.01-0.53-1.05-1.07-2.1c1.53-3.36 4.99-5.15 8.24-7.15 3.47-2.14 6.58-1.96 9.56 0.59q0.73 0.57 1.43 1.13z"/>
			<path class="s3" d="m147.86 251.24q1.21 0.2 2.41 0.38-0.05 3.1-0.11 6.2-1.92 0.02-3.83 0.03c-0.43-2.95-3.19-2.02-5.27-2.2-1.31-0.69-4.69 1.42-3.84-1.82 0.15-0.6 2.5-0.99 2.6-2.47q4.01-0.05 8.04-0.12z"/>
			<path class="s3" d="m142.36 240.63c0.34-0.98 0.33-1.98 1.5-1.65 0.5 0.14 0.88 1.09 0.93 1.69 0.05 0.64-0.14 1.63-1.33 1.32-0.55-0.16-0.84-1.02-1.1-1.36z"/>
			<path class="s6" d="m163.04 203.57c3.07-0.03 2.81 1.75 2.71 3.45-1.31-0.93-2.3-2.04-2.71-3.45z"/>
			<path class="s6" d="m168.42 210.01c2.08 0.06 2.68 1.1 2.52 2.64q-1.26-1.32-2.52-2.64z"/>
			<path class="s7" d="m171.27 213.85c0.9 0.54 1.81 1.09 1.72 2.18-1.98 0.05-1.73-1.13-1.72-2.18z"/>
			<path class="s6" d="m166.45 207.89c1.5 0.16 1.95 1.02 2 2.13q-1-1.06-2-2.13z"/>
			<path class="s1" d="m121.55 288.32q0.23 7.54 0.46 15.08-2.84 0.62-5.67 1.24c-0.01-4.51 0.26-9.05-0.13-13.53-0.38-4.29 1.16-5.07 5.34-2.79z"/>
			<path class="s0" d="m124.07 303.5q1.99-0.03 3.98-0.06c-0.55 2.35-1.77 2.97-3.98 1.09q0.12-0.51 0-1.03z"/>
			<path class="s5" d="m124.07 303.5q0.12 0.52-0.01 1.03-0.62-0.52-1.23-1.03 0.62-0.07 1.24 0z"/>
			<path class="s6" d="m198.46 93.36q2.03-0.67 4.08-1.34 1.26-0.36 2.51-0.72c1.42 0.09 2.77-0.07 3.88-0.93q0.67-0.13 1.34-0.25 3.23-0.5 6.47-1.01c6.94 1.84 13.91 0.94 20.87 0.07q1.36 0.13 2.72 0.27 1.91 0.39 3.83 0.79 3.93 1.09 7.86 2.18 0.41 0.34 0.99 0.29 0.76 0.55 1.53 1.09c-3.69 2.47-6.34-1-9.55-1.11-2.23-0.07-5.48-1.19-6.46 0.83-1.11 2.31 1.67 3.19 4.18 3.62 1.24 0.22 1.37 1.26 1.51 2.16-18.33-3.43-35.63-1.22-51.93 6.54-0.66-2.91 4.12-3.42 4.02-6.2-2.89-1.17-5.95-0.23-8.82-0.76 2.95-2.78 7.38-3.56 10.97-5.52z"/>
			<path class="s8" d="m187.46 98.9c2.86 0.52 5.93-0.42 8.83 0.75 0.09 2.78-4.69 3.28-4.02 6.2l-0.15-0.12c-1.21-0.1-2.28 0-2.58 1.23l0.22 0.3c-3.11-0.93-4.74 0.89-6.57 2.41-2.74 2.27-5.44 4.59-8.28 6.77-1.09 0.84-2.1 2.76-4.14 1.06-1.54-1.3-0.78-2.7 0.21-3.92 1.28-1.59 3.41-2.86 2.54-5.16q0.45-0.37 0.9-0.74 1.45-0.21 1.77-1.42 0.52-0.37 1.03-0.75 0.83-0.61 1.64-1.2 0.66-0.45 1.33-0.9 0.64-0.46 1.28-0.91 1.12-0.68 2.24-1.36c1.7 0.13 2.86-0.33 3.02-1.9q0.24-0.36 0.73-0.34z"/>
			<path class="s6" d="m186.73 99.24c-0.16 1.58-1.32 2.04-3.02 1.9q1.51-0.95 3.02-1.9z"/>
			<path class="s6" d="m176.19 106.26q-0.32 1.2-1.77 1.42 0.88-0.7 1.77-1.42z"/>
			<path class="s6" d="m178.86 104.31q-0.82 0.61-1.64 1.2 0.81-0.59 1.64-1.2z"/>
			<path class="s6" d="m181.47 102.5q-0.64 0.45-1.28 0.91 0.63-0.46 1.28-0.91z"/>
			<path class="s2" d="m301.61 183.89c1.42-8.71 3.82-17.32 2.9-26.21q0.92-0.57 1.82-1.14 0.24 1.17 0.47 2.34 0 8.16-0.01 16.3c-1.89 1.34-2.95 2.91-2.65 5.11 0.22 1.6 0.25 3.36-2.53 3.6z"/>
			<path class="s3" d="m306.79 175.19q0.01-8.16 0.01-16.3c0.97 0.34 2.31 0.46 2.84 1.07 2.45 2.83 0.52 12.55-2.85 15.23z"/>
			<path class="s0" d="m300.78 139.28c-0.69-0.98-1.54-1.91-1.27-3.16 2.38 0.3 2.08 1.76 1.93 3.15q-0.32-0.01-0.66 0.01z"/>
			<path class="s7" d="m141.06 255.65c2.09 0.19 4.84-0.75 5.27 2.2q-1.99-0.05-3.98-0.09-0.65-1.05-1.29-2.11z"/>
			<path class="s8" d="m244.19 99.31c-0.13-0.9-0.26-1.94-1.51-2.16-2.51-0.43-5.29-1.3-4.18-3.62 0.98-2.03 4.23-0.9 6.47-0.82 3.21 0.09 5.87 3.57 9.54 1.1q1.36 0.3 2.72 0.59 1.99 1.11 3.98 2.22c-0.04 2.48 1.85 2.57 4.05 2.26l0.13-0.08c0.85 5.55-5.06 4.06-8.2 5.46q-6.49-2.49-13-4.95z"/>
			<path class="s3" d="m237.6 89.18c-6.96 0.86-13.93 1.76-20.88-0.06q0.02-0.46 0.04-0.91c6.95 0.48 14.03-1.23 20.84 0.97z"/>
			<path class="s0" d="m216.78 88.21q-0.02 0.46-0.04 0.91-3.24 0.5-6.47 1c1.07-3.21 4.25-1.46 6.51-1.91z"/>
			<path class="s0" d="m244.14 90.24q-1.91-0.4-3.82-0.79c1.99-2.15 3.14-1.49 3.82 0.79z"/>
			<path class="s0" d="m253.01 92.71q-0.59 0.05-0.99-0.29c0.17-0.79 0.41-2 1.58-1.5 1.26 0.53 0.22 1.31-0.59 1.79z"/>
			<path class="s3" d="m208.91 90.37c-1.09 0.86-2.44 1.02-3.87 0.93 1.02-1.13 2.46-0.96 3.87-0.93z"/>
			<path class="s6" d="m265.27 98.87c-2.21 0.31-4.09 0.22-4.05-2.26 1.65 0.39 3.17 0.92 4.05 2.26z"/>
			<path class="s1" d="m158.17 125.22q-2.63 5.15-5.26 10.3c-0.26-4.14 0.39-7.97 5.26-10.3z"/>
			<path class="s1" d="m159.64 123.04q-0.77 1.1-1.54 2.23c0-0.99 0.19-1.9 1.54-2.23z"/>
			<path class="s0" d="m285.65 113.53c-1.1-0.01-1.5-0.67-1.84-1.38 1.01 0.1 1.83 0.36 1.84 1.38z"/>
			<path class="s7" d="m150.16 257.84q0.06-3.1 0.12-6.2 24.76-0.24 49.52-0.47 1.93 0.01 3.86 0.02 30.05 0 60.09 0.01 20.17 0.2 40.34 0.39c-2.53 3.1-1.79 4.47 2.91 4.09 2.51-0.2 5.07-0.03 7.59-0.04q0.66 0.02 1.33 0.03-0.65 1.08-1.3 2.16c-45.5 0.04-91.02 0.1-136.52 0.13-9.31 0.01-18.62-0.08-27.94-0.12z"/>
			<path class="s8" d="m338.08 342.64q0-2.16 0-4.32c3.21-0.36 2.58-2.43 2.63-4.17 0.08-2.35 0.02-4.7 0.16-7.04 0.09-1.51 1.53-2.27 3.06-2.4 2.41-0.2 1.98 1.53 1.98 2.66q0.05 21.13 0.01 42.27c0 1.42 0.17 3.11-2.29 3.26-2.94 0.17-2.86-1.69-2.88-3.33-0.02-7.41 0.03-14.81-0.06-22.22-0.03-1.8 1.02-4.2-2.61-4.71z"/>
			<path class="s10" d="m325.08 289.39q0.01 1.09-0.01 2.17c-1.8 0.11-2.57 0.96-2.6 2.43-0.08 2.88-2.2 4.35-5.23 5.18-7.07 0-14.16-0.36-21.18 0.1-6.43 0.42-8.54-1.65-7.54-6.64-0.13-2.71 0.06-5.45-0.45-8.11-0.6-3.15 1.82-4.98 4.42-4.72 9 0.9 17.19-3.26 26.07-2.41q1.96 0.01 3.9 0.03c3.56 3.58 2.42 7.88 2.62 11.97z"/>
			<path class="s8" d="m318.56 277.39c-8.88-0.85-17.06 3.31-26.07 2.41-2.6-0.26-5.02 1.57-4.42 4.72 0.51 2.66 0.32 5.4 0.45 8.11q-0.74-0.68-1.48-1.36c-0.06-1.4 0.1-2.77-0.62-4.18-1.07-2.09-2.32-3.96-5.3-3.99-3.19-0.03-5.09 1.66-5.91 4.1-0.4 1.17-0.33 2.45-0.47 3.67q-0.92 0.88-1.86 1.76c0.8-2.75-3.8-4.22-2.18-7.46 1.99-3.95-0.63-5.53-5.4-5.64-4.6-0.11-9.04 0.36-13.75-1.61-3.73-1.56-9.42 0.85-11.94 3.01-6.37 5.48-3.22 13.72 6.07 15.27 6.79 1.13 13.43 3.78 20.66 2.97q0 1.08 0 2.16c-7.35 0-14.7 0.07-22.05-0.02-7.93-0.1-10.57-2.39-10.58-8.88 0-3.6 0.14-7.21-0.05-10.8-0.12-2.15 0.52-3.86 2.58-5.17 1.32-0.45 3.27 0.33 3.96-1.38q37.88 0.15 75.77 0.29 1.3 1 2.59 2.02z"/>
			<path class="s9" d="m266.34 301.33q0-1.08 0-2.16c5.04-0.2 6.16-3.1 6.54-6.54q0.92-0.88 1.86-1.75c4.76 5.02 7.1 5.1 12.31 0.39q0.74 0.68 1.49 1.36c-1.01 4.99 1.11 7.06 7.53 6.64 7.01-0.46 14.12-0.11 21.18-0.1q0 1.07 0 2.16-25.46 0-50.91 0z"/>
			<path class="s8" d="m325.08 289.39c-0.2-4.09 0.93-8.39-2.62-11.97 1.97 0.19 5.17-0.59 4.95 1.98-0.29 3.34 2.79 7.4-2.33 9.99z"/>
			<path class="s8" d="m317.24 301.32q0-1.07 0-2.16c3.03-0.83 5.15-2.3 5.23-5.18 0.04-1.47 0.8-2.32 2.6-2.43 0.03 4.72-0.23 9.29-7.83 9.77z"/>
			<path class="s7" d="m330.38 280.67q5.83 3.26 0.02 6.53-0.02-3.26-0.02-6.53z"/>
			<path class="s9" d="m195.87 299.17q-0.01 1.07-0.01 2.14-31.32 0-62.64-0.01-0.63-0.52-1.26-1.04 0-0.55 0-1.09 2.6-0.01 5.2-0.01c2.58 0 5.15 0.08 7.72-0.01 5.75-0.22 13.06 1.98 16.86-0.85 4.23-3.16 0.86-9.47 1.53-14.35 4.27-0.93 5.29-3.21 3.91-6.51q0-1.06 0-2.12 20.23 0.03 40.48 0.06-0.65 0.49-1.29 0.99-0.66 0.53-1.31 1.06-1.31 0.02-2.62 0.03c-7.21 0.21-13.95 2.72-21.4 2.53-3.71-0.1-3.78 3.35-1.35 5.7 2.74 2.65 2.56 5.01-0.18 7.59-0.98 0.93-3.34 1.69-1.95 3.47 1.2 1.53 2.86 2.56 5.37 2.46 3.45-0.14 6.89-0.03 10.35-0.03q1.27-0.02 2.59-0.01zm-24.61-15.32c-3.95 0.09-6.28 1.7-6.39 4.95-0.1 3.19 2.07 5.28 5.85 5.44 3.88 0.16 6.16-1.98 6.35-5.03 0.18-3.12-1.95-5.07-5.81-5.36z"/>
			<path class="s11" d="m195.87 299.17q-1.31-0.01-2.61-0.01c1.9-4.24 6.15-4.37 10.63-4.4 2.71-0.01 5.83 0.92 8.01-1.17 3.95-3.77 0.08-13.14-5.75-13.96-1.81-0.26-3.53-0.22-3.75-2.19q1.31-0.01 2.62-0.03 0.66-0.53 1.31-1.06 0.65-0.49 1.29-0.99 0.65 0.02 1.31 0.04 0.64 0.8 1.29 0 0.65-0.01 1.28-0.02c0.04 0.18 0.03 0.46 0.14 0.52 10.15 4.34 5.68 12.18 6.24 18.71 0.29 3.26-2.71 4.58-6.5 4.56-5.17-0.03-10.34 0-15.51 0z"/>
			<path class="s8" d="m131.94 299.17q0 0.54 0 1.09 0 0.52 0.02 1.04c-5.83 0.25-8.01-2.3-7.88-6.88 0.13-4.63 0.08-9.28-0.01-13.91-0.03-1.48 0.84-3.35-1.79-4.09 0.35-1.18 1.49-1.09 2.56-1.09q21.16-0.01 42.32-0.01 0 1.06 0 2.12-11.64 0-23.28-0.01c-17.5 0-17.42 0-17.23 14.76 0.04 3.42 1.05 5.95 5.29 6.98z"/>
			<path class="s9" d="m94.05 269.59c0.38-1.41 0.88-2.52 2.64-0.83-0.5 1.12-1.57 0.99-2.64 0.83z"/>
			<path class="s8" d="m210.22 275.4q-0.65 0.8-1.29 0 0.64 0 1.29 0z"/>
			<path class="s8" d="m105.85 344.31c0-9.65-0.02-18 0.04-26.35 0-0.61 0.42-1.47 1-1.78 1.15-0.62 1.93 0.32 2.69 0.91 1.39 1.09 1.47 2.52 1.46 3.98-0.01 5.21-0.13 10.42 0.04 15.63 0.1 2.79-1.3 4.78-5.23 7.61z"/>
			<path class="s8" d="m225.85 266.54c-11.31 0-22.62 0.02-33.91-0.03-1.81-0.01-4.22 0.62-4.94-1.58-0.77-2.36 1.87-2.97 3.46-4.07 1.47-1.01 3.27-0.85 5.01-0.85q31.95-0.01 63.91 0c2.85 0 5.8-0.37 5.72 3.36-0.08 3.84-3.28 3.14-5.97 3.15-11.11 0.04-22.19 0.02-33.28 0.02z"/>
			<path class="s8" d="m333.53 266.53q-8.13 0-16.24 0c-1.99 0-4.15 0.01-4.85-1.93-0.87-2.47 2.15-2.76 3.62-3.86 0.58-0.43 1.59-0.64 2.4-0.65 11.05-0.04 22.1-0.02 33.16-0.06 2.48-0.01 3.52 0.96 3.43 2.99-0.09 2.16-1.36 3.42-3.96 3.46-5.85 0.06-11.7 0.02-17.54 0.02q-0.02 0.01-0.02 0.03z"/>
			<path class="s9" d="m115.78 266.51q-7.16 0.01-14.33 0c-2.35-0.01-4.62-0.47-4.45-2.88 0.15-2.17 1.61-3.62 4.64-3.6 9.11 0.06 18.22-0.03 27.34 0.05 2.94 0.02 5.31 1.34 5.25 3.85-0.07 2.7-3.01 2.6-5.43 2.61q-6.51 0.01-13.02 0 0-0.02 0-0.03z"/>
			<path class="s11" d="m131.96 301.3q-0.02-0.52-0.02-1.04 0.64 0.52 1.27 1.04l-0.63 0.01z"/>
			<path class="s1" d="m283.26 197.98c-2.96 3.94-7.47 7.04-9.28 11.62-3.88 0.43-5.73 3.46-8.88 4.82 0.77-2.82 1.66-5.7-4-3.54-0.71 0.27-1.67 0.13-2.52 0.19 4.61-3.79 9.93-7.04 13.11-11.92 1.87-1.39 3.2-3.08 3.93-5.09 1.02-0.67 1.53-1.51 1.32-2.61l0.22-0.28-0.21-0.3c0.79-0.32 1.43-0.72 1.29-1.56l0.23-0.29-0.2-0.3c2.11-0.74 1.96-2.76 3.29-3.95 3.14 3.28 4.97 0.76 5.92-1.32 1.24-2.73 3.5-6.24-2.69-7.29q0.95-6.52 1.89-13.04c3.48 0.4 4.1-1.07 4.59-3.71 1.15-6.3-2.92-11.82-3.48-17.87-0.14-1.5-0.7-5.42-4.8-6.26-1.8 2.82 5.27 6.03-0.76 8.33-0.59-1.14 0.47-2.73-1.36-3.54-0.42-4.51-3.31-8.1-6.25-11.67-1.61-3-3.78-5.66-6.83-7.78q-0.73-1-1.45-2 3.87-1.16 5.25-4.38c14.05 11.15 20.36 25.18 22.22 40.95 1.78 15.2-2.28 29.34-10.55 42.79z"/>
			<path class="s1" d="m244.19 99.31q6.5 2.46 13.02 4.94 4.22 2.77 8.41 5.54c-3.17 0.04-6.28 0.15-5.98 3.89q-3.15-1.39-6.29-2.77c-2.47-2.05-5.66-2.86-8.87-3.65q-4.19-1.15-8.39-2.33c0.81-1.61 2.23-3.21-0.74-4.48-3.79-1.63-25.47 0.51-29.05 2.97-1.15 0.15-2.61-0.31-3.2 0.96-0.09 0.21 0.59 0.91 0.98 0.97 1.71 0.23 2.03-0.84 2.24-1.92 2.62-0.2 4.17 0.56 3.89 2.99-5.61 2.15-11.48 3.87-15.91 7.69l0.04-0.05q-2.32 0.67-3.58 2.43c-1.78 0.68-3.09 1.79-4.04 3.22-6 4.13-9.42 9.83-13.31 15.24-2.17-0.28-1.51-1.35-1.55-2.7-0.13-4.99 5.27-8.68 4.33-13.77 5.41-2.99 8.76-7.71 13.57-11.21 0 0-0.21-0.3-0.22-0.3 1.19 0.06 2.07-0.3 2.58-1.23l0.15 0.12c16.29-7.77 33.59-9.98 51.92-6.55z"/>
			<path class="s3" d="m259.64 113.67c-0.3-3.74 2.82-3.85 5.98-3.89 2.51 1.01 4.42 2.56 5.96 4.48q-1.39 3.23-5.25 4.38-3.36-2.48-6.69-4.97z"/>
			<path class="s1" d="m171.14 200.02q-0.57-0.48-1.14-0.96c-1.95-5.16-6.76-9.41-6.98-15.14 1.06 0.08 2.32 0.2 2.51 1.16 0.78 4.15 3.6 3.41 6.73 2.09q0.38 0.43 0.98 0.58c2.17 4.68 5.38 8.81 9.38 12.53q1.97 1.84 3.94 3.68 2.55 3.08 6.41 5.02c2.78 3.07 7.37 4.05 10.72 6.45-1.25 1.47-4.19 1.88-3.89 4.32q-0.44 0.31-0.77 0.68c-2.64-0.83-5.21-1.75-7.21-3.5-4.21-6.27-11.31-10.27-17.26-15.18-0.02-0.02-0.6 0.44-0.91 0.67q-1.26-1.19-2.51-2.4z"/>
			<path class="s7" d="m252 231.72c-0.68 2.74 1.78 3.9 3.8 5.29l0.22 0.37q-0.78 0.29-1.58 0.58-1.05 0.51-2.11 1-3.18 0.55-6.33 1.1c-13.31 2.33-26.56 2.97-39.7-0.78 2.08-1.39 6.64-1.06 5-5.01 13.82 1.92 27.37 0.99 40.7-2.55z"/>
			<path class="s1" d="m250.87 220.91c-7.29 5.04-16.12 5.33-24.9 5.32-9.51-0.01-18.65-1.62-26.93-5.79q0.34-0.38 0.77-0.68c4.44 1.6 9.39 1.11 14.05 2.78 2.55 0.92 9.1 3.53 10.75-2.6 6.1-0.11 12.12-0.63 18.01-2.02 0.84 4.62 5.32 2.33 8.25 2.99z"/>
			<path class="s8" d="m215.18 230.31c10.19-2.26 19.53-3.49 29.16-2.91 1.25 0.07 2.95-0.2 3.09 1.25 0.13 1.28-0.78 2.87-2.37 2.82-7.84-0.19-14.99 3.69-22.98 2.46-2.52-0.39-4.22-1.61-6.9-3.62z"/>
			<path class="s1" d="m211.29 234.27c1.63 3.95-2.91 3.62-5 5.01-6.71-0.93-12.77-3.17-18.33-6.4 1.56-1.71-1.66-4.62 2.09-5.78 6.79 2.99 13.84 5.46 21.24 7.17z"/>
			<path class="s3" d="m250.87 220.91c-2.93-0.66-7.41 1.63-8.25-2.99 5.71-1.64 10.81-4.3 15.98-6.84 0.84-0.06 1.8 0.08 2.52-0.19 5.65-2.16 4.76 0.71 3.99 3.54l0.03-0.04c-0.56 0.28-2.3-0.67-1.5 1.01q-1.07 0.6-2.13 1.21c-2.78 0.3-6.97-1.57-6.91 3.11q-0.55 0.1-1.11 0.1-0.74 0.5-1.47 1-0.59 0.07-1.15 0.09z"/>
			<path class="s2" d="m173.66 202.44c0.31-0.23 0.89-0.69 0.91-0.67 5.96 4.91 13.05 8.9 17.27 15.18q-1.19-0.39-2.38-0.79-8.71-5.61-15.67-12.71-0.15-0.51-0.13-1.01z"/>
			<path class="s1" d="m254.6 219.71c-0.06-4.69 4.11-2.81 6.91-3.11q-3.45 1.56-6.91 3.11z"/>
			<path class="s1" d="m263.64 215.38c-0.8-1.68 0.94-0.74 1.5-1q-0.75 0.5-1.5 1z"/>
			<path class="s1" d="m252 220.81q0.74-0.5 1.48-1c-0.28 0.55-0.52 1.13-1.48 1z"/>
			<path class="s11" d="m259.82 238.28c5.18-0.29 9.21-2.45 12.92-5.29 3.46-2.66 6.02-6.17 10.56-7.79 4.05-0.8 5.77-5.76 11.19-4.19 5.5 1.59 3.74 5.94 5.29 9.03 0.17 0.34 1.15 0.4 1.75 0.6-0.64 4.01 1.49 8.22-1.46 12.11-3.96 5.22-10.81 5.23-16.81 6.2-5.02 0.81-10.39 0.16-15.6 0.16-0.3-2.31-2.38-2.23-4.32-2.14-5.6 0.25-7.84-2.09-7.43-6.55q0.64 0 1.29 0 2.54-0.03 2.62-2.14z"/>
			<path class="s9" d="m255.91 240.44c-0.42 4.46 1.83 6.79 7.43 6.55 1.94-0.09 4.02-0.16 4.32 2.14-1.8 0.03-3.72-0.1-3.89 2.07q-30.05 0-60.09-0.01c-1.53-4.25 5.9-4.69 5.25-8.56 3.67-0.01 7.26 0.19 10.93 0.83 4.55 0.8 9.57 2.79 13.92 0.79 3.14-1.45 6.07-1.82 9.21-1.57 4.17 0.34 7.07-1.02 9.35-3.72q1.06-0.51 2.12-1c0.13 0.96 0.26 1.94 1.45 2.48z"/>
			<path class="s8" d="m255.91 240.44c-1.19-0.54-1.32-1.52-1.47-2.49q0.78-0.29 1.58-0.58 0.6 0.45 1.21 0.91-0.01 1.07-0.02 2.15-0.66 0.01-1.3 0.01z"/>
			<path class="s9" d="m257.2 240.43q0.01-1.08 0.01-2.16 1.3 0.01 2.6 0-0.07 2.12-2.61 2.16z"/>
			<path class="s1" d="m162.33 182.67c-5.33-13.69-5.71-27.38-0.07-41.08 1.95 2.22 0.85 4.75 0.94 7.13 0.09 2.27 0.61 3.82 3.8 3.64 0.31 3.67-1.5 7.29-0.27 10.98q0.14 4.29 0.26 8.58c-3.19-0.18-3.74 1.34-3.8 3.61-0.08 2.37 0.94 4.9-0.86 7.14z"/>
			<path class="s3" d="m167 152.36c-3.2 0.17-3.72-1.37-3.8-3.64-0.09-2.38 1.01-4.91-0.94-7.13 1.86-8.88 7.57-16.14 13.93-23.13 0.94 5.09-4.46 8.78-4.33 13.77 0.04 1.35-0.61 2.42 1.55 2.7-2.65 5.69-4.76 11.5-6.41 17.43z"/>
			<path class="s8" d="m150.34 162.76c0.12-3.37-1.02-6.93 1.68-9.99 0.81-0.91 1.85-1.65 3.29-1.16 1.41 0.47 0.68 1.41 0.59 2.28-0.57 5.2-1.17 10.41 0.49 15.58 0.47 1.45 0.61 3.07-1.81 3.4-2.22 0.3-3.99-0.57-4.18-2.52-0.24-2.52-0.06-5.07-0.06-7.59z"/>
			<path class="s3" d="m162.33 182.67c1.81-2.24 0.79-4.75 0.86-7.14 0.06-2.26 0.61-3.79 3.8-3.61q0.8 2.17 1.6 4.33 1.84 5.47 3.67 10.93c-3.13 1.32-5.95 2.05-6.74-2.08-0.18-0.97-1.46-1.08-2.5-1.17q-0.36-0.64-0.69-1.26z"/>
			<path class="s6" d="m173.66 202.44q-0.01 0.5 0.13 1.01c-2.86-0.08-2.73-1.76-2.65-3.42q1.25 1.2 2.52 2.41z"/>
			<path class="s11" d="m208.91 242.63c0.66 3.87-6.77 4.32-5.25 8.56q-1.93-0.01-3.86-0.02c-0.8-2.95-3.68-1.97-5.82-1.99-9.3-0.09-18.64-0.37-27.91 0.04-10.82 0.48-15.46-4.77-15.83-13.15-0.14-2.89 0.01-5.77 0.02-8.65q1.28 0 2.56-0.01c0 9.83 5.33 14.93 17 16.26 1.5 0.18 3.03 0.19 4.51 0.4 5.61 0.82 8.47-1.99 6.69-6.56-0.8-2.07-3.35-3.39-3.43-5.75 1.29 0.02 2.6-0.04 3.64 0.81 7.71 6.27 18.05 7.5 27.68 10.06z"/>
			<path class="s8" d="m208.91 242.63c-9.63-2.56-19.97-3.79-27.68-10.06-1.04-0.85-2.35-0.79-3.64-0.81-0.82-3.13-5.6-3.49-6.57-6.52q1.53-0.08 3.06-0.16c4.45 2.83 8.64 5.96 13.89 7.81 5.56 3.23 11.62 5.47 18.33 6.4 13.14 3.75 26.39 3.11 39.7 0.78q3.16-0.56 6.33-1.1c-2.29 2.69-5.18 4.06-9.35 3.72-3.15-0.25-6.07 0.12-9.22 1.57-4.35 2-9.36 0.01-13.92-0.79-3.67-0.65-7.26-0.85-10.93-0.84z"/>
			<path class="s10" d="m171.02 225.23c0.98 3.03 5.76 3.38 6.57 6.52 0.08 2.35 2.62 3.67 3.43 5.75 1.78 4.56-1.08 7.38-6.69 6.56-1.49-0.21-3.02-0.23-4.51-0.4-11.67-1.32-17.01-6.42-17-16.26-1.38-4.43 3.68-4.51 6.24-5.93 2.31-1.29 5.17-0.96 7.47 1.04 1.24 1.09 2.26 2.68 4.49 2.72z"/>
			<path class="s6" d="m192.12 105.73c-0.51 0.93-1.39 1.29-2.58 1.23 0.3-1.23 1.38-1.33 2.58-1.23z"/>
			<path class="s10" d="m272.88 292.63c-0.36 3.44-1.5 6.34-6.54 6.54-7.23 0.81-13.87-1.84-20.66-2.97-9.29-1.55-12.44-9.78-6.07-15.27 2.52-2.16 8.21-4.57 11.94-3.01 4.71 1.97 9.15 1.5 13.75 1.61 4.77 0.11 7.39 1.69 5.4 5.64-1.62 3.24 2.98 4.71 2.18 7.46z"/>
			<path class="s7" d="m287.05 291.27c-5.21 4.71-7.55 4.63-12.31-0.39 0.14-1.23 0.07-2.5 0.46-3.68 0.83-2.44 2.73-4.13 5.92-4.1 2.98 0.03 4.24 1.9 5.3 3.99 0.72 1.41 0.58 2.78 0.63 4.18z"/>
			<path class="s10" d="m202.4 277.44c0.22 1.97 1.94 1.93 3.75 2.19 5.83 0.84 9.7 10.19 5.75 13.96-2.18 2.09-5.31 1.16-8.01 1.17-4.48 0.02-8.73 0.15-10.63 4.4-3.45 0-6.91-0.11-10.36 0.03-2.5 0.1-4.16-0.93-5.36-2.46-1.4-1.78 0.95-2.54 1.94-3.47 2.76-2.58 2.93-4.94 0.19-7.59-2.45-2.35-2.37-5.81 1.34-5.71 7.44 0.2 14.18-2.3 21.39-2.52z"/>
			<path class="s10" d="m163.25 283.94c-0.65 4.89 2.71 11.19-1.52 14.35-3.8 2.84-11.1 0.64-16.86 0.85-2.57 0.09-5.15 0.01-7.72 0.01 1.43-3.33-2.99-4.75-3.54-7.99-1.6-9.7-2.41-9.64 8.62-9.4 7.09 0.16 14.36-0.94 21.02 2.18z"/>
			<path class="s11" d="m163.25 283.94c-6.64-3.12-13.93-2.02-21-2.17-11.04-0.24-10.22-0.31-8.62 9.4 0.53 3.25 4.95 4.66 3.53 7.99q-2.6 0-5.2 0.01c-4.25-1.03-5.25-3.56-5.29-6.98-0.2-14.77-0.28-14.77 17.22-14.76q11.64 0.01 23.28 0.01c1.37 3.29 0.35 5.57-3.92 6.5z"/>
			<path class="s7" d="m171.26 283.85c3.88 0.29 6 2.24 5.81 5.35-0.2 3.05-2.48 5.2-6.35 5.03-3.78-0.16-5.94-2.25-5.85-5.44 0.09-3.24 2.44-4.85 6.39-4.94z"/>
			<path class="s8" d="m206.34 276.35q-0.65 0.53-1.3 1.06 0.64-0.52 1.3-1.06z"/>
			<path class="s4" d="m182.62 200.29c-4-3.72-7.21-7.85-9.38-12.53 0.32-1.9 1.69-3.24 3.23-4.57 10.53-9.09 21.02-18.23 31.5-27.37 1.48-1.29 3.41-2.33 3.69-4.33 7.49-5.52 14.01-11.75 19.65-18.63 7.95-6.9 16.87-13.12 22.03-21.96q3.14 1.38 6.29 2.77 3.34 2.49 6.68 4.97 0.73 1 1.45 2c-1.63 3.71-5.64 5.83-8.38 8.77-5.63 6.05-13.31 10.63-17.91 17.39l-0.03 0.08q-0.63 0.52-1.25 1.04l-0.06 0.04q-0.62 0.53-1.25 1.05l-0.08 0.02c-1.66 0.07-2.44 0.87-2.61 2.18q-2.57 2.17-5.13 4.35c-0.98 0.48-1.35 1.24-1.35 2.14l-0.02 0.04q-0.63 0.53-1.26 1.05l-0.05 0.04q-0.7 0.51-1.39 1.02-1.9 1.64-3.82 3.28-0.62 0.56-1.25 1.1c-0.99 0.49-1.35 1.25-1.33 2.17l-0.03 0.04q-0.62 0.52-1.27 1.05l-0.03 0.03q-0.65 0.58-1.3 1.15-0.19 0.44-0.21 0.9c-5.1 2.28-9.1 5.48-11.56 9.91-8.14 5.64-14.68 12.45-20.86 19.54q-1.35 0.64-2.71 1.27z"/>
			<path class="s12" d="m231.07 155.56q2.57-2.18 5.13-4.35 0.73 0.02 1.44 0.05c2.82 1.38 5.68 2.2 9.05 1.3 1.97-0.52 4.9-0.07 4.72 1.66-0.57 5.72 5.36 7.65 8.28 11.35 5.11 6.48 9.22 13.51 13.74 20.31 0.87 1.31 0.59 3.4 3.34 3.45q0.1 0.78 0.21 1.56l0.21 0.3-0.22 0.28c-1.33 0.56-1.41 1.56-1.32 2.61q-1.12 3-3.93 5.09c-3.23-0.78-5.05 2.09-7.97 2.14-3.34-1.32-5.82-3.35-8.17-5.76-2.76-2.81-5.12-5.71-9.22-7.92-7.81-4.2-15.03-9.44-19.26-16.83-1.43-2.51-0.39-5.9-3.9-7.65q1.9-1.64 3.81-3.27 0.7-0.51 1.4-1.03l0.05-0.04q0.63-0.52 1.25-1.05l0.03-0.04c1.14-0.42 1.33-1.25 1.33-2.16z"/>
			<path class="s13" d="m276.77 189.33c-2.75-0.06-2.47-2.15-3.34-3.45-4.52-6.8-8.62-13.83-13.74-20.31-2.91-3.7-8.84-5.63-8.27-11.35 0.17-1.73-2.76-2.17-4.73-1.66-3.37 0.89-6.23 0.08-9.05-1.3 1.06-0.5 1.27-1.31 1.16-2.23l0.08-0.02q0.63-0.53 1.25-1.05l0.06-0.04q0.62-0.52 1.25-1.05l0.03-0.07c8.44 0.79 13.09-3.83 18.34-8.25 4.45-3.74 5.77-10.98 14.8-10.13 2.93 3.58 5.83 7.17 6.25 11.68-5.35 7.61-6.7 15.87-6.95 24.61-0.13 4.71-0.35 9.06 1.96 13.49 1.71 3.27 2.46 6.88 2.39 10.53l0.2 0.3-0.24 0.29q-0.7 0.01-1.45 0.01z"/>
			<path class="s14" d="m263.74 201.29c2.91-0.04 4.74-2.9 7.97-2.13-3.19 4.88-8.5 8.13-13.11 11.92-5.17 2.54-10.27 5.21-15.98 6.84-5.89 1.39-11.91 1.91-18.01 2.02q-3.23-0.21-6.46-0.42-0.79-0.18-1.58-0.36-6.44-1.86-12.86-3.71c-3.37-2.39-7.96-3.38-10.72-6.45 2.44-0.49 4.5 0.86 6.81 1 7.08-0.12 13.72-0.72 21.04 1.82 10.78 3.74 21.54-0.73 31.14-4.98 3.89-1.74 9.51-1.33 11.76-5.55z"/>
			<path class="s14" d="m278.27 188.74c0.07-3.65-0.69-7.26-2.39-10.53-2.31-4.43-2.08-8.78-1.95-13.49 0.23-8.73 1.58-17 6.94-24.61 1.83 0.8 0.79 2.39 1.36 3.53 2.1 3.82 2.83 7.96 3.98 12q0.24 2.83 0.47 5.66 0.01 0.93 0.02 1.85-0.95 6.52-1.9 13.05-1.61 4.3-3.22 8.6c-1.33 1.18-1.2 3.2-3.31 3.94z"/>
			<path class="s14" d="m274.61 128.42c-9.03-0.84-10.35 6.39-14.8 10.13-5.26 4.42-9.91 9.05-18.34 8.25 4.62-6.76 12.28-11.34 17.91-17.39 2.74-2.94 6.75-5.07 8.38-8.77 3.07 2.13 5.24 4.78 6.85 7.78z"/>
			<path class="s3" d="m286.2 155.63c-1.14-4.03-1.87-8.18-3.98-12 6.03-2.3-1.05-5.5 0.75-8.33 4.1 0.84 4.68 4.76 4.81 6.27 0.56 6.05 4.62 11.56 3.47 17.86-0.48 2.64-1.11 4.11-4.58 3.71q-0.01-0.92-0.01-1.85c2.35-2.02 3.35-3.98-0.46-5.66z"/>
			<path class="s3" d="m281.58 184.79q1.61-4.3 3.22-8.6c6.19 1.04 3.93 4.55 2.69 7.28-0.95 2.08-2.78 4.61-5.91 1.32z"/>
			<path class="s14" d="m275.64 194.08c-0.09-1.05-0.02-2.05 1.31-2.61 0.21 1.1-0.31 1.94-1.31 2.61z"/>
			<path class="s14" d="m276.77 189.33q0.74 0 1.48 0c0.14 0.85-0.5 1.24-1.28 1.56q-0.1-0.78-0.2-1.56z"/>
			<path class="s4" d="m168.59 176.25q-0.8-2.16-1.6-4.33-0.14-4.29-0.26-8.58c1.34-0.86 3-1.52 3.98-2.59 8.77-9.68 19.72-17.85 27.9-27.92 3.49-2.55 7.48-4.7 9.08-8.63q0.71-0.56 1.43-1.13 0.6-0.52 1.19-1.04c6.88-5.16 12.76-11.06 18.25-17.23q3.77 0.06 7.53 0.12 4.18 1.16 8.39 2.33c-0.34 2.81-3.11 4.19-5.02 6.08-4.43 4.34-10.69 7.34-13.62 12.78-8.43 6.19-15.97 13.01-22.29 20.77-10.53 8.06-19.01 17.64-28.61 26.4-1.82 1.65-3.24 3.43-6.35 2.97z"/>
			<path class="s14" d="m198.61 132.82c-8.2 10.07-19.13 18.24-27.9 27.92-0.98 1.08-2.64 1.74-3.98 2.58-1.23-3.67 0.58-7.31 0.27-10.97q2.46-8.91 6.41-17.42c3.89-5.42 7.3-11.11 13.31-15.24-0.89 12.85 0.51 14.39 11.89 13.13z"/>
			<path class="s13" d="m198.61 132.82c-11.38 1.26-12.78-0.28-11.91-13.13 0.94-1.43 2.26-2.54 4.05-3.22 1.97-0.02 3.92-0.05 3.58-2.43l-0.04 0.04c2.14 0.07 4.3 0.18 6.44 0.2 8.04 0.05 8.88 0.73 9.57 7.74q-0.59 0.52-1.2 1.04-0.72 0.57-1.44 1.13c-1.57 3.93-5.56 6.09-9.05 8.63z"/>
			<path class="s14" d="m225.82 126.11c2.94-5.44 9.19-8.44 13.62-12.78 1.93-1.89 4.7-3.28 5.03-6.08 3.2 0.8 6.4 1.6 8.87 3.65-5.15 8.84-14.08 15.07-22.03 21.96-2.94-1.62-4.68-3.92-5.49-6.75z"/>
			<path class="s14" d="m210.31 122.02c-0.69-7.02-1.53-7.69-9.57-7.74-2.14-0.01-4.3-0.12-6.44-0.2 4.43-3.81 10.32-5.53 15.91-7.68 6.07-0.9 12.04-2.63 18.35-1.61-5.49 6.18-11.37 12.08-18.25 17.23z"/>
			<path class="s3" d="m228.56 104.8c-6.31-1.02-12.28 0.71-18.35 1.61 0.28-2.42-1.26-3.19-3.89-2.99l-0.02-0.01c3.58-2.46 25.27-4.6 29.05-2.97 2.96 1.27 1.53 2.87 0.74 4.48q-3.76-0.06-7.53-0.12z"/>
			<path class="s3" d="m206.32 103.42c-0.2 1.09-0.51 2.16-2.24 1.92-0.4-0.06-1.08-0.78-0.98-0.97 0.59-1.28 2.05-0.81 3.2-0.96z"/>
			<path class="s14" d="m194.33 114.04c0.34 2.38-1.62 2.42-3.58 2.43q1.26-1.76 3.58-2.43z"/>
			<path class="s12" d="m199.79 209.99c-2.31-0.13-4.38-1.49-6.82-1q-3.84-1.94-6.41-5.02c0.41-1.78-0.13-3.42-1.23-4.94 6.18-7.08 12.72-13.9 20.86-19.54q0.71 0.02 1.42 0.05c1.3 2.66 7.35 2.89 6.15 6.27-2.69 7.62-0.08 17.54-12.31 21.41-1.27 0.43-1.58 1.64-1.66 2.77z"/>
			<path class="s14" d="m168.59 176.25c3.1 0.46 4.52-1.32 6.34-2.97 9.58-8.76 18.08-18.34 28.6-26.41 4.16-0.22 6.27 2.05 8.14 4.62-0.29 2-2.22 3.03-3.68 4.33q-15.73 13.71-31.51 27.37c-1.54 1.33-2.92 2.67-3.23 4.57q-0.6-0.15-0.97-0.58-1.85-5.46-3.69-10.93z"/>
			<path class="s3" d="m203.7 215.44q6.44 1.85 12.87 3.71c0.32 0.74 0.64 1.51 1.58 0.36q3.23 0.21 6.46 0.42c-1.63 6.13-8.19 3.52-10.75 2.6-4.66-1.67-9.61-1.17-14.05-2.78-0.3-2.43 2.64-2.84 3.89-4.31z"/>
			<path class="s14" d="m185.35 199.03c1.09 1.54 1.63 3.16 1.22 4.94q-1.97-1.84-3.94-3.68 1.35-0.64 2.72-1.26z"/>
			<path class="s13" d="m199.79 209.99c0.08-1.13 0.39-2.34 1.68-2.75 12.22-3.88 9.61-13.8 12.32-21.42 1.2-3.39-4.85-3.61-6.16-6.27 3.77-0.59 6.44-2.81 9.26-4.64 1.91-1.24 3.95-3.17 0.89-5.33q0.03-0.46 0.21-0.91 0.65-0.57 1.29-1.15l0.04-0.03q0.63-0.53 1.27-1.05l0.02-0.04c1.17-0.42 1.35-1.25 1.34-2.17q0.62-0.56 1.25-1.1c3.51 1.75 2.45 5.13 3.9 7.65 4.23 7.38 11.45 12.63 19.26 16.83 4.1 2.21 6.46 5.11 9.22 7.92 2.36 2.4 4.83 4.44 8.17 5.75-2.23 4.22-7.87 3.82-11.77 5.54-9.6 4.24-20.35 8.72-31.14 4.97-7.33-2.52-13.98-1.92-21.05-1.8z"/>
			<path class="s12" d="m211.67 151.49c-1.87-2.57-3.97-4.84-8.13-4.62 6.31-7.75 13.86-14.57 22.28-20.76 0.81 2.82 2.55 5.13 5.49 6.75-5.63 6.88-12.13 13.11-19.64 18.63z"/>
			<path class="s14" d="m217.77 169.58c3.05 2.16 1.02 4.09-0.89 5.33-2.82 1.83-5.5 4.04-9.26 4.64q-0.71-0.03-1.42-0.05c2.47-4.44 6.46-7.63 11.57-9.92z"/>
			<path class="s14" d="m238.81 149.03c0.11 0.92-0.1 1.73-1.16 2.23q-0.72-0.03-1.43-0.05c0.14-1.32 0.94-2.11 2.59-2.18z"/>
			<path class="s14" d="m221.93 164.24c0.01 0.91-0.17 1.75-1.33 2.17-0.03-0.92 0.34-1.68 1.33-2.17z"/>
			<path class="s14" d="m231.07 155.56c0 0.91-0.19 1.74-1.34 2.14 0-0.9 0.36-1.66 1.34-2.14z"/>
			<path class="s14" d="m219.28 167.53q-0.64 0.58-1.29 1.15 0.64-0.57 1.29-1.15z"/>
			<path class="s14" d="m220.57 166.45q-0.62 0.53-1.26 1.05 0.63-0.52 1.26-1.05z"/>
			<path class="s14" d="m229.69 157.74q-0.63 0.53-1.25 1.05 0.64-0.52 1.25-1.05z"/>
			<path class="s14" d="m228.4 158.83q-0.7 0.51-1.4 1.02 0.69-0.5 1.4-1.02z"/>
			<path class="s1" d="m218.15 219.52c-0.94 1.15-1.26 0.38-1.58-0.36q0.78 0.16 1.58 0.36z"/>
			<path class="s1" d="m286.2 155.63c3.81 1.68 2.79 3.64 0.47 5.66q-0.24-2.83-0.47-5.66z"/>
			<path class="s14" d="m207.69 124.2q0.71-0.56 1.43-1.13-0.72 0.56-1.43 1.13z"/>
		</g>
	</g>
</svg>