<svg version="1.2" xmlns="http://www.w3.org/2000/svg" viewBox="0 0 406 401" width="406" height="401">
	<defs>
		<clipPath clipPathUnits="userSpaceOnUse" id="cp1">
			<path d="m0 0h406v401h-406z"/>
		</clipPath>
	</defs>
	<style>
		.s0 { fill: #201b50 } 
		.s1 { fill: #241b3b } 
		.s2 { fill: #2a1d41 } 
		.s3 { fill: #375176 } 
		.s4 { fill: #efedf3 } 
		.s5 { fill: #1c2441 } 
		.s6 { fill: #38221b } 
		.s7 { fill: #e1bb8a } 
		.s8 { fill: #1d4a82 } 
		.s9 { fill: #214579 } 
		.s10 { fill: #efb860 } 
		.s11 { fill: #f3ba50 } 
		.s12 { fill: #f5b940 } 
		.s13 { fill: #154b88 } 
		.s14 { fill: #f3b739 } 
	</style>
	<g id="Clip-Path" clip-path="url(#cp1)">
		<g>
			<path class="s0" d="m142.56 102.42q0.97-0.83 1.94-1.67c4.26-0.69 6.71-3.55 9.56-5.68 6.99-5.21 16.52-5.7 24.41-9.17 1.57-0.7 2.88-1.85 5.03-1.95 10.03-0.5 19.37-1.2 29.54 2.73 8.04 3.12 16.56 7.14 26.17 7.56 4.67 0.82 9.07 2.54 13.94 2.72l-0.06-0.05c-0.02 2.06 1.72 2.01 3.51 1.91l-0.08-0.05q0.62 0.5 1.24 0.99l-0.09-0.07q0.62 0.5 1.25 1l-0.07-0.06c-0.15 1.4-0.25 2.78 2.16 2.94 2.91 4.97 6.31 9.56 7.88 15.25 1.29 4.67 4.66 9.76 9.26 13.65q0.16 0.88 0.32 1.76c-2.22 1.44-1.35 3.46-1.29 5.21 0.75 18.24-1.04 36.46 1.82 54.75 1.57 9.99 6.6 17.77 13.99 25.01 3.67 3.59 3.26 6.78-2.28 8.32-6.59 1.82-13.28 3.19-20.16 4.3-10.03 1.63-20 3.36-30.21 4.1 0-1.1-0.31-2.01-1.28-2.94-4.84-4.67-5.34-11.02-1.43-16.05 6.8-8.74 14.84-16.85 17.39-27.5 1.2-5 4.44-9.68 3.72-15.02 0.97-0.14 2.09-0.44 2.1-1.27q0.14-8.06 0-16.12c-0.01-0.83-1.13-1.13-2.09-1.27q0-0.46 0-0.93c-0.24-1.46 0.8-3.45-2.34-3.7q0.01-1.87-2.29-1.87c1.27-3.49-2.76-3.93-4.86-5.31-7.64-5.04-13.6-11.4-20.45-17.05q-2.2-0.1-2.27-1.88c-3.34-4.53-3.7-4.34-8.43-1.28-5.73 3.69-9.69 8.92-16.69 11.56-5.13 1.95-10.68 3.39-15.1 6.48-11.08 1.32-21.42 3.61-31.58 8.23-9.58 4.37-11.58 9.75-11.02 17.42 0.38 5.25 0.09 10.55 0.07 15.82-0.01 1.87 0.45 3.5 1.55 5.28 3.74 6.02 8.57 11.5 12.59 17.39 2.54 3.73 3.33 8.54 7.39 11.2 5.12 3.35 3.67 7.42 3.65 11.39-0.01 2.34-7.88 8.22-10.09 7.85-12.59-2.17-25.7-1.78-38.05-5.13-2.58-3-7.51-2.69-10.74-5.14-3.29-2.5-3.62-3.93-0.62-6.75 4.31-4.07 9.26-8.25 11.44-13.1 2.8-6.22 3.48-13.14 4.41-19.82 0.91-6.54 0.76-13.12 0.27-19.75-0.67-9.11-0.01-18.28-0.21-27.42-0.18-8.12 3.68-15.24 7.39-22.5 2.6-5.12 8.18-8.82 9.79-14.32z"/>
			<path class="s1" d="m240.36 235.92c10.2-0.73 20.17-2.47 30.2-4.09 6.88-1.11 13.57-2.49 20.16-4.31 5.54-1.54 5.95-4.72 2.28-8.32-7.4-7.25-12.44-15.02-13.99-25.01-2.85-18.29-1.06-36.51-1.81-54.74-0.07-1.76-0.93-3.78 1.28-5.22 2.33 2.96 1.27 6.31 1.67 9.49-1.1 2.44-1.14 4.88 0.08 7.32-0.22 3.82-0.17 7.6-1.6 11.38-0.81 2.2-1.02 4.95 0.41 7.25 0.92 1.49 0.78 3.03 0.76 4.5-0.26 14.17 4.66 27.29 11.8 40.04 1.26 2.25 3.55 3.51 5.38 5.21 3.56 3.32 3 5.22-1.39 7.76-6.64 3.82-14.7 4.51-21.9 7.05-10.11 1.36-20.23 2.72-32.16 4.34 8.35 3.23 15.1 5.85 21.85 8.47l0.04 0.05c0.01 0.57 0.24 0.94 1.07 0.78 12.83 2.95 25.09 6.94 35.88 13.46 5.56 3.36 9.01 8.05 11.04 13.29 3.22 8.25 6.57 16.51 7.38 25.24 0.53 5.81 0.45 5.86-7.08 5.66q-0.01-0.76-0.02-1.53c3.51 0.35 4.63-0.91 4.58-3.73-0.11-5.9-2.42-11.33-4.66-16.81 0.49-3.98-3.42-6.65-4.63-10.14-1.81-5.26-6.28-8.99-11.49-12.21-1.57-0.54-2.58-2.01-4.57-1.89q-0.09-1.81-2.32-1.85c-4.18-2.23-8.91-3.14-13.77-3.74q-0.1-1.81-2.33-1.84-1.71-0.01-3.42-0.03c-1.2-3.55-5.5-1.53-8.19-2.89-4.64-2.33-10.21-4.49-15.98-2.55-4.06 1.37-7.19 4.26-11.48 5.45q-0.06-1.03-0.11-2.08c1.81-2.32 6.16-2.58 7.01-5.68 0.83-2.22-1.93-3.42-2.31-5.3-0.15-1.44 1.65-1.81 2.34-2.78z"/>
			<path class="s1" d="m120.82 231.22c12.36 3.34 25.47 2.96 38.05 5.13 2.2 0.38 10.06-5.5 10.09-7.85 0.02-3.97 1.47-8.04-3.65-11.39-4.06-2.66-4.84-7.46-7.4-11.2-4.01-5.89-8.85-11.38-12.58-17.39-1.09-1.77-1.55-3.41-1.55-5.28 0.03-5.27 0.32-10.57-0.07-15.82-0.56-7.67 1.45-13.04 11.02-17.42 10.15-4.63 20.49-6.92 31.58-8.23q-0.57 0.94-1.14 1.88c-0.19 0.43-0.27 1.17-0.61 1.25-5.82 1.5-11.74 2.76-17.49 4.4-5.68 1.63-12.08 2.15-16.32 6.27-2.31 0.87-0.78 2.67-1.44 3.93-3.08-0.2-2.91 1.48-3.29 3.28-1.15 5.48 3.59 10.28 2.42 15.75-0.91 4.25 1.82 7.95 3.52 11.72 5.6 12.37 16.9 21.67 26.51 31.88q-0.14 0.86-0.28 1.72c-2.32 0.34-4.02 1.67-4.24 3.3-0.67 4.78-4.66 7.98-8.11 11.21-2.61 2.45-4.14 4.67-3.63 7.81-5.55-3.24-11.32-0.73-16.28 0.57-4.19 1.09-9.83 0.99-12.49 5q-1.71 0.02-3.43 0.03-2.12-0.12-4.24-0.25c4.69-2.09 10.27-2.57 14.63-5.27 6.82-2.33 14.21-3.67 20.28-7.6-7.67-0.51-15.03-2.29-22.64-1.62-6.31-1.21-12.5-2.71-18.33-5.06q0.55-0.37 1.11-0.75z"/>
			<path class="s2" d="m120.82 231.22q-0.56 0.38-1.13 0.76c-5.23-1.17-9.92-3.07-13.76-6.28-2.47-2.07-2.51-3.98-0.16-6.06 11.94-10.62 15.98-23.68 17.35-37.48 0.68-6.81-0.07-13.64-0.61-20.45-1.27-16.21-0.97-32.31 8.39-47.26 2.87-4.59 5.73-9.33 11.66-12.03-1.62 5.5-7.19 9.2-9.8 14.31-3.71 7.26-7.58 14.38-7.4 22.5 0.2 9.14-0.45 18.31 0.22 27.42 0.5 6.62 0.64 13.2-0.27 19.75-0.92 6.68-1.61 13.6-4.41 19.82-2.18 4.85-7.13 9.03-11.44 13.1-3 2.83-2.67 4.26 0.62 6.75 3.23 2.46 8.15 2.15 10.74 5.15z"/>
			<path class="s3" d="m311.71 303.99q0.01 0.77 0.02 1.53c-1.89 0.1-3.8 0.27-5.7 0.27q-101.62 0.03-203.23 0.01c-2.09 0-4.19-0.18-6.28-0.29q0.05-0.76 0.11-1.53 5.2-0.01 10.4-0.01 4.58 0 9.17 0 4.04 0 8.07 0c58.49 0 116.97-0.02 175.44 0.05 3.88 0.01 7.21-0.67 9.33-3.23 1.2-1.44-0.65-3.74 1.44-5.22 2.26 2.62 0.62 5.63 1.23 8.42z"/>
			<path class="s1" d="m239.22 94.24c-9.61-0.42-18.13-4.44-26.17-7.56-10.17-3.93-19.5-3.23-29.53-2.73-2.15 0.1-3.46 1.25-5.04 1.95-7.89 3.47-17.41 3.96-24.41 9.17-2.86 2.13-5.3 4.99-9.56 5.68 15.9-15.73 36.9-21.2 61.07-19.14 9.11 0.77 17.76 3.91 25.32 8.28 2.66 1.54 5.73 2.01 8.33 3.41q-0.02 0.49-0.01 0.94z"/>
			<path class="s1" d="m96.63 303.98q-0.04 0.77-0.11 1.53c-12.32 0.46-12.78 0.41-11.23-8.9 1.35-8.07 3.45-16.09 7.54-23.65 6.32-11.69 17.76-18.18 32.57-21.3q-0.01 0.98-0.01 1.97c-0.95 0.03-1.8 0.18-2.3 0.93-10.57 2.12-18.59 7.26-25.25 14.01-1.41 4.06-5.16 7.54-4.64 12.09-1.61 0.15-2.29 0.94-2.27 2.2 0.13 5.3-2.56 10.16-3.69 15.26-1.3 5.84-1.62 5.79 5.92 5.87q1.75-0.02 3.47-0.01z"/>
			<path class="s4" d="m263.39 247.03c-6.75-2.63-13.5-5.24-21.85-8.47 11.93-1.61 22.04-2.98 32.16-4.34-3.76 3.73-7.76 7.15-14.77 7.08 3.05 1.3 5.1 2.89 4.46 5.73z"/>
			<path class="s1" d="m278.16 132.47c-4.59-3.89-7.97-8.98-9.26-13.65-1.57-5.7-4.95-10.28-7.88-15.25q0.06-0.56 0.1-1.11c11.06 7.99 17.2 17.82 17.04 30.01z"/>
			<path class="s4" d="m138.04 237.04c7.61-0.67 14.97 1.11 22.64 1.62-6.05 3.93-13.45 5.27-20.28 7.6 1.39-3.44 0.65-6.53-2.36-9.22z"/>
			<path class="s2" d="m239.22 94.24q0-0.45-0.01-0.93c5.11 0.03 10.24 0.03 13.95 3.64-4.87-0.17-9.27-1.88-13.94-2.71z"/>
			<path class="s3" d="m280.23 151.04c-1.22-2.44-1.18-4.87-0.08-7.32 0.63 2.43 0.6 4.87 0.08 7.32z"/>
			<path class="s5" d="m125.4 253.63q0.01-0.99 0.01-1.97l0.36-0.13q2.12 0.12 4.24 0.25c-0.4 2.48-2.8 1.68-4.61 1.85z"/>
			<path class="s2" d="m256.6 98.82c-1.78 0.1-3.52 0.15-3.51-1.91 1.72-0.03 3.02 0.45 3.51 1.91z"/>
			<path class="s2" d="m261.13 102.45q-0.06 0.56-0.09 1.11c-2.41-0.17-2.32-1.54-2.17-2.94q1.12 0.92 2.26 1.83z"/>
			<path class="s4" d="m264.5 247.85c-0.83 0.17-1.06-0.2-1.07-0.77q0.53 0.4 1.07 0.77z"/>
			<path class="s2" d="m258.94 100.68q-0.62-0.5-1.25-1 0.62 0.51 1.25 1z"/>
			<path class="s6" d="m178.47 222.15c-9.61-10.22-20.9-19.52-26.51-31.89-1.72-3.77-4.44-7.47-3.52-11.72 1.17-5.48-3.57-10.28-2.42-15.75 0.38-1.8 0.21-3.48 3.29-3.29-0.48 9.01 1.45 17.71 4.88 26.25 5.63 14.01 15.11 25.67 30.94 33.45 11.77 5.78 26.8 5.19 37.95-1.51 7.1-4.26 13.04-9.39 17.64-15.58 10.31-13.85 14.39-28.86 13.45-44.93-0.18-3.1-1.89-4.79-5.13-6-10.04-3.75-16.82-10.09-21.09-18.21-1.22-2.3-2.83-4.27-4.85-6.09-0.44-2.55 1.53-2.16 3.44-1.87q0.07 1.79 2.27 1.88c0.04 1.99-0.29 4.01 1.71 5.64 7.42 5.99 13.45 13.27 23.59 16.73q0.05 1.8 2.29 1.87 0.03 1.85 0.06 3.69 0 9.79 0 19.6c0.33 6.42-3.36 12.02-5.99 17.74-4.47 9.73-11.28 18.32-21.41 24.94-1.91 1.25-2.85 2.85-2.59 4.87-3.09 1.49-6.06 3.21-9.31 4.43-13.93 5.18-26.67 2.5-38.69-4.25z"/>
			<path class="s2" d="m226.5 221.96c-0.27-2.02 0.68-3.62 2.59-4.87 10.12-6.62 16.94-15.21 21.4-24.94 2.63-5.72 6.32-11.32 5.99-17.74q1.14 0 2.29 0c0.73 5.34-2.52 10.02-3.71 15.02-2.56 10.65-10.6 18.76-17.4 27.5-3.91 5.03-3.41 11.37 1.43 16.05 0.97 0.93 1.29 1.84 1.29 2.94-0.7 0.97-2.48 1.34-2.3 2.79-2.82-2.12-4.31-4.81-5.92-7.61-1.75-3.05-2.22-6.68-5.57-9.1z"/>
			<path class="s2" d="m226.56 125.01c-1.91-0.29-3.89-0.68-3.44 1.87q-1.61 0.5-3.21 0.97c-0.7 0.17-1.12 0.5-0.96 1.14l0.23 0.17-0.08 0.25c-1.97-1.18-3.08 0.08-4.4 0.96-3.5 2.32-7.18 4.53-10.61 6.8-3.47 2.31-9.14 2.47-10.67 6.7l-0.01-0.08q-4.11-0.07-8.23-0.15 0.57-0.94 1.14-1.88c4.42-3.09 9.97-4.53 15.1-6.47 7-2.65 10.98-7.87 16.69-11.57 4.74-3.05 5.1-3.24 8.45 1.29z"/>
			<path class="s1" d="m254.13 149.25c-10.14-3.45-16.17-10.73-23.58-16.72-2.02-1.63-1.67-3.66-1.72-5.65 6.86 5.65 12.8 12 20.45 17.05 2.08 1.4 6.12 1.83 4.85 5.32z"/>
			<path class="s1" d="m258.76 174.41q-1.14 0-2.29 0 0-9.79 0-19.6 1.14 0 2.28 0.01 0.01 0.47 0 0.93 0.01 9.33 0.01 18.66z"/>
			<path class="s2" d="m258.76 174.41q0-9.33 0-18.66c0.97 0.14 2.08 0.44 2.09 1.27q0.14 8.06 0 16.12c0 0.83-1.11 1.13-2.09 1.27z"/>
			<path class="s2" d="m258.76 154.82q-1.14 0.01-2.28-0.01-0.03-1.84-0.06-3.69c3.14 0.25 2.11 2.24 2.34 3.7z"/>
			<path class="s1" d="m256.42 151.12q-2.23-0.05-2.29-1.87 2.31 0.01 2.29 1.87z"/>
			<path class="s7" d="m178.47 222.15c12.02 6.75 24.75 9.43 38.7 4.24 3.26-1.21 6.22-2.94 9.32-4.43l0.08 0.04c1.25 8.72 3.52 17.02 13.8 22.01-0.85 3.1-5.21 3.36-7.02 5.68-4.98 2.27-9.77 4.91-15.36 6.08-8.85 1.87-17.73 4.67-26.81 0.65 1.82-0.32 3.75-1.1 5.46-0.87 7.1 0.9 13.66-1.39 20.46-2.11 2.53-0.27 5.8-0.99 7.18-3.5 2.53-0.07 5.78 0.52 6.32-2.33 0.45-2.37 2.56-5.32-1.7-7.07-0.38-3.65-2.67-6.51-5.59-9.19-2.4-2.2-5.44-2.51-8.31-1.68-8.32 2.41-16.44 2.53-24.72-0.05-1.85-0.58-4.31-0.7-6.1 0.37-4.11 2.45-8.07 5.05-10.54 8.85-5.51 8.46-1.07 10.9 9.21 12.94-0.18 1.46 1.78 1.79 2.3 2.87-6.74-0.43-11.95-3.63-17.56-6.19-4.45-2.02-4.97-3.5-0.91-6.62 6.25-4.8 11.74-10.28 11.49-17.98q0.17-0.86 0.3-1.71z"/>
			<path class="s5" d="m133.44 251.75c2.66-4.02 8.29-3.91 12.49-5 4.96-1.3 10.73-3.8 16.27-0.57 0.07 1.61 1.66 2.5 2.97 3.16 8.44 4.22 16.46 9.27 26.92 9.92 0.2 1 0.77 1.76 2.13 1.77q8.79 0.03 17.57 0c1.38-0.01 1.93-0.78 2.12-1.78 7.07-1.56 13.77-3.73 19.57-7.47 4.29-1.2 7.41-4.09 11.48-5.45 5.77-1.94 11.34 0.21 15.97 2.55 2.69 1.35 7-0.66 8.19 2.89-1.71-0.13-3.23 0.34-4.69 0.99-4.52-0.3-8.25-2.33-12.1-3.92-3.35-1.39-5.79-1.25-8.79 0.73-4.57 3.01-9.46 5.77-14.51 8.24-9.03 4.42-19.06 6.58-29.5 5.89-12.52-0.83-24.16-4.39-34.1-10.68-7.54-4.75-14.89-4.76-22.81-1.24-3.07-1.5-6.13 0.66-9.18-0.03z"/>
			<path class="s6" d="m192.09 259.25c-10.46-0.65-18.48-5.7-26.92-9.92-1.31-0.66-2.91-1.54-2.97-3.16-0.5-3.14 1.04-5.37 3.64-7.81 3.45-3.23 7.44-6.43 8.11-11.21 0.23-1.62 1.93-2.95 4.24-3.3 0.25 7.7-5.23 13.18-11.49 17.98-4.06 3.12-3.54 4.6 0.91 6.62 5.61 2.56 10.82 5.77 17.56 6.19q1.2 1.59 2.34-0.02 1.84 0.89 3.69 1.79c9.09 4.02 17.96 1.22 26.81-0.65 5.59-1.17 10.39-3.81 15.37-6.08q0.05 1.04 0.11 2.08c-5.8 3.74-12.5 5.92-19.56 7.47q-10.94 0.02-21.84 0.02z"/>
			<path class="s5" d="m295.53 261.1c5.21 3.21 9.68 6.94 11.49 12.2 1.21 3.5 5.11 6.17 4.62 10.15q-2.25 0-4.49-0.01c-1.76-7.33-6.61-13.28-12.75-18.64q0.56-1.84 1.13-3.7z"/>
			<path class="s0" d="m295.53 261.1q-0.57 1.85-1.13 3.71c-4.44-2.42-9.11-4.42-13.91-6.34-5.28-2.11-11.64-2.17-16.06-5.74 1.46-0.65 2.98-1.11 4.69-0.99q1.72 0.02 3.43 0.03 0.07 1.82 2.32 1.84c4.87 0.6 9.6 1.52 13.78 3.74q0.06 1.82 2.31 1.85c1.98-0.1 2.98 1.36 4.57 1.9z"/>
			<path class="s0" d="m307.14 283.45q2.25 0 4.5 0.01c2.25 5.48 4.56 10.9 4.66 16.8 0.05 2.83-1.07 4.09-4.58 3.74-0.61-2.79 1.03-5.79-1.23-8.42 0-1.02 0.18-2.1-1.03-2.84 0.23-3.27-0.73-6.33-2.32-9.29z"/>
			<path class="s6" d="m240.38 244.01c-10.29-4.99-12.55-13.29-13.8-22 3.35 2.41 3.83 6.04 5.57 9.09 1.59 2.8 3.1 5.49 5.92 7.61 0.38 1.88 3.14 3.07 2.31 5.3z"/>
			<path class="s5" d="m290.95 259.21q-2.25-0.03-2.31-1.85 2.23 0.05 2.31 1.85z"/>
			<path class="s5" d="m274.86 253.61q-2.25-0.01-2.32-1.84 2.24 0.03 2.32 1.84z"/>
			<path class="s7" d="m219.91 127.85q1.6-0.49 3.21-0.97c2.01 1.82 3.62 3.79 4.84 6.09 4.28 8.12 11.06 14.45 21.09 18.21 3.24 1.21 4.95 2.9 5.13 6 0.94 16.07-3.14 31.07-13.44 44.93-4.6 6.19-10.55 11.32-17.65 15.58-11.16 6.7-26.17 7.29-37.95 1.51-15.83-7.78-25.3-19.45-30.94-33.45-3.43-8.54-5.37-17.24-4.88-26.24 0.67-1.27-0.86-3.06 1.44-3.93 3.09-0.6 6.25-1.03 9.26-1.81 11.29-2.95 23.26-4.46 33.39-9.96l0.01 0.08c10.62-2.42 19.47-6.89 25.68-14.46l0.08-0.25c0 0-0.23-0.17-0.24-0.18q0.5-0.58 0.97-1.15zm8.93 12.07q0-1.84-2.26-1.88c-5.45-6.33-3.19-7.65-10.93-1.42-3.77 3.04-8.59 4.78-12.79 7.26-4.07 2.39-9.87 1.8-13.14 5.32-2.14-0.09-4.11 0.3-6.06 1.06-6.08 2.36-12.74 3.15-19.16 4.62-8.69 1.85-9.23 2.37-9.24 9.22q-0.03 8.16 0.07 16.31c0.01 1.36 0.14 2.66 0.8 4.05 3.56 7.37 8.06 14.38 13.25 21 3.11 3.97 6.55 8.43 13.45 9.06q2.31 0.92 4.62 1.85c7.45 5.94 16.49 4.12 24.99 2.73 2.69-0.43 6.21-0.39 8.7-2.8 4.13-4.02 9.27-7.35 13.54-11.3 2.78-2.57 5.92-5.25 5.61-9.18q0.05-1.37 0.11-2.73c1.37-0.96 3.7-0.61 4.5-2.45 2.09-4.81 4.88-9.44 4.69-14.75-0.08-2.4 0.38-4.62 1.56-7.03 1.69-3.48 1.49-7.69 0.03-11.3-0.78-1.95-1.45-5.52-6.21-4.59l-0.01-0.01q-0.94-2.97-4.63-3.68-5.89-2.71-9.24-7.47c0.04-1.25-0.73-1.86-2.25-1.89z"/>
			<path class="s6" d="m193.42 143.79c-10.14 5.5-22.09 7.01-33.39 9.96-3.01 0.78-6.16 1.22-9.26 1.81 4.25-4.13 10.64-4.65 16.32-6.27 5.75-1.64 11.68-2.9 17.5-4.4 0.33-0.08 0.41-0.82 0.61-1.25q4.1 0.08 8.22 0.15z"/>
			<path class="s0" d="m133.44 251.75c3.06 0.69 6.12-1.47 9.17 0.01-2.19 1.96-6.35 1.04-8.08 3.67-4.14 0.1-7.38 2.52-11.41 2.9q-0.02-1.89-0.02-3.78c0.51-0.74 1.36-0.89 2.3-0.93 1.81-0.17 4.21 0.63 4.61-1.85q1.72 0 3.43-0.02z"/>
			<path class="s8" d="m309.46 292.72c1.21 0.75 1.02 1.82 1.03 2.84-2.09 1.48-0.24 3.78-1.43 5.22-2.14 2.56-5.46 3.24-9.33 3.23-58.49-0.07-116.97-0.05-175.45-0.05-2.97-2.6-5.09-2.6-8.07 0q-4.58 0-9.17 0c-0.32-0.53-0.5-1.41-1-1.54-5.12-1.34-6.24-4.36-5.98-8.33 0.28-4.15 0.16-8.33 0.04-12.49-0.1-2.96 1.51-5.61 3.75-7.34 7.01-5.43 15.38-9.41 23.86-13.19-1.42 5.89-5.5 9.58-12.88 11.14-11.04 2.35-16.92 14.57-11.18 22.55 1.4 1.95 3.36 2.74 6.15 2.71 3.03-0.04 6.06 0.17 9.1 0.42 9.65 0.76 18.89 3.59 29.23 0.93 5.69-1.47 12.9 0.46 19.62 0.12 14.6-0.74 29.31 2.67 43.97-0.42 2.95-0.62 5.43 0.09 7.78 1.91 3.09 2.37 6.82 2.89 9.87-0.11 1.88-1.85 3.71-1.71 6.03-1.01 1.4 0.42 3.19 1.11 4.37 0.75 8.33-2.54 17.4 3.1 25.49-1.6 0.42-0.25 1.67-0.04 2.15 0.3 3.61 2.55 6.19 0.68 8.98-1.13 2.98-1.93 5.71-3.28 9.28 0 3.52 3.25 13.65 2.28 15.28-0.91 1.43-2.82-2.5-17.02-5.83-18.35-7.27-2.89-7.79-8.25-8.79-13.58 1.69-0.01 2.77 0.81 3.79 1.76 6.11 5.74 10.7 12.2 14.82 18.99 1.45 2.41 0.51 5.88 4.52 7.18z"/>
			<path class="s9" d="m127.71 261.09c-8.49 3.78-16.86 7.76-23.86 13.19-2.23 1.72-3.86 4.38-3.75 7.33 0.14 4.16 0.25 8.34-0.04 12.5-0.26 3.96 0.87 6.99 5.98 8.33 0.49 0.13 0.67 1.01 1 1.54q-5.2 0-10.39 0.01-1.73 0-3.47 0c-0.02-5-0.05-10 1.22-14.92 0.9-0.43 1.1-1.11 1.04-1.88q0.04-0.93 0.08-1.85c2.35-5.86 4.65-11.73 9.22-16.78 5.52-4.13 12.13-6.99 18.39-10.22 4.04-0.38 7.27-2.81 11.43-2.9l0.08 0.07c-1.18 2.79-6.57 2.14-6.93 5.58z"/>
			<path class="s9" d="m116.2 303.97c2.98-2.61 5.09-2.61 8.07 0q-4.03 0-8.07 0z"/>
			<path class="s5" d="m123.12 258.33c-6.27 3.23-12.87 6.09-18.39 10.22q-3.44 0-6.88 0.01c6.66-6.75 14.68-11.89 25.25-14.01q0 1.89 0.02 3.78z"/>
			<path class="s5" d="m94.39 289.06c-1.27 4.93-1.25 9.93-1.22 14.93-7.54-0.08-7.22-0.03-5.92-5.87 1.14-5.1 3.82-9.96 3.69-15.26-0.03-1.26 0.65-2.05 2.27-2.2 0.51 1.64-1.38 4.06 2.3 4.67q-0.04 0.93-0.08 1.86c-1.49 0.21-2.8 0.48-1.04 1.87z"/>
			<path class="s0" d="m95.52 285.33c-3.68-0.62-1.78-3.03-2.3-4.68-0.52-4.55 3.23-8.03 4.65-12.09q3.43-0.01 6.87-0.01c-4.59 5.05-6.89 10.92-9.22 16.78z"/>
			<path class="s6" d="m219.11 129.41c-6.21 7.56-15.08 12.04-25.68 14.47 1.53-4.24 7.2-4.4 10.67-6.71 3.43-2.27 7.12-4.48 10.61-6.8 1.32-0.87 2.44-2.14 4.4-0.96z"/>
			<path class="s6" d="m219.91 127.85q-0.48 0.57-0.96 1.13c-0.16-0.63 0.26-0.96 0.96-1.13z"/>
			<path class="s10" d="m182.87 251.78c-10.28-2.04-14.73-4.47-9.21-12.94 2.47-3.8 6.43-6.4 10.55-8.85 1.78-1.07 4.24-0.95 6.09-0.37 8.28 2.58 16.4 2.45 24.72 0.05 2.87-0.83 5.91-0.53 8.32 1.68 2.92 2.68 5.2 5.54 5.58 9.19l-0.07 0.05c-2.28-0.35-3.79-1.66-4.36-3.26-1.26-3.5-4.13-4.31-8.21-4.25-8.56 0.14-17.14 0.2-25.71-0.02-3.92-0.1-7.04 1.34-9.81 2.94-6.18 3.58-6.12 9.35-0.45 12.85 1.15 0.71 2.55 1.45 2.61 2.89z"/>
			<path class="s11" d="m191.19 256.42q-1.85-0.9-3.69-1.79-0.01-1.43-0.03-2.86l0.03-0.02c9.84-0.48 19.86 1.33 29.52-1.79 2.32-0.74 4.28-2.67 7.23-1.94l0.03 0.01q0.01 0.96 0.02 1.9c-1.38 2.51-4.63 3.23-7.18 3.49-6.79 0.72-13.36 3.01-20.46 2.11-1.72-0.21-3.64 0.57-5.47 0.89z"/>
			<path class="s10" d="m224.3 249.94q-0.01-0.96-0.02-1.9c4.91-1.12 4.74-4.29 4.57-7.45l0.07-0.05c4.26 1.75 2.17 4.7 1.71 7.07-0.54 2.84-3.8 2.25-6.33 2.33z"/>
			<path class="s10" d="m187.47 251.77q0.02 1.43 0.03 2.86-1.14 1.6-2.34 0.02c-0.52-1.09-2.48-1.41-2.3-2.87l0.05-0.04q2.29 0.01 4.56 0.03z"/>
			<path class="s9" d="m309.46 292.72c-4-1.3-3.07-4.77-4.51-7.15-4.12-6.79-8.71-13.25-14.81-18.99-1.03-0.95-2.11-1.77-3.8-1.76-0.1-1.89-1.77-1.89-3.45-1.87-6.12-1.11-10.89-4.94-17.24-5.59-2.13-2.57-5.29-3.69-8.91-3.69-6.3 0-12.15-0.32-18.14 3.3-9.17 5.53-20.66 7.47-31.76 9.52-4.36 0.8-8.77 1.69-13.45 0.32-3.71-1.08-7.77-1.36-11.67-1.99-7.89-2.17-14.02-7.04-21.84-9.33-4.36-4.38-7.89-4.95-11.5-1.85-4.91-0.91-8.88 2.76-13.79 1.87 0 0-0.07-0.07-0.08-0.07 1.71-2.63 5.89-1.72 8.07-3.67 7.93-3.52 15.28-3.51 22.81 1.24 9.95 6.29 21.59 9.84 34.1 10.68 10.45 0.7 20.48-1.46 29.5-5.89 5.05-2.48 9.94-5.23 14.52-8.24 3-1.98 5.44-2.11 8.79-0.74 3.86 1.6 7.57 3.63 12.1 3.93 4.41 3.57 10.78 3.63 16.05 5.74 4.82 1.92 9.49 3.92 13.92 6.34 6.14 5.36 10.98 11.31 12.74 18.64 1.62 2.94 2.58 6 2.35 9.25z"/>
			<path class="s1" d="m192.09 259.25q10.92 0 21.84-0.01c-0.2 1-0.75 1.77-2.13 1.78q-8.78 0.04-17.56 0c-1.4 0-1.96-0.77-2.15-1.77z"/>
			<path class="s12" d="m187.46 216.36q-2.31-0.93-4.61-1.85c-0.92-3.33-5.87-4.22-6.88-7.48q-0.02-1.83-2.28-1.88c-0.95-6.15-2.77-11.66-7.61-17.08-4.77-5.35-6.18-12.52-6.27-19.5-0.04-3.29 1.11-5.67 4.68-7.23 0.62 0.36 1.47 0.6 1.82 1.08 2.44 3.4 4.12 7.32 7.31 10.13 2.91 2.56 2.73 7.54 8.73 7.77 0.14 0.01 0.3 0.53 0.36 0.83 1.14 5.39 1.53 10.72-2.39 15.6-0.83 1.03-1.81 1.98-2.69 2.98-2.1 2.33-1.33 4.46 1.09 6.14 2.89 2.01 6.07 3.71 9.05 5.63 2.37 1.52 4.37 1.31 6.64-0.24 2.65-1.81 6.01-3.2 9.3-3.16 7.2 0.08 13.37-0.7 16.44-6.86 0.19-0.4 1.26-0.62 1.96-0.69 5.17-0.54 7.73-3.71 10.01-6.87 0.99-1.36 1.85-2.77 3.42-3.6 5.59-2.95 6.17-7.08 3.99-12.84-1.91-5.05-2.11-9.09 2.41-13.29 3.44-3.2 1.89-7.05-2.71-9.4-1.55-0.79-3.27-1.69-3.47-3.46q2.28 0.01 4.56 0.01c0.44 2.45 2.78 1.73 4.64 1.84l0.01 0.01c1.43 4.36 2.99 8.7 2.29 13.32-0.52 3.41-2.84 6.39-2.49 10.11 0.42 4.38 1.79 9.24-3.78 12.73-0.91 0.57-0.43 2.6-0.59 3.97q-0.06 1.36-0.11 2.73c-1.98 0.11-3.21 1.37-3.86 2.48-3.69 6.34-10.83 10.12-16.59 14.88-2.67 2.21-6.44 3.39-10.73 3.25-7.2-0.23-14.43-0.06-21.65-0.06z"/>
			<path class="s11" d="m164.48 161.35c-3.57 1.56-4.72 3.94-4.68 7.23 0.1 6.98 1.5 14.16 6.27 19.5 4.83 5.41 6.66 10.93 7.61 17.08-4.59-2.93-5.53-7.61-8.16-11.45-3.68-5.35-7.47-10.87-7.86-17.2-0.48-7.73-1.6-15.71 6.85-21.64 6.4-1.46 13.07-2.26 19.15-4.62 1.95-0.75 3.92-1.15 6.06-1.05q1.76 0.02 3.52 0.05 0 0.92-0.02 1.85c-3.61-0.19-6.86 0.33-10.21 1.74-4.37 1.83-9 3.31-14 3.98-2.75 0.36-4.6 1.98-4.53 4.53z"/>
			<path class="s10" d="m164.52 154.87c-8.45 5.92-7.33 13.91-6.85 21.64 0.39 6.32 4.18 11.85 7.86 17.2 2.64 3.84 3.57 8.52 8.16 11.45q0.04 1.81 2.28 1.88c1.02 3.26 5.97 4.15 6.88 7.48-6.91-0.63-10.34-5.11-13.45-9.06-5.18-6.62-9.7-13.63-13.25-21-0.66-1.39-0.79-2.68-0.8-4.05q-0.08-8.15-0.07-16.31c0-6.86 0.54-7.38 9.24-9.23z"/>
			<path class="s10" d="m187.46 216.36c7.21 0 14.45-0.17 21.65 0.05 4.29 0.14 8.05-1.05 10.73-3.25 5.76-4.76 12.9-8.54 16.59-14.88 0.65-1.11 1.88-2.37 3.86-2.48 0.31 3.93-2.83 6.61-5.61 9.19-4.26 3.94-9.41 7.27-13.54 11.29-2.49 2.41-6.01 2.37-8.7 2.81-8.48 1.4-17.51 3.21-24.98-2.73z"/>
			<path class="s10" d="m240.4 193.08c0.16-1.36-0.32-3.39 0.59-3.97 5.58-3.48 4.21-8.35 3.78-12.73-0.35-3.72 1.97-6.7 2.49-10.11 0.7-4.62-0.86-8.96-2.29-13.32 4.75-0.93 5.43 2.64 6.21 4.59 1.45 3.61 1.64 7.81-0.03 11.3-1.18 2.41-1.65 4.64-1.56 7.03 0.2 5.32-2.59 9.94-4.69 14.75-0.79 1.85-3.13 1.5-4.5 2.46z"/>
			<path class="s10" d="m193.25 149.25q-1.76-0.03-3.52-0.05c3.27-3.52 9.06-2.93 13.14-5.33 4.2-2.47 9.02-4.21 12.79-7.25 7.74-6.23 5.47-4.91 10.93 1.42-3.01 0.81-7.11-1.87-9.21 1.87-1.54 0-2.22 1.05-3.22 1.72q-9.2 6.09-20.91 7.62z"/>
			<path class="s11" d="m217.37 139.91c2.1-3.74 6.19-1.05 9.21-1.87q0.02 1.83 2.26 1.88l0.01 0.01q0.06 1.79 2.25 1.87 3.35 4.76 9.24 7.46 0 0.93-0.01 1.85-2.28 0-4.56-0.01c-0.01-2.48-4.17-1.6-4.63-3.73-3.26-4.09-6.51-8.22-13.77-7.46z"/>
			<path class="s10" d="m240.33 151.11q0.01-0.92 0.01-1.85 3.69 0.72 4.63 3.69c-1.85-0.12-4.2 0.6-4.64-1.84z"/>
			<path class="s10" d="m231.1 141.8q-2.2-0.09-2.25-1.87c1.51 0.02 2.28 0.62 2.25 1.87z"/>
			<path class="s10" d="m228.84 139.92q-2.24-0.05-2.26-1.88 2.26 0.04 2.26 1.88z"/>
			<path class="s13" d="m265.65 257.36c6.34 0.65 11.12 4.47 17.24 5.59 0.11 1.89 1.77 1.89 3.45 1.87 1 5.33 1.52 10.69 8.79 13.58 3.33 1.32 7.25 15.53 5.83 18.35-1.62 3.19-11.75 4.16-15.28 0.91-3.56-3.29-6.3-1.93-9.28-0.01-2.8 1.82-5.37 3.68-8.98 1.14-0.48-0.34-1.73-0.55-2.15-0.3-8.1 4.7-17.16-0.94-25.49 1.6-1.18 0.36-2.97-0.33-4.37-0.75-2.33-0.7-4.16-0.84-6.03 1.01-3.04 3-6.78 2.49-9.86 0.11-2.36-1.82-4.83-2.54-7.79-1.91-14.65 3.09-29.36-0.32-43.97 0.42-6.72 0.33-13.94-1.59-19.62-0.12-10.34 2.65-19.58-0.17-29.23-0.93-3.03-0.25-6.07-0.46-9.09-0.43-2.8 0.03-4.75-0.75-6.16-2.7-5.74-7.98 0.14-20.2 11.18-22.55 7.39-1.57 11.45-5.25 12.88-11.14 6.69-0.34 11.9-4.17 18.36-5.09 1.23-0.17 2.33-1.07 2.33-2.37 4.27-1.15 7.45 2.16 11.51 1.85 7.81 2.29 13.95 7.16 21.84 9.33 0.08 2.98 3.54 3.27 5.64 4.64 7.63 4.97 16.39 4.63 21.11 1.02 3.05-2.33 6.45-3.25 10.43-2.85 4.1 0.42 7.86-0.47 10.39-2.88 4.7-4.47 11.82-4.47 17.72-6.02 5.59-1.48 12.27-1.97 18.6-1.37z"/>
			<path class="s8" d="m148.4 253.64c0 1.29-1.1 2.2-2.33 2.38-6.47 0.91-11.68 4.74-18.36 5.08 0.36-3.44 5.75-2.79 6.91-5.59 4.9 0.88 8.87-2.79 13.78-1.87z"/>
			<path class="s0" d="m94.39 289.06c-1.76-1.38-0.45-1.66 1.04-1.87 0.05 0.76-0.14 1.45-1.04 1.87z"/>
			<path class="s11" d="m187.47 251.77q-2.27-0.02-4.55-0.03c-0.06-1.45-1.46-2.18-2.61-2.89-5.68-3.51-5.73-9.27 0.45-12.85 2.77-1.6 5.89-3.04 9.81-2.94 8.57 0.23 17.15 0.17 25.71 0.02 4.09-0.06 6.95 0.75 8.21 4.25 0.57 1.6 2.08 2.91 4.36 3.26 0.17 3.17 0.33 6.33-4.57 7.45l-0.03-0.01c-0.18-8.26-3.8-10.85-13.84-11.28-7.04-0.3-13.82 2.27-21.11 0.55-2.11-0.51-6.65 1.38-7.91 4.25-1.16 2.64 0.91 4.64 3.13 6.44 1.33 1.07 2.98 2 2.98 3.77z"/>
			<path class="s12" d="m187.5 251.75c0-1.77-1.66-2.7-2.98-3.77-2.22-1.79-4.29-3.8-3.13-6.44 1.26-2.87 5.8-4.75 7.91-4.25 7.29 1.72 14.07-0.85 21.11-0.55 10.04 0.43 13.66 3.02 13.84 11.28-2.95-0.73-4.91 1.2-7.23 1.94-9.66 3.12-19.68 1.31-29.52 1.79z"/>
			<path class="s8" d="m265.65 257.36c-6.33-0.6-13.01-0.11-18.61 1.36-5.9 1.55-13.01 1.55-17.72 6.02-2.55 2.41-6.3 3.31-10.39 2.88-3.99-0.4-7.38 0.52-10.43 2.85-4.72 3.6-13.48 3.95-21.11-1.02-2.1-1.37-5.56-1.66-5.64-4.64 3.89 0.63 7.95 0.91 11.66 1.99 4.68 1.37 9.1 0.48 13.45-0.32 11.1-2.05 22.59-3.99 31.76-9.52 5.99-3.62 11.85-3.3 18.14-3.3 3.61 0.01 6.76 1.13 8.89 3.7z"/>
			<path class="s8" d="m159.9 255.49c-4.06 0.3-7.23-3-11.5-1.85 3.61-3.1 7.14-2.53 11.5 1.85z"/>
			<path class="s8" d="m286.34 264.82c-1.68 0.02-3.34 0.03-3.45-1.87 1.68-0.01 3.35-0.02 3.45 1.87z"/>
			<path class="s14" d="m231.14 147.37c0.45 2.13 4.61 1.24 4.63 3.73 0.22 1.77 1.93 2.67 3.47 3.46 4.6 2.35 6.15 6.2 2.72 9.4-4.52 4.2-4.34 8.25-2.42 13.29 2.19 5.76 1.59 9.89-3.99 12.84-1.56 0.83-2.44 2.24-3.42 3.6-2.27 3.16-4.84 6.32-10 6.87-0.7 0.07-1.77 0.29-1.97 0.69-3.07 6.16-9.25 6.94-16.43 6.86-3.29-0.04-6.65 1.34-9.31 3.16-2.27 1.55-4.27 1.77-6.64 0.24-2.97-1.92-6.16-3.62-9.05-5.63-2.42-1.69-3.18-3.81-1.09-6.14 0.89-1 1.86-1.94 2.69-2.98 3.92-4.88 3.54-10.2 2.39-15.6-0.05-0.3-0.21-0.83-0.35-0.83-6.01-0.23-5.82-5.21-8.73-7.77-3.19-2.81-4.88-6.73-7.32-10.13-0.34-0.48-1.21-0.72-1.81-1.08-0.07-2.55 1.78-4.17 4.54-4.53 4.99-0.66 9.63-2.15 14-3.98 3.34-1.41 6.61-1.93 10.21-1.74 2.94-0.62 5.75 1.73 8.81 0.17 2.72-1.38 5.7-1.49 8.73-0.54 2.94 0.92 6.31 0.13 8.08-1.05 3.86-2.6 7.97-2.3 12.26-2.31z"/>
			<path class="s11" d="m175.97 207.04q-2.22-0.06-2.28-1.88 2.25 0.05 2.28 1.88z"/>
			<path class="s12" d="m231.14 147.37c-4.29 0.01-8.41-0.28-12.29 2.31-1.77 1.18-5.14 1.97-8.09 1.05-3.01-0.95-6-0.84-8.73 0.54-3.05 1.55-5.86-0.79-8.81-0.17q0-0.92 0.02-1.85 11.73-1.52 20.89-7.62c1.02-0.67 1.68-1.72 3.22-1.72 7.28-0.76 10.53 3.37 13.79 7.46z"/>
		</g>
	</g>
</svg>