<svg width="406" height="401" viewBox="0 0 406 401" fill="none" xmlns="http://www.w3.org/2000/svg">
<g clip-path="url(#clip0_6_1813)">
<path d="M0.115138 200.5C0.115138 134.941 0.149643 69.3823 0.000124132 3.81416C-0.0113773 0.624814 0.770719 0 4.7042 0C136.901 0.102581 269.099 0.102581 401.285 0C405.218 0 406 0.624814 405.989 3.81416C405.862 134.932 405.862 266.059 405.989 397.176C405.989 400.366 405.218 401 401.285 400.991C269.087 400.888 136.89 400.888 4.7042 400.991C0.770719 400.991 -0.0113773 400.366 0.000124132 397.176C0.149643 331.618 0.115138 266.059 0.115138 200.5ZM257.77 99.7651C257.356 99.4293 256.942 99.1029 256.528 98.7672L256.608 98.8232C256.125 97.3591 254.826 96.8835 253.1 96.9114L253.158 96.9581C249.454 93.3491 244.325 93.3491 239.207 93.3211C236.607 91.9222 233.536 91.4373 230.88 89.9079C223.323 85.5342 214.663 82.4008 205.553 81.6268C181.389 79.5659 160.387 85.04 144.492 100.772C143.848 101.332 143.193 101.882 142.549 102.442C136.602 105.137 133.75 109.883 130.886 114.472C121.524 129.42 121.225 145.516 122.502 161.724C123.042 168.541 123.79 175.358 123.111 182.175C121.743 195.977 117.706 209.042 105.756 219.655C103.409 221.744 103.432 223.646 105.917 225.716C109.77 228.934 114.462 230.836 119.684 232.002C125.515 234.343 131.703 235.853 138.017 237.056C141.03 239.751 141.767 242.838 140.375 246.279C136.016 248.974 130.438 249.459 125.745 251.548L125.389 251.679C110.575 254.803 99.1308 261.284 92.8166 272.978C88.7221 280.541 86.6288 288.561 85.2831 296.628C83.7304 305.944 84.1905 305.991 96.5085 305.534C98.6018 305.637 100.695 305.823 102.788 305.823C170.532 305.832 238.275 305.823 306.018 305.804C307.916 305.804 309.825 305.637 311.723 305.543C319.256 305.739 319.337 305.683 318.796 299.873C317.991 291.145 314.644 282.891 311.424 274.638C309.377 269.397 305.938 264.707 300.383 261.349C289.594 254.831 277.334 250.849 264.498 247.883C264.142 247.622 263.785 247.37 263.429 247.109L263.394 247.053C264.015 244.218 261.979 242.624 258.92 241.318C265.924 241.393 269.927 237.97 273.688 234.24C280.888 231.713 288.95 231.013 295.587 227.19C299.98 224.663 300.544 222.751 296.978 219.431C295.149 217.734 292.861 216.475 291.596 214.218C284.465 201.479 279.542 188.358 279.795 174.183C279.818 172.71 279.956 171.171 279.036 169.679C277.621 167.376 277.817 164.624 278.633 162.433C280.06 158.647 280.002 154.861 280.232 151.046C280.738 148.603 280.773 146.169 280.152 143.735C279.749 140.555 280.807 137.207 278.484 134.251C278.38 133.664 278.265 133.076 278.162 132.489C278.323 120.3 272.181 110.471 261.128 102.469C260.381 101.863 259.622 101.248 258.874 100.642L258.943 100.698C258.529 100.362 258.103 100.036 257.689 99.6998C257.678 99.6905 257.77 99.7651 257.77 99.7651Z" fill="#FEFEFE"/>
<path d="M142.56 102.423C143.204 101.863 143.86 101.313 144.504 100.753C148.759 100.063 151.209 97.2004 154.061 95.0742C161.054 89.8612 170.577 89.367 178.467 85.8978C180.043 85.1984 181.354 84.0514 183.505 83.9488C193.534 83.4545 202.873 82.7458 213.041 86.6812C221.08 89.7959 229.603 93.8153 239.206 94.2442C243.876 95.0649 248.281 96.7808 253.146 96.958L253.089 96.9113C253.066 98.9723 254.814 98.9163 256.597 98.8231L256.516 98.7671C256.93 99.1029 257.344 99.4293 257.758 99.765L257.666 99.6904C258.08 100.026 258.506 100.352 258.92 100.688L258.851 100.632C258.701 102.031 258.598 103.411 261.013 103.57C263.923 108.54 267.316 113.129 268.892 118.817C270.18 123.489 273.55 128.581 278.15 132.47C278.254 133.057 278.369 133.645 278.472 134.232C276.252 135.668 277.115 137.692 277.184 139.445C277.932 157.677 276.137 175.899 279.001 194.186C280.566 204.184 285.603 211.961 292.987 219.198C296.656 222.788 296.253 225.977 290.71 227.516C284.119 229.344 277.426 230.715 270.548 231.825C260.519 233.447 250.547 235.182 240.345 235.918C240.345 234.818 240.035 233.913 239.057 232.981C234.215 228.309 233.72 221.958 237.631 216.932C244.428 208.194 252.468 200.08 255.021 189.43C256.217 184.432 259.46 179.75 258.736 174.407C259.713 174.267 260.829 173.969 260.841 173.139C260.933 167.767 260.933 162.396 260.841 157.024C260.829 156.194 259.713 155.886 258.747 155.746C258.747 155.439 258.747 155.131 258.747 154.823C258.506 153.359 259.552 151.373 256.413 151.121C256.424 149.871 255.653 149.256 254.124 149.247C255.389 145.759 251.363 145.32 249.259 143.94C241.622 138.895 235.664 132.544 228.809 126.893C227.337 126.828 226.589 126.194 226.543 125.009C223.196 120.477 222.84 120.673 218.113 123.732C212.385 127.425 208.417 132.647 201.424 135.295C196.295 137.235 190.739 138.681 186.323 141.767C175.236 143.092 164.896 145.376 154.74 150.002C145.159 154.366 143.158 159.747 143.722 167.422C144.101 172.672 143.814 177.969 143.791 183.238C143.779 185.113 144.239 186.745 145.343 188.517C149.081 194.541 153.912 200.024 157.926 205.909C160.468 209.639 161.261 214.451 165.321 217.109C170.439 220.457 168.99 224.532 168.967 228.505C168.956 230.836 161.089 236.72 158.881 236.347C146.286 234.175 133.175 234.566 120.834 231.218C118.246 228.216 113.323 228.533 110.092 226.08C106.802 223.581 106.469 222.154 109.47 219.328C113.783 215.262 118.729 211.084 120.914 206.226C123.709 200.006 124.388 193.086 125.319 186.409C126.228 179.872 126.078 173.288 125.595 166.657C124.917 157.546 125.584 148.379 125.377 139.24C125.204 131.118 129.057 124.002 132.772 116.738C135.372 111.618 140.95 107.925 142.56 102.423Z" fill="#201B50"/>
<path d="M240.356 235.919C250.558 235.191 260.53 233.447 270.559 231.825C277.437 230.715 284.131 229.344 290.721 227.516C296.265 225.977 296.667 222.797 292.998 219.198C285.603 211.952 280.565 204.184 279.013 194.187C276.16 175.899 277.955 157.677 277.196 139.445C277.127 137.692 276.275 135.669 278.484 134.232C280.807 137.189 279.749 140.537 280.151 143.717C279.047 146.16 279.013 148.603 280.232 151.037C280.013 154.861 280.059 158.637 278.633 162.424C277.817 164.615 277.61 167.366 279.036 169.67C279.956 171.162 279.818 172.7 279.795 174.174C279.542 188.339 284.464 201.461 291.595 214.209C292.86 216.456 295.149 217.715 296.978 219.422C300.543 222.742 299.98 224.644 295.586 227.18C288.95 231.004 280.887 231.694 273.688 234.231C263.578 235.592 253.457 236.954 241.53 238.567C249.88 241.803 256.631 244.423 263.382 247.035L263.417 247.091C263.428 247.659 263.658 248.032 264.486 247.865C277.322 250.821 289.583 254.812 300.371 261.331C305.926 264.688 309.377 269.379 311.412 274.62C314.633 282.873 317.98 291.126 318.785 299.855C319.325 305.665 319.245 305.721 311.711 305.525C311.7 305.012 311.7 304.499 311.688 303.986C315.196 304.34 316.323 303.081 316.266 300.256C316.162 294.362 313.851 288.925 311.608 283.451C312.102 279.469 308.192 276.802 306.984 273.305C305.167 268.045 300.704 264.315 295.494 261.098C293.919 260.557 292.906 259.093 290.917 259.214C290.859 258.011 290.089 257.386 288.605 257.358C284.418 255.129 279.691 254.215 274.826 253.619C274.757 252.416 273.987 251.8 272.503 251.781C271.364 251.772 270.214 251.763 269.076 251.753C267.879 248.2 263.578 250.215 260.887 248.862C256.251 246.531 250.685 244.368 244.911 246.307C240.851 247.678 237.723 250.569 233.433 251.763C233.398 251.073 233.352 250.383 233.318 249.683C235.135 247.361 239.482 247.1 240.333 244.004C241.162 241.775 238.401 240.581 238.022 238.698C237.872 237.261 239.666 236.888 240.356 235.919Z" fill="#241B3B"/>
<path d="M120.822 231.219C133.175 234.557 146.287 234.175 158.869 236.348C161.066 236.73 168.933 230.846 168.956 228.505C168.979 224.532 170.428 220.457 165.31 217.109C161.25 214.451 160.468 209.648 157.914 205.909C153.9 200.024 149.058 194.532 145.332 188.517C144.239 186.745 143.779 185.113 143.779 183.238C143.814 177.969 144.101 172.673 143.71 167.422C143.147 159.747 145.159 154.376 154.729 150.002C164.884 145.367 175.224 143.082 186.311 141.768C185.932 142.392 185.552 143.027 185.173 143.651C184.977 144.08 184.897 144.817 184.563 144.901C178.744 146.402 172.82 147.661 167.07 149.303C161.388 150.925 154.993 151.448 150.749 155.569C148.437 156.437 149.967 158.237 149.311 159.496C146.229 159.3 146.402 160.978 146.022 162.778C144.872 168.262 149.61 173.064 148.437 178.529C147.529 182.781 150.255 186.484 151.957 190.251C157.558 202.617 168.864 211.924 178.468 222.135C178.376 222.704 178.283 223.282 178.191 223.851C175.868 224.187 174.166 225.521 173.947 227.153C173.28 231.927 169.289 235.126 165.839 238.362C163.228 240.805 161.698 243.025 162.205 246.167C156.661 242.931 150.887 245.44 145.93 246.736C141.743 247.827 136.096 247.734 133.439 251.744C132.301 251.753 131.162 251.763 130.012 251.772C128.597 251.688 127.183 251.604 125.768 251.52C130.461 249.431 136.039 248.946 140.398 246.251C147.218 243.92 154.614 242.577 160.675 238.651C153.015 238.138 145.654 236.357 138.04 237.028C131.726 235.825 125.538 234.324 119.707 231.974C120.075 231.731 120.454 231.47 120.822 231.219Z" fill="#241B3B"/>
<path d="M120.822 231.218C120.443 231.47 120.075 231.731 119.695 231.983C114.462 230.808 109.769 228.915 105.928 225.698C103.455 223.627 103.421 221.725 105.767 219.636C117.705 209.024 121.754 195.958 123.123 182.157C123.801 175.349 123.054 168.523 122.513 161.706C121.236 145.498 121.535 129.402 130.898 114.453C133.773 109.865 136.625 105.118 142.56 102.423C140.938 107.925 135.372 111.618 132.761 116.728C129.046 123.993 125.181 131.108 125.365 139.231C125.561 148.37 124.905 157.537 125.584 166.648C126.078 173.269 126.216 179.853 125.308 186.4C124.388 193.077 123.698 199.996 120.903 206.217C118.718 211.075 113.772 215.253 109.459 219.319C106.457 222.145 106.791 223.581 110.08 226.071C113.312 228.533 118.234 228.216 120.822 231.218Z" fill="#2A1D41"/>
<path d="M311.711 303.986C311.723 304.499 311.723 305.012 311.734 305.525C309.837 305.618 307.927 305.786 306.03 305.786C238.286 305.804 170.543 305.814 102.8 305.804C100.706 305.804 98.613 305.618 96.5198 305.515C96.5543 305.002 96.5888 304.489 96.6348 303.977C100.097 303.977 103.57 303.967 107.032 303.967C110.091 303.967 113.139 303.967 116.199 303.967C118.89 303.967 121.581 303.967 124.273 303.967C182.757 303.967 241.242 303.949 299.715 304.023C303.591 304.033 306.915 303.352 309.043 300.787C310.239 299.351 308.387 297.048 310.481 295.574C312.735 298.195 311.102 301.198 311.711 303.986Z" fill="#375176"/>
<path d="M239.218 94.2444C229.614 93.8154 221.092 89.7961 213.052 86.6813C202.885 82.7459 193.546 83.4547 183.517 83.9489C181.366 84.0515 180.055 85.1985 178.479 85.898C170.589 89.3671 161.066 89.8613 154.073 95.0743C151.209 97.2006 148.771 100.064 144.515 100.754C160.41 85.0214 181.412 79.5472 205.576 81.6082C214.686 82.3822 223.335 85.5249 230.903 89.8893C233.559 91.428 236.63 91.9036 239.23 93.3025C239.207 93.6289 239.218 93.9366 239.218 94.2444Z" fill="#241B3B"/>
<path d="M96.6349 303.977C96.6004 304.49 96.5659 305.002 96.5199 305.515C84.2019 305.972 83.7418 305.916 85.2945 296.609C86.6402 288.543 88.7449 280.523 92.8279 272.96C99.1537 261.266 110.586 254.784 125.4 251.66C125.4 252.313 125.388 252.975 125.388 253.628C124.445 253.656 123.594 253.814 123.088 254.56C112.518 256.677 104.502 261.816 97.8425 268.567C96.4279 272.633 92.6784 276.112 93.196 280.663C91.5858 280.812 90.9072 281.595 90.9302 282.864C91.0567 288.161 88.3654 293.019 87.2382 298.12C85.9386 303.958 85.6165 303.911 93.1615 303.986C94.3231 303.977 95.4847 303.977 96.6349 303.977Z" fill="#241B3B"/>
<path d="M263.394 247.025C256.643 244.405 249.891 241.794 241.541 238.558C253.468 236.954 263.578 235.583 273.699 234.221C269.938 237.951 265.936 241.365 258.931 241.299C261.979 242.605 264.027 244.19 263.394 247.025Z" fill="#EFEDF3"/>
<path d="M278.162 132.47C273.573 128.581 270.191 123.489 268.903 118.817C267.327 113.119 263.946 108.54 261.025 103.57C261.059 103.197 261.094 102.824 261.117 102.46C272.181 110.452 278.323 120.281 278.162 132.47Z" fill="#241B3B"/>
<path d="M138.04 237.038C145.654 236.366 153.015 238.147 160.675 238.66C154.625 242.586 147.23 243.929 140.398 246.261C141.79 242.82 141.053 239.733 138.04 237.038Z" fill="#EFEDF3"/>
<path d="M239.218 94.2443C239.218 93.9366 239.218 93.6288 239.207 93.3118C244.325 93.3397 249.454 93.3397 253.158 96.9487C248.293 96.7809 243.888 95.065 239.218 94.2443Z" fill="#2A1D41"/>
<path d="M280.232 151.037C279.013 148.603 279.047 146.169 280.151 143.717C280.784 146.151 280.749 148.594 280.232 151.037Z" fill="#375176"/>
<path d="M125.4 253.628C125.4 252.975 125.411 252.313 125.411 251.66L125.768 251.53C127.183 251.613 128.597 251.697 130.012 251.781C129.609 254.262 127.206 253.46 125.4 253.628Z" fill="#1C2441"/>
<path d="M256.597 98.8233C254.825 98.9166 253.077 98.9725 253.089 96.9116C254.814 96.8836 256.114 97.3592 256.597 98.8233Z" fill="#2A1D41"/>
<path d="M261.128 102.451C261.094 102.824 261.059 103.197 261.036 103.561C258.632 103.393 258.724 102.022 258.874 100.623C259.622 101.229 260.369 101.845 261.128 102.451Z" fill="#2A1D41"/>
<path d="M264.498 247.855C263.67 248.023 263.44 247.65 263.428 247.081C263.785 247.342 264.142 247.604 264.498 247.855Z" fill="#EFEDF3"/>
<path d="M258.943 100.679C258.529 100.343 258.103 100.017 257.689 99.6812C258.103 100.017 258.517 100.353 258.943 100.679Z" fill="#2A1D41"/>
<path d="M178.468 222.145C168.864 211.933 157.569 202.626 151.957 190.261C150.243 186.493 147.517 182.791 148.437 178.538C149.611 173.064 144.872 168.261 146.022 162.787C146.402 160.988 146.229 159.309 149.311 159.505C148.828 168.513 150.761 177.205 154.188 185.747C159.824 199.763 169.301 211.42 185.127 219.198C196.904 224.98 211.925 224.392 223.082 217.687C230.178 213.425 236.124 208.296 240.725 202.113C251.03 188.256 255.113 173.251 254.17 157.183C253.986 154.077 252.284 152.389 249.04 151.177C239 147.428 232.225 141.087 227.947 132.973C226.728 130.67 225.117 128.702 223.105 126.884C222.656 124.329 224.634 124.72 226.543 125.009C226.589 126.203 227.337 126.837 228.809 126.893C228.855 128.88 228.522 130.903 230.523 132.535C237.941 138.522 243.968 145.796 254.112 149.256C254.147 150.459 254.906 151.084 256.401 151.13C256.424 152.361 256.436 153.592 256.459 154.823C256.459 161.351 256.459 167.879 256.459 174.416C256.792 180.842 253.1 186.437 250.466 192.163C246.004 201.89 239.195 210.478 229.062 217.1C227.153 218.349 226.21 219.953 226.474 221.968C223.381 223.46 220.413 225.185 217.158 226.397C203.23 231.582 190.487 228.896 178.468 222.145Z" fill="#38221B"/>
<path d="M226.497 221.958C226.233 219.944 227.176 218.34 229.085 217.09C239.206 210.469 246.027 201.88 250.489 192.154C253.123 186.428 256.815 180.832 256.482 174.407C257.241 174.407 258 174.407 258.77 174.407C259.495 179.751 256.252 184.432 255.055 189.43C252.502 200.08 244.463 208.194 237.665 216.932C233.755 221.958 234.249 228.3 239.091 232.981C240.058 233.914 240.38 234.818 240.38 235.919C239.678 236.888 237.895 237.261 238.079 238.707C235.261 236.59 233.766 233.895 232.156 231.097C230.408 228.048 229.936 224.42 226.589 222.005L226.497 221.958Z" fill="#2A1D41"/>
<path d="M226.555 125.009C224.646 124.72 222.667 124.329 223.116 126.884C222.046 127.21 220.977 127.537 219.907 127.854C219.206 128.022 218.791 128.348 218.952 128.991L219.183 129.159L219.102 129.411C217.135 128.227 216.02 129.495 214.697 130.372C211.201 132.694 207.52 134.895 204.093 137.17C200.619 139.483 194.949 139.641 193.419 143.875L193.408 143.791C190.671 143.745 187.922 143.689 185.184 143.642C185.564 143.017 185.943 142.383 186.323 141.758C190.74 138.671 196.295 137.226 201.424 135.286C208.417 132.638 212.397 127.415 218.113 123.723C222.851 120.673 223.208 120.477 226.555 125.009Z" fill="#2A1D41"/>
<path d="M254.135 149.247C243.991 145.796 237.964 138.522 230.546 132.526C228.533 130.903 228.878 128.87 228.832 126.884C235.687 132.535 241.633 138.876 249.282 143.931C251.364 145.33 255.401 145.759 254.135 149.247Z" fill="#241B3B"/>
<path d="M258.759 174.407C258 174.407 257.241 174.407 256.47 174.407C256.47 167.879 256.47 161.351 256.47 154.814C257.229 154.814 257.988 154.814 258.747 154.823C258.747 155.131 258.759 155.439 258.747 155.747C258.759 161.967 258.759 168.187 258.759 174.407Z" fill="#241B3B"/>
<path d="M258.759 174.407C258.759 168.187 258.759 161.967 258.759 155.747C259.725 155.886 260.841 156.194 260.852 157.024C260.944 162.396 260.944 167.767 260.852 173.139C260.852 173.969 259.736 174.267 258.759 174.407Z" fill="#2A1D41"/>
<path d="M258.759 154.823C258 154.823 257.241 154.823 256.482 154.814C256.459 153.583 256.447 152.352 256.424 151.121C259.564 151.373 258.529 153.359 258.759 154.823Z" fill="#2A1D41"/>
<path d="M256.424 151.121C254.94 151.084 254.17 150.459 254.135 149.247C255.665 149.256 256.436 149.881 256.424 151.121Z" fill="#241B3B"/>
<path d="M178.468 222.145C190.487 228.896 203.219 231.582 217.17 226.388C220.425 225.176 223.392 223.45 226.486 221.958L226.567 222.005C227.82 230.724 230.086 239.024 240.368 244.013C239.517 247.109 235.158 247.37 233.352 249.693C228.372 251.959 223.576 254.598 217.986 255.773C209.142 257.638 200.263 260.436 191.177 256.416C193.005 256.099 194.926 255.325 196.64 255.549C203.736 256.454 210.303 254.159 217.101 253.441C219.631 253.171 222.898 252.453 224.278 249.944C226.808 249.87 230.063 250.457 230.604 247.613C231.052 245.244 233.157 242.288 228.901 240.544C228.522 236.889 226.233 234.035 223.312 231.349C220.908 229.148 217.871 228.841 214.996 229.671C206.681 232.077 198.561 232.198 190.28 229.615C188.428 229.036 185.967 228.924 184.184 229.988C180.066 232.44 176.11 235.042 173.637 238.838C168.128 247.305 172.567 249.739 182.85 251.781C182.666 253.236 184.632 253.572 185.15 254.654C178.41 254.225 173.2 251.017 167.587 248.462C163.136 246.438 162.619 244.955 166.679 241.84C172.935 237.038 178.422 231.564 178.169 223.861C178.284 223.292 178.376 222.714 178.468 222.145Z" fill="#E1BB8A"/>
<path d="M133.439 251.753C136.096 247.734 141.732 247.837 145.93 246.746C150.887 245.449 156.661 242.95 162.204 246.177C162.274 247.79 163.861 248.676 165.172 249.338C173.614 253.563 181.63 258.608 192.085 259.261C192.292 260.258 192.856 261.023 194.224 261.032C200.079 261.051 205.933 261.051 211.787 261.032C213.167 261.023 213.719 260.249 213.915 259.251C220.977 257.694 227.682 255.521 233.479 251.781C237.769 250.578 240.886 247.688 244.957 246.326C250.731 244.386 256.298 246.54 260.933 248.881C263.624 250.233 267.926 248.219 269.122 251.772C267.408 251.642 265.89 252.108 264.429 252.761C259.909 252.462 256.183 250.429 252.33 248.835C248.983 247.454 246.544 247.594 243.543 249.571C238.965 252.583 234.077 255.335 229.028 257.806C219.999 262.226 209.97 264.39 199.527 263.7C187.013 262.87 175.374 259.307 165.425 253.022C157.891 248.266 150.542 248.256 142.618 251.781C139.547 250.28 136.487 252.444 133.439 251.753Z" fill="#1C2441"/>
<path d="M192.085 259.251C181.63 258.598 173.614 253.553 165.172 249.329C163.861 248.667 162.262 247.79 162.204 246.167C161.698 243.025 163.24 240.796 165.839 238.362C169.289 235.126 173.28 231.927 173.947 227.153C174.177 225.53 175.88 224.196 178.191 223.851C178.444 231.554 172.958 237.028 166.701 241.831C162.641 244.946 163.159 246.429 167.61 248.452C173.223 251.007 178.433 254.215 185.173 254.644C185.966 255.698 186.748 255.689 187.508 254.616C188.738 255.213 189.969 255.81 191.2 256.407C200.286 260.426 209.165 257.629 218.009 255.763C223.599 254.588 228.395 251.949 233.375 249.683C233.41 250.373 233.456 251.063 233.49 251.763C227.693 255.502 220.988 257.675 213.926 259.233C206.634 259.242 199.354 259.251 192.085 259.251Z" fill="#38221B"/>
<path d="M295.529 261.098C300.739 264.315 305.213 268.045 307.019 273.305C308.227 276.802 312.126 279.469 311.642 283.451C310.147 283.451 308.641 283.451 307.145 283.442C305.386 276.112 300.544 270.162 294.402 264.8C294.77 263.569 295.149 262.338 295.529 261.098Z" fill="#1C2441"/>
<path d="M295.529 261.098C295.149 262.338 294.77 263.569 294.402 264.809C289.962 262.394 285.293 260.389 280.485 258.468C275.206 256.36 268.846 256.304 264.429 252.733C265.89 252.08 267.408 251.623 269.122 251.744C270.26 251.753 271.411 251.763 272.549 251.772C272.607 252.975 273.366 253.6 274.872 253.609C279.738 254.206 284.465 255.129 288.651 257.349C288.697 258.561 289.456 259.186 290.963 259.205C292.941 259.102 293.942 260.557 295.529 261.098Z" fill="#201B50"/>
<path d="M307.145 283.451C308.64 283.451 310.147 283.451 311.642 283.46C313.885 288.935 316.197 294.362 316.3 300.265C316.346 303.091 315.231 304.35 311.723 303.995C311.113 301.207 312.746 298.214 310.492 295.584C310.492 294.558 310.665 293.476 309.457 292.739C309.687 289.466 308.732 286.407 307.145 283.451Z" fill="#201B50"/>
<path d="M240.38 244.013C230.086 239.024 227.832 230.715 226.578 222.005C229.925 224.42 230.408 228.048 232.145 231.097C233.743 233.895 235.25 236.59 238.068 238.707C238.447 240.591 241.208 241.784 240.38 244.013Z" fill="#38221B"/>
<path d="M290.951 259.214C289.445 259.195 288.686 258.57 288.64 257.358C290.123 257.395 290.894 258.011 290.951 259.214Z" fill="#1C2441"/>
<path d="M274.861 253.609C273.354 253.609 272.595 252.984 272.538 251.772C274.033 251.791 274.803 252.406 274.861 253.609Z" fill="#1C2441"/>
<path d="M219.907 127.854C220.977 127.527 222.046 127.201 223.116 126.884C225.129 128.702 226.739 130.67 227.958 132.973C232.237 141.087 239.022 147.419 249.052 151.177C252.295 152.389 253.997 154.077 254.181 157.183C255.124 173.251 251.041 188.255 240.736 202.113C236.136 208.296 230.189 213.425 223.093 217.687C211.925 224.392 196.916 224.98 185.138 219.198C169.312 211.42 159.835 199.754 154.199 185.747C150.772 177.214 148.828 168.513 149.323 159.505C149.99 158.236 148.46 156.446 150.761 155.579C153.854 154.982 157.006 154.553 160.019 153.769C171.314 150.823 183.275 149.312 193.408 143.81L193.419 143.894C204.035 141.469 212.891 137.002 219.102 129.43L219.182 129.178C219.182 129.178 218.952 129.01 218.941 129.001C219.274 128.609 219.596 128.236 219.907 127.854ZM228.844 139.921C228.844 138.699 228.085 138.065 226.578 138.037C221.126 131.705 223.392 130.39 215.652 136.62C211.879 139.66 207.06 141.404 202.862 143.875C198.79 146.272 192.994 145.675 189.716 149.2C187.577 149.107 185.61 149.498 183.655 150.263C177.582 152.622 170.922 153.406 164.505 154.879C155.81 156.726 155.269 157.248 155.258 164.102C155.246 169.539 155.258 174.976 155.327 180.413C155.338 181.774 155.465 183.07 156.132 184.46C159.686 191.827 164.194 198.84 169.381 205.461C172.487 209.425 175.926 213.891 182.826 214.516C184.368 215.132 185.909 215.757 187.45 216.372C194.903 222.312 203.943 220.485 212.443 219.104C215.134 218.666 218.653 218.713 221.138 216.297C225.267 212.278 230.408 208.949 234.675 205.004C237.458 202.43 240.598 199.745 240.288 195.818C240.322 194.905 240.368 194 240.403 193.086C241.771 192.126 244.095 192.48 244.9 190.643C246.993 185.831 249.776 181.196 249.592 175.89C249.512 173.493 249.972 171.274 251.145 168.858C252.836 165.38 252.64 161.165 251.179 157.556C250.397 155.607 249.73 152.044 244.969 152.967L244.957 152.958C244.325 150.981 242.795 149.75 240.334 149.275C236.4 147.475 233.329 144.975 231.086 141.805C231.132 140.555 230.362 139.949 228.844 139.921Z" fill="#E1BB8A"/>
<path d="M193.419 143.791C183.275 149.293 171.325 150.804 160.031 153.751C157.017 154.534 153.866 154.972 150.772 155.56C155.016 151.429 161.411 150.906 167.092 149.293C172.843 147.652 178.766 146.393 184.586 144.891C184.92 144.808 185 144.071 185.196 143.642C187.933 143.698 190.67 143.744 193.419 143.791Z" fill="#38221B"/>
<path d="M133.439 251.753C136.499 252.444 139.558 250.28 142.606 251.763C140.421 253.721 136.257 252.798 134.532 255.428C130.392 255.53 127.148 257.955 123.123 258.328C123.111 257.069 123.1 255.81 123.1 254.551C123.606 253.814 124.457 253.656 125.4 253.619C127.206 253.451 129.609 254.253 130.012 251.772C131.151 251.772 132.301 251.763 133.439 251.753Z" fill="#201B50"/>
<path d="M309.457 292.721C310.665 293.467 310.481 294.539 310.492 295.565C308.399 297.038 310.251 299.342 309.055 300.778C306.915 303.342 303.603 304.023 299.727 304.014C241.242 303.939 182.758 303.958 124.284 303.958C121.305 301.365 119.189 301.365 116.21 303.958C113.151 303.958 110.103 303.958 107.044 303.958C106.722 303.426 106.538 302.55 106.043 302.419C100.925 301.076 99.7978 298.064 100.062 294.091C100.338 289.942 100.223 285.764 100.097 281.595C100.005 278.639 101.615 275.99 103.846 274.256C110.862 268.828 119.235 264.846 127.712 261.07C126.286 266.963 122.214 270.647 114.83 272.214C103.789 274.564 97.9116 286.78 103.651 294.763C105.054 296.712 107.009 297.505 109.804 297.467C112.829 297.43 115.865 297.644 118.902 297.887C128.551 298.652 137.787 301.477 148.127 298.82C153.82 297.355 161.031 299.276 167.748 298.941C182.355 298.204 197.065 301.608 211.718 298.521C214.674 297.896 217.147 298.614 219.505 300.433C222.587 302.802 226.325 303.324 229.373 300.321C231.247 298.474 233.076 298.614 235.4 299.314C236.803 299.733 238.585 300.424 239.77 300.06C248.097 297.523 257.172 303.165 265.257 298.465C265.683 298.213 266.925 298.419 267.408 298.764C271.019 301.309 273.596 299.444 276.391 297.626C279.369 295.705 282.095 294.353 285.672 297.635C289.192 300.88 299.324 299.911 300.946 296.721C302.384 293.905 298.45 279.702 295.115 278.369C287.846 275.478 287.328 270.125 286.328 264.79C288.018 264.781 289.1 265.602 290.123 266.553C296.23 272.288 300.82 278.751 304.937 285.54C306.386 287.946 305.455 291.424 309.457 292.721Z" fill="#1D4A82"/>
<path d="M127.712 261.088C119.224 264.865 110.851 268.847 103.846 274.275C101.615 276 99.9933 278.658 100.097 281.614C100.235 285.773 100.35 289.951 100.062 294.11C99.7978 298.074 100.925 301.095 106.043 302.438C106.526 302.568 106.71 303.445 107.044 303.977C103.582 303.977 100.108 303.986 96.6464 303.986C95.4962 303.986 94.3346 303.986 93.1844 303.986C93.1614 298.987 93.1269 293.989 94.4036 289.065C95.3007 288.636 95.4962 287.955 95.4387 287.191C95.4617 286.575 95.4962 285.95 95.5192 285.335C97.8655 279.478 100.166 273.613 104.743 268.558C110.264 264.427 116.866 261.573 123.134 258.337C127.171 257.964 130.403 255.53 134.555 255.437L134.636 255.512C133.462 258.3 128.068 257.647 127.712 261.088Z" fill="#214579"/>
<path d="M116.199 303.967C119.178 301.365 121.294 301.365 124.273 303.967C121.581 303.967 118.89 303.967 116.199 303.967Z" fill="#214579"/>
<path d="M123.123 258.328C116.854 261.564 110.253 264.418 104.732 268.549C102.443 268.549 100.143 268.558 97.854 268.558C104.513 261.806 112.53 256.668 123.1 254.551C123.1 255.81 123.111 257.069 123.123 258.328Z" fill="#1C2441"/>
<path d="M94.392 289.065C93.1154 293.989 93.1384 298.987 93.1729 303.986C85.628 303.911 85.95 303.958 87.2497 298.12C88.3883 293.019 91.0681 288.16 90.9416 282.863C90.9071 281.595 91.5857 280.812 93.2074 280.663C93.725 282.304 91.8272 284.719 95.5077 285.335C95.4847 285.95 95.4502 286.575 95.4272 287.191C93.9435 287.396 92.6323 287.666 94.392 289.065Z" fill="#1C2441"/>
<path d="M95.5194 285.326C91.8389 284.71 93.7366 282.295 93.2191 280.653C92.7015 276.103 96.451 272.624 97.8656 268.558C100.154 268.558 102.455 268.549 104.743 268.549C100.154 273.603 97.8542 279.469 95.5194 285.326Z" fill="#201B50"/>
<path d="M219.114 129.411C212.903 136.974 204.035 141.45 193.431 143.875C194.961 139.641 200.631 139.483 204.104 137.17C207.532 134.895 211.224 132.694 214.709 130.372C216.031 129.495 217.147 128.227 219.114 129.411Z" fill="#38221B"/>
<path d="M219.907 127.854C219.585 128.227 219.274 128.609 218.952 128.982C218.791 128.348 219.205 128.022 219.907 127.854Z" fill="#38221B"/>
<path d="M182.873 251.781C172.59 249.739 168.139 247.305 173.66 238.838C176.133 235.042 180.089 232.44 184.207 229.988C185.989 228.924 188.451 229.036 190.303 229.615C198.584 232.198 206.704 232.067 215.019 229.671C217.894 228.841 220.931 229.139 223.335 231.349C226.256 234.035 228.545 236.889 228.924 240.544L228.855 240.591C226.566 240.236 225.06 238.931 224.485 237.327C223.231 233.83 220.356 233.018 216.284 233.084C207.716 233.224 199.136 233.28 190.567 233.065C186.645 232.962 183.528 234.399 180.756 236.003C174.58 239.584 174.638 245.347 180.308 248.853C181.458 249.562 182.861 250.299 182.919 251.735L182.873 251.781Z" fill="#EFB860"/>
<path d="M191.188 256.416C189.957 255.819 188.727 255.222 187.496 254.626C187.485 253.674 187.485 252.723 187.473 251.772L187.496 251.753C197.341 251.268 207.359 253.078 217.02 249.963C219.344 249.217 221.299 247.286 224.255 248.023L224.278 248.032C224.289 248.667 224.289 249.301 224.301 249.926C222.921 252.443 219.666 253.161 217.124 253.423C210.326 254.141 203.759 256.435 196.663 255.53C194.938 255.325 193.017 256.099 191.188 256.416Z" fill="#F3BA50"/>
<path d="M224.301 249.935C224.289 249.301 224.289 248.667 224.278 248.042C229.189 246.923 229.016 243.752 228.855 240.591L228.924 240.544C233.18 242.288 231.086 245.244 230.626 247.613C230.086 250.448 226.831 249.86 224.301 249.935Z" fill="#EFB860"/>
<path d="M187.473 251.772C187.485 252.723 187.485 253.675 187.496 254.626C186.737 255.698 185.966 255.708 185.161 254.654C184.644 253.563 182.677 253.236 182.861 251.781L182.907 251.735C184.437 251.744 185.955 251.763 187.473 251.772Z" fill="#EFB860"/>
<path d="M309.457 292.721C305.455 291.425 306.386 287.946 304.949 285.568C300.831 278.779 296.242 272.316 290.135 266.581C289.111 265.63 288.03 264.809 286.339 264.819C286.236 262.926 284.568 262.935 282.889 262.954C276.77 261.844 271.997 258.011 265.648 257.358C263.52 254.794 260.358 253.675 256.735 253.675C250.443 253.675 244.589 253.348 238.597 256.966C229.43 262.497 217.94 264.436 206.841 266.488C202.482 267.29 198.066 268.176 193.385 266.814C189.681 265.733 185.621 265.453 181.722 264.819C173.832 262.646 167.702 257.778 159.881 255.493C155.522 251.11 151.991 250.541 148.38 253.637C143.469 252.733 139.501 256.398 134.59 255.512C134.59 255.512 134.521 255.437 134.509 255.437C136.223 252.807 140.398 253.721 142.583 251.772C150.508 248.247 157.857 248.256 165.39 253.012C175.339 259.298 186.978 262.851 199.492 263.69C209.935 264.39 219.965 262.226 228.993 257.796C234.042 255.325 238.93 252.574 243.508 249.562C246.51 247.585 248.948 247.454 252.295 248.825C256.16 250.42 259.874 252.453 264.395 252.751C268.811 256.323 275.183 256.379 280.45 258.487C285.27 260.408 289.939 262.413 294.367 264.828C300.509 270.19 305.351 276.14 307.111 283.47C308.732 286.407 309.687 289.466 309.457 292.721Z" fill="#214579"/>
<path d="M192.085 259.251C199.366 259.251 206.646 259.242 213.926 259.242C213.731 260.24 213.179 261.014 211.799 261.023C205.944 261.051 200.09 261.051 194.236 261.023C192.844 261.023 192.281 260.249 192.085 259.251Z" fill="#241B3B"/>
<path d="M187.462 216.363C185.92 215.747 184.379 215.122 182.849 214.507C181.929 211.178 176.984 210.292 175.972 207.028C175.96 205.806 175.19 205.191 173.694 205.153C172.74 198.999 170.922 193.487 166.08 188.069C161.307 182.725 159.904 175.554 159.812 168.569C159.766 165.277 160.916 162.899 164.493 161.342C165.114 161.696 165.965 161.939 166.31 162.424C168.749 165.818 170.428 169.744 173.625 172.551C176.535 175.106 176.351 180.086 182.355 180.319C182.493 180.329 182.654 180.851 182.711 181.149C183.85 186.54 184.241 191.874 180.319 196.751C179.491 197.777 178.513 198.728 177.628 199.726C175.535 202.057 176.305 204.193 178.72 205.871C181.607 207.876 184.793 209.583 187.772 211.504C190.141 213.024 192.143 212.81 194.408 211.262C197.065 209.452 200.424 208.063 203.713 208.1C210.913 208.184 217.078 207.401 220.149 201.237C220.344 200.845 221.414 200.621 222.115 200.547C227.279 200.015 229.844 196.844 232.122 193.683C233.111 192.321 233.973 190.913 235.537 190.083C241.127 187.127 241.714 183.005 239.528 177.242C237.619 172.187 237.424 168.149 241.944 163.953C245.383 160.754 243.83 156.903 239.229 154.553C237.677 153.76 235.963 152.865 235.756 151.093C237.274 151.093 238.804 151.102 240.322 151.102C240.759 153.546 243.105 152.828 244.957 152.939L244.969 152.949C246.395 157.313 247.959 161.65 247.257 166.266C246.74 169.679 244.417 172.663 244.773 176.384C245.187 180.758 246.556 185.616 240.989 189.113C240.08 189.682 240.564 191.715 240.403 193.077C240.368 193.991 240.322 194.895 240.288 195.809C238.309 195.921 237.079 197.18 236.435 198.29C232.743 204.631 225.6 208.408 219.838 213.173C217.17 215.384 213.397 216.559 209.107 216.419C201.907 216.186 194.684 216.363 187.462 216.363Z" fill="#F5B940"/>
<path d="M164.482 161.351C160.905 162.909 159.755 165.287 159.801 168.578C159.904 175.563 161.296 182.735 166.069 188.078C170.9 193.487 172.728 199.008 173.683 205.163C169.094 202.234 168.151 197.553 165.517 193.711C161.836 188.358 158.052 182.837 157.661 176.515C157.178 168.784 156.063 160.801 164.505 154.87C170.911 153.406 177.582 152.613 183.655 150.254C185.61 149.498 187.577 149.097 189.716 149.2C190.889 149.219 192.062 149.228 193.235 149.247C193.235 149.862 193.235 150.478 193.224 151.102C189.612 150.906 186.357 151.429 183.011 152.837C178.64 154.674 174.005 156.147 169.013 156.819C166.264 157.183 164.413 158.796 164.482 161.351Z" fill="#F3BA50"/>
<path d="M164.516 154.87C156.074 160.792 157.19 168.784 157.673 176.515C158.064 182.828 161.848 188.358 165.528 193.711C168.174 197.553 169.105 202.234 173.694 205.163C173.717 206.375 174.476 206.991 175.972 207.037C176.995 210.301 181.941 211.187 182.849 214.516C175.937 213.891 172.51 209.415 169.404 205.461C164.217 198.84 159.697 191.827 156.155 184.46C155.488 183.07 155.361 181.784 155.35 180.413C155.292 174.976 155.281 169.539 155.281 164.102C155.281 157.239 155.821 156.716 164.516 154.87Z" fill="#EFB860"/>
<path d="M187.462 216.363C194.673 216.363 201.907 216.186 209.107 216.409C213.397 216.549 217.158 215.365 219.838 213.164C225.6 208.399 232.743 204.622 236.435 198.28C237.079 197.171 238.309 195.912 240.288 195.8C240.598 199.726 237.458 202.412 234.675 204.985C230.419 208.93 225.267 212.259 221.138 216.279C218.654 218.694 215.134 218.647 212.443 219.086C203.955 220.485 194.926 222.303 187.462 216.363Z" fill="#EFB860"/>
<path d="M240.403 193.077C240.564 191.725 240.081 189.692 240.989 189.113C246.567 185.626 245.199 180.758 244.773 176.384C244.417 172.663 246.74 169.679 247.257 166.266C247.959 161.65 246.395 157.313 244.969 152.949C249.719 152.016 250.397 155.588 251.179 157.537C252.629 161.146 252.824 165.352 251.145 168.84C249.972 171.255 249.5 173.484 249.592 175.871C249.788 181.187 247.004 185.812 244.9 190.624C244.106 192.471 241.771 192.116 240.403 193.077Z" fill="#EFB860"/>
<path d="M193.247 149.246C192.074 149.228 190.9 149.219 189.727 149.2C193.005 145.675 198.79 146.272 202.873 143.875C207.071 141.404 211.891 139.66 215.663 136.62C223.403 130.39 221.126 131.705 226.589 138.037C223.576 138.848 219.481 136.172 217.377 139.912C215.836 139.912 215.157 140.956 214.156 141.627C208.026 145.684 201.056 148.239 193.247 149.246Z" fill="#EFB860"/>
<path d="M217.365 139.912C219.47 136.172 223.564 138.858 226.578 138.037C226.589 139.259 227.348 139.884 228.844 139.921L228.855 139.93C228.89 141.115 229.637 141.749 231.098 141.796C233.341 144.966 236.412 147.465 240.345 149.265C240.345 149.881 240.334 150.496 240.334 151.112C238.815 151.112 237.286 151.102 235.768 151.102C235.756 148.622 231.604 149.498 231.144 147.372C227.878 143.278 224.634 139.147 217.365 139.912Z" fill="#F3BA50"/>
<path d="M240.333 151.112C240.333 150.496 240.345 149.881 240.345 149.265C242.806 149.741 244.336 150.972 244.969 152.949C243.117 152.828 240.771 153.555 240.333 151.112Z" fill="#EFB860"/>
<path d="M231.098 141.796C229.626 141.74 228.89 141.115 228.855 139.93C230.362 139.949 231.133 140.555 231.098 141.796Z" fill="#EFB860"/>
<path d="M228.844 139.921C227.348 139.884 226.589 139.259 226.578 138.037C228.085 138.065 228.844 138.69 228.844 139.921Z" fill="#EFB860"/>
<path d="M265.648 257.358C271.986 258.011 276.77 261.834 282.889 262.953C283.004 264.837 284.66 264.837 286.339 264.818C287.34 270.153 287.857 275.506 295.126 278.396C298.462 279.721 302.384 293.933 300.958 296.749C299.336 299.939 289.215 300.908 285.684 297.663C282.118 294.371 279.381 295.733 276.402 297.654C273.596 299.472 271.031 301.328 267.419 298.792C266.936 298.446 265.694 298.241 265.269 298.493C257.172 303.193 248.109 297.551 239.782 300.088C238.597 300.452 236.814 299.761 235.411 299.342C233.076 298.642 231.248 298.502 229.384 300.349C226.336 303.352 222.598 302.839 219.516 300.461C217.158 298.642 214.685 297.924 211.73 298.549C197.077 301.636 182.366 298.232 167.76 298.969C161.043 299.304 153.82 297.383 148.138 298.847C137.799 301.505 128.563 298.68 118.913 297.915C115.877 297.672 112.84 297.458 109.816 297.495C107.021 297.523 105.065 296.74 103.662 294.791C97.9231 286.808 103.8 274.592 114.842 272.242C122.226 270.675 126.286 266.991 127.723 261.098C134.406 260.762 139.616 256.929 146.08 256.015C147.31 255.838 148.414 254.943 148.414 253.637C152.681 252.49 155.856 255.801 159.916 255.493C167.725 257.778 173.867 262.646 181.757 264.818C181.837 267.803 185.299 268.092 187.404 269.463C195.03 274.433 203.794 274.088 208.509 270.479C211.557 268.148 214.962 267.234 218.941 267.635C223.036 268.054 226.796 267.159 229.327 264.753C234.031 260.277 241.15 260.277 247.05 258.729C252.64 257.255 259.322 256.761 265.648 257.358Z" fill="#154B88"/>
<path d="M148.403 253.637C148.403 254.933 147.299 255.838 146.068 256.015C139.604 256.929 134.394 260.762 127.712 261.098C128.068 257.656 133.462 258.309 134.624 255.512C139.524 256.388 143.492 252.723 148.403 253.637Z" fill="#1D4A82"/>
<path d="M94.3922 289.065C92.6325 287.676 93.9436 287.396 95.4273 287.191C95.4848 287.955 95.2893 288.636 94.3922 289.065Z" fill="#201B50"/>
<path d="M187.473 251.772C185.955 251.763 184.437 251.744 182.919 251.735C182.861 250.289 181.458 249.562 180.308 248.853C174.626 245.337 174.58 239.584 180.756 236.003C183.528 234.399 186.645 232.962 190.567 233.065C199.136 233.289 207.716 233.233 216.284 233.084C220.367 233.018 223.231 233.83 224.485 237.327C225.06 238.931 226.566 240.236 228.855 240.591C229.016 243.761 229.177 246.923 224.278 248.042L224.255 248.033C224.071 239.77 220.448 237.178 210.407 236.749C203.368 236.45 196.594 239.024 189.302 237.299C187.186 236.795 182.654 238.679 181.389 241.551C180.227 244.19 182.297 246.195 184.517 247.986C185.851 249.058 187.496 249.991 187.496 251.763L187.473 251.772Z" fill="#F3BA50"/>
<path d="M187.496 251.753C187.496 249.982 185.84 249.049 184.517 247.977C182.297 246.186 180.227 244.181 181.389 241.542C182.654 238.67 187.185 236.786 189.302 237.289C196.594 239.015 203.368 236.441 210.407 236.739C220.448 237.168 224.071 239.761 224.255 248.023C221.299 247.286 219.343 249.217 217.02 249.963C207.359 253.078 197.341 251.268 187.496 251.753Z" fill="#F5B940"/>
<path d="M265.648 257.358C259.322 256.761 252.64 257.255 247.039 258.72C241.139 260.268 234.031 260.268 229.315 264.744C226.773 267.15 223.024 268.045 218.929 267.625C214.938 267.224 211.546 268.138 208.498 270.47C203.782 274.069 195.018 274.424 187.393 269.453C185.288 268.082 181.826 267.793 181.745 264.809C185.644 265.443 189.704 265.723 193.408 266.805C198.089 268.166 202.505 267.28 206.864 266.478C217.963 264.427 229.453 262.487 238.62 256.957C244.612 253.339 250.466 253.665 256.758 253.665C260.369 253.674 263.52 254.793 265.648 257.358Z" fill="#1D4A82"/>
<path d="M159.904 255.493C155.844 255.791 152.67 252.49 148.403 253.637C152.014 250.541 155.545 251.11 159.904 255.493Z" fill="#1D4A82"/>
<path d="M286.339 264.819C284.66 264.837 283.004 264.846 282.889 262.953C284.568 262.935 286.236 262.925 286.339 264.819Z" fill="#1D4A82"/>
<path d="M231.144 147.372C231.593 149.498 235.745 148.613 235.768 151.102C235.986 152.874 237.7 153.77 239.241 154.562C243.842 156.912 245.394 160.764 241.955 163.962C237.435 168.159 237.619 172.206 239.54 177.251C241.725 183.015 241.127 187.136 235.549 190.093C233.985 190.923 233.111 192.331 232.133 193.692C229.856 196.854 227.291 200.015 222.127 200.556C221.425 200.631 220.356 200.854 220.16 201.246C217.089 207.41 210.913 208.194 203.725 208.11C200.435 208.072 197.077 209.453 194.42 211.271C192.154 212.819 190.153 213.043 187.784 211.514C184.805 209.592 181.619 207.886 178.732 205.881C176.305 204.193 175.546 202.067 177.639 199.735C178.525 198.737 179.503 197.796 180.331 196.76C184.253 191.883 183.873 186.558 182.723 181.159C182.666 180.86 182.505 180.329 182.366 180.329C176.363 180.105 176.547 175.125 173.637 172.561C170.451 169.754 168.76 165.828 166.322 162.433C165.977 161.948 165.114 161.706 164.505 161.351C164.436 158.796 166.288 157.183 169.048 156.819C174.039 156.157 178.675 154.674 183.045 152.837C186.392 151.429 189.658 150.907 193.258 151.102C196.203 150.478 199.009 152.828 202.068 151.27C204.794 149.89 207.773 149.778 210.798 150.729C213.742 151.653 217.112 150.86 218.883 149.676C222.736 147.083 226.854 147.382 231.144 147.372Z" fill="#F3B739"/>
<path d="M175.972 207.037C174.488 207 173.729 206.375 173.694 205.163C175.19 205.2 175.949 205.816 175.972 207.037Z" fill="#F3BA50"/>
<path d="M231.144 147.372C226.854 147.381 222.725 147.092 218.849 149.676C217.078 150.86 213.708 151.653 210.764 150.729C207.75 149.778 204.76 149.89 202.034 151.27C198.975 152.818 196.168 150.478 193.224 151.102C193.224 150.487 193.224 149.871 193.235 149.247C201.056 148.239 208.026 145.694 214.133 141.628C215.146 140.956 215.813 139.912 217.354 139.912C224.634 139.147 227.878 143.278 231.144 147.372Z" fill="#F5B940"/>
</g>
<defs>
<clipPath id="clip0_6_1813">
<rect width="406" height="401" fill="white"/>
</clipPath>
</defs>
</svg>
